<?xml version="1.0" standalone="no"?>
 <!DOCTYPE svg PUBLIC "-//W3C//DTD SVG 1.1//EN" 
 "http://www.w3.org/Graphics/SVG/1.1/DTD/svg11.dtd"> 
<svg xmlns="http://www.w3.org/2000/svg" version="1.1" 
    width="8.68426cm" height="8.90778cm" viewBox="0 0 34190 35070 ">
<title>SVG Picture created as 19-ELC-2700(Telemetry)-brd.svg date 2019/02/23 15:20:51 </title>
  <desc>Picture generated by PCBNEW </desc>
<g style="fill:#000000; fill-opacity:1;stroke:#000000; stroke-opacity:1;
stroke-linecap:round; stroke-linejoin:round; "
 transform="translate(0 0) scale(1 1)">
</g>
<g style="fill:#000000; fill-opacity:0.0; 
stroke:#000000; stroke-width:-0.000393701; stroke-opacity:1; 
stroke-linecap:round; stroke-linejoin:round;">
</g>
<g style="fill:#000000; fill-opacity:0.0; 
stroke:#000000; stroke-width:0; stroke-opacity:1; 
stroke-linecap:round; stroke-linejoin:round;">
</g>
<g style="fill:#000000; fill-opacity:1.0; 
stroke:#000000; stroke-width:0; stroke-opacity:1; 
stroke-linecap:round; stroke-linejoin:round;">
<polyline style="fill-rule:evenodd;"
points="31397,5413
31870,5413
31870,5728
31397,5728
31397,5413
" /> 
<polyline style="fill-rule:evenodd;"
points="31397,5816
31870,5816
31870,6131
31397,6131
31397,5816
" /> 
<polyline style="fill-rule:evenodd;"
points="30834,5816
31307,5816
31307,6131
30834,6131
30834,5816
" /> 
<polyline style="fill-rule:evenodd;"
points="30801,6254
30919,6254
30919,6510
30801,6510
30801,6254
" /> 
<polyline style="fill-rule:evenodd;"
points="30801,5034
30919,5034
30919,5290
30801,5290
30801,5034
" /> 
<polyline style="fill-rule:evenodd;"
points="30834,5413
31307,5413
31307,5728
30834,5728
30834,5413
" /> 
<polyline style="fill-rule:evenodd;"
points="31785,6254
31903,6254
31903,6510
31785,6510
31785,6254
" /> 
<polyline style="fill-rule:evenodd;"
points="31588,6254
31706,6254
31706,6510
31588,6510
31588,6254
" /> 
<polyline style="fill-rule:evenodd;"
points="31391,6254
31509,6254
31509,6510
31391,6510
31391,6254
" /> 
<polyline style="fill-rule:evenodd;"
points="31194,6254
31312,6254
31312,6510
31194,6510
31194,6254
" /> 
<polyline style="fill-rule:evenodd;"
points="30998,6254
31116,6254
31116,6510
30998,6510
30998,6254
" /> 
<polyline style="fill-rule:evenodd;"
points="30998,5034
31116,5034
31116,5290
30998,5290
30998,5034
" /> 
<polyline style="fill-rule:evenodd;"
points="31194,5034
31312,5034
31312,5290
31194,5290
31194,5034
" /> 
<polyline style="fill-rule:evenodd;"
points="31391,5034
31509,5034
31509,5290
31391,5290
31391,5034
" /> 
<polyline style="fill-rule:evenodd;"
points="31588,5034
31706,5034
31706,5290
31588,5290
31588,5034
" /> 
<polyline style="fill-rule:evenodd;"
points="31785,5034
31903,5034
31903,5290
31785,5290
31785,5034
" /> 
<polyline style="fill-rule:evenodd;"
points="24570,10677
24865,10677
24865,11149
24570,11149
24570,10677
" /> 
<polyline style="fill-rule:evenodd;"
points="24570,9929
24865,9929
24865,10401
24570,10401
24570,9929
" /> 
<polyline style="fill-rule:evenodd;"
points="14686,14421
14686,14657
14075,14657
14075,14421
14686,14421
" /> 
<polyline style="fill-rule:evenodd;"
points="14686,13921
14686,14157
14075,14157
14075,13921
14686,13921
" /> 
<polyline style="fill-rule:evenodd;"
points="14686,13421
14686,13657
14075,13657
14075,13421
14686,13421
" /> 
<polyline style="fill-rule:evenodd;"
points="14686,12921
14686,13157
14075,13157
14075,12921
14686,12921
" /> 
<polyline style="fill-rule:evenodd;"
points="12560,12921
12560,13157
11950,13157
11950,12921
12560,12921
" /> 
<polyline style="fill-rule:evenodd;"
points="12560,13421
12560,13657
11950,13657
11950,13421
12560,13421
" /> 
<polyline style="fill-rule:evenodd;"
points="12560,13921
12560,14157
11950,14157
11950,13921
12560,13921
" /> 
<polyline style="fill-rule:evenodd;"
points="12560,14421
12560,14657
11950,14657
11950,14421
12560,14421
" /> 
<polyline style="fill-rule:evenodd;"
points="13534,15102
13544,15104
13552,15106
13561,15109
13569,15113
13577,15118
13585,15123
13591,15129
13598,15136
13603,15143
13608,15151
13612,15160
13615,15168
13617,15177
13618,15186
13619,15195
13619,15382
13618,15392
13617,15401
13615,15410
13612,15418
13608,15426
13603,15434
13598,15442
13591,15448
13585,15455
13577,15460
13569,15465
13561,15469
13552,15472
13544,15474
13534,15475
13525,15476
13299,15476
13290,15475
13281,15474
13272,15472
13263,15469
13255,15465
13247,15460
13240,15455
13233,15448
13227,15442
13221,15434
13216,15426
13213,15418
13209,15410
13207,15401
13206,15392
13205,15382
13205,15195
13206,15186
13207,15177
13209,15168
13213,15160
13216,15151
13221,15143
13227,15136
13233,15129
13240,15123
13247,15118
13255,15113
13263,15109
13272,15106
13281,15104
13290,15102
13299,15102
13525,15102
13534,15102
" /> 
<polyline style="fill-rule:evenodd;"
points="12845,15102
12855,15104
12863,15106
12872,15109
12880,15113
12888,15118
12896,15123
12902,15129
12909,15136
12914,15143
12919,15151
12923,15160
12926,15168
12928,15177
12929,15186
12930,15195
12930,15382
12929,15392
12928,15401
12926,15410
12923,15418
12919,15426
12914,15434
12909,15442
12902,15448
12896,15455
12888,15460
12880,15465
12872,15469
12863,15472
12855,15474
12845,15475
12836,15476
12610,15476
12601,15475
12592,15474
12583,15472
12574,15469
12566,15465
12558,15460
12551,15455
12544,15448
12538,15442
12532,15434
12527,15426
12524,15418
12520,15410
12518,15401
12517,15392
12516,15382
12516,15195
12517,15186
12518,15177
12520,15168
12524,15160
12527,15151
12532,15143
12538,15136
12544,15129
12551,15123
12558,15118
12566,15113
12574,15109
12583,15106
12592,15104
12601,15102
12610,15102
12836,15102
12845,15102
" /> 
<polyline style="fill-rule:evenodd;"
points="16251,12602
16260,12604
16269,12606
16278,12609
16286,12613
16294,12618
16301,12623
16308,12629
16314,12636
16320,12643
16324,12651
16328,12660
16331,12668
16334,12677
16335,12686
16335,12695
16335,12882
16335,12892
16334,12901
16331,12910
16328,12918
16324,12926
16320,12934
16314,12942
16308,12948
16301,12955
16294,12960
16286,12965
16278,12969
16269,12972
16260,12974
16251,12975
16242,12976
16015,12976
16006,12975
15997,12974
15988,12972
15980,12969
15971,12965
15963,12960
15956,12955
15949,12948
15943,12942
15938,12934
15933,12926
15929,12918
15926,12910
15924,12901
15922,12892
15922,12882
15922,12695
15922,12686
15924,12677
15926,12668
15929,12660
15933,12651
15938,12643
15943,12636
15949,12629
15956,12623
15963,12618
15971,12613
15980,12609
15988,12606
15997,12604
16006,12602
16015,12602
16242,12602
16251,12602
" /> 
<polyline style="fill-rule:evenodd;"
points="16940,12602
16949,12604
16958,12606
16967,12609
16975,12613
16983,12618
16990,12623
16997,12629
17003,12636
17009,12643
17013,12651
17017,12660
17020,12668
17023,12677
17024,12686
17024,12695
17024,12882
17024,12892
17023,12901
17020,12910
17017,12918
17013,12926
17009,12934
17003,12942
16997,12948
16990,12955
16983,12960
16975,12965
16967,12969
16958,12972
16949,12974
16940,12975
16931,12976
16704,12976
16695,12975
16686,12974
16677,12972
16669,12969
16660,12965
16652,12960
16645,12955
16638,12948
16632,12942
16627,12934
16622,12926
16618,12918
16615,12910
16613,12901
16611,12892
16611,12882
16611,12695
16611,12686
16613,12677
16615,12668
16618,12660
16622,12651
16627,12643
16632,12636
16638,12629
16645,12623
16652,12618
16660,12613
16669,12609
16677,12606
16686,12604
16695,12602
16704,12602
16931,12602
16940,12602
" /> 
<polyline style="fill-rule:evenodd;"
points="16940,13602
16949,13604
16958,13606
16967,13609
16975,13613
16983,13618
16990,13623
16997,13629
17003,13636
17009,13643
17013,13651
17017,13660
17020,13668
17023,13677
17024,13686
17024,13695
17024,13882
17024,13892
17023,13901
17020,13910
17017,13918
17013,13926
17009,13934
17003,13942
16997,13948
16990,13955
16983,13960
16975,13965
16967,13969
16958,13972
16949,13974
16940,13975
16931,13976
16704,13976
16695,13975
16686,13974
16677,13972
16669,13969
16660,13965
16652,13960
16645,13955
16638,13948
16632,13942
16627,13934
16622,13926
16618,13918
16615,13910
16613,13901
16611,13892
16611,13882
16611,13695
16611,13686
16613,13677
16615,13668
16618,13660
16622,13651
16627,13643
16632,13636
16638,13629
16645,13623
16652,13618
16660,13613
16669,13609
16677,13606
16686,13604
16695,13602
16704,13602
16931,13602
16940,13602
" /> 
<polyline style="fill-rule:evenodd;"
points="16251,13602
16260,13604
16269,13606
16278,13609
16286,13613
16294,13618
16301,13623
16308,13629
16314,13636
16320,13643
16324,13651
16328,13660
16331,13668
16334,13677
16335,13686
16335,13695
16335,13882
16335,13892
16334,13901
16331,13910
16328,13918
16324,13926
16320,13934
16314,13942
16308,13948
16301,13955
16294,13960
16286,13965
16278,13969
16269,13972
16260,13974
16251,13975
16242,13976
16015,13976
16006,13975
15997,13974
15988,13972
15980,13969
15971,13965
15963,13960
15956,13955
15949,13948
15943,13942
15938,13934
15933,13926
15929,13918
15926,13910
15924,13901
15922,13892
15922,13882
15922,13695
15922,13686
15924,13677
15926,13668
15929,13660
15933,13651
15938,13643
15943,13636
15949,13629
15956,13623
15963,13618
15971,13613
15980,13609
15988,13606
15997,13604
16006,13602
16015,13602
16242,13602
16251,13602
" /> 
<polyline style="fill-rule:evenodd;"
points="17420,15583
17429,15584
17438,15586
17447,15589
17455,15593
17463,15598
17470,15603
17477,15610
17483,15616
17489,15624
17494,15632
17498,15640
17501,15649
17503,15657
17504,15667
17505,15676
17505,15902
17504,15911
17503,15920
17501,15929
17498,15938
17494,15946
17489,15954
17483,15961
17477,15968
17470,15974
17463,15980
17455,15985
17447,15988
17438,15992
17429,15994
17420,15995
17411,15996
17224,15996
17215,15995
17206,15994
17197,15992
17188,15988
17180,15985
17172,15980
17165,15974
17158,15968
17152,15961
17146,15954
17142,15946
17138,15938
17135,15929
17132,15920
17131,15911
17131,15902
17131,15676
17131,15667
17132,15657
17135,15649
17138,15640
17142,15632
17146,15624
17152,15616
17158,15610
17165,15603
17172,15598
17180,15593
17188,15589
17197,15586
17206,15584
17215,15583
17224,15582
17411,15582
17420,15583
" /> 
<polyline style="fill-rule:evenodd;"
points="17420,14894
17429,14895
17438,14897
17447,14900
17455,14904
17463,14909
17470,14914
17477,14921
17483,14927
17489,14935
17494,14943
17498,14951
17501,14960
17503,14968
17504,14978
17505,14987
17505,15213
17504,15222
17503,15231
17501,15240
17498,15249
17494,15257
17489,15265
17483,15272
17477,15279
17470,15285
17463,15291
17455,15296
17447,15299
17438,15303
17429,15305
17420,15306
17411,15307
17224,15307
17215,15306
17206,15305
17197,15303
17188,15299
17180,15296
17172,15291
17165,15285
17158,15279
17152,15272
17146,15265
17142,15257
17138,15249
17135,15240
17132,15231
17131,15222
17131,15213
17131,14987
17131,14978
17132,14968
17135,14960
17138,14951
17142,14943
17146,14935
17152,14927
17158,14921
17165,14914
17172,14909
17180,14904
17188,14900
17197,14897
17206,14895
17215,14894
17224,14893
17411,14893
17420,14894
" /> 
<polyline style="fill-rule:evenodd;"
points="30748,29014
30758,29015
30767,29018
30776,29021
30785,29025
30793,29030
30801,29036
30808,29042
30815,29049
30820,29057
30825,29065
30829,29074
30833,29083
30835,29093
30836,29102
30837,29112
30837,29466
30836,29476
30835,29485
30833,29495
30829,29504
30825,29512
30820,29521
30815,29528
30808,29536
30801,29542
30793,29548
30785,29553
30776,29557
30767,29560
30758,29563
30748,29564
30738,29564
30483,29564
30473,29564
30463,29563
30454,29560
30445,29557
30436,29553
30428,29548
30420,29542
30413,29536
30406,29528
30401,29521
30396,29512
30392,29504
30388,29495
30386,29485
30385,29476
30384,29466
30384,29112
30385,29102
30386,29093
30388,29083
30392,29074
30396,29065
30401,29057
30406,29049
30413,29042
30420,29036
30428,29030
30436,29025
30445,29021
30454,29018
30463,29015
30473,29014
30483,29013
30738,29013
30748,29014
" /> 
<polyline style="fill-rule:evenodd;"
points="31555,29014
31565,29015
31574,29018
31583,29021
31592,29025
31600,29030
31608,29036
31615,29042
31622,29049
31627,29057
31632,29065
31636,29074
31640,29083
31642,29093
31644,29102
31644,29112
31644,29466
31644,29476
31642,29485
31640,29495
31636,29504
31632,29512
31627,29521
31622,29528
31615,29536
31608,29542
31600,29548
31592,29553
31583,29557
31574,29560
31565,29563
31555,29564
31546,29564
31290,29564
31280,29564
31270,29563
31261,29560
31252,29557
31243,29553
31235,29548
31227,29542
31220,29536
31214,29528
31208,29521
31203,29512
31199,29504
31195,29495
31193,29485
31192,29476
31191,29466
31191,29112
31192,29102
31193,29093
31195,29083
31199,29074
31203,29065
31208,29057
31214,29049
31220,29042
31227,29036
31235,29030
31243,29025
31252,29021
31261,29018
31270,29015
31280,29014
31290,29013
31546,29013
31555,29014
" /> 
<polyline style="fill-rule:evenodd;"
points="25748,29014
25758,29015
25767,29018
25776,29021
25785,29025
25793,29030
25801,29036
25808,29042
25815,29049
25820,29057
25825,29065
25829,29074
25833,29083
25835,29093
25836,29102
25837,29112
25837,29466
25836,29476
25835,29485
25833,29495
25829,29504
25825,29512
25820,29521
25815,29528
25808,29536
25801,29542
25793,29548
25785,29553
25776,29557
25767,29560
25758,29563
25748,29564
25738,29564
25483,29564
25473,29564
25463,29563
25454,29560
25445,29557
25436,29553
25428,29548
25420,29542
25413,29536
25406,29528
25401,29521
25396,29512
25392,29504
25388,29495
25386,29485
25385,29476
25384,29466
25384,29112
25385,29102
25386,29093
25388,29083
25392,29074
25396,29065
25401,29057
25406,29049
25413,29042
25420,29036
25428,29030
25436,29025
25445,29021
25454,29018
25463,29015
25473,29014
25483,29013
25738,29013
25748,29014
" /> 
<polyline style="fill-rule:evenodd;"
points="26555,29014
26565,29015
26574,29018
26583,29021
26592,29025
26600,29030
26608,29036
26615,29042
26622,29049
26627,29057
26632,29065
26636,29074
26640,29083
26642,29093
26644,29102
26644,29112
26644,29466
26644,29476
26642,29485
26640,29495
26636,29504
26632,29512
26627,29521
26622,29528
26615,29536
26608,29542
26600,29548
26592,29553
26583,29557
26574,29560
26565,29563
26555,29564
26546,29564
26290,29564
26280,29564
26270,29563
26261,29560
26252,29557
26243,29553
26235,29548
26227,29542
26220,29536
26214,29528
26208,29521
26203,29512
26199,29504
26195,29495
26193,29485
26192,29476
26191,29466
26191,29112
26192,29102
26193,29093
26195,29083
26199,29074
26203,29065
26208,29057
26214,29049
26220,29042
26227,29036
26235,29030
26243,29025
26252,29021
26261,29018
26270,29015
26280,29014
26290,29013
26546,29013
26555,29014
" /> 
<polyline style="fill-rule:evenodd;"
points="32270,26583
32279,26584
32288,26586
32297,26589
32305,26593
32313,26598
32320,26603
32327,26610
32333,26616
32339,26624
32344,26632
32348,26640
32351,26649
32353,26657
32354,26667
32355,26676
32355,26902
32354,26911
32353,26920
32351,26929
32348,26938
32344,26946
32339,26954
32333,26961
32327,26968
32320,26974
32313,26980
32305,26985
32297,26988
32288,26992
32279,26994
32270,26995
32261,26996
32074,26996
32065,26995
32056,26994
32047,26992
32038,26988
32030,26985
32022,26980
32015,26974
32008,26968
32002,26961
31996,26954
31992,26946
31988,26938
31985,26929
31982,26920
31981,26911
31981,26902
31981,26676
31981,26667
31982,26657
31985,26649
31988,26640
31992,26632
31996,26624
32002,26616
32008,26610
32015,26603
32022,26598
32030,26593
32038,26589
32047,26586
32056,26584
32065,26583
32074,26582
32261,26582
32270,26583
" /> 
<polyline style="fill-rule:evenodd;"
points="32270,25894
32279,25895
32288,25897
32297,25900
32305,25904
32313,25909
32320,25914
32327,25921
32333,25927
32339,25935
32344,25943
32348,25951
32351,25960
32353,25968
32354,25978
32355,25987
32355,26213
32354,26222
32353,26231
32351,26240
32348,26249
32344,26257
32339,26265
32333,26272
32327,26279
32320,26285
32313,26291
32305,26296
32297,26299
32288,26303
32279,26305
32270,26306
32261,26307
32074,26307
32065,26306
32056,26305
32047,26303
32038,26299
32030,26296
32022,26291
32015,26285
32008,26279
32002,26272
31996,26265
31992,26257
31988,26249
31985,26240
31982,26231
31981,26222
31981,26213
31981,25987
31981,25978
31982,25968
31985,25960
31988,25951
31992,25943
31996,25935
32002,25927
32008,25921
32015,25914
32022,25909
32030,25904
32038,25900
32047,25897
32056,25895
32065,25894
32074,25893
32261,25893
32270,25894
" /> 
<polyline style="fill-rule:evenodd;"
points="29124,12729
28139,12729
28139,11941
29124,11941
29124,12729
" /> 
<polyline style="fill-rule:evenodd;"
points="29124,11154
28139,11154
28139,10366
29124,10366
29124,11154
" /> 
<polyline style="fill-rule:evenodd;"
points="27779,12284
27484,12284
27484,11811
27779,11811
27779,12284
" /> 
<polyline style="fill-rule:evenodd;"
points="27779,11536
27484,11536
27484,11063
27779,11063
27779,11536
" /> 
<polyline style="fill-rule:evenodd;"
points="25664,9285
25664,8793
26255,8793
26255,9285
25664,9285
" /> 
<polyline style="fill-rule:evenodd;"
points="24680,9285
24680,8793
25271,8793
25271,9285
24680,9285
" /> 
<polyline style="fill-rule:evenodd;"
points="26254,13141
26254,13437
25781,13437
25781,13141
26254,13141
" /> 
<polyline style="fill-rule:evenodd;"
points="27002,13141
27002,13437
26529,13437
26529,13141
27002,13141
" /> 
<polyline style="fill-rule:evenodd;"
points="25960,14933
24975,14933
24975,14145
25960,14145
25960,14933
" /> 
<polyline style="fill-rule:evenodd;"
points="25960,16507
24975,16507
24975,15720
25960,15720
25960,16507
" /> 
<polyline style="fill-rule:evenodd;"
points="23615,15149
23320,15149
23320,14677
23615,14677
23615,15149
" /> 
<polyline style="fill-rule:evenodd;"
points="23615,14401
23320,14401
23320,13929
23615,13929
23615,14401
" /> 
<polyline style="fill-rule:evenodd;"
points="31405,1843
31405,2335
30814,2335
30814,1843
31405,1843
" /> 
<polyline style="fill-rule:evenodd;"
points="30421,1843
30421,2335
29830,2335
29830,1843
30421,1843
" /> 
<polyline style="fill-rule:evenodd;"
points="5020,19927
5029,19928
5038,19931
5047,19934
5055,19938
5063,19942
5070,19948
5077,19954
5083,19961
5089,19968
5094,19976
5098,19984
5101,19993
5103,20002
5104,20011
5105,20020
5105,20247
5104,20256
5103,20265
5101,20274
5098,20282
5094,20291
5089,20298
5083,20306
5077,20313
5070,20319
5063,20324
5055,20329
5047,20333
5038,20336
5029,20338
5020,20340
5011,20340
4824,20340
4815,20340
4806,20338
4797,20336
4788,20333
4780,20329
4772,20324
4765,20319
4758,20313
4752,20306
4746,20298
4742,20291
4738,20282
4735,20274
4732,20265
4731,20256
4731,20247
4731,20020
4731,20011
4732,20002
4735,19993
4738,19984
4742,19976
4746,19968
4752,19961
4758,19954
4765,19948
4772,19942
4780,19938
4788,19934
4797,19931
4806,19928
4815,19927
4824,19927
5011,19927
5020,19927
" /> 
<polyline style="fill-rule:evenodd;"
points="5020,19238
5029,19239
5038,19242
5047,19245
5055,19249
5063,19253
5070,19259
5077,19265
5083,19272
5089,19279
5094,19287
5098,19295
5101,19304
5103,19313
5104,19322
5105,19331
5105,19558
5104,19567
5103,19576
5101,19585
5098,19593
5094,19602
5089,19610
5083,19617
5077,19624
5070,19630
5063,19635
5055,19640
5047,19644
5038,19647
5029,19649
5020,19651
5011,19651
4824,19651
4815,19651
4806,19649
4797,19647
4788,19644
4780,19640
4772,19635
4765,19630
4758,19624
4752,19617
4746,19610
4742,19602
4738,19593
4735,19585
4732,19576
4731,19567
4731,19558
4731,19331
4731,19322
4732,19313
4735,19304
4738,19295
4742,19287
4746,19279
4752,19272
4758,19265
4765,19259
4772,19253
4780,19249
4788,19245
4797,19242
4806,19239
4815,19238
4824,19238
5011,19238
5020,19238
" /> 
<polyline style="fill-rule:evenodd;"
points="5020,21238
5029,21239
5038,21242
5047,21245
5055,21249
5063,21253
5070,21259
5077,21265
5083,21272
5089,21279
5094,21287
5098,21295
5101,21304
5103,21313
5104,21322
5105,21331
5105,21558
5104,21567
5103,21576
5101,21585
5098,21593
5094,21602
5089,21610
5083,21617
5077,21624
5070,21630
5063,21635
5055,21640
5047,21644
5038,21647
5029,21649
5020,21651
5011,21651
4824,21651
4815,21651
4806,21649
4797,21647
4788,21644
4780,21640
4772,21635
4765,21630
4758,21624
4752,21617
4746,21610
4742,21602
4738,21593
4735,21585
4732,21576
4731,21567
4731,21558
4731,21331
4731,21322
4732,21313
4735,21304
4738,21295
4742,21287
4746,21279
4752,21272
4758,21265
4765,21259
4772,21253
4780,21249
4788,21245
4797,21242
4806,21239
4815,21238
4824,21238
5011,21238
5020,21238
" /> 
<polyline style="fill-rule:evenodd;"
points="5020,21927
5029,21928
5038,21931
5047,21934
5055,21938
5063,21942
5070,21948
5077,21954
5083,21961
5089,21968
5094,21976
5098,21984
5101,21993
5103,22002
5104,22011
5105,22020
5105,22247
5104,22256
5103,22265
5101,22274
5098,22282
5094,22291
5089,22298
5083,22306
5077,22313
5070,22319
5063,22324
5055,22329
5047,22333
5038,22336
5029,22338
5020,22340
5011,22340
4824,22340
4815,22340
4806,22338
4797,22336
4788,22333
4780,22329
4772,22324
4765,22319
4758,22313
4752,22306
4746,22298
4742,22291
4738,22282
4735,22274
4732,22265
4731,22256
4731,22247
4731,22020
4731,22011
4732,22002
4735,21993
4738,21984
4742,21976
4746,21968
4752,21961
4758,21954
4765,21948
4772,21942
4780,21938
4788,21934
4797,21931
4806,21928
4815,21927
4824,21927
5011,21927
5020,21927
" /> 
<polyline style="fill-rule:evenodd;"
points="5020,23927
5029,23928
5038,23931
5047,23934
5055,23938
5063,23942
5070,23948
5077,23954
5083,23961
5089,23968
5094,23976
5098,23984
5101,23993
5103,24002
5104,24011
5105,24020
5105,24247
5104,24256
5103,24265
5101,24274
5098,24282
5094,24291
5089,24298
5083,24306
5077,24313
5070,24319
5063,24324
5055,24329
5047,24333
5038,24336
5029,24338
5020,24340
5011,24340
4824,24340
4815,24340
4806,24338
4797,24336
4788,24333
4780,24329
4772,24324
4765,24319
4758,24313
4752,24306
4746,24298
4742,24291
4738,24282
4735,24274
4732,24265
4731,24256
4731,24247
4731,24020
4731,24011
4732,24002
4735,23993
4738,23984
4742,23976
4746,23968
4752,23961
4758,23954
4765,23948
4772,23942
4780,23938
4788,23934
4797,23931
4806,23928
4815,23927
4824,23927
5011,23927
5020,23927
" /> 
<polyline style="fill-rule:evenodd;"
points="5020,23238
5029,23239
5038,23242
5047,23245
5055,23249
5063,23253
5070,23259
5077,23265
5083,23272
5089,23279
5094,23287
5098,23295
5101,23304
5103,23313
5104,23322
5105,23331
5105,23558
5104,23567
5103,23576
5101,23585
5098,23593
5094,23602
5089,23610
5083,23617
5077,23624
5070,23630
5063,23635
5055,23640
5047,23644
5038,23647
5029,23649
5020,23651
5011,23651
4824,23651
4815,23651
4806,23649
4797,23647
4788,23644
4780,23640
4772,23635
4765,23630
4758,23624
4752,23617
4746,23610
4742,23602
4738,23593
4735,23585
4732,23576
4731,23567
4731,23558
4731,23331
4731,23322
4732,23313
4735,23304
4738,23295
4742,23287
4746,23279
4752,23272
4758,23265
4765,23259
4772,23253
4780,23249
4788,23245
4797,23242
4806,23239
4815,23238
4824,23238
5011,23238
5020,23238
" /> 
<polyline style="fill-rule:evenodd;"
points="26356,13807
28679,13807
28679,14771
26356,14771
26356,13807
" /> 
<polyline style="fill-rule:evenodd;"
points="26356,15992
28679,15992
28679,16956
26356,16956
26356,15992
" /> 
<polyline style="fill-rule:evenodd;"
points="10940,14602
10949,14604
10958,14606
10967,14609
10975,14613
10983,14618
10990,14623
10997,14629
11003,14636
11009,14643
11013,14651
11017,14660
11020,14668
11023,14677
11024,14686
11024,14695
11024,14882
11024,14892
11023,14901
11020,14910
11017,14918
11013,14926
11009,14934
11003,14942
10997,14948
10990,14955
10983,14960
10975,14965
10967,14969
10958,14972
10949,14974
10940,14975
10931,14976
10704,14976
10695,14975
10686,14974
10677,14972
10669,14969
10660,14965
10652,14960
10645,14955
10638,14948
10632,14942
10627,14934
10622,14926
10618,14918
10615,14910
10613,14901
10611,14892
10611,14882
10611,14695
10611,14686
10613,14677
10615,14668
10618,14660
10622,14651
10627,14643
10632,14636
10638,14629
10645,14623
10652,14618
10660,14613
10669,14609
10677,14606
10686,14604
10695,14602
10704,14602
10931,14602
10940,14602
" /> 
<polyline style="fill-rule:evenodd;"
points="10251,14602
10260,14604
10269,14606
10278,14609
10286,14613
10294,14618
10301,14623
10308,14629
10314,14636
10320,14643
10324,14651
10328,14660
10331,14668
10334,14677
10335,14686
10335,14695
10335,14882
10335,14892
10334,14901
10331,14910
10328,14918
10324,14926
10320,14934
10314,14942
10308,14948
10301,14955
10294,14960
10286,14965
10278,14969
10269,14972
10260,14974
10251,14975
10242,14976
10015,14976
10006,14975
9997,14974
9988,14972
9980,14969
9971,14965
9963,14960
9956,14955
9949,14948
9943,14942
9938,14934
9933,14926
9929,14918
9926,14910
9924,14901
9922,14892
9922,14882
9922,14695
9922,14686
9924,14677
9926,14668
9929,14660
9933,14651
9938,14643
9943,14636
9949,14629
9956,14623
9963,14618
9971,14613
9980,14609
9988,14606
9997,14604
10006,14602
10015,14602
10242,14602
10251,14602
" /> 
<polyline style="fill-rule:evenodd;"
points="10251,12102
10260,12104
10269,12106
10278,12109
10286,12113
10294,12118
10301,12123
10308,12129
10314,12136
10320,12143
10324,12151
10328,12160
10331,12168
10334,12177
10335,12186
10335,12195
10335,12382
10335,12392
10334,12401
10331,12410
10328,12418
10324,12426
10320,12434
10314,12442
10308,12448
10301,12455
10294,12460
10286,12465
10278,12469
10269,12472
10260,12474
10251,12475
10242,12476
10015,12476
10006,12475
9997,12474
9988,12472
9980,12469
9971,12465
9963,12460
9956,12455
9949,12448
9943,12442
9938,12434
9933,12426
9929,12418
9926,12410
9924,12401
9922,12392
9922,12382
9922,12195
9922,12186
9924,12177
9926,12168
9929,12160
9933,12151
9938,12143
9943,12136
9949,12129
9956,12123
9963,12118
9971,12113
9980,12109
9988,12106
9997,12104
10006,12102
10015,12102
10242,12102
10251,12102
" /> 
<polyline style="fill-rule:evenodd;"
points="10940,12102
10949,12104
10958,12106
10967,12109
10975,12113
10983,12118
10990,12123
10997,12129
11003,12136
11009,12143
11013,12151
11017,12160
11020,12168
11023,12177
11024,12186
11024,12195
11024,12382
11024,12392
11023,12401
11020,12410
11017,12418
11013,12426
11009,12434
11003,12442
10997,12448
10990,12455
10983,12460
10975,12465
10967,12469
10958,12472
10949,12474
10940,12475
10931,12476
10704,12476
10695,12475
10686,12474
10677,12472
10669,12469
10660,12465
10652,12460
10645,12455
10638,12448
10632,12442
10627,12434
10622,12426
10618,12418
10615,12410
10613,12401
10611,12392
10611,12382
10611,12195
10611,12186
10613,12177
10615,12168
10618,12160
10622,12151
10627,12143
10632,12136
10638,12129
10645,12123
10652,12118
10660,12113
10669,12109
10677,12106
10686,12104
10695,12102
10704,12102
10931,12102
10940,12102
" /> 
<polyline style="fill-rule:evenodd;"
points="4020,19927
4029,19928
4038,19931
4047,19934
4055,19938
4063,19942
4070,19948
4077,19954
4083,19961
4089,19968
4094,19976
4098,19984
4101,19993
4103,20002
4104,20011
4105,20020
4105,20247
4104,20256
4103,20265
4101,20274
4098,20282
4094,20291
4089,20298
4083,20306
4077,20313
4070,20319
4063,20324
4055,20329
4047,20333
4038,20336
4029,20338
4020,20340
4011,20340
3824,20340
3815,20340
3806,20338
3797,20336
3788,20333
3780,20329
3772,20324
3765,20319
3758,20313
3752,20306
3746,20298
3742,20291
3738,20282
3735,20274
3732,20265
3731,20256
3731,20247
3731,20020
3731,20011
3732,20002
3735,19993
3738,19984
3742,19976
3746,19968
3752,19961
3758,19954
3765,19948
3772,19942
3780,19938
3788,19934
3797,19931
3806,19928
3815,19927
3824,19927
4011,19927
4020,19927
" /> 
<polyline style="fill-rule:evenodd;"
points="4020,19238
4029,19239
4038,19242
4047,19245
4055,19249
4063,19253
4070,19259
4077,19265
4083,19272
4089,19279
4094,19287
4098,19295
4101,19304
4103,19313
4104,19322
4105,19331
4105,19558
4104,19567
4103,19576
4101,19585
4098,19593
4094,19602
4089,19610
4083,19617
4077,19624
4070,19630
4063,19635
4055,19640
4047,19644
4038,19647
4029,19649
4020,19651
4011,19651
3824,19651
3815,19651
3806,19649
3797,19647
3788,19644
3780,19640
3772,19635
3765,19630
3758,19624
3752,19617
3746,19610
3742,19602
3738,19593
3735,19585
3732,19576
3731,19567
3731,19558
3731,19331
3731,19322
3732,19313
3735,19304
3738,19295
3742,19287
3746,19279
3752,19272
3758,19265
3765,19259
3772,19253
3780,19249
3788,19245
3797,19242
3806,19239
3815,19238
3824,19238
4011,19238
4020,19238
" /> 
<polyline style="fill-rule:evenodd;"
points="4020,21927
4029,21928
4038,21931
4047,21934
4055,21938
4063,21942
4070,21948
4077,21954
4083,21961
4089,21968
4094,21976
4098,21984
4101,21993
4103,22002
4104,22011
4105,22020
4105,22247
4104,22256
4103,22265
4101,22274
4098,22282
4094,22291
4089,22298
4083,22306
4077,22313
4070,22319
4063,22324
4055,22329
4047,22333
4038,22336
4029,22338
4020,22340
4011,22340
3824,22340
3815,22340
3806,22338
3797,22336
3788,22333
3780,22329
3772,22324
3765,22319
3758,22313
3752,22306
3746,22298
3742,22291
3738,22282
3735,22274
3732,22265
3731,22256
3731,22247
3731,22020
3731,22011
3732,22002
3735,21993
3738,21984
3742,21976
3746,21968
3752,21961
3758,21954
3765,21948
3772,21942
3780,21938
3788,21934
3797,21931
3806,21928
3815,21927
3824,21927
4011,21927
4020,21927
" /> 
<polyline style="fill-rule:evenodd;"
points="4020,21238
4029,21239
4038,21242
4047,21245
4055,21249
4063,21253
4070,21259
4077,21265
4083,21272
4089,21279
4094,21287
4098,21295
4101,21304
4103,21313
4104,21322
4105,21331
4105,21558
4104,21567
4103,21576
4101,21585
4098,21593
4094,21602
4089,21610
4083,21617
4077,21624
4070,21630
4063,21635
4055,21640
4047,21644
4038,21647
4029,21649
4020,21651
4011,21651
3824,21651
3815,21651
3806,21649
3797,21647
3788,21644
3780,21640
3772,21635
3765,21630
3758,21624
3752,21617
3746,21610
3742,21602
3738,21593
3735,21585
3732,21576
3731,21567
3731,21558
3731,21331
3731,21322
3732,21313
3735,21304
3738,21295
3742,21287
3746,21279
3752,21272
3758,21265
3765,21259
3772,21253
3780,21249
3788,21245
3797,21242
3806,21239
3815,21238
3824,21238
4011,21238
4020,21238
" /> 
<polyline style="fill-rule:evenodd;"
points="4020,23238
4029,23239
4038,23242
4047,23245
4055,23249
4063,23253
4070,23259
4077,23265
4083,23272
4089,23279
4094,23287
4098,23295
4101,23304
4103,23313
4104,23322
4105,23331
4105,23558
4104,23567
4103,23576
4101,23585
4098,23593
4094,23602
4089,23610
4083,23617
4077,23624
4070,23630
4063,23635
4055,23640
4047,23644
4038,23647
4029,23649
4020,23651
4011,23651
3824,23651
3815,23651
3806,23649
3797,23647
3788,23644
3780,23640
3772,23635
3765,23630
3758,23624
3752,23617
3746,23610
3742,23602
3738,23593
3735,23585
3732,23576
3731,23567
3731,23558
3731,23331
3731,23322
3732,23313
3735,23304
3738,23295
3742,23287
3746,23279
3752,23272
3758,23265
3765,23259
3772,23253
3780,23249
3788,23245
3797,23242
3806,23239
3815,23238
3824,23238
4011,23238
4020,23238
" /> 
<polyline style="fill-rule:evenodd;"
points="4020,23927
4029,23928
4038,23931
4047,23934
4055,23938
4063,23942
4070,23948
4077,23954
4083,23961
4089,23968
4094,23976
4098,23984
4101,23993
4103,24002
4104,24011
4105,24020
4105,24247
4104,24256
4103,24265
4101,24274
4098,24282
4094,24291
4089,24298
4083,24306
4077,24313
4070,24319
4063,24324
4055,24329
4047,24333
4038,24336
4029,24338
4020,24340
4011,24340
3824,24340
3815,24340
3806,24338
3797,24336
3788,24333
3780,24329
3772,24324
3765,24319
3758,24313
3752,24306
3746,24298
3742,24291
3738,24282
3735,24274
3732,24265
3731,24256
3731,24247
3731,24020
3731,24011
3732,24002
3735,23993
3738,23984
3742,23976
3746,23968
3752,23961
3758,23954
3765,23948
3772,23942
3780,23938
3788,23934
3797,23931
3806,23928
3815,23927
3824,23927
4011,23927
4020,23927
" /> 
<polyline style="fill-rule:evenodd;"
points="4020,27083
4029,27084
4038,27086
4047,27089
4055,27093
4063,27098
4070,27103
4077,27110
4083,27116
4089,27124
4094,27132
4098,27140
4101,27149
4103,27157
4104,27167
4105,27176
4105,27402
4104,27411
4103,27420
4101,27429
4098,27438
4094,27446
4089,27454
4083,27461
4077,27468
4070,27474
4063,27480
4055,27485
4047,27488
4038,27492
4029,27494
4020,27495
4011,27496
3824,27496
3815,27495
3806,27494
3797,27492
3788,27488
3780,27485
3772,27480
3765,27474
3758,27468
3752,27461
3746,27454
3742,27446
3738,27438
3735,27429
3732,27420
3731,27411
3731,27402
3731,27176
3731,27167
3732,27157
3735,27149
3738,27140
3742,27132
3746,27124
3752,27116
3758,27110
3765,27103
3772,27098
3780,27093
3788,27089
3797,27086
3806,27084
3815,27083
3824,27082
4011,27082
4020,27083
" /> 
<polyline style="fill-rule:evenodd;"
points="4020,26394
4029,26395
4038,26397
4047,26400
4055,26404
4063,26409
4070,26414
4077,26421
4083,26427
4089,26435
4094,26443
4098,26451
4101,26460
4103,26468
4104,26478
4105,26487
4105,26713
4104,26722
4103,26731
4101,26740
4098,26749
4094,26757
4089,26765
4083,26772
4077,26779
4070,26785
4063,26791
4055,26796
4047,26799
4038,26803
4029,26805
4020,26806
4011,26807
3824,26807
3815,26806
3806,26805
3797,26803
3788,26799
3780,26796
3772,26791
3765,26785
3758,26779
3752,26772
3746,26765
3742,26757
3738,26749
3735,26740
3732,26731
3731,26722
3731,26713
3731,26487
3731,26478
3732,26468
3735,26460
3738,26451
3742,26443
3746,26435
3752,26427
3758,26421
3765,26414
3772,26409
3780,26404
3788,26400
3797,26397
3806,26395
3815,26394
3824,26393
4011,26393
4020,26394
" /> 
<polyline style="fill-rule:evenodd;"
points="4020,24894
4029,24895
4038,24897
4047,24900
4055,24904
4063,24909
4070,24914
4077,24921
4083,24927
4089,24935
4094,24943
4098,24951
4101,24960
4103,24968
4104,24978
4105,24987
4105,25213
4104,25222
4103,25231
4101,25240
4098,25249
4094,25257
4089,25265
4083,25272
4077,25279
4070,25285
4063,25291
4055,25296
4047,25299
4038,25303
4029,25305
4020,25306
4011,25307
3824,25307
3815,25306
3806,25305
3797,25303
3788,25299
3780,25296
3772,25291
3765,25285
3758,25279
3752,25272
3746,25265
3742,25257
3738,25249
3735,25240
3732,25231
3731,25222
3731,25213
3731,24987
3731,24978
3732,24968
3735,24960
3738,24951
3742,24943
3746,24935
3752,24927
3758,24921
3765,24914
3772,24909
3780,24904
3788,24900
3797,24897
3806,24895
3815,24894
3824,24893
4011,24893
4020,24894
" /> 
<polyline style="fill-rule:evenodd;"
points="4020,25583
4029,25584
4038,25586
4047,25589
4055,25593
4063,25598
4070,25603
4077,25610
4083,25616
4089,25624
4094,25632
4098,25640
4101,25649
4103,25657
4104,25667
4105,25676
4105,25902
4104,25911
4103,25920
4101,25929
4098,25938
4094,25946
4089,25954
4083,25961
4077,25968
4070,25974
4063,25980
4055,25985
4047,25988
4038,25992
4029,25994
4020,25995
4011,25996
3824,25996
3815,25995
3806,25994
3797,25992
3788,25988
3780,25985
3772,25980
3765,25974
3758,25968
3752,25961
3746,25954
3742,25946
3738,25938
3735,25929
3732,25920
3731,25911
3731,25902
3731,25676
3731,25667
3732,25657
3735,25649
3738,25640
3742,25632
3746,25624
3752,25616
3758,25610
3765,25603
3772,25598
3780,25593
3788,25589
3797,25586
3806,25584
3815,25583
3824,25582
4011,25582
4020,25583
" /> 
<polyline style="fill-rule:evenodd;"
points="24695,25602
24705,25604
24713,25606
24722,25609
24730,25613
24738,25618
24746,25623
24752,25629
24759,25636
24764,25643
24769,25651
24773,25660
24776,25668
24778,25677
24779,25686
24780,25695
24780,25882
24779,25892
24778,25901
24776,25910
24773,25918
24769,25926
24764,25934
24759,25942
24752,25948
24746,25955
24738,25960
24730,25965
24722,25969
24713,25972
24705,25974
24695,25975
24686,25976
24460,25976
24451,25975
24442,25974
24433,25972
24424,25969
24416,25965
24408,25960
24401,25955
24394,25948
24388,25942
24382,25934
24377,25926
24374,25918
24370,25910
24368,25901
24367,25892
24366,25882
24366,25695
24367,25686
24368,25677
24370,25668
24374,25660
24377,25651
24382,25643
24388,25636
24394,25629
24401,25623
24408,25618
24416,25613
24424,25609
24433,25606
24442,25604
24451,25602
24460,25602
24686,25602
24695,25602
" /> 
<polyline style="fill-rule:evenodd;"
points="25384,25602
25394,25604
25402,25606
25411,25609
25419,25613
25427,25618
25435,25623
25441,25629
25448,25636
25453,25643
25458,25651
25462,25660
25465,25668
25467,25677
25468,25686
25469,25695
25469,25882
25468,25892
25467,25901
25465,25910
25462,25918
25458,25926
25453,25934
25448,25942
25441,25948
25435,25955
25427,25960
25419,25965
25411,25969
25402,25972
25394,25974
25384,25975
25375,25976
25149,25976
25140,25975
25131,25974
25122,25972
25113,25969
25105,25965
25097,25960
25090,25955
25083,25948
25077,25942
25071,25934
25066,25926
25063,25918
25059,25910
25057,25901
25056,25892
25055,25882
25055,25695
25056,25686
25057,25677
25059,25668
25063,25660
25066,25651
25071,25643
25077,25636
25083,25629
25090,25623
25097,25618
25105,25613
25113,25609
25122,25606
25131,25604
25140,25602
25149,25602
25375,25602
25384,25602
" /> 
<polyline style="fill-rule:evenodd;"
points="27548,9966
27548,9612
28021,9612
28021,9966
27548,9966
" /> 
<polyline style="fill-rule:evenodd;"
points="28414,9966
28414,9612
28887,9612
28887,9966
28414,9966
" /> 
<polyline style="fill-rule:evenodd;"
points="24395,14275
24040,14275
24040,13803
24395,13803
24395,14275
" /> 
<polyline style="fill-rule:evenodd;"
points="24395,15141
24040,15141
24040,14669
24395,14669
24395,15141
" /> 
<polyline style="fill-rule:evenodd;"
points="24395,13391
24040,13391
24040,12919
24395,12919
24395,13391
" /> 
<polyline style="fill-rule:evenodd;"
points="24395,12525
24040,12525
24040,12053
24395,12053
24395,12525
" /> 
<polyline style="fill-rule:evenodd;"
points="32354,2912
32354,3266
31881,3266
31881,2912
32354,2912
" /> 
<polyline style="fill-rule:evenodd;"
points="31488,2912
31488,3266
31015,3266
31015,2912
31488,2912
" /> 
<polyline style="fill-rule:evenodd;"
points="28921,2912
28921,3266
28448,3266
28448,2912
28921,2912
" /> 
<polyline style="fill-rule:evenodd;"
points="29787,2912
29787,3266
29314,3266
29314,2912
29787,2912
" /> 
<polyline style="fill-rule:evenodd;"
points="30921,3912
30921,4266
30448,4266
30448,3912
30921,3912
" /> 
<polyline style="fill-rule:evenodd;"
points="31787,3912
31787,4266
31314,4266
31314,3912
31787,3912
" /> 
<polyline style="fill-rule:evenodd;"
points="29787,3912
29787,4266
29314,4266
29314,3912
29787,3912
" /> 
<polyline style="fill-rule:evenodd;"
points="28921,3912
28921,4266
28448,4266
28448,3912
28921,3912
" /> 
<polyline style="fill-rule:evenodd;"
points="29340,4887
29695,4887
29695,5359
29340,5359
29340,4887
" /> 
<polyline style="fill-rule:evenodd;"
points="29340,5753
29695,5753
29695,6225
29340,6225
29340,5753
" /> 
<polyline style="fill-rule:evenodd;"
points="30395,6225
30040,6225
30040,5753
30395,5753
30395,6225
" /> 
<polyline style="fill-rule:evenodd;"
points="30395,7091
30040,7091
30040,6619
30395,6619
30395,7091
" /> 
<polyline style="fill-rule:evenodd;"
points="5140,31962
4695,31962
4695,31001
5140,31001
5140,31962
" /> 
<polyline style="fill-rule:evenodd;"
points="5140,28576
4695,28576
4695,27616
5140,27616
5140,28576
" /> 
<polyline style="fill-rule:evenodd;"
points="6140,31962
5695,31962
5695,31001
6140,31001
6140,31962
" /> 
<polyline style="fill-rule:evenodd;"
points="6140,28576
5695,28576
5695,27616
6140,27616
6140,28576
" /> 
<polyline style="fill-rule:evenodd;"
points="14248,33643
14248,32935
15587,32935
15587,33643
14248,33643
" /> 
<polyline style="fill-rule:evenodd;"
points="6748,33643
6748,32935
8087,32935
8087,33643
6748,33643
" /> 
<polyline style="fill-rule:evenodd;"
points="11748,33643
11748,32935
13087,32935
13087,33643
11748,33643
" /> 
<polyline style="fill-rule:evenodd;"
points="9248,33643
9248,32935
10587,32935
10587,33643
9248,33643
" /> 
<polyline style="fill-rule:evenodd;"
points="29097,27171
29097,27407
28487,27407
28487,27171
29097,27171
" /> 
<polyline style="fill-rule:evenodd;"
points="29097,26671
29097,26907
28487,26907
28487,26671
29097,26671
" /> 
<polyline style="fill-rule:evenodd;"
points="29097,26171
29097,26407
28487,26407
28487,26171
29097,26171
" /> 
<polyline style="fill-rule:evenodd;"
points="29097,25671
29097,25907
28487,25907
28487,25671
29097,25671
" /> 
<polyline style="fill-rule:evenodd;"
points="31223,25671
31223,25907
30612,25907
30612,25671
31223,25671
" /> 
<polyline style="fill-rule:evenodd;"
points="31223,26171
31223,26407
30612,26407
30612,26171
31223,26171
" /> 
<polyline style="fill-rule:evenodd;"
points="31223,26671
31223,26907
30612,26907
30612,26671
31223,26671
" /> 
<polyline style="fill-rule:evenodd;"
points="31223,27171
31223,27407
30612,27407
30612,27171
31223,27171
" /> 
<polyline style="fill-rule:evenodd;"
points="26842,9791
27078,9791
27078,10401
26842,10401
26842,9791
" /> 
<polyline style="fill-rule:evenodd;"
points="26342,9791
26578,9791
26578,10401
26342,10401
26342,9791
" /> 
<polyline style="fill-rule:evenodd;"
points="25842,9791
26078,9791
26078,10401
25842,10401
25842,9791
" /> 
<polyline style="fill-rule:evenodd;"
points="25342,9791
25578,9791
25578,10401
25342,10401
25342,9791
" /> 
<polyline style="fill-rule:evenodd;"
points="25342,11917
25578,11917
25578,12527
25342,12527
25342,11917
" /> 
<polyline style="fill-rule:evenodd;"
points="25842,11917
26078,11917
26078,12527
25842,12527
25842,11917
" /> 
<polyline style="fill-rule:evenodd;"
points="26342,11917
26578,11917
26578,12527
26342,12527
26342,11917
" /> 
<polyline style="fill-rule:evenodd;"
points="26842,11917
27078,11917
27078,12527
26842,12527
26842,11917
" /> 
<polyline style="fill-rule:evenodd;"
points="25791,11203
26165,11203
26165,11577
25791,11577
25791,11203
" /> 
<polyline style="fill-rule:evenodd;"
points="25791,10741
26165,10741
26165,11115
25791,11115
25791,10741
" /> 
<polyline style="fill-rule:evenodd;"
points="26254,10741
26628,10741
26628,11115
26254,11115
26254,10741
" /> 
<polyline style="fill-rule:evenodd;"
points="26254,11203
26628,11203
26628,11577
26254,11577
26254,11203
" /> 
<polyline style="fill-rule:evenodd;"
points="16192,16005
15444,16005
15444,15572
16192,15572
16192,16005
" /> 
<polyline style="fill-rule:evenodd;"
points="16192,15021
15444,15021
15444,14588
16192,14588
16192,15021
" /> 
<polyline style="fill-rule:evenodd;"
points="31090,9835
31099,9836
31108,9839
31117,9842
31125,9846
31133,9850
31141,9856
31147,9862
31153,9869
31159,9876
31164,9884
31168,9892
31171,9901
31173,9910
31174,9919
31175,9928
31175,10154
31174,10164
31173,10173
31171,10182
31168,10190
31164,10198
31159,10206
31153,10214
31147,10221
31141,10227
31133,10232
31125,10237
31117,10241
31108,10244
31099,10246
31090,10247
31081,10248
30894,10248
30885,10247
30876,10246
30867,10244
30858,10241
30850,10237
30842,10232
30835,10227
30828,10221
30822,10214
30816,10206
30812,10198
30808,10190
30805,10182
30802,10173
30801,10164
30801,10154
30801,9928
30801,9919
30802,9910
30805,9901
30808,9892
30812,9884
30816,9876
30822,9869
30828,9862
30835,9856
30842,9850
30850,9846
30858,9842
30867,9839
30876,9836
30885,9835
30894,9835
31081,9835
31090,9835
" /> 
<polyline style="fill-rule:evenodd;"
points="31090,9146
31099,9147
31108,9150
31117,9153
31125,9157
31133,9161
31141,9167
31147,9173
31153,9180
31159,9187
31164,9195
31168,9203
31171,9212
31173,9221
31174,9230
31175,9239
31175,9465
31174,9475
31173,9484
31171,9493
31168,9501
31164,9510
31159,9517
31153,9525
31147,9532
31141,9538
31133,9543
31125,9548
31117,9552
31108,9555
31099,9557
31090,9558
31081,9559
30894,9559
30885,9558
30876,9557
30867,9555
30858,9552
30850,9548
30842,9543
30835,9538
30828,9532
30822,9525
30816,9517
30812,9510
30808,9501
30805,9493
30802,9484
30801,9475
30801,9465
30801,9239
30801,9230
30802,9221
30805,9212
30808,9203
30812,9195
30816,9187
30822,9180
30828,9173
30835,9167
30842,9161
30850,9157
30858,9153
30867,9150
30876,9147
30885,9146
30894,9146
31081,9146
31090,9146
" /> 
<polyline style="fill-rule:evenodd;"
points="31090,7602
31099,7603
31108,7605
31117,7608
31125,7612
31133,7617
31141,7622
31147,7628
31153,7635
31159,7643
31164,7651
31168,7659
31171,7667
31173,7676
31174,7685
31175,7695
31175,7921
31174,7930
31173,7939
31171,7948
31168,7957
31164,7965
31159,7973
31153,7980
31147,7987
31141,7993
31133,7999
31125,8003
31117,8007
31108,8010
31099,8013
31090,8014
31081,8014
30894,8014
30885,8014
30876,8013
30867,8010
30858,8007
30850,8003
30842,7999
30835,7993
30828,7987
30822,7980
30816,7973
30812,7965
30808,7957
30805,7948
30802,7939
30801,7930
30801,7921
30801,7695
30801,7685
30802,7676
30805,7667
30808,7659
30812,7651
30816,7643
30822,7635
30828,7628
30835,7622
30842,7617
30850,7612
30858,7608
30867,7605
30876,7603
30885,7602
30894,7601
31081,7601
31090,7602
" /> 
<polyline style="fill-rule:evenodd;"
points="31090,8291
31099,8292
31108,8294
31117,8297
31125,8301
31133,8306
31141,8311
31147,8317
31153,8324
31159,8332
31164,8339
31168,8348
31171,8356
31173,8365
31174,8374
31175,8384
31175,8610
31174,8619
31173,8628
31171,8637
31168,8646
31164,8654
31159,8662
31153,8669
31147,8676
31141,8682
31133,8688
31125,8692
31117,8696
31108,8699
31099,8702
31090,8703
31081,8703
30894,8703
30885,8703
30876,8702
30867,8699
30858,8696
30850,8692
30842,8688
30835,8682
30828,8676
30822,8669
30816,8662
30812,8654
30808,8646
30805,8637
30802,8628
30801,8619
30801,8610
30801,8384
30801,8374
30802,8365
30805,8356
30808,8348
30812,8339
30816,8332
30822,8324
30828,8317
30835,8311
30842,8306
30850,8301
30858,8297
30867,8294
30876,8292
30885,8291
30894,8290
31081,8290
31090,8291
" /> 
</g> 
</svg>
