G04 #@! TF.GenerationSoftware,KiCad,Pcbnew,(5.1.4)-1*
G04 #@! TF.CreationDate,2019-11-01T08:15:42-05:00*
G04 #@! TF.ProjectId,20-ELC-3-01-R1 (Telemetry PCB),32302d45-4c43-42d3-932d-30312d523120,rev?*
G04 #@! TF.SameCoordinates,Original*
G04 #@! TF.FileFunction,Legend,Bot*
G04 #@! TF.FilePolarity,Positive*
%FSLAX46Y46*%
G04 Gerber Fmt 4.6, Leading zero omitted, Abs format (unit mm)*
G04 Created by KiCad (PCBNEW (5.1.4)-1) date 2019-11-01 08:15:42*
%MOMM*%
%LPD*%
G04 APERTURE LIST*
%ADD10C,0.050000*%
%ADD11C,0.120000*%
%ADD12C,0.150000*%
G04 APERTURE END LIST*
D10*
X224659306Y-74785594D02*
G75*
G02X224423888Y-73898567I90694J498824D01*
G01*
X238475001Y-72077229D02*
G75*
G02X238751115Y-72550000I-223885J-447772D01*
G01*
X238750000Y-78925000D02*
G75*
G02X237878767Y-79249999I-496234J0D01*
G01*
X239766350Y-88149340D02*
G75*
G02X240250000Y-87850000I458651J-200659D01*
G01*
X246050000Y-87845095D02*
G75*
G02X246529562Y-88499959I1J-503025D01*
G01*
X238225000Y-97925000D02*
G75*
G02X237818609Y-97986492I-281391J486036D01*
G01*
X233000000Y-98000000D02*
G75*
G02X232525002Y-97651879I1J498120D01*
G01*
X230920833Y-92926317D02*
G75*
G02X231450000Y-92275001I479168J151317D01*
G01*
X228400731Y-97349890D02*
G75*
G02X227597476Y-97831020I-500731J-75110D01*
G01*
X227204858Y-79137508D02*
G75*
G02X227349999Y-79974999I-179858J-462492D01*
G01*
X220790072Y-78165782D02*
G75*
G02X221275000Y-78025000I359928J-334218D01*
G01*
X233000000Y-98000000D02*
X237818609Y-97986492D01*
X226059891Y-87866853D02*
G75*
G02X227349999Y-79974999I6940109J2916853D01*
G01*
X233856182Y-77496187D02*
G75*
G02X237878767Y-79249999I-856182J-7453813D01*
G01*
X239768697Y-88150450D02*
G75*
G02X231450000Y-92275001I-6768697J3200450D01*
G01*
X227597476Y-97831021D02*
G75*
G02X220790072Y-78165782I5402524J12881021D01*
G01*
X224423888Y-73898567D02*
G75*
G02X238475000Y-72077229I8576112J-11051433D01*
G01*
X246529562Y-88499958D02*
G75*
G02X238225000Y-97925000I-13529562J3549958D01*
G01*
X221275000Y-78025000D02*
X227204858Y-79137507D01*
X224659306Y-74785594D02*
X233856182Y-77496187D01*
X238751115Y-72550000D02*
X238750000Y-78925000D01*
X246050000Y-87845095D02*
X240250000Y-87850000D01*
X228400731Y-97349890D02*
X226059891Y-87866853D01*
X232525002Y-97651879D02*
X230920833Y-92926317D01*
X214000000Y-100000000D02*
X264500000Y-100000000D01*
X222500000Y-72950000D02*
G75*
G03X222500000Y-72950000I-1500000J0D01*
G01*
X246500000Y-96950000D02*
G75*
G03X246500000Y-96950000I-1500000J0D01*
G01*
X214000000Y-100000000D02*
G75*
G02X211000000Y-97000000I0J3000000D01*
G01*
X267500000Y-97000000D02*
G75*
G02X264500000Y-100000000I-3000000J0D01*
G01*
X264500000Y-35000000D02*
G75*
G02X267500000Y-38000000I0J-3000000D01*
G01*
X211000000Y-38000000D02*
G75*
G02X214000000Y-35000000I3000000J0D01*
G01*
X211000000Y-38000000D02*
X211000000Y-97000000D01*
X264500000Y-35000000D02*
X214000000Y-35000000D01*
X267500000Y-38000000D02*
X267500000Y-97000000D01*
D11*
X212374000Y-92932000D02*
X212374000Y-42012000D01*
X212374000Y-92932000D02*
X214974000Y-92932000D01*
X214974000Y-92932000D02*
X214974000Y-90332000D01*
X214974000Y-90332000D02*
X217574000Y-90332000D01*
X216244000Y-92932000D02*
X217574000Y-92932000D01*
X217574000Y-92932000D02*
X217574000Y-91602000D01*
X217574000Y-90332000D02*
X217574000Y-42012000D01*
X212374000Y-42012000D02*
X217574000Y-42012000D01*
X253820000Y-98245000D02*
X253820000Y-96975000D01*
X252550000Y-98245000D02*
X253820000Y-98245000D01*
X249630000Y-95932071D02*
X249630000Y-95535000D01*
X250390000Y-95932071D02*
X250390000Y-95535000D01*
X249630000Y-86875000D02*
X249630000Y-92875000D01*
X250390000Y-86875000D02*
X249630000Y-86875000D01*
X250390000Y-92875000D02*
X250390000Y-86875000D01*
X251280000Y-95535000D02*
X251280000Y-92875000D01*
X252170000Y-95865000D02*
X252170000Y-95535000D01*
X252930000Y-95865000D02*
X252930000Y-95535000D01*
X252270000Y-92875000D02*
X252270000Y-86875000D01*
X252390000Y-92875000D02*
X252390000Y-86875000D01*
X252510000Y-92875000D02*
X252510000Y-86875000D01*
X252630000Y-92875000D02*
X252630000Y-86875000D01*
X252750000Y-92875000D02*
X252750000Y-86875000D01*
X252870000Y-92875000D02*
X252870000Y-86875000D01*
X252170000Y-86875000D02*
X252170000Y-92875000D01*
X252930000Y-86875000D02*
X252170000Y-86875000D01*
X252930000Y-92875000D02*
X252930000Y-86875000D01*
X253880000Y-92875000D02*
X253880000Y-95535000D01*
X248680000Y-92875000D02*
X253880000Y-92875000D01*
X248680000Y-95535000D02*
X248680000Y-92875000D01*
X253880000Y-95535000D02*
X248680000Y-95535000D01*
D12*
X250827380Y-89214285D02*
X251541666Y-89214285D01*
X251684523Y-89166666D01*
X251779761Y-89071428D01*
X251827380Y-88928571D01*
X251827380Y-88833333D01*
X251827380Y-90214285D02*
X251827380Y-89642857D01*
X251827380Y-89928571D02*
X250827380Y-89928571D01*
X250970238Y-89833333D01*
X251065476Y-89738095D01*
X251113095Y-89642857D01*
X250827380Y-90833333D02*
X250827380Y-90928571D01*
X250875000Y-91023809D01*
X250922619Y-91071428D01*
X251017857Y-91119047D01*
X251208333Y-91166666D01*
X251446428Y-91166666D01*
X251636904Y-91119047D01*
X251732142Y-91071428D01*
X251779761Y-91023809D01*
X251827380Y-90928571D01*
X251827380Y-90833333D01*
X251779761Y-90738095D01*
X251732142Y-90690476D01*
X251636904Y-90642857D01*
X251446428Y-90595238D01*
X251208333Y-90595238D01*
X251017857Y-90642857D01*
X250922619Y-90690476D01*
X250875000Y-90738095D01*
X250827380Y-90833333D01*
X250827380Y-92023809D02*
X250827380Y-91833333D01*
X250875000Y-91738095D01*
X250922619Y-91690476D01*
X251065476Y-91595238D01*
X251255952Y-91547619D01*
X251636904Y-91547619D01*
X251732142Y-91595238D01*
X251779761Y-91642857D01*
X251827380Y-91738095D01*
X251827380Y-91928571D01*
X251779761Y-92023809D01*
X251732142Y-92071428D01*
X251636904Y-92119047D01*
X251398809Y-92119047D01*
X251303571Y-92071428D01*
X251255952Y-92023809D01*
X251208333Y-91928571D01*
X251208333Y-91738095D01*
X251255952Y-91642857D01*
X251303571Y-91595238D01*
X251398809Y-91547619D01*
M02*
