M48
; DRILL file {KiCad (5.1.4)-1} date 11/1/2019 08:15:44
; FORMAT={-:-/ absolute / inch / decimal}
; #@! TF.CreationDate,2019-11-01T08:15:44-05:00
; #@! TF.GenerationSoftware,Kicad,Pcbnew,(5.1.4)-1
; #@! TF.FileFunction,Plated,1,2,PTH
FMAT,2
INCH
T1C0.0079
T2C0.0157
T3C0.0315
T4C0.0394
T5C0.0400
T6C0.0402
T7C0.0591
%
G90
G05
T1
X9.7203Y-2.3615
X9.7203Y-2.4127
X9.7596Y-2.3615
X9.7596Y-2.4127
X9.799Y-2.3615
X9.799Y-2.4127
T2
X8.359Y-3.6233
X8.4616Y-2.1671
X8.4636Y-3.2451
X8.4651Y-3.5408
X8.4737Y-2.5588
X8.5679Y-2.1594
X8.5689Y-2.3376
X8.5945Y-1.7165
X8.6132Y-2.7028
X8.6375Y-3.0364
X8.6383Y-1.5458
X8.6437Y-3.0758
X8.6969Y-1.7539
X8.7615Y-1.648
X8.784Y-3.006
X8.7933Y-2.0039
X8.798Y-1.5796
X8.7992Y-2.4439
X8.8245Y-2.4948
X8.8524Y-1.9275
X8.876Y-1.7913
X8.8789Y-2.5305
X8.8799Y-2.7982
X8.9247Y-2.8085
X8.9734Y-2.627
X8.9764Y-2.1555
X8.9779Y-2.4281
X8.988Y-3.1999
X8.9961Y-1.4449
X8.998Y-1.628
X9.002Y-2.502
X9.01Y-2.308
X9.0482Y-3.5394
X9.055Y-3.495
X9.0915Y-2.1033
X9.0984Y-1.4941
X9.142Y-2.434
X9.1472Y-2.6332
X9.1585Y-2.1978
X9.1742Y-2.5189
X9.186Y-2.627
X9.1929Y-2.3494
X9.1949Y-1.9902
X9.2171Y-3.5276
X9.2219Y-3.2461
X9.2382Y-1.7736
X9.31Y-3.194
X9.36Y-3.362
X9.364Y-3.314
X9.372Y-2.7697
X9.4398Y-2.4029
X9.4496Y-3.3187
X9.4508Y-2.7411
X9.4557Y-2.4724
X9.4596Y-2.5817
X9.4626Y-2.1791
X9.5236Y-2.7087
X9.5276Y-3.9094
X9.5581Y-2.3602
X9.5659Y-3.8563
X9.5802Y-2.7003
X9.614Y-1.824
X9.622Y-2.5276
X9.6542Y-1.8658
X9.6917Y-3.6934
X9.7106Y-1.6555
X9.7116Y-3.626
X9.744Y-1.58
X9.7505Y-3.5477
X9.7776Y-2.7894
X9.7913Y-3.5344
X9.8287Y-1.9567
X9.9544Y-3.6483
X9.9803Y-2.565
X9.9803Y-2.6122
X9.9803Y-2.6988
X9.9825Y-2.6564
X10.0453Y-3.374
T3
X9.9553Y-1.4828
X9.9553Y-1.5812
X10.034Y-1.4828
X10.034Y-1.5812
X10.1127Y-1.4828
X10.1127Y-1.5812
T4
X10.022Y-2.382
X9.8429Y-3.8179
X9.9429Y-3.8179
X8.4135Y-1.7064
X8.4135Y-1.8064
X8.4135Y-1.9064
X8.4135Y-2.0064
X8.4135Y-2.1064
X8.4135Y-2.2064
X8.4135Y-2.3064
X8.4135Y-2.4064
X8.4135Y-2.5064
X8.4135Y-2.6064
X8.4135Y-2.7064
X8.4135Y-2.8064
X8.4135Y-2.9064
X8.4135Y-3.0064
X8.4135Y-3.1064
X8.4135Y-3.2064
X8.4135Y-3.3064
X8.4135Y-3.4064
X8.4135Y-3.5064
X8.4135Y-3.6064
X8.5135Y-1.7064
X8.5135Y-1.8064
X8.5135Y-1.9064
X8.5135Y-2.0064
X8.5135Y-2.1064
X8.5135Y-2.2064
X8.5135Y-2.3064
X8.5135Y-2.4064
X8.5135Y-2.5064
X8.5135Y-2.6064
X8.5135Y-2.7064
X8.5135Y-2.8064
X8.5135Y-2.9064
X8.5135Y-3.0064
X8.5135Y-3.1064
X8.5135Y-3.2064
X8.5135Y-3.3064
X8.5135Y-3.4064
X8.5135Y-3.5064
X8.5135Y-3.6064
T5
X8.6282Y-1.8047
X8.6282Y-1.9047
X8.6282Y-2.0047
X8.6282Y-2.1047
X8.6282Y-2.2047
X8.6282Y-2.3047
X8.6282Y-2.4047
X8.6282Y-2.5047
X8.6282Y-2.6047
T6
X10.0379Y-1.862
X10.0379Y-1.9801
X10.0379Y-2.0982
X10.0379Y-2.2163
X10.156Y-1.862
X10.156Y-1.9801
X10.156Y-2.0982
X10.156Y-2.2163
X10.0374Y-2.542
X10.0374Y-2.6601
X10.0374Y-2.7782
X10.1555Y-2.542
X10.1555Y-2.6601
X10.1555Y-2.7782
X10.0356Y-3.6486
X10.0356Y-3.7667
X10.1537Y-3.6486
X10.1537Y-3.7667
T7
X9.8726Y-1.532
X10.1954Y-1.532
T0
M30
