G04 #@! TF.GenerationSoftware,KiCad,Pcbnew,(5.1.4)-1*
G04 #@! TF.CreationDate,2019-11-01T08:15:42-05:00*
G04 #@! TF.ProjectId,20-ELC-3-01-R1 (Telemetry PCB),32302d45-4c43-42d3-932d-30312d523120,rev?*
G04 #@! TF.SameCoordinates,Original*
G04 #@! TF.FileFunction,Legend,Top*
G04 #@! TF.FilePolarity,Positive*
%FSLAX46Y46*%
G04 Gerber Fmt 4.6, Leading zero omitted, Abs format (unit mm)*
G04 Created by KiCad (PCBNEW (5.1.4)-1) date 2019-11-01 08:15:42*
%MOMM*%
%LPD*%
G04 APERTURE LIST*
%ADD10C,0.250000*%
%ADD11C,0.200000*%
%ADD12C,0.300000*%
%ADD13C,0.100000*%
%ADD14C,0.150000*%
%ADD15C,0.156000*%
%ADD16C,0.050000*%
%ADD17C,0.120000*%
G04 APERTURE END LIST*
D10*
X237334609Y-63358780D02*
X237953657Y-63358780D01*
X237620323Y-63739733D01*
X237763180Y-63739733D01*
X237858419Y-63787352D01*
X237906038Y-63834971D01*
X237953657Y-63930209D01*
X237953657Y-64168304D01*
X237906038Y-64263542D01*
X237858419Y-64311161D01*
X237763180Y-64358780D01*
X237477466Y-64358780D01*
X237382228Y-64311161D01*
X237334609Y-64263542D01*
X238382228Y-64263542D02*
X238429847Y-64311161D01*
X238382228Y-64358780D01*
X238334609Y-64311161D01*
X238382228Y-64263542D01*
X238382228Y-64358780D01*
X238763180Y-63358780D02*
X239382228Y-63358780D01*
X239048895Y-63739733D01*
X239191752Y-63739733D01*
X239286990Y-63787352D01*
X239334609Y-63834971D01*
X239382228Y-63930209D01*
X239382228Y-64168304D01*
X239334609Y-64263542D01*
X239286990Y-64311161D01*
X239191752Y-64358780D01*
X238906038Y-64358780D01*
X238810800Y-64311161D01*
X238763180Y-64263542D01*
X239667942Y-63358780D02*
X240001276Y-64358780D01*
X240334609Y-63358780D01*
D11*
X236232495Y-88349980D02*
X236232495Y-87349980D01*
X236470590Y-87349980D01*
X236613447Y-87397600D01*
X236708685Y-87492838D01*
X236756304Y-87588076D01*
X236803923Y-87778552D01*
X236803923Y-87921409D01*
X236756304Y-88111885D01*
X236708685Y-88207123D01*
X236613447Y-88302361D01*
X236470590Y-88349980D01*
X236232495Y-88349980D01*
X237232495Y-88349980D02*
X237232495Y-87683314D01*
X237232495Y-87349980D02*
X237184876Y-87397600D01*
X237232495Y-87445219D01*
X237280114Y-87397600D01*
X237232495Y-87349980D01*
X237232495Y-87445219D01*
X237708685Y-88349980D02*
X237708685Y-87683314D01*
X237708685Y-87873790D02*
X237756304Y-87778552D01*
X237803923Y-87730933D01*
X237899161Y-87683314D01*
X237994400Y-87683314D01*
X238184876Y-87683314D02*
X238565828Y-87683314D01*
X238327733Y-87349980D02*
X238327733Y-88207123D01*
X238375352Y-88302361D01*
X238470590Y-88349980D01*
X238565828Y-88349980D01*
X238803923Y-87683314D02*
X239042019Y-88349980D01*
X239280114Y-87683314D02*
X239042019Y-88349980D01*
X238946780Y-88588076D01*
X238899161Y-88635695D01*
X238803923Y-88683314D01*
X236756304Y-90049980D02*
X236184876Y-90049980D01*
X236470590Y-90049980D02*
X236470590Y-89049980D01*
X236375352Y-89192838D01*
X236280114Y-89288076D01*
X236184876Y-89335695D01*
X237137257Y-89145219D02*
X237184876Y-89097600D01*
X237280114Y-89049980D01*
X237518209Y-89049980D01*
X237613447Y-89097600D01*
X237661066Y-89145219D01*
X237708685Y-89240457D01*
X237708685Y-89335695D01*
X237661066Y-89478552D01*
X237089638Y-90049980D01*
X237708685Y-90049980D01*
X237994400Y-89049980D02*
X238327733Y-90049980D01*
X238661066Y-89049980D01*
X220801923Y-75757942D02*
X220754304Y-75805561D01*
X220611447Y-75853180D01*
X220516209Y-75853180D01*
X220373352Y-75805561D01*
X220278114Y-75710323D01*
X220230495Y-75615085D01*
X220182876Y-75424609D01*
X220182876Y-75281752D01*
X220230495Y-75091276D01*
X220278114Y-74996038D01*
X220373352Y-74900800D01*
X220516209Y-74853180D01*
X220611447Y-74853180D01*
X220754304Y-74900800D01*
X220801923Y-74948419D01*
X221373352Y-75853180D02*
X221278114Y-75805561D01*
X221230495Y-75710323D01*
X221230495Y-74853180D01*
X222135257Y-75805561D02*
X222040019Y-75853180D01*
X221849542Y-75853180D01*
X221754304Y-75805561D01*
X221706685Y-75710323D01*
X221706685Y-75329371D01*
X221754304Y-75234133D01*
X221849542Y-75186514D01*
X222040019Y-75186514D01*
X222135257Y-75234133D01*
X222182876Y-75329371D01*
X222182876Y-75424609D01*
X221706685Y-75519847D01*
X223040019Y-75853180D02*
X223040019Y-75329371D01*
X222992400Y-75234133D01*
X222897161Y-75186514D01*
X222706685Y-75186514D01*
X222611447Y-75234133D01*
X223040019Y-75805561D02*
X222944780Y-75853180D01*
X222706685Y-75853180D01*
X222611447Y-75805561D01*
X222563828Y-75710323D01*
X222563828Y-75615085D01*
X222611447Y-75519847D01*
X222706685Y-75472228D01*
X222944780Y-75472228D01*
X223040019Y-75424609D01*
X223516209Y-75186514D02*
X223516209Y-75853180D01*
X223516209Y-75281752D02*
X223563828Y-75234133D01*
X223659066Y-75186514D01*
X223801923Y-75186514D01*
X223897161Y-75234133D01*
X223944780Y-75329371D01*
X223944780Y-75853180D01*
X220754304Y-77553180D02*
X220182876Y-77553180D01*
X220468590Y-77553180D02*
X220468590Y-76553180D01*
X220373352Y-76696038D01*
X220278114Y-76791276D01*
X220182876Y-76838895D01*
X221135257Y-76648419D02*
X221182876Y-76600800D01*
X221278114Y-76553180D01*
X221516209Y-76553180D01*
X221611447Y-76600800D01*
X221659066Y-76648419D01*
X221706685Y-76743657D01*
X221706685Y-76838895D01*
X221659066Y-76981752D01*
X221087638Y-77553180D01*
X221706685Y-77553180D01*
X221992400Y-76553180D02*
X222325733Y-77553180D01*
X222659066Y-76553180D01*
D12*
X229787485Y-96308171D02*
X229073200Y-96308171D01*
X229001771Y-97022457D01*
X229073200Y-96951028D01*
X229216057Y-96879600D01*
X229573200Y-96879600D01*
X229716057Y-96951028D01*
X229787485Y-97022457D01*
X229858914Y-97165314D01*
X229858914Y-97522457D01*
X229787485Y-97665314D01*
X229716057Y-97736742D01*
X229573200Y-97808171D01*
X229216057Y-97808171D01*
X229073200Y-97736742D01*
X229001771Y-97665314D01*
X230287485Y-96308171D02*
X230787485Y-97808171D01*
X231287485Y-96308171D01*
D13*
X252804761Y-98852380D02*
X252804761Y-99661904D01*
X252852380Y-99757142D01*
X252900000Y-99804761D01*
X252995238Y-99852380D01*
X253185714Y-99852380D01*
X253280952Y-99804761D01*
X253328571Y-99757142D01*
X253376190Y-99661904D01*
X253376190Y-98852380D01*
X253804761Y-99566666D02*
X254280952Y-99566666D01*
X253709523Y-99852380D02*
X254042857Y-98852380D01*
X254376190Y-99852380D01*
X255280952Y-99852380D02*
X254947619Y-99376190D01*
X254709523Y-99852380D02*
X254709523Y-98852380D01*
X255090476Y-98852380D01*
X255185714Y-98900000D01*
X255233333Y-98947619D01*
X255280952Y-99042857D01*
X255280952Y-99185714D01*
X255233333Y-99280952D01*
X255185714Y-99328571D01*
X255090476Y-99376190D01*
X254709523Y-99376190D01*
X255566666Y-98852380D02*
X256138095Y-98852380D01*
X255852380Y-99852380D02*
X255852380Y-98852380D01*
X253004761Y-70780952D02*
X253052380Y-70638095D01*
X253052380Y-70400000D01*
X253004761Y-70304761D01*
X252957142Y-70257142D01*
X252861904Y-70209523D01*
X252766666Y-70209523D01*
X252671428Y-70257142D01*
X252623809Y-70304761D01*
X252576190Y-70400000D01*
X252528571Y-70590476D01*
X252480952Y-70685714D01*
X252433333Y-70733333D01*
X252338095Y-70780952D01*
X252242857Y-70780952D01*
X252147619Y-70733333D01*
X252100000Y-70685714D01*
X252052380Y-70590476D01*
X252052380Y-70352380D01*
X252100000Y-70209523D01*
X253052380Y-69780952D02*
X252052380Y-69780952D01*
X252052380Y-69400000D01*
X252100000Y-69304761D01*
X252147619Y-69257142D01*
X252242857Y-69209523D01*
X252385714Y-69209523D01*
X252480952Y-69257142D01*
X252528571Y-69304761D01*
X252576190Y-69400000D01*
X252576190Y-69780952D01*
X253052380Y-68209523D02*
X252576190Y-68542857D01*
X253052380Y-68780952D02*
X252052380Y-68780952D01*
X252052380Y-68400000D01*
X252100000Y-68304761D01*
X252147619Y-68257142D01*
X252242857Y-68209523D01*
X252385714Y-68209523D01*
X252480952Y-68257142D01*
X252528571Y-68304761D01*
X252576190Y-68400000D01*
X252576190Y-68780952D01*
X253052380Y-67780952D02*
X252052380Y-67780952D01*
X253052380Y-67304761D02*
X252052380Y-67304761D01*
X253052380Y-66733333D01*
X252052380Y-66733333D01*
X253052380Y-66257142D02*
X252052380Y-66257142D01*
X253052380Y-65685714D02*
X252480952Y-66114285D01*
X252052380Y-65685714D02*
X252623809Y-66257142D01*
X253052380Y-64780952D02*
X253052380Y-65257142D01*
X252052380Y-65257142D01*
X252528571Y-64447619D02*
X252528571Y-64114285D01*
X253052380Y-63971428D02*
X253052380Y-64447619D01*
X252052380Y-64447619D01*
X252052380Y-63971428D01*
X253004761Y-63590476D02*
X253052380Y-63447619D01*
X253052380Y-63209523D01*
X253004761Y-63114285D01*
X252957142Y-63066666D01*
X252861904Y-63019047D01*
X252766666Y-63019047D01*
X252671428Y-63066666D01*
X252623809Y-63114285D01*
X252576190Y-63209523D01*
X252528571Y-63400000D01*
X252480952Y-63495238D01*
X252433333Y-63542857D01*
X252338095Y-63590476D01*
X252242857Y-63590476D01*
X252147619Y-63542857D01*
X252100000Y-63495238D01*
X252052380Y-63400000D01*
X252052380Y-63161904D01*
X252100000Y-63019047D01*
D12*
X251600000Y-48042857D02*
X251504761Y-48233333D01*
X251504761Y-48519047D01*
X251600000Y-48804761D01*
X251790476Y-48995238D01*
X251980952Y-49090476D01*
X252361904Y-49185714D01*
X252647619Y-49185714D01*
X253028571Y-49090476D01*
X253219047Y-48995238D01*
X253409523Y-48804761D01*
X253504761Y-48519047D01*
X253504761Y-48328571D01*
X253409523Y-48042857D01*
X253314285Y-47947619D01*
X252647619Y-47947619D01*
X252647619Y-48328571D01*
X253504761Y-46138095D02*
X253504761Y-47090476D01*
X251504761Y-47090476D01*
X251504761Y-45757142D02*
X253504761Y-45090476D01*
X251504761Y-44423809D01*
D14*
X230400000Y-98447619D02*
X230447619Y-98400000D01*
X230542857Y-98352380D01*
X230780952Y-98352380D01*
X230876190Y-98400000D01*
X230923809Y-98447619D01*
X230971428Y-98542857D01*
X230971428Y-98638095D01*
X230923809Y-98780952D01*
X230352380Y-99352380D01*
X230971428Y-99352380D01*
X231590476Y-98352380D02*
X231685714Y-98352380D01*
X231780952Y-98400000D01*
X231828571Y-98447619D01*
X231876190Y-98542857D01*
X231923809Y-98733333D01*
X231923809Y-98971428D01*
X231876190Y-99161904D01*
X231828571Y-99257142D01*
X231780952Y-99304761D01*
X231685714Y-99352380D01*
X231590476Y-99352380D01*
X231495238Y-99304761D01*
X231447619Y-99257142D01*
X231400000Y-99161904D01*
X231352380Y-98971428D01*
X231352380Y-98733333D01*
X231400000Y-98542857D01*
X231447619Y-98447619D01*
X231495238Y-98400000D01*
X231590476Y-98352380D01*
X232352380Y-98971428D02*
X233114285Y-98971428D01*
X233590476Y-98828571D02*
X233923809Y-98828571D01*
X234066666Y-99352380D02*
X233590476Y-99352380D01*
X233590476Y-98352380D01*
X234066666Y-98352380D01*
X234971428Y-99352380D02*
X234495238Y-99352380D01*
X234495238Y-98352380D01*
X235876190Y-99257142D02*
X235828571Y-99304761D01*
X235685714Y-99352380D01*
X235590476Y-99352380D01*
X235447619Y-99304761D01*
X235352380Y-99209523D01*
X235304761Y-99114285D01*
X235257142Y-98923809D01*
X235257142Y-98780952D01*
X235304761Y-98590476D01*
X235352380Y-98495238D01*
X235447619Y-98400000D01*
X235590476Y-98352380D01*
X235685714Y-98352380D01*
X235828571Y-98400000D01*
X235876190Y-98447619D01*
X236304761Y-98971428D02*
X237066666Y-98971428D01*
X237447619Y-98352380D02*
X238066666Y-98352380D01*
X237733333Y-98733333D01*
X237876190Y-98733333D01*
X237971428Y-98780952D01*
X238019047Y-98828571D01*
X238066666Y-98923809D01*
X238066666Y-99161904D01*
X238019047Y-99257142D01*
X237971428Y-99304761D01*
X237876190Y-99352380D01*
X237590476Y-99352380D01*
X237495238Y-99304761D01*
X237447619Y-99257142D01*
X238495238Y-98971428D02*
X239257142Y-98971428D01*
X239923809Y-98352380D02*
X240019047Y-98352380D01*
X240114285Y-98400000D01*
X240161904Y-98447619D01*
X240209523Y-98542857D01*
X240257142Y-98733333D01*
X240257142Y-98971428D01*
X240209523Y-99161904D01*
X240161904Y-99257142D01*
X240114285Y-99304761D01*
X240019047Y-99352380D01*
X239923809Y-99352380D01*
X239828571Y-99304761D01*
X239780952Y-99257142D01*
X239733333Y-99161904D01*
X239685714Y-98971428D01*
X239685714Y-98733333D01*
X239733333Y-98542857D01*
X239780952Y-98447619D01*
X239828571Y-98400000D01*
X239923809Y-98352380D01*
X241209523Y-99352380D02*
X240638095Y-99352380D01*
X240923809Y-99352380D02*
X240923809Y-98352380D01*
X240828571Y-98495238D01*
X240733333Y-98590476D01*
X240638095Y-98638095D01*
X241638095Y-98971428D02*
X242400000Y-98971428D01*
X243447619Y-99352380D02*
X243114285Y-98876190D01*
X242876190Y-99352380D02*
X242876190Y-98352380D01*
X243257142Y-98352380D01*
X243352380Y-98400000D01*
X243400000Y-98447619D01*
X243447619Y-98542857D01*
X243447619Y-98685714D01*
X243400000Y-98780952D01*
X243352380Y-98828571D01*
X243257142Y-98876190D01*
X242876190Y-98876190D01*
X244400000Y-99352380D02*
X243828571Y-99352380D01*
X244114285Y-99352380D02*
X244114285Y-98352380D01*
X244019047Y-98495238D01*
X243923809Y-98590476D01*
X243828571Y-98638095D01*
D15*
X219173123Y-96179980D02*
X218839790Y-95703790D01*
X218601695Y-96179980D02*
X218601695Y-95179980D01*
X218982647Y-95179980D01*
X219077885Y-95227600D01*
X219125504Y-95275219D01*
X219173123Y-95370457D01*
X219173123Y-95513314D01*
X219125504Y-95608552D01*
X219077885Y-95656171D01*
X218982647Y-95703790D01*
X218601695Y-95703790D01*
X219982647Y-96132361D02*
X219887409Y-96179980D01*
X219696933Y-96179980D01*
X219601695Y-96132361D01*
X219554076Y-96037123D01*
X219554076Y-95656171D01*
X219601695Y-95560933D01*
X219696933Y-95513314D01*
X219887409Y-95513314D01*
X219982647Y-95560933D01*
X220030266Y-95656171D01*
X220030266Y-95751409D01*
X219554076Y-95846647D01*
X220363600Y-95513314D02*
X220601695Y-96179980D01*
X220839790Y-95513314D01*
X222506457Y-96179980D02*
X221935028Y-96179980D01*
X222220742Y-96179980D02*
X222220742Y-95179980D01*
X222125504Y-95322838D01*
X222030266Y-95418076D01*
X221935028Y-95465695D01*
X218458838Y-96835980D02*
X219030266Y-96835980D01*
X218744552Y-97835980D02*
X218744552Y-96835980D01*
X219744552Y-97788361D02*
X219649314Y-97835980D01*
X219458838Y-97835980D01*
X219363600Y-97788361D01*
X219315980Y-97693123D01*
X219315980Y-97312171D01*
X219363600Y-97216933D01*
X219458838Y-97169314D01*
X219649314Y-97169314D01*
X219744552Y-97216933D01*
X219792171Y-97312171D01*
X219792171Y-97407409D01*
X219315980Y-97502647D01*
X220363600Y-97835980D02*
X220268361Y-97788361D01*
X220220742Y-97693123D01*
X220220742Y-96835980D01*
X221125504Y-97788361D02*
X221030266Y-97835980D01*
X220839790Y-97835980D01*
X220744552Y-97788361D01*
X220696933Y-97693123D01*
X220696933Y-97312171D01*
X220744552Y-97216933D01*
X220839790Y-97169314D01*
X221030266Y-97169314D01*
X221125504Y-97216933D01*
X221173123Y-97312171D01*
X221173123Y-97407409D01*
X220696933Y-97502647D01*
X221601695Y-97835980D02*
X221601695Y-97169314D01*
X221601695Y-97264552D02*
X221649314Y-97216933D01*
X221744552Y-97169314D01*
X221887409Y-97169314D01*
X221982647Y-97216933D01*
X222030266Y-97312171D01*
X222030266Y-97835980D01*
X222030266Y-97312171D02*
X222077885Y-97216933D01*
X222173123Y-97169314D01*
X222315980Y-97169314D01*
X222411219Y-97216933D01*
X222458838Y-97312171D01*
X222458838Y-97835980D01*
X223315980Y-97788361D02*
X223220742Y-97835980D01*
X223030266Y-97835980D01*
X222935028Y-97788361D01*
X222887409Y-97693123D01*
X222887409Y-97312171D01*
X222935028Y-97216933D01*
X223030266Y-97169314D01*
X223220742Y-97169314D01*
X223315980Y-97216933D01*
X223363600Y-97312171D01*
X223363600Y-97407409D01*
X222887409Y-97502647D01*
X223649314Y-97169314D02*
X224030266Y-97169314D01*
X223792171Y-96835980D02*
X223792171Y-97693123D01*
X223839790Y-97788361D01*
X223935028Y-97835980D01*
X224030266Y-97835980D01*
X224363600Y-97835980D02*
X224363600Y-97169314D01*
X224363600Y-97359790D02*
X224411219Y-97264552D01*
X224458838Y-97216933D01*
X224554076Y-97169314D01*
X224649314Y-97169314D01*
X224887409Y-97169314D02*
X225125504Y-97835980D01*
X225363600Y-97169314D02*
X225125504Y-97835980D01*
X225030266Y-98074076D01*
X224982647Y-98121695D01*
X224887409Y-98169314D01*
X218601695Y-99491980D02*
X218601695Y-98491980D01*
X219173123Y-99491980D02*
X218744552Y-98920552D01*
X219173123Y-98491980D02*
X218601695Y-99063409D01*
X219982647Y-99444361D02*
X219887409Y-99491980D01*
X219696933Y-99491980D01*
X219601695Y-99444361D01*
X219554076Y-99349123D01*
X219554076Y-98968171D01*
X219601695Y-98872933D01*
X219696933Y-98825314D01*
X219887409Y-98825314D01*
X219982647Y-98872933D01*
X220030266Y-98968171D01*
X220030266Y-99063409D01*
X219554076Y-99158647D01*
X220363600Y-98825314D02*
X220601695Y-99491980D01*
X220839790Y-98825314D01*
X221220742Y-99491980D02*
X221220742Y-98825314D01*
X221220742Y-98491980D02*
X221173123Y-98539600D01*
X221220742Y-98587219D01*
X221268361Y-98539600D01*
X221220742Y-98491980D01*
X221220742Y-98587219D01*
X221696933Y-98825314D02*
X221696933Y-99491980D01*
X221696933Y-98920552D02*
X221744552Y-98872933D01*
X221839790Y-98825314D01*
X221982647Y-98825314D01*
X222077885Y-98872933D01*
X222125504Y-98968171D01*
X222125504Y-99491980D01*
X223363600Y-99491980D02*
X223363600Y-98491980D01*
X223696933Y-99206266D01*
X224030266Y-98491980D01*
X224030266Y-99491980D01*
X224887409Y-99444361D02*
X224792171Y-99491980D01*
X224601695Y-99491980D01*
X224506457Y-99444361D01*
X224458838Y-99349123D01*
X224458838Y-98968171D01*
X224506457Y-98872933D01*
X224601695Y-98825314D01*
X224792171Y-98825314D01*
X224887409Y-98872933D01*
X224935028Y-98968171D01*
X224935028Y-99063409D01*
X224458838Y-99158647D01*
X225792171Y-99444361D02*
X225696933Y-99491980D01*
X225506457Y-99491980D01*
X225411219Y-99444361D01*
X225363600Y-99396742D01*
X225315980Y-99301504D01*
X225315980Y-99015790D01*
X225363600Y-98920552D01*
X225411219Y-98872933D01*
X225506457Y-98825314D01*
X225696933Y-98825314D01*
X225792171Y-98872933D01*
X226220742Y-99491980D02*
X226220742Y-98491980D01*
X226649314Y-99491980D02*
X226649314Y-98968171D01*
X226601695Y-98872933D01*
X226506457Y-98825314D01*
X226363600Y-98825314D01*
X226268361Y-98872933D01*
X226220742Y-98920552D01*
X227268361Y-99491980D02*
X227173123Y-99444361D01*
X227125504Y-99349123D01*
X227125504Y-98491980D01*
X228030266Y-99444361D02*
X227935028Y-99491980D01*
X227744552Y-99491980D01*
X227649314Y-99444361D01*
X227601695Y-99349123D01*
X227601695Y-98968171D01*
X227649314Y-98872933D01*
X227744552Y-98825314D01*
X227935028Y-98825314D01*
X228030266Y-98872933D01*
X228077885Y-98968171D01*
X228077885Y-99063409D01*
X227601695Y-99158647D01*
X228506457Y-99491980D02*
X228506457Y-98825314D01*
X228506457Y-99015790D02*
X228554076Y-98920552D01*
X228601695Y-98872933D01*
X228696933Y-98825314D01*
X228792171Y-98825314D01*
D16*
X224659306Y-74785594D02*
G75*
G02X224423888Y-73898567I90694J498824D01*
G01*
X238475001Y-72077229D02*
G75*
G02X238751115Y-72550000I-223885J-447772D01*
G01*
X238750000Y-78925000D02*
G75*
G02X237878767Y-79249999I-496234J0D01*
G01*
X239766350Y-88149340D02*
G75*
G02X240250000Y-87850000I458651J-200659D01*
G01*
X246050000Y-87845095D02*
G75*
G02X246529562Y-88499959I1J-503025D01*
G01*
X238225000Y-97925000D02*
G75*
G02X237818609Y-97986492I-281391J486036D01*
G01*
X233000000Y-98000000D02*
G75*
G02X232525002Y-97651879I1J498120D01*
G01*
X230920833Y-92926317D02*
G75*
G02X231450000Y-92275001I479168J151317D01*
G01*
X228400731Y-97349890D02*
G75*
G02X227597476Y-97831020I-500731J-75110D01*
G01*
X227204858Y-79137508D02*
G75*
G02X227349999Y-79974999I-179858J-462492D01*
G01*
X220790072Y-78165782D02*
G75*
G02X221275000Y-78025000I359928J-334218D01*
G01*
X233000000Y-98000000D02*
X237818609Y-97986492D01*
X226059891Y-87866853D02*
G75*
G02X227349999Y-79974999I6940109J2916853D01*
G01*
X233856182Y-77496187D02*
G75*
G02X237878767Y-79249999I-856182J-7453813D01*
G01*
X239768697Y-88150450D02*
G75*
G02X231450000Y-92275001I-6768697J3200450D01*
G01*
X227597476Y-97831021D02*
G75*
G02X220790072Y-78165782I5402524J12881021D01*
G01*
X224423888Y-73898567D02*
G75*
G02X238475000Y-72077229I8576112J-11051433D01*
G01*
X246529562Y-88499958D02*
G75*
G02X238225000Y-97925000I-13529562J3549958D01*
G01*
X221275000Y-78025000D02*
X227204858Y-79137507D01*
X224659306Y-74785594D02*
X233856182Y-77496187D01*
X238751115Y-72550000D02*
X238750000Y-78925000D01*
X246050000Y-87845095D02*
X240250000Y-87850000D01*
X228400731Y-97349890D02*
X226059891Y-87866853D01*
X232525002Y-97651879D02*
X230920833Y-92926317D01*
X214000000Y-100000000D02*
X264500000Y-100000000D01*
X222500000Y-72950000D02*
G75*
G03X222500000Y-72950000I-1500000J0D01*
G01*
X246500000Y-96950000D02*
G75*
G03X246500000Y-96950000I-1500000J0D01*
G01*
X214000000Y-100000000D02*
G75*
G02X211000000Y-97000000I0J3000000D01*
G01*
X267500000Y-97000000D02*
G75*
G02X264500000Y-100000000I-3000000J0D01*
G01*
X264500000Y-35000000D02*
G75*
G02X267500000Y-38000000I0J-3000000D01*
G01*
X211000000Y-38000000D02*
G75*
G02X214000000Y-35000000I3000000J0D01*
G01*
X211000000Y-38000000D02*
X211000000Y-97000000D01*
X264500000Y-35000000D02*
X214000000Y-35000000D01*
X267500000Y-38000000D02*
X267500000Y-97000000D01*
D17*
X234228733Y-61535000D02*
X234571267Y-61535000D01*
X234228733Y-60515000D02*
X234571267Y-60515000D01*
X237853733Y-61535000D02*
X238196267Y-61535000D01*
X237853733Y-60515000D02*
X238196267Y-60515000D01*
X239485000Y-54728733D02*
X239485000Y-55071267D01*
X238465000Y-54728733D02*
X238465000Y-55071267D01*
X234546267Y-51715000D02*
X234203733Y-51715000D01*
X234546267Y-52735000D02*
X234203733Y-52735000D01*
X236396267Y-53315000D02*
X236053733Y-53315000D01*
X236396267Y-54335000D02*
X236053733Y-54335000D01*
D14*
X237675000Y-55250000D02*
X237675000Y-55775000D01*
X233375000Y-59550000D02*
X233375000Y-59025000D01*
X237675000Y-59550000D02*
X237675000Y-59025000D01*
X233375000Y-55250000D02*
X233900000Y-55250000D01*
X233375000Y-59550000D02*
X233900000Y-59550000D01*
X237675000Y-59550000D02*
X237150000Y-59550000D01*
X237675000Y-55250000D02*
X237150000Y-55250000D01*
D17*
X249435000Y-51721267D02*
X249435000Y-51378733D01*
X248415000Y-51721267D02*
X248415000Y-51378733D01*
D14*
X259163600Y-35512800D02*
X250563600Y-35512800D01*
X259163600Y-42312800D02*
X250563600Y-42312800D01*
D17*
X246715000Y-51378733D02*
X246715000Y-51721267D01*
X247735000Y-51378733D02*
X247735000Y-51721267D01*
X251135000Y-51378733D02*
X251135000Y-51721267D01*
X250115000Y-51378733D02*
X250115000Y-51721267D01*
X248106252Y-64798000D02*
X247583748Y-64798000D01*
X248106252Y-66218000D02*
X247583748Y-66218000D01*
X248106252Y-68518000D02*
X247583748Y-68518000D01*
X248106252Y-67098000D02*
X247583748Y-67098000D01*
X250890000Y-62371267D02*
X250890000Y-62028733D01*
X251910000Y-62371267D02*
X251910000Y-62028733D01*
X248891267Y-86418000D02*
X248548733Y-86418000D01*
X248891267Y-85398000D02*
X248548733Y-85398000D01*
X247991267Y-69398000D02*
X247648733Y-69398000D01*
X247991267Y-70418000D02*
X247648733Y-70418000D01*
X244910000Y-58403733D02*
X244910000Y-58746267D01*
X243890000Y-58403733D02*
X243890000Y-58746267D01*
X244910000Y-61753733D02*
X244910000Y-62096267D01*
X243890000Y-61753733D02*
X243890000Y-62096267D01*
X245370000Y-84768000D02*
X253605000Y-84768000D01*
X253605000Y-84768000D02*
X253605000Y-80248000D01*
X253605000Y-80248000D02*
X245370000Y-80248000D01*
X267275000Y-75975000D02*
X267275000Y-87475000D01*
X266625000Y-75325000D02*
X263875000Y-75325000D01*
X254475000Y-87475000D02*
X254475000Y-75975000D01*
X266625000Y-88125000D02*
X263875000Y-88125000D01*
X257875000Y-75325000D02*
X255125000Y-75325000D01*
X257875000Y-88125000D02*
X255125000Y-88125000D01*
X266625000Y-75325000D02*
G75*
G02X267275000Y-75975000I0J-650000D01*
G01*
X254475000Y-75975000D02*
G75*
G02X255125000Y-75325000I650000J0D01*
G01*
X255125000Y-88125000D02*
G75*
G02X254475000Y-87475000I0J650000D01*
G01*
X267275000Y-87475000D02*
G75*
G02X266625000Y-88125000I-650000J0D01*
G01*
X253520000Y-77758000D02*
X242320000Y-77758000D01*
X253520000Y-71258000D02*
X242320000Y-71258000D01*
X253520000Y-71258000D02*
X253520000Y-77758000D01*
X245334999Y-60633001D02*
X245334999Y-62583001D01*
X245334999Y-60633001D02*
X245334999Y-58683001D01*
X250454999Y-60633001D02*
X250454999Y-62583001D01*
X250454999Y-60633001D02*
X250454999Y-57183001D01*
X222611252Y-59810000D02*
X222088748Y-59810000D01*
X222611252Y-58390000D02*
X222088748Y-58390000D01*
X225753733Y-60535000D02*
X226096267Y-60535000D01*
X225753733Y-59515000D02*
X226096267Y-59515000D01*
X225753733Y-62135000D02*
X226096267Y-62135000D01*
X225753733Y-61115000D02*
X226096267Y-61115000D01*
X223411252Y-45285000D02*
X222888748Y-45285000D01*
X223411252Y-43865000D02*
X222888748Y-43865000D01*
X231335000Y-51775000D02*
X231335000Y-47915000D01*
X231335000Y-47915000D02*
X231080000Y-47915000D01*
X231335000Y-51775000D02*
X231335000Y-55635000D01*
X231335000Y-55635000D02*
X231080000Y-55635000D01*
X220815000Y-51775000D02*
X220815000Y-47915000D01*
X220815000Y-47915000D02*
X221070000Y-47915000D01*
X220815000Y-51775000D02*
X220815000Y-55635000D01*
X220815000Y-55635000D02*
X221070000Y-55635000D01*
X221070000Y-55635000D02*
X221070000Y-57450000D01*
X253228800Y-61832800D02*
X255888800Y-61832800D01*
X253228800Y-61772800D02*
X253228800Y-61832800D01*
X255888800Y-61772800D02*
X255888800Y-61832800D01*
X253228800Y-61772800D02*
X255888800Y-61772800D01*
X253228800Y-60502800D02*
X253228800Y-59172800D01*
X253228800Y-59172800D02*
X254558800Y-59172800D01*
X256850000Y-60881800D02*
X265980000Y-60881800D01*
X265980000Y-60881800D02*
X266980000Y-61881800D01*
X266980000Y-61881800D02*
X266980000Y-73251800D01*
X266980000Y-73251800D02*
X265980000Y-74251800D01*
X265980000Y-74251800D02*
X256850000Y-74251800D01*
X256850000Y-74251800D02*
X256850000Y-60881800D01*
X222735000Y-62761252D02*
X222735000Y-62238748D01*
X221315000Y-62761252D02*
X221315000Y-62238748D01*
X226735000Y-66553733D02*
X226735000Y-66896267D01*
X225715000Y-66553733D02*
X225715000Y-66896267D01*
X235535000Y-66946267D02*
X235535000Y-66603733D01*
X234515000Y-66946267D02*
X234515000Y-66603733D01*
X230379200Y-80615348D02*
X230379200Y-81137852D01*
X228959200Y-80615348D02*
X228959200Y-81137852D01*
X230085000Y-43153733D02*
X230085000Y-43496267D01*
X229065000Y-43153733D02*
X229065000Y-43496267D01*
X230590000Y-43153733D02*
X230590000Y-43496267D01*
X231610000Y-43153733D02*
X231610000Y-43496267D01*
X229919600Y-38854748D02*
X229919600Y-39377252D01*
X228499600Y-38854748D02*
X228499600Y-39377252D01*
X231610000Y-39778733D02*
X231610000Y-40121267D01*
X230590000Y-39778733D02*
X230590000Y-40121267D01*
X245085000Y-40421267D02*
X245085000Y-40078733D01*
X244065000Y-40421267D02*
X244065000Y-40078733D01*
X245060000Y-44196267D02*
X245060000Y-43853733D01*
X244040000Y-44196267D02*
X244040000Y-43853733D01*
X245565000Y-44196267D02*
X245565000Y-43853733D01*
X246585000Y-44196267D02*
X246585000Y-43853733D01*
X247061252Y-36890000D02*
X246538748Y-36890000D01*
X247061252Y-38310000D02*
X246538748Y-38310000D01*
X239535000Y-58228733D02*
X239535000Y-58571267D01*
X238515000Y-58228733D02*
X238515000Y-58571267D01*
X239369400Y-87500200D02*
X241829400Y-87500200D01*
X241829400Y-87500200D02*
X241829400Y-86030200D01*
X241829400Y-86030200D02*
X239369400Y-86030200D01*
X229722517Y-77289392D02*
X227346339Y-76652697D01*
X227346339Y-76652697D02*
X226965875Y-78072608D01*
X226965875Y-78072608D02*
X229342053Y-78709303D01*
X228077698Y-92321339D02*
X228714393Y-94697517D01*
X229497609Y-91940875D02*
X228077698Y-92321339D01*
X230134304Y-94317053D02*
X229497609Y-91940875D01*
X240715000Y-60525000D02*
X240715000Y-62985000D01*
X240715000Y-62985000D02*
X242185000Y-62985000D01*
X242185000Y-62985000D02*
X242185000Y-60525000D01*
X250228000Y-93348000D02*
X247768000Y-93348000D01*
X250228000Y-94818000D02*
X250228000Y-93348000D01*
X247768000Y-94818000D02*
X250228000Y-94818000D01*
X247768000Y-89260000D02*
X250228000Y-89260000D01*
X250228000Y-89260000D02*
X250228000Y-87790000D01*
X250228000Y-87790000D02*
X247768000Y-87790000D01*
X250228000Y-90569000D02*
X247768000Y-90569000D01*
X250228000Y-92039000D02*
X250228000Y-90569000D01*
X247768000Y-92039000D02*
X250228000Y-92039000D01*
X256805000Y-88990000D02*
X265935000Y-88990000D01*
X265935000Y-88990000D02*
X266935000Y-89990000D01*
X266935000Y-89990000D02*
X266935000Y-98360000D01*
X266935000Y-98360000D02*
X265935000Y-99360000D01*
X265935000Y-99360000D02*
X256805000Y-99360000D01*
X256805000Y-99360000D02*
X256805000Y-88990000D01*
X228593733Y-65965000D02*
X228936267Y-65965000D01*
X228593733Y-64945000D02*
X228936267Y-64945000D01*
X228936267Y-68505000D02*
X228593733Y-68505000D01*
X228936267Y-67485000D02*
X228593733Y-67485000D01*
X223513733Y-68505000D02*
X223856267Y-68505000D01*
X223513733Y-67485000D02*
X223856267Y-67485000D01*
X223856267Y-65965000D02*
X223513733Y-65965000D01*
X223856267Y-64945000D02*
X223513733Y-64945000D01*
X232656267Y-67535000D02*
X232313733Y-67535000D01*
X232656267Y-68555000D02*
X232313733Y-68555000D01*
X232313733Y-64995000D02*
X232656267Y-64995000D01*
X232313733Y-66015000D02*
X232656267Y-66015000D01*
X237736267Y-66015000D02*
X237393733Y-66015000D01*
X237736267Y-64995000D02*
X237393733Y-64995000D01*
X237393733Y-68555000D02*
X237736267Y-68555000D01*
X237393733Y-67535000D02*
X237736267Y-67535000D01*
X231929200Y-80905333D02*
X231929200Y-81247867D01*
X230909200Y-80905333D02*
X230909200Y-81247867D01*
X230665467Y-84061600D02*
X230322933Y-84061600D01*
X230665467Y-83041600D02*
X230322933Y-83041600D01*
X232459200Y-80905333D02*
X232459200Y-81247867D01*
X233479200Y-80905333D02*
X233479200Y-81247867D01*
X233722933Y-83041600D02*
X234065467Y-83041600D01*
X233722933Y-84061600D02*
X234065467Y-84061600D01*
X228809200Y-86755333D02*
X228809200Y-87097867D01*
X229829200Y-86755333D02*
X229829200Y-87097867D01*
X232022933Y-89291600D02*
X232365467Y-89291600D01*
X232022933Y-90311600D02*
X232365467Y-90311600D01*
D14*
X227900000Y-43050000D02*
X221925000Y-43050000D01*
X226375000Y-36150000D02*
X221925000Y-36150000D01*
X232250000Y-59800000D02*
X232075000Y-59800000D01*
X232250000Y-63050000D02*
X231975000Y-63050000D01*
X229000000Y-63050000D02*
X229275000Y-63050000D01*
X229000000Y-59800000D02*
X229275000Y-59800000D01*
X232250000Y-59800000D02*
X232250000Y-63050000D01*
X229000000Y-59800000D02*
X229000000Y-63050000D01*
X232075000Y-59800000D02*
X232075000Y-58725000D01*
X233644200Y-85126600D02*
X233644200Y-88001600D01*
X230394200Y-85901600D02*
X230394200Y-88001600D01*
D17*
X233985001Y-37755001D02*
X232170001Y-37755001D01*
X233985001Y-37520001D02*
X233985001Y-37755001D01*
X237845001Y-37520001D02*
X233985001Y-37520001D01*
X241705001Y-37520001D02*
X241705001Y-37755001D01*
X237845001Y-37520001D02*
X241705001Y-37520001D01*
X233985001Y-50540001D02*
X233985001Y-50305001D01*
X237845001Y-50540001D02*
X233985001Y-50540001D01*
X241705001Y-50540001D02*
X241705001Y-50305001D01*
X237845001Y-50540001D02*
X241705001Y-50540001D01*
X243398133Y-86255200D02*
X243740667Y-86255200D01*
X243398133Y-87275200D02*
X243740667Y-87275200D01*
X225772825Y-76464013D02*
X225441962Y-76375359D01*
X225508830Y-77449257D02*
X225177967Y-77360603D01*
X227889013Y-90747825D02*
X227800359Y-90416962D01*
X228874257Y-90483830D02*
X228785603Y-90152967D01*
X241960000Y-64553733D02*
X241960000Y-64896267D01*
X240940000Y-64553733D02*
X240940000Y-64896267D01*
X251796734Y-93573000D02*
X252139268Y-93573000D01*
X251796734Y-94593000D02*
X252139268Y-94593000D01*
X251796734Y-89035000D02*
X252139268Y-89035000D01*
X251796734Y-88015000D02*
X252139268Y-88015000D01*
X251796734Y-90794000D02*
X252139268Y-90794000D01*
X251796734Y-91814000D02*
X252139268Y-91814000D01*
X219710000Y-41436252D02*
X219710000Y-40913748D01*
X218290000Y-41436252D02*
X218290000Y-40913748D01*
X256862400Y-43609800D02*
X265992400Y-43609800D01*
X265992400Y-43609800D02*
X266992400Y-44609800D01*
X266992400Y-44609800D02*
X266992400Y-58979800D01*
X266992400Y-58979800D02*
X265992400Y-59979800D01*
X265992400Y-59979800D02*
X256862400Y-59979800D01*
X256862400Y-59979800D02*
X256862400Y-43609800D01*
X238172236Y-81690800D02*
X239376364Y-81690800D01*
X238172236Y-83510800D02*
X239376364Y-83510800D01*
D14*
X246646914Y-54570380D02*
X246646914Y-55379904D01*
X246694533Y-55475142D01*
X246742152Y-55522761D01*
X246837390Y-55570380D01*
X247027866Y-55570380D01*
X247123104Y-55522761D01*
X247170723Y-55475142D01*
X247218342Y-55379904D01*
X247218342Y-54570380D01*
X248218342Y-55570380D02*
X247646914Y-55570380D01*
X247932628Y-55570380D02*
X247932628Y-54570380D01*
X247837390Y-54713238D01*
X247742152Y-54808476D01*
X247646914Y-54856095D01*
X248837390Y-54570380D02*
X248932628Y-54570380D01*
X249027866Y-54618000D01*
X249075485Y-54665619D01*
X249123104Y-54760857D01*
X249170723Y-54951333D01*
X249170723Y-55189428D01*
X249123104Y-55379904D01*
X249075485Y-55475142D01*
X249027866Y-55522761D01*
X248932628Y-55570380D01*
X248837390Y-55570380D01*
X248742152Y-55522761D01*
X248694533Y-55475142D01*
X248646914Y-55379904D01*
X248599295Y-55189428D01*
X248599295Y-54951333D01*
X248646914Y-54760857D01*
X248694533Y-54665619D01*
X248742152Y-54618000D01*
X248837390Y-54570380D01*
X249504057Y-54570380D02*
X250123104Y-54570380D01*
X249789771Y-54951333D01*
X249932628Y-54951333D01*
X250027866Y-54998952D01*
X250075485Y-55046571D01*
X250123104Y-55141809D01*
X250123104Y-55379904D01*
X250075485Y-55475142D01*
X250027866Y-55522761D01*
X249932628Y-55570380D01*
X249646914Y-55570380D01*
X249551676Y-55522761D01*
X249504057Y-55475142D01*
X233355952Y-62882142D02*
X233308333Y-62929761D01*
X233165476Y-62977380D01*
X233070238Y-62977380D01*
X232927380Y-62929761D01*
X232832142Y-62834523D01*
X232784523Y-62739285D01*
X232736904Y-62548809D01*
X232736904Y-62405952D01*
X232784523Y-62215476D01*
X232832142Y-62120238D01*
X232927380Y-62025000D01*
X233070238Y-61977380D01*
X233165476Y-61977380D01*
X233308333Y-62025000D01*
X233355952Y-62072619D01*
X234213095Y-61977380D02*
X234022619Y-61977380D01*
X233927380Y-62025000D01*
X233879761Y-62072619D01*
X233784523Y-62215476D01*
X233736904Y-62405952D01*
X233736904Y-62786904D01*
X233784523Y-62882142D01*
X233832142Y-62929761D01*
X233927380Y-62977380D01*
X234117857Y-62977380D01*
X234213095Y-62929761D01*
X234260714Y-62882142D01*
X234308333Y-62786904D01*
X234308333Y-62548809D01*
X234260714Y-62453571D01*
X234213095Y-62405952D01*
X234117857Y-62358333D01*
X233927380Y-62358333D01*
X233832142Y-62405952D01*
X233784523Y-62453571D01*
X233736904Y-62548809D01*
X234927380Y-61977380D02*
X235022619Y-61977380D01*
X235117857Y-62025000D01*
X235165476Y-62072619D01*
X235213095Y-62167857D01*
X235260714Y-62358333D01*
X235260714Y-62596428D01*
X235213095Y-62786904D01*
X235165476Y-62882142D01*
X235117857Y-62929761D01*
X235022619Y-62977380D01*
X234927380Y-62977380D01*
X234832142Y-62929761D01*
X234784523Y-62882142D01*
X234736904Y-62786904D01*
X234689285Y-62596428D01*
X234689285Y-62358333D01*
X234736904Y-62167857D01*
X234784523Y-62072619D01*
X234832142Y-62025000D01*
X234927380Y-61977380D01*
X236213095Y-62977380D02*
X235641666Y-62977380D01*
X235927380Y-62977380D02*
X235927380Y-61977380D01*
X235832142Y-62120238D01*
X235736904Y-62215476D01*
X235641666Y-62263095D01*
X236880952Y-62782142D02*
X236833333Y-62829761D01*
X236690476Y-62877380D01*
X236595238Y-62877380D01*
X236452380Y-62829761D01*
X236357142Y-62734523D01*
X236309523Y-62639285D01*
X236261904Y-62448809D01*
X236261904Y-62305952D01*
X236309523Y-62115476D01*
X236357142Y-62020238D01*
X236452380Y-61925000D01*
X236595238Y-61877380D01*
X236690476Y-61877380D01*
X236833333Y-61925000D01*
X236880952Y-61972619D01*
X237738095Y-61877380D02*
X237547619Y-61877380D01*
X237452380Y-61925000D01*
X237404761Y-61972619D01*
X237309523Y-62115476D01*
X237261904Y-62305952D01*
X237261904Y-62686904D01*
X237309523Y-62782142D01*
X237357142Y-62829761D01*
X237452380Y-62877380D01*
X237642857Y-62877380D01*
X237738095Y-62829761D01*
X237785714Y-62782142D01*
X237833333Y-62686904D01*
X237833333Y-62448809D01*
X237785714Y-62353571D01*
X237738095Y-62305952D01*
X237642857Y-62258333D01*
X237452380Y-62258333D01*
X237357142Y-62305952D01*
X237309523Y-62353571D01*
X237261904Y-62448809D01*
X238452380Y-61877380D02*
X238547619Y-61877380D01*
X238642857Y-61925000D01*
X238690476Y-61972619D01*
X238738095Y-62067857D01*
X238785714Y-62258333D01*
X238785714Y-62496428D01*
X238738095Y-62686904D01*
X238690476Y-62782142D01*
X238642857Y-62829761D01*
X238547619Y-62877380D01*
X238452380Y-62877380D01*
X238357142Y-62829761D01*
X238309523Y-62782142D01*
X238261904Y-62686904D01*
X238214285Y-62496428D01*
X238214285Y-62258333D01*
X238261904Y-62067857D01*
X238309523Y-61972619D01*
X238357142Y-61925000D01*
X238452380Y-61877380D01*
X239166666Y-61972619D02*
X239214285Y-61925000D01*
X239309523Y-61877380D01*
X239547619Y-61877380D01*
X239642857Y-61925000D01*
X239690476Y-61972619D01*
X239738095Y-62067857D01*
X239738095Y-62163095D01*
X239690476Y-62305952D01*
X239119047Y-62877380D01*
X239738095Y-62877380D01*
X240757142Y-55444047D02*
X240804761Y-55491666D01*
X240852380Y-55634523D01*
X240852380Y-55729761D01*
X240804761Y-55872619D01*
X240709523Y-55967857D01*
X240614285Y-56015476D01*
X240423809Y-56063095D01*
X240280952Y-56063095D01*
X240090476Y-56015476D01*
X239995238Y-55967857D01*
X239900000Y-55872619D01*
X239852380Y-55729761D01*
X239852380Y-55634523D01*
X239900000Y-55491666D01*
X239947619Y-55444047D01*
X239852380Y-54586904D02*
X239852380Y-54777380D01*
X239900000Y-54872619D01*
X239947619Y-54920238D01*
X240090476Y-55015476D01*
X240280952Y-55063095D01*
X240661904Y-55063095D01*
X240757142Y-55015476D01*
X240804761Y-54967857D01*
X240852380Y-54872619D01*
X240852380Y-54682142D01*
X240804761Y-54586904D01*
X240757142Y-54539285D01*
X240661904Y-54491666D01*
X240423809Y-54491666D01*
X240328571Y-54539285D01*
X240280952Y-54586904D01*
X240233333Y-54682142D01*
X240233333Y-54872619D01*
X240280952Y-54967857D01*
X240328571Y-55015476D01*
X240423809Y-55063095D01*
X239852380Y-53872619D02*
X239852380Y-53777380D01*
X239900000Y-53682142D01*
X239947619Y-53634523D01*
X240042857Y-53586904D01*
X240233333Y-53539285D01*
X240471428Y-53539285D01*
X240661904Y-53586904D01*
X240757142Y-53634523D01*
X240804761Y-53682142D01*
X240852380Y-53777380D01*
X240852380Y-53872619D01*
X240804761Y-53967857D01*
X240757142Y-54015476D01*
X240661904Y-54063095D01*
X240471428Y-54110714D01*
X240233333Y-54110714D01*
X240042857Y-54063095D01*
X239947619Y-54015476D01*
X239900000Y-53967857D01*
X239852380Y-53872619D01*
X239852380Y-53205952D02*
X239852380Y-52586904D01*
X240233333Y-52920238D01*
X240233333Y-52777380D01*
X240280952Y-52682142D01*
X240328571Y-52634523D01*
X240423809Y-52586904D01*
X240661904Y-52586904D01*
X240757142Y-52634523D01*
X240804761Y-52682142D01*
X240852380Y-52777380D01*
X240852380Y-53063095D01*
X240804761Y-53158333D01*
X240757142Y-53205952D01*
X236830952Y-51827380D02*
X236497619Y-51351190D01*
X236259523Y-51827380D02*
X236259523Y-50827380D01*
X236640476Y-50827380D01*
X236735714Y-50875000D01*
X236783333Y-50922619D01*
X236830952Y-51017857D01*
X236830952Y-51160714D01*
X236783333Y-51255952D01*
X236735714Y-51303571D01*
X236640476Y-51351190D01*
X236259523Y-51351190D01*
X237688095Y-50827380D02*
X237497619Y-50827380D01*
X237402380Y-50875000D01*
X237354761Y-50922619D01*
X237259523Y-51065476D01*
X237211904Y-51255952D01*
X237211904Y-51636904D01*
X237259523Y-51732142D01*
X237307142Y-51779761D01*
X237402380Y-51827380D01*
X237592857Y-51827380D01*
X237688095Y-51779761D01*
X237735714Y-51732142D01*
X237783333Y-51636904D01*
X237783333Y-51398809D01*
X237735714Y-51303571D01*
X237688095Y-51255952D01*
X237592857Y-51208333D01*
X237402380Y-51208333D01*
X237307142Y-51255952D01*
X237259523Y-51303571D01*
X237211904Y-51398809D01*
X238402380Y-50827380D02*
X238497619Y-50827380D01*
X238592857Y-50875000D01*
X238640476Y-50922619D01*
X238688095Y-51017857D01*
X238735714Y-51208333D01*
X238735714Y-51446428D01*
X238688095Y-51636904D01*
X238640476Y-51732142D01*
X238592857Y-51779761D01*
X238497619Y-51827380D01*
X238402380Y-51827380D01*
X238307142Y-51779761D01*
X238259523Y-51732142D01*
X238211904Y-51636904D01*
X238164285Y-51446428D01*
X238164285Y-51208333D01*
X238211904Y-51017857D01*
X238259523Y-50922619D01*
X238307142Y-50875000D01*
X238402380Y-50827380D01*
X239688095Y-51827380D02*
X239116666Y-51827380D01*
X239402380Y-51827380D02*
X239402380Y-50827380D01*
X239307142Y-50970238D01*
X239211904Y-51065476D01*
X239116666Y-51113095D01*
X236830952Y-52977380D02*
X236497619Y-52501190D01*
X236259523Y-52977380D02*
X236259523Y-51977380D01*
X236640476Y-51977380D01*
X236735714Y-52025000D01*
X236783333Y-52072619D01*
X236830952Y-52167857D01*
X236830952Y-52310714D01*
X236783333Y-52405952D01*
X236735714Y-52453571D01*
X236640476Y-52501190D01*
X236259523Y-52501190D01*
X237688095Y-51977380D02*
X237497619Y-51977380D01*
X237402380Y-52025000D01*
X237354761Y-52072619D01*
X237259523Y-52215476D01*
X237211904Y-52405952D01*
X237211904Y-52786904D01*
X237259523Y-52882142D01*
X237307142Y-52929761D01*
X237402380Y-52977380D01*
X237592857Y-52977380D01*
X237688095Y-52929761D01*
X237735714Y-52882142D01*
X237783333Y-52786904D01*
X237783333Y-52548809D01*
X237735714Y-52453571D01*
X237688095Y-52405952D01*
X237592857Y-52358333D01*
X237402380Y-52358333D01*
X237307142Y-52405952D01*
X237259523Y-52453571D01*
X237211904Y-52548809D01*
X238402380Y-51977380D02*
X238497619Y-51977380D01*
X238592857Y-52025000D01*
X238640476Y-52072619D01*
X238688095Y-52167857D01*
X238735714Y-52358333D01*
X238735714Y-52596428D01*
X238688095Y-52786904D01*
X238640476Y-52882142D01*
X238592857Y-52929761D01*
X238497619Y-52977380D01*
X238402380Y-52977380D01*
X238307142Y-52929761D01*
X238259523Y-52882142D01*
X238211904Y-52786904D01*
X238164285Y-52596428D01*
X238164285Y-52358333D01*
X238211904Y-52167857D01*
X238259523Y-52072619D01*
X238307142Y-52025000D01*
X238402380Y-51977380D01*
X239116666Y-52072619D02*
X239164285Y-52025000D01*
X239259523Y-51977380D01*
X239497619Y-51977380D01*
X239592857Y-52025000D01*
X239640476Y-52072619D01*
X239688095Y-52167857D01*
X239688095Y-52263095D01*
X239640476Y-52405952D01*
X239069047Y-52977380D01*
X239688095Y-52977380D01*
X231702380Y-58789285D02*
X232511904Y-58789285D01*
X232607142Y-58741666D01*
X232654761Y-58694047D01*
X232702380Y-58598809D01*
X232702380Y-58408333D01*
X232654761Y-58313095D01*
X232607142Y-58265476D01*
X232511904Y-58217857D01*
X231702380Y-58217857D01*
X231702380Y-57313095D02*
X231702380Y-57503571D01*
X231750000Y-57598809D01*
X231797619Y-57646428D01*
X231940476Y-57741666D01*
X232130952Y-57789285D01*
X232511904Y-57789285D01*
X232607142Y-57741666D01*
X232654761Y-57694047D01*
X232702380Y-57598809D01*
X232702380Y-57408333D01*
X232654761Y-57313095D01*
X232607142Y-57265476D01*
X232511904Y-57217857D01*
X232273809Y-57217857D01*
X232178571Y-57265476D01*
X232130952Y-57313095D01*
X232083333Y-57408333D01*
X232083333Y-57598809D01*
X232130952Y-57694047D01*
X232178571Y-57741666D01*
X232273809Y-57789285D01*
X231702380Y-56598809D02*
X231702380Y-56503571D01*
X231750000Y-56408333D01*
X231797619Y-56360714D01*
X231892857Y-56313095D01*
X232083333Y-56265476D01*
X232321428Y-56265476D01*
X232511904Y-56313095D01*
X232607142Y-56360714D01*
X232654761Y-56408333D01*
X232702380Y-56503571D01*
X232702380Y-56598809D01*
X232654761Y-56694047D01*
X232607142Y-56741666D01*
X232511904Y-56789285D01*
X232321428Y-56836904D01*
X232083333Y-56836904D01*
X231892857Y-56789285D01*
X231797619Y-56741666D01*
X231750000Y-56694047D01*
X231702380Y-56598809D01*
X232702380Y-55313095D02*
X232702380Y-55884523D01*
X232702380Y-55598809D02*
X231702380Y-55598809D01*
X231845238Y-55694047D01*
X231940476Y-55789285D01*
X231988095Y-55884523D01*
X247750152Y-49480742D02*
X247702533Y-49528361D01*
X247559676Y-49575980D01*
X247464438Y-49575980D01*
X247321580Y-49528361D01*
X247226342Y-49433123D01*
X247178723Y-49337885D01*
X247131104Y-49147409D01*
X247131104Y-49004552D01*
X247178723Y-48814076D01*
X247226342Y-48718838D01*
X247321580Y-48623600D01*
X247464438Y-48575980D01*
X247559676Y-48575980D01*
X247702533Y-48623600D01*
X247750152Y-48671219D01*
X248654914Y-48575980D02*
X248178723Y-48575980D01*
X248131104Y-49052171D01*
X248178723Y-49004552D01*
X248273961Y-48956933D01*
X248512057Y-48956933D01*
X248607295Y-49004552D01*
X248654914Y-49052171D01*
X248702533Y-49147409D01*
X248702533Y-49385504D01*
X248654914Y-49480742D01*
X248607295Y-49528361D01*
X248512057Y-49575980D01*
X248273961Y-49575980D01*
X248178723Y-49528361D01*
X248131104Y-49480742D01*
X249321580Y-48575980D02*
X249416819Y-48575980D01*
X249512057Y-48623600D01*
X249559676Y-48671219D01*
X249607295Y-48766457D01*
X249654914Y-48956933D01*
X249654914Y-49195028D01*
X249607295Y-49385504D01*
X249559676Y-49480742D01*
X249512057Y-49528361D01*
X249416819Y-49575980D01*
X249321580Y-49575980D01*
X249226342Y-49528361D01*
X249178723Y-49480742D01*
X249131104Y-49385504D01*
X249083485Y-49195028D01*
X249083485Y-48956933D01*
X249131104Y-48766457D01*
X249178723Y-48671219D01*
X249226342Y-48623600D01*
X249321580Y-48575980D01*
X250131104Y-49575980D02*
X250321580Y-49575980D01*
X250416819Y-49528361D01*
X250464438Y-49480742D01*
X250559676Y-49337885D01*
X250607295Y-49147409D01*
X250607295Y-48766457D01*
X250559676Y-48671219D01*
X250512057Y-48623600D01*
X250416819Y-48575980D01*
X250226342Y-48575980D01*
X250131104Y-48623600D01*
X250083485Y-48671219D01*
X250035866Y-48766457D01*
X250035866Y-49004552D01*
X250083485Y-49099790D01*
X250131104Y-49147409D01*
X250226342Y-49195028D01*
X250416819Y-49195028D01*
X250512057Y-49147409D01*
X250559676Y-49099790D01*
X250607295Y-49004552D01*
X261184685Y-42683961D02*
X261327542Y-42731580D01*
X261565638Y-42731580D01*
X261660876Y-42683961D01*
X261708495Y-42636342D01*
X261756114Y-42541104D01*
X261756114Y-42445866D01*
X261708495Y-42350628D01*
X261660876Y-42303009D01*
X261565638Y-42255390D01*
X261375161Y-42207771D01*
X261279923Y-42160152D01*
X261232304Y-42112533D01*
X261184685Y-42017295D01*
X261184685Y-41922057D01*
X261232304Y-41826819D01*
X261279923Y-41779200D01*
X261375161Y-41731580D01*
X261613257Y-41731580D01*
X261756114Y-41779200D01*
X262089447Y-41731580D02*
X262327542Y-42731580D01*
X262518019Y-42017295D01*
X262708495Y-42731580D01*
X262946590Y-41731580D01*
X263803733Y-41731580D02*
X263327542Y-41731580D01*
X263279923Y-42207771D01*
X263327542Y-42160152D01*
X263422780Y-42112533D01*
X263660876Y-42112533D01*
X263756114Y-42160152D01*
X263803733Y-42207771D01*
X263851352Y-42303009D01*
X263851352Y-42541104D01*
X263803733Y-42636342D01*
X263756114Y-42683961D01*
X263660876Y-42731580D01*
X263422780Y-42731580D01*
X263327542Y-42683961D01*
X263279923Y-42636342D01*
X264470400Y-41731580D02*
X264565638Y-41731580D01*
X264660876Y-41779200D01*
X264708495Y-41826819D01*
X264756114Y-41922057D01*
X264803733Y-42112533D01*
X264803733Y-42350628D01*
X264756114Y-42541104D01*
X264708495Y-42636342D01*
X264660876Y-42683961D01*
X264565638Y-42731580D01*
X264470400Y-42731580D01*
X264375161Y-42683961D01*
X264327542Y-42636342D01*
X264279923Y-42541104D01*
X264232304Y-42350628D01*
X264232304Y-42112533D01*
X264279923Y-41922057D01*
X264327542Y-41826819D01*
X264375161Y-41779200D01*
X264470400Y-41731580D01*
X265756114Y-42731580D02*
X265184685Y-42731580D01*
X265470400Y-42731580D02*
X265470400Y-41731580D01*
X265375161Y-41874438D01*
X265279923Y-41969676D01*
X265184685Y-42017295D01*
X246302380Y-52594047D02*
X245826190Y-52927380D01*
X246302380Y-53165476D02*
X245302380Y-53165476D01*
X245302380Y-52784523D01*
X245350000Y-52689285D01*
X245397619Y-52641666D01*
X245492857Y-52594047D01*
X245635714Y-52594047D01*
X245730952Y-52641666D01*
X245778571Y-52689285D01*
X245826190Y-52784523D01*
X245826190Y-53165476D01*
X245302380Y-51689285D02*
X245302380Y-52165476D01*
X245778571Y-52213095D01*
X245730952Y-52165476D01*
X245683333Y-52070238D01*
X245683333Y-51832142D01*
X245730952Y-51736904D01*
X245778571Y-51689285D01*
X245873809Y-51641666D01*
X246111904Y-51641666D01*
X246207142Y-51689285D01*
X246254761Y-51736904D01*
X246302380Y-51832142D01*
X246302380Y-52070238D01*
X246254761Y-52165476D01*
X246207142Y-52213095D01*
X245302380Y-51022619D02*
X245302380Y-50927380D01*
X245350000Y-50832142D01*
X245397619Y-50784523D01*
X245492857Y-50736904D01*
X245683333Y-50689285D01*
X245921428Y-50689285D01*
X246111904Y-50736904D01*
X246207142Y-50784523D01*
X246254761Y-50832142D01*
X246302380Y-50927380D01*
X246302380Y-51022619D01*
X246254761Y-51117857D01*
X246207142Y-51165476D01*
X246111904Y-51213095D01*
X245921428Y-51260714D01*
X245683333Y-51260714D01*
X245492857Y-51213095D01*
X245397619Y-51165476D01*
X245350000Y-51117857D01*
X245302380Y-51022619D01*
X245397619Y-50308333D02*
X245350000Y-50260714D01*
X245302380Y-50165476D01*
X245302380Y-49927380D01*
X245350000Y-49832142D01*
X245397619Y-49784523D01*
X245492857Y-49736904D01*
X245588095Y-49736904D01*
X245730952Y-49784523D01*
X246302380Y-50355952D01*
X246302380Y-49736904D01*
X252552380Y-52594047D02*
X252076190Y-52927380D01*
X252552380Y-53165476D02*
X251552380Y-53165476D01*
X251552380Y-52784523D01*
X251600000Y-52689285D01*
X251647619Y-52641666D01*
X251742857Y-52594047D01*
X251885714Y-52594047D01*
X251980952Y-52641666D01*
X252028571Y-52689285D01*
X252076190Y-52784523D01*
X252076190Y-53165476D01*
X251552380Y-51689285D02*
X251552380Y-52165476D01*
X252028571Y-52213095D01*
X251980952Y-52165476D01*
X251933333Y-52070238D01*
X251933333Y-51832142D01*
X251980952Y-51736904D01*
X252028571Y-51689285D01*
X252123809Y-51641666D01*
X252361904Y-51641666D01*
X252457142Y-51689285D01*
X252504761Y-51736904D01*
X252552380Y-51832142D01*
X252552380Y-52070238D01*
X252504761Y-52165476D01*
X252457142Y-52213095D01*
X251552380Y-51022619D02*
X251552380Y-50927380D01*
X251600000Y-50832142D01*
X251647619Y-50784523D01*
X251742857Y-50736904D01*
X251933333Y-50689285D01*
X252171428Y-50689285D01*
X252361904Y-50736904D01*
X252457142Y-50784523D01*
X252504761Y-50832142D01*
X252552380Y-50927380D01*
X252552380Y-51022619D01*
X252504761Y-51117857D01*
X252457142Y-51165476D01*
X252361904Y-51213095D01*
X252171428Y-51260714D01*
X251933333Y-51260714D01*
X251742857Y-51213095D01*
X251647619Y-51165476D01*
X251600000Y-51117857D01*
X251552380Y-51022619D01*
X252552380Y-49736904D02*
X252552380Y-50308333D01*
X252552380Y-50022619D02*
X251552380Y-50022619D01*
X251695238Y-50117857D01*
X251790476Y-50213095D01*
X251838095Y-50308333D01*
X242974952Y-65889142D02*
X242927333Y-65936761D01*
X242784476Y-65984380D01*
X242689238Y-65984380D01*
X242546380Y-65936761D01*
X242451142Y-65841523D01*
X242403523Y-65746285D01*
X242355904Y-65555809D01*
X242355904Y-65412952D01*
X242403523Y-65222476D01*
X242451142Y-65127238D01*
X242546380Y-65032000D01*
X242689238Y-64984380D01*
X242784476Y-64984380D01*
X242927333Y-65032000D01*
X242974952Y-65079619D01*
X243308285Y-64984380D02*
X243927333Y-64984380D01*
X243594000Y-65365333D01*
X243736857Y-65365333D01*
X243832095Y-65412952D01*
X243879714Y-65460571D01*
X243927333Y-65555809D01*
X243927333Y-65793904D01*
X243879714Y-65889142D01*
X243832095Y-65936761D01*
X243736857Y-65984380D01*
X243451142Y-65984380D01*
X243355904Y-65936761D01*
X243308285Y-65889142D01*
X244546380Y-64984380D02*
X244641619Y-64984380D01*
X244736857Y-65032000D01*
X244784476Y-65079619D01*
X244832095Y-65174857D01*
X244879714Y-65365333D01*
X244879714Y-65603428D01*
X244832095Y-65793904D01*
X244784476Y-65889142D01*
X244736857Y-65936761D01*
X244641619Y-65984380D01*
X244546380Y-65984380D01*
X244451142Y-65936761D01*
X244403523Y-65889142D01*
X244355904Y-65793904D01*
X244308285Y-65603428D01*
X244308285Y-65365333D01*
X244355904Y-65174857D01*
X244403523Y-65079619D01*
X244451142Y-65032000D01*
X244546380Y-64984380D01*
X245832095Y-65984380D02*
X245260666Y-65984380D01*
X245546380Y-65984380D02*
X245546380Y-64984380D01*
X245451142Y-65127238D01*
X245355904Y-65222476D01*
X245260666Y-65270095D01*
X243000952Y-68265142D02*
X242953333Y-68312761D01*
X242810476Y-68360380D01*
X242715238Y-68360380D01*
X242572380Y-68312761D01*
X242477142Y-68217523D01*
X242429523Y-68122285D01*
X242381904Y-67931809D01*
X242381904Y-67788952D01*
X242429523Y-67598476D01*
X242477142Y-67503238D01*
X242572380Y-67408000D01*
X242715238Y-67360380D01*
X242810476Y-67360380D01*
X242953333Y-67408000D01*
X243000952Y-67455619D01*
X243334285Y-67360380D02*
X243953333Y-67360380D01*
X243620000Y-67741333D01*
X243762857Y-67741333D01*
X243858095Y-67788952D01*
X243905714Y-67836571D01*
X243953333Y-67931809D01*
X243953333Y-68169904D01*
X243905714Y-68265142D01*
X243858095Y-68312761D01*
X243762857Y-68360380D01*
X243477142Y-68360380D01*
X243381904Y-68312761D01*
X243334285Y-68265142D01*
X244572380Y-67360380D02*
X244667619Y-67360380D01*
X244762857Y-67408000D01*
X244810476Y-67455619D01*
X244858095Y-67550857D01*
X244905714Y-67741333D01*
X244905714Y-67979428D01*
X244858095Y-68169904D01*
X244810476Y-68265142D01*
X244762857Y-68312761D01*
X244667619Y-68360380D01*
X244572380Y-68360380D01*
X244477142Y-68312761D01*
X244429523Y-68265142D01*
X244381904Y-68169904D01*
X244334285Y-67979428D01*
X244334285Y-67741333D01*
X244381904Y-67550857D01*
X244429523Y-67455619D01*
X244477142Y-67408000D01*
X244572380Y-67360380D01*
X245286666Y-67455619D02*
X245334285Y-67408000D01*
X245429523Y-67360380D01*
X245667619Y-67360380D01*
X245762857Y-67408000D01*
X245810476Y-67455619D01*
X245858095Y-67550857D01*
X245858095Y-67646095D01*
X245810476Y-67788952D01*
X245239047Y-68360380D01*
X245858095Y-68360380D01*
X251657142Y-67019047D02*
X251704761Y-67066666D01*
X251752380Y-67209523D01*
X251752380Y-67304761D01*
X251704761Y-67447619D01*
X251609523Y-67542857D01*
X251514285Y-67590476D01*
X251323809Y-67638095D01*
X251180952Y-67638095D01*
X250990476Y-67590476D01*
X250895238Y-67542857D01*
X250800000Y-67447619D01*
X250752380Y-67304761D01*
X250752380Y-67209523D01*
X250800000Y-67066666D01*
X250847619Y-67019047D01*
X250752380Y-66685714D02*
X250752380Y-66066666D01*
X251133333Y-66400000D01*
X251133333Y-66257142D01*
X251180952Y-66161904D01*
X251228571Y-66114285D01*
X251323809Y-66066666D01*
X251561904Y-66066666D01*
X251657142Y-66114285D01*
X251704761Y-66161904D01*
X251752380Y-66257142D01*
X251752380Y-66542857D01*
X251704761Y-66638095D01*
X251657142Y-66685714D01*
X250752380Y-65447619D02*
X250752380Y-65352380D01*
X250800000Y-65257142D01*
X250847619Y-65209523D01*
X250942857Y-65161904D01*
X251133333Y-65114285D01*
X251371428Y-65114285D01*
X251561904Y-65161904D01*
X251657142Y-65209523D01*
X251704761Y-65257142D01*
X251752380Y-65352380D01*
X251752380Y-65447619D01*
X251704761Y-65542857D01*
X251657142Y-65590476D01*
X251561904Y-65638095D01*
X251371428Y-65685714D01*
X251133333Y-65685714D01*
X250942857Y-65638095D01*
X250847619Y-65590476D01*
X250800000Y-65542857D01*
X250752380Y-65447619D01*
X251085714Y-64257142D02*
X251752380Y-64257142D01*
X250704761Y-64495238D02*
X251419047Y-64733333D01*
X251419047Y-64114285D01*
X251180952Y-86307142D02*
X251133333Y-86354761D01*
X250990476Y-86402380D01*
X250895238Y-86402380D01*
X250752380Y-86354761D01*
X250657142Y-86259523D01*
X250609523Y-86164285D01*
X250561904Y-85973809D01*
X250561904Y-85830952D01*
X250609523Y-85640476D01*
X250657142Y-85545238D01*
X250752380Y-85450000D01*
X250895238Y-85402380D01*
X250990476Y-85402380D01*
X251133333Y-85450000D01*
X251180952Y-85497619D01*
X251514285Y-85402380D02*
X252133333Y-85402380D01*
X251800000Y-85783333D01*
X251942857Y-85783333D01*
X252038095Y-85830952D01*
X252085714Y-85878571D01*
X252133333Y-85973809D01*
X252133333Y-86211904D01*
X252085714Y-86307142D01*
X252038095Y-86354761D01*
X251942857Y-86402380D01*
X251657142Y-86402380D01*
X251561904Y-86354761D01*
X251514285Y-86307142D01*
X252752380Y-85402380D02*
X252847619Y-85402380D01*
X252942857Y-85450000D01*
X252990476Y-85497619D01*
X253038095Y-85592857D01*
X253085714Y-85783333D01*
X253085714Y-86021428D01*
X253038095Y-86211904D01*
X252990476Y-86307142D01*
X252942857Y-86354761D01*
X252847619Y-86402380D01*
X252752380Y-86402380D01*
X252657142Y-86354761D01*
X252609523Y-86307142D01*
X252561904Y-86211904D01*
X252514285Y-86021428D01*
X252514285Y-85783333D01*
X252561904Y-85592857D01*
X252609523Y-85497619D01*
X252657142Y-85450000D01*
X252752380Y-85402380D01*
X253942857Y-85402380D02*
X253752380Y-85402380D01*
X253657142Y-85450000D01*
X253609523Y-85497619D01*
X253514285Y-85640476D01*
X253466666Y-85830952D01*
X253466666Y-86211904D01*
X253514285Y-86307142D01*
X253561904Y-86354761D01*
X253657142Y-86402380D01*
X253847619Y-86402380D01*
X253942857Y-86354761D01*
X253990476Y-86307142D01*
X254038095Y-86211904D01*
X254038095Y-85973809D01*
X253990476Y-85878571D01*
X253942857Y-85830952D01*
X253847619Y-85783333D01*
X253657142Y-85783333D01*
X253561904Y-85830952D01*
X253514285Y-85878571D01*
X253466666Y-85973809D01*
X243178152Y-70359542D02*
X243130533Y-70407161D01*
X242987676Y-70454780D01*
X242892438Y-70454780D01*
X242749580Y-70407161D01*
X242654342Y-70311923D01*
X242606723Y-70216685D01*
X242559104Y-70026209D01*
X242559104Y-69883352D01*
X242606723Y-69692876D01*
X242654342Y-69597638D01*
X242749580Y-69502400D01*
X242892438Y-69454780D01*
X242987676Y-69454780D01*
X243130533Y-69502400D01*
X243178152Y-69550019D01*
X243511485Y-69454780D02*
X244130533Y-69454780D01*
X243797200Y-69835733D01*
X243940057Y-69835733D01*
X244035295Y-69883352D01*
X244082914Y-69930971D01*
X244130533Y-70026209D01*
X244130533Y-70264304D01*
X244082914Y-70359542D01*
X244035295Y-70407161D01*
X243940057Y-70454780D01*
X243654342Y-70454780D01*
X243559104Y-70407161D01*
X243511485Y-70359542D01*
X244749580Y-69454780D02*
X244844819Y-69454780D01*
X244940057Y-69502400D01*
X244987676Y-69550019D01*
X245035295Y-69645257D01*
X245082914Y-69835733D01*
X245082914Y-70073828D01*
X245035295Y-70264304D01*
X244987676Y-70359542D01*
X244940057Y-70407161D01*
X244844819Y-70454780D01*
X244749580Y-70454780D01*
X244654342Y-70407161D01*
X244606723Y-70359542D01*
X244559104Y-70264304D01*
X244511485Y-70073828D01*
X244511485Y-69835733D01*
X244559104Y-69645257D01*
X244606723Y-69550019D01*
X244654342Y-69502400D01*
X244749580Y-69454780D01*
X245416247Y-69454780D02*
X246035295Y-69454780D01*
X245701961Y-69835733D01*
X245844819Y-69835733D01*
X245940057Y-69883352D01*
X245987676Y-69930971D01*
X246035295Y-70026209D01*
X246035295Y-70264304D01*
X245987676Y-70359542D01*
X245940057Y-70407161D01*
X245844819Y-70454780D01*
X245559104Y-70454780D01*
X245463866Y-70407161D01*
X245416247Y-70359542D01*
X243527380Y-59519047D02*
X243051190Y-59852380D01*
X243527380Y-60090476D02*
X242527380Y-60090476D01*
X242527380Y-59709523D01*
X242575000Y-59614285D01*
X242622619Y-59566666D01*
X242717857Y-59519047D01*
X242860714Y-59519047D01*
X242955952Y-59566666D01*
X243003571Y-59614285D01*
X243051190Y-59709523D01*
X243051190Y-60090476D01*
X242527380Y-59185714D02*
X242527380Y-58566666D01*
X242908333Y-58900000D01*
X242908333Y-58757142D01*
X242955952Y-58661904D01*
X243003571Y-58614285D01*
X243098809Y-58566666D01*
X243336904Y-58566666D01*
X243432142Y-58614285D01*
X243479761Y-58661904D01*
X243527380Y-58757142D01*
X243527380Y-59042857D01*
X243479761Y-59138095D01*
X243432142Y-59185714D01*
X242527380Y-57947619D02*
X242527380Y-57852380D01*
X242575000Y-57757142D01*
X242622619Y-57709523D01*
X242717857Y-57661904D01*
X242908333Y-57614285D01*
X243146428Y-57614285D01*
X243336904Y-57661904D01*
X243432142Y-57709523D01*
X243479761Y-57757142D01*
X243527380Y-57852380D01*
X243527380Y-57947619D01*
X243479761Y-58042857D01*
X243432142Y-58090476D01*
X243336904Y-58138095D01*
X243146428Y-58185714D01*
X242908333Y-58185714D01*
X242717857Y-58138095D01*
X242622619Y-58090476D01*
X242575000Y-58042857D01*
X242527380Y-57947619D01*
X243527380Y-56661904D02*
X243527380Y-57233333D01*
X243527380Y-56947619D02*
X242527380Y-56947619D01*
X242670238Y-57042857D01*
X242765476Y-57138095D01*
X242813095Y-57233333D01*
X243602380Y-63419047D02*
X243126190Y-63752380D01*
X243602380Y-63990476D02*
X242602380Y-63990476D01*
X242602380Y-63609523D01*
X242650000Y-63514285D01*
X242697619Y-63466666D01*
X242792857Y-63419047D01*
X242935714Y-63419047D01*
X243030952Y-63466666D01*
X243078571Y-63514285D01*
X243126190Y-63609523D01*
X243126190Y-63990476D01*
X242602380Y-63085714D02*
X242602380Y-62466666D01*
X242983333Y-62800000D01*
X242983333Y-62657142D01*
X243030952Y-62561904D01*
X243078571Y-62514285D01*
X243173809Y-62466666D01*
X243411904Y-62466666D01*
X243507142Y-62514285D01*
X243554761Y-62561904D01*
X243602380Y-62657142D01*
X243602380Y-62942857D01*
X243554761Y-63038095D01*
X243507142Y-63085714D01*
X242602380Y-61847619D02*
X242602380Y-61752380D01*
X242650000Y-61657142D01*
X242697619Y-61609523D01*
X242792857Y-61561904D01*
X242983333Y-61514285D01*
X243221428Y-61514285D01*
X243411904Y-61561904D01*
X243507142Y-61609523D01*
X243554761Y-61657142D01*
X243602380Y-61752380D01*
X243602380Y-61847619D01*
X243554761Y-61942857D01*
X243507142Y-61990476D01*
X243411904Y-62038095D01*
X243221428Y-62085714D01*
X242983333Y-62085714D01*
X242792857Y-62038095D01*
X242697619Y-61990476D01*
X242650000Y-61942857D01*
X242602380Y-61847619D01*
X242697619Y-61133333D02*
X242650000Y-61085714D01*
X242602380Y-60990476D01*
X242602380Y-60752380D01*
X242650000Y-60657142D01*
X242697619Y-60609523D01*
X242792857Y-60561904D01*
X242888095Y-60561904D01*
X243030952Y-60609523D01*
X243602380Y-61180952D01*
X243602380Y-60561904D01*
X244146342Y-82551447D02*
X244193961Y-82599066D01*
X244241580Y-82741923D01*
X244241580Y-82837161D01*
X244193961Y-82980019D01*
X244098723Y-83075257D01*
X244003485Y-83122876D01*
X243813009Y-83170495D01*
X243670152Y-83170495D01*
X243479676Y-83122876D01*
X243384438Y-83075257D01*
X243289200Y-82980019D01*
X243241580Y-82837161D01*
X243241580Y-82741923D01*
X243289200Y-82599066D01*
X243336819Y-82551447D01*
X243241580Y-82218114D02*
X243241580Y-81599066D01*
X243622533Y-81932400D01*
X243622533Y-81789542D01*
X243670152Y-81694304D01*
X243717771Y-81646685D01*
X243813009Y-81599066D01*
X244051104Y-81599066D01*
X244146342Y-81646685D01*
X244193961Y-81694304D01*
X244241580Y-81789542D01*
X244241580Y-82075257D01*
X244193961Y-82170495D01*
X244146342Y-82218114D01*
X243241580Y-80980019D02*
X243241580Y-80884780D01*
X243289200Y-80789542D01*
X243336819Y-80741923D01*
X243432057Y-80694304D01*
X243622533Y-80646685D01*
X243860628Y-80646685D01*
X244051104Y-80694304D01*
X244146342Y-80741923D01*
X244193961Y-80789542D01*
X244241580Y-80884780D01*
X244241580Y-80980019D01*
X244193961Y-81075257D01*
X244146342Y-81122876D01*
X244051104Y-81170495D01*
X243860628Y-81218114D01*
X243622533Y-81218114D01*
X243432057Y-81170495D01*
X243336819Y-81122876D01*
X243289200Y-81075257D01*
X243241580Y-80980019D01*
X243241580Y-79741923D02*
X243241580Y-80218114D01*
X243717771Y-80265733D01*
X243670152Y-80218114D01*
X243622533Y-80122876D01*
X243622533Y-79884780D01*
X243670152Y-79789542D01*
X243717771Y-79741923D01*
X243813009Y-79694304D01*
X244051104Y-79694304D01*
X244146342Y-79741923D01*
X244193961Y-79789542D01*
X244241580Y-79884780D01*
X244241580Y-80122876D01*
X244193961Y-80218114D01*
X244146342Y-80265733D01*
X251407752Y-79446380D02*
X250931561Y-79446380D01*
X250931561Y-78446380D01*
X251645847Y-78446380D02*
X252264895Y-78446380D01*
X251931561Y-78827333D01*
X252074419Y-78827333D01*
X252169657Y-78874952D01*
X252217276Y-78922571D01*
X252264895Y-79017809D01*
X252264895Y-79255904D01*
X252217276Y-79351142D01*
X252169657Y-79398761D01*
X252074419Y-79446380D01*
X251788704Y-79446380D01*
X251693466Y-79398761D01*
X251645847Y-79351142D01*
X252883942Y-78446380D02*
X252979180Y-78446380D01*
X253074419Y-78494000D01*
X253122038Y-78541619D01*
X253169657Y-78636857D01*
X253217276Y-78827333D01*
X253217276Y-79065428D01*
X253169657Y-79255904D01*
X253122038Y-79351142D01*
X253074419Y-79398761D01*
X252979180Y-79446380D01*
X252883942Y-79446380D01*
X252788704Y-79398761D01*
X252741085Y-79351142D01*
X252693466Y-79255904D01*
X252645847Y-79065428D01*
X252645847Y-78827333D01*
X252693466Y-78636857D01*
X252741085Y-78541619D01*
X252788704Y-78494000D01*
X252883942Y-78446380D01*
X254169657Y-79446380D02*
X253598228Y-79446380D01*
X253883942Y-79446380D02*
X253883942Y-78446380D01*
X253788704Y-78589238D01*
X253693466Y-78684476D01*
X253598228Y-78732095D01*
X240109523Y-79152380D02*
X240109523Y-78152380D01*
X240347619Y-78152380D01*
X240490476Y-78200000D01*
X240585714Y-78295238D01*
X240633333Y-78390476D01*
X240680952Y-78580952D01*
X240680952Y-78723809D01*
X240633333Y-78914285D01*
X240585714Y-79009523D01*
X240490476Y-79104761D01*
X240347619Y-79152380D01*
X240109523Y-79152380D01*
X241014285Y-78152380D02*
X241633333Y-78152380D01*
X241300000Y-78533333D01*
X241442857Y-78533333D01*
X241538095Y-78580952D01*
X241585714Y-78628571D01*
X241633333Y-78723809D01*
X241633333Y-78961904D01*
X241585714Y-79057142D01*
X241538095Y-79104761D01*
X241442857Y-79152380D01*
X241157142Y-79152380D01*
X241061904Y-79104761D01*
X241014285Y-79057142D01*
X242252380Y-78152380D02*
X242347619Y-78152380D01*
X242442857Y-78200000D01*
X242490476Y-78247619D01*
X242538095Y-78342857D01*
X242585714Y-78533333D01*
X242585714Y-78771428D01*
X242538095Y-78961904D01*
X242490476Y-79057142D01*
X242442857Y-79104761D01*
X242347619Y-79152380D01*
X242252380Y-79152380D01*
X242157142Y-79104761D01*
X242109523Y-79057142D01*
X242061904Y-78961904D01*
X242014285Y-78771428D01*
X242014285Y-78533333D01*
X242061904Y-78342857D01*
X242109523Y-78247619D01*
X242157142Y-78200000D01*
X242252380Y-78152380D01*
X243538095Y-79152380D02*
X242966666Y-79152380D01*
X243252380Y-79152380D02*
X243252380Y-78152380D01*
X243157142Y-78295238D01*
X243061904Y-78390476D01*
X242966666Y-78438095D01*
X250772380Y-60322285D02*
X251581904Y-60322285D01*
X251677142Y-60274666D01*
X251724761Y-60227047D01*
X251772380Y-60131809D01*
X251772380Y-59941333D01*
X251724761Y-59846095D01*
X251677142Y-59798476D01*
X251581904Y-59750857D01*
X250772380Y-59750857D01*
X250772380Y-59369904D02*
X250772380Y-58750857D01*
X251153333Y-59084190D01*
X251153333Y-58941333D01*
X251200952Y-58846095D01*
X251248571Y-58798476D01*
X251343809Y-58750857D01*
X251581904Y-58750857D01*
X251677142Y-58798476D01*
X251724761Y-58846095D01*
X251772380Y-58941333D01*
X251772380Y-59227047D01*
X251724761Y-59322285D01*
X251677142Y-59369904D01*
X250772380Y-58131809D02*
X250772380Y-58036571D01*
X250820000Y-57941333D01*
X250867619Y-57893714D01*
X250962857Y-57846095D01*
X251153333Y-57798476D01*
X251391428Y-57798476D01*
X251581904Y-57846095D01*
X251677142Y-57893714D01*
X251724761Y-57941333D01*
X251772380Y-58036571D01*
X251772380Y-58131809D01*
X251724761Y-58227047D01*
X251677142Y-58274666D01*
X251581904Y-58322285D01*
X251391428Y-58369904D01*
X251153333Y-58369904D01*
X250962857Y-58322285D01*
X250867619Y-58274666D01*
X250820000Y-58227047D01*
X250772380Y-58131809D01*
X251772380Y-56846095D02*
X251772380Y-57417523D01*
X251772380Y-57131809D02*
X250772380Y-57131809D01*
X250915238Y-57227047D01*
X251010476Y-57322285D01*
X251058095Y-57417523D01*
X223957142Y-63019047D02*
X224004761Y-63066666D01*
X224052380Y-63209523D01*
X224052380Y-63304761D01*
X224004761Y-63447619D01*
X223909523Y-63542857D01*
X223814285Y-63590476D01*
X223623809Y-63638095D01*
X223480952Y-63638095D01*
X223290476Y-63590476D01*
X223195238Y-63542857D01*
X223100000Y-63447619D01*
X223052380Y-63304761D01*
X223052380Y-63209523D01*
X223100000Y-63066666D01*
X223147619Y-63019047D01*
X224052380Y-62066666D02*
X224052380Y-62638095D01*
X224052380Y-62352380D02*
X223052380Y-62352380D01*
X223195238Y-62447619D01*
X223290476Y-62542857D01*
X223338095Y-62638095D01*
X223052380Y-61447619D02*
X223052380Y-61352380D01*
X223100000Y-61257142D01*
X223147619Y-61209523D01*
X223242857Y-61161904D01*
X223433333Y-61114285D01*
X223671428Y-61114285D01*
X223861904Y-61161904D01*
X223957142Y-61209523D01*
X224004761Y-61257142D01*
X224052380Y-61352380D01*
X224052380Y-61447619D01*
X224004761Y-61542857D01*
X223957142Y-61590476D01*
X223861904Y-61638095D01*
X223671428Y-61685714D01*
X223433333Y-61685714D01*
X223242857Y-61638095D01*
X223147619Y-61590476D01*
X223100000Y-61542857D01*
X223052380Y-61447619D01*
X224052380Y-60161904D02*
X224052380Y-60733333D01*
X224052380Y-60447619D02*
X223052380Y-60447619D01*
X223195238Y-60542857D01*
X223290476Y-60638095D01*
X223338095Y-60733333D01*
X224805952Y-59047380D02*
X224472619Y-58571190D01*
X224234523Y-59047380D02*
X224234523Y-58047380D01*
X224615476Y-58047380D01*
X224710714Y-58095000D01*
X224758333Y-58142619D01*
X224805952Y-58237857D01*
X224805952Y-58380714D01*
X224758333Y-58475952D01*
X224710714Y-58523571D01*
X224615476Y-58571190D01*
X224234523Y-58571190D01*
X225758333Y-59047380D02*
X225186904Y-59047380D01*
X225472619Y-59047380D02*
X225472619Y-58047380D01*
X225377380Y-58190238D01*
X225282142Y-58285476D01*
X225186904Y-58333095D01*
X226377380Y-58047380D02*
X226472619Y-58047380D01*
X226567857Y-58095000D01*
X226615476Y-58142619D01*
X226663095Y-58237857D01*
X226710714Y-58428333D01*
X226710714Y-58666428D01*
X226663095Y-58856904D01*
X226615476Y-58952142D01*
X226567857Y-58999761D01*
X226472619Y-59047380D01*
X226377380Y-59047380D01*
X226282142Y-58999761D01*
X226234523Y-58952142D01*
X226186904Y-58856904D01*
X226139285Y-58666428D01*
X226139285Y-58428333D01*
X226186904Y-58237857D01*
X226234523Y-58142619D01*
X226282142Y-58095000D01*
X226377380Y-58047380D01*
X227044047Y-58047380D02*
X227710714Y-58047380D01*
X227282142Y-59047380D01*
X224805952Y-63477380D02*
X224472619Y-63001190D01*
X224234523Y-63477380D02*
X224234523Y-62477380D01*
X224615476Y-62477380D01*
X224710714Y-62525000D01*
X224758333Y-62572619D01*
X224805952Y-62667857D01*
X224805952Y-62810714D01*
X224758333Y-62905952D01*
X224710714Y-62953571D01*
X224615476Y-63001190D01*
X224234523Y-63001190D01*
X225758333Y-63477380D02*
X225186904Y-63477380D01*
X225472619Y-63477380D02*
X225472619Y-62477380D01*
X225377380Y-62620238D01*
X225282142Y-62715476D01*
X225186904Y-62763095D01*
X226377380Y-62477380D02*
X226472619Y-62477380D01*
X226567857Y-62525000D01*
X226615476Y-62572619D01*
X226663095Y-62667857D01*
X226710714Y-62858333D01*
X226710714Y-63096428D01*
X226663095Y-63286904D01*
X226615476Y-63382142D01*
X226567857Y-63429761D01*
X226472619Y-63477380D01*
X226377380Y-63477380D01*
X226282142Y-63429761D01*
X226234523Y-63382142D01*
X226186904Y-63286904D01*
X226139285Y-63096428D01*
X226139285Y-62858333D01*
X226186904Y-62667857D01*
X226234523Y-62572619D01*
X226282142Y-62525000D01*
X226377380Y-62477380D01*
X227186904Y-63477380D02*
X227377380Y-63477380D01*
X227472619Y-63429761D01*
X227520238Y-63382142D01*
X227615476Y-63239285D01*
X227663095Y-63048809D01*
X227663095Y-62667857D01*
X227615476Y-62572619D01*
X227567857Y-62525000D01*
X227472619Y-62477380D01*
X227282142Y-62477380D01*
X227186904Y-62525000D01*
X227139285Y-62572619D01*
X227091666Y-62667857D01*
X227091666Y-62905952D01*
X227139285Y-63001190D01*
X227186904Y-63048809D01*
X227282142Y-63096428D01*
X227472619Y-63096428D01*
X227567857Y-63048809D01*
X227615476Y-63001190D01*
X227663095Y-62905952D01*
X217680952Y-44057142D02*
X217633333Y-44104761D01*
X217490476Y-44152380D01*
X217395238Y-44152380D01*
X217252380Y-44104761D01*
X217157142Y-44009523D01*
X217109523Y-43914285D01*
X217061904Y-43723809D01*
X217061904Y-43580952D01*
X217109523Y-43390476D01*
X217157142Y-43295238D01*
X217252380Y-43200000D01*
X217395238Y-43152380D01*
X217490476Y-43152380D01*
X217633333Y-43200000D01*
X217680952Y-43247619D01*
X218633333Y-44152380D02*
X218061904Y-44152380D01*
X218347619Y-44152380D02*
X218347619Y-43152380D01*
X218252380Y-43295238D01*
X218157142Y-43390476D01*
X218061904Y-43438095D01*
X219252380Y-43152380D02*
X219347619Y-43152380D01*
X219442857Y-43200000D01*
X219490476Y-43247619D01*
X219538095Y-43342857D01*
X219585714Y-43533333D01*
X219585714Y-43771428D01*
X219538095Y-43961904D01*
X219490476Y-44057142D01*
X219442857Y-44104761D01*
X219347619Y-44152380D01*
X219252380Y-44152380D01*
X219157142Y-44104761D01*
X219109523Y-44057142D01*
X219061904Y-43961904D01*
X219014285Y-43771428D01*
X219014285Y-43533333D01*
X219061904Y-43342857D01*
X219109523Y-43247619D01*
X219157142Y-43200000D01*
X219252380Y-43152380D01*
X219966666Y-43247619D02*
X220014285Y-43200000D01*
X220109523Y-43152380D01*
X220347619Y-43152380D01*
X220442857Y-43200000D01*
X220490476Y-43247619D01*
X220538095Y-43342857D01*
X220538095Y-43438095D01*
X220490476Y-43580952D01*
X219919047Y-44152380D01*
X220538095Y-44152380D01*
X231552380Y-54139285D02*
X232361904Y-54139285D01*
X232457142Y-54091666D01*
X232504761Y-54044047D01*
X232552380Y-53948809D01*
X232552380Y-53758333D01*
X232504761Y-53663095D01*
X232457142Y-53615476D01*
X232361904Y-53567857D01*
X231552380Y-53567857D01*
X232552380Y-52567857D02*
X232552380Y-53139285D01*
X232552380Y-52853571D02*
X231552380Y-52853571D01*
X231695238Y-52948809D01*
X231790476Y-53044047D01*
X231838095Y-53139285D01*
X231552380Y-51948809D02*
X231552380Y-51853571D01*
X231600000Y-51758333D01*
X231647619Y-51710714D01*
X231742857Y-51663095D01*
X231933333Y-51615476D01*
X232171428Y-51615476D01*
X232361904Y-51663095D01*
X232457142Y-51710714D01*
X232504761Y-51758333D01*
X232552380Y-51853571D01*
X232552380Y-51948809D01*
X232504761Y-52044047D01*
X232457142Y-52091666D01*
X232361904Y-52139285D01*
X232171428Y-52186904D01*
X231933333Y-52186904D01*
X231742857Y-52139285D01*
X231647619Y-52091666D01*
X231600000Y-52044047D01*
X231552380Y-51948809D01*
X232552380Y-50663095D02*
X232552380Y-51234523D01*
X232552380Y-50948809D02*
X231552380Y-50948809D01*
X231695238Y-51044047D01*
X231790476Y-51139285D01*
X231838095Y-51234523D01*
X253273085Y-57625180D02*
X253273085Y-58339466D01*
X253225466Y-58482323D01*
X253130228Y-58577561D01*
X252987371Y-58625180D01*
X252892133Y-58625180D01*
X254273085Y-58625180D02*
X253701657Y-58625180D01*
X253987371Y-58625180D02*
X253987371Y-57625180D01*
X253892133Y-57768038D01*
X253796895Y-57863276D01*
X253701657Y-57910895D01*
X254892133Y-57625180D02*
X254987371Y-57625180D01*
X255082609Y-57672800D01*
X255130228Y-57720419D01*
X255177847Y-57815657D01*
X255225466Y-58006133D01*
X255225466Y-58244228D01*
X255177847Y-58434704D01*
X255130228Y-58529942D01*
X255082609Y-58577561D01*
X254987371Y-58625180D01*
X254892133Y-58625180D01*
X254796895Y-58577561D01*
X254749276Y-58529942D01*
X254701657Y-58434704D01*
X254654038Y-58244228D01*
X254654038Y-58006133D01*
X254701657Y-57815657D01*
X254749276Y-57720419D01*
X254796895Y-57672800D01*
X254892133Y-57625180D01*
X256130228Y-57625180D02*
X255654038Y-57625180D01*
X255606419Y-58101371D01*
X255654038Y-58053752D01*
X255749276Y-58006133D01*
X255987371Y-58006133D01*
X256082609Y-58053752D01*
X256130228Y-58101371D01*
X256177847Y-58196609D01*
X256177847Y-58434704D01*
X256130228Y-58529942D01*
X256082609Y-58577561D01*
X255987371Y-58625180D01*
X255749276Y-58625180D01*
X255654038Y-58577561D01*
X255606419Y-58529942D01*
X254925580Y-74742514D02*
X255639866Y-74742514D01*
X255782723Y-74790133D01*
X255877961Y-74885371D01*
X255925580Y-75028228D01*
X255925580Y-75123466D01*
X255925580Y-73742514D02*
X255925580Y-74313942D01*
X255925580Y-74028228D02*
X254925580Y-74028228D01*
X255068438Y-74123466D01*
X255163676Y-74218704D01*
X255211295Y-74313942D01*
X254925580Y-73123466D02*
X254925580Y-73028228D01*
X254973200Y-72932990D01*
X255020819Y-72885371D01*
X255116057Y-72837752D01*
X255306533Y-72790133D01*
X255544628Y-72790133D01*
X255735104Y-72837752D01*
X255830342Y-72885371D01*
X255877961Y-72932990D01*
X255925580Y-73028228D01*
X255925580Y-73123466D01*
X255877961Y-73218704D01*
X255830342Y-73266323D01*
X255735104Y-73313942D01*
X255544628Y-73361561D01*
X255306533Y-73361561D01*
X255116057Y-73313942D01*
X255020819Y-73266323D01*
X254973200Y-73218704D01*
X254925580Y-73123466D01*
X255925580Y-71837752D02*
X255925580Y-72409180D01*
X255925580Y-72123466D02*
X254925580Y-72123466D01*
X255068438Y-72218704D01*
X255163676Y-72313942D01*
X255211295Y-72409180D01*
X221532142Y-67344047D02*
X221579761Y-67391666D01*
X221627380Y-67534523D01*
X221627380Y-67629761D01*
X221579761Y-67772619D01*
X221484523Y-67867857D01*
X221389285Y-67915476D01*
X221198809Y-67963095D01*
X221055952Y-67963095D01*
X220865476Y-67915476D01*
X220770238Y-67867857D01*
X220675000Y-67772619D01*
X220627380Y-67629761D01*
X220627380Y-67534523D01*
X220675000Y-67391666D01*
X220722619Y-67344047D01*
X221627380Y-66391666D02*
X221627380Y-66963095D01*
X221627380Y-66677380D02*
X220627380Y-66677380D01*
X220770238Y-66772619D01*
X220865476Y-66867857D01*
X220913095Y-66963095D01*
X220627380Y-65772619D02*
X220627380Y-65677380D01*
X220675000Y-65582142D01*
X220722619Y-65534523D01*
X220817857Y-65486904D01*
X221008333Y-65439285D01*
X221246428Y-65439285D01*
X221436904Y-65486904D01*
X221532142Y-65534523D01*
X221579761Y-65582142D01*
X221627380Y-65677380D01*
X221627380Y-65772619D01*
X221579761Y-65867857D01*
X221532142Y-65915476D01*
X221436904Y-65963095D01*
X221246428Y-66010714D01*
X221008333Y-66010714D01*
X220817857Y-65963095D01*
X220722619Y-65915476D01*
X220675000Y-65867857D01*
X220627380Y-65772619D01*
X220627380Y-65105952D02*
X220627380Y-64486904D01*
X221008333Y-64820238D01*
X221008333Y-64677380D01*
X221055952Y-64582142D01*
X221103571Y-64534523D01*
X221198809Y-64486904D01*
X221436904Y-64486904D01*
X221532142Y-64534523D01*
X221579761Y-64582142D01*
X221627380Y-64677380D01*
X221627380Y-64963095D01*
X221579761Y-65058333D01*
X221532142Y-65105952D01*
X223315352Y-69902342D02*
X223267733Y-69949961D01*
X223124876Y-69997580D01*
X223029638Y-69997580D01*
X222886780Y-69949961D01*
X222791542Y-69854723D01*
X222743923Y-69759485D01*
X222696304Y-69569009D01*
X222696304Y-69426152D01*
X222743923Y-69235676D01*
X222791542Y-69140438D01*
X222886780Y-69045200D01*
X223029638Y-68997580D01*
X223124876Y-68997580D01*
X223267733Y-69045200D01*
X223315352Y-69092819D01*
X223696304Y-69092819D02*
X223743923Y-69045200D01*
X223839161Y-68997580D01*
X224077257Y-68997580D01*
X224172495Y-69045200D01*
X224220114Y-69092819D01*
X224267733Y-69188057D01*
X224267733Y-69283295D01*
X224220114Y-69426152D01*
X223648685Y-69997580D01*
X224267733Y-69997580D01*
X224886780Y-68997580D02*
X224982019Y-68997580D01*
X225077257Y-69045200D01*
X225124876Y-69092819D01*
X225172495Y-69188057D01*
X225220114Y-69378533D01*
X225220114Y-69616628D01*
X225172495Y-69807104D01*
X225124876Y-69902342D01*
X225077257Y-69949961D01*
X224982019Y-69997580D01*
X224886780Y-69997580D01*
X224791542Y-69949961D01*
X224743923Y-69902342D01*
X224696304Y-69807104D01*
X224648685Y-69616628D01*
X224648685Y-69378533D01*
X224696304Y-69188057D01*
X224743923Y-69092819D01*
X224791542Y-69045200D01*
X224886780Y-68997580D01*
X226172495Y-69997580D02*
X225601066Y-69997580D01*
X225886780Y-69997580D02*
X225886780Y-68997580D01*
X225791542Y-69140438D01*
X225696304Y-69235676D01*
X225601066Y-69283295D01*
X234338952Y-69902342D02*
X234291333Y-69949961D01*
X234148476Y-69997580D01*
X234053238Y-69997580D01*
X233910380Y-69949961D01*
X233815142Y-69854723D01*
X233767523Y-69759485D01*
X233719904Y-69569009D01*
X233719904Y-69426152D01*
X233767523Y-69235676D01*
X233815142Y-69140438D01*
X233910380Y-69045200D01*
X234053238Y-68997580D01*
X234148476Y-68997580D01*
X234291333Y-69045200D01*
X234338952Y-69092819D01*
X234719904Y-69092819D02*
X234767523Y-69045200D01*
X234862761Y-68997580D01*
X235100857Y-68997580D01*
X235196095Y-69045200D01*
X235243714Y-69092819D01*
X235291333Y-69188057D01*
X235291333Y-69283295D01*
X235243714Y-69426152D01*
X234672285Y-69997580D01*
X235291333Y-69997580D01*
X235910380Y-68997580D02*
X236005619Y-68997580D01*
X236100857Y-69045200D01*
X236148476Y-69092819D01*
X236196095Y-69188057D01*
X236243714Y-69378533D01*
X236243714Y-69616628D01*
X236196095Y-69807104D01*
X236148476Y-69902342D01*
X236100857Y-69949961D01*
X236005619Y-69997580D01*
X235910380Y-69997580D01*
X235815142Y-69949961D01*
X235767523Y-69902342D01*
X235719904Y-69807104D01*
X235672285Y-69616628D01*
X235672285Y-69378533D01*
X235719904Y-69188057D01*
X235767523Y-69092819D01*
X235815142Y-69045200D01*
X235910380Y-68997580D01*
X236624666Y-69092819D02*
X236672285Y-69045200D01*
X236767523Y-68997580D01*
X237005619Y-68997580D01*
X237100857Y-69045200D01*
X237148476Y-69092819D01*
X237196095Y-69188057D01*
X237196095Y-69283295D01*
X237148476Y-69426152D01*
X236577047Y-69997580D01*
X237196095Y-69997580D01*
X228652342Y-81078247D02*
X228699961Y-81125866D01*
X228747580Y-81268723D01*
X228747580Y-81363961D01*
X228699961Y-81506819D01*
X228604723Y-81602057D01*
X228509485Y-81649676D01*
X228319009Y-81697295D01*
X228176152Y-81697295D01*
X227985676Y-81649676D01*
X227890438Y-81602057D01*
X227795200Y-81506819D01*
X227747580Y-81363961D01*
X227747580Y-81268723D01*
X227795200Y-81125866D01*
X227842819Y-81078247D01*
X228080914Y-80221104D02*
X228747580Y-80221104D01*
X227699961Y-80459200D02*
X228414247Y-80697295D01*
X228414247Y-80078247D01*
X227747580Y-79506819D02*
X227747580Y-79411580D01*
X227795200Y-79316342D01*
X227842819Y-79268723D01*
X227938057Y-79221104D01*
X228128533Y-79173485D01*
X228366628Y-79173485D01*
X228557104Y-79221104D01*
X228652342Y-79268723D01*
X228699961Y-79316342D01*
X228747580Y-79411580D01*
X228747580Y-79506819D01*
X228699961Y-79602057D01*
X228652342Y-79649676D01*
X228557104Y-79697295D01*
X228366628Y-79744914D01*
X228128533Y-79744914D01*
X227938057Y-79697295D01*
X227842819Y-79649676D01*
X227795200Y-79602057D01*
X227747580Y-79506819D01*
X228747580Y-78221104D02*
X228747580Y-78792533D01*
X228747580Y-78506819D02*
X227747580Y-78506819D01*
X227890438Y-78602057D01*
X227985676Y-78697295D01*
X228033295Y-78792533D01*
X225780952Y-44382142D02*
X225733333Y-44429761D01*
X225590476Y-44477380D01*
X225495238Y-44477380D01*
X225352380Y-44429761D01*
X225257142Y-44334523D01*
X225209523Y-44239285D01*
X225161904Y-44048809D01*
X225161904Y-43905952D01*
X225209523Y-43715476D01*
X225257142Y-43620238D01*
X225352380Y-43525000D01*
X225495238Y-43477380D01*
X225590476Y-43477380D01*
X225733333Y-43525000D01*
X225780952Y-43572619D01*
X226685714Y-43477380D02*
X226209523Y-43477380D01*
X226161904Y-43953571D01*
X226209523Y-43905952D01*
X226304761Y-43858333D01*
X226542857Y-43858333D01*
X226638095Y-43905952D01*
X226685714Y-43953571D01*
X226733333Y-44048809D01*
X226733333Y-44286904D01*
X226685714Y-44382142D01*
X226638095Y-44429761D01*
X226542857Y-44477380D01*
X226304761Y-44477380D01*
X226209523Y-44429761D01*
X226161904Y-44382142D01*
X227352380Y-43477380D02*
X227447619Y-43477380D01*
X227542857Y-43525000D01*
X227590476Y-43572619D01*
X227638095Y-43667857D01*
X227685714Y-43858333D01*
X227685714Y-44096428D01*
X227638095Y-44286904D01*
X227590476Y-44382142D01*
X227542857Y-44429761D01*
X227447619Y-44477380D01*
X227352380Y-44477380D01*
X227257142Y-44429761D01*
X227209523Y-44382142D01*
X227161904Y-44286904D01*
X227114285Y-44096428D01*
X227114285Y-43858333D01*
X227161904Y-43667857D01*
X227209523Y-43572619D01*
X227257142Y-43525000D01*
X227352380Y-43477380D01*
X228638095Y-44477380D02*
X228066666Y-44477380D01*
X228352380Y-44477380D02*
X228352380Y-43477380D01*
X228257142Y-43620238D01*
X228161904Y-43715476D01*
X228066666Y-43763095D01*
X228955952Y-45882142D02*
X228908333Y-45929761D01*
X228765476Y-45977380D01*
X228670238Y-45977380D01*
X228527380Y-45929761D01*
X228432142Y-45834523D01*
X228384523Y-45739285D01*
X228336904Y-45548809D01*
X228336904Y-45405952D01*
X228384523Y-45215476D01*
X228432142Y-45120238D01*
X228527380Y-45025000D01*
X228670238Y-44977380D01*
X228765476Y-44977380D01*
X228908333Y-45025000D01*
X228955952Y-45072619D01*
X229860714Y-44977380D02*
X229384523Y-44977380D01*
X229336904Y-45453571D01*
X229384523Y-45405952D01*
X229479761Y-45358333D01*
X229717857Y-45358333D01*
X229813095Y-45405952D01*
X229860714Y-45453571D01*
X229908333Y-45548809D01*
X229908333Y-45786904D01*
X229860714Y-45882142D01*
X229813095Y-45929761D01*
X229717857Y-45977380D01*
X229479761Y-45977380D01*
X229384523Y-45929761D01*
X229336904Y-45882142D01*
X230527380Y-44977380D02*
X230622619Y-44977380D01*
X230717857Y-45025000D01*
X230765476Y-45072619D01*
X230813095Y-45167857D01*
X230860714Y-45358333D01*
X230860714Y-45596428D01*
X230813095Y-45786904D01*
X230765476Y-45882142D01*
X230717857Y-45929761D01*
X230622619Y-45977380D01*
X230527380Y-45977380D01*
X230432142Y-45929761D01*
X230384523Y-45882142D01*
X230336904Y-45786904D01*
X230289285Y-45596428D01*
X230289285Y-45358333D01*
X230336904Y-45167857D01*
X230384523Y-45072619D01*
X230432142Y-45025000D01*
X230527380Y-44977380D01*
X231241666Y-45072619D02*
X231289285Y-45025000D01*
X231384523Y-44977380D01*
X231622619Y-44977380D01*
X231717857Y-45025000D01*
X231765476Y-45072619D01*
X231813095Y-45167857D01*
X231813095Y-45263095D01*
X231765476Y-45405952D01*
X231194047Y-45977380D01*
X231813095Y-45977380D01*
X229512952Y-36983942D02*
X229465333Y-37031561D01*
X229322476Y-37079180D01*
X229227238Y-37079180D01*
X229084380Y-37031561D01*
X228989142Y-36936323D01*
X228941523Y-36841085D01*
X228893904Y-36650609D01*
X228893904Y-36507752D01*
X228941523Y-36317276D01*
X228989142Y-36222038D01*
X229084380Y-36126800D01*
X229227238Y-36079180D01*
X229322476Y-36079180D01*
X229465333Y-36126800D01*
X229512952Y-36174419D01*
X230417714Y-36079180D02*
X229941523Y-36079180D01*
X229893904Y-36555371D01*
X229941523Y-36507752D01*
X230036761Y-36460133D01*
X230274857Y-36460133D01*
X230370095Y-36507752D01*
X230417714Y-36555371D01*
X230465333Y-36650609D01*
X230465333Y-36888704D01*
X230417714Y-36983942D01*
X230370095Y-37031561D01*
X230274857Y-37079180D01*
X230036761Y-37079180D01*
X229941523Y-37031561D01*
X229893904Y-36983942D01*
X231084380Y-36079180D02*
X231179619Y-36079180D01*
X231274857Y-36126800D01*
X231322476Y-36174419D01*
X231370095Y-36269657D01*
X231417714Y-36460133D01*
X231417714Y-36698228D01*
X231370095Y-36888704D01*
X231322476Y-36983942D01*
X231274857Y-37031561D01*
X231179619Y-37079180D01*
X231084380Y-37079180D01*
X230989142Y-37031561D01*
X230941523Y-36983942D01*
X230893904Y-36888704D01*
X230846285Y-36698228D01*
X230846285Y-36460133D01*
X230893904Y-36269657D01*
X230941523Y-36174419D01*
X230989142Y-36126800D01*
X231084380Y-36079180D01*
X231751047Y-36079180D02*
X232370095Y-36079180D01*
X232036761Y-36460133D01*
X232179619Y-36460133D01*
X232274857Y-36507752D01*
X232322476Y-36555371D01*
X232370095Y-36650609D01*
X232370095Y-36888704D01*
X232322476Y-36983942D01*
X232274857Y-37031561D01*
X232179619Y-37079180D01*
X231893904Y-37079180D01*
X231798666Y-37031561D01*
X231751047Y-36983942D01*
X233272152Y-36933142D02*
X233224533Y-36980761D01*
X233081676Y-37028380D01*
X232986438Y-37028380D01*
X232843580Y-36980761D01*
X232748342Y-36885523D01*
X232700723Y-36790285D01*
X232653104Y-36599809D01*
X232653104Y-36456952D01*
X232700723Y-36266476D01*
X232748342Y-36171238D01*
X232843580Y-36076000D01*
X232986438Y-36028380D01*
X233081676Y-36028380D01*
X233224533Y-36076000D01*
X233272152Y-36123619D01*
X234176914Y-36028380D02*
X233700723Y-36028380D01*
X233653104Y-36504571D01*
X233700723Y-36456952D01*
X233795961Y-36409333D01*
X234034057Y-36409333D01*
X234129295Y-36456952D01*
X234176914Y-36504571D01*
X234224533Y-36599809D01*
X234224533Y-36837904D01*
X234176914Y-36933142D01*
X234129295Y-36980761D01*
X234034057Y-37028380D01*
X233795961Y-37028380D01*
X233700723Y-36980761D01*
X233653104Y-36933142D01*
X234843580Y-36028380D02*
X234938819Y-36028380D01*
X235034057Y-36076000D01*
X235081676Y-36123619D01*
X235129295Y-36218857D01*
X235176914Y-36409333D01*
X235176914Y-36647428D01*
X235129295Y-36837904D01*
X235081676Y-36933142D01*
X235034057Y-36980761D01*
X234938819Y-37028380D01*
X234843580Y-37028380D01*
X234748342Y-36980761D01*
X234700723Y-36933142D01*
X234653104Y-36837904D01*
X234605485Y-36647428D01*
X234605485Y-36409333D01*
X234653104Y-36218857D01*
X234700723Y-36123619D01*
X234748342Y-36076000D01*
X234843580Y-36028380D01*
X236034057Y-36361714D02*
X236034057Y-37028380D01*
X235795961Y-35980761D02*
X235557866Y-36695047D01*
X236176914Y-36695047D01*
X240892152Y-36882342D02*
X240844533Y-36929961D01*
X240701676Y-36977580D01*
X240606438Y-36977580D01*
X240463580Y-36929961D01*
X240368342Y-36834723D01*
X240320723Y-36739485D01*
X240273104Y-36549009D01*
X240273104Y-36406152D01*
X240320723Y-36215676D01*
X240368342Y-36120438D01*
X240463580Y-36025200D01*
X240606438Y-35977580D01*
X240701676Y-35977580D01*
X240844533Y-36025200D01*
X240892152Y-36072819D01*
X241796914Y-35977580D02*
X241320723Y-35977580D01*
X241273104Y-36453771D01*
X241320723Y-36406152D01*
X241415961Y-36358533D01*
X241654057Y-36358533D01*
X241749295Y-36406152D01*
X241796914Y-36453771D01*
X241844533Y-36549009D01*
X241844533Y-36787104D01*
X241796914Y-36882342D01*
X241749295Y-36929961D01*
X241654057Y-36977580D01*
X241415961Y-36977580D01*
X241320723Y-36929961D01*
X241273104Y-36882342D01*
X242463580Y-35977580D02*
X242558819Y-35977580D01*
X242654057Y-36025200D01*
X242701676Y-36072819D01*
X242749295Y-36168057D01*
X242796914Y-36358533D01*
X242796914Y-36596628D01*
X242749295Y-36787104D01*
X242701676Y-36882342D01*
X242654057Y-36929961D01*
X242558819Y-36977580D01*
X242463580Y-36977580D01*
X242368342Y-36929961D01*
X242320723Y-36882342D01*
X242273104Y-36787104D01*
X242225485Y-36596628D01*
X242225485Y-36358533D01*
X242273104Y-36168057D01*
X242320723Y-36072819D01*
X242368342Y-36025200D01*
X242463580Y-35977580D01*
X243701676Y-35977580D02*
X243225485Y-35977580D01*
X243177866Y-36453771D01*
X243225485Y-36406152D01*
X243320723Y-36358533D01*
X243558819Y-36358533D01*
X243654057Y-36406152D01*
X243701676Y-36453771D01*
X243749295Y-36549009D01*
X243749295Y-36787104D01*
X243701676Y-36882342D01*
X243654057Y-36929961D01*
X243558819Y-36977580D01*
X243320723Y-36977580D01*
X243225485Y-36929961D01*
X243177866Y-36882342D01*
X244907142Y-48619047D02*
X244954761Y-48666666D01*
X245002380Y-48809523D01*
X245002380Y-48904761D01*
X244954761Y-49047619D01*
X244859523Y-49142857D01*
X244764285Y-49190476D01*
X244573809Y-49238095D01*
X244430952Y-49238095D01*
X244240476Y-49190476D01*
X244145238Y-49142857D01*
X244050000Y-49047619D01*
X244002380Y-48904761D01*
X244002380Y-48809523D01*
X244050000Y-48666666D01*
X244097619Y-48619047D01*
X244002380Y-47714285D02*
X244002380Y-48190476D01*
X244478571Y-48238095D01*
X244430952Y-48190476D01*
X244383333Y-48095238D01*
X244383333Y-47857142D01*
X244430952Y-47761904D01*
X244478571Y-47714285D01*
X244573809Y-47666666D01*
X244811904Y-47666666D01*
X244907142Y-47714285D01*
X244954761Y-47761904D01*
X245002380Y-47857142D01*
X245002380Y-48095238D01*
X244954761Y-48190476D01*
X244907142Y-48238095D01*
X244002380Y-47047619D02*
X244002380Y-46952380D01*
X244050000Y-46857142D01*
X244097619Y-46809523D01*
X244192857Y-46761904D01*
X244383333Y-46714285D01*
X244621428Y-46714285D01*
X244811904Y-46761904D01*
X244907142Y-46809523D01*
X244954761Y-46857142D01*
X245002380Y-46952380D01*
X245002380Y-47047619D01*
X244954761Y-47142857D01*
X244907142Y-47190476D01*
X244811904Y-47238095D01*
X244621428Y-47285714D01*
X244383333Y-47285714D01*
X244192857Y-47238095D01*
X244097619Y-47190476D01*
X244050000Y-47142857D01*
X244002380Y-47047619D01*
X244002380Y-45857142D02*
X244002380Y-46047619D01*
X244050000Y-46142857D01*
X244097619Y-46190476D01*
X244240476Y-46285714D01*
X244430952Y-46333333D01*
X244811904Y-46333333D01*
X244907142Y-46285714D01*
X244954761Y-46238095D01*
X245002380Y-46142857D01*
X245002380Y-45952380D01*
X244954761Y-45857142D01*
X244907142Y-45809523D01*
X244811904Y-45761904D01*
X244573809Y-45761904D01*
X244478571Y-45809523D01*
X244430952Y-45857142D01*
X244383333Y-45952380D01*
X244383333Y-46142857D01*
X244430952Y-46238095D01*
X244478571Y-46285714D01*
X244573809Y-46333333D01*
X246482142Y-48644047D02*
X246529761Y-48691666D01*
X246577380Y-48834523D01*
X246577380Y-48929761D01*
X246529761Y-49072619D01*
X246434523Y-49167857D01*
X246339285Y-49215476D01*
X246148809Y-49263095D01*
X246005952Y-49263095D01*
X245815476Y-49215476D01*
X245720238Y-49167857D01*
X245625000Y-49072619D01*
X245577380Y-48929761D01*
X245577380Y-48834523D01*
X245625000Y-48691666D01*
X245672619Y-48644047D01*
X245577380Y-47739285D02*
X245577380Y-48215476D01*
X246053571Y-48263095D01*
X246005952Y-48215476D01*
X245958333Y-48120238D01*
X245958333Y-47882142D01*
X246005952Y-47786904D01*
X246053571Y-47739285D01*
X246148809Y-47691666D01*
X246386904Y-47691666D01*
X246482142Y-47739285D01*
X246529761Y-47786904D01*
X246577380Y-47882142D01*
X246577380Y-48120238D01*
X246529761Y-48215476D01*
X246482142Y-48263095D01*
X245577380Y-47072619D02*
X245577380Y-46977380D01*
X245625000Y-46882142D01*
X245672619Y-46834523D01*
X245767857Y-46786904D01*
X245958333Y-46739285D01*
X246196428Y-46739285D01*
X246386904Y-46786904D01*
X246482142Y-46834523D01*
X246529761Y-46882142D01*
X246577380Y-46977380D01*
X246577380Y-47072619D01*
X246529761Y-47167857D01*
X246482142Y-47215476D01*
X246386904Y-47263095D01*
X246196428Y-47310714D01*
X245958333Y-47310714D01*
X245767857Y-47263095D01*
X245672619Y-47215476D01*
X245625000Y-47167857D01*
X245577380Y-47072619D01*
X245577380Y-46405952D02*
X245577380Y-45739285D01*
X246577380Y-46167857D01*
X248382142Y-41519047D02*
X248429761Y-41566666D01*
X248477380Y-41709523D01*
X248477380Y-41804761D01*
X248429761Y-41947619D01*
X248334523Y-42042857D01*
X248239285Y-42090476D01*
X248048809Y-42138095D01*
X247905952Y-42138095D01*
X247715476Y-42090476D01*
X247620238Y-42042857D01*
X247525000Y-41947619D01*
X247477380Y-41804761D01*
X247477380Y-41709523D01*
X247525000Y-41566666D01*
X247572619Y-41519047D01*
X247477380Y-40614285D02*
X247477380Y-41090476D01*
X247953571Y-41138095D01*
X247905952Y-41090476D01*
X247858333Y-40995238D01*
X247858333Y-40757142D01*
X247905952Y-40661904D01*
X247953571Y-40614285D01*
X248048809Y-40566666D01*
X248286904Y-40566666D01*
X248382142Y-40614285D01*
X248429761Y-40661904D01*
X248477380Y-40757142D01*
X248477380Y-40995238D01*
X248429761Y-41090476D01*
X248382142Y-41138095D01*
X247477380Y-39947619D02*
X247477380Y-39852380D01*
X247525000Y-39757142D01*
X247572619Y-39709523D01*
X247667857Y-39661904D01*
X247858333Y-39614285D01*
X248096428Y-39614285D01*
X248286904Y-39661904D01*
X248382142Y-39709523D01*
X248429761Y-39757142D01*
X248477380Y-39852380D01*
X248477380Y-39947619D01*
X248429761Y-40042857D01*
X248382142Y-40090476D01*
X248286904Y-40138095D01*
X248096428Y-40185714D01*
X247858333Y-40185714D01*
X247667857Y-40138095D01*
X247572619Y-40090476D01*
X247525000Y-40042857D01*
X247477380Y-39947619D01*
X247905952Y-39042857D02*
X247858333Y-39138095D01*
X247810714Y-39185714D01*
X247715476Y-39233333D01*
X247667857Y-39233333D01*
X247572619Y-39185714D01*
X247525000Y-39138095D01*
X247477380Y-39042857D01*
X247477380Y-38852380D01*
X247525000Y-38757142D01*
X247572619Y-38709523D01*
X247667857Y-38661904D01*
X247715476Y-38661904D01*
X247810714Y-38709523D01*
X247858333Y-38757142D01*
X247905952Y-38852380D01*
X247905952Y-39042857D01*
X247953571Y-39138095D01*
X248001190Y-39185714D01*
X248096428Y-39233333D01*
X248286904Y-39233333D01*
X248382142Y-39185714D01*
X248429761Y-39138095D01*
X248477380Y-39042857D01*
X248477380Y-38852380D01*
X248429761Y-38757142D01*
X248382142Y-38709523D01*
X248286904Y-38661904D01*
X248096428Y-38661904D01*
X248001190Y-38709523D01*
X247953571Y-38757142D01*
X247905952Y-38852380D01*
X240907142Y-59219047D02*
X240954761Y-59266666D01*
X241002380Y-59409523D01*
X241002380Y-59504761D01*
X240954761Y-59647619D01*
X240859523Y-59742857D01*
X240764285Y-59790476D01*
X240573809Y-59838095D01*
X240430952Y-59838095D01*
X240240476Y-59790476D01*
X240145238Y-59742857D01*
X240050000Y-59647619D01*
X240002380Y-59504761D01*
X240002380Y-59409523D01*
X240050000Y-59266666D01*
X240097619Y-59219047D01*
X240002380Y-58361904D02*
X240002380Y-58552380D01*
X240050000Y-58647619D01*
X240097619Y-58695238D01*
X240240476Y-58790476D01*
X240430952Y-58838095D01*
X240811904Y-58838095D01*
X240907142Y-58790476D01*
X240954761Y-58742857D01*
X241002380Y-58647619D01*
X241002380Y-58457142D01*
X240954761Y-58361904D01*
X240907142Y-58314285D01*
X240811904Y-58266666D01*
X240573809Y-58266666D01*
X240478571Y-58314285D01*
X240430952Y-58361904D01*
X240383333Y-58457142D01*
X240383333Y-58647619D01*
X240430952Y-58742857D01*
X240478571Y-58790476D01*
X240573809Y-58838095D01*
X240002380Y-57647619D02*
X240002380Y-57552380D01*
X240050000Y-57457142D01*
X240097619Y-57409523D01*
X240192857Y-57361904D01*
X240383333Y-57314285D01*
X240621428Y-57314285D01*
X240811904Y-57361904D01*
X240907142Y-57409523D01*
X240954761Y-57457142D01*
X241002380Y-57552380D01*
X241002380Y-57647619D01*
X240954761Y-57742857D01*
X240907142Y-57790476D01*
X240811904Y-57838095D01*
X240621428Y-57885714D01*
X240383333Y-57885714D01*
X240192857Y-57838095D01*
X240097619Y-57790476D01*
X240050000Y-57742857D01*
X240002380Y-57647619D01*
X240335714Y-56457142D02*
X241002380Y-56457142D01*
X239954761Y-56695238D02*
X240669047Y-56933333D01*
X240669047Y-56314285D01*
X238288723Y-85897980D02*
X238288723Y-84897980D01*
X238526819Y-84897980D01*
X238669676Y-84945600D01*
X238764914Y-85040838D01*
X238812533Y-85136076D01*
X238860152Y-85326552D01*
X238860152Y-85469409D01*
X238812533Y-85659885D01*
X238764914Y-85755123D01*
X238669676Y-85850361D01*
X238526819Y-85897980D01*
X238288723Y-85897980D01*
X239812533Y-85897980D02*
X239241104Y-85897980D01*
X239526819Y-85897980D02*
X239526819Y-84897980D01*
X239431580Y-85040838D01*
X239336342Y-85136076D01*
X239241104Y-85183695D01*
X240431580Y-84897980D02*
X240526819Y-84897980D01*
X240622057Y-84945600D01*
X240669676Y-84993219D01*
X240717295Y-85088457D01*
X240764914Y-85278933D01*
X240764914Y-85517028D01*
X240717295Y-85707504D01*
X240669676Y-85802742D01*
X240622057Y-85850361D01*
X240526819Y-85897980D01*
X240431580Y-85897980D01*
X240336342Y-85850361D01*
X240288723Y-85802742D01*
X240241104Y-85707504D01*
X240193485Y-85517028D01*
X240193485Y-85278933D01*
X240241104Y-85088457D01*
X240288723Y-84993219D01*
X240336342Y-84945600D01*
X240431580Y-84897980D01*
X241717295Y-85897980D02*
X241145866Y-85897980D01*
X241431580Y-85897980D02*
X241431580Y-84897980D01*
X241336342Y-85040838D01*
X241241104Y-85136076D01*
X241145866Y-85183695D01*
X229075040Y-77149439D02*
X229333859Y-76183513D01*
X229563841Y-76245136D01*
X229689506Y-76328107D01*
X229756850Y-76444749D01*
X229778197Y-76549067D01*
X229774894Y-76745377D01*
X229737920Y-76883367D01*
X229642625Y-77055028D01*
X229571979Y-77134696D01*
X229455337Y-77202040D01*
X229305022Y-77211062D01*
X229075040Y-77149439D01*
X230546927Y-77543829D02*
X229994969Y-77395933D01*
X230270948Y-77469881D02*
X230529767Y-76503955D01*
X230400800Y-76617295D01*
X230284158Y-76684639D01*
X230179840Y-76705986D01*
X231403700Y-76738125D02*
X231495693Y-76762774D01*
X231575361Y-76833420D01*
X231609033Y-76891741D01*
X231630380Y-76996059D01*
X231627078Y-77192370D01*
X231565454Y-77422352D01*
X231470159Y-77594013D01*
X231399513Y-77673681D01*
X231341192Y-77707353D01*
X231236874Y-77728700D01*
X231144881Y-77704051D01*
X231065213Y-77633405D01*
X231031541Y-77575084D01*
X231010194Y-77470766D01*
X231013497Y-77274455D01*
X231075120Y-77044473D01*
X231170415Y-76872812D01*
X231241061Y-76793144D01*
X231299383Y-76759472D01*
X231403700Y-76738125D01*
X232068998Y-77014989D02*
X232127319Y-76981317D01*
X232231637Y-76959970D01*
X232461619Y-77021593D01*
X232541287Y-77092239D01*
X232574959Y-77150560D01*
X232596306Y-77254878D01*
X232571657Y-77346871D01*
X232488686Y-77472536D01*
X231788832Y-77876597D01*
X232386786Y-78036818D01*
X229600506Y-92659210D02*
X230566431Y-92400391D01*
X230628055Y-92630373D01*
X230619033Y-92780687D01*
X230551689Y-92897329D01*
X230472021Y-92967975D01*
X230300360Y-93063271D01*
X230162370Y-93100245D01*
X229966060Y-93103547D01*
X229861742Y-93082200D01*
X229745100Y-93014857D01*
X229662129Y-92889192D01*
X229600506Y-92659210D01*
X229994897Y-94131097D02*
X229847000Y-93579139D01*
X229920948Y-93855118D02*
X230886874Y-93596299D01*
X230724235Y-93541280D01*
X230607593Y-93473937D01*
X230536947Y-93394268D01*
X231121044Y-94470232D02*
X231145693Y-94562225D01*
X231124346Y-94666542D01*
X231090674Y-94724863D01*
X231011006Y-94795509D01*
X230839345Y-94890805D01*
X230609363Y-94952428D01*
X230413052Y-94955731D01*
X230308734Y-94934384D01*
X230250413Y-94900712D01*
X230179767Y-94821044D01*
X230155118Y-94729051D01*
X230176465Y-94624733D01*
X230210137Y-94566412D01*
X230289805Y-94495766D01*
X230461466Y-94400471D01*
X230691448Y-94338847D01*
X230887759Y-94335545D01*
X230992077Y-94356892D01*
X231050398Y-94390563D01*
X231121044Y-94470232D01*
X231293590Y-95114182D02*
X231453811Y-95712136D01*
X230999566Y-95488759D01*
X231036540Y-95626748D01*
X231015193Y-95731066D01*
X230981522Y-95789387D01*
X230901853Y-95860033D01*
X230671871Y-95921657D01*
X230567553Y-95900309D01*
X230509232Y-95866638D01*
X230438586Y-95786970D01*
X230364638Y-95510991D01*
X230385985Y-95406673D01*
X230419657Y-95348352D01*
X242202380Y-59540476D02*
X241202380Y-59540476D01*
X241202380Y-59302380D01*
X241250000Y-59159523D01*
X241345238Y-59064285D01*
X241440476Y-59016666D01*
X241630952Y-58969047D01*
X241773809Y-58969047D01*
X241964285Y-59016666D01*
X242059523Y-59064285D01*
X242154761Y-59159523D01*
X242202380Y-59302380D01*
X242202380Y-59540476D01*
X242202380Y-58016666D02*
X242202380Y-58588095D01*
X242202380Y-58302380D02*
X241202380Y-58302380D01*
X241345238Y-58397619D01*
X241440476Y-58492857D01*
X241488095Y-58588095D01*
X241202380Y-57397619D02*
X241202380Y-57302380D01*
X241250000Y-57207142D01*
X241297619Y-57159523D01*
X241392857Y-57111904D01*
X241583333Y-57064285D01*
X241821428Y-57064285D01*
X242011904Y-57111904D01*
X242107142Y-57159523D01*
X242154761Y-57207142D01*
X242202380Y-57302380D01*
X242202380Y-57397619D01*
X242154761Y-57492857D01*
X242107142Y-57540476D01*
X242011904Y-57588095D01*
X241821428Y-57635714D01*
X241583333Y-57635714D01*
X241392857Y-57588095D01*
X241297619Y-57540476D01*
X241250000Y-57492857D01*
X241202380Y-57397619D01*
X241535714Y-56207142D02*
X242202380Y-56207142D01*
X241154761Y-56445238D02*
X241869047Y-56683333D01*
X241869047Y-56064285D01*
X246852523Y-95910380D02*
X246852523Y-94910380D01*
X247090619Y-94910380D01*
X247233476Y-94958000D01*
X247328714Y-95053238D01*
X247376333Y-95148476D01*
X247423952Y-95338952D01*
X247423952Y-95481809D01*
X247376333Y-95672285D01*
X247328714Y-95767523D01*
X247233476Y-95862761D01*
X247090619Y-95910380D01*
X246852523Y-95910380D01*
X248376333Y-95910380D02*
X247804904Y-95910380D01*
X248090619Y-95910380D02*
X248090619Y-94910380D01*
X247995380Y-95053238D01*
X247900142Y-95148476D01*
X247804904Y-95196095D01*
X248995380Y-94910380D02*
X249090619Y-94910380D01*
X249185857Y-94958000D01*
X249233476Y-95005619D01*
X249281095Y-95100857D01*
X249328714Y-95291333D01*
X249328714Y-95529428D01*
X249281095Y-95719904D01*
X249233476Y-95815142D01*
X249185857Y-95862761D01*
X249090619Y-95910380D01*
X248995380Y-95910380D01*
X248900142Y-95862761D01*
X248852523Y-95815142D01*
X248804904Y-95719904D01*
X248757285Y-95529428D01*
X248757285Y-95291333D01*
X248804904Y-95100857D01*
X248852523Y-95005619D01*
X248900142Y-94958000D01*
X248995380Y-94910380D01*
X250233476Y-94910380D02*
X249757285Y-94910380D01*
X249709666Y-95386571D01*
X249757285Y-95338952D01*
X249852523Y-95291333D01*
X250090619Y-95291333D01*
X250185857Y-95338952D01*
X250233476Y-95386571D01*
X250281095Y-95481809D01*
X250281095Y-95719904D01*
X250233476Y-95815142D01*
X250185857Y-95862761D01*
X250090619Y-95910380D01*
X249852523Y-95910380D01*
X249757285Y-95862761D01*
X249709666Y-95815142D01*
X246877523Y-90407380D02*
X246877523Y-89407380D01*
X247115619Y-89407380D01*
X247258476Y-89455000D01*
X247353714Y-89550238D01*
X247401333Y-89645476D01*
X247448952Y-89835952D01*
X247448952Y-89978809D01*
X247401333Y-90169285D01*
X247353714Y-90264523D01*
X247258476Y-90359761D01*
X247115619Y-90407380D01*
X246877523Y-90407380D01*
X248401333Y-90407380D02*
X247829904Y-90407380D01*
X248115619Y-90407380D02*
X248115619Y-89407380D01*
X248020380Y-89550238D01*
X247925142Y-89645476D01*
X247829904Y-89693095D01*
X249020380Y-89407380D02*
X249115619Y-89407380D01*
X249210857Y-89455000D01*
X249258476Y-89502619D01*
X249306095Y-89597857D01*
X249353714Y-89788333D01*
X249353714Y-90026428D01*
X249306095Y-90216904D01*
X249258476Y-90312142D01*
X249210857Y-90359761D01*
X249115619Y-90407380D01*
X249020380Y-90407380D01*
X248925142Y-90359761D01*
X248877523Y-90312142D01*
X248829904Y-90216904D01*
X248782285Y-90026428D01*
X248782285Y-89788333D01*
X248829904Y-89597857D01*
X248877523Y-89502619D01*
X248925142Y-89455000D01*
X249020380Y-89407380D01*
X250210857Y-89407380D02*
X250020380Y-89407380D01*
X249925142Y-89455000D01*
X249877523Y-89502619D01*
X249782285Y-89645476D01*
X249734666Y-89835952D01*
X249734666Y-90216904D01*
X249782285Y-90312142D01*
X249829904Y-90359761D01*
X249925142Y-90407380D01*
X250115619Y-90407380D01*
X250210857Y-90359761D01*
X250258476Y-90312142D01*
X250306095Y-90216904D01*
X250306095Y-89978809D01*
X250258476Y-89883571D01*
X250210857Y-89835952D01*
X250115619Y-89788333D01*
X249925142Y-89788333D01*
X249829904Y-89835952D01*
X249782285Y-89883571D01*
X249734666Y-89978809D01*
X246852523Y-93131380D02*
X246852523Y-92131380D01*
X247090619Y-92131380D01*
X247233476Y-92179000D01*
X247328714Y-92274238D01*
X247376333Y-92369476D01*
X247423952Y-92559952D01*
X247423952Y-92702809D01*
X247376333Y-92893285D01*
X247328714Y-92988523D01*
X247233476Y-93083761D01*
X247090619Y-93131380D01*
X246852523Y-93131380D01*
X248376333Y-93131380D02*
X247804904Y-93131380D01*
X248090619Y-93131380D02*
X248090619Y-92131380D01*
X247995380Y-92274238D01*
X247900142Y-92369476D01*
X247804904Y-92417095D01*
X248995380Y-92131380D02*
X249090619Y-92131380D01*
X249185857Y-92179000D01*
X249233476Y-92226619D01*
X249281095Y-92321857D01*
X249328714Y-92512333D01*
X249328714Y-92750428D01*
X249281095Y-92940904D01*
X249233476Y-93036142D01*
X249185857Y-93083761D01*
X249090619Y-93131380D01*
X248995380Y-93131380D01*
X248900142Y-93083761D01*
X248852523Y-93036142D01*
X248804904Y-92940904D01*
X248757285Y-92750428D01*
X248757285Y-92512333D01*
X248804904Y-92321857D01*
X248852523Y-92226619D01*
X248900142Y-92179000D01*
X248995380Y-92131380D01*
X249662047Y-92131380D02*
X250328714Y-92131380D01*
X249900142Y-93131380D01*
X244439285Y-35828571D02*
X244105952Y-35828571D01*
X244105952Y-36352380D02*
X244105952Y-35352380D01*
X244582142Y-35352380D01*
X245296428Y-35828571D02*
X245439285Y-35876190D01*
X245486904Y-35923809D01*
X245534523Y-36019047D01*
X245534523Y-36161904D01*
X245486904Y-36257142D01*
X245439285Y-36304761D01*
X245344047Y-36352380D01*
X244963095Y-36352380D01*
X244963095Y-35352380D01*
X245296428Y-35352380D01*
X245391666Y-35400000D01*
X245439285Y-35447619D01*
X245486904Y-35542857D01*
X245486904Y-35638095D01*
X245439285Y-35733333D01*
X245391666Y-35780952D01*
X245296428Y-35828571D01*
X244963095Y-35828571D01*
X246439285Y-35352380D02*
X245963095Y-35352380D01*
X245915476Y-35828571D01*
X245963095Y-35780952D01*
X246058333Y-35733333D01*
X246296428Y-35733333D01*
X246391666Y-35780952D01*
X246439285Y-35828571D01*
X246486904Y-35923809D01*
X246486904Y-36161904D01*
X246439285Y-36257142D01*
X246391666Y-36304761D01*
X246296428Y-36352380D01*
X246058333Y-36352380D01*
X245963095Y-36304761D01*
X245915476Y-36257142D01*
X247105952Y-35352380D02*
X247201190Y-35352380D01*
X247296428Y-35400000D01*
X247344047Y-35447619D01*
X247391666Y-35542857D01*
X247439285Y-35733333D01*
X247439285Y-35971428D01*
X247391666Y-36161904D01*
X247344047Y-36257142D01*
X247296428Y-36304761D01*
X247201190Y-36352380D01*
X247105952Y-36352380D01*
X247010714Y-36304761D01*
X246963095Y-36257142D01*
X246915476Y-36161904D01*
X246867857Y-35971428D01*
X246867857Y-35733333D01*
X246915476Y-35542857D01*
X246963095Y-35447619D01*
X247010714Y-35400000D01*
X247105952Y-35352380D01*
X247820238Y-35447619D02*
X247867857Y-35400000D01*
X247963095Y-35352380D01*
X248201190Y-35352380D01*
X248296428Y-35400000D01*
X248344047Y-35447619D01*
X248391666Y-35542857D01*
X248391666Y-35638095D01*
X248344047Y-35780952D01*
X247772619Y-36352380D01*
X248391666Y-36352380D01*
X254874780Y-91557314D02*
X255589066Y-91557314D01*
X255731923Y-91604933D01*
X255827161Y-91700171D01*
X255874780Y-91843028D01*
X255874780Y-91938266D01*
X255874780Y-90557314D02*
X255874780Y-91128742D01*
X255874780Y-90843028D02*
X254874780Y-90843028D01*
X255017638Y-90938266D01*
X255112876Y-91033504D01*
X255160495Y-91128742D01*
X254874780Y-89938266D02*
X254874780Y-89843028D01*
X254922400Y-89747790D01*
X254970019Y-89700171D01*
X255065257Y-89652552D01*
X255255733Y-89604933D01*
X255493828Y-89604933D01*
X255684304Y-89652552D01*
X255779542Y-89700171D01*
X255827161Y-89747790D01*
X255874780Y-89843028D01*
X255874780Y-89938266D01*
X255827161Y-90033504D01*
X255779542Y-90081123D01*
X255684304Y-90128742D01*
X255493828Y-90176361D01*
X255255733Y-90176361D01*
X255065257Y-90128742D01*
X254970019Y-90081123D01*
X254922400Y-90033504D01*
X254874780Y-89938266D01*
X254874780Y-89271600D02*
X254874780Y-88652552D01*
X255255733Y-88985885D01*
X255255733Y-88843028D01*
X255303352Y-88747790D01*
X255350971Y-88700171D01*
X255446209Y-88652552D01*
X255684304Y-88652552D01*
X255779542Y-88700171D01*
X255827161Y-88747790D01*
X255874780Y-88843028D01*
X255874780Y-89128742D01*
X255827161Y-89223980D01*
X255779542Y-89271600D01*
X227734952Y-67203580D02*
X227401619Y-66727390D01*
X227163523Y-67203580D02*
X227163523Y-66203580D01*
X227544476Y-66203580D01*
X227639714Y-66251200D01*
X227687333Y-66298819D01*
X227734952Y-66394057D01*
X227734952Y-66536914D01*
X227687333Y-66632152D01*
X227639714Y-66679771D01*
X227544476Y-66727390D01*
X227163523Y-66727390D01*
X228115904Y-66298819D02*
X228163523Y-66251200D01*
X228258761Y-66203580D01*
X228496857Y-66203580D01*
X228592095Y-66251200D01*
X228639714Y-66298819D01*
X228687333Y-66394057D01*
X228687333Y-66489295D01*
X228639714Y-66632152D01*
X228068285Y-67203580D01*
X228687333Y-67203580D01*
X229306380Y-66203580D02*
X229401619Y-66203580D01*
X229496857Y-66251200D01*
X229544476Y-66298819D01*
X229592095Y-66394057D01*
X229639714Y-66584533D01*
X229639714Y-66822628D01*
X229592095Y-67013104D01*
X229544476Y-67108342D01*
X229496857Y-67155961D01*
X229401619Y-67203580D01*
X229306380Y-67203580D01*
X229211142Y-67155961D01*
X229163523Y-67108342D01*
X229115904Y-67013104D01*
X229068285Y-66822628D01*
X229068285Y-66584533D01*
X229115904Y-66394057D01*
X229163523Y-66298819D01*
X229211142Y-66251200D01*
X229306380Y-66203580D01*
X230592095Y-67203580D02*
X230020666Y-67203580D01*
X230306380Y-67203580D02*
X230306380Y-66203580D01*
X230211142Y-66346438D01*
X230115904Y-66441676D01*
X230020666Y-66489295D01*
X226972952Y-69997580D02*
X226639619Y-69521390D01*
X226401523Y-69997580D02*
X226401523Y-68997580D01*
X226782476Y-68997580D01*
X226877714Y-69045200D01*
X226925333Y-69092819D01*
X226972952Y-69188057D01*
X226972952Y-69330914D01*
X226925333Y-69426152D01*
X226877714Y-69473771D01*
X226782476Y-69521390D01*
X226401523Y-69521390D01*
X227353904Y-69092819D02*
X227401523Y-69045200D01*
X227496761Y-68997580D01*
X227734857Y-68997580D01*
X227830095Y-69045200D01*
X227877714Y-69092819D01*
X227925333Y-69188057D01*
X227925333Y-69283295D01*
X227877714Y-69426152D01*
X227306285Y-69997580D01*
X227925333Y-69997580D01*
X228544380Y-68997580D02*
X228639619Y-68997580D01*
X228734857Y-69045200D01*
X228782476Y-69092819D01*
X228830095Y-69188057D01*
X228877714Y-69378533D01*
X228877714Y-69616628D01*
X228830095Y-69807104D01*
X228782476Y-69902342D01*
X228734857Y-69949961D01*
X228639619Y-69997580D01*
X228544380Y-69997580D01*
X228449142Y-69949961D01*
X228401523Y-69902342D01*
X228353904Y-69807104D01*
X228306285Y-69616628D01*
X228306285Y-69378533D01*
X228353904Y-69188057D01*
X228401523Y-69092819D01*
X228449142Y-69045200D01*
X228544380Y-68997580D01*
X229258666Y-69092819D02*
X229306285Y-69045200D01*
X229401523Y-68997580D01*
X229639619Y-68997580D01*
X229734857Y-69045200D01*
X229782476Y-69092819D01*
X229830095Y-69188057D01*
X229830095Y-69283295D01*
X229782476Y-69426152D01*
X229211047Y-69997580D01*
X229830095Y-69997580D01*
X219606952Y-70048380D02*
X219273619Y-69572190D01*
X219035523Y-70048380D02*
X219035523Y-69048380D01*
X219416476Y-69048380D01*
X219511714Y-69096000D01*
X219559333Y-69143619D01*
X219606952Y-69238857D01*
X219606952Y-69381714D01*
X219559333Y-69476952D01*
X219511714Y-69524571D01*
X219416476Y-69572190D01*
X219035523Y-69572190D01*
X219987904Y-69143619D02*
X220035523Y-69096000D01*
X220130761Y-69048380D01*
X220368857Y-69048380D01*
X220464095Y-69096000D01*
X220511714Y-69143619D01*
X220559333Y-69238857D01*
X220559333Y-69334095D01*
X220511714Y-69476952D01*
X219940285Y-70048380D01*
X220559333Y-70048380D01*
X221178380Y-69048380D02*
X221273619Y-69048380D01*
X221368857Y-69096000D01*
X221416476Y-69143619D01*
X221464095Y-69238857D01*
X221511714Y-69429333D01*
X221511714Y-69667428D01*
X221464095Y-69857904D01*
X221416476Y-69953142D01*
X221368857Y-70000761D01*
X221273619Y-70048380D01*
X221178380Y-70048380D01*
X221083142Y-70000761D01*
X221035523Y-69953142D01*
X220987904Y-69857904D01*
X220940285Y-69667428D01*
X220940285Y-69429333D01*
X220987904Y-69238857D01*
X221035523Y-69143619D01*
X221083142Y-69096000D01*
X221178380Y-69048380D01*
X221845047Y-69048380D02*
X222464095Y-69048380D01*
X222130761Y-69429333D01*
X222273619Y-69429333D01*
X222368857Y-69476952D01*
X222416476Y-69524571D01*
X222464095Y-69619809D01*
X222464095Y-69857904D01*
X222416476Y-69953142D01*
X222368857Y-70000761D01*
X222273619Y-70048380D01*
X221987904Y-70048380D01*
X221892666Y-70000761D01*
X221845047Y-69953142D01*
X222654952Y-67254380D02*
X222321619Y-66778190D01*
X222083523Y-67254380D02*
X222083523Y-66254380D01*
X222464476Y-66254380D01*
X222559714Y-66302000D01*
X222607333Y-66349619D01*
X222654952Y-66444857D01*
X222654952Y-66587714D01*
X222607333Y-66682952D01*
X222559714Y-66730571D01*
X222464476Y-66778190D01*
X222083523Y-66778190D01*
X223035904Y-66349619D02*
X223083523Y-66302000D01*
X223178761Y-66254380D01*
X223416857Y-66254380D01*
X223512095Y-66302000D01*
X223559714Y-66349619D01*
X223607333Y-66444857D01*
X223607333Y-66540095D01*
X223559714Y-66682952D01*
X222988285Y-67254380D01*
X223607333Y-67254380D01*
X224226380Y-66254380D02*
X224321619Y-66254380D01*
X224416857Y-66302000D01*
X224464476Y-66349619D01*
X224512095Y-66444857D01*
X224559714Y-66635333D01*
X224559714Y-66873428D01*
X224512095Y-67063904D01*
X224464476Y-67159142D01*
X224416857Y-67206761D01*
X224321619Y-67254380D01*
X224226380Y-67254380D01*
X224131142Y-67206761D01*
X224083523Y-67159142D01*
X224035904Y-67063904D01*
X223988285Y-66873428D01*
X223988285Y-66635333D01*
X224035904Y-66444857D01*
X224083523Y-66349619D01*
X224131142Y-66302000D01*
X224226380Y-66254380D01*
X225416857Y-66587714D02*
X225416857Y-67254380D01*
X225178761Y-66206761D02*
X224940666Y-66921047D01*
X225559714Y-66921047D01*
X230630552Y-69997580D02*
X230297219Y-69521390D01*
X230059123Y-69997580D02*
X230059123Y-68997580D01*
X230440076Y-68997580D01*
X230535314Y-69045200D01*
X230582933Y-69092819D01*
X230630552Y-69188057D01*
X230630552Y-69330914D01*
X230582933Y-69426152D01*
X230535314Y-69473771D01*
X230440076Y-69521390D01*
X230059123Y-69521390D01*
X231011504Y-69092819D02*
X231059123Y-69045200D01*
X231154361Y-68997580D01*
X231392457Y-68997580D01*
X231487695Y-69045200D01*
X231535314Y-69092819D01*
X231582933Y-69188057D01*
X231582933Y-69283295D01*
X231535314Y-69426152D01*
X230963885Y-69997580D01*
X231582933Y-69997580D01*
X232201980Y-68997580D02*
X232297219Y-68997580D01*
X232392457Y-69045200D01*
X232440076Y-69092819D01*
X232487695Y-69188057D01*
X232535314Y-69378533D01*
X232535314Y-69616628D01*
X232487695Y-69807104D01*
X232440076Y-69902342D01*
X232392457Y-69949961D01*
X232297219Y-69997580D01*
X232201980Y-69997580D01*
X232106742Y-69949961D01*
X232059123Y-69902342D01*
X232011504Y-69807104D01*
X231963885Y-69616628D01*
X231963885Y-69378533D01*
X232011504Y-69188057D01*
X232059123Y-69092819D01*
X232106742Y-69045200D01*
X232201980Y-68997580D01*
X233440076Y-68997580D02*
X232963885Y-68997580D01*
X232916266Y-69473771D01*
X232963885Y-69426152D01*
X233059123Y-69378533D01*
X233297219Y-69378533D01*
X233392457Y-69426152D01*
X233440076Y-69473771D01*
X233487695Y-69569009D01*
X233487695Y-69807104D01*
X233440076Y-69902342D01*
X233392457Y-69949961D01*
X233297219Y-69997580D01*
X233059123Y-69997580D01*
X232963885Y-69949961D01*
X232916266Y-69902342D01*
X231443352Y-67254380D02*
X231110019Y-66778190D01*
X230871923Y-67254380D02*
X230871923Y-66254380D01*
X231252876Y-66254380D01*
X231348114Y-66302000D01*
X231395733Y-66349619D01*
X231443352Y-66444857D01*
X231443352Y-66587714D01*
X231395733Y-66682952D01*
X231348114Y-66730571D01*
X231252876Y-66778190D01*
X230871923Y-66778190D01*
X231824304Y-66349619D02*
X231871923Y-66302000D01*
X231967161Y-66254380D01*
X232205257Y-66254380D01*
X232300495Y-66302000D01*
X232348114Y-66349619D01*
X232395733Y-66444857D01*
X232395733Y-66540095D01*
X232348114Y-66682952D01*
X231776685Y-67254380D01*
X232395733Y-67254380D01*
X233014780Y-66254380D02*
X233110019Y-66254380D01*
X233205257Y-66302000D01*
X233252876Y-66349619D01*
X233300495Y-66444857D01*
X233348114Y-66635333D01*
X233348114Y-66873428D01*
X233300495Y-67063904D01*
X233252876Y-67159142D01*
X233205257Y-67206761D01*
X233110019Y-67254380D01*
X233014780Y-67254380D01*
X232919542Y-67206761D01*
X232871923Y-67159142D01*
X232824304Y-67063904D01*
X232776685Y-66873428D01*
X232776685Y-66635333D01*
X232824304Y-66444857D01*
X232871923Y-66349619D01*
X232919542Y-66302000D01*
X233014780Y-66254380D01*
X234205257Y-66254380D02*
X234014780Y-66254380D01*
X233919542Y-66302000D01*
X233871923Y-66349619D01*
X233776685Y-66492476D01*
X233729066Y-66682952D01*
X233729066Y-67063904D01*
X233776685Y-67159142D01*
X233824304Y-67206761D01*
X233919542Y-67254380D01*
X234110019Y-67254380D01*
X234205257Y-67206761D01*
X234252876Y-67159142D01*
X234300495Y-67063904D01*
X234300495Y-66825809D01*
X234252876Y-66730571D01*
X234205257Y-66682952D01*
X234110019Y-66635333D01*
X233919542Y-66635333D01*
X233824304Y-66682952D01*
X233776685Y-66730571D01*
X233729066Y-66825809D01*
X236421752Y-67254380D02*
X236088419Y-66778190D01*
X235850323Y-67254380D02*
X235850323Y-66254380D01*
X236231276Y-66254380D01*
X236326514Y-66302000D01*
X236374133Y-66349619D01*
X236421752Y-66444857D01*
X236421752Y-66587714D01*
X236374133Y-66682952D01*
X236326514Y-66730571D01*
X236231276Y-66778190D01*
X235850323Y-66778190D01*
X236802704Y-66349619D02*
X236850323Y-66302000D01*
X236945561Y-66254380D01*
X237183657Y-66254380D01*
X237278895Y-66302000D01*
X237326514Y-66349619D01*
X237374133Y-66444857D01*
X237374133Y-66540095D01*
X237326514Y-66682952D01*
X236755085Y-67254380D01*
X237374133Y-67254380D01*
X237993180Y-66254380D02*
X238088419Y-66254380D01*
X238183657Y-66302000D01*
X238231276Y-66349619D01*
X238278895Y-66444857D01*
X238326514Y-66635333D01*
X238326514Y-66873428D01*
X238278895Y-67063904D01*
X238231276Y-67159142D01*
X238183657Y-67206761D01*
X238088419Y-67254380D01*
X237993180Y-67254380D01*
X237897942Y-67206761D01*
X237850323Y-67159142D01*
X237802704Y-67063904D01*
X237755085Y-66873428D01*
X237755085Y-66635333D01*
X237802704Y-66444857D01*
X237850323Y-66349619D01*
X237897942Y-66302000D01*
X237993180Y-66254380D01*
X238659847Y-66254380D02*
X239326514Y-66254380D01*
X238897942Y-67254380D01*
X238047352Y-69997580D02*
X237714019Y-69521390D01*
X237475923Y-69997580D02*
X237475923Y-68997580D01*
X237856876Y-68997580D01*
X237952114Y-69045200D01*
X237999733Y-69092819D01*
X238047352Y-69188057D01*
X238047352Y-69330914D01*
X237999733Y-69426152D01*
X237952114Y-69473771D01*
X237856876Y-69521390D01*
X237475923Y-69521390D01*
X238428304Y-69092819D02*
X238475923Y-69045200D01*
X238571161Y-68997580D01*
X238809257Y-68997580D01*
X238904495Y-69045200D01*
X238952114Y-69092819D01*
X238999733Y-69188057D01*
X238999733Y-69283295D01*
X238952114Y-69426152D01*
X238380685Y-69997580D01*
X238999733Y-69997580D01*
X239618780Y-68997580D02*
X239714019Y-68997580D01*
X239809257Y-69045200D01*
X239856876Y-69092819D01*
X239904495Y-69188057D01*
X239952114Y-69378533D01*
X239952114Y-69616628D01*
X239904495Y-69807104D01*
X239856876Y-69902342D01*
X239809257Y-69949961D01*
X239714019Y-69997580D01*
X239618780Y-69997580D01*
X239523542Y-69949961D01*
X239475923Y-69902342D01*
X239428304Y-69807104D01*
X239380685Y-69616628D01*
X239380685Y-69378533D01*
X239428304Y-69188057D01*
X239475923Y-69092819D01*
X239523542Y-69045200D01*
X239618780Y-68997580D01*
X240523542Y-69426152D02*
X240428304Y-69378533D01*
X240380685Y-69330914D01*
X240333066Y-69235676D01*
X240333066Y-69188057D01*
X240380685Y-69092819D01*
X240428304Y-69045200D01*
X240523542Y-68997580D01*
X240714019Y-68997580D01*
X240809257Y-69045200D01*
X240856876Y-69092819D01*
X240904495Y-69188057D01*
X240904495Y-69235676D01*
X240856876Y-69330914D01*
X240809257Y-69378533D01*
X240714019Y-69426152D01*
X240523542Y-69426152D01*
X240428304Y-69473771D01*
X240380685Y-69521390D01*
X240333066Y-69616628D01*
X240333066Y-69807104D01*
X240380685Y-69902342D01*
X240428304Y-69949961D01*
X240523542Y-69997580D01*
X240714019Y-69997580D01*
X240809257Y-69949961D01*
X240856876Y-69902342D01*
X240904495Y-69807104D01*
X240904495Y-69616628D01*
X240856876Y-69521390D01*
X240809257Y-69473771D01*
X240714019Y-69426152D01*
X231100152Y-79253980D02*
X230766819Y-78777790D01*
X230528723Y-79253980D02*
X230528723Y-78253980D01*
X230909676Y-78253980D01*
X231004914Y-78301600D01*
X231052533Y-78349219D01*
X231100152Y-78444457D01*
X231100152Y-78587314D01*
X231052533Y-78682552D01*
X231004914Y-78730171D01*
X230909676Y-78777790D01*
X230528723Y-78777790D01*
X231957295Y-78587314D02*
X231957295Y-79253980D01*
X231719200Y-78206361D02*
X231481104Y-78920647D01*
X232100152Y-78920647D01*
X232671580Y-78253980D02*
X232766819Y-78253980D01*
X232862057Y-78301600D01*
X232909676Y-78349219D01*
X232957295Y-78444457D01*
X233004914Y-78634933D01*
X233004914Y-78873028D01*
X232957295Y-79063504D01*
X232909676Y-79158742D01*
X232862057Y-79206361D01*
X232766819Y-79253980D01*
X232671580Y-79253980D01*
X232576342Y-79206361D01*
X232528723Y-79158742D01*
X232481104Y-79063504D01*
X232433485Y-78873028D01*
X232433485Y-78634933D01*
X232481104Y-78444457D01*
X232528723Y-78349219D01*
X232576342Y-78301600D01*
X232671580Y-78253980D01*
X233957295Y-79253980D02*
X233385866Y-79253980D01*
X233671580Y-79253980D02*
X233671580Y-78253980D01*
X233576342Y-78396838D01*
X233481104Y-78492076D01*
X233385866Y-78539695D01*
X228442780Y-84634247D02*
X227966590Y-84967580D01*
X228442780Y-85205676D02*
X227442780Y-85205676D01*
X227442780Y-84824723D01*
X227490400Y-84729485D01*
X227538019Y-84681866D01*
X227633257Y-84634247D01*
X227776114Y-84634247D01*
X227871352Y-84681866D01*
X227918971Y-84729485D01*
X227966590Y-84824723D01*
X227966590Y-85205676D01*
X227776114Y-83777104D02*
X228442780Y-83777104D01*
X227395161Y-84015200D02*
X228109447Y-84253295D01*
X228109447Y-83634247D01*
X227442780Y-83062819D02*
X227442780Y-82967580D01*
X227490400Y-82872342D01*
X227538019Y-82824723D01*
X227633257Y-82777104D01*
X227823733Y-82729485D01*
X228061828Y-82729485D01*
X228252304Y-82777104D01*
X228347542Y-82824723D01*
X228395161Y-82872342D01*
X228442780Y-82967580D01*
X228442780Y-83062819D01*
X228395161Y-83158057D01*
X228347542Y-83205676D01*
X228252304Y-83253295D01*
X228061828Y-83300914D01*
X227823733Y-83300914D01*
X227633257Y-83253295D01*
X227538019Y-83205676D01*
X227490400Y-83158057D01*
X227442780Y-83062819D01*
X227538019Y-82348533D02*
X227490400Y-82300914D01*
X227442780Y-82205676D01*
X227442780Y-81967580D01*
X227490400Y-81872342D01*
X227538019Y-81824723D01*
X227633257Y-81777104D01*
X227728495Y-81777104D01*
X227871352Y-81824723D01*
X228442780Y-82396152D01*
X228442780Y-81777104D01*
X234871580Y-82070647D02*
X234395390Y-82403980D01*
X234871580Y-82642076D02*
X233871580Y-82642076D01*
X233871580Y-82261123D01*
X233919200Y-82165885D01*
X233966819Y-82118266D01*
X234062057Y-82070647D01*
X234204914Y-82070647D01*
X234300152Y-82118266D01*
X234347771Y-82165885D01*
X234395390Y-82261123D01*
X234395390Y-82642076D01*
X234204914Y-81213504D02*
X234871580Y-81213504D01*
X233823961Y-81451600D02*
X234538247Y-81689695D01*
X234538247Y-81070647D01*
X233871580Y-80499219D02*
X233871580Y-80403980D01*
X233919200Y-80308742D01*
X233966819Y-80261123D01*
X234062057Y-80213504D01*
X234252533Y-80165885D01*
X234490628Y-80165885D01*
X234681104Y-80213504D01*
X234776342Y-80261123D01*
X234823961Y-80308742D01*
X234871580Y-80403980D01*
X234871580Y-80499219D01*
X234823961Y-80594457D01*
X234776342Y-80642076D01*
X234681104Y-80689695D01*
X234490628Y-80737314D01*
X234252533Y-80737314D01*
X234062057Y-80689695D01*
X233966819Y-80642076D01*
X233919200Y-80594457D01*
X233871580Y-80499219D01*
X233871580Y-79832552D02*
X233871580Y-79213504D01*
X234252533Y-79546838D01*
X234252533Y-79403980D01*
X234300152Y-79308742D01*
X234347771Y-79261123D01*
X234443009Y-79213504D01*
X234681104Y-79213504D01*
X234776342Y-79261123D01*
X234823961Y-79308742D01*
X234871580Y-79403980D01*
X234871580Y-79689695D01*
X234823961Y-79784933D01*
X234776342Y-79832552D01*
X236570780Y-86107447D02*
X236094590Y-86440780D01*
X236570780Y-86678876D02*
X235570780Y-86678876D01*
X235570780Y-86297923D01*
X235618400Y-86202685D01*
X235666019Y-86155066D01*
X235761257Y-86107447D01*
X235904114Y-86107447D01*
X235999352Y-86155066D01*
X236046971Y-86202685D01*
X236094590Y-86297923D01*
X236094590Y-86678876D01*
X235904114Y-85250304D02*
X236570780Y-85250304D01*
X235523161Y-85488400D02*
X236237447Y-85726495D01*
X236237447Y-85107447D01*
X235570780Y-84536019D02*
X235570780Y-84440780D01*
X235618400Y-84345542D01*
X235666019Y-84297923D01*
X235761257Y-84250304D01*
X235951733Y-84202685D01*
X236189828Y-84202685D01*
X236380304Y-84250304D01*
X236475542Y-84297923D01*
X236523161Y-84345542D01*
X236570780Y-84440780D01*
X236570780Y-84536019D01*
X236523161Y-84631257D01*
X236475542Y-84678876D01*
X236380304Y-84726495D01*
X236189828Y-84774114D01*
X235951733Y-84774114D01*
X235761257Y-84726495D01*
X235666019Y-84678876D01*
X235618400Y-84631257D01*
X235570780Y-84536019D01*
X235904114Y-83345542D02*
X236570780Y-83345542D01*
X235523161Y-83583638D02*
X236237447Y-83821733D01*
X236237447Y-83202685D01*
X228544380Y-88241047D02*
X228068190Y-88574380D01*
X228544380Y-88812476D02*
X227544380Y-88812476D01*
X227544380Y-88431523D01*
X227592000Y-88336285D01*
X227639619Y-88288666D01*
X227734857Y-88241047D01*
X227877714Y-88241047D01*
X227972952Y-88288666D01*
X228020571Y-88336285D01*
X228068190Y-88431523D01*
X228068190Y-88812476D01*
X227877714Y-87383904D02*
X228544380Y-87383904D01*
X227496761Y-87622000D02*
X228211047Y-87860095D01*
X228211047Y-87241047D01*
X227544380Y-86669619D02*
X227544380Y-86574380D01*
X227592000Y-86479142D01*
X227639619Y-86431523D01*
X227734857Y-86383904D01*
X227925333Y-86336285D01*
X228163428Y-86336285D01*
X228353904Y-86383904D01*
X228449142Y-86431523D01*
X228496761Y-86479142D01*
X228544380Y-86574380D01*
X228544380Y-86669619D01*
X228496761Y-86764857D01*
X228449142Y-86812476D01*
X228353904Y-86860095D01*
X228163428Y-86907714D01*
X227925333Y-86907714D01*
X227734857Y-86860095D01*
X227639619Y-86812476D01*
X227592000Y-86764857D01*
X227544380Y-86669619D01*
X227544380Y-85431523D02*
X227544380Y-85907714D01*
X228020571Y-85955333D01*
X227972952Y-85907714D01*
X227925333Y-85812476D01*
X227925333Y-85574380D01*
X227972952Y-85479142D01*
X228020571Y-85431523D01*
X228115809Y-85383904D01*
X228353904Y-85383904D01*
X228449142Y-85431523D01*
X228496761Y-85479142D01*
X228544380Y-85574380D01*
X228544380Y-85812476D01*
X228496761Y-85907714D01*
X228449142Y-85955333D01*
X231100152Y-91703980D02*
X230766819Y-91227790D01*
X230528723Y-91703980D02*
X230528723Y-90703980D01*
X230909676Y-90703980D01*
X231004914Y-90751600D01*
X231052533Y-90799219D01*
X231100152Y-90894457D01*
X231100152Y-91037314D01*
X231052533Y-91132552D01*
X231004914Y-91180171D01*
X230909676Y-91227790D01*
X230528723Y-91227790D01*
X231957295Y-91037314D02*
X231957295Y-91703980D01*
X231719200Y-90656361D02*
X231481104Y-91370647D01*
X232100152Y-91370647D01*
X232671580Y-90703980D02*
X232766819Y-90703980D01*
X232862057Y-90751600D01*
X232909676Y-90799219D01*
X232957295Y-90894457D01*
X233004914Y-91084933D01*
X233004914Y-91323028D01*
X232957295Y-91513504D01*
X232909676Y-91608742D01*
X232862057Y-91656361D01*
X232766819Y-91703980D01*
X232671580Y-91703980D01*
X232576342Y-91656361D01*
X232528723Y-91608742D01*
X232481104Y-91513504D01*
X232433485Y-91323028D01*
X232433485Y-91084933D01*
X232481104Y-90894457D01*
X232528723Y-90799219D01*
X232576342Y-90751600D01*
X232671580Y-90703980D01*
X233862057Y-90703980D02*
X233671580Y-90703980D01*
X233576342Y-90751600D01*
X233528723Y-90799219D01*
X233433485Y-90942076D01*
X233385866Y-91132552D01*
X233385866Y-91513504D01*
X233433485Y-91608742D01*
X233481104Y-91656361D01*
X233576342Y-91703980D01*
X233766819Y-91703980D01*
X233862057Y-91656361D01*
X233909676Y-91608742D01*
X233957295Y-91513504D01*
X233957295Y-91275409D01*
X233909676Y-91180171D01*
X233862057Y-91132552D01*
X233766819Y-91084933D01*
X233576342Y-91084933D01*
X233481104Y-91132552D01*
X233433485Y-91180171D01*
X233385866Y-91275409D01*
X222415314Y-36434780D02*
X222415314Y-37244304D01*
X222462933Y-37339542D01*
X222510552Y-37387161D01*
X222605790Y-37434780D01*
X222796266Y-37434780D01*
X222891504Y-37387161D01*
X222939123Y-37339542D01*
X222986742Y-37244304D01*
X222986742Y-36434780D01*
X223986742Y-37434780D02*
X223415314Y-37434780D01*
X223701028Y-37434780D02*
X223701028Y-36434780D01*
X223605790Y-36577638D01*
X223510552Y-36672876D01*
X223415314Y-36720495D01*
X224605790Y-36434780D02*
X224701028Y-36434780D01*
X224796266Y-36482400D01*
X224843885Y-36530019D01*
X224891504Y-36625257D01*
X224939123Y-36815733D01*
X224939123Y-37053828D01*
X224891504Y-37244304D01*
X224843885Y-37339542D01*
X224796266Y-37387161D01*
X224701028Y-37434780D01*
X224605790Y-37434780D01*
X224510552Y-37387161D01*
X224462933Y-37339542D01*
X224415314Y-37244304D01*
X224367695Y-37053828D01*
X224367695Y-36815733D01*
X224415314Y-36625257D01*
X224462933Y-36530019D01*
X224510552Y-36482400D01*
X224605790Y-36434780D01*
X225320076Y-36530019D02*
X225367695Y-36482400D01*
X225462933Y-36434780D01*
X225701028Y-36434780D01*
X225796266Y-36482400D01*
X225843885Y-36530019D01*
X225891504Y-36625257D01*
X225891504Y-36720495D01*
X225843885Y-36863352D01*
X225272457Y-37434780D01*
X225891504Y-37434780D01*
X227552380Y-62064285D02*
X228361904Y-62064285D01*
X228457142Y-62016666D01*
X228504761Y-61969047D01*
X228552380Y-61873809D01*
X228552380Y-61683333D01*
X228504761Y-61588095D01*
X228457142Y-61540476D01*
X228361904Y-61492857D01*
X227552380Y-61492857D01*
X227647619Y-61064285D02*
X227600000Y-61016666D01*
X227552380Y-60921428D01*
X227552380Y-60683333D01*
X227600000Y-60588095D01*
X227647619Y-60540476D01*
X227742857Y-60492857D01*
X227838095Y-60492857D01*
X227980952Y-60540476D01*
X228552380Y-61111904D01*
X228552380Y-60492857D01*
X227552380Y-59873809D02*
X227552380Y-59778571D01*
X227600000Y-59683333D01*
X227647619Y-59635714D01*
X227742857Y-59588095D01*
X227933333Y-59540476D01*
X228171428Y-59540476D01*
X228361904Y-59588095D01*
X228457142Y-59635714D01*
X228504761Y-59683333D01*
X228552380Y-59778571D01*
X228552380Y-59873809D01*
X228504761Y-59969047D01*
X228457142Y-60016666D01*
X228361904Y-60064285D01*
X228171428Y-60111904D01*
X227933333Y-60111904D01*
X227742857Y-60064285D01*
X227647619Y-60016666D01*
X227600000Y-59969047D01*
X227552380Y-59873809D01*
X228552380Y-58588095D02*
X228552380Y-59159523D01*
X228552380Y-58873809D02*
X227552380Y-58873809D01*
X227695238Y-58969047D01*
X227790476Y-59064285D01*
X227838095Y-59159523D01*
X234021580Y-88065885D02*
X234831104Y-88065885D01*
X234926342Y-88018266D01*
X234973961Y-87970647D01*
X235021580Y-87875409D01*
X235021580Y-87684933D01*
X234973961Y-87589695D01*
X234926342Y-87542076D01*
X234831104Y-87494457D01*
X234021580Y-87494457D01*
X234354914Y-86589695D02*
X235021580Y-86589695D01*
X233973961Y-86827790D02*
X234688247Y-87065885D01*
X234688247Y-86446838D01*
X234021580Y-85875409D02*
X234021580Y-85780171D01*
X234069200Y-85684933D01*
X234116819Y-85637314D01*
X234212057Y-85589695D01*
X234402533Y-85542076D01*
X234640628Y-85542076D01*
X234831104Y-85589695D01*
X234926342Y-85637314D01*
X234973961Y-85684933D01*
X235021580Y-85780171D01*
X235021580Y-85875409D01*
X234973961Y-85970647D01*
X234926342Y-86018266D01*
X234831104Y-86065885D01*
X234640628Y-86113504D01*
X234402533Y-86113504D01*
X234212057Y-86065885D01*
X234116819Y-86018266D01*
X234069200Y-85970647D01*
X234021580Y-85875409D01*
X235021580Y-84589695D02*
X235021580Y-85161123D01*
X235021580Y-84875409D02*
X234021580Y-84875409D01*
X234164438Y-84970647D01*
X234259676Y-85065885D01*
X234307295Y-85161123D01*
X236537714Y-35977580D02*
X236537714Y-36787104D01*
X236585333Y-36882342D01*
X236632952Y-36929961D01*
X236728190Y-36977580D01*
X236918666Y-36977580D01*
X237013904Y-36929961D01*
X237061523Y-36882342D01*
X237109142Y-36787104D01*
X237109142Y-35977580D01*
X238061523Y-35977580D02*
X237585333Y-35977580D01*
X237537714Y-36453771D01*
X237585333Y-36406152D01*
X237680571Y-36358533D01*
X237918666Y-36358533D01*
X238013904Y-36406152D01*
X238061523Y-36453771D01*
X238109142Y-36549009D01*
X238109142Y-36787104D01*
X238061523Y-36882342D01*
X238013904Y-36929961D01*
X237918666Y-36977580D01*
X237680571Y-36977580D01*
X237585333Y-36929961D01*
X237537714Y-36882342D01*
X238728190Y-35977580D02*
X238823428Y-35977580D01*
X238918666Y-36025200D01*
X238966285Y-36072819D01*
X239013904Y-36168057D01*
X239061523Y-36358533D01*
X239061523Y-36596628D01*
X239013904Y-36787104D01*
X238966285Y-36882342D01*
X238918666Y-36929961D01*
X238823428Y-36977580D01*
X238728190Y-36977580D01*
X238632952Y-36929961D01*
X238585333Y-36882342D01*
X238537714Y-36787104D01*
X238490095Y-36596628D01*
X238490095Y-36358533D01*
X238537714Y-36168057D01*
X238585333Y-36072819D01*
X238632952Y-36025200D01*
X238728190Y-35977580D01*
X240013904Y-36977580D02*
X239442476Y-36977580D01*
X239728190Y-36977580D02*
X239728190Y-35977580D01*
X239632952Y-36120438D01*
X239537714Y-36215676D01*
X239442476Y-36263295D01*
X242416152Y-85948780D02*
X242082819Y-85472590D01*
X241844723Y-85948780D02*
X241844723Y-84948780D01*
X242225676Y-84948780D01*
X242320914Y-84996400D01*
X242368533Y-85044019D01*
X242416152Y-85139257D01*
X242416152Y-85282114D01*
X242368533Y-85377352D01*
X242320914Y-85424971D01*
X242225676Y-85472590D01*
X241844723Y-85472590D01*
X243368533Y-85948780D02*
X242797104Y-85948780D01*
X243082819Y-85948780D02*
X243082819Y-84948780D01*
X242987580Y-85091638D01*
X242892342Y-85186876D01*
X242797104Y-85234495D01*
X243987580Y-84948780D02*
X244082819Y-84948780D01*
X244178057Y-84996400D01*
X244225676Y-85044019D01*
X244273295Y-85139257D01*
X244320914Y-85329733D01*
X244320914Y-85567828D01*
X244273295Y-85758304D01*
X244225676Y-85853542D01*
X244178057Y-85901161D01*
X244082819Y-85948780D01*
X243987580Y-85948780D01*
X243892342Y-85901161D01*
X243844723Y-85853542D01*
X243797104Y-85758304D01*
X243749485Y-85567828D01*
X243749485Y-85329733D01*
X243797104Y-85139257D01*
X243844723Y-85044019D01*
X243892342Y-84996400D01*
X243987580Y-84948780D01*
X245273295Y-85948780D02*
X244701866Y-85948780D01*
X244987580Y-85948780D02*
X244987580Y-84948780D01*
X244892342Y-85091638D01*
X244797104Y-85186876D01*
X244701866Y-85234495D01*
X223541198Y-78226935D02*
X223342470Y-77680697D01*
X222989240Y-78079039D02*
X223248059Y-77113113D01*
X223616031Y-77211710D01*
X223695699Y-77282356D01*
X223729371Y-77340678D01*
X223750718Y-77444995D01*
X223713744Y-77582985D01*
X223643098Y-77662653D01*
X223584777Y-77696325D01*
X223480459Y-77717672D01*
X223112487Y-77619074D01*
X224461127Y-78473429D02*
X223909169Y-78325533D01*
X224185148Y-78399481D02*
X224443967Y-77433555D01*
X224315000Y-77546895D01*
X224198358Y-77614239D01*
X224094040Y-77635586D01*
X225317900Y-77667725D02*
X225409893Y-77692374D01*
X225489561Y-77763020D01*
X225523233Y-77821341D01*
X225544580Y-77925659D01*
X225541278Y-78121970D01*
X225479654Y-78351952D01*
X225384359Y-78523613D01*
X225313713Y-78603281D01*
X225255392Y-78636953D01*
X225151074Y-78658300D01*
X225059081Y-78633651D01*
X224979413Y-78563005D01*
X224945741Y-78504684D01*
X224924394Y-78400366D01*
X224927697Y-78204055D01*
X224989320Y-77974073D01*
X225084615Y-77802412D01*
X225155261Y-77722744D01*
X225213583Y-77689072D01*
X225317900Y-77667725D01*
X225983198Y-77944589D02*
X226041519Y-77910917D01*
X226145837Y-77889570D01*
X226375819Y-77951193D01*
X226455487Y-78021839D01*
X226489159Y-78080160D01*
X226510506Y-78184478D01*
X226485857Y-78276471D01*
X226402886Y-78402136D01*
X225703032Y-78806197D01*
X226300986Y-78966418D01*
X226552602Y-89663367D02*
X226926294Y-89218145D01*
X226404706Y-89111410D02*
X227370631Y-88852591D01*
X227469229Y-89220562D01*
X227447882Y-89324880D01*
X227414210Y-89383201D01*
X227334542Y-89453847D01*
X227196553Y-89490821D01*
X227092235Y-89469474D01*
X227033914Y-89435802D01*
X226963268Y-89356134D01*
X226864670Y-88988163D01*
X226799097Y-90583297D02*
X226651200Y-90031339D01*
X226725148Y-90307318D02*
X227691074Y-90048499D01*
X227528435Y-89993480D01*
X227411793Y-89926137D01*
X227341147Y-89846468D01*
X227925244Y-90922432D02*
X227949893Y-91014425D01*
X227928546Y-91118742D01*
X227894874Y-91177063D01*
X227815206Y-91247709D01*
X227643545Y-91343005D01*
X227413563Y-91404628D01*
X227217252Y-91407931D01*
X227112934Y-91386584D01*
X227054613Y-91352912D01*
X226983967Y-91273244D01*
X226959318Y-91181251D01*
X226980665Y-91076933D01*
X227014337Y-91018612D01*
X227094005Y-90947966D01*
X227265666Y-90852671D01*
X227495648Y-90791047D01*
X227691959Y-90787745D01*
X227796277Y-90809092D01*
X227854598Y-90842763D01*
X227925244Y-90922432D01*
X228097790Y-91566382D02*
X228258011Y-92164336D01*
X227803766Y-91940959D01*
X227840740Y-92078948D01*
X227819393Y-92183266D01*
X227785722Y-92241587D01*
X227706053Y-92312233D01*
X227476071Y-92373857D01*
X227371753Y-92352509D01*
X227313432Y-92318838D01*
X227242786Y-92239170D01*
X227168838Y-91963191D01*
X227190185Y-91858873D01*
X227223857Y-91800552D01*
X240583980Y-67514647D02*
X240107790Y-67847980D01*
X240583980Y-68086076D02*
X239583980Y-68086076D01*
X239583980Y-67705123D01*
X239631600Y-67609885D01*
X239679219Y-67562266D01*
X239774457Y-67514647D01*
X239917314Y-67514647D01*
X240012552Y-67562266D01*
X240060171Y-67609885D01*
X240107790Y-67705123D01*
X240107790Y-68086076D01*
X240583980Y-66562266D02*
X240583980Y-67133695D01*
X240583980Y-66847980D02*
X239583980Y-66847980D01*
X239726838Y-66943219D01*
X239822076Y-67038457D01*
X239869695Y-67133695D01*
X239583980Y-65943219D02*
X239583980Y-65847980D01*
X239631600Y-65752742D01*
X239679219Y-65705123D01*
X239774457Y-65657504D01*
X239964933Y-65609885D01*
X240203028Y-65609885D01*
X240393504Y-65657504D01*
X240488742Y-65705123D01*
X240536361Y-65752742D01*
X240583980Y-65847980D01*
X240583980Y-65943219D01*
X240536361Y-66038457D01*
X240488742Y-66086076D01*
X240393504Y-66133695D01*
X240203028Y-66181314D01*
X239964933Y-66181314D01*
X239774457Y-66133695D01*
X239679219Y-66086076D01*
X239631600Y-66038457D01*
X239583980Y-65943219D01*
X239917314Y-64752742D02*
X240583980Y-64752742D01*
X239536361Y-64990838D02*
X240250647Y-65228933D01*
X240250647Y-64609885D01*
X251273953Y-93085380D02*
X250940620Y-92609190D01*
X250702524Y-93085380D02*
X250702524Y-92085380D01*
X251083477Y-92085380D01*
X251178715Y-92133000D01*
X251226334Y-92180619D01*
X251273953Y-92275857D01*
X251273953Y-92418714D01*
X251226334Y-92513952D01*
X251178715Y-92561571D01*
X251083477Y-92609190D01*
X250702524Y-92609190D01*
X252226334Y-93085380D02*
X251654905Y-93085380D01*
X251940620Y-93085380D02*
X251940620Y-92085380D01*
X251845381Y-92228238D01*
X251750143Y-92323476D01*
X251654905Y-92371095D01*
X252845381Y-92085380D02*
X252940620Y-92085380D01*
X253035858Y-92133000D01*
X253083477Y-92180619D01*
X253131096Y-92275857D01*
X253178715Y-92466333D01*
X253178715Y-92704428D01*
X253131096Y-92894904D01*
X253083477Y-92990142D01*
X253035858Y-93037761D01*
X252940620Y-93085380D01*
X252845381Y-93085380D01*
X252750143Y-93037761D01*
X252702524Y-92990142D01*
X252654905Y-92894904D01*
X252607286Y-92704428D01*
X252607286Y-92466333D01*
X252654905Y-92275857D01*
X252702524Y-92180619D01*
X252750143Y-92133000D01*
X252845381Y-92085380D01*
X254083477Y-92085380D02*
X253607286Y-92085380D01*
X253559667Y-92561571D01*
X253607286Y-92513952D01*
X253702524Y-92466333D01*
X253940620Y-92466333D01*
X254035858Y-92513952D01*
X254083477Y-92561571D01*
X254131096Y-92656809D01*
X254131096Y-92894904D01*
X254083477Y-92990142D01*
X254035858Y-93037761D01*
X253940620Y-93085380D01*
X253702524Y-93085380D01*
X253607286Y-93037761D01*
X253559667Y-92990142D01*
X250848953Y-87547380D02*
X250515620Y-87071190D01*
X250277524Y-87547380D02*
X250277524Y-86547380D01*
X250658477Y-86547380D01*
X250753715Y-86595000D01*
X250801334Y-86642619D01*
X250848953Y-86737857D01*
X250848953Y-86880714D01*
X250801334Y-86975952D01*
X250753715Y-87023571D01*
X250658477Y-87071190D01*
X250277524Y-87071190D01*
X251801334Y-87547380D02*
X251229905Y-87547380D01*
X251515620Y-87547380D02*
X251515620Y-86547380D01*
X251420381Y-86690238D01*
X251325143Y-86785476D01*
X251229905Y-86833095D01*
X252420381Y-86547380D02*
X252515620Y-86547380D01*
X252610858Y-86595000D01*
X252658477Y-86642619D01*
X252706096Y-86737857D01*
X252753715Y-86928333D01*
X252753715Y-87166428D01*
X252706096Y-87356904D01*
X252658477Y-87452142D01*
X252610858Y-87499761D01*
X252515620Y-87547380D01*
X252420381Y-87547380D01*
X252325143Y-87499761D01*
X252277524Y-87452142D01*
X252229905Y-87356904D01*
X252182286Y-87166428D01*
X252182286Y-86928333D01*
X252229905Y-86737857D01*
X252277524Y-86642619D01*
X252325143Y-86595000D01*
X252420381Y-86547380D01*
X253610858Y-86547380D02*
X253420381Y-86547380D01*
X253325143Y-86595000D01*
X253277524Y-86642619D01*
X253182286Y-86785476D01*
X253134667Y-86975952D01*
X253134667Y-87356904D01*
X253182286Y-87452142D01*
X253229905Y-87499761D01*
X253325143Y-87547380D01*
X253515620Y-87547380D01*
X253610858Y-87499761D01*
X253658477Y-87452142D01*
X253706096Y-87356904D01*
X253706096Y-87118809D01*
X253658477Y-87023571D01*
X253610858Y-86975952D01*
X253515620Y-86928333D01*
X253325143Y-86928333D01*
X253229905Y-86975952D01*
X253182286Y-87023571D01*
X253134667Y-87118809D01*
X251105953Y-90308380D02*
X250772620Y-89832190D01*
X250534524Y-90308380D02*
X250534524Y-89308380D01*
X250915477Y-89308380D01*
X251010715Y-89356000D01*
X251058334Y-89403619D01*
X251105953Y-89498857D01*
X251105953Y-89641714D01*
X251058334Y-89736952D01*
X251010715Y-89784571D01*
X250915477Y-89832190D01*
X250534524Y-89832190D01*
X252058334Y-90308380D02*
X251486905Y-90308380D01*
X251772620Y-90308380D02*
X251772620Y-89308380D01*
X251677381Y-89451238D01*
X251582143Y-89546476D01*
X251486905Y-89594095D01*
X252677381Y-89308380D02*
X252772620Y-89308380D01*
X252867858Y-89356000D01*
X252915477Y-89403619D01*
X252963096Y-89498857D01*
X253010715Y-89689333D01*
X253010715Y-89927428D01*
X252963096Y-90117904D01*
X252915477Y-90213142D01*
X252867858Y-90260761D01*
X252772620Y-90308380D01*
X252677381Y-90308380D01*
X252582143Y-90260761D01*
X252534524Y-90213142D01*
X252486905Y-90117904D01*
X252439286Y-89927428D01*
X252439286Y-89689333D01*
X252486905Y-89498857D01*
X252534524Y-89403619D01*
X252582143Y-89356000D01*
X252677381Y-89308380D01*
X253582143Y-89736952D02*
X253486905Y-89689333D01*
X253439286Y-89641714D01*
X253391667Y-89546476D01*
X253391667Y-89498857D01*
X253439286Y-89403619D01*
X253486905Y-89356000D01*
X253582143Y-89308380D01*
X253772620Y-89308380D01*
X253867858Y-89356000D01*
X253915477Y-89403619D01*
X253963096Y-89498857D01*
X253963096Y-89546476D01*
X253915477Y-89641714D01*
X253867858Y-89689333D01*
X253772620Y-89736952D01*
X253582143Y-89736952D01*
X253486905Y-89784571D01*
X253439286Y-89832190D01*
X253391667Y-89927428D01*
X253391667Y-90117904D01*
X253439286Y-90213142D01*
X253486905Y-90260761D01*
X253582143Y-90308380D01*
X253772620Y-90308380D01*
X253867858Y-90260761D01*
X253915477Y-90213142D01*
X253963096Y-90117904D01*
X253963096Y-89927428D01*
X253915477Y-89832190D01*
X253867858Y-89784571D01*
X253772620Y-89736952D01*
X247314285Y-42753571D02*
X246980952Y-42753571D01*
X246980952Y-43277380D02*
X246980952Y-42277380D01*
X247457142Y-42277380D01*
X248171428Y-42753571D02*
X248314285Y-42801190D01*
X248361904Y-42848809D01*
X248409523Y-42944047D01*
X248409523Y-43086904D01*
X248361904Y-43182142D01*
X248314285Y-43229761D01*
X248219047Y-43277380D01*
X247838095Y-43277380D01*
X247838095Y-42277380D01*
X248171428Y-42277380D01*
X248266666Y-42325000D01*
X248314285Y-42372619D01*
X248361904Y-42467857D01*
X248361904Y-42563095D01*
X248314285Y-42658333D01*
X248266666Y-42705952D01*
X248171428Y-42753571D01*
X247838095Y-42753571D01*
X249314285Y-42277380D02*
X248838095Y-42277380D01*
X248790476Y-42753571D01*
X248838095Y-42705952D01*
X248933333Y-42658333D01*
X249171428Y-42658333D01*
X249266666Y-42705952D01*
X249314285Y-42753571D01*
X249361904Y-42848809D01*
X249361904Y-43086904D01*
X249314285Y-43182142D01*
X249266666Y-43229761D01*
X249171428Y-43277380D01*
X248933333Y-43277380D01*
X248838095Y-43229761D01*
X248790476Y-43182142D01*
X249980952Y-42277380D02*
X250076190Y-42277380D01*
X250171428Y-42325000D01*
X250219047Y-42372619D01*
X250266666Y-42467857D01*
X250314285Y-42658333D01*
X250314285Y-42896428D01*
X250266666Y-43086904D01*
X250219047Y-43182142D01*
X250171428Y-43229761D01*
X250076190Y-43277380D01*
X249980952Y-43277380D01*
X249885714Y-43229761D01*
X249838095Y-43182142D01*
X249790476Y-43086904D01*
X249742857Y-42896428D01*
X249742857Y-42658333D01*
X249790476Y-42467857D01*
X249838095Y-42372619D01*
X249885714Y-42325000D01*
X249980952Y-42277380D01*
X251266666Y-43277380D02*
X250695238Y-43277380D01*
X250980952Y-43277380D02*
X250980952Y-42277380D01*
X250885714Y-42420238D01*
X250790476Y-42515476D01*
X250695238Y-42563095D01*
X219482142Y-38344047D02*
X219529761Y-38391666D01*
X219577380Y-38534523D01*
X219577380Y-38629761D01*
X219529761Y-38772619D01*
X219434523Y-38867857D01*
X219339285Y-38915476D01*
X219148809Y-38963095D01*
X219005952Y-38963095D01*
X218815476Y-38915476D01*
X218720238Y-38867857D01*
X218625000Y-38772619D01*
X218577380Y-38629761D01*
X218577380Y-38534523D01*
X218625000Y-38391666D01*
X218672619Y-38344047D01*
X219577380Y-37391666D02*
X219577380Y-37963095D01*
X219577380Y-37677380D02*
X218577380Y-37677380D01*
X218720238Y-37772619D01*
X218815476Y-37867857D01*
X218863095Y-37963095D01*
X218577380Y-36772619D02*
X218577380Y-36677380D01*
X218625000Y-36582142D01*
X218672619Y-36534523D01*
X218767857Y-36486904D01*
X218958333Y-36439285D01*
X219196428Y-36439285D01*
X219386904Y-36486904D01*
X219482142Y-36534523D01*
X219529761Y-36582142D01*
X219577380Y-36677380D01*
X219577380Y-36772619D01*
X219529761Y-36867857D01*
X219482142Y-36915476D01*
X219386904Y-36963095D01*
X219196428Y-37010714D01*
X218958333Y-37010714D01*
X218767857Y-36963095D01*
X218672619Y-36915476D01*
X218625000Y-36867857D01*
X218577380Y-36772619D01*
X218910714Y-35582142D02*
X219577380Y-35582142D01*
X218529761Y-35820238D02*
X219244047Y-36058333D01*
X219244047Y-35439285D01*
X254823980Y-45938914D02*
X255538266Y-45938914D01*
X255681123Y-45986533D01*
X255776361Y-46081771D01*
X255823980Y-46224628D01*
X255823980Y-46319866D01*
X255823980Y-44938914D02*
X255823980Y-45510342D01*
X255823980Y-45224628D02*
X254823980Y-45224628D01*
X254966838Y-45319866D01*
X255062076Y-45415104D01*
X255109695Y-45510342D01*
X254823980Y-44319866D02*
X254823980Y-44224628D01*
X254871600Y-44129390D01*
X254919219Y-44081771D01*
X255014457Y-44034152D01*
X255204933Y-43986533D01*
X255443028Y-43986533D01*
X255633504Y-44034152D01*
X255728742Y-44081771D01*
X255776361Y-44129390D01*
X255823980Y-44224628D01*
X255823980Y-44319866D01*
X255776361Y-44415104D01*
X255728742Y-44462723D01*
X255633504Y-44510342D01*
X255443028Y-44557961D01*
X255204933Y-44557961D01*
X255014457Y-44510342D01*
X254919219Y-44462723D01*
X254871600Y-44415104D01*
X254823980Y-44319866D01*
X254919219Y-43605580D02*
X254871600Y-43557961D01*
X254823980Y-43462723D01*
X254823980Y-43224628D01*
X254871600Y-43129390D01*
X254919219Y-43081771D01*
X255014457Y-43034152D01*
X255109695Y-43034152D01*
X255252552Y-43081771D01*
X255823980Y-43653200D01*
X255823980Y-43034152D01*
X237488585Y-80709371D02*
X237155252Y-80709371D01*
X237155252Y-81233180D02*
X237155252Y-80233180D01*
X237631442Y-80233180D01*
X238536204Y-81233180D02*
X237964776Y-81233180D01*
X238250490Y-81233180D02*
X238250490Y-80233180D01*
X238155252Y-80376038D01*
X238060014Y-80471276D01*
X237964776Y-80518895D01*
X239155252Y-80233180D02*
X239250490Y-80233180D01*
X239345728Y-80280800D01*
X239393347Y-80328419D01*
X239440966Y-80423657D01*
X239488585Y-80614133D01*
X239488585Y-80852228D01*
X239440966Y-81042704D01*
X239393347Y-81137942D01*
X239345728Y-81185561D01*
X239250490Y-81233180D01*
X239155252Y-81233180D01*
X239060014Y-81185561D01*
X239012395Y-81137942D01*
X238964776Y-81042704D01*
X238917157Y-80852228D01*
X238917157Y-80614133D01*
X238964776Y-80423657D01*
X239012395Y-80328419D01*
X239060014Y-80280800D01*
X239155252Y-80233180D01*
X240440966Y-81233180D02*
X239869538Y-81233180D01*
X240155252Y-81233180D02*
X240155252Y-80233180D01*
X240060014Y-80376038D01*
X239964776Y-80471276D01*
X239869538Y-80518895D01*
M02*
