G04 #@! TF.GenerationSoftware,KiCad,Pcbnew,(5.1.4)-1*
G04 #@! TF.CreationDate,2019-11-01T08:15:42-05:00*
G04 #@! TF.ProjectId,20-ELC-3-01-R1 (Telemetry PCB),32302d45-4c43-42d3-932d-30312d523120,rev?*
G04 #@! TF.SameCoordinates,Original*
G04 #@! TF.FileFunction,Profile,NP*
%FSLAX46Y46*%
G04 Gerber Fmt 4.6, Leading zero omitted, Abs format (unit mm)*
G04 Created by KiCad (PCBNEW (5.1.4)-1) date 2019-11-01 08:15:42*
%MOMM*%
%LPD*%
G04 APERTURE LIST*
%ADD10C,0.050000*%
G04 APERTURE END LIST*
D10*
X224659306Y-74785594D02*
G75*
G02X224423888Y-73898567I90694J498824D01*
G01*
X238475001Y-72077229D02*
G75*
G02X238751115Y-72550000I-223885J-447772D01*
G01*
X238750000Y-78925000D02*
G75*
G02X237878767Y-79249999I-496234J0D01*
G01*
X239766350Y-88149340D02*
G75*
G02X240250000Y-87850000I458651J-200659D01*
G01*
X246050000Y-87845095D02*
G75*
G02X246529562Y-88499959I1J-503025D01*
G01*
X238225000Y-97925000D02*
G75*
G02X237818609Y-97986492I-281391J486036D01*
G01*
X233000000Y-98000000D02*
G75*
G02X232525002Y-97651879I1J498120D01*
G01*
X230920833Y-92926317D02*
G75*
G02X231450000Y-92275001I479168J151317D01*
G01*
X228400731Y-97349890D02*
G75*
G02X227597476Y-97831020I-500731J-75110D01*
G01*
X227204858Y-79137508D02*
G75*
G02X227349999Y-79974999I-179858J-462492D01*
G01*
X220790072Y-78165782D02*
G75*
G02X221275000Y-78025000I359928J-334218D01*
G01*
X233000000Y-98000000D02*
X237818609Y-97986492D01*
X226059891Y-87866853D02*
G75*
G02X227349999Y-79974999I6940109J2916853D01*
G01*
X233856182Y-77496187D02*
G75*
G02X237878767Y-79249999I-856182J-7453813D01*
G01*
X239768697Y-88150450D02*
G75*
G02X231450000Y-92275001I-6768697J3200450D01*
G01*
X227597476Y-97831021D02*
G75*
G02X220790072Y-78165782I5402524J12881021D01*
G01*
X224423888Y-73898567D02*
G75*
G02X238475000Y-72077229I8576112J-11051433D01*
G01*
X246529562Y-88499958D02*
G75*
G02X238225000Y-97925000I-13529562J3549958D01*
G01*
X221275000Y-78025000D02*
X227204858Y-79137507D01*
X224659306Y-74785594D02*
X233856182Y-77496187D01*
X238751115Y-72550000D02*
X238750000Y-78925000D01*
X246050000Y-87845095D02*
X240250000Y-87850000D01*
X228400731Y-97349890D02*
X226059891Y-87866853D01*
X232525002Y-97651879D02*
X230920833Y-92926317D01*
X214000000Y-100000000D02*
X264500000Y-100000000D01*
X222500000Y-72950000D02*
G75*
G03X222500000Y-72950000I-1500000J0D01*
G01*
X246500000Y-96950000D02*
G75*
G03X246500000Y-96950000I-1500000J0D01*
G01*
X214000000Y-100000000D02*
G75*
G02X211000000Y-97000000I0J3000000D01*
G01*
X267500000Y-97000000D02*
G75*
G02X264500000Y-100000000I-3000000J0D01*
G01*
X264500000Y-35000000D02*
G75*
G02X267500000Y-38000000I0J-3000000D01*
G01*
X211000000Y-38000000D02*
G75*
G02X214000000Y-35000000I3000000J0D01*
G01*
X211000000Y-38000000D02*
X211000000Y-97000000D01*
X264500000Y-35000000D02*
X214000000Y-35000000D01*
X267500000Y-38000000D02*
X267500000Y-97000000D01*
M02*
