M48
; DRILL file {KiCad (5.1.4)-1} date 3/19/2020 8:31:04 PM
; FORMAT={-:-/ absolute / inch / decimal}
; #@! TF.CreationDate,2020-03-19T20:31:04-05:00
; #@! TF.GenerationSoftware,Kicad,Pcbnew,(5.1.4)-1
; #@! TF.FileFunction,Plated,1,2,PTH
FMAT,2
INCH
T1C0.0098
T2C0.0157
T3C0.0394
T4C0.0430
T5C0.0433
T6C0.0591
T7C0.0787
T8C0.3150
%
G90
G05
T1
X5.4091Y-1.9331
X5.4098Y-2.0122
X5.4098Y-2.0909
X4.9465Y-1.9291
X4.9472Y-2.0083
X4.9472Y-2.087
T2
X1.6929Y-4.2421
X1.8799Y-2.7854
X1.9882Y-4.1831
X2.0276Y-2.1555
X2.0461Y-2.2638
X2.0707Y-3.5
X2.2933Y-3.0413
X2.5394Y-1.3976
X2.5394Y-1.4567
X2.7067Y-1.5256
X3.0384Y-1.5551
X3.1573Y-2.2069
X3.1594Y-2.0276
X5.0295Y-2.7362
T3
X1.6925Y-3.8241
X1.6925Y-4.395
X1.7909Y-4.395
X1.8894Y-3.8241
X1.8894Y-4.395
X5.4431Y-3.8186
X5.4431Y-4.3895
X5.5416Y-4.3895
X5.64Y-3.8186
X5.64Y-4.3895
T4
X2.24Y-1.41
X2.24Y-1.51
X2.24Y-1.61
X2.24Y-1.71
X2.24Y-1.81
X2.24Y-1.91
X2.24Y-2.01
X2.24Y-2.11
X2.24Y-2.21
X2.24Y-2.31
X2.24Y-2.41
X2.24Y-2.51
X2.84Y-1.41
X2.84Y-1.51
X2.84Y-1.61
X2.84Y-1.71
X2.84Y-1.81
X2.84Y-1.91
X2.84Y-2.01
X2.84Y-2.11
X2.84Y-2.21
X2.84Y-2.31
X2.84Y-2.41
X2.84Y-2.51
X5.0411Y-1.6043
X5.1201Y-1.7263
X5.2461Y-1.7263
X5.3251Y-1.6043
T5
X1.54Y-3.71
X1.94Y-3.71
X3.67Y-3.88
X3.67Y-4.28
X2.92Y-3.88
X2.92Y-4.28
X2.94Y-1.65
X2.94Y-2.05
X5.17Y-2.45
X5.17Y-2.85
X5.17Y-3.94
X5.17Y-4.34
X2.14Y-1.67
X2.14Y-2.07
X3.6713Y-1.6571
X3.6713Y-2.0571
X3.67Y-2.4071
X3.67Y-2.8071
X2.1654Y-3.0941
X2.1654Y-3.4941
X5.39Y-3.71
X5.79Y-3.71
X4.41Y-2.41
X4.41Y-2.81
X2.15Y-2.36
X2.15Y-2.76
X5.39Y-2.22
X5.79Y-2.22
X5.1673Y-3.1
X5.1673Y-3.5
X4.42Y-3.88
X4.42Y-4.28
X2.9154Y-3.1413
X2.9154Y-3.5413
X2.93Y-2.36
X2.93Y-2.76
X1.59Y-2.22
X1.99Y-2.22
X3.67Y-3.16
X3.67Y-3.56
X4.4213Y-3.1591
X4.4213Y-3.5591
X4.4173Y-1.6571
X4.4173Y-2.0571
X5.34Y-2.97
X5.74Y-2.97
X2.17Y-3.94
X2.17Y-4.34
T7
X5.1575Y-1.8898
T8
X2.0413Y-1.4685
X5.1713Y-3.7224
X2.1654Y-3.7205
X5.1654Y-2.2224
T4
G00X5.0061Y-1.4073
M15
G01X4.9941Y-1.4073
M16
G05
G00X5.3721Y-1.4073
M15
G01X5.3601Y-1.4073
M16
G05
T6
G00X3.1732Y-3.937
M15
G01X3.1413Y-3.9945
M16
G05
G00X3.1929Y-3.8945
M15
G01X3.1945Y-3.9173
M16
G05
G00X3.3913Y-3.8945
M15
G01X3.3898Y-3.9173
M16
G05
G00X3.4169Y-3.937
M15
G01X3.4488Y-3.9945
M16
G05
G00X1.6732Y-3.9429
M15
G01X1.6413Y-4.0004
M16
G05
G00X1.6929Y-3.9004
M15
G01X1.6945Y-3.9232
M16
G05
G00X1.8913Y-3.9004
M15
G01X1.8898Y-3.9232
M16
G05
G00X1.9169Y-3.9429
M15
G01X1.9488Y-4.0004
M16
G05
G00X1.6752Y-2.439
M15
G01X1.6433Y-2.4965
M16
G05
G00X1.6949Y-2.3965
M15
G01X1.6964Y-2.4193
M16
G05
G00X1.8933Y-2.3965
M15
G01X1.8917Y-2.4193
M16
G05
G00X1.9189Y-2.439
M15
G01X1.9508Y-2.4965
M16
G05
G00X3.9232Y-3.187
M15
G01X3.8913Y-3.2445
M16
G05
G00X3.9429Y-3.1445
M15
G01X3.9445Y-3.1673
M16
G05
G00X4.1413Y-3.1445
M15
G01X4.1398Y-3.1673
M16
G05
G00X4.1669Y-3.187
M15
G01X4.1988Y-3.2445
M16
G05
G00X4.6732Y-3.187
M15
G01X4.6413Y-3.2445
M16
G05
G00X4.6929Y-3.1445
M15
G01X4.6945Y-3.1673
M16
G05
G00X4.8913Y-3.1445
M15
G01X4.8898Y-3.1673
M16
G05
G00X4.9169Y-3.187
M15
G01X4.9488Y-3.2445
M16
G05
G00X4.6732Y-2.437
M15
G01X4.6413Y-2.4945
M16
G05
G00X4.6929Y-2.3945
M15
G01X4.6945Y-2.4173
M16
G05
G00X4.8913Y-2.3945
M15
G01X4.8898Y-2.4173
M16
G05
G00X4.9169Y-2.437
M15
G01X4.9488Y-2.4945
M16
G05
G00X5.4232Y-3.187
M15
G01X5.3913Y-3.2445
M16
G05
G00X5.4429Y-3.1445
M15
G01X5.4445Y-3.1673
M16
G05
G00X5.6413Y-3.1445
M15
G01X5.6398Y-3.1673
M16
G05
G00X5.6669Y-3.187
M15
G01X5.6988Y-3.2445
M16
G05
G00X1.6732Y-3.189
M15
G01X1.6413Y-3.2465
M16
G05
G00X1.6929Y-3.1465
M15
G01X1.6945Y-3.1693
M16
G05
G00X1.8913Y-3.1465
M15
G01X1.8898Y-3.1693
M16
G05
G00X1.9169Y-3.189
M15
G01X1.9488Y-3.2465
M16
G05
G00X2.4232Y-3.187
M15
G01X2.3913Y-3.2445
M16
G05
G00X2.4429Y-3.1445
M15
G01X2.4445Y-3.1673
M16
G05
G00X2.6413Y-3.1445
M15
G01X2.6398Y-3.1673
M16
G05
G00X2.6669Y-3.187
M15
G01X2.6988Y-3.2445
M16
G05
G00X3.1732Y-2.437
M15
G01X3.1413Y-2.4945
M16
G05
G00X3.1929Y-2.3945
M15
G01X3.1945Y-2.4173
M16
G05
G00X3.3913Y-2.3945
M15
G01X3.3898Y-2.4173
M16
G05
G00X3.4169Y-2.437
M15
G01X3.4488Y-2.4945
M16
G05
G00X1.6732Y-1.687
M15
G01X1.6413Y-1.7445
M16
G05
G00X1.6929Y-1.6445
M15
G01X1.6945Y-1.6673
M16
G05
G00X1.8913Y-1.6445
M15
G01X1.8898Y-1.6673
M16
G05
G00X1.9169Y-1.687
M15
G01X1.9488Y-1.7445
M16
G05
G00X3.9232Y-2.437
M15
G01X3.8913Y-2.4945
M16
G05
G00X3.9429Y-2.3945
M15
G01X3.9445Y-2.4173
M16
G05
G00X4.1413Y-2.3945
M15
G01X4.1398Y-2.4173
M16
G05
G00X4.1669Y-2.437
M15
G01X4.1988Y-2.4945
M16
G05
G00X5.4232Y-1.687
M15
G01X5.3913Y-1.7445
M16
G05
G00X5.4429Y-1.6445
M15
G01X5.4445Y-1.6673
M16
G05
G00X5.6413Y-1.6445
M15
G01X5.6398Y-1.6673
M16
G05
G00X5.6669Y-1.687
M15
G01X5.6988Y-1.7445
M16
G05
G00X3.9232Y-3.937
M15
G01X3.8913Y-3.9945
M16
G05
G00X3.9429Y-3.8945
M15
G01X3.9445Y-3.9173
M16
G05
G00X4.1413Y-3.8945
M15
G01X4.1398Y-3.9173
M16
G05
G00X4.1669Y-3.937
M15
G01X4.1988Y-3.9945
M16
G05
G00X3.1732Y-3.187
M15
G01X3.1413Y-3.2445
M16
G05
G00X3.1929Y-3.1445
M15
G01X3.1945Y-3.1673
M16
G05
G00X3.3913Y-3.1445
M15
G01X3.3898Y-3.1673
M16
G05
G00X3.4169Y-3.187
M15
G01X3.4488Y-3.2445
M16
G05
G00X5.4232Y-2.437
M15
G01X5.3913Y-2.4945
M16
G05
G00X5.4429Y-2.3945
M15
G01X5.4445Y-2.4173
M16
G05
G00X5.6413Y-2.3945
M15
G01X5.6398Y-2.4173
M16
G05
G00X5.6669Y-2.437
M15
G01X5.6988Y-2.4945
M16
G05
G00X3.1732Y-1.687
M15
G01X3.1413Y-1.7445
M16
G05
G00X3.1929Y-1.6445
M15
G01X3.1945Y-1.6673
M16
G05
G00X3.3913Y-1.6445
M15
G01X3.3898Y-1.6673
M16
G05
G00X3.4169Y-1.687
M15
G01X3.4488Y-1.7445
M16
G05
G00X2.4232Y-3.937
M15
G01X2.3913Y-3.9945
M16
G05
G00X2.4429Y-3.8945
M15
G01X2.4445Y-3.9173
M16
G05
G00X2.6413Y-3.8945
M15
G01X2.6398Y-3.9173
M16
G05
G00X2.6669Y-3.937
M15
G01X2.6988Y-3.9945
M16
G05
G00X5.4232Y-3.937
M15
G01X5.3913Y-3.9945
M16
G05
G00X5.4429Y-3.8945
M15
G01X5.4445Y-3.9173
M16
G05
G00X5.6413Y-3.8945
M15
G01X5.6398Y-3.9173
M16
G05
G00X5.6669Y-3.937
M15
G01X5.6988Y-3.9945
M16
G05
G00X2.4232Y-1.687
M15
G01X2.3913Y-1.7445
M16
G05
G00X2.4429Y-1.6445
M15
G01X2.4445Y-1.6673
M16
G05
G00X2.6413Y-1.6445
M15
G01X2.6398Y-1.6673
M16
G05
G00X2.6669Y-1.687
M15
G01X2.6988Y-1.7445
M16
G05
G00X3.9232Y-1.687
M15
G01X3.8913Y-1.7445
M16
G05
G00X3.9429Y-1.6445
M15
G01X3.9445Y-1.6673
M16
G05
G00X4.1413Y-1.6445
M15
G01X4.1398Y-1.6673
M16
G05
G00X4.1669Y-1.687
M15
G01X4.1988Y-1.7445
M16
G05
G00X4.6732Y-1.687
M15
G01X4.6413Y-1.7445
M16
G05
G00X4.6929Y-1.6445
M15
G01X4.6945Y-1.6673
M16
G05
G00X4.8913Y-1.6445
M15
G01X4.8898Y-1.6673
M16
G05
G00X4.9169Y-1.687
M15
G01X4.9488Y-1.7445
M16
G05
G00X4.6732Y-3.937
M15
G01X4.6413Y-3.9945
M16
G05
G00X4.6929Y-3.8945
M15
G01X4.6945Y-3.9173
M16
G05
G00X4.8913Y-3.8945
M15
G01X4.8898Y-3.9173
M16
G05
G00X4.9169Y-3.937
M15
G01X4.9488Y-3.9945
M16
G05
G00X2.4232Y-2.437
M15
G01X2.3913Y-2.4945
M16
G05
G00X2.4429Y-2.3945
M15
G01X2.4445Y-2.4173
M16
G05
G00X2.6413Y-2.3945
M15
G01X2.6398Y-2.4173
M16
G05
G00X2.6669Y-2.437
M15
G01X2.6988Y-2.4945
M16
G05
T7
G00X1.5705Y-4.1056
M15
G01X1.5705Y-4.0938
M16
G05
G00X2.0114Y-4.1056
M15
G01X2.0114Y-4.0938
M16
G05
G00X5.3211Y-4.1001
M15
G01X5.3211Y-4.0883
M16
G05
G00X5.762Y-4.1001
M15
G01X5.762Y-4.0883
M16
G05
T0
M30
