M48
; DRILL file {KiCad (5.1.4)-1} date 3/19/2020 8:31:04 PM
; FORMAT={-:-/ absolute / inch / decimal}
; #@! TF.CreationDate,2020-03-19T20:31:04-05:00
; #@! TF.GenerationSoftware,Kicad,Pcbnew,(5.1.4)-1
; #@! TF.FileFunction,NonPlated,1,2,NPTH
FMAT,2
INCH
T1C0.0390
T2C0.0670
T3C0.1570
%
G90
G05
T1
X5.1831Y-1.4073
X5.1831Y-1.6043
T2
X1.5913Y-4.1004
X1.9913Y-4.1004
X1.5933Y-2.5965
X1.9933Y-2.5965
X3.8413Y-3.3445
X4.2413Y-3.3445
X4.5913Y-3.3445
X4.9913Y-3.3445
X4.5913Y-2.5945
X4.9913Y-2.5945
X5.3413Y-3.3445
X5.7413Y-3.3445
X1.5913Y-3.3465
X1.9913Y-3.3465
X2.3413Y-3.3445
X2.7413Y-3.3445
X3.0913Y-2.5945
X3.4913Y-2.5945
X1.5913Y-1.8445
X1.9913Y-1.8445
X3.8413Y-2.5945
X4.2413Y-2.5945
X5.3413Y-1.8445
X5.7413Y-1.8445
X3.8413Y-4.0945
X4.2413Y-4.0945
X3.0913Y-3.3445
X3.4913Y-3.3445
X5.3413Y-2.5945
X5.7413Y-2.5945
X3.0913Y-1.8445
X3.4913Y-1.8445
X2.3413Y-4.0945
X2.7413Y-4.0945
X5.3413Y-4.0945
X5.7413Y-4.0945
X2.3413Y-1.8445
X2.7413Y-1.8445
X3.8413Y-1.8445
X4.2413Y-1.8445
X4.5913Y-1.8445
X4.9913Y-1.8445
X4.5913Y-4.0945
X4.9913Y-4.0945
X2.3413Y-2.5945
X2.7413Y-2.5945
X3.0913Y-4.0945
X3.4913Y-4.0945
T3
X1.7913Y-4.1004
X1.7933Y-2.5965
X4.0413Y-3.3445
X4.7913Y-3.3445
X4.7913Y-2.5945
X5.5413Y-3.3445
X1.7913Y-3.3465
X2.5413Y-3.3445
X3.2913Y-2.5945
X1.7913Y-1.8445
X4.0413Y-2.5945
X5.5413Y-1.8445
X4.0413Y-4.0945
X3.2913Y-3.3445
X5.5413Y-2.5945
X3.2913Y-1.8445
X2.5413Y-4.0945
X5.5413Y-4.0945
X2.5413Y-1.8445
X4.0413Y-1.8445
X4.7913Y-1.8445
X4.7913Y-4.0945
X2.5413Y-2.5945
X3.2913Y-4.0945
T0
M30
