G04 #@! TF.GenerationSoftware,KiCad,Pcbnew,(5.1.4)-1*
G04 #@! TF.CreationDate,2020-03-19T20:30:50-05:00*
G04 #@! TF.ProjectId,lets_split,6c657473-5f73-4706-9c69-742e6b696361,rev?*
G04 #@! TF.SameCoordinates,Original*
G04 #@! TF.FileFunction,Soldermask,Bot*
G04 #@! TF.FilePolarity,Negative*
%FSLAX46Y46*%
G04 Gerber Fmt 4.6, Leading zero omitted, Abs format (unit mm)*
G04 Created by KiCad (PCBNEW (5.1.4)-1) date 2020-03-19 20:30:50*
%MOMM*%
%LPD*%
G04 APERTURE LIST*
%ADD10C,2.900000*%
%ADD11C,2.900000*%
%ADD12C,4.387810*%
%ADD13C,2.101810*%
%ADD14C,2.152600*%
%ADD15R,2.152600X2.152600*%
%ADD16R,2.600000X2.600000*%
%ADD17O,2.600000X2.600000*%
%ADD18R,2.400000X2.400000*%
%ADD19C,2.400000*%
%ADD20O,2.700000X2.900000*%
%ADD21C,1.924000*%
%ADD22C,1.390600*%
%ADD23O,2.457400X2.152600*%
%ADD24C,8.400000*%
%ADD25C,3.400000*%
%ADD26R,1.900000X1.400000*%
G04 APERTURE END LIST*
D10*
X81120000Y-80160000D03*
D11*
X81100276Y-79870672D02*
X81139724Y-80449328D01*
D10*
X87195000Y-81680000D03*
D11*
X86790184Y-80949693D02*
X87599816Y-82410307D01*
D12*
X83600000Y-84950000D03*
D13*
X78520000Y-84950000D03*
X88680000Y-84950000D03*
D10*
X80195000Y-81680000D03*
D11*
X80600453Y-80950046D02*
X79789547Y-82409954D01*
D10*
X86120000Y-80160000D03*
D11*
X86139724Y-79870672D02*
X86100276Y-80449328D01*
D14*
X56896000Y-43434000D03*
X56896000Y-45974000D03*
X56896000Y-35814000D03*
X56896000Y-38354000D03*
X56896000Y-40894000D03*
X56896000Y-48514000D03*
X56896000Y-51054000D03*
X56896000Y-53594000D03*
X56896000Y-56134000D03*
X56896000Y-58674000D03*
X56896000Y-61214000D03*
X56896000Y-63754000D03*
X72136000Y-63754000D03*
X72136000Y-61214000D03*
X72136000Y-58674000D03*
X72136000Y-56134000D03*
X72136000Y-53594000D03*
X72136000Y-51054000D03*
X72136000Y-48514000D03*
X72136000Y-45974000D03*
X72136000Y-43434000D03*
X72136000Y-40894000D03*
X72136000Y-38354000D03*
D15*
X72136000Y-35814000D03*
D16*
X54356000Y-52578000D03*
D17*
X54356000Y-42418000D03*
D16*
X40386000Y-56388000D03*
D17*
X50546000Y-56388000D03*
D16*
X55000000Y-88750000D03*
D17*
X55000000Y-78590000D03*
D16*
X39116000Y-94234000D03*
D17*
X49276000Y-94234000D03*
D16*
X74676000Y-52070000D03*
D17*
X74676000Y-41910000D03*
D16*
X54610000Y-70104000D03*
D17*
X54610000Y-59944000D03*
D16*
X74050000Y-89950000D03*
D17*
X74050000Y-79790000D03*
D16*
X55118000Y-110236000D03*
D17*
X55118000Y-100076000D03*
D16*
X93250000Y-52250000D03*
D17*
X93250000Y-42090000D03*
D16*
X74422000Y-70104000D03*
D17*
X74422000Y-59944000D03*
D16*
X93218000Y-90424000D03*
D17*
X93218000Y-80264000D03*
D16*
X74168000Y-108712000D03*
D17*
X74168000Y-98552000D03*
D16*
X112200000Y-52250000D03*
D17*
X112200000Y-42090000D03*
D16*
X93218000Y-71300000D03*
D17*
X93218000Y-61140000D03*
D16*
X112300000Y-90400000D03*
D17*
X112300000Y-80240000D03*
D16*
X93218000Y-108712000D03*
D17*
X93218000Y-98552000D03*
D16*
X131318000Y-72390000D03*
D17*
X131318000Y-62230000D03*
D16*
X112014000Y-71374000D03*
D17*
X112014000Y-61214000D03*
X131250000Y-78740000D03*
D16*
X131250000Y-88900000D03*
X112268000Y-108712000D03*
D17*
X112268000Y-98552000D03*
D16*
X136906000Y-56388000D03*
D17*
X147066000Y-56388000D03*
D16*
X135636000Y-75438000D03*
D17*
X145796000Y-75438000D03*
D16*
X136906000Y-94234000D03*
D17*
X147066000Y-94234000D03*
D16*
X131318000Y-110236000D03*
D17*
X131318000Y-100076000D03*
D18*
X42989500Y-111633000D03*
D19*
X45489500Y-111633000D03*
X47989500Y-111633000D03*
D20*
X39889500Y-104133000D03*
X51089500Y-104133000D03*
D19*
X42989500Y-97133000D03*
X47989500Y-97133000D03*
D18*
X138256000Y-111493300D03*
D19*
X140756000Y-111493300D03*
X143256000Y-111493300D03*
D20*
X135156000Y-103993300D03*
X146356000Y-103993300D03*
D19*
X138256000Y-96993300D03*
X143256000Y-96993300D03*
D21*
X137410000Y-53110000D03*
X137390000Y-49100000D03*
X137410000Y-51110000D03*
D22*
X131650000Y-40749400D03*
X131650000Y-35745600D03*
D14*
X135256800Y-40749400D03*
X130049800Y-43848200D03*
D23*
X127001800Y-35745600D03*
D14*
X133250200Y-43848200D03*
X128043200Y-40749400D03*
D23*
X136298200Y-35745600D03*
D21*
X125660000Y-53010000D03*
X125640000Y-49000000D03*
X125660000Y-51010000D03*
D24*
X131350000Y-94550000D03*
X55000000Y-94500000D03*
X51850000Y-37300000D03*
X131200000Y-56450000D03*
D25*
X131000000Y-48000000D03*
D10*
X138270000Y-99210000D03*
D11*
X138250276Y-98920672D02*
X138289724Y-99499328D01*
D10*
X144345000Y-100730000D03*
D11*
X143940184Y-99999693D02*
X144749816Y-101460307D01*
D12*
X140750000Y-104000000D03*
D13*
X135670000Y-104000000D03*
X145830000Y-104000000D03*
D10*
X137345000Y-100730000D03*
D11*
X137750453Y-100000046D02*
X136939547Y-101459954D01*
D10*
X143270000Y-99210000D03*
D11*
X143289724Y-98920672D02*
X143250276Y-99499328D01*
D10*
X138270000Y-80160000D03*
D11*
X138250276Y-79870672D02*
X138289724Y-80449328D01*
D10*
X144345000Y-81680000D03*
D11*
X143940184Y-80949693D02*
X144749816Y-82410307D01*
D12*
X140750000Y-84950000D03*
D13*
X135670000Y-84950000D03*
X145830000Y-84950000D03*
D10*
X137345000Y-81680000D03*
D11*
X137750453Y-80950046D02*
X136939547Y-82409954D01*
D10*
X143270000Y-80160000D03*
D11*
X143289724Y-79870672D02*
X143250276Y-80449328D01*
D10*
X138270000Y-61110000D03*
D11*
X138250276Y-60820672D02*
X138289724Y-61399328D01*
D10*
X144345000Y-62630000D03*
D11*
X143940184Y-61899693D02*
X144749816Y-63360307D01*
D12*
X140750000Y-65900000D03*
D13*
X135670000Y-65900000D03*
X145830000Y-65900000D03*
D10*
X137345000Y-62630000D03*
D11*
X137750453Y-61900046D02*
X136939547Y-63359954D01*
D10*
X143270000Y-61110000D03*
D11*
X143289724Y-60820672D02*
X143250276Y-61399328D01*
D10*
X138270000Y-42060000D03*
D11*
X138250276Y-41770672D02*
X138289724Y-42349328D01*
D10*
X144345000Y-43580000D03*
D11*
X143940184Y-42849693D02*
X144749816Y-44310307D01*
D12*
X140750000Y-46850000D03*
D13*
X135670000Y-46850000D03*
X145830000Y-46850000D03*
D10*
X137345000Y-43580000D03*
D11*
X137750453Y-42850046D02*
X136939547Y-44309954D01*
D10*
X143270000Y-42060000D03*
D11*
X143289724Y-41770672D02*
X143250276Y-42349328D01*
D10*
X119220000Y-99210000D03*
D11*
X119200276Y-98920672D02*
X119239724Y-99499328D01*
D10*
X125295000Y-100730000D03*
D11*
X124890184Y-99999693D02*
X125699816Y-101460307D01*
D12*
X121700000Y-104000000D03*
D13*
X116620000Y-104000000D03*
X126780000Y-104000000D03*
D10*
X118295000Y-100730000D03*
D11*
X118700453Y-100000046D02*
X117889547Y-101459954D01*
D10*
X124220000Y-99210000D03*
D11*
X124239724Y-98920672D02*
X124200276Y-99499328D01*
D10*
X119220000Y-80160000D03*
D11*
X119200276Y-79870672D02*
X119239724Y-80449328D01*
D10*
X125295000Y-81680000D03*
D11*
X124890184Y-80949693D02*
X125699816Y-82410307D01*
D12*
X121700000Y-84950000D03*
D13*
X116620000Y-84950000D03*
X126780000Y-84950000D03*
D10*
X118295000Y-81680000D03*
D11*
X118700453Y-80950046D02*
X117889547Y-82409954D01*
D10*
X124220000Y-80160000D03*
D11*
X124239724Y-79870672D02*
X124200276Y-80449328D01*
D10*
X119220000Y-61110000D03*
D11*
X119200276Y-60820672D02*
X119239724Y-61399328D01*
D10*
X125295000Y-62630000D03*
D11*
X124890184Y-61899693D02*
X125699816Y-63360307D01*
D12*
X121700000Y-65900000D03*
D13*
X116620000Y-65900000D03*
X126780000Y-65900000D03*
D10*
X118295000Y-62630000D03*
D11*
X118700453Y-61900046D02*
X117889547Y-63359954D01*
D10*
X124220000Y-61110000D03*
D11*
X124239724Y-60820672D02*
X124200276Y-61399328D01*
D10*
X119220000Y-42060000D03*
D11*
X119200276Y-41770672D02*
X119239724Y-42349328D01*
D10*
X125295000Y-43580000D03*
D11*
X124890184Y-42849693D02*
X125699816Y-44310307D01*
D12*
X121700000Y-46850000D03*
D13*
X116620000Y-46850000D03*
X126780000Y-46850000D03*
D10*
X118295000Y-43580000D03*
D11*
X118700453Y-42850046D02*
X117889547Y-44309954D01*
D10*
X124220000Y-42060000D03*
D11*
X124239724Y-41770672D02*
X124200276Y-42349328D01*
D10*
X100170000Y-99210000D03*
D11*
X100150276Y-98920672D02*
X100189724Y-99499328D01*
D10*
X106245000Y-100730000D03*
D11*
X105840184Y-99999693D02*
X106649816Y-101460307D01*
D12*
X102650000Y-104000000D03*
D13*
X97570000Y-104000000D03*
X107730000Y-104000000D03*
D10*
X99245000Y-100730000D03*
D11*
X99650453Y-100000046D02*
X98839547Y-101459954D01*
D10*
X105170000Y-99210000D03*
D11*
X105189724Y-98920672D02*
X105150276Y-99499328D01*
D10*
X100170000Y-80160000D03*
D11*
X100150276Y-79870672D02*
X100189724Y-80449328D01*
D10*
X106245000Y-81680000D03*
D11*
X105840184Y-80949693D02*
X106649816Y-82410307D01*
D12*
X102650000Y-84950000D03*
D13*
X97570000Y-84950000D03*
X107730000Y-84950000D03*
D10*
X99245000Y-81680000D03*
D11*
X99650453Y-80950046D02*
X98839547Y-82409954D01*
D10*
X105170000Y-80160000D03*
D11*
X105189724Y-79870672D02*
X105150276Y-80449328D01*
D10*
X100170000Y-61110000D03*
D11*
X100150276Y-60820672D02*
X100189724Y-61399328D01*
D10*
X106245000Y-62630000D03*
D11*
X105840184Y-61899693D02*
X106649816Y-63360307D01*
D12*
X102650000Y-65900000D03*
D13*
X97570000Y-65900000D03*
X107730000Y-65900000D03*
D10*
X99245000Y-62630000D03*
D11*
X99650453Y-61900046D02*
X98839547Y-63359954D01*
D10*
X105170000Y-61110000D03*
D11*
X105189724Y-60820672D02*
X105150276Y-61399328D01*
D10*
X100170000Y-42060000D03*
D11*
X100150276Y-41770672D02*
X100189724Y-42349328D01*
D10*
X106245000Y-43580000D03*
D11*
X105840184Y-42849693D02*
X106649816Y-44310307D01*
D12*
X102650000Y-46850000D03*
D13*
X97570000Y-46850000D03*
X107730000Y-46850000D03*
D10*
X99245000Y-43580000D03*
D11*
X99650453Y-42850046D02*
X98839547Y-44309954D01*
D10*
X105170000Y-42060000D03*
D11*
X105189724Y-41770672D02*
X105150276Y-42349328D01*
D10*
X81120000Y-99210000D03*
D11*
X81100276Y-98920672D02*
X81139724Y-99499328D01*
D10*
X87195000Y-100730000D03*
D11*
X86790184Y-99999693D02*
X87599816Y-101460307D01*
D12*
X83600000Y-104000000D03*
D13*
X78520000Y-104000000D03*
X88680000Y-104000000D03*
D10*
X80195000Y-100730000D03*
D11*
X80600453Y-100000046D02*
X79789547Y-101459954D01*
D10*
X86120000Y-99210000D03*
D11*
X86139724Y-98920672D02*
X86100276Y-99499328D01*
D10*
X81120000Y-61110000D03*
D11*
X81100276Y-60820672D02*
X81139724Y-61399328D01*
D10*
X87195000Y-62630000D03*
D11*
X86790184Y-61899693D02*
X87599816Y-63360307D01*
D12*
X83600000Y-65900000D03*
D13*
X78520000Y-65900000D03*
X88680000Y-65900000D03*
D10*
X80195000Y-62630000D03*
D11*
X80600453Y-61900046D02*
X79789547Y-63359954D01*
D10*
X86120000Y-61110000D03*
D11*
X86139724Y-60820672D02*
X86100276Y-61399328D01*
D10*
X81120000Y-42060000D03*
D11*
X81100276Y-41770672D02*
X81139724Y-42349328D01*
D10*
X87195000Y-43580000D03*
D11*
X86790184Y-42849693D02*
X87599816Y-44310307D01*
D12*
X83600000Y-46850000D03*
D13*
X78520000Y-46850000D03*
X88680000Y-46850000D03*
D10*
X80195000Y-43580000D03*
D11*
X80600453Y-42850046D02*
X79789547Y-44309954D01*
D10*
X86120000Y-42060000D03*
D11*
X86139724Y-41770672D02*
X86100276Y-42349328D01*
D10*
X62070000Y-99210000D03*
D11*
X62050276Y-98920672D02*
X62089724Y-99499328D01*
D10*
X68145000Y-100730000D03*
D11*
X67740184Y-99999693D02*
X68549816Y-101460307D01*
D12*
X64550000Y-104000000D03*
D13*
X59470000Y-104000000D03*
X69630000Y-104000000D03*
D10*
X61145000Y-100730000D03*
D11*
X61550453Y-100000046D02*
X60739547Y-101459954D01*
D10*
X67070000Y-99210000D03*
D11*
X67089724Y-98920672D02*
X67050276Y-99499328D01*
D10*
X62070000Y-80160000D03*
D11*
X62050276Y-79870672D02*
X62089724Y-80449328D01*
D10*
X68145000Y-81680000D03*
D11*
X67740184Y-80949693D02*
X68549816Y-82410307D01*
D12*
X64550000Y-84950000D03*
D13*
X59470000Y-84950000D03*
X69630000Y-84950000D03*
D10*
X61145000Y-81680000D03*
D11*
X61550453Y-80950046D02*
X60739547Y-82409954D01*
D10*
X67070000Y-80160000D03*
D11*
X67089724Y-79870672D02*
X67050276Y-80449328D01*
D10*
X62070000Y-61110000D03*
D11*
X62050276Y-60820672D02*
X62089724Y-61399328D01*
D10*
X68145000Y-62630000D03*
D11*
X67740184Y-61899693D02*
X68549816Y-63360307D01*
D12*
X64550000Y-65900000D03*
D13*
X59470000Y-65900000D03*
X69630000Y-65900000D03*
D10*
X61145000Y-62630000D03*
D11*
X61550453Y-61900046D02*
X60739547Y-63359954D01*
D10*
X67070000Y-61110000D03*
D11*
X67089724Y-60820672D02*
X67050276Y-61399328D01*
D10*
X62070000Y-42060000D03*
D11*
X62050276Y-41770672D02*
X62089724Y-42349328D01*
D10*
X68145000Y-43580000D03*
D11*
X67740184Y-42849693D02*
X68549816Y-44310307D01*
D12*
X64550000Y-46850000D03*
D13*
X59470000Y-46850000D03*
X69630000Y-46850000D03*
D10*
X61145000Y-43580000D03*
D11*
X61550453Y-42850046D02*
X60739547Y-44309954D01*
D10*
X67070000Y-42060000D03*
D11*
X67089724Y-41770672D02*
X67050276Y-42349328D01*
D10*
X43020000Y-99360000D03*
D11*
X43000276Y-99070672D02*
X43039724Y-99649328D01*
D10*
X49095000Y-100880000D03*
D11*
X48690184Y-100149693D02*
X49499816Y-101610307D01*
D12*
X45500000Y-104150000D03*
D13*
X40420000Y-104150000D03*
X50580000Y-104150000D03*
D10*
X42095000Y-100880000D03*
D11*
X42500453Y-100150046D02*
X41689547Y-101609954D01*
D10*
X48020000Y-99360000D03*
D11*
X48039724Y-99070672D02*
X48000276Y-99649328D01*
D10*
X43020000Y-80210000D03*
D11*
X43000276Y-79920672D02*
X43039724Y-80499328D01*
D10*
X49095000Y-81730000D03*
D11*
X48690184Y-80999693D02*
X49499816Y-82460307D01*
D12*
X45500000Y-85000000D03*
D13*
X40420000Y-85000000D03*
X50580000Y-85000000D03*
D10*
X42095000Y-81730000D03*
D11*
X42500453Y-81000046D02*
X41689547Y-82459954D01*
D10*
X48020000Y-80210000D03*
D11*
X48039724Y-79920672D02*
X48000276Y-80499328D01*
D10*
X43070000Y-61160000D03*
D11*
X43050276Y-60870672D02*
X43089724Y-61449328D01*
D10*
X49145000Y-62680000D03*
D11*
X48740184Y-61949693D02*
X49549816Y-63410307D01*
D12*
X45550000Y-65950000D03*
D13*
X40470000Y-65950000D03*
X50630000Y-65950000D03*
D10*
X42145000Y-62680000D03*
D11*
X42550453Y-61950046D02*
X41739547Y-63409954D01*
D10*
X48070000Y-61160000D03*
D11*
X48089724Y-60870672D02*
X48050276Y-61449328D01*
D10*
X43020000Y-42060000D03*
D11*
X43000276Y-41770672D02*
X43039724Y-42349328D01*
D10*
X49095000Y-43580000D03*
D11*
X48690184Y-42849693D02*
X49499816Y-44310307D01*
D12*
X45500000Y-46850000D03*
D13*
X40420000Y-46850000D03*
X50580000Y-46850000D03*
D10*
X42095000Y-43580000D03*
D11*
X42500453Y-42850046D02*
X41689547Y-44309954D01*
D10*
X48020000Y-42060000D03*
D11*
X48039724Y-41770672D02*
X48000276Y-42349328D01*
D26*
X62066000Y-37668000D03*
X62066000Y-34468000D03*
X66966000Y-37668000D03*
X66966000Y-34468000D03*
M02*
