M48
;DRILL file {KiCad (5.0.1)-3} date 11/19/2018 10:52:40 PM
;FORMAT={-:-/ absolute / inch / decimal}
FMAT,2
INCH,TZ
T1C0.0157
T2C0.0394
T3C0.0400
T4C0.0433
T5C0.0500
T6C0.0551
%
G90
G05
M72
T1
X1.793Y-1.7156
X1.813Y-3.2992
X1.863Y-1.7892
X1.988Y-2.9492
X2.0094Y-2.7207
X2.013Y-3.3492
X2.013Y-3.4742
X2.038Y-2.3739
X2.038Y-2.8242
X2.453Y-3.7935
X2.453Y-3.9992
X2.503Y-2.1992
X2.628Y-2.0242
X2.628Y-2.1242
X2.678Y-2.1992
X2.713Y-3.9992
X2.723Y-3.7675
X2.838Y-3.9992
X2.853Y-2.1992
X2.903Y-1.8992
X3.403Y-3.2192
X3.423Y-2.9992
X3.423Y-3.0992
X3.663Y-3.0192
X3.663Y-3.1192
X3.663Y-3.1892
X3.918Y-1.6242
X3.963Y-3.6492
X3.963Y-3.6992
X3.993Y-2.1392
X4.023Y-2.0992
X4.053Y-1.7492
X4.053Y-1.7892
X4.053Y-1.8292
X4.053Y-2.1392
X4.093Y-1.7492
X4.093Y-1.7892
X4.093Y-1.8292
X4.133Y-1.7492
X4.133Y-1.7892
X4.133Y-1.8292
X4.188Y-3.6492
X4.223Y-1.2388
X4.233Y-1.7392
X4.233Y-1.7992
X4.273Y-1.2992
X4.303Y-1.7392
X4.338Y-3.6742
X4.343Y-1.1392
X4.363Y-1.7392
X4.383Y-3.1592
X4.413Y-3.1192
X4.4226Y-3.2542
X4.453Y-3.2792
X4.4612Y-3.212
X4.463Y-1.7992
X4.4631Y-1.9687
X4.483Y-3.1792
X4.4943Y-3.3992
X4.503Y-1.7992
X4.5035Y-1.9687
X4.533Y-1.1542
X4.543Y-2.6192
X4.5502Y-3.1374
X4.553Y-1.2492
X4.583Y-3.1592
X4.6064Y-1.2475
X4.613Y-3.1992
X4.613Y-3.4492
X4.6201Y-2.5492
X4.6222Y-1.1507
X4.653Y-1.2492
T2
X1.85Y-1.95
X1.85Y-2.05
X1.85Y-2.15
X1.85Y-2.25
T3
X3.763Y-3.2492
X3.763Y-3.3492
X1.563Y-1.5492
X1.563Y-1.6492
X1.563Y-1.7492
X1.563Y-1.8492
X1.563Y-1.9492
X1.563Y-2.0492
X1.563Y-2.1492
X1.563Y-2.2492
X1.563Y-2.3492
X1.563Y-2.4492
X1.563Y-2.5492
X1.563Y-2.6492
X1.563Y-2.7492
X1.563Y-2.8492
X1.563Y-2.9492
X1.563Y-3.0492
X1.563Y-3.1492
X1.563Y-3.2492
X1.563Y-3.3492
X1.563Y-3.4492
X1.563Y-3.5492
X1.563Y-3.6492
X1.563Y-3.7492
X1.663Y-1.5492
X1.663Y-1.6492
X1.663Y-1.7492
X1.663Y-1.8492
X1.663Y-1.9492
X1.663Y-2.0492
X1.663Y-2.1492
X1.663Y-2.2492
X1.663Y-2.3492
X1.663Y-2.4492
X1.663Y-2.5492
X1.663Y-2.6492
X1.663Y-2.7492
X1.663Y-2.8492
X1.663Y-2.9492
X1.663Y-3.0492
X1.663Y-3.1492
X1.663Y-3.2492
X1.663Y-3.3492
X1.663Y-3.4492
X1.663Y-3.5492
X1.663Y-3.6492
X1.663Y-3.7492
X3.463Y-1.5492
X3.463Y-1.6492
X3.463Y-1.7492
X3.463Y-1.8492
X3.463Y-1.9492
X3.463Y-2.0492
X3.463Y-2.1492
X3.463Y-2.2492
X3.463Y-2.3492
X3.463Y-2.4492
X3.463Y-2.5492
X3.463Y-2.6492
X3.463Y-2.7492
X3.463Y-2.8492
X3.463Y-2.9492
X3.463Y-3.0492
X3.463Y-3.1492
X3.463Y-3.2492
X3.463Y-3.3492
X3.463Y-3.4492
X3.463Y-3.5492
X3.463Y-3.6492
X3.463Y-3.7492
X3.563Y-1.5492
X3.563Y-1.6492
X3.563Y-1.7492
X3.563Y-1.8492
X3.563Y-1.9492
X3.563Y-2.0492
X3.563Y-2.1492
X3.563Y-2.2492
X3.563Y-2.3492
X3.563Y-2.4492
X3.563Y-2.5492
X3.563Y-2.6492
X3.563Y-2.7492
X3.563Y-2.8492
X3.563Y-2.9492
X3.563Y-3.0492
X3.563Y-3.1492
X3.563Y-3.2492
X3.563Y-3.3492
X3.563Y-3.4492
X3.563Y-3.5492
X3.563Y-3.6492
X3.563Y-3.7492
T4
X3.863Y-1.1492
X3.863Y-1.2673
X3.9811Y-1.1492
X3.9811Y-1.2673
X4.0992Y-1.1492
X4.0992Y-1.2673
X3.263Y-0.9292
X3.363Y-0.9292
X3.463Y-0.9292
X3.563Y-0.9292
T5
X3.963Y-3.7692
X4.063Y-3.7692
X4.163Y-3.7692
X4.263Y-3.7692
X4.363Y-3.7692
X4.463Y-3.7692
X4.563Y-3.7692
X4.663Y-3.7692
X4.763Y-3.7692
T6
X4.5861Y-1.5743
X4.5861Y-1.7317
X4.5861Y-1.8892
X4.783Y-1.5743
X4.783Y-1.7317
X4.783Y-1.8892
T0
M30
