G04 #@! TF.GenerationSoftware,KiCad,Pcbnew,(5.0.1)-3*
G04 #@! TF.CreationDate,2018-11-19T22:52:35-06:00*
G04 #@! TF.ProjectId,19-ELC-2700(Telemetry),31392D454C432D323730302854656C65,rev?*
G04 #@! TF.SameCoordinates,Original*
G04 #@! TF.FileFunction,Legend,Top*
G04 #@! TF.FilePolarity,Positive*
%FSLAX46Y46*%
G04 Gerber Fmt 4.6, Leading zero omitted, Abs format (unit mm)*
G04 Created by KiCad (PCBNEW (5.0.1)-3) date 11/19/2018 10:52:35 PM*
%MOMM*%
%LPD*%
G01*
G04 APERTURE LIST*
%ADD10C,0.127000*%
%ADD11C,0.254000*%
%ADD12C,0.300000*%
%ADD13C,0.150000*%
%ADD14C,0.120000*%
%ADD15C,0.100000*%
%ADD16C,0.010000*%
G04 APERTURE END LIST*
D10*
X90119000Y-29262571D02*
X90082714Y-29335142D01*
X90082714Y-29444000D01*
X90119000Y-29552857D01*
X90191571Y-29625428D01*
X90264142Y-29661714D01*
X90409285Y-29698000D01*
X90518142Y-29698000D01*
X90663285Y-29661714D01*
X90735857Y-29625428D01*
X90808428Y-29552857D01*
X90844714Y-29444000D01*
X90844714Y-29371428D01*
X90808428Y-29262571D01*
X90772142Y-29226285D01*
X90518142Y-29226285D01*
X90518142Y-29371428D01*
X90844714Y-28899714D02*
X90082714Y-28899714D01*
X90844714Y-28464285D01*
X90082714Y-28464285D01*
X90844714Y-28101428D02*
X90082714Y-28101428D01*
X90082714Y-27920000D01*
X90119000Y-27811142D01*
X90191571Y-27738571D01*
X90264142Y-27702285D01*
X90409285Y-27666000D01*
X90518142Y-27666000D01*
X90663285Y-27702285D01*
X90735857Y-27738571D01*
X90808428Y-27811142D01*
X90844714Y-27920000D01*
X90844714Y-28101428D01*
X88304714Y-31584857D02*
X88304714Y-32020285D01*
X88304714Y-31802571D02*
X87542714Y-31802571D01*
X87651571Y-31875142D01*
X87724142Y-31947714D01*
X87760428Y-32020285D01*
X87615285Y-31294571D02*
X87579000Y-31258285D01*
X87542714Y-31185714D01*
X87542714Y-31004285D01*
X87579000Y-30931714D01*
X87615285Y-30895428D01*
X87687857Y-30859142D01*
X87760428Y-30859142D01*
X87869285Y-30895428D01*
X88304714Y-31330857D01*
X88304714Y-30859142D01*
X87542714Y-30641428D02*
X88304714Y-30387428D01*
X87542714Y-30133428D01*
X88304714Y-28863428D02*
X87941857Y-29117428D01*
X88304714Y-29298857D02*
X87542714Y-29298857D01*
X87542714Y-29008571D01*
X87579000Y-28936000D01*
X87615285Y-28899714D01*
X87687857Y-28863428D01*
X87796714Y-28863428D01*
X87869285Y-28899714D01*
X87905571Y-28936000D01*
X87941857Y-29008571D01*
X87941857Y-29298857D01*
X88304714Y-28210285D02*
X87905571Y-28210285D01*
X87833000Y-28246571D01*
X87796714Y-28319142D01*
X87796714Y-28464285D01*
X87833000Y-28536857D01*
X88268428Y-28210285D02*
X88304714Y-28282857D01*
X88304714Y-28464285D01*
X88268428Y-28536857D01*
X88195857Y-28573142D01*
X88123285Y-28573142D01*
X88050714Y-28536857D01*
X88014428Y-28464285D01*
X88014428Y-28282857D01*
X87978142Y-28210285D01*
X87796714Y-27920000D02*
X88304714Y-27774857D01*
X87941857Y-27629714D01*
X88304714Y-27484571D01*
X87796714Y-27339428D01*
X85438142Y-31494142D02*
X85474428Y-31530428D01*
X85510714Y-31639285D01*
X85510714Y-31711857D01*
X85474428Y-31820714D01*
X85401857Y-31893285D01*
X85329285Y-31929571D01*
X85184142Y-31965857D01*
X85075285Y-31965857D01*
X84930142Y-31929571D01*
X84857571Y-31893285D01*
X84785000Y-31820714D01*
X84748714Y-31711857D01*
X84748714Y-31639285D01*
X84785000Y-31530428D01*
X84821285Y-31494142D01*
X85510714Y-30841000D02*
X85111571Y-30841000D01*
X85039000Y-30877285D01*
X85002714Y-30949857D01*
X85002714Y-31095000D01*
X85039000Y-31167571D01*
X85474428Y-30841000D02*
X85510714Y-30913571D01*
X85510714Y-31095000D01*
X85474428Y-31167571D01*
X85401857Y-31203857D01*
X85329285Y-31203857D01*
X85256714Y-31167571D01*
X85220428Y-31095000D01*
X85220428Y-30913571D01*
X85184142Y-30841000D01*
X85002714Y-30478142D02*
X85510714Y-30478142D01*
X85075285Y-30478142D02*
X85039000Y-30441857D01*
X85002714Y-30369285D01*
X85002714Y-30260428D01*
X85039000Y-30187857D01*
X85111571Y-30151571D01*
X85510714Y-30151571D01*
X85583285Y-29970142D02*
X85583285Y-29389571D01*
X85510714Y-28845285D02*
X85510714Y-29208142D01*
X84748714Y-29208142D01*
X85510714Y-28482428D02*
X85474428Y-28555000D01*
X85438142Y-28591285D01*
X85365571Y-28627571D01*
X85147857Y-28627571D01*
X85075285Y-28591285D01*
X85039000Y-28555000D01*
X85002714Y-28482428D01*
X85002714Y-28373571D01*
X85039000Y-28301000D01*
X85075285Y-28264714D01*
X85147857Y-28228428D01*
X85365571Y-28228428D01*
X85438142Y-28264714D01*
X85474428Y-28301000D01*
X85510714Y-28373571D01*
X85510714Y-28482428D01*
X85002714Y-27974428D02*
X85510714Y-27829285D01*
X85147857Y-27684142D01*
X85510714Y-27539000D01*
X85002714Y-27393857D01*
X82644142Y-31711857D02*
X82680428Y-31748142D01*
X82716714Y-31857000D01*
X82716714Y-31929571D01*
X82680428Y-32038428D01*
X82607857Y-32111000D01*
X82535285Y-32147285D01*
X82390142Y-32183571D01*
X82281285Y-32183571D01*
X82136142Y-32147285D01*
X82063571Y-32111000D01*
X81991000Y-32038428D01*
X81954714Y-31929571D01*
X81954714Y-31857000D01*
X81991000Y-31748142D01*
X82027285Y-31711857D01*
X82716714Y-31058714D02*
X82317571Y-31058714D01*
X82245000Y-31095000D01*
X82208714Y-31167571D01*
X82208714Y-31312714D01*
X82245000Y-31385285D01*
X82680428Y-31058714D02*
X82716714Y-31131285D01*
X82716714Y-31312714D01*
X82680428Y-31385285D01*
X82607857Y-31421571D01*
X82535285Y-31421571D01*
X82462714Y-31385285D01*
X82426428Y-31312714D01*
X82426428Y-31131285D01*
X82390142Y-31058714D01*
X82208714Y-30695857D02*
X82716714Y-30695857D01*
X82281285Y-30695857D02*
X82245000Y-30659571D01*
X82208714Y-30587000D01*
X82208714Y-30478142D01*
X82245000Y-30405571D01*
X82317571Y-30369285D01*
X82716714Y-30369285D01*
X82789285Y-30187857D02*
X82789285Y-29607285D01*
X82716714Y-29425857D02*
X81954714Y-29425857D01*
X82317571Y-29425857D02*
X82317571Y-28990428D01*
X82716714Y-28990428D02*
X81954714Y-28990428D01*
X82716714Y-28627571D02*
X82208714Y-28627571D01*
X81954714Y-28627571D02*
X81991000Y-28663857D01*
X82027285Y-28627571D01*
X81991000Y-28591285D01*
X81954714Y-28627571D01*
X82027285Y-28627571D01*
X82208714Y-27938142D02*
X82825571Y-27938142D01*
X82898142Y-27974428D01*
X82934428Y-28010714D01*
X82970714Y-28083285D01*
X82970714Y-28192142D01*
X82934428Y-28264714D01*
X82680428Y-27938142D02*
X82716714Y-28010714D01*
X82716714Y-28155857D01*
X82680428Y-28228428D01*
X82644142Y-28264714D01*
X82571571Y-28301000D01*
X82353857Y-28301000D01*
X82281285Y-28264714D01*
X82245000Y-28228428D01*
X82208714Y-28155857D01*
X82208714Y-28010714D01*
X82245000Y-27938142D01*
X82716714Y-27575285D02*
X81954714Y-27575285D01*
X82716714Y-27248714D02*
X82317571Y-27248714D01*
X82245000Y-27285000D01*
X82208714Y-27357571D01*
X82208714Y-27466428D01*
X82245000Y-27539000D01*
X82281285Y-27575285D01*
D11*
X95534642Y-99493571D02*
X94881500Y-99493571D01*
X95208071Y-99493571D02*
X95208071Y-98350571D01*
X95099214Y-98513857D01*
X94990357Y-98622714D01*
X94881500Y-98677142D01*
X96078928Y-99493571D02*
X96296642Y-99493571D01*
X96405500Y-99439142D01*
X96459928Y-99384714D01*
X96568785Y-99221428D01*
X96623214Y-99003714D01*
X96623214Y-98568285D01*
X96568785Y-98459428D01*
X96514357Y-98405000D01*
X96405500Y-98350571D01*
X96187785Y-98350571D01*
X96078928Y-98405000D01*
X96024500Y-98459428D01*
X95970071Y-98568285D01*
X95970071Y-98840428D01*
X96024500Y-98949285D01*
X96078928Y-99003714D01*
X96187785Y-99058142D01*
X96405500Y-99058142D01*
X96514357Y-99003714D01*
X96568785Y-98949285D01*
X96623214Y-98840428D01*
X97113071Y-99058142D02*
X97983928Y-99058142D01*
X98528214Y-98894857D02*
X98909214Y-98894857D01*
X99072500Y-99493571D02*
X98528214Y-99493571D01*
X98528214Y-98350571D01*
X99072500Y-98350571D01*
X100106642Y-99493571D02*
X99562357Y-99493571D01*
X99562357Y-98350571D01*
X101140785Y-99384714D02*
X101086357Y-99439142D01*
X100923071Y-99493571D01*
X100814214Y-99493571D01*
X100650928Y-99439142D01*
X100542071Y-99330285D01*
X100487642Y-99221428D01*
X100433214Y-99003714D01*
X100433214Y-98840428D01*
X100487642Y-98622714D01*
X100542071Y-98513857D01*
X100650928Y-98405000D01*
X100814214Y-98350571D01*
X100923071Y-98350571D01*
X101086357Y-98405000D01*
X101140785Y-98459428D01*
X101630642Y-99058142D02*
X102501500Y-99058142D01*
X102991357Y-98459428D02*
X103045785Y-98405000D01*
X103154642Y-98350571D01*
X103426785Y-98350571D01*
X103535642Y-98405000D01*
X103590071Y-98459428D01*
X103644500Y-98568285D01*
X103644500Y-98677142D01*
X103590071Y-98840428D01*
X102936928Y-99493571D01*
X103644500Y-99493571D01*
X104025500Y-98350571D02*
X104787500Y-98350571D01*
X104297642Y-99493571D01*
X105440642Y-98350571D02*
X105549500Y-98350571D01*
X105658357Y-98405000D01*
X105712785Y-98459428D01*
X105767214Y-98568285D01*
X105821642Y-98786000D01*
X105821642Y-99058142D01*
X105767214Y-99275857D01*
X105712785Y-99384714D01*
X105658357Y-99439142D01*
X105549500Y-99493571D01*
X105440642Y-99493571D01*
X105331785Y-99439142D01*
X105277357Y-99384714D01*
X105222928Y-99275857D01*
X105168500Y-99058142D01*
X105168500Y-98786000D01*
X105222928Y-98568285D01*
X105277357Y-98459428D01*
X105331785Y-98405000D01*
X105440642Y-98350571D01*
X106529214Y-98350571D02*
X106638071Y-98350571D01*
X106746928Y-98405000D01*
X106801357Y-98459428D01*
X106855785Y-98568285D01*
X106910214Y-98786000D01*
X106910214Y-99058142D01*
X106855785Y-99275857D01*
X106801357Y-99384714D01*
X106746928Y-99439142D01*
X106638071Y-99493571D01*
X106529214Y-99493571D01*
X106420357Y-99439142D01*
X106365928Y-99384714D01*
X106311500Y-99275857D01*
X106257071Y-99058142D01*
X106257071Y-98786000D01*
X106311500Y-98568285D01*
X106365928Y-98459428D01*
X106420357Y-98405000D01*
X106529214Y-98350571D01*
X107726642Y-99929000D02*
X107672214Y-99874571D01*
X107563357Y-99711285D01*
X107508928Y-99602428D01*
X107454500Y-99439142D01*
X107400071Y-99167000D01*
X107400071Y-98949285D01*
X107454500Y-98677142D01*
X107508928Y-98513857D01*
X107563357Y-98405000D01*
X107672214Y-98241714D01*
X107726642Y-98187285D01*
X107998785Y-98350571D02*
X108651928Y-98350571D01*
X108325357Y-99493571D02*
X108325357Y-98350571D01*
X109468357Y-99439142D02*
X109359500Y-99493571D01*
X109141785Y-99493571D01*
X109032928Y-99439142D01*
X108978500Y-99330285D01*
X108978500Y-98894857D01*
X109032928Y-98786000D01*
X109141785Y-98731571D01*
X109359500Y-98731571D01*
X109468357Y-98786000D01*
X109522785Y-98894857D01*
X109522785Y-99003714D01*
X108978500Y-99112571D01*
X110175928Y-99493571D02*
X110067071Y-99439142D01*
X110012642Y-99330285D01*
X110012642Y-98350571D01*
X111046785Y-99439142D02*
X110937928Y-99493571D01*
X110720214Y-99493571D01*
X110611357Y-99439142D01*
X110556928Y-99330285D01*
X110556928Y-98894857D01*
X110611357Y-98786000D01*
X110720214Y-98731571D01*
X110937928Y-98731571D01*
X111046785Y-98786000D01*
X111101214Y-98894857D01*
X111101214Y-99003714D01*
X110556928Y-99112571D01*
X111591071Y-99493571D02*
X111591071Y-98731571D01*
X111591071Y-98840428D02*
X111645500Y-98786000D01*
X111754357Y-98731571D01*
X111917642Y-98731571D01*
X112026500Y-98786000D01*
X112080928Y-98894857D01*
X112080928Y-99493571D01*
X112080928Y-98894857D02*
X112135357Y-98786000D01*
X112244214Y-98731571D01*
X112407500Y-98731571D01*
X112516357Y-98786000D01*
X112570785Y-98894857D01*
X112570785Y-99493571D01*
X113550500Y-99439142D02*
X113441642Y-99493571D01*
X113223928Y-99493571D01*
X113115071Y-99439142D01*
X113060642Y-99330285D01*
X113060642Y-98894857D01*
X113115071Y-98786000D01*
X113223928Y-98731571D01*
X113441642Y-98731571D01*
X113550500Y-98786000D01*
X113604928Y-98894857D01*
X113604928Y-99003714D01*
X113060642Y-99112571D01*
X113931500Y-98731571D02*
X114366928Y-98731571D01*
X114094785Y-98350571D02*
X114094785Y-99330285D01*
X114149214Y-99439142D01*
X114258071Y-99493571D01*
X114366928Y-99493571D01*
X114747928Y-99493571D02*
X114747928Y-98731571D01*
X114747928Y-98949285D02*
X114802357Y-98840428D01*
X114856785Y-98786000D01*
X114965642Y-98731571D01*
X115074500Y-98731571D01*
X115346642Y-98731571D02*
X115618785Y-99493571D01*
X115890928Y-98731571D02*
X115618785Y-99493571D01*
X115509928Y-99765714D01*
X115455500Y-99820142D01*
X115346642Y-99874571D01*
X116217500Y-99929000D02*
X116271928Y-99874571D01*
X116380785Y-99711285D01*
X116435214Y-99602428D01*
X116489642Y-99439142D01*
X116544071Y-99167000D01*
X116544071Y-98949285D01*
X116489642Y-98677142D01*
X116435214Y-98513857D01*
X116380785Y-98405000D01*
X116271928Y-98241714D01*
X116217500Y-98187285D01*
X104188785Y-101462071D02*
X103807785Y-100917785D01*
X103535642Y-101462071D02*
X103535642Y-100319071D01*
X103971071Y-100319071D01*
X104079928Y-100373500D01*
X104134357Y-100427928D01*
X104188785Y-100536785D01*
X104188785Y-100700071D01*
X104134357Y-100808928D01*
X104079928Y-100863357D01*
X103971071Y-100917785D01*
X103535642Y-100917785D01*
X105114071Y-101407642D02*
X105005214Y-101462071D01*
X104787500Y-101462071D01*
X104678642Y-101407642D01*
X104624214Y-101298785D01*
X104624214Y-100863357D01*
X104678642Y-100754500D01*
X104787500Y-100700071D01*
X105005214Y-100700071D01*
X105114071Y-100754500D01*
X105168500Y-100863357D01*
X105168500Y-100972214D01*
X104624214Y-101081071D01*
X105549500Y-100700071D02*
X105821642Y-101462071D01*
X106093785Y-100700071D01*
X107998785Y-101462071D02*
X107345642Y-101462071D01*
X107672214Y-101462071D02*
X107672214Y-100319071D01*
X107563357Y-100482357D01*
X107454500Y-100591214D01*
X107345642Y-100645642D01*
X99997785Y-103430571D02*
X99997785Y-102287571D01*
X100650928Y-103430571D02*
X100161071Y-102777428D01*
X100650928Y-102287571D02*
X99997785Y-102940714D01*
X101576214Y-103376142D02*
X101467357Y-103430571D01*
X101249642Y-103430571D01*
X101140785Y-103376142D01*
X101086357Y-103267285D01*
X101086357Y-102831857D01*
X101140785Y-102723000D01*
X101249642Y-102668571D01*
X101467357Y-102668571D01*
X101576214Y-102723000D01*
X101630642Y-102831857D01*
X101630642Y-102940714D01*
X101086357Y-103049571D01*
X102011642Y-102668571D02*
X102283785Y-103430571D01*
X102555928Y-102668571D01*
X102991357Y-103430571D02*
X102991357Y-102668571D01*
X102991357Y-102287571D02*
X102936928Y-102342000D01*
X102991357Y-102396428D01*
X103045785Y-102342000D01*
X102991357Y-102287571D01*
X102991357Y-102396428D01*
X103535642Y-102668571D02*
X103535642Y-103430571D01*
X103535642Y-102777428D02*
X103590071Y-102723000D01*
X103698928Y-102668571D01*
X103862214Y-102668571D01*
X103971071Y-102723000D01*
X104025500Y-102831857D01*
X104025500Y-103430571D01*
X105440642Y-103430571D02*
X105440642Y-102287571D01*
X105821642Y-103104000D01*
X106202642Y-102287571D01*
X106202642Y-103430571D01*
X107182357Y-103376142D02*
X107073500Y-103430571D01*
X106855785Y-103430571D01*
X106746928Y-103376142D01*
X106692500Y-103267285D01*
X106692500Y-102831857D01*
X106746928Y-102723000D01*
X106855785Y-102668571D01*
X107073500Y-102668571D01*
X107182357Y-102723000D01*
X107236785Y-102831857D01*
X107236785Y-102940714D01*
X106692500Y-103049571D01*
X108216500Y-103376142D02*
X108107642Y-103430571D01*
X107889928Y-103430571D01*
X107781071Y-103376142D01*
X107726642Y-103321714D01*
X107672214Y-103212857D01*
X107672214Y-102886285D01*
X107726642Y-102777428D01*
X107781071Y-102723000D01*
X107889928Y-102668571D01*
X108107642Y-102668571D01*
X108216500Y-102723000D01*
X108706357Y-103430571D02*
X108706357Y-102287571D01*
X109196214Y-103430571D02*
X109196214Y-102831857D01*
X109141785Y-102723000D01*
X109032928Y-102668571D01*
X108869642Y-102668571D01*
X108760785Y-102723000D01*
X108706357Y-102777428D01*
X109903785Y-103430571D02*
X109794928Y-103376142D01*
X109740500Y-103267285D01*
X109740500Y-102287571D01*
X110774642Y-103376142D02*
X110665785Y-103430571D01*
X110448071Y-103430571D01*
X110339214Y-103376142D01*
X110284785Y-103267285D01*
X110284785Y-102831857D01*
X110339214Y-102723000D01*
X110448071Y-102668571D01*
X110665785Y-102668571D01*
X110774642Y-102723000D01*
X110829071Y-102831857D01*
X110829071Y-102940714D01*
X110284785Y-103049571D01*
X111318928Y-103430571D02*
X111318928Y-102668571D01*
X111318928Y-102886285D02*
X111373357Y-102777428D01*
X111427785Y-102723000D01*
X111536642Y-102668571D01*
X111645500Y-102668571D01*
D12*
X74117142Y-103370000D02*
X73974285Y-103298571D01*
X73760000Y-103298571D01*
X73545714Y-103370000D01*
X73402857Y-103512857D01*
X73331428Y-103655714D01*
X73260000Y-103941428D01*
X73260000Y-104155714D01*
X73331428Y-104441428D01*
X73402857Y-104584285D01*
X73545714Y-104727142D01*
X73760000Y-104798571D01*
X73902857Y-104798571D01*
X74117142Y-104727142D01*
X74188571Y-104655714D01*
X74188571Y-104155714D01*
X73902857Y-104155714D01*
X74831428Y-104798571D02*
X74831428Y-103298571D01*
X75688571Y-104798571D01*
X75688571Y-103298571D01*
X76402857Y-104798571D02*
X76402857Y-103298571D01*
X76760000Y-103298571D01*
X76974285Y-103370000D01*
X77117142Y-103512857D01*
X77188571Y-103655714D01*
X77260000Y-103941428D01*
X77260000Y-104155714D01*
X77188571Y-104441428D01*
X77117142Y-104584285D01*
X76974285Y-104727142D01*
X76760000Y-104798571D01*
X76402857Y-104798571D01*
X66267142Y-104227142D02*
X67410000Y-104227142D01*
X66838571Y-104798571D02*
X66838571Y-103655714D01*
X68910000Y-104798571D02*
X68052857Y-104798571D01*
X68481428Y-104798571D02*
X68481428Y-103298571D01*
X68338571Y-103512857D01*
X68195714Y-103655714D01*
X68052857Y-103727142D01*
X69481428Y-103441428D02*
X69552857Y-103370000D01*
X69695714Y-103298571D01*
X70052857Y-103298571D01*
X70195714Y-103370000D01*
X70267142Y-103441428D01*
X70338571Y-103584285D01*
X70338571Y-103727142D01*
X70267142Y-103941428D01*
X69410000Y-104798571D01*
X70338571Y-104798571D01*
X70767142Y-103298571D02*
X71267142Y-104798571D01*
X71767142Y-103298571D01*
X59996428Y-104227142D02*
X61139285Y-104227142D01*
X60567857Y-104798571D02*
X60567857Y-103655714D01*
X62567857Y-103298571D02*
X61853571Y-103298571D01*
X61782142Y-104012857D01*
X61853571Y-103941428D01*
X61996428Y-103870000D01*
X62353571Y-103870000D01*
X62496428Y-103941428D01*
X62567857Y-104012857D01*
X62639285Y-104155714D01*
X62639285Y-104512857D01*
X62567857Y-104655714D01*
X62496428Y-104727142D01*
X62353571Y-104798571D01*
X61996428Y-104798571D01*
X61853571Y-104727142D01*
X61782142Y-104655714D01*
X63067857Y-103298571D02*
X63567857Y-104798571D01*
X64067857Y-103298571D01*
X52575000Y-104227142D02*
X53717857Y-104227142D01*
X53146428Y-104798571D02*
X53146428Y-103655714D01*
X54289285Y-103298571D02*
X55217857Y-103298571D01*
X54717857Y-103870000D01*
X54932142Y-103870000D01*
X55075000Y-103941428D01*
X55146428Y-104012857D01*
X55217857Y-104155714D01*
X55217857Y-104512857D01*
X55146428Y-104655714D01*
X55075000Y-104727142D01*
X54932142Y-104798571D01*
X54503571Y-104798571D01*
X54360714Y-104727142D01*
X54289285Y-104655714D01*
X55860714Y-104655714D02*
X55932142Y-104727142D01*
X55860714Y-104798571D01*
X55789285Y-104727142D01*
X55860714Y-104655714D01*
X55860714Y-104798571D01*
X56432142Y-103298571D02*
X57360714Y-103298571D01*
X56860714Y-103870000D01*
X57075000Y-103870000D01*
X57217857Y-103941428D01*
X57289285Y-104012857D01*
X57360714Y-104155714D01*
X57360714Y-104512857D01*
X57289285Y-104655714D01*
X57217857Y-104727142D01*
X57075000Y-104798571D01*
X56646428Y-104798571D01*
X56503571Y-104727142D01*
X56432142Y-104655714D01*
X57789285Y-103298571D02*
X58289285Y-104798571D01*
X58789285Y-103298571D01*
D13*
G04 #@! TO.C,J1*
X38150000Y-37800000D02*
X38150000Y-39350000D01*
X40970000Y-40620000D02*
X38430000Y-40620000D01*
X40970000Y-38080000D02*
X40970000Y-40620000D01*
X39700000Y-37800000D02*
X38150000Y-37800000D01*
X43510000Y-38080000D02*
X40970000Y-38080000D01*
X43510000Y-96500000D02*
X38430000Y-96500000D01*
X38430000Y-96500000D02*
X38430000Y-40620000D01*
X43510000Y-96500000D02*
X43510000Y-38080000D01*
X89230000Y-40620000D02*
X86690000Y-40620000D01*
X91770000Y-38080000D02*
X89230000Y-38080000D01*
X91770000Y-96500000D02*
X86690000Y-96500000D01*
X91770000Y-96500000D02*
X91770000Y-38080000D01*
X87960000Y-37800000D02*
X86410000Y-37800000D01*
X86690000Y-96500000D02*
X86690000Y-40620000D01*
X86410000Y-37800000D02*
X86410000Y-39350000D01*
X89230000Y-38080000D02*
X89230000Y-40620000D01*
D14*
G04 #@! TO.C,J3*
X108120000Y-20190000D02*
X108120000Y-33540000D01*
X108120000Y-33540000D02*
X94120000Y-33540000D01*
X94120000Y-33540000D02*
X94120000Y-20190000D01*
X94120000Y-20190000D02*
X108120000Y-20190000D01*
D15*
G04 #@! TO.C,U1*
X115238000Y-35486000D02*
X115238000Y-52486000D01*
X122738000Y-35486000D02*
X122738000Y-52486000D01*
X122738000Y-52486000D02*
X115238000Y-52486000D01*
D13*
X115244040Y-52479760D02*
X115254200Y-52474680D01*
X115254200Y-52474680D02*
X115244040Y-52474680D01*
D15*
X122738000Y-35486000D02*
X115238000Y-35486000D01*
D13*
X115238960Y-35492240D02*
X115244040Y-35492240D01*
D14*
G04 #@! TO.C,C10*
X99552000Y-44145000D02*
X99552000Y-43445000D01*
X100752000Y-43445000D02*
X100752000Y-44145000D01*
D13*
G04 #@! TO.C,U2*
X73271000Y-54625000D02*
X73271000Y-54575000D01*
X69121000Y-54625000D02*
X69121000Y-54480000D01*
X69121000Y-49475000D02*
X69121000Y-49620000D01*
X73271000Y-49475000D02*
X73271000Y-49620000D01*
X73271000Y-54625000D02*
X69121000Y-54625000D01*
X73271000Y-49475000D02*
X69121000Y-49475000D01*
X73271000Y-54575000D02*
X74671000Y-54575000D01*
D14*
G04 #@! TO.C,C1*
X70389733Y-56370000D02*
X70732267Y-56370000D01*
X70389733Y-55350000D02*
X70732267Y-55350000D01*
G04 #@! TO.C,C2*
X79039733Y-49000000D02*
X79382267Y-49000000D01*
X79039733Y-50020000D02*
X79382267Y-50020000D01*
G04 #@! TO.C,C3*
X79039733Y-52560000D02*
X79382267Y-52560000D01*
X79039733Y-51540000D02*
X79382267Y-51540000D01*
G04 #@! TO.C,C4*
X80846000Y-56426267D02*
X80846000Y-56083733D01*
X81866000Y-56426267D02*
X81866000Y-56083733D01*
G04 #@! TO.C,C5*
X116406252Y-90710000D02*
X115883748Y-90710000D01*
X116406252Y-92130000D02*
X115883748Y-92130000D01*
G04 #@! TO.C,C6*
X103183748Y-90710000D02*
X103706252Y-90710000D01*
X103183748Y-92130000D02*
X103706252Y-92130000D01*
G04 #@! TO.C,C7*
X118565000Y-84366267D02*
X118565000Y-84023733D01*
X119585000Y-84366267D02*
X119585000Y-84023733D01*
G04 #@! TO.C,C8*
X108613287Y-45356779D02*
X108613287Y-47356779D01*
X111573287Y-47356779D02*
X111573287Y-45356779D01*
G04 #@! TO.C,C9*
X106953287Y-47026779D02*
X106953287Y-46326779D01*
X108153287Y-46326779D02*
X108153287Y-47026779D01*
G04 #@! TO.C,C11*
X101557000Y-40835000D02*
X102557000Y-40835000D01*
X102557000Y-39135000D02*
X101557000Y-39135000D01*
G04 #@! TO.C,C12*
X104054000Y-50180000D02*
X104754000Y-50180000D01*
X104754000Y-51380000D02*
X104054000Y-51380000D01*
G04 #@! TO.C,C13*
X103537000Y-56955000D02*
X103537000Y-54955000D01*
X100577000Y-54955000D02*
X100577000Y-56955000D01*
G04 #@! TO.C,C14*
X96377000Y-54305000D02*
X96377000Y-53605000D01*
X97577000Y-53605000D02*
X97577000Y-54305000D01*
G04 #@! TO.C,C15*
X114638000Y-23182000D02*
X115638000Y-23182000D01*
X115638000Y-21482000D02*
X114638000Y-21482000D01*
G04 #@! TO.C,D1*
X49125000Y-66490000D02*
X49125000Y-68950000D01*
X49125000Y-68950000D02*
X50595000Y-68950000D01*
X50595000Y-68950000D02*
X50595000Y-66490000D01*
G04 #@! TO.C,D2*
X50595000Y-74030000D02*
X50595000Y-71570000D01*
X49125000Y-74030000D02*
X50595000Y-74030000D01*
X49125000Y-71570000D02*
X49125000Y-74030000D01*
G04 #@! TO.C,D3*
X49125000Y-76650000D02*
X49125000Y-79110000D01*
X49125000Y-79110000D02*
X50595000Y-79110000D01*
X50595000Y-79110000D02*
X50595000Y-76650000D01*
G04 #@! TO.C,J2*
X48320000Y-48200000D02*
X45660000Y-48200000D01*
X48320000Y-55880000D02*
X48320000Y-48200000D01*
X45660000Y-55880000D02*
X45660000Y-48200000D01*
X48320000Y-55880000D02*
X45660000Y-55880000D01*
X48320000Y-57150000D02*
X48320000Y-58480000D01*
X48320000Y-58480000D02*
X46990000Y-58480000D01*
D13*
G04 #@! TO.C,JP1*
X94310000Y-83800000D02*
X94310000Y-81260000D01*
X94030000Y-86620000D02*
X94030000Y-85070000D01*
X94310000Y-83800000D02*
X96850000Y-83800000D01*
X97130000Y-85070000D02*
X97130000Y-86620000D01*
X97130000Y-86620000D02*
X94030000Y-86620000D01*
X96850000Y-83800000D02*
X96850000Y-81260000D01*
X96850000Y-81260000D02*
X94310000Y-81260000D01*
D14*
G04 #@! TO.C,L1*
X110364000Y-52095000D02*
X110364000Y-60095000D01*
X104164000Y-52095000D02*
X104164000Y-60095000D01*
G04 #@! TO.C,R1*
X63799733Y-55100000D02*
X64142267Y-55100000D01*
X63799733Y-54080000D02*
X64142267Y-54080000D01*
G04 #@! TO.C,R2*
X63799733Y-47730000D02*
X64142267Y-47730000D01*
X63799733Y-48750000D02*
X64142267Y-48750000D01*
G04 #@! TO.C,R3*
X46810000Y-67461267D02*
X46810000Y-67118733D01*
X47830000Y-67461267D02*
X47830000Y-67118733D01*
G04 #@! TO.C,R4*
X46810000Y-72541267D02*
X46810000Y-72198733D01*
X47830000Y-72541267D02*
X47830000Y-72198733D01*
G04 #@! TO.C,R5*
X47830000Y-77621267D02*
X47830000Y-77278733D01*
X46810000Y-77621267D02*
X46810000Y-77278733D01*
G04 #@! TO.C,R6*
X46810000Y-85636267D02*
X46810000Y-85293733D01*
X47830000Y-85636267D02*
X47830000Y-85293733D01*
G04 #@! TO.C,R7*
X47830000Y-81826267D02*
X47830000Y-81483733D01*
X46810000Y-81826267D02*
X46810000Y-81483733D01*
G04 #@! TO.C,R8*
X100831267Y-82020000D02*
X100488733Y-82020000D01*
X100831267Y-83040000D02*
X100488733Y-83040000D01*
G04 #@! TO.C,R9*
X109542000Y-42570000D02*
X108542000Y-42570000D01*
X108542000Y-41210000D02*
X109542000Y-41210000D01*
G04 #@! TO.C,R10*
X98202000Y-54285000D02*
X98202000Y-53285000D01*
X99562000Y-53285000D02*
X99562000Y-54285000D01*
G04 #@! TO.C,R11*
X99562000Y-48840000D02*
X99562000Y-49840000D01*
X98202000Y-49840000D02*
X98202000Y-48840000D01*
G04 #@! TO.C,R12*
X117348000Y-24192000D02*
X118348000Y-24192000D01*
X118348000Y-25552000D02*
X117348000Y-25552000D01*
G04 #@! TO.C,R13*
X111828000Y-25552000D02*
X110828000Y-25552000D01*
X110828000Y-24192000D02*
X111828000Y-24192000D01*
G04 #@! TO.C,R14*
X116908000Y-28092000D02*
X115908000Y-28092000D01*
X115908000Y-26732000D02*
X116908000Y-26732000D01*
G04 #@! TO.C,R15*
X110828000Y-26732000D02*
X111828000Y-26732000D01*
X111828000Y-28092000D02*
X110828000Y-28092000D01*
G04 #@! TO.C,R16*
X111664000Y-31638000D02*
X111664000Y-30638000D01*
X113024000Y-30638000D02*
X113024000Y-31638000D01*
G04 #@! TO.C,R17*
X113442000Y-33838000D02*
X113442000Y-32838000D01*
X114802000Y-32838000D02*
X114802000Y-33838000D01*
D13*
G04 #@! TO.C,SW1*
X53670000Y-95484000D02*
X53670000Y-89896000D01*
X53670000Y-89896000D02*
X48590000Y-89896000D01*
X48590000Y-89896000D02*
X48590000Y-91674000D01*
X53670000Y-95484000D02*
X48590000Y-95484000D01*
X48590000Y-95484000D02*
X48590000Y-93706000D01*
X48590000Y-91674000D02*
G75*
G02X48590000Y-93706000I0J-1016000D01*
G01*
D14*
G04 #@! TO.C,UART TX*
X53350000Y-54590000D02*
G75*
G03X53350000Y-54590000I-950000J0D01*
G01*
G04 #@! TO.C,UART RX*
X53350000Y-52050000D02*
G75*
G03X53350000Y-52050000I-950000J0D01*
G01*
G04 #@! TO.C,TP3*
X65796000Y-57130000D02*
G75*
G03X65796000Y-57130000I-950000J0D01*
G01*
G04 #@! TO.C,TP4*
X65796000Y-50780000D02*
G75*
G03X65796000Y-50780000I-950000J0D01*
G01*
D13*
G04 #@! TO.C,TP5*
X73360000Y-102680000D02*
X73360000Y-100480000D01*
X77160000Y-102680000D02*
X73360000Y-102680000D01*
X77160000Y-100480000D02*
X77160000Y-102680000D01*
X73360000Y-100480000D02*
X77160000Y-100480000D01*
G04 #@! TO.C,TP6*
X54310000Y-100480000D02*
X58110000Y-100480000D01*
X58110000Y-100480000D02*
X58110000Y-102680000D01*
X58110000Y-102680000D02*
X54310000Y-102680000D01*
X54310000Y-102680000D02*
X54310000Y-100480000D01*
D14*
G04 #@! TO.C,GPSTX*
X109230000Y-91420000D02*
G75*
G03X109230000Y-91420000I-950000J0D01*
G01*
D13*
G04 #@! TO.C,TP8*
X67010000Y-100480000D02*
X70810000Y-100480000D01*
X70810000Y-100480000D02*
X70810000Y-102680000D01*
X70810000Y-102680000D02*
X67010000Y-102680000D01*
X67010000Y-102680000D02*
X67010000Y-100480000D01*
G04 #@! TO.C,TP9*
X60660000Y-102680000D02*
X60660000Y-100480000D01*
X64460000Y-102680000D02*
X60660000Y-102680000D01*
X64460000Y-100480000D02*
X64460000Y-102680000D01*
X60660000Y-100480000D02*
X64460000Y-100480000D01*
D14*
G04 #@! TO.C,GPSRX*
X111770000Y-91420000D02*
G75*
G03X111770000Y-91420000I-950000J0D01*
G01*
G04 #@! TO.C,TP11*
X106690000Y-85070000D02*
G75*
G03X106690000Y-85070000I-950000J0D01*
G01*
G04 #@! TO.C,TP12*
X107960000Y-82530000D02*
G75*
G03X107960000Y-82530000I-950000J0D01*
G01*
D13*
G04 #@! TO.C,U4*
X115275000Y-86960000D02*
X116675000Y-86960000D01*
X115275000Y-81860000D02*
X111125000Y-81860000D01*
X115275000Y-87010000D02*
X111125000Y-87010000D01*
X115275000Y-81860000D02*
X115275000Y-82005000D01*
X111125000Y-81860000D02*
X111125000Y-82005000D01*
X111125000Y-87010000D02*
X111125000Y-86865000D01*
X115275000Y-87010000D02*
X115275000Y-86960000D01*
G04 #@! TO.C,U5*
X106517000Y-43295000D02*
X106467000Y-43295000D01*
X106517000Y-47445000D02*
X106372000Y-47445000D01*
X101367000Y-47445000D02*
X101512000Y-47445000D01*
X101367000Y-43295000D02*
X101512000Y-43295000D01*
X106517000Y-43295000D02*
X106517000Y-47445000D01*
X101367000Y-43295000D02*
X101367000Y-47445000D01*
X106467000Y-43295000D02*
X106467000Y-41895000D01*
G04 #@! TO.C,U6*
X115378000Y-30637000D02*
X115378000Y-32737000D01*
X118628000Y-29862000D02*
X118628000Y-32737000D01*
G04 #@! TO.C,Y1*
X76530000Y-57912000D02*
X76530000Y-53848000D01*
X76530000Y-53848000D02*
X78562000Y-53848000D01*
X78562000Y-53848000D02*
X78562000Y-57912000D01*
X78562000Y-57912000D02*
X76530000Y-57912000D01*
D16*
G04 #@! TO.C,G\002A\002A\002A*
G36*
X72113575Y-75100573D02*
X72428946Y-75100646D01*
X72726338Y-75100844D01*
X73005206Y-75101165D01*
X73265010Y-75101606D01*
X73505205Y-75102165D01*
X73725251Y-75102838D01*
X73924603Y-75103624D01*
X74102721Y-75104519D01*
X74259060Y-75105521D01*
X74393080Y-75106627D01*
X74504237Y-75107835D01*
X74591989Y-75109143D01*
X74655794Y-75110546D01*
X74695108Y-75112044D01*
X74707550Y-75113110D01*
X74815933Y-75143398D01*
X74917775Y-75196508D01*
X75010824Y-75270229D01*
X75092833Y-75362347D01*
X75161553Y-75470651D01*
X75214736Y-75592928D01*
X75224039Y-75621200D01*
X75231054Y-75644330D01*
X75236864Y-75666171D01*
X75241581Y-75689283D01*
X75245321Y-75716224D01*
X75248195Y-75749554D01*
X75250318Y-75791833D01*
X75251804Y-75845619D01*
X75252766Y-75913473D01*
X75253318Y-75997955D01*
X75253573Y-76101622D01*
X75253646Y-76227035D01*
X75253650Y-76287950D01*
X75253621Y-76423425D01*
X75253460Y-76536059D01*
X75253052Y-76628411D01*
X75252283Y-76703039D01*
X75251039Y-76762501D01*
X75249206Y-76809357D01*
X75246669Y-76846166D01*
X75243315Y-76875485D01*
X75239030Y-76899874D01*
X75233699Y-76921891D01*
X75227209Y-76944096D01*
X75223920Y-76954700D01*
X75174607Y-77080668D01*
X75110831Y-77191330D01*
X75034483Y-77284252D01*
X74947451Y-77357002D01*
X74882812Y-77393859D01*
X74843221Y-77414685D01*
X74814734Y-77433811D01*
X74803444Y-77447140D01*
X74803437Y-77447261D01*
X74807059Y-77461972D01*
X74817718Y-77498762D01*
X74834757Y-77555501D01*
X74857521Y-77630060D01*
X74885352Y-77720312D01*
X74917593Y-77824126D01*
X74953589Y-77939375D01*
X74992682Y-78063930D01*
X75034216Y-78195662D01*
X75037750Y-78206843D01*
X75079444Y-78338939D01*
X75118775Y-78463918D01*
X75155084Y-78579667D01*
X75187714Y-78684073D01*
X75216007Y-78775021D01*
X75239307Y-78850399D01*
X75256955Y-78908092D01*
X75268296Y-78945987D01*
X75272670Y-78961971D01*
X75272700Y-78962258D01*
X75260290Y-78965863D01*
X75224197Y-78968635D01*
X75166126Y-78970530D01*
X75087781Y-78971507D01*
X74990868Y-78971521D01*
X74921834Y-78971025D01*
X74570969Y-78967650D01*
X74302709Y-78215440D01*
X74034450Y-77463231D01*
X72164375Y-77462965D01*
X70294300Y-77462700D01*
X70294300Y-78974000D01*
X69595800Y-78974000D01*
X69595800Y-76611800D01*
X70294300Y-76611800D01*
X72305516Y-76611800D01*
X72600201Y-76611717D01*
X72873797Y-76611469D01*
X73125938Y-76611060D01*
X73356258Y-76610491D01*
X73564390Y-76609764D01*
X73749969Y-76608882D01*
X73912630Y-76607847D01*
X74052006Y-76606661D01*
X74167731Y-76605326D01*
X74259440Y-76603846D01*
X74326766Y-76602221D01*
X74369344Y-76600454D01*
X74385141Y-76598979D01*
X74452497Y-76579470D01*
X74502263Y-76547489D01*
X74540862Y-76498837D01*
X74542450Y-76496172D01*
X74553613Y-76473613D01*
X74561009Y-76447330D01*
X74565363Y-76411737D01*
X74567400Y-76361248D01*
X74567850Y-76300303D01*
X74567379Y-76233486D01*
X74565337Y-76185762D01*
X74560774Y-76150835D01*
X74552743Y-76122405D01*
X74540296Y-76094175D01*
X74535354Y-76084403D01*
X74494059Y-76025044D01*
X74452804Y-75992883D01*
X74402750Y-75964517D01*
X72348525Y-75964308D01*
X70294300Y-75964100D01*
X70294300Y-76611800D01*
X69595800Y-76611800D01*
X69595800Y-75100500D01*
X72113575Y-75100573D01*
X72113575Y-75100573D01*
G37*
X72113575Y-75100573D02*
X72428946Y-75100646D01*
X72726338Y-75100844D01*
X73005206Y-75101165D01*
X73265010Y-75101606D01*
X73505205Y-75102165D01*
X73725251Y-75102838D01*
X73924603Y-75103624D01*
X74102721Y-75104519D01*
X74259060Y-75105521D01*
X74393080Y-75106627D01*
X74504237Y-75107835D01*
X74591989Y-75109143D01*
X74655794Y-75110546D01*
X74695108Y-75112044D01*
X74707550Y-75113110D01*
X74815933Y-75143398D01*
X74917775Y-75196508D01*
X75010824Y-75270229D01*
X75092833Y-75362347D01*
X75161553Y-75470651D01*
X75214736Y-75592928D01*
X75224039Y-75621200D01*
X75231054Y-75644330D01*
X75236864Y-75666171D01*
X75241581Y-75689283D01*
X75245321Y-75716224D01*
X75248195Y-75749554D01*
X75250318Y-75791833D01*
X75251804Y-75845619D01*
X75252766Y-75913473D01*
X75253318Y-75997955D01*
X75253573Y-76101622D01*
X75253646Y-76227035D01*
X75253650Y-76287950D01*
X75253621Y-76423425D01*
X75253460Y-76536059D01*
X75253052Y-76628411D01*
X75252283Y-76703039D01*
X75251039Y-76762501D01*
X75249206Y-76809357D01*
X75246669Y-76846166D01*
X75243315Y-76875485D01*
X75239030Y-76899874D01*
X75233699Y-76921891D01*
X75227209Y-76944096D01*
X75223920Y-76954700D01*
X75174607Y-77080668D01*
X75110831Y-77191330D01*
X75034483Y-77284252D01*
X74947451Y-77357002D01*
X74882812Y-77393859D01*
X74843221Y-77414685D01*
X74814734Y-77433811D01*
X74803444Y-77447140D01*
X74803437Y-77447261D01*
X74807059Y-77461972D01*
X74817718Y-77498762D01*
X74834757Y-77555501D01*
X74857521Y-77630060D01*
X74885352Y-77720312D01*
X74917593Y-77824126D01*
X74953589Y-77939375D01*
X74992682Y-78063930D01*
X75034216Y-78195662D01*
X75037750Y-78206843D01*
X75079444Y-78338939D01*
X75118775Y-78463918D01*
X75155084Y-78579667D01*
X75187714Y-78684073D01*
X75216007Y-78775021D01*
X75239307Y-78850399D01*
X75256955Y-78908092D01*
X75268296Y-78945987D01*
X75272670Y-78961971D01*
X75272700Y-78962258D01*
X75260290Y-78965863D01*
X75224197Y-78968635D01*
X75166126Y-78970530D01*
X75087781Y-78971507D01*
X74990868Y-78971521D01*
X74921834Y-78971025D01*
X74570969Y-78967650D01*
X74302709Y-78215440D01*
X74034450Y-77463231D01*
X72164375Y-77462965D01*
X70294300Y-77462700D01*
X70294300Y-78974000D01*
X69595800Y-78974000D01*
X69595800Y-76611800D01*
X70294300Y-76611800D01*
X72305516Y-76611800D01*
X72600201Y-76611717D01*
X72873797Y-76611469D01*
X73125938Y-76611060D01*
X73356258Y-76610491D01*
X73564390Y-76609764D01*
X73749969Y-76608882D01*
X73912630Y-76607847D01*
X74052006Y-76606661D01*
X74167731Y-76605326D01*
X74259440Y-76603846D01*
X74326766Y-76602221D01*
X74369344Y-76600454D01*
X74385141Y-76598979D01*
X74452497Y-76579470D01*
X74502263Y-76547489D01*
X74540862Y-76498837D01*
X74542450Y-76496172D01*
X74553613Y-76473613D01*
X74561009Y-76447330D01*
X74565363Y-76411737D01*
X74567400Y-76361248D01*
X74567850Y-76300303D01*
X74567379Y-76233486D01*
X74565337Y-76185762D01*
X74560774Y-76150835D01*
X74552743Y-76122405D01*
X74540296Y-76094175D01*
X74535354Y-76084403D01*
X74494059Y-76025044D01*
X74452804Y-75992883D01*
X74402750Y-75964517D01*
X72348525Y-75964308D01*
X70294300Y-75964100D01*
X70294300Y-76611800D01*
X69595800Y-76611800D01*
X69595800Y-75100500D01*
X72113575Y-75100573D01*
G36*
X63982400Y-76611800D02*
X68249600Y-76611800D01*
X68249600Y-75100500D01*
X68948100Y-75100500D01*
X68948100Y-78974000D01*
X68249600Y-78974000D01*
X68249600Y-77462700D01*
X63982400Y-77462700D01*
X63982400Y-78974000D01*
X63283900Y-78974000D01*
X63283900Y-75100500D01*
X63982400Y-75100500D01*
X63982400Y-76611800D01*
X63982400Y-76611800D01*
G37*
X63982400Y-76611800D02*
X68249600Y-76611800D01*
X68249600Y-75100500D01*
X68948100Y-75100500D01*
X68948100Y-78974000D01*
X68249600Y-78974000D01*
X68249600Y-77462700D01*
X63982400Y-77462700D01*
X63982400Y-78974000D01*
X63283900Y-78974000D01*
X63283900Y-75100500D01*
X63982400Y-75100500D01*
X63982400Y-76611800D01*
G36*
X57664150Y-77875450D02*
X57697187Y-77945300D01*
X57735197Y-78010937D01*
X57779169Y-78062687D01*
X57824591Y-78095445D01*
X57833251Y-78099192D01*
X57848946Y-78100389D01*
X57888884Y-78101544D01*
X57951906Y-78102653D01*
X58036856Y-78103710D01*
X58142575Y-78104710D01*
X58267907Y-78105647D01*
X58411692Y-78106516D01*
X58572775Y-78107311D01*
X58749997Y-78108028D01*
X58942201Y-78108661D01*
X59148229Y-78109204D01*
X59366924Y-78109653D01*
X59597127Y-78110001D01*
X59837682Y-78110244D01*
X60087431Y-78110376D01*
X60249426Y-78110400D01*
X62636200Y-78110400D01*
X62636200Y-78974000D01*
X60118425Y-78972451D01*
X59866309Y-78972241D01*
X59620367Y-78971930D01*
X59381857Y-78971523D01*
X59152034Y-78971026D01*
X58932154Y-78970445D01*
X58723473Y-78969787D01*
X58527247Y-78969058D01*
X58344733Y-78968263D01*
X58177186Y-78967409D01*
X58025863Y-78966501D01*
X57892020Y-78965546D01*
X57776913Y-78964551D01*
X57681798Y-78963519D01*
X57607931Y-78962459D01*
X57556568Y-78961376D01*
X57528966Y-78960276D01*
X57525466Y-78959938D01*
X57417439Y-78931669D01*
X57315622Y-78880555D01*
X57222313Y-78808844D01*
X57139812Y-78718788D01*
X57070415Y-78612638D01*
X57016421Y-78492643D01*
X57001202Y-78446511D01*
X56997894Y-78434298D01*
X56994915Y-78419989D01*
X56992244Y-78402234D01*
X56989861Y-78379686D01*
X56987746Y-78350997D01*
X56985876Y-78314817D01*
X56984233Y-78269800D01*
X56982795Y-78214596D01*
X56981542Y-78147857D01*
X56980453Y-78068235D01*
X56979507Y-77974382D01*
X56978684Y-77864949D01*
X56977963Y-77738588D01*
X56977324Y-77593950D01*
X56976745Y-77429689D01*
X56976207Y-77244454D01*
X56975688Y-77036898D01*
X56975168Y-76805673D01*
X56975018Y-76735625D01*
X56971533Y-75100500D01*
X57657150Y-75100500D01*
X57664150Y-77875450D01*
X57664150Y-77875450D01*
G37*
X57664150Y-77875450D02*
X57697187Y-77945300D01*
X57735197Y-78010937D01*
X57779169Y-78062687D01*
X57824591Y-78095445D01*
X57833251Y-78099192D01*
X57848946Y-78100389D01*
X57888884Y-78101544D01*
X57951906Y-78102653D01*
X58036856Y-78103710D01*
X58142575Y-78104710D01*
X58267907Y-78105647D01*
X58411692Y-78106516D01*
X58572775Y-78107311D01*
X58749997Y-78108028D01*
X58942201Y-78108661D01*
X59148229Y-78109204D01*
X59366924Y-78109653D01*
X59597127Y-78110001D01*
X59837682Y-78110244D01*
X60087431Y-78110376D01*
X60249426Y-78110400D01*
X62636200Y-78110400D01*
X62636200Y-78974000D01*
X60118425Y-78972451D01*
X59866309Y-78972241D01*
X59620367Y-78971930D01*
X59381857Y-78971523D01*
X59152034Y-78971026D01*
X58932154Y-78970445D01*
X58723473Y-78969787D01*
X58527247Y-78969058D01*
X58344733Y-78968263D01*
X58177186Y-78967409D01*
X58025863Y-78966501D01*
X57892020Y-78965546D01*
X57776913Y-78964551D01*
X57681798Y-78963519D01*
X57607931Y-78962459D01*
X57556568Y-78961376D01*
X57528966Y-78960276D01*
X57525466Y-78959938D01*
X57417439Y-78931669D01*
X57315622Y-78880555D01*
X57222313Y-78808844D01*
X57139812Y-78718788D01*
X57070415Y-78612638D01*
X57016421Y-78492643D01*
X57001202Y-78446511D01*
X56997894Y-78434298D01*
X56994915Y-78419989D01*
X56992244Y-78402234D01*
X56989861Y-78379686D01*
X56987746Y-78350997D01*
X56985876Y-78314817D01*
X56984233Y-78269800D01*
X56982795Y-78214596D01*
X56981542Y-78147857D01*
X56980453Y-78068235D01*
X56979507Y-77974382D01*
X56978684Y-77864949D01*
X56977963Y-77738588D01*
X56977324Y-77593950D01*
X56976745Y-77429689D01*
X56976207Y-77244454D01*
X56975688Y-77036898D01*
X56975168Y-76805673D01*
X56975018Y-76735625D01*
X56971533Y-75100500D01*
X57657150Y-75100500D01*
X57664150Y-77875450D01*
G36*
X69870619Y-70303075D02*
X69866113Y-70317553D01*
X69854368Y-70354390D01*
X69835969Y-70411778D01*
X69811499Y-70487911D01*
X69781542Y-70580981D01*
X69746682Y-70689181D01*
X69707504Y-70810705D01*
X69664590Y-70943746D01*
X69618525Y-71086496D01*
X69569893Y-71237148D01*
X69519278Y-71393896D01*
X69467264Y-71554933D01*
X69414434Y-71718451D01*
X69361373Y-71882643D01*
X69308664Y-72045703D01*
X69256892Y-72205824D01*
X69206640Y-72361198D01*
X69158492Y-72510018D01*
X69113033Y-72650478D01*
X69070845Y-72780771D01*
X69032514Y-72899089D01*
X68998623Y-73003626D01*
X68969756Y-73092574D01*
X68946496Y-73164127D01*
X68929429Y-73216478D01*
X68919137Y-73247819D01*
X68916388Y-73255983D01*
X68919549Y-73260284D01*
X68933785Y-73263697D01*
X68961132Y-73266280D01*
X69003626Y-73268088D01*
X69063302Y-73269178D01*
X69142197Y-73269609D01*
X69242345Y-73269436D01*
X69365783Y-73268716D01*
X69370446Y-73268683D01*
X69830217Y-73265350D01*
X70097793Y-72439850D01*
X70365368Y-71614350D01*
X71650634Y-71611114D01*
X71828962Y-71610733D01*
X71999955Y-71610500D01*
X72161924Y-71610409D01*
X72313178Y-71610457D01*
X72452027Y-71610638D01*
X72576781Y-71610946D01*
X72685750Y-71611378D01*
X72777243Y-71611927D01*
X72849571Y-71612590D01*
X72901043Y-71613361D01*
X72929969Y-71614235D01*
X72935900Y-71614894D01*
X72932111Y-71627522D01*
X72921263Y-71661902D01*
X72904134Y-71715629D01*
X72881501Y-71786296D01*
X72854143Y-71871494D01*
X72822836Y-71968817D01*
X72788359Y-72075857D01*
X72751489Y-72190208D01*
X72713005Y-72309461D01*
X72673683Y-72431211D01*
X72634302Y-72553049D01*
X72595639Y-72672568D01*
X72558472Y-72787362D01*
X72523579Y-72895022D01*
X72491738Y-72993142D01*
X72463725Y-73079315D01*
X72440320Y-73151133D01*
X72422299Y-73206188D01*
X72410441Y-73242075D01*
X72405744Y-73255824D01*
X72409242Y-73258953D01*
X72423212Y-73261668D01*
X72449100Y-73263996D01*
X72488355Y-73265962D01*
X72542423Y-73267590D01*
X72612750Y-73268907D01*
X72700785Y-73269937D01*
X72807974Y-73270705D01*
X72935764Y-73271237D01*
X73085602Y-73271557D01*
X73258936Y-73271692D01*
X73318794Y-73271699D01*
X73505088Y-73271796D01*
X73667914Y-73272106D01*
X73809205Y-73272667D01*
X73930893Y-73273510D01*
X74034908Y-73274671D01*
X74123184Y-73276184D01*
X74197652Y-73278084D01*
X74260244Y-73280404D01*
X74312892Y-73283178D01*
X74357528Y-73286442D01*
X74396084Y-73290228D01*
X74402016Y-73290908D01*
X74707457Y-73339069D01*
X75003814Y-73410869D01*
X75290443Y-73505991D01*
X75566706Y-73624120D01*
X75831959Y-73764939D01*
X76085563Y-73928132D01*
X76326876Y-74113383D01*
X76555257Y-74320375D01*
X76619265Y-74384720D01*
X76819215Y-74606776D01*
X76996652Y-74838791D01*
X77153318Y-75083181D01*
X77249691Y-75259260D01*
X77371181Y-75517151D01*
X77469646Y-75772702D01*
X77545987Y-76029672D01*
X77601104Y-76291823D01*
X77635896Y-76562917D01*
X77651263Y-76846714D01*
X77652225Y-76942000D01*
X77642958Y-77230718D01*
X77614557Y-77505516D01*
X77566123Y-77770152D01*
X77496756Y-78028389D01*
X77405556Y-78283987D01*
X77291624Y-78540708D01*
X77249691Y-78624739D01*
X77102721Y-78884105D01*
X76934170Y-79131149D01*
X76745452Y-79364342D01*
X76537978Y-79582156D01*
X76313161Y-79783064D01*
X76072412Y-79965536D01*
X75914639Y-80069442D01*
X75669970Y-80207926D01*
X75410344Y-80328869D01*
X75140994Y-80430138D01*
X74867152Y-80509606D01*
X74787141Y-80528381D01*
X74744747Y-80537909D01*
X74706439Y-80546613D01*
X74670968Y-80554534D01*
X74637084Y-80561712D01*
X74603536Y-80568188D01*
X74569074Y-80574001D01*
X74532450Y-80579192D01*
X74492412Y-80583802D01*
X74447712Y-80587871D01*
X74397099Y-80591438D01*
X74339323Y-80594545D01*
X74273135Y-80597232D01*
X74197285Y-80599539D01*
X74110522Y-80601506D01*
X74011598Y-80603174D01*
X73899262Y-80604583D01*
X73772264Y-80605774D01*
X73629354Y-80606786D01*
X73469283Y-80607661D01*
X73290801Y-80608438D01*
X73092658Y-80609158D01*
X72873603Y-80609861D01*
X72632388Y-80610588D01*
X72367762Y-80611379D01*
X72199748Y-80611893D01*
X70022147Y-80618650D01*
X69487047Y-82269650D01*
X68201573Y-82272885D01*
X68023230Y-82273266D01*
X67852222Y-82273499D01*
X67690238Y-82273590D01*
X67538968Y-82273542D01*
X67400103Y-82273362D01*
X67275333Y-82273053D01*
X67166346Y-82272622D01*
X67074835Y-82272072D01*
X67002487Y-82271409D01*
X66950994Y-82270639D01*
X66922046Y-82269765D01*
X66916100Y-82269105D01*
X66919888Y-82256475D01*
X66930736Y-82222091D01*
X66947866Y-82168361D01*
X66970500Y-82097691D01*
X66997859Y-82012490D01*
X67029167Y-81915163D01*
X67063646Y-81808118D01*
X67100518Y-81693763D01*
X67139004Y-81574504D01*
X67178329Y-81452748D01*
X67217713Y-81330903D01*
X67256379Y-81211376D01*
X67293550Y-81096574D01*
X67328447Y-80988903D01*
X67360293Y-80890772D01*
X67388311Y-80804587D01*
X67411722Y-80732756D01*
X67429748Y-80677685D01*
X67441613Y-80641782D01*
X67446317Y-80628015D01*
X67443252Y-80623716D01*
X67429124Y-80620305D01*
X67401900Y-80617723D01*
X67359545Y-80615914D01*
X67300025Y-80614821D01*
X67221306Y-80614387D01*
X67121353Y-80614556D01*
X66998132Y-80615270D01*
X66991897Y-80615315D01*
X66531454Y-80618650D01*
X66047502Y-82114042D01*
X65563550Y-83609435D01*
X63958798Y-83609467D01*
X62354046Y-83609500D01*
X62361353Y-83580925D01*
X62365825Y-83566572D01*
X62377536Y-83529861D01*
X62395903Y-83472596D01*
X62420342Y-83396583D01*
X62450270Y-83303628D01*
X62485103Y-83195537D01*
X62524257Y-83074116D01*
X62567149Y-82941170D01*
X62613196Y-82798506D01*
X62661812Y-82647929D01*
X62712415Y-82491245D01*
X62764422Y-82330259D01*
X62817248Y-82166779D01*
X62870310Y-82002609D01*
X62923024Y-81839555D01*
X62974807Y-81679423D01*
X63025075Y-81524019D01*
X63073244Y-81375150D01*
X63118731Y-81234619D01*
X63160952Y-81104234D01*
X63199323Y-80985801D01*
X63233261Y-80881124D01*
X63262183Y-80792010D01*
X63285504Y-80720265D01*
X63302640Y-80667695D01*
X63313009Y-80636105D01*
X63315724Y-80628016D01*
X63312528Y-80623714D01*
X63298255Y-80620300D01*
X63270868Y-80617718D01*
X63228330Y-80615910D01*
X63168605Y-80614820D01*
X63089658Y-80614390D01*
X62989451Y-80614565D01*
X62865949Y-80615286D01*
X62861707Y-80615316D01*
X62402090Y-80618650D01*
X62134692Y-81444150D01*
X61867295Y-82269650D01*
X60581697Y-82272885D01*
X60403346Y-82273266D01*
X60232328Y-82273499D01*
X60070335Y-82273590D01*
X59919057Y-82273542D01*
X59780182Y-82273362D01*
X59655401Y-82273053D01*
X59546404Y-82272622D01*
X59454882Y-82272072D01*
X59382523Y-82271410D01*
X59331017Y-82270639D01*
X59302056Y-82269765D01*
X59296100Y-82269105D01*
X59299888Y-82256477D01*
X59310736Y-82222097D01*
X59327865Y-82168370D01*
X59350498Y-82097703D01*
X59377856Y-82012505D01*
X59409163Y-81915182D01*
X59443640Y-81808142D01*
X59480510Y-81693791D01*
X59518994Y-81574538D01*
X59558316Y-81452788D01*
X59597697Y-81330950D01*
X59636360Y-81211431D01*
X59673527Y-81096637D01*
X59708420Y-80988977D01*
X59740261Y-80890857D01*
X59768274Y-80804684D01*
X59791679Y-80732866D01*
X59809700Y-80677811D01*
X59821558Y-80641924D01*
X59826255Y-80628175D01*
X59822757Y-80625046D01*
X59808787Y-80622331D01*
X59782899Y-80620003D01*
X59743644Y-80618037D01*
X59689576Y-80616409D01*
X59619249Y-80615092D01*
X59531214Y-80614062D01*
X59424025Y-80613294D01*
X59296235Y-80612762D01*
X59146397Y-80612442D01*
X58973063Y-80612307D01*
X58913205Y-80612300D01*
X58726911Y-80612203D01*
X58564085Y-80611893D01*
X58422794Y-80611332D01*
X58301106Y-80610489D01*
X58197091Y-80609328D01*
X58108815Y-80607815D01*
X58034347Y-80605915D01*
X57971755Y-80603595D01*
X57919107Y-80600821D01*
X57874471Y-80597557D01*
X57835915Y-80593771D01*
X57829983Y-80593091D01*
X57524542Y-80544930D01*
X57228185Y-80473130D01*
X56941556Y-80378008D01*
X56665293Y-80259879D01*
X56400040Y-80119060D01*
X56146436Y-79955867D01*
X55905123Y-79770616D01*
X55676742Y-79563624D01*
X55612734Y-79499279D01*
X55412784Y-79277223D01*
X55235347Y-79045208D01*
X55078681Y-78800818D01*
X54982308Y-78624739D01*
X54860818Y-78366848D01*
X54762353Y-78111297D01*
X54686012Y-77854327D01*
X54630895Y-77592176D01*
X54596103Y-77321082D01*
X54580736Y-77037285D01*
X54579774Y-76942000D01*
X54800300Y-76942000D01*
X54811673Y-77230585D01*
X54846128Y-77511096D01*
X54904163Y-77785647D01*
X54986279Y-78056355D01*
X55092974Y-78325333D01*
X55161845Y-78472350D01*
X55302529Y-78728932D01*
X55464192Y-78971745D01*
X55645835Y-79199743D01*
X55846454Y-79411879D01*
X56065047Y-79607109D01*
X56300611Y-79784386D01*
X56552146Y-79942666D01*
X56593563Y-79966023D01*
X56833379Y-80085824D01*
X57087959Y-80187912D01*
X57352596Y-80270879D01*
X57622582Y-80333321D01*
X57893209Y-80373833D01*
X57989158Y-80382721D01*
X58009201Y-80383290D01*
X58053954Y-80383845D01*
X58122730Y-80384386D01*
X58214838Y-80384912D01*
X58329591Y-80385423D01*
X58466298Y-80385917D01*
X58624272Y-80386394D01*
X58802822Y-80386853D01*
X59001261Y-80387294D01*
X59218898Y-80387715D01*
X59455046Y-80388117D01*
X59709015Y-80388498D01*
X59980115Y-80388858D01*
X60267659Y-80389196D01*
X60570957Y-80389511D01*
X60889319Y-80389802D01*
X61222058Y-80390070D01*
X61568484Y-80390312D01*
X61927908Y-80390530D01*
X62299641Y-80390721D01*
X62682994Y-80390885D01*
X63077278Y-80391021D01*
X63481804Y-80391129D01*
X63895884Y-80391208D01*
X64318827Y-80391257D01*
X64749945Y-80391276D01*
X65188550Y-80391263D01*
X65633951Y-80391219D01*
X66085461Y-80391142D01*
X66198550Y-80391118D01*
X66741921Y-80390994D01*
X67260483Y-80390870D01*
X67754825Y-80390744D01*
X68225535Y-80390614D01*
X68673205Y-80390479D01*
X69098424Y-80390336D01*
X69501782Y-80390184D01*
X69883868Y-80390022D01*
X70245273Y-80389847D01*
X70586586Y-80389657D01*
X70908396Y-80389452D01*
X71211295Y-80389230D01*
X71495871Y-80388988D01*
X71762714Y-80388724D01*
X72012415Y-80388438D01*
X72245562Y-80388128D01*
X72462746Y-80387791D01*
X72664557Y-80387426D01*
X72851584Y-80387031D01*
X73024417Y-80386605D01*
X73183646Y-80386145D01*
X73329861Y-80385651D01*
X73463651Y-80385119D01*
X73585607Y-80384550D01*
X73696317Y-80383940D01*
X73796373Y-80383289D01*
X73886363Y-80382593D01*
X73966878Y-80381853D01*
X74038507Y-80381065D01*
X74101840Y-80380229D01*
X74157467Y-80379342D01*
X74205977Y-80378402D01*
X74247962Y-80377409D01*
X74284009Y-80376360D01*
X74314709Y-80375254D01*
X74340652Y-80374088D01*
X74362428Y-80372861D01*
X74380626Y-80371572D01*
X74395837Y-80370219D01*
X74408649Y-80368799D01*
X74419654Y-80367311D01*
X74421800Y-80366989D01*
X74657761Y-80324205D01*
X74885291Y-80269704D01*
X75098553Y-80205011D01*
X75237950Y-80153791D01*
X75509204Y-80032414D01*
X75766803Y-79890199D01*
X76009780Y-79728208D01*
X76237167Y-79547505D01*
X76447997Y-79349152D01*
X76641303Y-79134211D01*
X76816117Y-78903747D01*
X76971472Y-78658820D01*
X77106400Y-78400494D01*
X77219934Y-78129832D01*
X77299332Y-77889354D01*
X77366150Y-77614783D01*
X77409662Y-77333110D01*
X77429869Y-77047335D01*
X77426771Y-76760460D01*
X77400369Y-76475483D01*
X77350661Y-76195405D01*
X77299332Y-75994645D01*
X77208238Y-75724286D01*
X77094776Y-75461303D01*
X76960476Y-75208151D01*
X76806869Y-74967287D01*
X76635482Y-74741167D01*
X76447845Y-74532247D01*
X76301400Y-74391928D01*
X76068019Y-74198985D01*
X75823273Y-74028748D01*
X75567331Y-73881295D01*
X75300361Y-73756702D01*
X75022532Y-73655045D01*
X74734011Y-73576401D01*
X74434969Y-73520845D01*
X74358300Y-73510538D01*
X74336076Y-73509356D01*
X74289282Y-73508213D01*
X74218746Y-73507109D01*
X74125297Y-73506044D01*
X74009765Y-73505019D01*
X73872978Y-73504033D01*
X73715766Y-73503086D01*
X73538958Y-73502178D01*
X73343382Y-73501310D01*
X73129868Y-73500481D01*
X72899246Y-73499691D01*
X72652343Y-73498940D01*
X72389990Y-73498229D01*
X72113015Y-73497556D01*
X71822247Y-73496923D01*
X71518516Y-73496329D01*
X71202651Y-73495775D01*
X70875480Y-73495260D01*
X70537833Y-73494784D01*
X70190539Y-73494347D01*
X69834427Y-73493949D01*
X69470327Y-73493591D01*
X69099066Y-73493271D01*
X68721474Y-73492992D01*
X68338382Y-73492751D01*
X67950616Y-73492549D01*
X67559007Y-73492387D01*
X67164384Y-73492264D01*
X66767576Y-73492180D01*
X66369411Y-73492136D01*
X65970720Y-73492130D01*
X65572330Y-73492164D01*
X65175072Y-73492237D01*
X64779774Y-73492350D01*
X64387266Y-73492501D01*
X63998376Y-73492692D01*
X63613934Y-73492922D01*
X63234768Y-73493192D01*
X62861708Y-73493500D01*
X62495583Y-73493848D01*
X62137222Y-73494235D01*
X61787454Y-73494661D01*
X61447108Y-73495127D01*
X61117014Y-73495631D01*
X60798000Y-73496175D01*
X60490895Y-73496758D01*
X60196529Y-73497381D01*
X59915731Y-73498042D01*
X59649330Y-73498743D01*
X59398154Y-73499483D01*
X59163033Y-73500263D01*
X58944797Y-73501081D01*
X58744273Y-73501939D01*
X58562292Y-73502836D01*
X58399682Y-73503772D01*
X58257273Y-73504747D01*
X58135893Y-73505762D01*
X58036372Y-73506816D01*
X57959539Y-73507909D01*
X57906222Y-73509042D01*
X57877252Y-73510213D01*
X57873700Y-73510538D01*
X57573691Y-73560157D01*
X57283377Y-73632879D01*
X57003635Y-73728162D01*
X56735341Y-73845463D01*
X56479371Y-73984241D01*
X56236601Y-74143953D01*
X56007908Y-74324056D01*
X55794168Y-74524009D01*
X55596256Y-74743268D01*
X55415050Y-74981293D01*
X55355858Y-75068750D01*
X55209263Y-75315118D01*
X55084047Y-75574022D01*
X54980836Y-75843351D01*
X54900255Y-76120999D01*
X54842929Y-76404855D01*
X54809485Y-76692812D01*
X54800300Y-76942000D01*
X54579774Y-76942000D01*
X54589041Y-76653281D01*
X54617442Y-76378483D01*
X54665876Y-76113847D01*
X54735243Y-75855610D01*
X54826443Y-75600012D01*
X54940375Y-75343291D01*
X54982308Y-75259260D01*
X55129278Y-74999894D01*
X55297829Y-74752850D01*
X55486547Y-74519657D01*
X55694021Y-74301843D01*
X55918838Y-74100935D01*
X56159587Y-73918463D01*
X56317360Y-73814557D01*
X56562029Y-73676073D01*
X56821655Y-73555130D01*
X57091005Y-73453861D01*
X57364847Y-73374393D01*
X57444858Y-73355618D01*
X57487250Y-73346090D01*
X57525556Y-73337386D01*
X57561026Y-73329466D01*
X57594909Y-73322288D01*
X57628456Y-73315812D01*
X57662916Y-73309999D01*
X57699539Y-73304808D01*
X57739575Y-73300198D01*
X57784273Y-73296130D01*
X57834884Y-73292562D01*
X57892656Y-73289455D01*
X57958841Y-73286768D01*
X58034688Y-73284462D01*
X58121446Y-73282494D01*
X58220365Y-73280826D01*
X58332696Y-73279417D01*
X58459687Y-73278226D01*
X58602589Y-73277213D01*
X58762652Y-73276339D01*
X58941125Y-73275561D01*
X59139258Y-73274841D01*
X59358300Y-73274138D01*
X59599503Y-73273412D01*
X59864115Y-73272621D01*
X60032432Y-73272106D01*
X62210214Y-73265350D01*
X62745368Y-71614350D01*
X64030634Y-71611114D01*
X64208962Y-71610733D01*
X64379955Y-71610500D01*
X64541924Y-71610409D01*
X64693178Y-71610457D01*
X64832027Y-71610638D01*
X64956781Y-71610946D01*
X65065750Y-71611378D01*
X65157243Y-71611927D01*
X65229571Y-71612590D01*
X65281043Y-71613361D01*
X65309969Y-71614235D01*
X65315900Y-71614894D01*
X65312111Y-71627524D01*
X65301263Y-71661908D01*
X65284133Y-71715638D01*
X65261499Y-71786308D01*
X65234140Y-71871509D01*
X65202832Y-71968836D01*
X65168353Y-72075881D01*
X65131481Y-72190236D01*
X65092995Y-72309495D01*
X65053670Y-72431251D01*
X65014286Y-72553096D01*
X64975620Y-72672623D01*
X64938449Y-72787425D01*
X64903552Y-72895096D01*
X64871706Y-72993227D01*
X64843688Y-73079412D01*
X64820277Y-73151243D01*
X64802251Y-73206314D01*
X64790386Y-73242217D01*
X64785682Y-73255984D01*
X64788748Y-73260281D01*
X64802874Y-73263692D01*
X64830094Y-73266273D01*
X64872443Y-73268083D01*
X64931953Y-73269176D01*
X65010658Y-73269611D01*
X65110592Y-73269444D01*
X65233787Y-73268732D01*
X65240461Y-73268684D01*
X65701263Y-73265350D01*
X66184856Y-71770062D01*
X66668450Y-70274775D01*
X68273201Y-70274637D01*
X69877953Y-70274500D01*
X69870619Y-70303075D01*
X69870619Y-70303075D01*
G37*
X69870619Y-70303075D02*
X69866113Y-70317553D01*
X69854368Y-70354390D01*
X69835969Y-70411778D01*
X69811499Y-70487911D01*
X69781542Y-70580981D01*
X69746682Y-70689181D01*
X69707504Y-70810705D01*
X69664590Y-70943746D01*
X69618525Y-71086496D01*
X69569893Y-71237148D01*
X69519278Y-71393896D01*
X69467264Y-71554933D01*
X69414434Y-71718451D01*
X69361373Y-71882643D01*
X69308664Y-72045703D01*
X69256892Y-72205824D01*
X69206640Y-72361198D01*
X69158492Y-72510018D01*
X69113033Y-72650478D01*
X69070845Y-72780771D01*
X69032514Y-72899089D01*
X68998623Y-73003626D01*
X68969756Y-73092574D01*
X68946496Y-73164127D01*
X68929429Y-73216478D01*
X68919137Y-73247819D01*
X68916388Y-73255983D01*
X68919549Y-73260284D01*
X68933785Y-73263697D01*
X68961132Y-73266280D01*
X69003626Y-73268088D01*
X69063302Y-73269178D01*
X69142197Y-73269609D01*
X69242345Y-73269436D01*
X69365783Y-73268716D01*
X69370446Y-73268683D01*
X69830217Y-73265350D01*
X70097793Y-72439850D01*
X70365368Y-71614350D01*
X71650634Y-71611114D01*
X71828962Y-71610733D01*
X71999955Y-71610500D01*
X72161924Y-71610409D01*
X72313178Y-71610457D01*
X72452027Y-71610638D01*
X72576781Y-71610946D01*
X72685750Y-71611378D01*
X72777243Y-71611927D01*
X72849571Y-71612590D01*
X72901043Y-71613361D01*
X72929969Y-71614235D01*
X72935900Y-71614894D01*
X72932111Y-71627522D01*
X72921263Y-71661902D01*
X72904134Y-71715629D01*
X72881501Y-71786296D01*
X72854143Y-71871494D01*
X72822836Y-71968817D01*
X72788359Y-72075857D01*
X72751489Y-72190208D01*
X72713005Y-72309461D01*
X72673683Y-72431211D01*
X72634302Y-72553049D01*
X72595639Y-72672568D01*
X72558472Y-72787362D01*
X72523579Y-72895022D01*
X72491738Y-72993142D01*
X72463725Y-73079315D01*
X72440320Y-73151133D01*
X72422299Y-73206188D01*
X72410441Y-73242075D01*
X72405744Y-73255824D01*
X72409242Y-73258953D01*
X72423212Y-73261668D01*
X72449100Y-73263996D01*
X72488355Y-73265962D01*
X72542423Y-73267590D01*
X72612750Y-73268907D01*
X72700785Y-73269937D01*
X72807974Y-73270705D01*
X72935764Y-73271237D01*
X73085602Y-73271557D01*
X73258936Y-73271692D01*
X73318794Y-73271699D01*
X73505088Y-73271796D01*
X73667914Y-73272106D01*
X73809205Y-73272667D01*
X73930893Y-73273510D01*
X74034908Y-73274671D01*
X74123184Y-73276184D01*
X74197652Y-73278084D01*
X74260244Y-73280404D01*
X74312892Y-73283178D01*
X74357528Y-73286442D01*
X74396084Y-73290228D01*
X74402016Y-73290908D01*
X74707457Y-73339069D01*
X75003814Y-73410869D01*
X75290443Y-73505991D01*
X75566706Y-73624120D01*
X75831959Y-73764939D01*
X76085563Y-73928132D01*
X76326876Y-74113383D01*
X76555257Y-74320375D01*
X76619265Y-74384720D01*
X76819215Y-74606776D01*
X76996652Y-74838791D01*
X77153318Y-75083181D01*
X77249691Y-75259260D01*
X77371181Y-75517151D01*
X77469646Y-75772702D01*
X77545987Y-76029672D01*
X77601104Y-76291823D01*
X77635896Y-76562917D01*
X77651263Y-76846714D01*
X77652225Y-76942000D01*
X77642958Y-77230718D01*
X77614557Y-77505516D01*
X77566123Y-77770152D01*
X77496756Y-78028389D01*
X77405556Y-78283987D01*
X77291624Y-78540708D01*
X77249691Y-78624739D01*
X77102721Y-78884105D01*
X76934170Y-79131149D01*
X76745452Y-79364342D01*
X76537978Y-79582156D01*
X76313161Y-79783064D01*
X76072412Y-79965536D01*
X75914639Y-80069442D01*
X75669970Y-80207926D01*
X75410344Y-80328869D01*
X75140994Y-80430138D01*
X74867152Y-80509606D01*
X74787141Y-80528381D01*
X74744747Y-80537909D01*
X74706439Y-80546613D01*
X74670968Y-80554534D01*
X74637084Y-80561712D01*
X74603536Y-80568188D01*
X74569074Y-80574001D01*
X74532450Y-80579192D01*
X74492412Y-80583802D01*
X74447712Y-80587871D01*
X74397099Y-80591438D01*
X74339323Y-80594545D01*
X74273135Y-80597232D01*
X74197285Y-80599539D01*
X74110522Y-80601506D01*
X74011598Y-80603174D01*
X73899262Y-80604583D01*
X73772264Y-80605774D01*
X73629354Y-80606786D01*
X73469283Y-80607661D01*
X73290801Y-80608438D01*
X73092658Y-80609158D01*
X72873603Y-80609861D01*
X72632388Y-80610588D01*
X72367762Y-80611379D01*
X72199748Y-80611893D01*
X70022147Y-80618650D01*
X69487047Y-82269650D01*
X68201573Y-82272885D01*
X68023230Y-82273266D01*
X67852222Y-82273499D01*
X67690238Y-82273590D01*
X67538968Y-82273542D01*
X67400103Y-82273362D01*
X67275333Y-82273053D01*
X67166346Y-82272622D01*
X67074835Y-82272072D01*
X67002487Y-82271409D01*
X66950994Y-82270639D01*
X66922046Y-82269765D01*
X66916100Y-82269105D01*
X66919888Y-82256475D01*
X66930736Y-82222091D01*
X66947866Y-82168361D01*
X66970500Y-82097691D01*
X66997859Y-82012490D01*
X67029167Y-81915163D01*
X67063646Y-81808118D01*
X67100518Y-81693763D01*
X67139004Y-81574504D01*
X67178329Y-81452748D01*
X67217713Y-81330903D01*
X67256379Y-81211376D01*
X67293550Y-81096574D01*
X67328447Y-80988903D01*
X67360293Y-80890772D01*
X67388311Y-80804587D01*
X67411722Y-80732756D01*
X67429748Y-80677685D01*
X67441613Y-80641782D01*
X67446317Y-80628015D01*
X67443252Y-80623716D01*
X67429124Y-80620305D01*
X67401900Y-80617723D01*
X67359545Y-80615914D01*
X67300025Y-80614821D01*
X67221306Y-80614387D01*
X67121353Y-80614556D01*
X66998132Y-80615270D01*
X66991897Y-80615315D01*
X66531454Y-80618650D01*
X66047502Y-82114042D01*
X65563550Y-83609435D01*
X63958798Y-83609467D01*
X62354046Y-83609500D01*
X62361353Y-83580925D01*
X62365825Y-83566572D01*
X62377536Y-83529861D01*
X62395903Y-83472596D01*
X62420342Y-83396583D01*
X62450270Y-83303628D01*
X62485103Y-83195537D01*
X62524257Y-83074116D01*
X62567149Y-82941170D01*
X62613196Y-82798506D01*
X62661812Y-82647929D01*
X62712415Y-82491245D01*
X62764422Y-82330259D01*
X62817248Y-82166779D01*
X62870310Y-82002609D01*
X62923024Y-81839555D01*
X62974807Y-81679423D01*
X63025075Y-81524019D01*
X63073244Y-81375150D01*
X63118731Y-81234619D01*
X63160952Y-81104234D01*
X63199323Y-80985801D01*
X63233261Y-80881124D01*
X63262183Y-80792010D01*
X63285504Y-80720265D01*
X63302640Y-80667695D01*
X63313009Y-80636105D01*
X63315724Y-80628016D01*
X63312528Y-80623714D01*
X63298255Y-80620300D01*
X63270868Y-80617718D01*
X63228330Y-80615910D01*
X63168605Y-80614820D01*
X63089658Y-80614390D01*
X62989451Y-80614565D01*
X62865949Y-80615286D01*
X62861707Y-80615316D01*
X62402090Y-80618650D01*
X62134692Y-81444150D01*
X61867295Y-82269650D01*
X60581697Y-82272885D01*
X60403346Y-82273266D01*
X60232328Y-82273499D01*
X60070335Y-82273590D01*
X59919057Y-82273542D01*
X59780182Y-82273362D01*
X59655401Y-82273053D01*
X59546404Y-82272622D01*
X59454882Y-82272072D01*
X59382523Y-82271410D01*
X59331017Y-82270639D01*
X59302056Y-82269765D01*
X59296100Y-82269105D01*
X59299888Y-82256477D01*
X59310736Y-82222097D01*
X59327865Y-82168370D01*
X59350498Y-82097703D01*
X59377856Y-82012505D01*
X59409163Y-81915182D01*
X59443640Y-81808142D01*
X59480510Y-81693791D01*
X59518994Y-81574538D01*
X59558316Y-81452788D01*
X59597697Y-81330950D01*
X59636360Y-81211431D01*
X59673527Y-81096637D01*
X59708420Y-80988977D01*
X59740261Y-80890857D01*
X59768274Y-80804684D01*
X59791679Y-80732866D01*
X59809700Y-80677811D01*
X59821558Y-80641924D01*
X59826255Y-80628175D01*
X59822757Y-80625046D01*
X59808787Y-80622331D01*
X59782899Y-80620003D01*
X59743644Y-80618037D01*
X59689576Y-80616409D01*
X59619249Y-80615092D01*
X59531214Y-80614062D01*
X59424025Y-80613294D01*
X59296235Y-80612762D01*
X59146397Y-80612442D01*
X58973063Y-80612307D01*
X58913205Y-80612300D01*
X58726911Y-80612203D01*
X58564085Y-80611893D01*
X58422794Y-80611332D01*
X58301106Y-80610489D01*
X58197091Y-80609328D01*
X58108815Y-80607815D01*
X58034347Y-80605915D01*
X57971755Y-80603595D01*
X57919107Y-80600821D01*
X57874471Y-80597557D01*
X57835915Y-80593771D01*
X57829983Y-80593091D01*
X57524542Y-80544930D01*
X57228185Y-80473130D01*
X56941556Y-80378008D01*
X56665293Y-80259879D01*
X56400040Y-80119060D01*
X56146436Y-79955867D01*
X55905123Y-79770616D01*
X55676742Y-79563624D01*
X55612734Y-79499279D01*
X55412784Y-79277223D01*
X55235347Y-79045208D01*
X55078681Y-78800818D01*
X54982308Y-78624739D01*
X54860818Y-78366848D01*
X54762353Y-78111297D01*
X54686012Y-77854327D01*
X54630895Y-77592176D01*
X54596103Y-77321082D01*
X54580736Y-77037285D01*
X54579774Y-76942000D01*
X54800300Y-76942000D01*
X54811673Y-77230585D01*
X54846128Y-77511096D01*
X54904163Y-77785647D01*
X54986279Y-78056355D01*
X55092974Y-78325333D01*
X55161845Y-78472350D01*
X55302529Y-78728932D01*
X55464192Y-78971745D01*
X55645835Y-79199743D01*
X55846454Y-79411879D01*
X56065047Y-79607109D01*
X56300611Y-79784386D01*
X56552146Y-79942666D01*
X56593563Y-79966023D01*
X56833379Y-80085824D01*
X57087959Y-80187912D01*
X57352596Y-80270879D01*
X57622582Y-80333321D01*
X57893209Y-80373833D01*
X57989158Y-80382721D01*
X58009201Y-80383290D01*
X58053954Y-80383845D01*
X58122730Y-80384386D01*
X58214838Y-80384912D01*
X58329591Y-80385423D01*
X58466298Y-80385917D01*
X58624272Y-80386394D01*
X58802822Y-80386853D01*
X59001261Y-80387294D01*
X59218898Y-80387715D01*
X59455046Y-80388117D01*
X59709015Y-80388498D01*
X59980115Y-80388858D01*
X60267659Y-80389196D01*
X60570957Y-80389511D01*
X60889319Y-80389802D01*
X61222058Y-80390070D01*
X61568484Y-80390312D01*
X61927908Y-80390530D01*
X62299641Y-80390721D01*
X62682994Y-80390885D01*
X63077278Y-80391021D01*
X63481804Y-80391129D01*
X63895884Y-80391208D01*
X64318827Y-80391257D01*
X64749945Y-80391276D01*
X65188550Y-80391263D01*
X65633951Y-80391219D01*
X66085461Y-80391142D01*
X66198550Y-80391118D01*
X66741921Y-80390994D01*
X67260483Y-80390870D01*
X67754825Y-80390744D01*
X68225535Y-80390614D01*
X68673205Y-80390479D01*
X69098424Y-80390336D01*
X69501782Y-80390184D01*
X69883868Y-80390022D01*
X70245273Y-80389847D01*
X70586586Y-80389657D01*
X70908396Y-80389452D01*
X71211295Y-80389230D01*
X71495871Y-80388988D01*
X71762714Y-80388724D01*
X72012415Y-80388438D01*
X72245562Y-80388128D01*
X72462746Y-80387791D01*
X72664557Y-80387426D01*
X72851584Y-80387031D01*
X73024417Y-80386605D01*
X73183646Y-80386145D01*
X73329861Y-80385651D01*
X73463651Y-80385119D01*
X73585607Y-80384550D01*
X73696317Y-80383940D01*
X73796373Y-80383289D01*
X73886363Y-80382593D01*
X73966878Y-80381853D01*
X74038507Y-80381065D01*
X74101840Y-80380229D01*
X74157467Y-80379342D01*
X74205977Y-80378402D01*
X74247962Y-80377409D01*
X74284009Y-80376360D01*
X74314709Y-80375254D01*
X74340652Y-80374088D01*
X74362428Y-80372861D01*
X74380626Y-80371572D01*
X74395837Y-80370219D01*
X74408649Y-80368799D01*
X74419654Y-80367311D01*
X74421800Y-80366989D01*
X74657761Y-80324205D01*
X74885291Y-80269704D01*
X75098553Y-80205011D01*
X75237950Y-80153791D01*
X75509204Y-80032414D01*
X75766803Y-79890199D01*
X76009780Y-79728208D01*
X76237167Y-79547505D01*
X76447997Y-79349152D01*
X76641303Y-79134211D01*
X76816117Y-78903747D01*
X76971472Y-78658820D01*
X77106400Y-78400494D01*
X77219934Y-78129832D01*
X77299332Y-77889354D01*
X77366150Y-77614783D01*
X77409662Y-77333110D01*
X77429869Y-77047335D01*
X77426771Y-76760460D01*
X77400369Y-76475483D01*
X77350661Y-76195405D01*
X77299332Y-75994645D01*
X77208238Y-75724286D01*
X77094776Y-75461303D01*
X76960476Y-75208151D01*
X76806869Y-74967287D01*
X76635482Y-74741167D01*
X76447845Y-74532247D01*
X76301400Y-74391928D01*
X76068019Y-74198985D01*
X75823273Y-74028748D01*
X75567331Y-73881295D01*
X75300361Y-73756702D01*
X75022532Y-73655045D01*
X74734011Y-73576401D01*
X74434969Y-73520845D01*
X74358300Y-73510538D01*
X74336076Y-73509356D01*
X74289282Y-73508213D01*
X74218746Y-73507109D01*
X74125297Y-73506044D01*
X74009765Y-73505019D01*
X73872978Y-73504033D01*
X73715766Y-73503086D01*
X73538958Y-73502178D01*
X73343382Y-73501310D01*
X73129868Y-73500481D01*
X72899246Y-73499691D01*
X72652343Y-73498940D01*
X72389990Y-73498229D01*
X72113015Y-73497556D01*
X71822247Y-73496923D01*
X71518516Y-73496329D01*
X71202651Y-73495775D01*
X70875480Y-73495260D01*
X70537833Y-73494784D01*
X70190539Y-73494347D01*
X69834427Y-73493949D01*
X69470327Y-73493591D01*
X69099066Y-73493271D01*
X68721474Y-73492992D01*
X68338382Y-73492751D01*
X67950616Y-73492549D01*
X67559007Y-73492387D01*
X67164384Y-73492264D01*
X66767576Y-73492180D01*
X66369411Y-73492136D01*
X65970720Y-73492130D01*
X65572330Y-73492164D01*
X65175072Y-73492237D01*
X64779774Y-73492350D01*
X64387266Y-73492501D01*
X63998376Y-73492692D01*
X63613934Y-73492922D01*
X63234768Y-73493192D01*
X62861708Y-73493500D01*
X62495583Y-73493848D01*
X62137222Y-73494235D01*
X61787454Y-73494661D01*
X61447108Y-73495127D01*
X61117014Y-73495631D01*
X60798000Y-73496175D01*
X60490895Y-73496758D01*
X60196529Y-73497381D01*
X59915731Y-73498042D01*
X59649330Y-73498743D01*
X59398154Y-73499483D01*
X59163033Y-73500263D01*
X58944797Y-73501081D01*
X58744273Y-73501939D01*
X58562292Y-73502836D01*
X58399682Y-73503772D01*
X58257273Y-73504747D01*
X58135893Y-73505762D01*
X58036372Y-73506816D01*
X57959539Y-73507909D01*
X57906222Y-73509042D01*
X57877252Y-73510213D01*
X57873700Y-73510538D01*
X57573691Y-73560157D01*
X57283377Y-73632879D01*
X57003635Y-73728162D01*
X56735341Y-73845463D01*
X56479371Y-73984241D01*
X56236601Y-74143953D01*
X56007908Y-74324056D01*
X55794168Y-74524009D01*
X55596256Y-74743268D01*
X55415050Y-74981293D01*
X55355858Y-75068750D01*
X55209263Y-75315118D01*
X55084047Y-75574022D01*
X54980836Y-75843351D01*
X54900255Y-76120999D01*
X54842929Y-76404855D01*
X54809485Y-76692812D01*
X54800300Y-76942000D01*
X54579774Y-76942000D01*
X54589041Y-76653281D01*
X54617442Y-76378483D01*
X54665876Y-76113847D01*
X54735243Y-75855610D01*
X54826443Y-75600012D01*
X54940375Y-75343291D01*
X54982308Y-75259260D01*
X55129278Y-74999894D01*
X55297829Y-74752850D01*
X55486547Y-74519657D01*
X55694021Y-74301843D01*
X55918838Y-74100935D01*
X56159587Y-73918463D01*
X56317360Y-73814557D01*
X56562029Y-73676073D01*
X56821655Y-73555130D01*
X57091005Y-73453861D01*
X57364847Y-73374393D01*
X57444858Y-73355618D01*
X57487250Y-73346090D01*
X57525556Y-73337386D01*
X57561026Y-73329466D01*
X57594909Y-73322288D01*
X57628456Y-73315812D01*
X57662916Y-73309999D01*
X57699539Y-73304808D01*
X57739575Y-73300198D01*
X57784273Y-73296130D01*
X57834884Y-73292562D01*
X57892656Y-73289455D01*
X57958841Y-73286768D01*
X58034688Y-73284462D01*
X58121446Y-73282494D01*
X58220365Y-73280826D01*
X58332696Y-73279417D01*
X58459687Y-73278226D01*
X58602589Y-73277213D01*
X58762652Y-73276339D01*
X58941125Y-73275561D01*
X59139258Y-73274841D01*
X59358300Y-73274138D01*
X59599503Y-73273412D01*
X59864115Y-73272621D01*
X60032432Y-73272106D01*
X62210214Y-73265350D01*
X62745368Y-71614350D01*
X64030634Y-71611114D01*
X64208962Y-71610733D01*
X64379955Y-71610500D01*
X64541924Y-71610409D01*
X64693178Y-71610457D01*
X64832027Y-71610638D01*
X64956781Y-71610946D01*
X65065750Y-71611378D01*
X65157243Y-71611927D01*
X65229571Y-71612590D01*
X65281043Y-71613361D01*
X65309969Y-71614235D01*
X65315900Y-71614894D01*
X65312111Y-71627524D01*
X65301263Y-71661908D01*
X65284133Y-71715638D01*
X65261499Y-71786308D01*
X65234140Y-71871509D01*
X65202832Y-71968836D01*
X65168353Y-72075881D01*
X65131481Y-72190236D01*
X65092995Y-72309495D01*
X65053670Y-72431251D01*
X65014286Y-72553096D01*
X64975620Y-72672623D01*
X64938449Y-72787425D01*
X64903552Y-72895096D01*
X64871706Y-72993227D01*
X64843688Y-73079412D01*
X64820277Y-73151243D01*
X64802251Y-73206314D01*
X64790386Y-73242217D01*
X64785682Y-73255984D01*
X64788748Y-73260281D01*
X64802874Y-73263692D01*
X64830094Y-73266273D01*
X64872443Y-73268083D01*
X64931953Y-73269176D01*
X65010658Y-73269611D01*
X65110592Y-73269444D01*
X65233787Y-73268732D01*
X65240461Y-73268684D01*
X65701263Y-73265350D01*
X66184856Y-71770062D01*
X66668450Y-70274775D01*
X68273201Y-70274637D01*
X69877953Y-70274500D01*
X69870619Y-70303075D01*
D14*
G04 #@! TO.C,J4*
X81320000Y-26202000D02*
X92060000Y-26202000D01*
X81320000Y-20902000D02*
X92060000Y-20902000D01*
X81320000Y-20442000D02*
X92060000Y-20442000D01*
X81320000Y-26762000D02*
X92060000Y-26762000D01*
X81320000Y-20442000D02*
X81320000Y-26762000D01*
X92060000Y-20442000D02*
X92060000Y-26762000D01*
X81080000Y-26262000D02*
X81080000Y-27002000D01*
X81080000Y-27002000D02*
X81580000Y-27002000D01*
G04 #@! TO.C,J1*
D13*
X38731666Y-36262380D02*
X38731666Y-36976666D01*
X38684047Y-37119523D01*
X38588809Y-37214761D01*
X38445952Y-37262380D01*
X38350714Y-37262380D01*
X39731666Y-37262380D02*
X39160238Y-37262380D01*
X39445952Y-37262380D02*
X39445952Y-36262380D01*
X39350714Y-36405238D01*
X39255476Y-36500476D01*
X39160238Y-36548095D01*
G04 #@! TO.C,J3*
X100580666Y-21276380D02*
X100580666Y-21990666D01*
X100533047Y-22133523D01*
X100437809Y-22228761D01*
X100294952Y-22276380D01*
X100199714Y-22276380D01*
X100961619Y-21276380D02*
X101580666Y-21276380D01*
X101247333Y-21657333D01*
X101390190Y-21657333D01*
X101485428Y-21704952D01*
X101533047Y-21752571D01*
X101580666Y-21847809D01*
X101580666Y-22085904D01*
X101533047Y-22181142D01*
X101485428Y-22228761D01*
X101390190Y-22276380D01*
X101104476Y-22276380D01*
X101009238Y-22228761D01*
X100961619Y-22181142D01*
G04 #@! TO.C,U1*
X115686095Y-36453380D02*
X115686095Y-37262904D01*
X115733714Y-37358142D01*
X115781333Y-37405761D01*
X115876571Y-37453380D01*
X116067047Y-37453380D01*
X116162285Y-37405761D01*
X116209904Y-37358142D01*
X116257523Y-37262904D01*
X116257523Y-36453380D01*
X117257523Y-37453380D02*
X116686095Y-37453380D01*
X116971809Y-37453380D02*
X116971809Y-36453380D01*
X116876571Y-36596238D01*
X116781333Y-36691476D01*
X116686095Y-36739095D01*
G04 #@! TO.C,C10*
X97604142Y-44152142D02*
X97556523Y-44199761D01*
X97413666Y-44247380D01*
X97318428Y-44247380D01*
X97175571Y-44199761D01*
X97080333Y-44104523D01*
X97032714Y-44009285D01*
X96985095Y-43818809D01*
X96985095Y-43675952D01*
X97032714Y-43485476D01*
X97080333Y-43390238D01*
X97175571Y-43295000D01*
X97318428Y-43247380D01*
X97413666Y-43247380D01*
X97556523Y-43295000D01*
X97604142Y-43342619D01*
X98556523Y-44247380D02*
X97985095Y-44247380D01*
X98270809Y-44247380D02*
X98270809Y-43247380D01*
X98175571Y-43390238D01*
X98080333Y-43485476D01*
X97985095Y-43533095D01*
X99175571Y-43247380D02*
X99270809Y-43247380D01*
X99366047Y-43295000D01*
X99413666Y-43342619D01*
X99461285Y-43437857D01*
X99508904Y-43628333D01*
X99508904Y-43866428D01*
X99461285Y-44056904D01*
X99413666Y-44152142D01*
X99366047Y-44199761D01*
X99270809Y-44247380D01*
X99175571Y-44247380D01*
X99080333Y-44199761D01*
X99032714Y-44152142D01*
X98985095Y-44056904D01*
X98937476Y-43866428D01*
X98937476Y-43628333D01*
X98985095Y-43437857D01*
X99032714Y-43342619D01*
X99080333Y-43295000D01*
X99175571Y-43247380D01*
G04 #@! TO.C,U2*
X70434095Y-48327380D02*
X70434095Y-49136904D01*
X70481714Y-49232142D01*
X70529333Y-49279761D01*
X70624571Y-49327380D01*
X70815047Y-49327380D01*
X70910285Y-49279761D01*
X70957904Y-49232142D01*
X71005523Y-49136904D01*
X71005523Y-48327380D01*
X71434095Y-48422619D02*
X71481714Y-48375000D01*
X71576952Y-48327380D01*
X71815047Y-48327380D01*
X71910285Y-48375000D01*
X71957904Y-48422619D01*
X72005523Y-48517857D01*
X72005523Y-48613095D01*
X71957904Y-48755952D01*
X71386476Y-49327380D01*
X72005523Y-49327380D01*
G04 #@! TO.C,C1*
X70394333Y-57487142D02*
X70346714Y-57534761D01*
X70203857Y-57582380D01*
X70108619Y-57582380D01*
X69965761Y-57534761D01*
X69870523Y-57439523D01*
X69822904Y-57344285D01*
X69775285Y-57153809D01*
X69775285Y-57010952D01*
X69822904Y-56820476D01*
X69870523Y-56725238D01*
X69965761Y-56630000D01*
X70108619Y-56582380D01*
X70203857Y-56582380D01*
X70346714Y-56630000D01*
X70394333Y-56677619D01*
X71346714Y-57582380D02*
X70775285Y-57582380D01*
X71061000Y-57582380D02*
X71061000Y-56582380D01*
X70965761Y-56725238D01*
X70870523Y-56820476D01*
X70775285Y-56868095D01*
G04 #@! TO.C,C2*
X76109333Y-49867142D02*
X76061714Y-49914761D01*
X75918857Y-49962380D01*
X75823619Y-49962380D01*
X75680761Y-49914761D01*
X75585523Y-49819523D01*
X75537904Y-49724285D01*
X75490285Y-49533809D01*
X75490285Y-49390952D01*
X75537904Y-49200476D01*
X75585523Y-49105238D01*
X75680761Y-49010000D01*
X75823619Y-48962380D01*
X75918857Y-48962380D01*
X76061714Y-49010000D01*
X76109333Y-49057619D01*
X76490285Y-49057619D02*
X76537904Y-49010000D01*
X76633142Y-48962380D01*
X76871238Y-48962380D01*
X76966476Y-49010000D01*
X77014095Y-49057619D01*
X77061714Y-49152857D01*
X77061714Y-49248095D01*
X77014095Y-49390952D01*
X76442666Y-49962380D01*
X77061714Y-49962380D01*
G04 #@! TO.C,C3*
X76109333Y-52407142D02*
X76061714Y-52454761D01*
X75918857Y-52502380D01*
X75823619Y-52502380D01*
X75680761Y-52454761D01*
X75585523Y-52359523D01*
X75537904Y-52264285D01*
X75490285Y-52073809D01*
X75490285Y-51930952D01*
X75537904Y-51740476D01*
X75585523Y-51645238D01*
X75680761Y-51550000D01*
X75823619Y-51502380D01*
X75918857Y-51502380D01*
X76061714Y-51550000D01*
X76109333Y-51597619D01*
X76442666Y-51502380D02*
X77061714Y-51502380D01*
X76728380Y-51883333D01*
X76871238Y-51883333D01*
X76966476Y-51930952D01*
X77014095Y-51978571D01*
X77061714Y-52073809D01*
X77061714Y-52311904D01*
X77014095Y-52407142D01*
X76966476Y-52454761D01*
X76871238Y-52502380D01*
X76585523Y-52502380D01*
X76490285Y-52454761D01*
X76442666Y-52407142D01*
G04 #@! TO.C,C4*
X83094333Y-56612142D02*
X83046714Y-56659761D01*
X82903857Y-56707380D01*
X82808619Y-56707380D01*
X82665761Y-56659761D01*
X82570523Y-56564523D01*
X82522904Y-56469285D01*
X82475285Y-56278809D01*
X82475285Y-56135952D01*
X82522904Y-55945476D01*
X82570523Y-55850238D01*
X82665761Y-55755000D01*
X82808619Y-55707380D01*
X82903857Y-55707380D01*
X83046714Y-55755000D01*
X83094333Y-55802619D01*
X83951476Y-56040714D02*
X83951476Y-56707380D01*
X83713380Y-55659761D02*
X83475285Y-56374047D01*
X84094333Y-56374047D01*
G04 #@! TO.C,C5*
X115978333Y-93427142D02*
X115930714Y-93474761D01*
X115787857Y-93522380D01*
X115692619Y-93522380D01*
X115549761Y-93474761D01*
X115454523Y-93379523D01*
X115406904Y-93284285D01*
X115359285Y-93093809D01*
X115359285Y-92950952D01*
X115406904Y-92760476D01*
X115454523Y-92665238D01*
X115549761Y-92570000D01*
X115692619Y-92522380D01*
X115787857Y-92522380D01*
X115930714Y-92570000D01*
X115978333Y-92617619D01*
X116883095Y-92522380D02*
X116406904Y-92522380D01*
X116359285Y-92998571D01*
X116406904Y-92950952D01*
X116502142Y-92903333D01*
X116740238Y-92903333D01*
X116835476Y-92950952D01*
X116883095Y-92998571D01*
X116930714Y-93093809D01*
X116930714Y-93331904D01*
X116883095Y-93427142D01*
X116835476Y-93474761D01*
X116740238Y-93522380D01*
X116502142Y-93522380D01*
X116406904Y-93474761D01*
X116359285Y-93427142D01*
G04 #@! TO.C,C6*
X103278333Y-90127142D02*
X103230714Y-90174761D01*
X103087857Y-90222380D01*
X102992619Y-90222380D01*
X102849761Y-90174761D01*
X102754523Y-90079523D01*
X102706904Y-89984285D01*
X102659285Y-89793809D01*
X102659285Y-89650952D01*
X102706904Y-89460476D01*
X102754523Y-89365238D01*
X102849761Y-89270000D01*
X102992619Y-89222380D01*
X103087857Y-89222380D01*
X103230714Y-89270000D01*
X103278333Y-89317619D01*
X104135476Y-89222380D02*
X103945000Y-89222380D01*
X103849761Y-89270000D01*
X103802142Y-89317619D01*
X103706904Y-89460476D01*
X103659285Y-89650952D01*
X103659285Y-90031904D01*
X103706904Y-90127142D01*
X103754523Y-90174761D01*
X103849761Y-90222380D01*
X104040238Y-90222380D01*
X104135476Y-90174761D01*
X104183095Y-90127142D01*
X104230714Y-90031904D01*
X104230714Y-89793809D01*
X104183095Y-89698571D01*
X104135476Y-89650952D01*
X104040238Y-89603333D01*
X103849761Y-89603333D01*
X103754523Y-89650952D01*
X103706904Y-89698571D01*
X103659285Y-89793809D01*
G04 #@! TO.C,C7*
X120813333Y-84792142D02*
X120765714Y-84839761D01*
X120622857Y-84887380D01*
X120527619Y-84887380D01*
X120384761Y-84839761D01*
X120289523Y-84744523D01*
X120241904Y-84649285D01*
X120194285Y-84458809D01*
X120194285Y-84315952D01*
X120241904Y-84125476D01*
X120289523Y-84030238D01*
X120384761Y-83935000D01*
X120527619Y-83887380D01*
X120622857Y-83887380D01*
X120765714Y-83935000D01*
X120813333Y-83982619D01*
X121146666Y-83887380D02*
X121813333Y-83887380D01*
X121384761Y-84887380D01*
G04 #@! TO.C,C8*
X110145333Y-50629142D02*
X110097714Y-50676761D01*
X109954857Y-50724380D01*
X109859619Y-50724380D01*
X109716761Y-50676761D01*
X109621523Y-50581523D01*
X109573904Y-50486285D01*
X109526285Y-50295809D01*
X109526285Y-50152952D01*
X109573904Y-49962476D01*
X109621523Y-49867238D01*
X109716761Y-49772000D01*
X109859619Y-49724380D01*
X109954857Y-49724380D01*
X110097714Y-49772000D01*
X110145333Y-49819619D01*
X110716761Y-50152952D02*
X110621523Y-50105333D01*
X110573904Y-50057714D01*
X110526285Y-49962476D01*
X110526285Y-49914857D01*
X110573904Y-49819619D01*
X110621523Y-49772000D01*
X110716761Y-49724380D01*
X110907238Y-49724380D01*
X111002476Y-49772000D01*
X111050095Y-49819619D01*
X111097714Y-49914857D01*
X111097714Y-49962476D01*
X111050095Y-50057714D01*
X111002476Y-50105333D01*
X110907238Y-50152952D01*
X110716761Y-50152952D01*
X110621523Y-50200571D01*
X110573904Y-50248190D01*
X110526285Y-50343428D01*
X110526285Y-50533904D01*
X110573904Y-50629142D01*
X110621523Y-50676761D01*
X110716761Y-50724380D01*
X110907238Y-50724380D01*
X111002476Y-50676761D01*
X111050095Y-50629142D01*
X111097714Y-50533904D01*
X111097714Y-50343428D01*
X111050095Y-50248190D01*
X111002476Y-50200571D01*
X110907238Y-50152952D01*
G04 #@! TO.C,C9*
X107351333Y-49867142D02*
X107303714Y-49914761D01*
X107160857Y-49962380D01*
X107065619Y-49962380D01*
X106922761Y-49914761D01*
X106827523Y-49819523D01*
X106779904Y-49724285D01*
X106732285Y-49533809D01*
X106732285Y-49390952D01*
X106779904Y-49200476D01*
X106827523Y-49105238D01*
X106922761Y-49010000D01*
X107065619Y-48962380D01*
X107160857Y-48962380D01*
X107303714Y-49010000D01*
X107351333Y-49057619D01*
X107827523Y-49962380D02*
X108018000Y-49962380D01*
X108113238Y-49914761D01*
X108160857Y-49867142D01*
X108256095Y-49724285D01*
X108303714Y-49533809D01*
X108303714Y-49152857D01*
X108256095Y-49057619D01*
X108208476Y-49010000D01*
X108113238Y-48962380D01*
X107922761Y-48962380D01*
X107827523Y-49010000D01*
X107779904Y-49057619D01*
X107732285Y-49152857D01*
X107732285Y-49390952D01*
X107779904Y-49486190D01*
X107827523Y-49533809D01*
X107922761Y-49581428D01*
X108113238Y-49581428D01*
X108208476Y-49533809D01*
X108256095Y-49486190D01*
X108303714Y-49390952D01*
G04 #@! TO.C,C11*
X101414142Y-38437142D02*
X101366523Y-38484761D01*
X101223666Y-38532380D01*
X101128428Y-38532380D01*
X100985571Y-38484761D01*
X100890333Y-38389523D01*
X100842714Y-38294285D01*
X100795095Y-38103809D01*
X100795095Y-37960952D01*
X100842714Y-37770476D01*
X100890333Y-37675238D01*
X100985571Y-37580000D01*
X101128428Y-37532380D01*
X101223666Y-37532380D01*
X101366523Y-37580000D01*
X101414142Y-37627619D01*
X102366523Y-38532380D02*
X101795095Y-38532380D01*
X102080809Y-38532380D02*
X102080809Y-37532380D01*
X101985571Y-37675238D01*
X101890333Y-37770476D01*
X101795095Y-37818095D01*
X103318904Y-38532380D02*
X102747476Y-38532380D01*
X103033190Y-38532380D02*
X103033190Y-37532380D01*
X102937952Y-37675238D01*
X102842714Y-37770476D01*
X102747476Y-37818095D01*
G04 #@! TO.C,C12*
X100586142Y-51137142D02*
X100538523Y-51184761D01*
X100395666Y-51232380D01*
X100300428Y-51232380D01*
X100157571Y-51184761D01*
X100062333Y-51089523D01*
X100014714Y-50994285D01*
X99967095Y-50803809D01*
X99967095Y-50660952D01*
X100014714Y-50470476D01*
X100062333Y-50375238D01*
X100157571Y-50280000D01*
X100300428Y-50232380D01*
X100395666Y-50232380D01*
X100538523Y-50280000D01*
X100586142Y-50327619D01*
X101538523Y-51232380D02*
X100967095Y-51232380D01*
X101252809Y-51232380D02*
X101252809Y-50232380D01*
X101157571Y-50375238D01*
X101062333Y-50470476D01*
X100967095Y-50518095D01*
X101919476Y-50327619D02*
X101967095Y-50280000D01*
X102062333Y-50232380D01*
X102300428Y-50232380D01*
X102395666Y-50280000D01*
X102443285Y-50327619D01*
X102490904Y-50422857D01*
X102490904Y-50518095D01*
X102443285Y-50660952D01*
X101871857Y-51232380D01*
X102490904Y-51232380D01*
G04 #@! TO.C,C13*
X101414142Y-60662142D02*
X101366523Y-60709761D01*
X101223666Y-60757380D01*
X101128428Y-60757380D01*
X100985571Y-60709761D01*
X100890333Y-60614523D01*
X100842714Y-60519285D01*
X100795095Y-60328809D01*
X100795095Y-60185952D01*
X100842714Y-59995476D01*
X100890333Y-59900238D01*
X100985571Y-59805000D01*
X101128428Y-59757380D01*
X101223666Y-59757380D01*
X101366523Y-59805000D01*
X101414142Y-59852619D01*
X102366523Y-60757380D02*
X101795095Y-60757380D01*
X102080809Y-60757380D02*
X102080809Y-59757380D01*
X101985571Y-59900238D01*
X101890333Y-59995476D01*
X101795095Y-60043095D01*
X102699857Y-59757380D02*
X103318904Y-59757380D01*
X102985571Y-60138333D01*
X103128428Y-60138333D01*
X103223666Y-60185952D01*
X103271285Y-60233571D01*
X103318904Y-60328809D01*
X103318904Y-60566904D01*
X103271285Y-60662142D01*
X103223666Y-60709761D01*
X103128428Y-60757380D01*
X102842714Y-60757380D01*
X102747476Y-60709761D01*
X102699857Y-60662142D01*
G04 #@! TO.C,C14*
X95953142Y-51645142D02*
X95905523Y-51692761D01*
X95762666Y-51740380D01*
X95667428Y-51740380D01*
X95524571Y-51692761D01*
X95429333Y-51597523D01*
X95381714Y-51502285D01*
X95334095Y-51311809D01*
X95334095Y-51168952D01*
X95381714Y-50978476D01*
X95429333Y-50883238D01*
X95524571Y-50788000D01*
X95667428Y-50740380D01*
X95762666Y-50740380D01*
X95905523Y-50788000D01*
X95953142Y-50835619D01*
X96905523Y-51740380D02*
X96334095Y-51740380D01*
X96619809Y-51740380D02*
X96619809Y-50740380D01*
X96524571Y-50883238D01*
X96429333Y-50978476D01*
X96334095Y-51026095D01*
X97762666Y-51073714D02*
X97762666Y-51740380D01*
X97524571Y-50692761D02*
X97286476Y-51407047D01*
X97905523Y-51407047D01*
G04 #@! TO.C,C15*
X113987142Y-24213142D02*
X113939523Y-24260761D01*
X113796666Y-24308380D01*
X113701428Y-24308380D01*
X113558571Y-24260761D01*
X113463333Y-24165523D01*
X113415714Y-24070285D01*
X113368095Y-23879809D01*
X113368095Y-23736952D01*
X113415714Y-23546476D01*
X113463333Y-23451238D01*
X113558571Y-23356000D01*
X113701428Y-23308380D01*
X113796666Y-23308380D01*
X113939523Y-23356000D01*
X113987142Y-23403619D01*
X114939523Y-24308380D02*
X114368095Y-24308380D01*
X114653809Y-24308380D02*
X114653809Y-23308380D01*
X114558571Y-23451238D01*
X114463333Y-23546476D01*
X114368095Y-23594095D01*
X115844285Y-23308380D02*
X115368095Y-23308380D01*
X115320476Y-23784571D01*
X115368095Y-23736952D01*
X115463333Y-23689333D01*
X115701428Y-23689333D01*
X115796666Y-23736952D01*
X115844285Y-23784571D01*
X115891904Y-23879809D01*
X115891904Y-24117904D01*
X115844285Y-24213142D01*
X115796666Y-24260761D01*
X115701428Y-24308380D01*
X115463333Y-24308380D01*
X115368095Y-24260761D01*
X115320476Y-24213142D01*
G04 #@! TO.C,D1*
X51026904Y-67742380D02*
X51026904Y-66742380D01*
X51265000Y-66742380D01*
X51407857Y-66790000D01*
X51503095Y-66885238D01*
X51550714Y-66980476D01*
X51598333Y-67170952D01*
X51598333Y-67313809D01*
X51550714Y-67504285D01*
X51503095Y-67599523D01*
X51407857Y-67694761D01*
X51265000Y-67742380D01*
X51026904Y-67742380D01*
X52550714Y-67742380D02*
X51979285Y-67742380D01*
X52265000Y-67742380D02*
X52265000Y-66742380D01*
X52169761Y-66885238D01*
X52074523Y-66980476D01*
X51979285Y-67028095D01*
G04 #@! TO.C,D2*
X51026904Y-72822380D02*
X51026904Y-71822380D01*
X51265000Y-71822380D01*
X51407857Y-71870000D01*
X51503095Y-71965238D01*
X51550714Y-72060476D01*
X51598333Y-72250952D01*
X51598333Y-72393809D01*
X51550714Y-72584285D01*
X51503095Y-72679523D01*
X51407857Y-72774761D01*
X51265000Y-72822380D01*
X51026904Y-72822380D01*
X51979285Y-71917619D02*
X52026904Y-71870000D01*
X52122142Y-71822380D01*
X52360238Y-71822380D01*
X52455476Y-71870000D01*
X52503095Y-71917619D01*
X52550714Y-72012857D01*
X52550714Y-72108095D01*
X52503095Y-72250952D01*
X51931666Y-72822380D01*
X52550714Y-72822380D01*
G04 #@! TO.C,D3*
X51026904Y-77902380D02*
X51026904Y-76902380D01*
X51265000Y-76902380D01*
X51407857Y-76950000D01*
X51503095Y-77045238D01*
X51550714Y-77140476D01*
X51598333Y-77330952D01*
X51598333Y-77473809D01*
X51550714Y-77664285D01*
X51503095Y-77759523D01*
X51407857Y-77854761D01*
X51265000Y-77902380D01*
X51026904Y-77902380D01*
X51931666Y-76902380D02*
X52550714Y-76902380D01*
X52217380Y-77283333D01*
X52360238Y-77283333D01*
X52455476Y-77330952D01*
X52503095Y-77378571D01*
X52550714Y-77473809D01*
X52550714Y-77711904D01*
X52503095Y-77807142D01*
X52455476Y-77854761D01*
X52360238Y-77902380D01*
X52074523Y-77902380D01*
X51979285Y-77854761D01*
X51931666Y-77807142D01*
G04 #@! TO.C,J2*
X46656666Y-58932380D02*
X46656666Y-59646666D01*
X46609047Y-59789523D01*
X46513809Y-59884761D01*
X46370952Y-59932380D01*
X46275714Y-59932380D01*
X47085238Y-59027619D02*
X47132857Y-58980000D01*
X47228095Y-58932380D01*
X47466190Y-58932380D01*
X47561428Y-58980000D01*
X47609047Y-59027619D01*
X47656666Y-59122857D01*
X47656666Y-59218095D01*
X47609047Y-59360952D01*
X47037619Y-59932380D01*
X47656666Y-59932380D01*
G04 #@! TO.C,JP1*
X94746666Y-79442380D02*
X94746666Y-80156666D01*
X94699047Y-80299523D01*
X94603809Y-80394761D01*
X94460952Y-80442380D01*
X94365714Y-80442380D01*
X95222857Y-80442380D02*
X95222857Y-79442380D01*
X95603809Y-79442380D01*
X95699047Y-79490000D01*
X95746666Y-79537619D01*
X95794285Y-79632857D01*
X95794285Y-79775714D01*
X95746666Y-79870952D01*
X95699047Y-79918571D01*
X95603809Y-79966190D01*
X95222857Y-79966190D01*
X96746666Y-80442380D02*
X96175238Y-80442380D01*
X96460952Y-80442380D02*
X96460952Y-79442380D01*
X96365714Y-79585238D01*
X96270476Y-79680476D01*
X96175238Y-79728095D01*
X94937142Y-87967142D02*
X94889523Y-88014761D01*
X94746666Y-88062380D01*
X94651428Y-88062380D01*
X94508571Y-88014761D01*
X94413333Y-87919523D01*
X94365714Y-87824285D01*
X94318095Y-87633809D01*
X94318095Y-87490952D01*
X94365714Y-87300476D01*
X94413333Y-87205238D01*
X94508571Y-87110000D01*
X94651428Y-87062380D01*
X94746666Y-87062380D01*
X94889523Y-87110000D01*
X94937142Y-87157619D01*
X95318095Y-87776666D02*
X95794285Y-87776666D01*
X95222857Y-88062380D02*
X95556190Y-87062380D01*
X95889523Y-88062380D01*
X96222857Y-88062380D02*
X96222857Y-87062380D01*
X96794285Y-88062380D01*
X96794285Y-87062380D01*
X98429523Y-82982380D02*
X97953333Y-82982380D01*
X97953333Y-81982380D01*
X97834285Y-85522380D02*
X97834285Y-84522380D01*
X97834285Y-84998571D02*
X98405714Y-84998571D01*
X98405714Y-85522380D02*
X98405714Y-84522380D01*
G04 #@! TO.C,L1*
X111542333Y-53372380D02*
X111066142Y-53372380D01*
X111066142Y-52372380D01*
X112399476Y-53372380D02*
X111828047Y-53372380D01*
X112113761Y-53372380D02*
X112113761Y-52372380D01*
X112018523Y-52515238D01*
X111923285Y-52610476D01*
X111828047Y-52658095D01*
G04 #@! TO.C,R1*
X63804333Y-53612380D02*
X63471000Y-53136190D01*
X63232904Y-53612380D02*
X63232904Y-52612380D01*
X63613857Y-52612380D01*
X63709095Y-52660000D01*
X63756714Y-52707619D01*
X63804333Y-52802857D01*
X63804333Y-52945714D01*
X63756714Y-53040952D01*
X63709095Y-53088571D01*
X63613857Y-53136190D01*
X63232904Y-53136190D01*
X64756714Y-53612380D02*
X64185285Y-53612380D01*
X64471000Y-53612380D02*
X64471000Y-52612380D01*
X64375761Y-52755238D01*
X64280523Y-52850476D01*
X64185285Y-52898095D01*
G04 #@! TO.C,R2*
X63804333Y-47262380D02*
X63471000Y-46786190D01*
X63232904Y-47262380D02*
X63232904Y-46262380D01*
X63613857Y-46262380D01*
X63709095Y-46310000D01*
X63756714Y-46357619D01*
X63804333Y-46452857D01*
X63804333Y-46595714D01*
X63756714Y-46690952D01*
X63709095Y-46738571D01*
X63613857Y-46786190D01*
X63232904Y-46786190D01*
X64185285Y-46357619D02*
X64232904Y-46310000D01*
X64328142Y-46262380D01*
X64566238Y-46262380D01*
X64661476Y-46310000D01*
X64709095Y-46357619D01*
X64756714Y-46452857D01*
X64756714Y-46548095D01*
X64709095Y-46690952D01*
X64137666Y-47262380D01*
X64756714Y-47262380D01*
G04 #@! TO.C,R3*
X45248333Y-67742380D02*
X44915000Y-67266190D01*
X44676904Y-67742380D02*
X44676904Y-66742380D01*
X45057857Y-66742380D01*
X45153095Y-66790000D01*
X45200714Y-66837619D01*
X45248333Y-66932857D01*
X45248333Y-67075714D01*
X45200714Y-67170952D01*
X45153095Y-67218571D01*
X45057857Y-67266190D01*
X44676904Y-67266190D01*
X45581666Y-66742380D02*
X46200714Y-66742380D01*
X45867380Y-67123333D01*
X46010238Y-67123333D01*
X46105476Y-67170952D01*
X46153095Y-67218571D01*
X46200714Y-67313809D01*
X46200714Y-67551904D01*
X46153095Y-67647142D01*
X46105476Y-67694761D01*
X46010238Y-67742380D01*
X45724523Y-67742380D01*
X45629285Y-67694761D01*
X45581666Y-67647142D01*
G04 #@! TO.C,R4*
X45248333Y-72822380D02*
X44915000Y-72346190D01*
X44676904Y-72822380D02*
X44676904Y-71822380D01*
X45057857Y-71822380D01*
X45153095Y-71870000D01*
X45200714Y-71917619D01*
X45248333Y-72012857D01*
X45248333Y-72155714D01*
X45200714Y-72250952D01*
X45153095Y-72298571D01*
X45057857Y-72346190D01*
X44676904Y-72346190D01*
X46105476Y-72155714D02*
X46105476Y-72822380D01*
X45867380Y-71774761D02*
X45629285Y-72489047D01*
X46248333Y-72489047D01*
G04 #@! TO.C,R5*
X45248333Y-77902380D02*
X44915000Y-77426190D01*
X44676904Y-77902380D02*
X44676904Y-76902380D01*
X45057857Y-76902380D01*
X45153095Y-76950000D01*
X45200714Y-76997619D01*
X45248333Y-77092857D01*
X45248333Y-77235714D01*
X45200714Y-77330952D01*
X45153095Y-77378571D01*
X45057857Y-77426190D01*
X44676904Y-77426190D01*
X46153095Y-76902380D02*
X45676904Y-76902380D01*
X45629285Y-77378571D01*
X45676904Y-77330952D01*
X45772142Y-77283333D01*
X46010238Y-77283333D01*
X46105476Y-77330952D01*
X46153095Y-77378571D01*
X46200714Y-77473809D01*
X46200714Y-77711904D01*
X46153095Y-77807142D01*
X46105476Y-77854761D01*
X46010238Y-77902380D01*
X45772142Y-77902380D01*
X45676904Y-77854761D01*
X45629285Y-77807142D01*
G04 #@! TO.C,R6*
X45248333Y-86157380D02*
X44915000Y-85681190D01*
X44676904Y-86157380D02*
X44676904Y-85157380D01*
X45057857Y-85157380D01*
X45153095Y-85205000D01*
X45200714Y-85252619D01*
X45248333Y-85347857D01*
X45248333Y-85490714D01*
X45200714Y-85585952D01*
X45153095Y-85633571D01*
X45057857Y-85681190D01*
X44676904Y-85681190D01*
X46105476Y-85157380D02*
X45915000Y-85157380D01*
X45819761Y-85205000D01*
X45772142Y-85252619D01*
X45676904Y-85395476D01*
X45629285Y-85585952D01*
X45629285Y-85966904D01*
X45676904Y-86062142D01*
X45724523Y-86109761D01*
X45819761Y-86157380D01*
X46010238Y-86157380D01*
X46105476Y-86109761D01*
X46153095Y-86062142D01*
X46200714Y-85966904D01*
X46200714Y-85728809D01*
X46153095Y-85633571D01*
X46105476Y-85585952D01*
X46010238Y-85538333D01*
X45819761Y-85538333D01*
X45724523Y-85585952D01*
X45676904Y-85633571D01*
X45629285Y-85728809D01*
G04 #@! TO.C,R7*
X45248333Y-82347380D02*
X44915000Y-81871190D01*
X44676904Y-82347380D02*
X44676904Y-81347380D01*
X45057857Y-81347380D01*
X45153095Y-81395000D01*
X45200714Y-81442619D01*
X45248333Y-81537857D01*
X45248333Y-81680714D01*
X45200714Y-81775952D01*
X45153095Y-81823571D01*
X45057857Y-81871190D01*
X44676904Y-81871190D01*
X45581666Y-81347380D02*
X46248333Y-81347380D01*
X45819761Y-82347380D01*
G04 #@! TO.C,R8*
X100493333Y-84412380D02*
X100160000Y-83936190D01*
X99921904Y-84412380D02*
X99921904Y-83412380D01*
X100302857Y-83412380D01*
X100398095Y-83460000D01*
X100445714Y-83507619D01*
X100493333Y-83602857D01*
X100493333Y-83745714D01*
X100445714Y-83840952D01*
X100398095Y-83888571D01*
X100302857Y-83936190D01*
X99921904Y-83936190D01*
X101064761Y-83840952D02*
X100969523Y-83793333D01*
X100921904Y-83745714D01*
X100874285Y-83650476D01*
X100874285Y-83602857D01*
X100921904Y-83507619D01*
X100969523Y-83460000D01*
X101064761Y-83412380D01*
X101255238Y-83412380D01*
X101350476Y-83460000D01*
X101398095Y-83507619D01*
X101445714Y-83602857D01*
X101445714Y-83650476D01*
X101398095Y-83745714D01*
X101350476Y-83793333D01*
X101255238Y-83840952D01*
X101064761Y-83840952D01*
X100969523Y-83888571D01*
X100921904Y-83936190D01*
X100874285Y-84031428D01*
X100874285Y-84221904D01*
X100921904Y-84317142D01*
X100969523Y-84364761D01*
X101064761Y-84412380D01*
X101255238Y-84412380D01*
X101350476Y-84364761D01*
X101398095Y-84317142D01*
X101445714Y-84221904D01*
X101445714Y-84031428D01*
X101398095Y-83936190D01*
X101350476Y-83888571D01*
X101255238Y-83840952D01*
G04 #@! TO.C,R9*
X108875333Y-41072380D02*
X108542000Y-40596190D01*
X108303904Y-41072380D02*
X108303904Y-40072380D01*
X108684857Y-40072380D01*
X108780095Y-40120000D01*
X108827714Y-40167619D01*
X108875333Y-40262857D01*
X108875333Y-40405714D01*
X108827714Y-40500952D01*
X108780095Y-40548571D01*
X108684857Y-40596190D01*
X108303904Y-40596190D01*
X109351523Y-41072380D02*
X109542000Y-41072380D01*
X109637238Y-41024761D01*
X109684857Y-40977142D01*
X109780095Y-40834285D01*
X109827714Y-40643809D01*
X109827714Y-40262857D01*
X109780095Y-40167619D01*
X109732476Y-40120000D01*
X109637238Y-40072380D01*
X109446761Y-40072380D01*
X109351523Y-40120000D01*
X109303904Y-40167619D01*
X109256285Y-40262857D01*
X109256285Y-40500952D01*
X109303904Y-40596190D01*
X109351523Y-40643809D01*
X109446761Y-40691428D01*
X109637238Y-40691428D01*
X109732476Y-40643809D01*
X109780095Y-40596190D01*
X109827714Y-40500952D01*
G04 #@! TO.C,R10*
X98239142Y-56947380D02*
X97905809Y-56471190D01*
X97667714Y-56947380D02*
X97667714Y-55947380D01*
X98048666Y-55947380D01*
X98143904Y-55995000D01*
X98191523Y-56042619D01*
X98239142Y-56137857D01*
X98239142Y-56280714D01*
X98191523Y-56375952D01*
X98143904Y-56423571D01*
X98048666Y-56471190D01*
X97667714Y-56471190D01*
X99191523Y-56947380D02*
X98620095Y-56947380D01*
X98905809Y-56947380D02*
X98905809Y-55947380D01*
X98810571Y-56090238D01*
X98715333Y-56185476D01*
X98620095Y-56233095D01*
X99810571Y-55947380D02*
X99905809Y-55947380D01*
X100001047Y-55995000D01*
X100048666Y-56042619D01*
X100096285Y-56137857D01*
X100143904Y-56328333D01*
X100143904Y-56566428D01*
X100096285Y-56756904D01*
X100048666Y-56852142D01*
X100001047Y-56899761D01*
X99905809Y-56947380D01*
X99810571Y-56947380D01*
X99715333Y-56899761D01*
X99667714Y-56852142D01*
X99620095Y-56756904D01*
X99572476Y-56566428D01*
X99572476Y-56328333D01*
X99620095Y-56137857D01*
X99667714Y-56042619D01*
X99715333Y-55995000D01*
X99810571Y-55947380D01*
G04 #@! TO.C,R11*
X96969142Y-47422380D02*
X96635809Y-46946190D01*
X96397714Y-47422380D02*
X96397714Y-46422380D01*
X96778666Y-46422380D01*
X96873904Y-46470000D01*
X96921523Y-46517619D01*
X96969142Y-46612857D01*
X96969142Y-46755714D01*
X96921523Y-46850952D01*
X96873904Y-46898571D01*
X96778666Y-46946190D01*
X96397714Y-46946190D01*
X97921523Y-47422380D02*
X97350095Y-47422380D01*
X97635809Y-47422380D02*
X97635809Y-46422380D01*
X97540571Y-46565238D01*
X97445333Y-46660476D01*
X97350095Y-46708095D01*
X98873904Y-47422380D02*
X98302476Y-47422380D01*
X98588190Y-47422380D02*
X98588190Y-46422380D01*
X98492952Y-46565238D01*
X98397714Y-46660476D01*
X98302476Y-46708095D01*
G04 #@! TO.C,R12*
X118305142Y-24054380D02*
X117971809Y-23578190D01*
X117733714Y-24054380D02*
X117733714Y-23054380D01*
X118114666Y-23054380D01*
X118209904Y-23102000D01*
X118257523Y-23149619D01*
X118305142Y-23244857D01*
X118305142Y-23387714D01*
X118257523Y-23482952D01*
X118209904Y-23530571D01*
X118114666Y-23578190D01*
X117733714Y-23578190D01*
X119257523Y-24054380D02*
X118686095Y-24054380D01*
X118971809Y-24054380D02*
X118971809Y-23054380D01*
X118876571Y-23197238D01*
X118781333Y-23292476D01*
X118686095Y-23340095D01*
X119638476Y-23149619D02*
X119686095Y-23102000D01*
X119781333Y-23054380D01*
X120019428Y-23054380D01*
X120114666Y-23102000D01*
X120162285Y-23149619D01*
X120209904Y-23244857D01*
X120209904Y-23340095D01*
X120162285Y-23482952D01*
X119590857Y-24054380D01*
X120209904Y-24054380D01*
G04 #@! TO.C,R13*
X110177142Y-24054380D02*
X109843809Y-23578190D01*
X109605714Y-24054380D02*
X109605714Y-23054380D01*
X109986666Y-23054380D01*
X110081904Y-23102000D01*
X110129523Y-23149619D01*
X110177142Y-23244857D01*
X110177142Y-23387714D01*
X110129523Y-23482952D01*
X110081904Y-23530571D01*
X109986666Y-23578190D01*
X109605714Y-23578190D01*
X111129523Y-24054380D02*
X110558095Y-24054380D01*
X110843809Y-24054380D02*
X110843809Y-23054380D01*
X110748571Y-23197238D01*
X110653333Y-23292476D01*
X110558095Y-23340095D01*
X111462857Y-23054380D02*
X112081904Y-23054380D01*
X111748571Y-23435333D01*
X111891428Y-23435333D01*
X111986666Y-23482952D01*
X112034285Y-23530571D01*
X112081904Y-23625809D01*
X112081904Y-23863904D01*
X112034285Y-23959142D01*
X111986666Y-24006761D01*
X111891428Y-24054380D01*
X111605714Y-24054380D01*
X111510476Y-24006761D01*
X111462857Y-23959142D01*
G04 #@! TO.C,R14*
X115765142Y-29314380D02*
X115431809Y-28838190D01*
X115193714Y-29314380D02*
X115193714Y-28314380D01*
X115574666Y-28314380D01*
X115669904Y-28362000D01*
X115717523Y-28409619D01*
X115765142Y-28504857D01*
X115765142Y-28647714D01*
X115717523Y-28742952D01*
X115669904Y-28790571D01*
X115574666Y-28838190D01*
X115193714Y-28838190D01*
X116717523Y-29314380D02*
X116146095Y-29314380D01*
X116431809Y-29314380D02*
X116431809Y-28314380D01*
X116336571Y-28457238D01*
X116241333Y-28552476D01*
X116146095Y-28600095D01*
X117574666Y-28647714D02*
X117574666Y-29314380D01*
X117336571Y-28266761D02*
X117098476Y-28981047D01*
X117717523Y-28981047D01*
G04 #@! TO.C,R15*
X109415142Y-29134380D02*
X109081809Y-28658190D01*
X108843714Y-29134380D02*
X108843714Y-28134380D01*
X109224666Y-28134380D01*
X109319904Y-28182000D01*
X109367523Y-28229619D01*
X109415142Y-28324857D01*
X109415142Y-28467714D01*
X109367523Y-28562952D01*
X109319904Y-28610571D01*
X109224666Y-28658190D01*
X108843714Y-28658190D01*
X110367523Y-29134380D02*
X109796095Y-29134380D01*
X110081809Y-29134380D02*
X110081809Y-28134380D01*
X109986571Y-28277238D01*
X109891333Y-28372476D01*
X109796095Y-28420095D01*
X111272285Y-28134380D02*
X110796095Y-28134380D01*
X110748476Y-28610571D01*
X110796095Y-28562952D01*
X110891333Y-28515333D01*
X111129428Y-28515333D01*
X111224666Y-28562952D01*
X111272285Y-28610571D01*
X111319904Y-28705809D01*
X111319904Y-28943904D01*
X111272285Y-29039142D01*
X111224666Y-29086761D01*
X111129428Y-29134380D01*
X110891333Y-29134380D01*
X110796095Y-29086761D01*
X110748476Y-29039142D01*
G04 #@! TO.C,R16*
X109669142Y-32606380D02*
X109335809Y-32130190D01*
X109097714Y-32606380D02*
X109097714Y-31606380D01*
X109478666Y-31606380D01*
X109573904Y-31654000D01*
X109621523Y-31701619D01*
X109669142Y-31796857D01*
X109669142Y-31939714D01*
X109621523Y-32034952D01*
X109573904Y-32082571D01*
X109478666Y-32130190D01*
X109097714Y-32130190D01*
X110621523Y-32606380D02*
X110050095Y-32606380D01*
X110335809Y-32606380D02*
X110335809Y-31606380D01*
X110240571Y-31749238D01*
X110145333Y-31844476D01*
X110050095Y-31892095D01*
X111478666Y-31606380D02*
X111288190Y-31606380D01*
X111192952Y-31654000D01*
X111145333Y-31701619D01*
X111050095Y-31844476D01*
X111002476Y-32034952D01*
X111002476Y-32415904D01*
X111050095Y-32511142D01*
X111097714Y-32558761D01*
X111192952Y-32606380D01*
X111383428Y-32606380D01*
X111478666Y-32558761D01*
X111526285Y-32511142D01*
X111573904Y-32415904D01*
X111573904Y-32177809D01*
X111526285Y-32082571D01*
X111478666Y-32034952D01*
X111383428Y-31987333D01*
X111192952Y-31987333D01*
X111097714Y-32034952D01*
X111050095Y-32082571D01*
X111002476Y-32177809D01*
G04 #@! TO.C,R17*
X111447142Y-35230380D02*
X111113809Y-34754190D01*
X110875714Y-35230380D02*
X110875714Y-34230380D01*
X111256666Y-34230380D01*
X111351904Y-34278000D01*
X111399523Y-34325619D01*
X111447142Y-34420857D01*
X111447142Y-34563714D01*
X111399523Y-34658952D01*
X111351904Y-34706571D01*
X111256666Y-34754190D01*
X110875714Y-34754190D01*
X112399523Y-35230380D02*
X111828095Y-35230380D01*
X112113809Y-35230380D02*
X112113809Y-34230380D01*
X112018571Y-34373238D01*
X111923333Y-34468476D01*
X111828095Y-34516095D01*
X112732857Y-34230380D02*
X113399523Y-34230380D01*
X112970952Y-35230380D01*
G04 #@! TO.C,SW1*
X46196666Y-93094761D02*
X46339523Y-93142380D01*
X46577619Y-93142380D01*
X46672857Y-93094761D01*
X46720476Y-93047142D01*
X46768095Y-92951904D01*
X46768095Y-92856666D01*
X46720476Y-92761428D01*
X46672857Y-92713809D01*
X46577619Y-92666190D01*
X46387142Y-92618571D01*
X46291904Y-92570952D01*
X46244285Y-92523333D01*
X46196666Y-92428095D01*
X46196666Y-92332857D01*
X46244285Y-92237619D01*
X46291904Y-92190000D01*
X46387142Y-92142380D01*
X46625238Y-92142380D01*
X46768095Y-92190000D01*
X47101428Y-92142380D02*
X47339523Y-93142380D01*
X47530000Y-92428095D01*
X47720476Y-93142380D01*
X47958571Y-92142380D01*
X48863333Y-93142380D02*
X48291904Y-93142380D01*
X48577619Y-93142380D02*
X48577619Y-92142380D01*
X48482380Y-92285238D01*
X48387142Y-92380476D01*
X48291904Y-92428095D01*
G04 #@! TO.C,UART TX*
X49820666Y-56074380D02*
X49820666Y-56883904D01*
X49868285Y-56979142D01*
X49915904Y-57026761D01*
X50011142Y-57074380D01*
X50201619Y-57074380D01*
X50296857Y-57026761D01*
X50344476Y-56979142D01*
X50392095Y-56883904D01*
X50392095Y-56074380D01*
X50820666Y-56788666D02*
X51296857Y-56788666D01*
X50725428Y-57074380D02*
X51058761Y-56074380D01*
X51392095Y-57074380D01*
X52296857Y-57074380D02*
X51963523Y-56598190D01*
X51725428Y-57074380D02*
X51725428Y-56074380D01*
X52106380Y-56074380D01*
X52201619Y-56122000D01*
X52249238Y-56169619D01*
X52296857Y-56264857D01*
X52296857Y-56407714D01*
X52249238Y-56502952D01*
X52201619Y-56550571D01*
X52106380Y-56598190D01*
X51725428Y-56598190D01*
X52582571Y-56074380D02*
X53154000Y-56074380D01*
X52868285Y-57074380D02*
X52868285Y-56074380D01*
X54106380Y-56074380D02*
X54677809Y-56074380D01*
X54392095Y-57074380D02*
X54392095Y-56074380D01*
X54915904Y-56074380D02*
X55582571Y-57074380D01*
X55582571Y-56074380D02*
X54915904Y-57074380D01*
G04 #@! TO.C,UART RX*
X49701619Y-49724380D02*
X49701619Y-50533904D01*
X49749238Y-50629142D01*
X49796857Y-50676761D01*
X49892095Y-50724380D01*
X50082571Y-50724380D01*
X50177809Y-50676761D01*
X50225428Y-50629142D01*
X50273047Y-50533904D01*
X50273047Y-49724380D01*
X50701619Y-50438666D02*
X51177809Y-50438666D01*
X50606380Y-50724380D02*
X50939714Y-49724380D01*
X51273047Y-50724380D01*
X52177809Y-50724380D02*
X51844476Y-50248190D01*
X51606380Y-50724380D02*
X51606380Y-49724380D01*
X51987333Y-49724380D01*
X52082571Y-49772000D01*
X52130190Y-49819619D01*
X52177809Y-49914857D01*
X52177809Y-50057714D01*
X52130190Y-50152952D01*
X52082571Y-50200571D01*
X51987333Y-50248190D01*
X51606380Y-50248190D01*
X52463523Y-49724380D02*
X53034952Y-49724380D01*
X52749238Y-50724380D02*
X52749238Y-49724380D01*
X54701619Y-50724380D02*
X54368285Y-50248190D01*
X54130190Y-50724380D02*
X54130190Y-49724380D01*
X54511142Y-49724380D01*
X54606380Y-49772000D01*
X54654000Y-49819619D01*
X54701619Y-49914857D01*
X54701619Y-50057714D01*
X54654000Y-50152952D01*
X54606380Y-50200571D01*
X54511142Y-50248190D01*
X54130190Y-50248190D01*
X55034952Y-49724380D02*
X55701619Y-50724380D01*
X55701619Y-49724380D02*
X55034952Y-50724380D01*
G04 #@! TO.C,TP3*
X61044095Y-56582380D02*
X61615523Y-56582380D01*
X61329809Y-57582380D02*
X61329809Y-56582380D01*
X61948857Y-57582380D02*
X61948857Y-56582380D01*
X62329809Y-56582380D01*
X62425047Y-56630000D01*
X62472666Y-56677619D01*
X62520285Y-56772857D01*
X62520285Y-56915714D01*
X62472666Y-57010952D01*
X62425047Y-57058571D01*
X62329809Y-57106190D01*
X61948857Y-57106190D01*
X62853619Y-56582380D02*
X63472666Y-56582380D01*
X63139333Y-56963333D01*
X63282190Y-56963333D01*
X63377428Y-57010952D01*
X63425047Y-57058571D01*
X63472666Y-57153809D01*
X63472666Y-57391904D01*
X63425047Y-57487142D01*
X63377428Y-57534761D01*
X63282190Y-57582380D01*
X62996476Y-57582380D01*
X62901238Y-57534761D01*
X62853619Y-57487142D01*
G04 #@! TO.C,TP4*
X61044095Y-50232380D02*
X61615523Y-50232380D01*
X61329809Y-51232380D02*
X61329809Y-50232380D01*
X61948857Y-51232380D02*
X61948857Y-50232380D01*
X62329809Y-50232380D01*
X62425047Y-50280000D01*
X62472666Y-50327619D01*
X62520285Y-50422857D01*
X62520285Y-50565714D01*
X62472666Y-50660952D01*
X62425047Y-50708571D01*
X62329809Y-50756190D01*
X61948857Y-50756190D01*
X63377428Y-50565714D02*
X63377428Y-51232380D01*
X63139333Y-50184761D02*
X62901238Y-50899047D01*
X63520285Y-50899047D01*
G04 #@! TO.C,TP5*
X73998095Y-98782380D02*
X74569523Y-98782380D01*
X74283809Y-99782380D02*
X74283809Y-98782380D01*
X74902857Y-99782380D02*
X74902857Y-98782380D01*
X75283809Y-98782380D01*
X75379047Y-98830000D01*
X75426666Y-98877619D01*
X75474285Y-98972857D01*
X75474285Y-99115714D01*
X75426666Y-99210952D01*
X75379047Y-99258571D01*
X75283809Y-99306190D01*
X74902857Y-99306190D01*
X76379047Y-98782380D02*
X75902857Y-98782380D01*
X75855238Y-99258571D01*
X75902857Y-99210952D01*
X75998095Y-99163333D01*
X76236190Y-99163333D01*
X76331428Y-99210952D01*
X76379047Y-99258571D01*
X76426666Y-99353809D01*
X76426666Y-99591904D01*
X76379047Y-99687142D01*
X76331428Y-99734761D01*
X76236190Y-99782380D01*
X75998095Y-99782380D01*
X75902857Y-99734761D01*
X75855238Y-99687142D01*
G04 #@! TO.C,TP6*
X54948095Y-98782380D02*
X55519523Y-98782380D01*
X55233809Y-99782380D02*
X55233809Y-98782380D01*
X55852857Y-99782380D02*
X55852857Y-98782380D01*
X56233809Y-98782380D01*
X56329047Y-98830000D01*
X56376666Y-98877619D01*
X56424285Y-98972857D01*
X56424285Y-99115714D01*
X56376666Y-99210952D01*
X56329047Y-99258571D01*
X56233809Y-99306190D01*
X55852857Y-99306190D01*
X57281428Y-98782380D02*
X57090952Y-98782380D01*
X56995714Y-98830000D01*
X56948095Y-98877619D01*
X56852857Y-99020476D01*
X56805238Y-99210952D01*
X56805238Y-99591904D01*
X56852857Y-99687142D01*
X56900476Y-99734761D01*
X56995714Y-99782380D01*
X57186190Y-99782380D01*
X57281428Y-99734761D01*
X57329047Y-99687142D01*
X57376666Y-99591904D01*
X57376666Y-99353809D01*
X57329047Y-99258571D01*
X57281428Y-99210952D01*
X57186190Y-99163333D01*
X56995714Y-99163333D01*
X56900476Y-99210952D01*
X56852857Y-99258571D01*
X56805238Y-99353809D01*
G04 #@! TO.C,GPSTX*
X106708571Y-89015000D02*
X106613333Y-88967380D01*
X106470476Y-88967380D01*
X106327619Y-89015000D01*
X106232380Y-89110238D01*
X106184761Y-89205476D01*
X106137142Y-89395952D01*
X106137142Y-89538809D01*
X106184761Y-89729285D01*
X106232380Y-89824523D01*
X106327619Y-89919761D01*
X106470476Y-89967380D01*
X106565714Y-89967380D01*
X106708571Y-89919761D01*
X106756190Y-89872142D01*
X106756190Y-89538809D01*
X106565714Y-89538809D01*
X107184761Y-89967380D02*
X107184761Y-88967380D01*
X107565714Y-88967380D01*
X107660952Y-89015000D01*
X107708571Y-89062619D01*
X107756190Y-89157857D01*
X107756190Y-89300714D01*
X107708571Y-89395952D01*
X107660952Y-89443571D01*
X107565714Y-89491190D01*
X107184761Y-89491190D01*
X108137142Y-89919761D02*
X108280000Y-89967380D01*
X108518095Y-89967380D01*
X108613333Y-89919761D01*
X108660952Y-89872142D01*
X108708571Y-89776904D01*
X108708571Y-89681666D01*
X108660952Y-89586428D01*
X108613333Y-89538809D01*
X108518095Y-89491190D01*
X108327619Y-89443571D01*
X108232380Y-89395952D01*
X108184761Y-89348333D01*
X108137142Y-89253095D01*
X108137142Y-89157857D01*
X108184761Y-89062619D01*
X108232380Y-89015000D01*
X108327619Y-88967380D01*
X108565714Y-88967380D01*
X108708571Y-89015000D01*
X108994285Y-88967380D02*
X109565714Y-88967380D01*
X109280000Y-89967380D02*
X109280000Y-88967380D01*
X109803809Y-88967380D02*
X110470476Y-89967380D01*
X110470476Y-88967380D02*
X109803809Y-89967380D01*
G04 #@! TO.C,TP8*
X67648095Y-98782380D02*
X68219523Y-98782380D01*
X67933809Y-99782380D02*
X67933809Y-98782380D01*
X68552857Y-99782380D02*
X68552857Y-98782380D01*
X68933809Y-98782380D01*
X69029047Y-98830000D01*
X69076666Y-98877619D01*
X69124285Y-98972857D01*
X69124285Y-99115714D01*
X69076666Y-99210952D01*
X69029047Y-99258571D01*
X68933809Y-99306190D01*
X68552857Y-99306190D01*
X69695714Y-99210952D02*
X69600476Y-99163333D01*
X69552857Y-99115714D01*
X69505238Y-99020476D01*
X69505238Y-98972857D01*
X69552857Y-98877619D01*
X69600476Y-98830000D01*
X69695714Y-98782380D01*
X69886190Y-98782380D01*
X69981428Y-98830000D01*
X70029047Y-98877619D01*
X70076666Y-98972857D01*
X70076666Y-99020476D01*
X70029047Y-99115714D01*
X69981428Y-99163333D01*
X69886190Y-99210952D01*
X69695714Y-99210952D01*
X69600476Y-99258571D01*
X69552857Y-99306190D01*
X69505238Y-99401428D01*
X69505238Y-99591904D01*
X69552857Y-99687142D01*
X69600476Y-99734761D01*
X69695714Y-99782380D01*
X69886190Y-99782380D01*
X69981428Y-99734761D01*
X70029047Y-99687142D01*
X70076666Y-99591904D01*
X70076666Y-99401428D01*
X70029047Y-99306190D01*
X69981428Y-99258571D01*
X69886190Y-99210952D01*
G04 #@! TO.C,TP9*
X61298095Y-98782380D02*
X61869523Y-98782380D01*
X61583809Y-99782380D02*
X61583809Y-98782380D01*
X62202857Y-99782380D02*
X62202857Y-98782380D01*
X62583809Y-98782380D01*
X62679047Y-98830000D01*
X62726666Y-98877619D01*
X62774285Y-98972857D01*
X62774285Y-99115714D01*
X62726666Y-99210952D01*
X62679047Y-99258571D01*
X62583809Y-99306190D01*
X62202857Y-99306190D01*
X63250476Y-99782380D02*
X63440952Y-99782380D01*
X63536190Y-99734761D01*
X63583809Y-99687142D01*
X63679047Y-99544285D01*
X63726666Y-99353809D01*
X63726666Y-98972857D01*
X63679047Y-98877619D01*
X63631428Y-98830000D01*
X63536190Y-98782380D01*
X63345714Y-98782380D01*
X63250476Y-98830000D01*
X63202857Y-98877619D01*
X63155238Y-98972857D01*
X63155238Y-99210952D01*
X63202857Y-99306190D01*
X63250476Y-99353809D01*
X63345714Y-99401428D01*
X63536190Y-99401428D01*
X63631428Y-99353809D01*
X63679047Y-99306190D01*
X63726666Y-99210952D01*
G04 #@! TO.C,GPSRX*
X109129523Y-92825000D02*
X109034285Y-92777380D01*
X108891428Y-92777380D01*
X108748571Y-92825000D01*
X108653333Y-92920238D01*
X108605714Y-93015476D01*
X108558095Y-93205952D01*
X108558095Y-93348809D01*
X108605714Y-93539285D01*
X108653333Y-93634523D01*
X108748571Y-93729761D01*
X108891428Y-93777380D01*
X108986666Y-93777380D01*
X109129523Y-93729761D01*
X109177142Y-93682142D01*
X109177142Y-93348809D01*
X108986666Y-93348809D01*
X109605714Y-93777380D02*
X109605714Y-92777380D01*
X109986666Y-92777380D01*
X110081904Y-92825000D01*
X110129523Y-92872619D01*
X110177142Y-92967857D01*
X110177142Y-93110714D01*
X110129523Y-93205952D01*
X110081904Y-93253571D01*
X109986666Y-93301190D01*
X109605714Y-93301190D01*
X110558095Y-93729761D02*
X110700952Y-93777380D01*
X110939047Y-93777380D01*
X111034285Y-93729761D01*
X111081904Y-93682142D01*
X111129523Y-93586904D01*
X111129523Y-93491666D01*
X111081904Y-93396428D01*
X111034285Y-93348809D01*
X110939047Y-93301190D01*
X110748571Y-93253571D01*
X110653333Y-93205952D01*
X110605714Y-93158333D01*
X110558095Y-93063095D01*
X110558095Y-92967857D01*
X110605714Y-92872619D01*
X110653333Y-92825000D01*
X110748571Y-92777380D01*
X110986666Y-92777380D01*
X111129523Y-92825000D01*
X112129523Y-93777380D02*
X111796190Y-93301190D01*
X111558095Y-93777380D02*
X111558095Y-92777380D01*
X111939047Y-92777380D01*
X112034285Y-92825000D01*
X112081904Y-92872619D01*
X112129523Y-92967857D01*
X112129523Y-93110714D01*
X112081904Y-93205952D01*
X112034285Y-93253571D01*
X111939047Y-93301190D01*
X111558095Y-93301190D01*
X112462857Y-92777380D02*
X113129523Y-93777380D01*
X113129523Y-92777380D02*
X112462857Y-93777380D01*
G04 #@! TO.C,TP11*
X104001904Y-86427380D02*
X104573333Y-86427380D01*
X104287619Y-87427380D02*
X104287619Y-86427380D01*
X104906666Y-87427380D02*
X104906666Y-86427380D01*
X105287619Y-86427380D01*
X105382857Y-86475000D01*
X105430476Y-86522619D01*
X105478095Y-86617857D01*
X105478095Y-86760714D01*
X105430476Y-86855952D01*
X105382857Y-86903571D01*
X105287619Y-86951190D01*
X104906666Y-86951190D01*
X106430476Y-87427380D02*
X105859047Y-87427380D01*
X106144761Y-87427380D02*
X106144761Y-86427380D01*
X106049523Y-86570238D01*
X105954285Y-86665476D01*
X105859047Y-86713095D01*
X107382857Y-87427380D02*
X106811428Y-87427380D01*
X107097142Y-87427380D02*
X107097142Y-86427380D01*
X107001904Y-86570238D01*
X106906666Y-86665476D01*
X106811428Y-86713095D01*
G04 #@! TO.C,TP12*
X105271904Y-79442380D02*
X105843333Y-79442380D01*
X105557619Y-80442380D02*
X105557619Y-79442380D01*
X106176666Y-80442380D02*
X106176666Y-79442380D01*
X106557619Y-79442380D01*
X106652857Y-79490000D01*
X106700476Y-79537619D01*
X106748095Y-79632857D01*
X106748095Y-79775714D01*
X106700476Y-79870952D01*
X106652857Y-79918571D01*
X106557619Y-79966190D01*
X106176666Y-79966190D01*
X107700476Y-80442380D02*
X107129047Y-80442380D01*
X107414761Y-80442380D02*
X107414761Y-79442380D01*
X107319523Y-79585238D01*
X107224285Y-79680476D01*
X107129047Y-79728095D01*
X108081428Y-79537619D02*
X108129047Y-79490000D01*
X108224285Y-79442380D01*
X108462380Y-79442380D01*
X108557619Y-79490000D01*
X108605238Y-79537619D01*
X108652857Y-79632857D01*
X108652857Y-79728095D01*
X108605238Y-79870952D01*
X108033809Y-80442380D01*
X108652857Y-80442380D01*
G04 #@! TO.C,U4*
X112438095Y-87387380D02*
X112438095Y-88196904D01*
X112485714Y-88292142D01*
X112533333Y-88339761D01*
X112628571Y-88387380D01*
X112819047Y-88387380D01*
X112914285Y-88339761D01*
X112961904Y-88292142D01*
X113009523Y-88196904D01*
X113009523Y-87387380D01*
X113914285Y-87720714D02*
X113914285Y-88387380D01*
X113676190Y-87339761D02*
X113438095Y-88054047D01*
X114057142Y-88054047D01*
G04 #@! TO.C,U5*
X105105095Y-40072380D02*
X105105095Y-40881904D01*
X105152714Y-40977142D01*
X105200333Y-41024761D01*
X105295571Y-41072380D01*
X105486047Y-41072380D01*
X105581285Y-41024761D01*
X105628904Y-40977142D01*
X105676523Y-40881904D01*
X105676523Y-40072380D01*
X106628904Y-40072380D02*
X106152714Y-40072380D01*
X106105095Y-40548571D01*
X106152714Y-40500952D01*
X106247952Y-40453333D01*
X106486047Y-40453333D01*
X106581285Y-40500952D01*
X106628904Y-40548571D01*
X106676523Y-40643809D01*
X106676523Y-40881904D01*
X106628904Y-40977142D01*
X106581285Y-41024761D01*
X106486047Y-41072380D01*
X106247952Y-41072380D01*
X106152714Y-41024761D01*
X106105095Y-40977142D01*
G04 #@! TO.C,U6*
X118791095Y-31139380D02*
X118791095Y-31948904D01*
X118838714Y-32044142D01*
X118886333Y-32091761D01*
X118981571Y-32139380D01*
X119172047Y-32139380D01*
X119267285Y-32091761D01*
X119314904Y-32044142D01*
X119362523Y-31948904D01*
X119362523Y-31139380D01*
X120267285Y-31139380D02*
X120076809Y-31139380D01*
X119981571Y-31187000D01*
X119933952Y-31234619D01*
X119838714Y-31377476D01*
X119791095Y-31567952D01*
X119791095Y-31948904D01*
X119838714Y-32044142D01*
X119886333Y-32091761D01*
X119981571Y-32139380D01*
X120172047Y-32139380D01*
X120267285Y-32091761D01*
X120314904Y-32044142D01*
X120362523Y-31948904D01*
X120362523Y-31710809D01*
X120314904Y-31615571D01*
X120267285Y-31567952D01*
X120172047Y-31520333D01*
X119981571Y-31520333D01*
X119886333Y-31567952D01*
X119838714Y-31615571D01*
X119791095Y-31710809D01*
G04 #@! TO.C,Y1*
X75164809Y-55836190D02*
X75164809Y-56312380D01*
X74831476Y-55312380D02*
X75164809Y-55836190D01*
X75498142Y-55312380D01*
X76355285Y-56312380D02*
X75783857Y-56312380D01*
X76069571Y-56312380D02*
X76069571Y-55312380D01*
X75974333Y-55455238D01*
X75879095Y-55550476D01*
X75783857Y-55598095D01*
G04 #@! TO.C,J4*
X86610666Y-21022380D02*
X86610666Y-21736666D01*
X86563047Y-21879523D01*
X86467809Y-21974761D01*
X86324952Y-22022380D01*
X86229714Y-22022380D01*
X87515428Y-21355714D02*
X87515428Y-22022380D01*
X87277333Y-20974761D02*
X87039238Y-21689047D01*
X87658285Y-21689047D01*
G04 #@! TO.C,REF\002A\002A*
X87896666Y-30722380D02*
X87563333Y-30246190D01*
X87325238Y-30722380D02*
X87325238Y-29722380D01*
X87706190Y-29722380D01*
X87801428Y-29770000D01*
X87849047Y-29817619D01*
X87896666Y-29912857D01*
X87896666Y-30055714D01*
X87849047Y-30150952D01*
X87801428Y-30198571D01*
X87706190Y-30246190D01*
X87325238Y-30246190D01*
X88325238Y-30198571D02*
X88658571Y-30198571D01*
X88801428Y-30722380D02*
X88325238Y-30722380D01*
X88325238Y-29722380D01*
X88801428Y-29722380D01*
X89563333Y-30198571D02*
X89230000Y-30198571D01*
X89230000Y-30722380D02*
X89230000Y-29722380D01*
X89706190Y-29722380D01*
X90230000Y-29722380D02*
X90230000Y-29960476D01*
X89991904Y-29865238D02*
X90230000Y-29960476D01*
X90468095Y-29865238D01*
X90087142Y-30150952D02*
X90230000Y-29960476D01*
X90372857Y-30150952D01*
X90991904Y-29722380D02*
X90991904Y-29960476D01*
X90753809Y-29865238D02*
X90991904Y-29960476D01*
X91230000Y-29865238D01*
X90849047Y-30150952D02*
X90991904Y-29960476D01*
X91134761Y-30150952D01*
G04 #@! TO.C,*
G04 #@! TD*
M02*
