G04 #@! TF.GenerationSoftware,KiCad,Pcbnew,(5.0.1)-3*
G04 #@! TF.CreationDate,2018-11-19T22:52:35-06:00*
G04 #@! TF.ProjectId,19-ELC-2700(Telemetry),31392D454C432D323730302854656C65,rev?*
G04 #@! TF.SameCoordinates,Original*
G04 #@! TF.FileFunction,Soldermask,Top*
G04 #@! TF.FilePolarity,Negative*
%FSLAX46Y46*%
G04 Gerber Fmt 4.6, Leading zero omitted, Abs format (unit mm)*
G04 Created by KiCad (PCBNEW (5.0.1)-3) date 11/19/2018 10:52:35 PM*
%MOMM*%
%LPD*%
G01*
G04 APERTURE LIST*
%ADD10C,0.100000*%
G04 APERTURE END LIST*
D10*
G36*
X64460000Y-102680000D02*
X60660000Y-102680000D01*
X60660000Y-100480000D01*
X64460000Y-100480000D01*
X64460000Y-102680000D01*
X64460000Y-102680000D01*
G37*
G36*
X70810000Y-102680000D02*
X67010000Y-102680000D01*
X67010000Y-100480000D01*
X70810000Y-100480000D01*
X70810000Y-102680000D01*
X70810000Y-102680000D01*
G37*
G36*
X77160000Y-102680000D02*
X73360000Y-102680000D01*
X73360000Y-100480000D01*
X77160000Y-100480000D01*
X77160000Y-102680000D01*
X77160000Y-102680000D01*
G37*
G36*
X58110000Y-102680000D02*
X54310000Y-102680000D01*
X54310000Y-100480000D01*
X58110000Y-100480000D01*
X58110000Y-102680000D01*
X58110000Y-102680000D01*
G37*
G36*
X86441393Y-98653553D02*
X86550872Y-98675330D01*
X86860252Y-98803479D01*
X87138687Y-98989523D01*
X87375477Y-99226313D01*
X87561521Y-99504748D01*
X87689670Y-99814128D01*
X87755000Y-100142565D01*
X87755000Y-100477435D01*
X87689670Y-100805872D01*
X87561521Y-101115252D01*
X87375477Y-101393687D01*
X87138687Y-101630477D01*
X86860252Y-101816521D01*
X86550872Y-101944670D01*
X86441393Y-101966447D01*
X86222437Y-102010000D01*
X85887563Y-102010000D01*
X85668607Y-101966447D01*
X85559128Y-101944670D01*
X85249748Y-101816521D01*
X84971313Y-101630477D01*
X84734523Y-101393687D01*
X84548479Y-101115252D01*
X84420330Y-100805872D01*
X84355000Y-100477435D01*
X84355000Y-100142565D01*
X84420330Y-99814128D01*
X84548479Y-99504748D01*
X84734523Y-99226313D01*
X84971313Y-98989523D01*
X85249748Y-98803479D01*
X85559128Y-98675330D01*
X85668607Y-98653553D01*
X85887563Y-98610000D01*
X86222437Y-98610000D01*
X86441393Y-98653553D01*
X86441393Y-98653553D01*
G37*
G36*
X44531393Y-98653553D02*
X44640872Y-98675330D01*
X44950252Y-98803479D01*
X45228687Y-98989523D01*
X45465477Y-99226313D01*
X45651521Y-99504748D01*
X45779670Y-99814128D01*
X45845000Y-100142565D01*
X45845000Y-100477435D01*
X45779670Y-100805872D01*
X45651521Y-101115252D01*
X45465477Y-101393687D01*
X45228687Y-101630477D01*
X44950252Y-101816521D01*
X44640872Y-101944670D01*
X44531393Y-101966447D01*
X44312437Y-102010000D01*
X43977563Y-102010000D01*
X43758607Y-101966447D01*
X43649128Y-101944670D01*
X43339748Y-101816521D01*
X43061313Y-101630477D01*
X42824523Y-101393687D01*
X42638479Y-101115252D01*
X42510330Y-100805872D01*
X42445000Y-100477435D01*
X42445000Y-100142565D01*
X42510330Y-99814128D01*
X42638479Y-99504748D01*
X42824523Y-99226313D01*
X43061313Y-98989523D01*
X43339748Y-98803479D01*
X43649128Y-98675330D01*
X43758607Y-98653553D01*
X43977563Y-98610000D01*
X44312437Y-98610000D01*
X44531393Y-98653553D01*
X44531393Y-98653553D01*
G37*
G36*
X50625000Y-98410000D02*
X49095000Y-98410000D01*
X49095000Y-95570000D01*
X50625000Y-95570000D01*
X50625000Y-98410000D01*
X50625000Y-98410000D01*
G37*
G36*
X53165000Y-98410000D02*
X51635000Y-98410000D01*
X51635000Y-95570000D01*
X53165000Y-95570000D01*
X53165000Y-98410000D01*
X53165000Y-98410000D01*
G37*
G36*
X101014692Y-94568729D02*
X101235993Y-94660395D01*
X101435158Y-94793473D01*
X101604527Y-94962842D01*
X101737605Y-95162007D01*
X101814515Y-95347684D01*
X101826066Y-95369294D01*
X101841612Y-95388236D01*
X101860554Y-95403782D01*
X101882165Y-95415333D01*
X101905614Y-95422446D01*
X101930000Y-95424848D01*
X101954386Y-95422446D01*
X101977836Y-95415333D01*
X101999446Y-95403782D01*
X102018388Y-95388236D01*
X102033934Y-95369294D01*
X102045485Y-95347684D01*
X102122395Y-95162007D01*
X102255473Y-94962842D01*
X102424842Y-94793473D01*
X102624007Y-94660395D01*
X102845308Y-94568729D01*
X103080233Y-94522000D01*
X103319767Y-94522000D01*
X103554692Y-94568729D01*
X103775993Y-94660395D01*
X103975158Y-94793473D01*
X104144527Y-94962842D01*
X104277605Y-95162007D01*
X104354515Y-95347684D01*
X104366066Y-95369294D01*
X104381612Y-95388236D01*
X104400554Y-95403782D01*
X104422165Y-95415333D01*
X104445614Y-95422446D01*
X104470000Y-95424848D01*
X104494386Y-95422446D01*
X104517836Y-95415333D01*
X104539446Y-95403782D01*
X104558388Y-95388236D01*
X104573934Y-95369294D01*
X104585485Y-95347684D01*
X104662395Y-95162007D01*
X104795473Y-94962842D01*
X104964842Y-94793473D01*
X105164007Y-94660395D01*
X105385308Y-94568729D01*
X105620233Y-94522000D01*
X105859767Y-94522000D01*
X106094692Y-94568729D01*
X106315993Y-94660395D01*
X106515158Y-94793473D01*
X106684527Y-94962842D01*
X106817605Y-95162007D01*
X106894515Y-95347684D01*
X106906066Y-95369294D01*
X106921612Y-95388236D01*
X106940554Y-95403782D01*
X106962165Y-95415333D01*
X106985614Y-95422446D01*
X107010000Y-95424848D01*
X107034386Y-95422446D01*
X107057836Y-95415333D01*
X107079446Y-95403782D01*
X107098388Y-95388236D01*
X107113934Y-95369294D01*
X107125485Y-95347684D01*
X107202395Y-95162007D01*
X107335473Y-94962842D01*
X107504842Y-94793473D01*
X107704007Y-94660395D01*
X107925308Y-94568729D01*
X108160233Y-94522000D01*
X108399767Y-94522000D01*
X108634692Y-94568729D01*
X108855993Y-94660395D01*
X109055158Y-94793473D01*
X109224527Y-94962842D01*
X109357605Y-95162007D01*
X109434515Y-95347684D01*
X109446066Y-95369294D01*
X109461612Y-95388236D01*
X109480554Y-95403782D01*
X109502165Y-95415333D01*
X109525614Y-95422446D01*
X109550000Y-95424848D01*
X109574386Y-95422446D01*
X109597836Y-95415333D01*
X109619446Y-95403782D01*
X109638388Y-95388236D01*
X109653934Y-95369294D01*
X109665485Y-95347684D01*
X109742395Y-95162007D01*
X109875473Y-94962842D01*
X110044842Y-94793473D01*
X110244007Y-94660395D01*
X110465308Y-94568729D01*
X110700233Y-94522000D01*
X110939767Y-94522000D01*
X111174692Y-94568729D01*
X111395993Y-94660395D01*
X111595158Y-94793473D01*
X111764527Y-94962842D01*
X111897605Y-95162007D01*
X111974515Y-95347684D01*
X111986066Y-95369294D01*
X112001612Y-95388236D01*
X112020554Y-95403782D01*
X112042165Y-95415333D01*
X112065614Y-95422446D01*
X112090000Y-95424848D01*
X112114386Y-95422446D01*
X112137836Y-95415333D01*
X112159446Y-95403782D01*
X112178388Y-95388236D01*
X112193934Y-95369294D01*
X112205485Y-95347684D01*
X112282395Y-95162007D01*
X112415473Y-94962842D01*
X112584842Y-94793473D01*
X112784007Y-94660395D01*
X113005308Y-94568729D01*
X113240233Y-94522000D01*
X113479767Y-94522000D01*
X113714692Y-94568729D01*
X113935993Y-94660395D01*
X114135158Y-94793473D01*
X114304527Y-94962842D01*
X114437605Y-95162007D01*
X114514515Y-95347684D01*
X114526066Y-95369294D01*
X114541612Y-95388236D01*
X114560554Y-95403782D01*
X114582165Y-95415333D01*
X114605614Y-95422446D01*
X114630000Y-95424848D01*
X114654386Y-95422446D01*
X114677836Y-95415333D01*
X114699446Y-95403782D01*
X114718388Y-95388236D01*
X114733934Y-95369294D01*
X114745485Y-95347684D01*
X114822395Y-95162007D01*
X114955473Y-94962842D01*
X115124842Y-94793473D01*
X115324007Y-94660395D01*
X115545308Y-94568729D01*
X115780233Y-94522000D01*
X116019767Y-94522000D01*
X116254692Y-94568729D01*
X116475993Y-94660395D01*
X116675158Y-94793473D01*
X116844527Y-94962842D01*
X116977605Y-95162007D01*
X117054515Y-95347684D01*
X117066066Y-95369294D01*
X117081612Y-95388236D01*
X117100554Y-95403782D01*
X117122165Y-95415333D01*
X117145614Y-95422446D01*
X117170000Y-95424848D01*
X117194386Y-95422446D01*
X117217836Y-95415333D01*
X117239446Y-95403782D01*
X117258388Y-95388236D01*
X117273934Y-95369294D01*
X117285485Y-95347684D01*
X117362395Y-95162007D01*
X117495473Y-94962842D01*
X117664842Y-94793473D01*
X117864007Y-94660395D01*
X118085308Y-94568729D01*
X118320233Y-94522000D01*
X118559767Y-94522000D01*
X118794692Y-94568729D01*
X119015993Y-94660395D01*
X119215158Y-94793473D01*
X119384527Y-94962842D01*
X119517605Y-95162007D01*
X119594515Y-95347684D01*
X119606066Y-95369294D01*
X119621612Y-95388236D01*
X119640554Y-95403782D01*
X119662165Y-95415333D01*
X119685614Y-95422446D01*
X119710000Y-95424848D01*
X119734386Y-95422446D01*
X119757836Y-95415333D01*
X119779446Y-95403782D01*
X119798388Y-95388236D01*
X119813934Y-95369294D01*
X119825485Y-95347684D01*
X119902395Y-95162007D01*
X120035473Y-94962842D01*
X120204842Y-94793473D01*
X120404007Y-94660395D01*
X120625308Y-94568729D01*
X120860233Y-94522000D01*
X121099767Y-94522000D01*
X121334692Y-94568729D01*
X121555993Y-94660395D01*
X121755158Y-94793473D01*
X121924527Y-94962842D01*
X122057605Y-95162007D01*
X122149271Y-95383308D01*
X122196000Y-95618233D01*
X122196000Y-95857767D01*
X122149271Y-96092692D01*
X122057605Y-96313993D01*
X121924527Y-96513158D01*
X121755158Y-96682527D01*
X121555993Y-96815605D01*
X121334692Y-96907271D01*
X121099767Y-96954000D01*
X120860233Y-96954000D01*
X120625308Y-96907271D01*
X120404007Y-96815605D01*
X120204842Y-96682527D01*
X120035473Y-96513158D01*
X119902395Y-96313993D01*
X119825485Y-96128316D01*
X119813934Y-96106706D01*
X119798388Y-96087764D01*
X119779446Y-96072218D01*
X119757835Y-96060667D01*
X119734386Y-96053554D01*
X119710000Y-96051152D01*
X119685614Y-96053554D01*
X119662164Y-96060667D01*
X119640554Y-96072218D01*
X119621612Y-96087764D01*
X119606066Y-96106706D01*
X119594515Y-96128316D01*
X119517605Y-96313993D01*
X119384527Y-96513158D01*
X119215158Y-96682527D01*
X119015993Y-96815605D01*
X118794692Y-96907271D01*
X118559767Y-96954000D01*
X118320233Y-96954000D01*
X118085308Y-96907271D01*
X117864007Y-96815605D01*
X117664842Y-96682527D01*
X117495473Y-96513158D01*
X117362395Y-96313993D01*
X117285485Y-96128316D01*
X117273934Y-96106706D01*
X117258388Y-96087764D01*
X117239446Y-96072218D01*
X117217835Y-96060667D01*
X117194386Y-96053554D01*
X117170000Y-96051152D01*
X117145614Y-96053554D01*
X117122164Y-96060667D01*
X117100554Y-96072218D01*
X117081612Y-96087764D01*
X117066066Y-96106706D01*
X117054515Y-96128316D01*
X116977605Y-96313993D01*
X116844527Y-96513158D01*
X116675158Y-96682527D01*
X116475993Y-96815605D01*
X116254692Y-96907271D01*
X116019767Y-96954000D01*
X115780233Y-96954000D01*
X115545308Y-96907271D01*
X115324007Y-96815605D01*
X115124842Y-96682527D01*
X114955473Y-96513158D01*
X114822395Y-96313993D01*
X114745485Y-96128316D01*
X114733934Y-96106706D01*
X114718388Y-96087764D01*
X114699446Y-96072218D01*
X114677835Y-96060667D01*
X114654386Y-96053554D01*
X114630000Y-96051152D01*
X114605614Y-96053554D01*
X114582164Y-96060667D01*
X114560554Y-96072218D01*
X114541612Y-96087764D01*
X114526066Y-96106706D01*
X114514515Y-96128316D01*
X114437605Y-96313993D01*
X114304527Y-96513158D01*
X114135158Y-96682527D01*
X113935993Y-96815605D01*
X113714692Y-96907271D01*
X113479767Y-96954000D01*
X113240233Y-96954000D01*
X113005308Y-96907271D01*
X112784007Y-96815605D01*
X112584842Y-96682527D01*
X112415473Y-96513158D01*
X112282395Y-96313993D01*
X112205485Y-96128316D01*
X112193934Y-96106706D01*
X112178388Y-96087764D01*
X112159446Y-96072218D01*
X112137835Y-96060667D01*
X112114386Y-96053554D01*
X112090000Y-96051152D01*
X112065614Y-96053554D01*
X112042164Y-96060667D01*
X112020554Y-96072218D01*
X112001612Y-96087764D01*
X111986066Y-96106706D01*
X111974515Y-96128316D01*
X111897605Y-96313993D01*
X111764527Y-96513158D01*
X111595158Y-96682527D01*
X111395993Y-96815605D01*
X111174692Y-96907271D01*
X110939767Y-96954000D01*
X110700233Y-96954000D01*
X110465308Y-96907271D01*
X110244007Y-96815605D01*
X110044842Y-96682527D01*
X109875473Y-96513158D01*
X109742395Y-96313993D01*
X109665485Y-96128316D01*
X109653934Y-96106706D01*
X109638388Y-96087764D01*
X109619446Y-96072218D01*
X109597835Y-96060667D01*
X109574386Y-96053554D01*
X109550000Y-96051152D01*
X109525614Y-96053554D01*
X109502164Y-96060667D01*
X109480554Y-96072218D01*
X109461612Y-96087764D01*
X109446066Y-96106706D01*
X109434515Y-96128316D01*
X109357605Y-96313993D01*
X109224527Y-96513158D01*
X109055158Y-96682527D01*
X108855993Y-96815605D01*
X108634692Y-96907271D01*
X108399767Y-96954000D01*
X108160233Y-96954000D01*
X107925308Y-96907271D01*
X107704007Y-96815605D01*
X107504842Y-96682527D01*
X107335473Y-96513158D01*
X107202395Y-96313993D01*
X107125485Y-96128316D01*
X107113934Y-96106706D01*
X107098388Y-96087764D01*
X107079446Y-96072218D01*
X107057835Y-96060667D01*
X107034386Y-96053554D01*
X107010000Y-96051152D01*
X106985614Y-96053554D01*
X106962164Y-96060667D01*
X106940554Y-96072218D01*
X106921612Y-96087764D01*
X106906066Y-96106706D01*
X106894515Y-96128316D01*
X106817605Y-96313993D01*
X106684527Y-96513158D01*
X106515158Y-96682527D01*
X106315993Y-96815605D01*
X106094692Y-96907271D01*
X105859767Y-96954000D01*
X105620233Y-96954000D01*
X105385308Y-96907271D01*
X105164007Y-96815605D01*
X104964842Y-96682527D01*
X104795473Y-96513158D01*
X104662395Y-96313993D01*
X104585485Y-96128316D01*
X104573934Y-96106706D01*
X104558388Y-96087764D01*
X104539446Y-96072218D01*
X104517835Y-96060667D01*
X104494386Y-96053554D01*
X104470000Y-96051152D01*
X104445614Y-96053554D01*
X104422164Y-96060667D01*
X104400554Y-96072218D01*
X104381612Y-96087764D01*
X104366066Y-96106706D01*
X104354515Y-96128316D01*
X104277605Y-96313993D01*
X104144527Y-96513158D01*
X103975158Y-96682527D01*
X103775993Y-96815605D01*
X103554692Y-96907271D01*
X103319767Y-96954000D01*
X103080233Y-96954000D01*
X102845308Y-96907271D01*
X102624007Y-96815605D01*
X102424842Y-96682527D01*
X102255473Y-96513158D01*
X102122395Y-96313993D01*
X102045485Y-96128316D01*
X102033934Y-96106706D01*
X102018388Y-96087764D01*
X101999446Y-96072218D01*
X101977835Y-96060667D01*
X101954386Y-96053554D01*
X101930000Y-96051152D01*
X101905614Y-96053554D01*
X101882164Y-96060667D01*
X101860554Y-96072218D01*
X101841612Y-96087764D01*
X101826066Y-96106706D01*
X101814515Y-96128316D01*
X101737605Y-96313993D01*
X101604527Y-96513158D01*
X101435158Y-96682527D01*
X101235993Y-96815605D01*
X101014692Y-96907271D01*
X100779767Y-96954000D01*
X100540233Y-96954000D01*
X100305308Y-96907271D01*
X100084007Y-96815605D01*
X99884842Y-96682527D01*
X99715473Y-96513158D01*
X99582395Y-96313993D01*
X99490729Y-96092692D01*
X99444000Y-95857767D01*
X99444000Y-95618233D01*
X99490729Y-95383308D01*
X99582395Y-95162007D01*
X99715473Y-94962842D01*
X99884842Y-94793473D01*
X100084007Y-94660395D01*
X100305308Y-94568729D01*
X100540233Y-94522000D01*
X100779767Y-94522000D01*
X101014692Y-94568729D01*
X101014692Y-94568729D01*
G37*
G36*
X42448503Y-94181789D02*
X42648991Y-94242607D01*
X42833764Y-94341369D01*
X42995718Y-94474282D01*
X43128631Y-94636236D01*
X43227393Y-94821009D01*
X43288211Y-95021497D01*
X43308746Y-95230000D01*
X43288211Y-95438503D01*
X43227393Y-95638991D01*
X43128631Y-95823764D01*
X42995718Y-95985718D01*
X42833764Y-96118631D01*
X42648991Y-96217393D01*
X42448503Y-96278211D01*
X42292251Y-96293600D01*
X42187749Y-96293600D01*
X42031497Y-96278211D01*
X41831009Y-96217393D01*
X41646236Y-96118631D01*
X41484282Y-95985718D01*
X41351369Y-95823764D01*
X41252607Y-95638991D01*
X41191789Y-95438503D01*
X41171254Y-95230000D01*
X41191789Y-95021497D01*
X41252607Y-94821009D01*
X41351369Y-94636236D01*
X41484282Y-94474282D01*
X41646236Y-94341369D01*
X41831009Y-94242607D01*
X42031497Y-94181789D01*
X42187749Y-94166400D01*
X42292251Y-94166400D01*
X42448503Y-94181789D01*
X42448503Y-94181789D01*
G37*
G36*
X90708503Y-94181789D02*
X90908991Y-94242607D01*
X91093764Y-94341369D01*
X91255718Y-94474282D01*
X91388631Y-94636236D01*
X91487393Y-94821009D01*
X91548211Y-95021497D01*
X91568746Y-95230000D01*
X91548211Y-95438503D01*
X91487393Y-95638991D01*
X91388631Y-95823764D01*
X91255718Y-95985718D01*
X91093764Y-96118631D01*
X90908991Y-96217393D01*
X90708503Y-96278211D01*
X90552251Y-96293600D01*
X90447749Y-96293600D01*
X90291497Y-96278211D01*
X90091009Y-96217393D01*
X89906236Y-96118631D01*
X89744282Y-95985718D01*
X89611369Y-95823764D01*
X89512607Y-95638991D01*
X89451789Y-95438503D01*
X89431254Y-95230000D01*
X89451789Y-95021497D01*
X89512607Y-94821009D01*
X89611369Y-94636236D01*
X89744282Y-94474282D01*
X89906236Y-94341369D01*
X90091009Y-94242607D01*
X90291497Y-94181789D01*
X90447749Y-94166400D01*
X90552251Y-94166400D01*
X90708503Y-94181789D01*
X90708503Y-94181789D01*
G37*
G36*
X88168503Y-94181789D02*
X88368991Y-94242607D01*
X88553764Y-94341369D01*
X88715718Y-94474282D01*
X88848631Y-94636236D01*
X88947393Y-94821009D01*
X89008211Y-95021497D01*
X89028746Y-95230000D01*
X89008211Y-95438503D01*
X88947393Y-95638991D01*
X88848631Y-95823764D01*
X88715718Y-95985718D01*
X88553764Y-96118631D01*
X88368991Y-96217393D01*
X88168503Y-96278211D01*
X88012251Y-96293600D01*
X87907749Y-96293600D01*
X87751497Y-96278211D01*
X87551009Y-96217393D01*
X87366236Y-96118631D01*
X87204282Y-95985718D01*
X87071369Y-95823764D01*
X86972607Y-95638991D01*
X86911789Y-95438503D01*
X86891254Y-95230000D01*
X86911789Y-95021497D01*
X86972607Y-94821009D01*
X87071369Y-94636236D01*
X87204282Y-94474282D01*
X87366236Y-94341369D01*
X87551009Y-94242607D01*
X87751497Y-94181789D01*
X87907749Y-94166400D01*
X88012251Y-94166400D01*
X88168503Y-94181789D01*
X88168503Y-94181789D01*
G37*
G36*
X39908503Y-94181789D02*
X40108991Y-94242607D01*
X40293764Y-94341369D01*
X40455718Y-94474282D01*
X40588631Y-94636236D01*
X40687393Y-94821009D01*
X40748211Y-95021497D01*
X40768746Y-95230000D01*
X40748211Y-95438503D01*
X40687393Y-95638991D01*
X40588631Y-95823764D01*
X40455718Y-95985718D01*
X40293764Y-96118631D01*
X40108991Y-96217393D01*
X39908503Y-96278211D01*
X39752251Y-96293600D01*
X39647749Y-96293600D01*
X39491497Y-96278211D01*
X39291009Y-96217393D01*
X39106236Y-96118631D01*
X38944282Y-95985718D01*
X38811369Y-95823764D01*
X38712607Y-95638991D01*
X38651789Y-95438503D01*
X38631254Y-95230000D01*
X38651789Y-95021497D01*
X38712607Y-94821009D01*
X38811369Y-94636236D01*
X38944282Y-94474282D01*
X39106236Y-94341369D01*
X39291009Y-94242607D01*
X39491497Y-94181789D01*
X39647749Y-94166400D01*
X39752251Y-94166400D01*
X39908503Y-94181789D01*
X39908503Y-94181789D01*
G37*
G36*
X88168503Y-91641789D02*
X88368991Y-91702607D01*
X88553764Y-91801369D01*
X88715718Y-91934282D01*
X88848631Y-92096236D01*
X88947393Y-92281009D01*
X89008211Y-92481497D01*
X89028746Y-92690000D01*
X89008211Y-92898503D01*
X88947393Y-93098991D01*
X88848631Y-93283764D01*
X88715718Y-93445718D01*
X88553764Y-93578631D01*
X88368991Y-93677393D01*
X88168503Y-93738211D01*
X88012251Y-93753600D01*
X87907749Y-93753600D01*
X87751497Y-93738211D01*
X87551009Y-93677393D01*
X87366236Y-93578631D01*
X87204282Y-93445718D01*
X87071369Y-93283764D01*
X86972607Y-93098991D01*
X86911789Y-92898503D01*
X86891254Y-92690000D01*
X86911789Y-92481497D01*
X86972607Y-92281009D01*
X87071369Y-92096236D01*
X87204282Y-91934282D01*
X87366236Y-91801369D01*
X87551009Y-91702607D01*
X87751497Y-91641789D01*
X87907749Y-91626400D01*
X88012251Y-91626400D01*
X88168503Y-91641789D01*
X88168503Y-91641789D01*
G37*
G36*
X90708503Y-91641789D02*
X90908991Y-91702607D01*
X91093764Y-91801369D01*
X91255718Y-91934282D01*
X91388631Y-92096236D01*
X91487393Y-92281009D01*
X91548211Y-92481497D01*
X91568746Y-92690000D01*
X91548211Y-92898503D01*
X91487393Y-93098991D01*
X91388631Y-93283764D01*
X91255718Y-93445718D01*
X91093764Y-93578631D01*
X90908991Y-93677393D01*
X90708503Y-93738211D01*
X90552251Y-93753600D01*
X90447749Y-93753600D01*
X90291497Y-93738211D01*
X90091009Y-93677393D01*
X89906236Y-93578631D01*
X89744282Y-93445718D01*
X89611369Y-93283764D01*
X89512607Y-93098991D01*
X89451789Y-92898503D01*
X89431254Y-92690000D01*
X89451789Y-92481497D01*
X89512607Y-92281009D01*
X89611369Y-92096236D01*
X89744282Y-91934282D01*
X89906236Y-91801369D01*
X90091009Y-91702607D01*
X90291497Y-91641789D01*
X90447749Y-91626400D01*
X90552251Y-91626400D01*
X90708503Y-91641789D01*
X90708503Y-91641789D01*
G37*
G36*
X42448503Y-91641789D02*
X42648991Y-91702607D01*
X42833764Y-91801369D01*
X42995718Y-91934282D01*
X43128631Y-92096236D01*
X43227393Y-92281009D01*
X43288211Y-92481497D01*
X43308746Y-92690000D01*
X43288211Y-92898503D01*
X43227393Y-93098991D01*
X43128631Y-93283764D01*
X42995718Y-93445718D01*
X42833764Y-93578631D01*
X42648991Y-93677393D01*
X42448503Y-93738211D01*
X42292251Y-93753600D01*
X42187749Y-93753600D01*
X42031497Y-93738211D01*
X41831009Y-93677393D01*
X41646236Y-93578631D01*
X41484282Y-93445718D01*
X41351369Y-93283764D01*
X41252607Y-93098991D01*
X41191789Y-92898503D01*
X41171254Y-92690000D01*
X41191789Y-92481497D01*
X41252607Y-92281009D01*
X41351369Y-92096236D01*
X41484282Y-91934282D01*
X41646236Y-91801369D01*
X41831009Y-91702607D01*
X42031497Y-91641789D01*
X42187749Y-91626400D01*
X42292251Y-91626400D01*
X42448503Y-91641789D01*
X42448503Y-91641789D01*
G37*
G36*
X39908503Y-91641789D02*
X40108991Y-91702607D01*
X40293764Y-91801369D01*
X40455718Y-91934282D01*
X40588631Y-92096236D01*
X40687393Y-92281009D01*
X40748211Y-92481497D01*
X40768746Y-92690000D01*
X40748211Y-92898503D01*
X40687393Y-93098991D01*
X40588631Y-93283764D01*
X40455718Y-93445718D01*
X40293764Y-93578631D01*
X40108991Y-93677393D01*
X39908503Y-93738211D01*
X39752251Y-93753600D01*
X39647749Y-93753600D01*
X39491497Y-93738211D01*
X39291009Y-93677393D01*
X39106236Y-93578631D01*
X38944282Y-93445718D01*
X38811369Y-93283764D01*
X38712607Y-93098991D01*
X38651789Y-92898503D01*
X38631254Y-92690000D01*
X38651789Y-92481497D01*
X38712607Y-92281009D01*
X38811369Y-92096236D01*
X38944282Y-91934282D01*
X39106236Y-91801369D01*
X39291009Y-91702607D01*
X39491497Y-91641789D01*
X39647749Y-91626400D01*
X39752251Y-91626400D01*
X39908503Y-91641789D01*
X39908503Y-91641789D01*
G37*
G36*
X108419452Y-90479127D02*
X108557105Y-90506508D01*
X108729994Y-90578121D01*
X108885590Y-90682087D01*
X109017913Y-90814410D01*
X109121879Y-90970006D01*
X109193492Y-91142895D01*
X109230000Y-91326433D01*
X109230000Y-91513567D01*
X109193492Y-91697105D01*
X109121879Y-91869994D01*
X109017913Y-92025590D01*
X108885590Y-92157913D01*
X108729994Y-92261879D01*
X108557105Y-92333492D01*
X108419452Y-92360873D01*
X108373568Y-92370000D01*
X108186432Y-92370000D01*
X108140548Y-92360873D01*
X108002895Y-92333492D01*
X107830006Y-92261879D01*
X107674410Y-92157913D01*
X107542087Y-92025590D01*
X107438121Y-91869994D01*
X107366508Y-91697105D01*
X107330000Y-91513567D01*
X107330000Y-91326433D01*
X107366508Y-91142895D01*
X107438121Y-90970006D01*
X107542087Y-90814410D01*
X107674410Y-90682087D01*
X107830006Y-90578121D01*
X108002895Y-90506508D01*
X108140549Y-90479127D01*
X108186432Y-90470000D01*
X108373568Y-90470000D01*
X108419452Y-90479127D01*
X108419452Y-90479127D01*
G37*
G36*
X110959452Y-90479127D02*
X111097105Y-90506508D01*
X111269994Y-90578121D01*
X111425590Y-90682087D01*
X111557913Y-90814410D01*
X111661879Y-90970006D01*
X111733492Y-91142895D01*
X111770000Y-91326433D01*
X111770000Y-91513567D01*
X111733492Y-91697105D01*
X111661879Y-91869994D01*
X111557913Y-92025590D01*
X111425590Y-92157913D01*
X111269994Y-92261879D01*
X111097105Y-92333492D01*
X110959452Y-92360873D01*
X110913568Y-92370000D01*
X110726432Y-92370000D01*
X110680548Y-92360873D01*
X110542895Y-92333492D01*
X110370006Y-92261879D01*
X110214410Y-92157913D01*
X110082087Y-92025590D01*
X109978121Y-91869994D01*
X109906508Y-91697105D01*
X109870000Y-91513567D01*
X109870000Y-91326433D01*
X109906508Y-91142895D01*
X109978121Y-90970006D01*
X110082087Y-90814410D01*
X110214410Y-90682087D01*
X110370006Y-90578121D01*
X110542895Y-90506508D01*
X110680549Y-90479127D01*
X110726432Y-90470000D01*
X110913568Y-90470000D01*
X110959452Y-90479127D01*
X110959452Y-90479127D01*
G37*
G36*
X105030530Y-90525710D02*
X105080379Y-90540831D01*
X105126311Y-90565382D01*
X105166574Y-90598426D01*
X105199618Y-90638689D01*
X105224169Y-90684621D01*
X105239290Y-90734470D01*
X105245000Y-90792444D01*
X105245000Y-92047556D01*
X105239290Y-92105530D01*
X105224169Y-92155379D01*
X105199618Y-92201311D01*
X105166574Y-92241574D01*
X105126311Y-92274618D01*
X105080379Y-92299169D01*
X105030530Y-92314290D01*
X104972556Y-92320000D01*
X103967444Y-92320000D01*
X103909470Y-92314290D01*
X103859621Y-92299169D01*
X103813689Y-92274618D01*
X103773426Y-92241574D01*
X103740382Y-92201311D01*
X103715831Y-92155379D01*
X103700710Y-92105530D01*
X103695000Y-92047556D01*
X103695000Y-90792444D01*
X103700710Y-90734470D01*
X103715831Y-90684621D01*
X103740382Y-90638689D01*
X103773426Y-90598426D01*
X103813689Y-90565382D01*
X103859621Y-90540831D01*
X103909470Y-90525710D01*
X103967444Y-90520000D01*
X104972556Y-90520000D01*
X105030530Y-90525710D01*
X105030530Y-90525710D01*
G37*
G36*
X102980530Y-90525710D02*
X103030379Y-90540831D01*
X103076311Y-90565382D01*
X103116574Y-90598426D01*
X103149618Y-90638689D01*
X103174169Y-90684621D01*
X103189290Y-90734470D01*
X103195000Y-90792444D01*
X103195000Y-92047556D01*
X103189290Y-92105530D01*
X103174169Y-92155379D01*
X103149618Y-92201311D01*
X103116574Y-92241574D01*
X103076311Y-92274618D01*
X103030379Y-92299169D01*
X102980530Y-92314290D01*
X102922556Y-92320000D01*
X101917444Y-92320000D01*
X101859470Y-92314290D01*
X101809621Y-92299169D01*
X101763689Y-92274618D01*
X101723426Y-92241574D01*
X101690382Y-92201311D01*
X101665831Y-92155379D01*
X101650710Y-92105530D01*
X101645000Y-92047556D01*
X101645000Y-90792444D01*
X101650710Y-90734470D01*
X101665831Y-90684621D01*
X101690382Y-90638689D01*
X101723426Y-90598426D01*
X101763689Y-90565382D01*
X101809621Y-90540831D01*
X101859470Y-90525710D01*
X101917444Y-90520000D01*
X102922556Y-90520000D01*
X102980530Y-90525710D01*
X102980530Y-90525710D01*
G37*
G36*
X115680530Y-90525710D02*
X115730379Y-90540831D01*
X115776311Y-90565382D01*
X115816574Y-90598426D01*
X115849618Y-90638689D01*
X115874169Y-90684621D01*
X115889290Y-90734470D01*
X115895000Y-90792444D01*
X115895000Y-92047556D01*
X115889290Y-92105530D01*
X115874169Y-92155379D01*
X115849618Y-92201311D01*
X115816574Y-92241574D01*
X115776311Y-92274618D01*
X115730379Y-92299169D01*
X115680530Y-92314290D01*
X115622556Y-92320000D01*
X114617444Y-92320000D01*
X114559470Y-92314290D01*
X114509621Y-92299169D01*
X114463689Y-92274618D01*
X114423426Y-92241574D01*
X114390382Y-92201311D01*
X114365831Y-92155379D01*
X114350710Y-92105530D01*
X114345000Y-92047556D01*
X114345000Y-90792444D01*
X114350710Y-90734470D01*
X114365831Y-90684621D01*
X114390382Y-90638689D01*
X114423426Y-90598426D01*
X114463689Y-90565382D01*
X114509621Y-90540831D01*
X114559470Y-90525710D01*
X114617444Y-90520000D01*
X115622556Y-90520000D01*
X115680530Y-90525710D01*
X115680530Y-90525710D01*
G37*
G36*
X117730530Y-90525710D02*
X117780379Y-90540831D01*
X117826311Y-90565382D01*
X117866574Y-90598426D01*
X117899618Y-90638689D01*
X117924169Y-90684621D01*
X117939290Y-90734470D01*
X117945000Y-90792444D01*
X117945000Y-92047556D01*
X117939290Y-92105530D01*
X117924169Y-92155379D01*
X117899618Y-92201311D01*
X117866574Y-92241574D01*
X117826311Y-92274618D01*
X117780379Y-92299169D01*
X117730530Y-92314290D01*
X117672556Y-92320000D01*
X116667444Y-92320000D01*
X116609470Y-92314290D01*
X116559621Y-92299169D01*
X116513689Y-92274618D01*
X116473426Y-92241574D01*
X116440382Y-92201311D01*
X116415831Y-92155379D01*
X116400710Y-92105530D01*
X116395000Y-92047556D01*
X116395000Y-90792444D01*
X116400710Y-90734470D01*
X116415831Y-90684621D01*
X116440382Y-90638689D01*
X116473426Y-90598426D01*
X116513689Y-90565382D01*
X116559621Y-90540831D01*
X116609470Y-90525710D01*
X116667444Y-90520000D01*
X117672556Y-90520000D01*
X117730530Y-90525710D01*
X117730530Y-90525710D01*
G37*
G36*
X90708503Y-89101789D02*
X90908991Y-89162607D01*
X91093764Y-89261369D01*
X91255718Y-89394282D01*
X91388631Y-89556236D01*
X91487393Y-89741009D01*
X91548211Y-89941497D01*
X91568746Y-90150000D01*
X91548211Y-90358503D01*
X91487393Y-90558991D01*
X91388631Y-90743764D01*
X91255718Y-90905718D01*
X91093764Y-91038631D01*
X90908991Y-91137393D01*
X90708503Y-91198211D01*
X90552251Y-91213600D01*
X90447749Y-91213600D01*
X90291497Y-91198211D01*
X90091009Y-91137393D01*
X89906236Y-91038631D01*
X89744282Y-90905718D01*
X89611369Y-90743764D01*
X89512607Y-90558991D01*
X89451789Y-90358503D01*
X89431254Y-90150000D01*
X89451789Y-89941497D01*
X89512607Y-89741009D01*
X89611369Y-89556236D01*
X89744282Y-89394282D01*
X89906236Y-89261369D01*
X90091009Y-89162607D01*
X90291497Y-89101789D01*
X90447749Y-89086400D01*
X90552251Y-89086400D01*
X90708503Y-89101789D01*
X90708503Y-89101789D01*
G37*
G36*
X88168503Y-89101789D02*
X88368991Y-89162607D01*
X88553764Y-89261369D01*
X88715718Y-89394282D01*
X88848631Y-89556236D01*
X88947393Y-89741009D01*
X89008211Y-89941497D01*
X89028746Y-90150000D01*
X89008211Y-90358503D01*
X88947393Y-90558991D01*
X88848631Y-90743764D01*
X88715718Y-90905718D01*
X88553764Y-91038631D01*
X88368991Y-91137393D01*
X88168503Y-91198211D01*
X88012251Y-91213600D01*
X87907749Y-91213600D01*
X87751497Y-91198211D01*
X87551009Y-91137393D01*
X87366236Y-91038631D01*
X87204282Y-90905718D01*
X87071369Y-90743764D01*
X86972607Y-90558991D01*
X86911789Y-90358503D01*
X86891254Y-90150000D01*
X86911789Y-89941497D01*
X86972607Y-89741009D01*
X87071369Y-89556236D01*
X87204282Y-89394282D01*
X87366236Y-89261369D01*
X87551009Y-89162607D01*
X87751497Y-89101789D01*
X87907749Y-89086400D01*
X88012251Y-89086400D01*
X88168503Y-89101789D01*
X88168503Y-89101789D01*
G37*
G36*
X42448503Y-89101789D02*
X42648991Y-89162607D01*
X42833764Y-89261369D01*
X42995718Y-89394282D01*
X43128631Y-89556236D01*
X43227393Y-89741009D01*
X43288211Y-89941497D01*
X43308746Y-90150000D01*
X43288211Y-90358503D01*
X43227393Y-90558991D01*
X43128631Y-90743764D01*
X42995718Y-90905718D01*
X42833764Y-91038631D01*
X42648991Y-91137393D01*
X42448503Y-91198211D01*
X42292251Y-91213600D01*
X42187749Y-91213600D01*
X42031497Y-91198211D01*
X41831009Y-91137393D01*
X41646236Y-91038631D01*
X41484282Y-90905718D01*
X41351369Y-90743764D01*
X41252607Y-90558991D01*
X41191789Y-90358503D01*
X41171254Y-90150000D01*
X41191789Y-89941497D01*
X41252607Y-89741009D01*
X41351369Y-89556236D01*
X41484282Y-89394282D01*
X41646236Y-89261369D01*
X41831009Y-89162607D01*
X42031497Y-89101789D01*
X42187749Y-89086400D01*
X42292251Y-89086400D01*
X42448503Y-89101789D01*
X42448503Y-89101789D01*
G37*
G36*
X39908503Y-89101789D02*
X40108991Y-89162607D01*
X40293764Y-89261369D01*
X40455718Y-89394282D01*
X40588631Y-89556236D01*
X40687393Y-89741009D01*
X40748211Y-89941497D01*
X40768746Y-90150000D01*
X40748211Y-90358503D01*
X40687393Y-90558991D01*
X40588631Y-90743764D01*
X40455718Y-90905718D01*
X40293764Y-91038631D01*
X40108991Y-91137393D01*
X39908503Y-91198211D01*
X39752251Y-91213600D01*
X39647749Y-91213600D01*
X39491497Y-91198211D01*
X39291009Y-91137393D01*
X39106236Y-91038631D01*
X38944282Y-90905718D01*
X38811369Y-90743764D01*
X38712607Y-90558991D01*
X38651789Y-90358503D01*
X38631254Y-90150000D01*
X38651789Y-89941497D01*
X38712607Y-89741009D01*
X38811369Y-89556236D01*
X38944282Y-89394282D01*
X39106236Y-89261369D01*
X39291009Y-89162607D01*
X39491497Y-89101789D01*
X39647749Y-89086400D01*
X39752251Y-89086400D01*
X39908503Y-89101789D01*
X39908503Y-89101789D01*
G37*
G36*
X53165000Y-89810000D02*
X51635000Y-89810000D01*
X51635000Y-86970000D01*
X53165000Y-86970000D01*
X53165000Y-89810000D01*
X53165000Y-89810000D01*
G37*
G36*
X50625000Y-89810000D02*
X49095000Y-89810000D01*
X49095000Y-86970000D01*
X50625000Y-86970000D01*
X50625000Y-89810000D01*
X50625000Y-89810000D01*
G37*
G36*
X88168503Y-86561789D02*
X88368991Y-86622607D01*
X88553764Y-86721369D01*
X88715718Y-86854282D01*
X88848631Y-87016236D01*
X88947393Y-87201009D01*
X89008211Y-87401497D01*
X89028746Y-87610000D01*
X89008211Y-87818503D01*
X88947393Y-88018991D01*
X88848631Y-88203764D01*
X88715718Y-88365718D01*
X88553764Y-88498631D01*
X88368991Y-88597393D01*
X88168503Y-88658211D01*
X88012251Y-88673600D01*
X87907749Y-88673600D01*
X87751497Y-88658211D01*
X87551009Y-88597393D01*
X87366236Y-88498631D01*
X87204282Y-88365718D01*
X87071369Y-88203764D01*
X86972607Y-88018991D01*
X86911789Y-87818503D01*
X86891254Y-87610000D01*
X86911789Y-87401497D01*
X86972607Y-87201009D01*
X87071369Y-87016236D01*
X87204282Y-86854282D01*
X87366236Y-86721369D01*
X87551009Y-86622607D01*
X87751497Y-86561789D01*
X87907749Y-86546400D01*
X88012251Y-86546400D01*
X88168503Y-86561789D01*
X88168503Y-86561789D01*
G37*
G36*
X42448503Y-86561789D02*
X42648991Y-86622607D01*
X42833764Y-86721369D01*
X42995718Y-86854282D01*
X43128631Y-87016236D01*
X43227393Y-87201009D01*
X43288211Y-87401497D01*
X43308746Y-87610000D01*
X43288211Y-87818503D01*
X43227393Y-88018991D01*
X43128631Y-88203764D01*
X42995718Y-88365718D01*
X42833764Y-88498631D01*
X42648991Y-88597393D01*
X42448503Y-88658211D01*
X42292251Y-88673600D01*
X42187749Y-88673600D01*
X42031497Y-88658211D01*
X41831009Y-88597393D01*
X41646236Y-88498631D01*
X41484282Y-88365718D01*
X41351369Y-88203764D01*
X41252607Y-88018991D01*
X41191789Y-87818503D01*
X41171254Y-87610000D01*
X41191789Y-87401497D01*
X41252607Y-87201009D01*
X41351369Y-87016236D01*
X41484282Y-86854282D01*
X41646236Y-86721369D01*
X41831009Y-86622607D01*
X42031497Y-86561789D01*
X42187749Y-86546400D01*
X42292251Y-86546400D01*
X42448503Y-86561789D01*
X42448503Y-86561789D01*
G37*
G36*
X39908503Y-86561789D02*
X40108991Y-86622607D01*
X40293764Y-86721369D01*
X40455718Y-86854282D01*
X40588631Y-87016236D01*
X40687393Y-87201009D01*
X40748211Y-87401497D01*
X40768746Y-87610000D01*
X40748211Y-87818503D01*
X40687393Y-88018991D01*
X40588631Y-88203764D01*
X40455718Y-88365718D01*
X40293764Y-88498631D01*
X40108991Y-88597393D01*
X39908503Y-88658211D01*
X39752251Y-88673600D01*
X39647749Y-88673600D01*
X39491497Y-88658211D01*
X39291009Y-88597393D01*
X39106236Y-88498631D01*
X38944282Y-88365718D01*
X38811369Y-88203764D01*
X38712607Y-88018991D01*
X38651789Y-87818503D01*
X38631254Y-87610000D01*
X38651789Y-87401497D01*
X38712607Y-87201009D01*
X38811369Y-87016236D01*
X38944282Y-86854282D01*
X39106236Y-86721369D01*
X39291009Y-86622607D01*
X39491497Y-86561789D01*
X39647749Y-86546400D01*
X39752251Y-86546400D01*
X39908503Y-86561789D01*
X39908503Y-86561789D01*
G37*
G36*
X90708503Y-86561789D02*
X90908991Y-86622607D01*
X91093764Y-86721369D01*
X91255718Y-86854282D01*
X91388631Y-87016236D01*
X91487393Y-87201009D01*
X91548211Y-87401497D01*
X91568746Y-87610000D01*
X91548211Y-87818503D01*
X91487393Y-88018991D01*
X91388631Y-88203764D01*
X91255718Y-88365718D01*
X91093764Y-88498631D01*
X90908991Y-88597393D01*
X90708503Y-88658211D01*
X90552251Y-88673600D01*
X90447749Y-88673600D01*
X90291497Y-88658211D01*
X90091009Y-88597393D01*
X89906236Y-88498631D01*
X89744282Y-88365718D01*
X89611369Y-88203764D01*
X89512607Y-88018991D01*
X89451789Y-87818503D01*
X89431254Y-87610000D01*
X89451789Y-87401497D01*
X89512607Y-87201009D01*
X89611369Y-87016236D01*
X89744282Y-86854282D01*
X89906236Y-86721369D01*
X90091009Y-86622607D01*
X90291497Y-86561789D01*
X90447749Y-86546400D01*
X90552251Y-86546400D01*
X90708503Y-86561789D01*
X90708503Y-86561789D01*
G37*
G36*
X47773530Y-85620877D02*
X47825010Y-85636493D01*
X47872442Y-85661846D01*
X47914027Y-85695973D01*
X47948154Y-85737558D01*
X47973507Y-85784990D01*
X47989123Y-85836470D01*
X47995000Y-85896140D01*
X47995000Y-86783860D01*
X47989123Y-86843530D01*
X47973507Y-86895010D01*
X47948154Y-86942442D01*
X47914027Y-86984027D01*
X47872442Y-87018154D01*
X47825010Y-87043507D01*
X47773530Y-87059123D01*
X47713860Y-87065000D01*
X46926140Y-87065000D01*
X46866470Y-87059123D01*
X46814990Y-87043507D01*
X46767558Y-87018154D01*
X46725973Y-86984027D01*
X46691846Y-86942442D01*
X46666493Y-86895010D01*
X46650877Y-86843530D01*
X46645000Y-86783860D01*
X46645000Y-85896140D01*
X46650877Y-85836470D01*
X46666493Y-85784990D01*
X46691846Y-85737558D01*
X46725973Y-85695973D01*
X46767558Y-85661846D01*
X46814990Y-85636493D01*
X46866470Y-85620877D01*
X46926140Y-85615000D01*
X47713860Y-85615000D01*
X47773530Y-85620877D01*
X47773530Y-85620877D01*
G37*
G36*
X111475000Y-86840000D02*
X109525000Y-86840000D01*
X109525000Y-85840000D01*
X111475000Y-85840000D01*
X111475000Y-86840000D01*
X111475000Y-86840000D01*
G37*
G36*
X116875000Y-86840000D02*
X114925000Y-86840000D01*
X114925000Y-85840000D01*
X116875000Y-85840000D01*
X116875000Y-86840000D01*
X116875000Y-86840000D01*
G37*
G36*
X95699281Y-81319865D02*
X95818378Y-81331595D01*
X95971189Y-81377950D01*
X96047595Y-81401127D01*
X96056990Y-81406149D01*
X96258842Y-81514041D01*
X96444002Y-81665998D01*
X96595959Y-81851158D01*
X96662148Y-81974990D01*
X96708873Y-82062405D01*
X96713196Y-82076657D01*
X96778405Y-82291622D01*
X96801883Y-82530000D01*
X96778405Y-82768378D01*
X96745716Y-82876140D01*
X96708873Y-82997595D01*
X96691552Y-83030000D01*
X96595959Y-83208842D01*
X96444002Y-83394002D01*
X96258842Y-83545959D01*
X96122640Y-83618760D01*
X96102266Y-83632374D01*
X96084939Y-83649701D01*
X96071325Y-83670076D01*
X96061947Y-83692715D01*
X96057167Y-83716748D01*
X96057167Y-83741252D01*
X96061948Y-83765286D01*
X96071325Y-83787925D01*
X96084939Y-83808299D01*
X96102266Y-83825626D01*
X96122641Y-83839240D01*
X96145280Y-83848618D01*
X96181565Y-83854000D01*
X96796000Y-83854000D01*
X96796000Y-86286000D01*
X94364000Y-86286000D01*
X94364000Y-83854000D01*
X94978435Y-83854000D01*
X95002821Y-83851598D01*
X95026270Y-83844485D01*
X95047881Y-83832934D01*
X95066823Y-83817388D01*
X95082369Y-83798446D01*
X95093920Y-83776835D01*
X95101033Y-83753386D01*
X95103435Y-83729000D01*
X95101033Y-83704614D01*
X95093920Y-83681165D01*
X95082369Y-83659554D01*
X95066823Y-83640612D01*
X95037360Y-83618760D01*
X94901158Y-83545959D01*
X94715998Y-83394002D01*
X94564041Y-83208842D01*
X94468448Y-83030000D01*
X94451127Y-82997595D01*
X94414284Y-82876140D01*
X94381595Y-82768378D01*
X94358117Y-82530000D01*
X94381595Y-82291622D01*
X94446804Y-82076657D01*
X94451127Y-82062405D01*
X94497852Y-81974990D01*
X94564041Y-81851158D01*
X94715998Y-81665998D01*
X94901158Y-81514041D01*
X95103010Y-81406149D01*
X95112405Y-81401127D01*
X95188811Y-81377950D01*
X95341622Y-81331595D01*
X95460719Y-81319865D01*
X95520267Y-81314000D01*
X95639733Y-81314000D01*
X95699281Y-81319865D01*
X95699281Y-81319865D01*
G37*
G36*
X88168503Y-84021789D02*
X88368991Y-84082607D01*
X88553764Y-84181369D01*
X88715718Y-84314282D01*
X88848631Y-84476236D01*
X88947393Y-84661009D01*
X89008211Y-84861497D01*
X89028746Y-85070000D01*
X89008211Y-85278503D01*
X88947393Y-85478991D01*
X88848631Y-85663764D01*
X88715718Y-85825718D01*
X88553764Y-85958631D01*
X88368991Y-86057393D01*
X88168503Y-86118211D01*
X88012251Y-86133600D01*
X87907749Y-86133600D01*
X87751497Y-86118211D01*
X87551009Y-86057393D01*
X87366236Y-85958631D01*
X87204282Y-85825718D01*
X87071369Y-85663764D01*
X86972607Y-85478991D01*
X86911789Y-85278503D01*
X86891254Y-85070000D01*
X86911789Y-84861497D01*
X86972607Y-84661009D01*
X87071369Y-84476236D01*
X87204282Y-84314282D01*
X87366236Y-84181369D01*
X87551009Y-84082607D01*
X87751497Y-84021789D01*
X87907749Y-84006400D01*
X88012251Y-84006400D01*
X88168503Y-84021789D01*
X88168503Y-84021789D01*
G37*
G36*
X39908503Y-84021789D02*
X40108991Y-84082607D01*
X40293764Y-84181369D01*
X40455718Y-84314282D01*
X40588631Y-84476236D01*
X40687393Y-84661009D01*
X40748211Y-84861497D01*
X40768746Y-85070000D01*
X40748211Y-85278503D01*
X40687393Y-85478991D01*
X40588631Y-85663764D01*
X40455718Y-85825718D01*
X40293764Y-85958631D01*
X40108991Y-86057393D01*
X39908503Y-86118211D01*
X39752251Y-86133600D01*
X39647749Y-86133600D01*
X39491497Y-86118211D01*
X39291009Y-86057393D01*
X39106236Y-85958631D01*
X38944282Y-85825718D01*
X38811369Y-85663764D01*
X38712607Y-85478991D01*
X38651789Y-85278503D01*
X38631254Y-85070000D01*
X38651789Y-84861497D01*
X38712607Y-84661009D01*
X38811369Y-84476236D01*
X38944282Y-84314282D01*
X39106236Y-84181369D01*
X39291009Y-84082607D01*
X39491497Y-84021789D01*
X39647749Y-84006400D01*
X39752251Y-84006400D01*
X39908503Y-84021789D01*
X39908503Y-84021789D01*
G37*
G36*
X42448503Y-84021789D02*
X42648991Y-84082607D01*
X42833764Y-84181369D01*
X42995718Y-84314282D01*
X43128631Y-84476236D01*
X43227393Y-84661009D01*
X43288211Y-84861497D01*
X43308746Y-85070000D01*
X43288211Y-85278503D01*
X43227393Y-85478991D01*
X43128631Y-85663764D01*
X42995718Y-85825718D01*
X42833764Y-85958631D01*
X42648991Y-86057393D01*
X42448503Y-86118211D01*
X42292251Y-86133600D01*
X42187749Y-86133600D01*
X42031497Y-86118211D01*
X41831009Y-86057393D01*
X41646236Y-85958631D01*
X41484282Y-85825718D01*
X41351369Y-85663764D01*
X41252607Y-85478991D01*
X41191789Y-85278503D01*
X41171254Y-85070000D01*
X41191789Y-84861497D01*
X41252607Y-84661009D01*
X41351369Y-84476236D01*
X41484282Y-84314282D01*
X41646236Y-84181369D01*
X41831009Y-84082607D01*
X42031497Y-84021789D01*
X42187749Y-84006400D01*
X42292251Y-84006400D01*
X42448503Y-84021789D01*
X42448503Y-84021789D01*
G37*
G36*
X90708503Y-84021789D02*
X90908991Y-84082607D01*
X91093764Y-84181369D01*
X91255718Y-84314282D01*
X91388631Y-84476236D01*
X91487393Y-84661009D01*
X91548211Y-84861497D01*
X91568746Y-85070000D01*
X91548211Y-85278503D01*
X91487393Y-85478991D01*
X91388631Y-85663764D01*
X91255718Y-85825718D01*
X91093764Y-85958631D01*
X90908991Y-86057393D01*
X90708503Y-86118211D01*
X90552251Y-86133600D01*
X90447749Y-86133600D01*
X90291497Y-86118211D01*
X90091009Y-86057393D01*
X89906236Y-85958631D01*
X89744282Y-85825718D01*
X89611369Y-85663764D01*
X89512607Y-85478991D01*
X89451789Y-85278503D01*
X89431254Y-85070000D01*
X89451789Y-84861497D01*
X89512607Y-84661009D01*
X89611369Y-84476236D01*
X89744282Y-84314282D01*
X89906236Y-84181369D01*
X90091009Y-84082607D01*
X90291497Y-84021789D01*
X90447749Y-84006400D01*
X90552251Y-84006400D01*
X90708503Y-84021789D01*
X90708503Y-84021789D01*
G37*
G36*
X105879452Y-84129127D02*
X106017105Y-84156508D01*
X106189994Y-84228121D01*
X106345590Y-84332087D01*
X106477913Y-84464410D01*
X106581879Y-84620006D01*
X106653492Y-84792895D01*
X106690000Y-84976433D01*
X106690000Y-85163567D01*
X106653492Y-85347105D01*
X106581879Y-85519994D01*
X106477913Y-85675590D01*
X106345590Y-85807913D01*
X106189994Y-85911879D01*
X106017105Y-85983492D01*
X105879451Y-86010873D01*
X105833568Y-86020000D01*
X105646432Y-86020000D01*
X105600548Y-86010873D01*
X105462895Y-85983492D01*
X105290006Y-85911879D01*
X105134410Y-85807913D01*
X105002087Y-85675590D01*
X104898121Y-85519994D01*
X104826508Y-85347105D01*
X104790000Y-85163567D01*
X104790000Y-84976433D01*
X104826508Y-84792895D01*
X104898121Y-84620006D01*
X105002087Y-84464410D01*
X105134410Y-84332087D01*
X105290006Y-84228121D01*
X105462895Y-84156508D01*
X105600548Y-84129127D01*
X105646432Y-84120000D01*
X105833568Y-84120000D01*
X105879452Y-84129127D01*
X105879452Y-84129127D01*
G37*
G36*
X119528530Y-84350877D02*
X119580010Y-84366493D01*
X119627442Y-84391846D01*
X119669027Y-84425973D01*
X119703154Y-84467558D01*
X119728507Y-84514990D01*
X119744123Y-84566470D01*
X119750000Y-84626140D01*
X119750000Y-85513860D01*
X119744123Y-85573530D01*
X119728507Y-85625010D01*
X119703154Y-85672442D01*
X119669027Y-85714027D01*
X119627442Y-85748154D01*
X119580010Y-85773507D01*
X119528530Y-85789123D01*
X119468860Y-85795000D01*
X118681140Y-85795000D01*
X118621470Y-85789123D01*
X118569990Y-85773507D01*
X118522558Y-85748154D01*
X118480973Y-85714027D01*
X118446846Y-85672442D01*
X118421493Y-85625010D01*
X118405877Y-85573530D01*
X118400000Y-85513860D01*
X118400000Y-84626140D01*
X118405877Y-84566470D01*
X118421493Y-84514990D01*
X118446846Y-84467558D01*
X118480973Y-84425973D01*
X118522558Y-84391846D01*
X118569990Y-84366493D01*
X118621470Y-84350877D01*
X118681140Y-84345000D01*
X119468860Y-84345000D01*
X119528530Y-84350877D01*
X119528530Y-84350877D01*
G37*
G36*
X116875000Y-85570000D02*
X114925000Y-85570000D01*
X114925000Y-84570000D01*
X116875000Y-84570000D01*
X116875000Y-85570000D01*
X116875000Y-85570000D01*
G37*
G36*
X111475000Y-85570000D02*
X109525000Y-85570000D01*
X109525000Y-84570000D01*
X111475000Y-84570000D01*
X111475000Y-85570000D01*
X111475000Y-85570000D01*
G37*
G36*
X47773530Y-83870877D02*
X47825010Y-83886493D01*
X47872442Y-83911846D01*
X47914027Y-83945973D01*
X47948154Y-83987558D01*
X47973507Y-84034990D01*
X47989123Y-84086470D01*
X47995000Y-84146140D01*
X47995000Y-85033860D01*
X47989123Y-85093530D01*
X47973507Y-85145010D01*
X47948154Y-85192442D01*
X47914027Y-85234027D01*
X47872442Y-85268154D01*
X47825010Y-85293507D01*
X47773530Y-85309123D01*
X47713860Y-85315000D01*
X46926140Y-85315000D01*
X46866470Y-85309123D01*
X46814990Y-85293507D01*
X46767558Y-85268154D01*
X46725973Y-85234027D01*
X46691846Y-85192442D01*
X46666493Y-85145010D01*
X46650877Y-85093530D01*
X46645000Y-85033860D01*
X46645000Y-84146140D01*
X46650877Y-84086470D01*
X46666493Y-84034990D01*
X46691846Y-83987558D01*
X46725973Y-83945973D01*
X46767558Y-83911846D01*
X46814990Y-83886493D01*
X46866470Y-83870877D01*
X46926140Y-83865000D01*
X47713860Y-83865000D01*
X47773530Y-83870877D01*
X47773530Y-83870877D01*
G37*
G36*
X111475000Y-84300000D02*
X109525000Y-84300000D01*
X109525000Y-83300000D01*
X111475000Y-83300000D01*
X111475000Y-84300000D01*
X111475000Y-84300000D01*
G37*
G36*
X116875000Y-84300000D02*
X114925000Y-84300000D01*
X114925000Y-83300000D01*
X116875000Y-83300000D01*
X116875000Y-84300000D01*
X116875000Y-84300000D01*
G37*
G36*
X119528530Y-82600877D02*
X119580010Y-82616493D01*
X119627442Y-82641846D01*
X119669027Y-82675973D01*
X119703154Y-82717558D01*
X119728507Y-82764990D01*
X119744123Y-82816470D01*
X119750000Y-82876140D01*
X119750000Y-83763860D01*
X119744123Y-83823530D01*
X119728507Y-83875010D01*
X119703154Y-83922442D01*
X119669027Y-83964027D01*
X119627442Y-83998154D01*
X119580010Y-84023507D01*
X119528530Y-84039123D01*
X119468860Y-84045000D01*
X118681140Y-84045000D01*
X118621470Y-84039123D01*
X118569990Y-84023507D01*
X118522558Y-83998154D01*
X118480973Y-83964027D01*
X118446846Y-83922442D01*
X118421493Y-83875010D01*
X118405877Y-83823530D01*
X118400000Y-83763860D01*
X118400000Y-82876140D01*
X118405877Y-82816470D01*
X118421493Y-82764990D01*
X118446846Y-82717558D01*
X118480973Y-82675973D01*
X118522558Y-82641846D01*
X118569990Y-82616493D01*
X118621470Y-82600877D01*
X118681140Y-82595000D01*
X119468860Y-82595000D01*
X119528530Y-82600877D01*
X119528530Y-82600877D01*
G37*
G36*
X88168503Y-81481789D02*
X88368991Y-81542607D01*
X88553764Y-81641369D01*
X88715718Y-81774282D01*
X88848631Y-81936236D01*
X88947393Y-82121009D01*
X89008211Y-82321497D01*
X89028746Y-82530000D01*
X89008211Y-82738503D01*
X88947393Y-82938991D01*
X88848631Y-83123764D01*
X88715718Y-83285718D01*
X88553764Y-83418631D01*
X88368991Y-83517393D01*
X88168503Y-83578211D01*
X88012251Y-83593600D01*
X87907749Y-83593600D01*
X87751497Y-83578211D01*
X87551009Y-83517393D01*
X87366236Y-83418631D01*
X87204282Y-83285718D01*
X87071369Y-83123764D01*
X86972607Y-82938991D01*
X86911789Y-82738503D01*
X86891254Y-82530000D01*
X86911789Y-82321497D01*
X86972607Y-82121009D01*
X87071369Y-81936236D01*
X87204282Y-81774282D01*
X87366236Y-81641369D01*
X87551009Y-81542607D01*
X87751497Y-81481789D01*
X87907749Y-81466400D01*
X88012251Y-81466400D01*
X88168503Y-81481789D01*
X88168503Y-81481789D01*
G37*
G36*
X42448503Y-81481789D02*
X42648991Y-81542607D01*
X42833764Y-81641369D01*
X42995718Y-81774282D01*
X43128631Y-81936236D01*
X43227393Y-82121009D01*
X43288211Y-82321497D01*
X43308746Y-82530000D01*
X43288211Y-82738503D01*
X43227393Y-82938991D01*
X43128631Y-83123764D01*
X42995718Y-83285718D01*
X42833764Y-83418631D01*
X42648991Y-83517393D01*
X42448503Y-83578211D01*
X42292251Y-83593600D01*
X42187749Y-83593600D01*
X42031497Y-83578211D01*
X41831009Y-83517393D01*
X41646236Y-83418631D01*
X41484282Y-83285718D01*
X41351369Y-83123764D01*
X41252607Y-82938991D01*
X41191789Y-82738503D01*
X41171254Y-82530000D01*
X41191789Y-82321497D01*
X41252607Y-82121009D01*
X41351369Y-81936236D01*
X41484282Y-81774282D01*
X41646236Y-81641369D01*
X41831009Y-81542607D01*
X42031497Y-81481789D01*
X42187749Y-81466400D01*
X42292251Y-81466400D01*
X42448503Y-81481789D01*
X42448503Y-81481789D01*
G37*
G36*
X39908503Y-81481789D02*
X40108991Y-81542607D01*
X40293764Y-81641369D01*
X40455718Y-81774282D01*
X40588631Y-81936236D01*
X40687393Y-82121009D01*
X40748211Y-82321497D01*
X40768746Y-82530000D01*
X40748211Y-82738503D01*
X40687393Y-82938991D01*
X40588631Y-83123764D01*
X40455718Y-83285718D01*
X40293764Y-83418631D01*
X40108991Y-83517393D01*
X39908503Y-83578211D01*
X39752251Y-83593600D01*
X39647749Y-83593600D01*
X39491497Y-83578211D01*
X39291009Y-83517393D01*
X39106236Y-83418631D01*
X38944282Y-83285718D01*
X38811369Y-83123764D01*
X38712607Y-82938991D01*
X38651789Y-82738503D01*
X38631254Y-82530000D01*
X38651789Y-82321497D01*
X38712607Y-82121009D01*
X38811369Y-81936236D01*
X38944282Y-81774282D01*
X39106236Y-81641369D01*
X39291009Y-81542607D01*
X39491497Y-81481789D01*
X39647749Y-81466400D01*
X39752251Y-81466400D01*
X39908503Y-81481789D01*
X39908503Y-81481789D01*
G37*
G36*
X90708503Y-81481789D02*
X90908991Y-81542607D01*
X91093764Y-81641369D01*
X91255718Y-81774282D01*
X91388631Y-81936236D01*
X91487393Y-82121009D01*
X91548211Y-82321497D01*
X91568746Y-82530000D01*
X91548211Y-82738503D01*
X91487393Y-82938991D01*
X91388631Y-83123764D01*
X91255718Y-83285718D01*
X91093764Y-83418631D01*
X90908991Y-83517393D01*
X90708503Y-83578211D01*
X90552251Y-83593600D01*
X90447749Y-83593600D01*
X90291497Y-83578211D01*
X90091009Y-83517393D01*
X89906236Y-83418631D01*
X89744282Y-83285718D01*
X89611369Y-83123764D01*
X89512607Y-82938991D01*
X89451789Y-82738503D01*
X89431254Y-82530000D01*
X89451789Y-82321497D01*
X89512607Y-82121009D01*
X89611369Y-81936236D01*
X89744282Y-81774282D01*
X89906236Y-81641369D01*
X90091009Y-81542607D01*
X90291497Y-81481789D01*
X90447749Y-81466400D01*
X90552251Y-81466400D01*
X90708503Y-81481789D01*
X90708503Y-81481789D01*
G37*
G36*
X107149451Y-81589127D02*
X107287105Y-81616508D01*
X107459994Y-81688121D01*
X107615590Y-81792087D01*
X107747913Y-81924410D01*
X107851879Y-82080006D01*
X107923492Y-82252895D01*
X107960000Y-82436433D01*
X107960000Y-82623567D01*
X107923492Y-82807105D01*
X107851879Y-82979994D01*
X107747913Y-83135590D01*
X107615590Y-83267913D01*
X107459994Y-83371879D01*
X107287105Y-83443492D01*
X107149452Y-83470873D01*
X107103568Y-83480000D01*
X106916432Y-83480000D01*
X106870548Y-83470873D01*
X106732895Y-83443492D01*
X106560006Y-83371879D01*
X106404410Y-83267913D01*
X106272087Y-83135590D01*
X106168121Y-82979994D01*
X106096508Y-82807105D01*
X106060000Y-82623567D01*
X106060000Y-82436433D01*
X106096508Y-82252895D01*
X106168121Y-82080006D01*
X106272087Y-81924410D01*
X106404410Y-81792087D01*
X106560006Y-81688121D01*
X106732895Y-81616508D01*
X106870549Y-81589127D01*
X106916432Y-81580000D01*
X107103568Y-81580000D01*
X107149451Y-81589127D01*
X107149451Y-81589127D01*
G37*
G36*
X47773530Y-81810877D02*
X47825010Y-81826493D01*
X47872442Y-81851846D01*
X47914027Y-81885973D01*
X47948154Y-81927558D01*
X47973507Y-81974990D01*
X47989123Y-82026470D01*
X47995000Y-82086140D01*
X47995000Y-82973860D01*
X47989123Y-83033530D01*
X47973507Y-83085010D01*
X47948154Y-83132442D01*
X47914027Y-83174027D01*
X47872442Y-83208154D01*
X47825010Y-83233507D01*
X47773530Y-83249123D01*
X47713860Y-83255000D01*
X46926140Y-83255000D01*
X46866470Y-83249123D01*
X46814990Y-83233507D01*
X46767558Y-83208154D01*
X46725973Y-83174027D01*
X46691846Y-83132442D01*
X46666493Y-83085010D01*
X46650877Y-83033530D01*
X46645000Y-82973860D01*
X46645000Y-82086140D01*
X46650877Y-82026470D01*
X46666493Y-81974990D01*
X46691846Y-81927558D01*
X46725973Y-81885973D01*
X46767558Y-81851846D01*
X46814990Y-81826493D01*
X46866470Y-81810877D01*
X46926140Y-81805000D01*
X47713860Y-81805000D01*
X47773530Y-81810877D01*
X47773530Y-81810877D01*
G37*
G36*
X102038530Y-81860877D02*
X102090010Y-81876493D01*
X102137442Y-81901846D01*
X102179027Y-81935973D01*
X102213154Y-81977558D01*
X102238507Y-82024990D01*
X102254123Y-82076470D01*
X102260000Y-82136140D01*
X102260000Y-82923860D01*
X102254123Y-82983530D01*
X102238507Y-83035010D01*
X102213154Y-83082442D01*
X102179027Y-83124027D01*
X102137442Y-83158154D01*
X102090010Y-83183507D01*
X102038530Y-83199123D01*
X101978860Y-83205000D01*
X101091140Y-83205000D01*
X101031470Y-83199123D01*
X100979990Y-83183507D01*
X100932558Y-83158154D01*
X100890973Y-83124027D01*
X100856846Y-83082442D01*
X100831493Y-83035010D01*
X100815877Y-82983530D01*
X100810000Y-82923860D01*
X100810000Y-82136140D01*
X100815877Y-82076470D01*
X100831493Y-82024990D01*
X100856846Y-81977558D01*
X100890973Y-81935973D01*
X100932558Y-81901846D01*
X100979990Y-81876493D01*
X101031470Y-81860877D01*
X101091140Y-81855000D01*
X101978860Y-81855000D01*
X102038530Y-81860877D01*
X102038530Y-81860877D01*
G37*
G36*
X100288530Y-81860877D02*
X100340010Y-81876493D01*
X100387442Y-81901846D01*
X100429027Y-81935973D01*
X100463154Y-81977558D01*
X100488507Y-82024990D01*
X100504123Y-82076470D01*
X100510000Y-82136140D01*
X100510000Y-82923860D01*
X100504123Y-82983530D01*
X100488507Y-83035010D01*
X100463154Y-83082442D01*
X100429027Y-83124027D01*
X100387442Y-83158154D01*
X100340010Y-83183507D01*
X100288530Y-83199123D01*
X100228860Y-83205000D01*
X99341140Y-83205000D01*
X99281470Y-83199123D01*
X99229990Y-83183507D01*
X99182558Y-83158154D01*
X99140973Y-83124027D01*
X99106846Y-83082442D01*
X99081493Y-83035010D01*
X99065877Y-82983530D01*
X99060000Y-82923860D01*
X99060000Y-82136140D01*
X99065877Y-82076470D01*
X99081493Y-82024990D01*
X99106846Y-81977558D01*
X99140973Y-81935973D01*
X99182558Y-81901846D01*
X99229990Y-81876493D01*
X99281470Y-81860877D01*
X99341140Y-81855000D01*
X100228860Y-81855000D01*
X100288530Y-81860877D01*
X100288530Y-81860877D01*
G37*
G36*
X116875000Y-83030000D02*
X114925000Y-83030000D01*
X114925000Y-82030000D01*
X116875000Y-82030000D01*
X116875000Y-83030000D01*
X116875000Y-83030000D01*
G37*
G36*
X111475000Y-83030000D02*
X109525000Y-83030000D01*
X109525000Y-82030000D01*
X111475000Y-82030000D01*
X111475000Y-83030000D01*
X111475000Y-83030000D01*
G37*
G36*
X47773530Y-80060877D02*
X47825010Y-80076493D01*
X47872442Y-80101846D01*
X47914027Y-80135973D01*
X47948154Y-80177558D01*
X47973507Y-80224990D01*
X47989123Y-80276470D01*
X47995000Y-80336140D01*
X47995000Y-81223860D01*
X47989123Y-81283530D01*
X47973507Y-81335010D01*
X47948154Y-81382442D01*
X47914027Y-81424027D01*
X47872442Y-81458154D01*
X47825010Y-81483507D01*
X47773530Y-81499123D01*
X47713860Y-81505000D01*
X46926140Y-81505000D01*
X46866470Y-81499123D01*
X46814990Y-81483507D01*
X46767558Y-81458154D01*
X46725973Y-81424027D01*
X46691846Y-81382442D01*
X46666493Y-81335010D01*
X46650877Y-81283530D01*
X46645000Y-81223860D01*
X46645000Y-80336140D01*
X46650877Y-80276470D01*
X46666493Y-80224990D01*
X46691846Y-80177558D01*
X46725973Y-80135973D01*
X46767558Y-80101846D01*
X46814990Y-80076493D01*
X46866470Y-80060877D01*
X46926140Y-80055000D01*
X47713860Y-80055000D01*
X47773530Y-80060877D01*
X47773530Y-80060877D01*
G37*
G36*
X39908503Y-78941789D02*
X40108991Y-79002607D01*
X40293764Y-79101369D01*
X40455718Y-79234282D01*
X40588631Y-79396236D01*
X40687393Y-79581009D01*
X40748211Y-79781497D01*
X40768746Y-79990000D01*
X40748211Y-80198503D01*
X40687393Y-80398991D01*
X40588631Y-80583764D01*
X40455718Y-80745718D01*
X40293764Y-80878631D01*
X40108991Y-80977393D01*
X39908503Y-81038211D01*
X39752251Y-81053600D01*
X39647749Y-81053600D01*
X39491497Y-81038211D01*
X39291009Y-80977393D01*
X39106236Y-80878631D01*
X38944282Y-80745718D01*
X38811369Y-80583764D01*
X38712607Y-80398991D01*
X38651789Y-80198503D01*
X38631254Y-79990000D01*
X38651789Y-79781497D01*
X38712607Y-79581009D01*
X38811369Y-79396236D01*
X38944282Y-79234282D01*
X39106236Y-79101369D01*
X39291009Y-79002607D01*
X39491497Y-78941789D01*
X39647749Y-78926400D01*
X39752251Y-78926400D01*
X39908503Y-78941789D01*
X39908503Y-78941789D01*
G37*
G36*
X88168503Y-78941789D02*
X88368991Y-79002607D01*
X88553764Y-79101369D01*
X88715718Y-79234282D01*
X88848631Y-79396236D01*
X88947393Y-79581009D01*
X89008211Y-79781497D01*
X89028746Y-79990000D01*
X89008211Y-80198503D01*
X88947393Y-80398991D01*
X88848631Y-80583764D01*
X88715718Y-80745718D01*
X88553764Y-80878631D01*
X88368991Y-80977393D01*
X88168503Y-81038211D01*
X88012251Y-81053600D01*
X87907749Y-81053600D01*
X87751497Y-81038211D01*
X87551009Y-80977393D01*
X87366236Y-80878631D01*
X87204282Y-80745718D01*
X87071369Y-80583764D01*
X86972607Y-80398991D01*
X86911789Y-80198503D01*
X86891254Y-79990000D01*
X86911789Y-79781497D01*
X86972607Y-79581009D01*
X87071369Y-79396236D01*
X87204282Y-79234282D01*
X87366236Y-79101369D01*
X87551009Y-79002607D01*
X87751497Y-78941789D01*
X87907749Y-78926400D01*
X88012251Y-78926400D01*
X88168503Y-78941789D01*
X88168503Y-78941789D01*
G37*
G36*
X90708503Y-78941789D02*
X90908991Y-79002607D01*
X91093764Y-79101369D01*
X91255718Y-79234282D01*
X91388631Y-79396236D01*
X91487393Y-79581009D01*
X91548211Y-79781497D01*
X91568746Y-79990000D01*
X91548211Y-80198503D01*
X91487393Y-80398991D01*
X91388631Y-80583764D01*
X91255718Y-80745718D01*
X91093764Y-80878631D01*
X90908991Y-80977393D01*
X90708503Y-81038211D01*
X90552251Y-81053600D01*
X90447749Y-81053600D01*
X90291497Y-81038211D01*
X90091009Y-80977393D01*
X89906236Y-80878631D01*
X89744282Y-80745718D01*
X89611369Y-80583764D01*
X89512607Y-80398991D01*
X89451789Y-80198503D01*
X89431254Y-79990000D01*
X89451789Y-79781497D01*
X89512607Y-79581009D01*
X89611369Y-79396236D01*
X89744282Y-79234282D01*
X89906236Y-79101369D01*
X90091009Y-79002607D01*
X90291497Y-78941789D01*
X90447749Y-78926400D01*
X90552251Y-78926400D01*
X90708503Y-78941789D01*
X90708503Y-78941789D01*
G37*
G36*
X42448503Y-78941789D02*
X42648991Y-79002607D01*
X42833764Y-79101369D01*
X42995718Y-79234282D01*
X43128631Y-79396236D01*
X43227393Y-79581009D01*
X43288211Y-79781497D01*
X43308746Y-79990000D01*
X43288211Y-80198503D01*
X43227393Y-80398991D01*
X43128631Y-80583764D01*
X42995718Y-80745718D01*
X42833764Y-80878631D01*
X42648991Y-80977393D01*
X42448503Y-81038211D01*
X42292251Y-81053600D01*
X42187749Y-81053600D01*
X42031497Y-81038211D01*
X41831009Y-80977393D01*
X41646236Y-80878631D01*
X41484282Y-80745718D01*
X41351369Y-80583764D01*
X41252607Y-80398991D01*
X41191789Y-80198503D01*
X41171254Y-79990000D01*
X41191789Y-79781497D01*
X41252607Y-79581009D01*
X41351369Y-79396236D01*
X41484282Y-79234282D01*
X41646236Y-79101369D01*
X41831009Y-79002607D01*
X42031497Y-78941789D01*
X42187749Y-78926400D01*
X42292251Y-78926400D01*
X42448503Y-78941789D01*
X42448503Y-78941789D01*
G37*
G36*
X47773530Y-77605877D02*
X47825010Y-77621493D01*
X47872442Y-77646846D01*
X47914027Y-77680973D01*
X47948154Y-77722558D01*
X47973507Y-77769990D01*
X47989123Y-77821470D01*
X47995000Y-77881140D01*
X47995000Y-78768860D01*
X47989123Y-78828530D01*
X47973507Y-78880010D01*
X47948154Y-78927442D01*
X47914027Y-78969027D01*
X47872442Y-79003154D01*
X47825010Y-79028507D01*
X47773530Y-79044123D01*
X47713860Y-79050000D01*
X46926140Y-79050000D01*
X46866470Y-79044123D01*
X46814990Y-79028507D01*
X46767558Y-79003154D01*
X46725973Y-78969027D01*
X46691846Y-78927442D01*
X46666493Y-78880010D01*
X46650877Y-78828530D01*
X46645000Y-78768860D01*
X46645000Y-77881140D01*
X46650877Y-77821470D01*
X46666493Y-77769990D01*
X46691846Y-77722558D01*
X46725973Y-77680973D01*
X46767558Y-77646846D01*
X46814990Y-77621493D01*
X46866470Y-77605877D01*
X46926140Y-77600000D01*
X47713860Y-77600000D01*
X47773530Y-77605877D01*
X47773530Y-77605877D01*
G37*
G36*
X50313530Y-77605877D02*
X50365010Y-77621493D01*
X50412442Y-77646846D01*
X50454027Y-77680973D01*
X50488154Y-77722558D01*
X50513507Y-77769990D01*
X50529123Y-77821470D01*
X50535000Y-77881140D01*
X50535000Y-78768860D01*
X50529123Y-78828530D01*
X50513507Y-78880010D01*
X50488154Y-78927442D01*
X50454027Y-78969027D01*
X50412442Y-79003154D01*
X50365010Y-79028507D01*
X50313530Y-79044123D01*
X50253860Y-79050000D01*
X49466140Y-79050000D01*
X49406470Y-79044123D01*
X49354990Y-79028507D01*
X49307558Y-79003154D01*
X49265973Y-78969027D01*
X49231846Y-78927442D01*
X49206493Y-78880010D01*
X49190877Y-78828530D01*
X49185000Y-78768860D01*
X49185000Y-77881140D01*
X49190877Y-77821470D01*
X49206493Y-77769990D01*
X49231846Y-77722558D01*
X49265973Y-77680973D01*
X49307558Y-77646846D01*
X49354990Y-77621493D01*
X49406470Y-77605877D01*
X49466140Y-77600000D01*
X50253860Y-77600000D01*
X50313530Y-77605877D01*
X50313530Y-77605877D01*
G37*
G36*
X88168503Y-76401789D02*
X88368991Y-76462607D01*
X88553764Y-76561369D01*
X88715718Y-76694282D01*
X88848631Y-76856236D01*
X88947393Y-77041009D01*
X89008211Y-77241497D01*
X89028746Y-77450000D01*
X89008211Y-77658503D01*
X88947393Y-77858991D01*
X88848631Y-78043764D01*
X88715718Y-78205718D01*
X88553764Y-78338631D01*
X88368991Y-78437393D01*
X88168503Y-78498211D01*
X88012251Y-78513600D01*
X87907749Y-78513600D01*
X87751497Y-78498211D01*
X87551009Y-78437393D01*
X87366236Y-78338631D01*
X87204282Y-78205718D01*
X87071369Y-78043764D01*
X86972607Y-77858991D01*
X86911789Y-77658503D01*
X86891254Y-77450000D01*
X86911789Y-77241497D01*
X86972607Y-77041009D01*
X87071369Y-76856236D01*
X87204282Y-76694282D01*
X87366236Y-76561369D01*
X87551009Y-76462607D01*
X87751497Y-76401789D01*
X87907749Y-76386400D01*
X88012251Y-76386400D01*
X88168503Y-76401789D01*
X88168503Y-76401789D01*
G37*
G36*
X42448503Y-76401789D02*
X42648991Y-76462607D01*
X42833764Y-76561369D01*
X42995718Y-76694282D01*
X43128631Y-76856236D01*
X43227393Y-77041009D01*
X43288211Y-77241497D01*
X43308746Y-77450000D01*
X43288211Y-77658503D01*
X43227393Y-77858991D01*
X43128631Y-78043764D01*
X42995718Y-78205718D01*
X42833764Y-78338631D01*
X42648991Y-78437393D01*
X42448503Y-78498211D01*
X42292251Y-78513600D01*
X42187749Y-78513600D01*
X42031497Y-78498211D01*
X41831009Y-78437393D01*
X41646236Y-78338631D01*
X41484282Y-78205718D01*
X41351369Y-78043764D01*
X41252607Y-77858991D01*
X41191789Y-77658503D01*
X41171254Y-77450000D01*
X41191789Y-77241497D01*
X41252607Y-77041009D01*
X41351369Y-76856236D01*
X41484282Y-76694282D01*
X41646236Y-76561369D01*
X41831009Y-76462607D01*
X42031497Y-76401789D01*
X42187749Y-76386400D01*
X42292251Y-76386400D01*
X42448503Y-76401789D01*
X42448503Y-76401789D01*
G37*
G36*
X39908503Y-76401789D02*
X40108991Y-76462607D01*
X40293764Y-76561369D01*
X40455718Y-76694282D01*
X40588631Y-76856236D01*
X40687393Y-77041009D01*
X40748211Y-77241497D01*
X40768746Y-77450000D01*
X40748211Y-77658503D01*
X40687393Y-77858991D01*
X40588631Y-78043764D01*
X40455718Y-78205718D01*
X40293764Y-78338631D01*
X40108991Y-78437393D01*
X39908503Y-78498211D01*
X39752251Y-78513600D01*
X39647749Y-78513600D01*
X39491497Y-78498211D01*
X39291009Y-78437393D01*
X39106236Y-78338631D01*
X38944282Y-78205718D01*
X38811369Y-78043764D01*
X38712607Y-77858991D01*
X38651789Y-77658503D01*
X38631254Y-77450000D01*
X38651789Y-77241497D01*
X38712607Y-77041009D01*
X38811369Y-76856236D01*
X38944282Y-76694282D01*
X39106236Y-76561369D01*
X39291009Y-76462607D01*
X39491497Y-76401789D01*
X39647749Y-76386400D01*
X39752251Y-76386400D01*
X39908503Y-76401789D01*
X39908503Y-76401789D01*
G37*
G36*
X90708503Y-76401789D02*
X90908991Y-76462607D01*
X91093764Y-76561369D01*
X91255718Y-76694282D01*
X91388631Y-76856236D01*
X91487393Y-77041009D01*
X91548211Y-77241497D01*
X91568746Y-77450000D01*
X91548211Y-77658503D01*
X91487393Y-77858991D01*
X91388631Y-78043764D01*
X91255718Y-78205718D01*
X91093764Y-78338631D01*
X90908991Y-78437393D01*
X90708503Y-78498211D01*
X90552251Y-78513600D01*
X90447749Y-78513600D01*
X90291497Y-78498211D01*
X90091009Y-78437393D01*
X89906236Y-78338631D01*
X89744282Y-78205718D01*
X89611369Y-78043764D01*
X89512607Y-77858991D01*
X89451789Y-77658503D01*
X89431254Y-77450000D01*
X89451789Y-77241497D01*
X89512607Y-77041009D01*
X89611369Y-76856236D01*
X89744282Y-76694282D01*
X89906236Y-76561369D01*
X90091009Y-76462607D01*
X90291497Y-76401789D01*
X90447749Y-76386400D01*
X90552251Y-76386400D01*
X90708503Y-76401789D01*
X90708503Y-76401789D01*
G37*
G36*
X47773530Y-75855877D02*
X47825010Y-75871493D01*
X47872442Y-75896846D01*
X47914027Y-75930973D01*
X47948154Y-75972558D01*
X47973507Y-76019990D01*
X47989123Y-76071470D01*
X47995000Y-76131140D01*
X47995000Y-77018860D01*
X47989123Y-77078530D01*
X47973507Y-77130010D01*
X47948154Y-77177442D01*
X47914027Y-77219027D01*
X47872442Y-77253154D01*
X47825010Y-77278507D01*
X47773530Y-77294123D01*
X47713860Y-77300000D01*
X46926140Y-77300000D01*
X46866470Y-77294123D01*
X46814990Y-77278507D01*
X46767558Y-77253154D01*
X46725973Y-77219027D01*
X46691846Y-77177442D01*
X46666493Y-77130010D01*
X46650877Y-77078530D01*
X46645000Y-77018860D01*
X46645000Y-76131140D01*
X46650877Y-76071470D01*
X46666493Y-76019990D01*
X46691846Y-75972558D01*
X46725973Y-75930973D01*
X46767558Y-75896846D01*
X46814990Y-75871493D01*
X46866470Y-75855877D01*
X46926140Y-75850000D01*
X47713860Y-75850000D01*
X47773530Y-75855877D01*
X47773530Y-75855877D01*
G37*
G36*
X50313530Y-75855877D02*
X50365010Y-75871493D01*
X50412442Y-75896846D01*
X50454027Y-75930973D01*
X50488154Y-75972558D01*
X50513507Y-76019990D01*
X50529123Y-76071470D01*
X50535000Y-76131140D01*
X50535000Y-77018860D01*
X50529123Y-77078530D01*
X50513507Y-77130010D01*
X50488154Y-77177442D01*
X50454027Y-77219027D01*
X50412442Y-77253154D01*
X50365010Y-77278507D01*
X50313530Y-77294123D01*
X50253860Y-77300000D01*
X49466140Y-77300000D01*
X49406470Y-77294123D01*
X49354990Y-77278507D01*
X49307558Y-77253154D01*
X49265973Y-77219027D01*
X49231846Y-77177442D01*
X49206493Y-77130010D01*
X49190877Y-77078530D01*
X49185000Y-77018860D01*
X49185000Y-76131140D01*
X49190877Y-76071470D01*
X49206493Y-76019990D01*
X49231846Y-75972558D01*
X49265973Y-75930973D01*
X49307558Y-75896846D01*
X49354990Y-75871493D01*
X49406470Y-75855877D01*
X49466140Y-75850000D01*
X50253860Y-75850000D01*
X50313530Y-75855877D01*
X50313530Y-75855877D01*
G37*
G36*
X42448503Y-73861789D02*
X42648991Y-73922607D01*
X42833764Y-74021369D01*
X42995718Y-74154282D01*
X43128631Y-74316236D01*
X43227393Y-74501009D01*
X43288211Y-74701497D01*
X43308746Y-74910000D01*
X43288211Y-75118503D01*
X43227393Y-75318991D01*
X43128631Y-75503764D01*
X42995718Y-75665718D01*
X42833764Y-75798631D01*
X42648991Y-75897393D01*
X42448503Y-75958211D01*
X42292251Y-75973600D01*
X42187749Y-75973600D01*
X42031497Y-75958211D01*
X41831009Y-75897393D01*
X41646236Y-75798631D01*
X41484282Y-75665718D01*
X41351369Y-75503764D01*
X41252607Y-75318991D01*
X41191789Y-75118503D01*
X41171254Y-74910000D01*
X41191789Y-74701497D01*
X41252607Y-74501009D01*
X41351369Y-74316236D01*
X41484282Y-74154282D01*
X41646236Y-74021369D01*
X41831009Y-73922607D01*
X42031497Y-73861789D01*
X42187749Y-73846400D01*
X42292251Y-73846400D01*
X42448503Y-73861789D01*
X42448503Y-73861789D01*
G37*
G36*
X39908503Y-73861789D02*
X40108991Y-73922607D01*
X40293764Y-74021369D01*
X40455718Y-74154282D01*
X40588631Y-74316236D01*
X40687393Y-74501009D01*
X40748211Y-74701497D01*
X40768746Y-74910000D01*
X40748211Y-75118503D01*
X40687393Y-75318991D01*
X40588631Y-75503764D01*
X40455718Y-75665718D01*
X40293764Y-75798631D01*
X40108991Y-75897393D01*
X39908503Y-75958211D01*
X39752251Y-75973600D01*
X39647749Y-75973600D01*
X39491497Y-75958211D01*
X39291009Y-75897393D01*
X39106236Y-75798631D01*
X38944282Y-75665718D01*
X38811369Y-75503764D01*
X38712607Y-75318991D01*
X38651789Y-75118503D01*
X38631254Y-74910000D01*
X38651789Y-74701497D01*
X38712607Y-74501009D01*
X38811369Y-74316236D01*
X38944282Y-74154282D01*
X39106236Y-74021369D01*
X39291009Y-73922607D01*
X39491497Y-73861789D01*
X39647749Y-73846400D01*
X39752251Y-73846400D01*
X39908503Y-73861789D01*
X39908503Y-73861789D01*
G37*
G36*
X90708503Y-73861789D02*
X90908991Y-73922607D01*
X91093764Y-74021369D01*
X91255718Y-74154282D01*
X91388631Y-74316236D01*
X91487393Y-74501009D01*
X91548211Y-74701497D01*
X91568746Y-74910000D01*
X91548211Y-75118503D01*
X91487393Y-75318991D01*
X91388631Y-75503764D01*
X91255718Y-75665718D01*
X91093764Y-75798631D01*
X90908991Y-75897393D01*
X90708503Y-75958211D01*
X90552251Y-75973600D01*
X90447749Y-75973600D01*
X90291497Y-75958211D01*
X90091009Y-75897393D01*
X89906236Y-75798631D01*
X89744282Y-75665718D01*
X89611369Y-75503764D01*
X89512607Y-75318991D01*
X89451789Y-75118503D01*
X89431254Y-74910000D01*
X89451789Y-74701497D01*
X89512607Y-74501009D01*
X89611369Y-74316236D01*
X89744282Y-74154282D01*
X89906236Y-74021369D01*
X90091009Y-73922607D01*
X90291497Y-73861789D01*
X90447749Y-73846400D01*
X90552251Y-73846400D01*
X90708503Y-73861789D01*
X90708503Y-73861789D01*
G37*
G36*
X88168503Y-73861789D02*
X88368991Y-73922607D01*
X88553764Y-74021369D01*
X88715718Y-74154282D01*
X88848631Y-74316236D01*
X88947393Y-74501009D01*
X89008211Y-74701497D01*
X89028746Y-74910000D01*
X89008211Y-75118503D01*
X88947393Y-75318991D01*
X88848631Y-75503764D01*
X88715718Y-75665718D01*
X88553764Y-75798631D01*
X88368991Y-75897393D01*
X88168503Y-75958211D01*
X88012251Y-75973600D01*
X87907749Y-75973600D01*
X87751497Y-75958211D01*
X87551009Y-75897393D01*
X87366236Y-75798631D01*
X87204282Y-75665718D01*
X87071369Y-75503764D01*
X86972607Y-75318991D01*
X86911789Y-75118503D01*
X86891254Y-74910000D01*
X86911789Y-74701497D01*
X86972607Y-74501009D01*
X87071369Y-74316236D01*
X87204282Y-74154282D01*
X87366236Y-74021369D01*
X87551009Y-73922607D01*
X87751497Y-73861789D01*
X87907749Y-73846400D01*
X88012251Y-73846400D01*
X88168503Y-73861789D01*
X88168503Y-73861789D01*
G37*
G36*
X50313530Y-72525877D02*
X50365010Y-72541493D01*
X50412442Y-72566846D01*
X50454027Y-72600973D01*
X50488154Y-72642558D01*
X50513507Y-72689990D01*
X50529123Y-72741470D01*
X50535000Y-72801140D01*
X50535000Y-73688860D01*
X50529123Y-73748530D01*
X50513507Y-73800010D01*
X50488154Y-73847442D01*
X50454027Y-73889027D01*
X50412442Y-73923154D01*
X50365010Y-73948507D01*
X50313530Y-73964123D01*
X50253860Y-73970000D01*
X49466140Y-73970000D01*
X49406470Y-73964123D01*
X49354990Y-73948507D01*
X49307558Y-73923154D01*
X49265973Y-73889027D01*
X49231846Y-73847442D01*
X49206493Y-73800010D01*
X49190877Y-73748530D01*
X49185000Y-73688860D01*
X49185000Y-72801140D01*
X49190877Y-72741470D01*
X49206493Y-72689990D01*
X49231846Y-72642558D01*
X49265973Y-72600973D01*
X49307558Y-72566846D01*
X49354990Y-72541493D01*
X49406470Y-72525877D01*
X49466140Y-72520000D01*
X50253860Y-72520000D01*
X50313530Y-72525877D01*
X50313530Y-72525877D01*
G37*
G36*
X47773530Y-72525877D02*
X47825010Y-72541493D01*
X47872442Y-72566846D01*
X47914027Y-72600973D01*
X47948154Y-72642558D01*
X47973507Y-72689990D01*
X47989123Y-72741470D01*
X47995000Y-72801140D01*
X47995000Y-73688860D01*
X47989123Y-73748530D01*
X47973507Y-73800010D01*
X47948154Y-73847442D01*
X47914027Y-73889027D01*
X47872442Y-73923154D01*
X47825010Y-73948507D01*
X47773530Y-73964123D01*
X47713860Y-73970000D01*
X46926140Y-73970000D01*
X46866470Y-73964123D01*
X46814990Y-73948507D01*
X46767558Y-73923154D01*
X46725973Y-73889027D01*
X46691846Y-73847442D01*
X46666493Y-73800010D01*
X46650877Y-73748530D01*
X46645000Y-73688860D01*
X46645000Y-72801140D01*
X46650877Y-72741470D01*
X46666493Y-72689990D01*
X46691846Y-72642558D01*
X46725973Y-72600973D01*
X46767558Y-72566846D01*
X46814990Y-72541493D01*
X46866470Y-72525877D01*
X46926140Y-72520000D01*
X47713860Y-72520000D01*
X47773530Y-72525877D01*
X47773530Y-72525877D01*
G37*
G36*
X90708503Y-71321789D02*
X90908991Y-71382607D01*
X91093764Y-71481369D01*
X91255718Y-71614282D01*
X91388631Y-71776236D01*
X91487393Y-71961009D01*
X91548211Y-72161497D01*
X91568746Y-72370000D01*
X91548211Y-72578503D01*
X91487393Y-72778991D01*
X91388631Y-72963764D01*
X91255718Y-73125718D01*
X91093764Y-73258631D01*
X90908991Y-73357393D01*
X90708503Y-73418211D01*
X90552251Y-73433600D01*
X90447749Y-73433600D01*
X90291497Y-73418211D01*
X90091009Y-73357393D01*
X89906236Y-73258631D01*
X89744282Y-73125718D01*
X89611369Y-72963764D01*
X89512607Y-72778991D01*
X89451789Y-72578503D01*
X89431254Y-72370000D01*
X89451789Y-72161497D01*
X89512607Y-71961009D01*
X89611369Y-71776236D01*
X89744282Y-71614282D01*
X89906236Y-71481369D01*
X90091009Y-71382607D01*
X90291497Y-71321789D01*
X90447749Y-71306400D01*
X90552251Y-71306400D01*
X90708503Y-71321789D01*
X90708503Y-71321789D01*
G37*
G36*
X39908503Y-71321789D02*
X40108991Y-71382607D01*
X40293764Y-71481369D01*
X40455718Y-71614282D01*
X40588631Y-71776236D01*
X40687393Y-71961009D01*
X40748211Y-72161497D01*
X40768746Y-72370000D01*
X40748211Y-72578503D01*
X40687393Y-72778991D01*
X40588631Y-72963764D01*
X40455718Y-73125718D01*
X40293764Y-73258631D01*
X40108991Y-73357393D01*
X39908503Y-73418211D01*
X39752251Y-73433600D01*
X39647749Y-73433600D01*
X39491497Y-73418211D01*
X39291009Y-73357393D01*
X39106236Y-73258631D01*
X38944282Y-73125718D01*
X38811369Y-72963764D01*
X38712607Y-72778991D01*
X38651789Y-72578503D01*
X38631254Y-72370000D01*
X38651789Y-72161497D01*
X38712607Y-71961009D01*
X38811369Y-71776236D01*
X38944282Y-71614282D01*
X39106236Y-71481369D01*
X39291009Y-71382607D01*
X39491497Y-71321789D01*
X39647749Y-71306400D01*
X39752251Y-71306400D01*
X39908503Y-71321789D01*
X39908503Y-71321789D01*
G37*
G36*
X42448503Y-71321789D02*
X42648991Y-71382607D01*
X42833764Y-71481369D01*
X42995718Y-71614282D01*
X43128631Y-71776236D01*
X43227393Y-71961009D01*
X43288211Y-72161497D01*
X43308746Y-72370000D01*
X43288211Y-72578503D01*
X43227393Y-72778991D01*
X43128631Y-72963764D01*
X42995718Y-73125718D01*
X42833764Y-73258631D01*
X42648991Y-73357393D01*
X42448503Y-73418211D01*
X42292251Y-73433600D01*
X42187749Y-73433600D01*
X42031497Y-73418211D01*
X41831009Y-73357393D01*
X41646236Y-73258631D01*
X41484282Y-73125718D01*
X41351369Y-72963764D01*
X41252607Y-72778991D01*
X41191789Y-72578503D01*
X41171254Y-72370000D01*
X41191789Y-72161497D01*
X41252607Y-71961009D01*
X41351369Y-71776236D01*
X41484282Y-71614282D01*
X41646236Y-71481369D01*
X41831009Y-71382607D01*
X42031497Y-71321789D01*
X42187749Y-71306400D01*
X42292251Y-71306400D01*
X42448503Y-71321789D01*
X42448503Y-71321789D01*
G37*
G36*
X88168503Y-71321789D02*
X88368991Y-71382607D01*
X88553764Y-71481369D01*
X88715718Y-71614282D01*
X88848631Y-71776236D01*
X88947393Y-71961009D01*
X89008211Y-72161497D01*
X89028746Y-72370000D01*
X89008211Y-72578503D01*
X88947393Y-72778991D01*
X88848631Y-72963764D01*
X88715718Y-73125718D01*
X88553764Y-73258631D01*
X88368991Y-73357393D01*
X88168503Y-73418211D01*
X88012251Y-73433600D01*
X87907749Y-73433600D01*
X87751497Y-73418211D01*
X87551009Y-73357393D01*
X87366236Y-73258631D01*
X87204282Y-73125718D01*
X87071369Y-72963764D01*
X86972607Y-72778991D01*
X86911789Y-72578503D01*
X86891254Y-72370000D01*
X86911789Y-72161497D01*
X86972607Y-71961009D01*
X87071369Y-71776236D01*
X87204282Y-71614282D01*
X87366236Y-71481369D01*
X87551009Y-71382607D01*
X87751497Y-71321789D01*
X87907749Y-71306400D01*
X88012251Y-71306400D01*
X88168503Y-71321789D01*
X88168503Y-71321789D01*
G37*
G36*
X47773530Y-70775877D02*
X47825010Y-70791493D01*
X47872442Y-70816846D01*
X47914027Y-70850973D01*
X47948154Y-70892558D01*
X47973507Y-70939990D01*
X47989123Y-70991470D01*
X47995000Y-71051140D01*
X47995000Y-71938860D01*
X47989123Y-71998530D01*
X47973507Y-72050010D01*
X47948154Y-72097442D01*
X47914027Y-72139027D01*
X47872442Y-72173154D01*
X47825010Y-72198507D01*
X47773530Y-72214123D01*
X47713860Y-72220000D01*
X46926140Y-72220000D01*
X46866470Y-72214123D01*
X46814990Y-72198507D01*
X46767558Y-72173154D01*
X46725973Y-72139027D01*
X46691846Y-72097442D01*
X46666493Y-72050010D01*
X46650877Y-71998530D01*
X46645000Y-71938860D01*
X46645000Y-71051140D01*
X46650877Y-70991470D01*
X46666493Y-70939990D01*
X46691846Y-70892558D01*
X46725973Y-70850973D01*
X46767558Y-70816846D01*
X46814990Y-70791493D01*
X46866470Y-70775877D01*
X46926140Y-70770000D01*
X47713860Y-70770000D01*
X47773530Y-70775877D01*
X47773530Y-70775877D01*
G37*
G36*
X50313530Y-70775877D02*
X50365010Y-70791493D01*
X50412442Y-70816846D01*
X50454027Y-70850973D01*
X50488154Y-70892558D01*
X50513507Y-70939990D01*
X50529123Y-70991470D01*
X50535000Y-71051140D01*
X50535000Y-71938860D01*
X50529123Y-71998530D01*
X50513507Y-72050010D01*
X50488154Y-72097442D01*
X50454027Y-72139027D01*
X50412442Y-72173154D01*
X50365010Y-72198507D01*
X50313530Y-72214123D01*
X50253860Y-72220000D01*
X49466140Y-72220000D01*
X49406470Y-72214123D01*
X49354990Y-72198507D01*
X49307558Y-72173154D01*
X49265973Y-72139027D01*
X49231846Y-72097442D01*
X49206493Y-72050010D01*
X49190877Y-71998530D01*
X49185000Y-71938860D01*
X49185000Y-71051140D01*
X49190877Y-70991470D01*
X49206493Y-70939990D01*
X49231846Y-70892558D01*
X49265973Y-70850973D01*
X49307558Y-70816846D01*
X49354990Y-70791493D01*
X49406470Y-70775877D01*
X49466140Y-70770000D01*
X50253860Y-70770000D01*
X50313530Y-70775877D01*
X50313530Y-70775877D01*
G37*
G36*
X42448503Y-68781789D02*
X42648991Y-68842607D01*
X42833764Y-68941369D01*
X42995718Y-69074282D01*
X43128631Y-69236236D01*
X43227393Y-69421009D01*
X43288211Y-69621497D01*
X43308746Y-69830000D01*
X43288211Y-70038503D01*
X43227393Y-70238991D01*
X43128631Y-70423764D01*
X42995718Y-70585718D01*
X42833764Y-70718631D01*
X42648991Y-70817393D01*
X42448503Y-70878211D01*
X42292251Y-70893600D01*
X42187749Y-70893600D01*
X42031497Y-70878211D01*
X41831009Y-70817393D01*
X41646236Y-70718631D01*
X41484282Y-70585718D01*
X41351369Y-70423764D01*
X41252607Y-70238991D01*
X41191789Y-70038503D01*
X41171254Y-69830000D01*
X41191789Y-69621497D01*
X41252607Y-69421009D01*
X41351369Y-69236236D01*
X41484282Y-69074282D01*
X41646236Y-68941369D01*
X41831009Y-68842607D01*
X42031497Y-68781789D01*
X42187749Y-68766400D01*
X42292251Y-68766400D01*
X42448503Y-68781789D01*
X42448503Y-68781789D01*
G37*
G36*
X90708503Y-68781789D02*
X90908991Y-68842607D01*
X91093764Y-68941369D01*
X91255718Y-69074282D01*
X91388631Y-69236236D01*
X91487393Y-69421009D01*
X91548211Y-69621497D01*
X91568746Y-69830000D01*
X91548211Y-70038503D01*
X91487393Y-70238991D01*
X91388631Y-70423764D01*
X91255718Y-70585718D01*
X91093764Y-70718631D01*
X90908991Y-70817393D01*
X90708503Y-70878211D01*
X90552251Y-70893600D01*
X90447749Y-70893600D01*
X90291497Y-70878211D01*
X90091009Y-70817393D01*
X89906236Y-70718631D01*
X89744282Y-70585718D01*
X89611369Y-70423764D01*
X89512607Y-70238991D01*
X89451789Y-70038503D01*
X89431254Y-69830000D01*
X89451789Y-69621497D01*
X89512607Y-69421009D01*
X89611369Y-69236236D01*
X89744282Y-69074282D01*
X89906236Y-68941369D01*
X90091009Y-68842607D01*
X90291497Y-68781789D01*
X90447749Y-68766400D01*
X90552251Y-68766400D01*
X90708503Y-68781789D01*
X90708503Y-68781789D01*
G37*
G36*
X88168503Y-68781789D02*
X88368991Y-68842607D01*
X88553764Y-68941369D01*
X88715718Y-69074282D01*
X88848631Y-69236236D01*
X88947393Y-69421009D01*
X89008211Y-69621497D01*
X89028746Y-69830000D01*
X89008211Y-70038503D01*
X88947393Y-70238991D01*
X88848631Y-70423764D01*
X88715718Y-70585718D01*
X88553764Y-70718631D01*
X88368991Y-70817393D01*
X88168503Y-70878211D01*
X88012251Y-70893600D01*
X87907749Y-70893600D01*
X87751497Y-70878211D01*
X87551009Y-70817393D01*
X87366236Y-70718631D01*
X87204282Y-70585718D01*
X87071369Y-70423764D01*
X86972607Y-70238991D01*
X86911789Y-70038503D01*
X86891254Y-69830000D01*
X86911789Y-69621497D01*
X86972607Y-69421009D01*
X87071369Y-69236236D01*
X87204282Y-69074282D01*
X87366236Y-68941369D01*
X87551009Y-68842607D01*
X87751497Y-68781789D01*
X87907749Y-68766400D01*
X88012251Y-68766400D01*
X88168503Y-68781789D01*
X88168503Y-68781789D01*
G37*
G36*
X39908503Y-68781789D02*
X40108991Y-68842607D01*
X40293764Y-68941369D01*
X40455718Y-69074282D01*
X40588631Y-69236236D01*
X40687393Y-69421009D01*
X40748211Y-69621497D01*
X40768746Y-69830000D01*
X40748211Y-70038503D01*
X40687393Y-70238991D01*
X40588631Y-70423764D01*
X40455718Y-70585718D01*
X40293764Y-70718631D01*
X40108991Y-70817393D01*
X39908503Y-70878211D01*
X39752251Y-70893600D01*
X39647749Y-70893600D01*
X39491497Y-70878211D01*
X39291009Y-70817393D01*
X39106236Y-70718631D01*
X38944282Y-70585718D01*
X38811369Y-70423764D01*
X38712607Y-70238991D01*
X38651789Y-70038503D01*
X38631254Y-69830000D01*
X38651789Y-69621497D01*
X38712607Y-69421009D01*
X38811369Y-69236236D01*
X38944282Y-69074282D01*
X39106236Y-68941369D01*
X39291009Y-68842607D01*
X39491497Y-68781789D01*
X39647749Y-68766400D01*
X39752251Y-68766400D01*
X39908503Y-68781789D01*
X39908503Y-68781789D01*
G37*
G36*
X50313530Y-67445877D02*
X50365010Y-67461493D01*
X50412442Y-67486846D01*
X50454027Y-67520973D01*
X50488154Y-67562558D01*
X50513507Y-67609990D01*
X50529123Y-67661470D01*
X50535000Y-67721140D01*
X50535000Y-68608860D01*
X50529123Y-68668530D01*
X50513507Y-68720010D01*
X50488154Y-68767442D01*
X50454027Y-68809027D01*
X50412442Y-68843154D01*
X50365010Y-68868507D01*
X50313530Y-68884123D01*
X50253860Y-68890000D01*
X49466140Y-68890000D01*
X49406470Y-68884123D01*
X49354990Y-68868507D01*
X49307558Y-68843154D01*
X49265973Y-68809027D01*
X49231846Y-68767442D01*
X49206493Y-68720010D01*
X49190877Y-68668530D01*
X49185000Y-68608860D01*
X49185000Y-67721140D01*
X49190877Y-67661470D01*
X49206493Y-67609990D01*
X49231846Y-67562558D01*
X49265973Y-67520973D01*
X49307558Y-67486846D01*
X49354990Y-67461493D01*
X49406470Y-67445877D01*
X49466140Y-67440000D01*
X50253860Y-67440000D01*
X50313530Y-67445877D01*
X50313530Y-67445877D01*
G37*
G36*
X47773530Y-67445877D02*
X47825010Y-67461493D01*
X47872442Y-67486846D01*
X47914027Y-67520973D01*
X47948154Y-67562558D01*
X47973507Y-67609990D01*
X47989123Y-67661470D01*
X47995000Y-67721140D01*
X47995000Y-68608860D01*
X47989123Y-68668530D01*
X47973507Y-68720010D01*
X47948154Y-68767442D01*
X47914027Y-68809027D01*
X47872442Y-68843154D01*
X47825010Y-68868507D01*
X47773530Y-68884123D01*
X47713860Y-68890000D01*
X46926140Y-68890000D01*
X46866470Y-68884123D01*
X46814990Y-68868507D01*
X46767558Y-68843154D01*
X46725973Y-68809027D01*
X46691846Y-68767442D01*
X46666493Y-68720010D01*
X46650877Y-68668530D01*
X46645000Y-68608860D01*
X46645000Y-67721140D01*
X46650877Y-67661470D01*
X46666493Y-67609990D01*
X46691846Y-67562558D01*
X46725973Y-67520973D01*
X46767558Y-67486846D01*
X46814990Y-67461493D01*
X46866470Y-67445877D01*
X46926140Y-67440000D01*
X47713860Y-67440000D01*
X47773530Y-67445877D01*
X47773530Y-67445877D01*
G37*
G36*
X39908503Y-66241789D02*
X40108991Y-66302607D01*
X40293764Y-66401369D01*
X40455718Y-66534282D01*
X40588631Y-66696236D01*
X40687393Y-66881009D01*
X40748211Y-67081497D01*
X40768746Y-67290000D01*
X40748211Y-67498503D01*
X40687393Y-67698991D01*
X40588631Y-67883764D01*
X40455718Y-68045718D01*
X40293764Y-68178631D01*
X40108991Y-68277393D01*
X39908503Y-68338211D01*
X39752251Y-68353600D01*
X39647749Y-68353600D01*
X39491497Y-68338211D01*
X39291009Y-68277393D01*
X39106236Y-68178631D01*
X38944282Y-68045718D01*
X38811369Y-67883764D01*
X38712607Y-67698991D01*
X38651789Y-67498503D01*
X38631254Y-67290000D01*
X38651789Y-67081497D01*
X38712607Y-66881009D01*
X38811369Y-66696236D01*
X38944282Y-66534282D01*
X39106236Y-66401369D01*
X39291009Y-66302607D01*
X39491497Y-66241789D01*
X39647749Y-66226400D01*
X39752251Y-66226400D01*
X39908503Y-66241789D01*
X39908503Y-66241789D01*
G37*
G36*
X90708503Y-66241789D02*
X90908991Y-66302607D01*
X91093764Y-66401369D01*
X91255718Y-66534282D01*
X91388631Y-66696236D01*
X91487393Y-66881009D01*
X91548211Y-67081497D01*
X91568746Y-67290000D01*
X91548211Y-67498503D01*
X91487393Y-67698991D01*
X91388631Y-67883764D01*
X91255718Y-68045718D01*
X91093764Y-68178631D01*
X90908991Y-68277393D01*
X90708503Y-68338211D01*
X90552251Y-68353600D01*
X90447749Y-68353600D01*
X90291497Y-68338211D01*
X90091009Y-68277393D01*
X89906236Y-68178631D01*
X89744282Y-68045718D01*
X89611369Y-67883764D01*
X89512607Y-67698991D01*
X89451789Y-67498503D01*
X89431254Y-67290000D01*
X89451789Y-67081497D01*
X89512607Y-66881009D01*
X89611369Y-66696236D01*
X89744282Y-66534282D01*
X89906236Y-66401369D01*
X90091009Y-66302607D01*
X90291497Y-66241789D01*
X90447749Y-66226400D01*
X90552251Y-66226400D01*
X90708503Y-66241789D01*
X90708503Y-66241789D01*
G37*
G36*
X42448503Y-66241789D02*
X42648991Y-66302607D01*
X42833764Y-66401369D01*
X42995718Y-66534282D01*
X43128631Y-66696236D01*
X43227393Y-66881009D01*
X43288211Y-67081497D01*
X43308746Y-67290000D01*
X43288211Y-67498503D01*
X43227393Y-67698991D01*
X43128631Y-67883764D01*
X42995718Y-68045718D01*
X42833764Y-68178631D01*
X42648991Y-68277393D01*
X42448503Y-68338211D01*
X42292251Y-68353600D01*
X42187749Y-68353600D01*
X42031497Y-68338211D01*
X41831009Y-68277393D01*
X41646236Y-68178631D01*
X41484282Y-68045718D01*
X41351369Y-67883764D01*
X41252607Y-67698991D01*
X41191789Y-67498503D01*
X41171254Y-67290000D01*
X41191789Y-67081497D01*
X41252607Y-66881009D01*
X41351369Y-66696236D01*
X41484282Y-66534282D01*
X41646236Y-66401369D01*
X41831009Y-66302607D01*
X42031497Y-66241789D01*
X42187749Y-66226400D01*
X42292251Y-66226400D01*
X42448503Y-66241789D01*
X42448503Y-66241789D01*
G37*
G36*
X88168503Y-66241789D02*
X88368991Y-66302607D01*
X88553764Y-66401369D01*
X88715718Y-66534282D01*
X88848631Y-66696236D01*
X88947393Y-66881009D01*
X89008211Y-67081497D01*
X89028746Y-67290000D01*
X89008211Y-67498503D01*
X88947393Y-67698991D01*
X88848631Y-67883764D01*
X88715718Y-68045718D01*
X88553764Y-68178631D01*
X88368991Y-68277393D01*
X88168503Y-68338211D01*
X88012251Y-68353600D01*
X87907749Y-68353600D01*
X87751497Y-68338211D01*
X87551009Y-68277393D01*
X87366236Y-68178631D01*
X87204282Y-68045718D01*
X87071369Y-67883764D01*
X86972607Y-67698991D01*
X86911789Y-67498503D01*
X86891254Y-67290000D01*
X86911789Y-67081497D01*
X86972607Y-66881009D01*
X87071369Y-66696236D01*
X87204282Y-66534282D01*
X87366236Y-66401369D01*
X87551009Y-66302607D01*
X87751497Y-66241789D01*
X87907749Y-66226400D01*
X88012251Y-66226400D01*
X88168503Y-66241789D01*
X88168503Y-66241789D01*
G37*
G36*
X121482872Y-64616252D02*
X121796619Y-64746210D01*
X122078989Y-64934884D01*
X122319116Y-65175011D01*
X122507790Y-65457381D01*
X122637748Y-65771128D01*
X122704000Y-66104199D01*
X122704000Y-66443801D01*
X122637748Y-66776872D01*
X122507790Y-67090619D01*
X122319116Y-67372989D01*
X122078989Y-67613116D01*
X121796619Y-67801790D01*
X121482872Y-67931748D01*
X121149801Y-67998000D01*
X120810199Y-67998000D01*
X120477128Y-67931748D01*
X120163381Y-67801790D01*
X119881011Y-67613116D01*
X119640884Y-67372989D01*
X119452210Y-67090619D01*
X119322252Y-66776872D01*
X119256000Y-66443801D01*
X119256000Y-66104199D01*
X119322252Y-65771128D01*
X119452210Y-65457381D01*
X119640884Y-65175011D01*
X119881011Y-64934884D01*
X120163381Y-64746210D01*
X120477128Y-64616252D01*
X120810199Y-64550000D01*
X121149801Y-64550000D01*
X121482872Y-64616252D01*
X121482872Y-64616252D01*
G37*
G36*
X101162872Y-64616252D02*
X101476619Y-64746210D01*
X101758989Y-64934884D01*
X101999116Y-65175011D01*
X102187790Y-65457381D01*
X102317748Y-65771128D01*
X102384000Y-66104199D01*
X102384000Y-66443801D01*
X102317748Y-66776872D01*
X102187790Y-67090619D01*
X101999116Y-67372989D01*
X101758989Y-67613116D01*
X101476619Y-67801790D01*
X101162872Y-67931748D01*
X100829801Y-67998000D01*
X100490199Y-67998000D01*
X100157128Y-67931748D01*
X99843381Y-67801790D01*
X99561011Y-67613116D01*
X99320884Y-67372989D01*
X99132210Y-67090619D01*
X99002252Y-66776872D01*
X98936000Y-66443801D01*
X98936000Y-66104199D01*
X99002252Y-65771128D01*
X99132210Y-65457381D01*
X99320884Y-65175011D01*
X99561011Y-64934884D01*
X99843381Y-64746210D01*
X100157128Y-64616252D01*
X100490199Y-64550000D01*
X100829801Y-64550000D01*
X101162872Y-64616252D01*
X101162872Y-64616252D01*
G37*
G36*
X50313530Y-65695877D02*
X50365010Y-65711493D01*
X50412442Y-65736846D01*
X50454027Y-65770973D01*
X50488154Y-65812558D01*
X50513507Y-65859990D01*
X50529123Y-65911470D01*
X50535000Y-65971140D01*
X50535000Y-66858860D01*
X50529123Y-66918530D01*
X50513507Y-66970010D01*
X50488154Y-67017442D01*
X50454027Y-67059027D01*
X50412442Y-67093154D01*
X50365010Y-67118507D01*
X50313530Y-67134123D01*
X50253860Y-67140000D01*
X49466140Y-67140000D01*
X49406470Y-67134123D01*
X49354990Y-67118507D01*
X49307558Y-67093154D01*
X49265973Y-67059027D01*
X49231846Y-67017442D01*
X49206493Y-66970010D01*
X49190877Y-66918530D01*
X49185000Y-66858860D01*
X49185000Y-65971140D01*
X49190877Y-65911470D01*
X49206493Y-65859990D01*
X49231846Y-65812558D01*
X49265973Y-65770973D01*
X49307558Y-65736846D01*
X49354990Y-65711493D01*
X49406470Y-65695877D01*
X49466140Y-65690000D01*
X50253860Y-65690000D01*
X50313530Y-65695877D01*
X50313530Y-65695877D01*
G37*
G36*
X47773530Y-65695877D02*
X47825010Y-65711493D01*
X47872442Y-65736846D01*
X47914027Y-65770973D01*
X47948154Y-65812558D01*
X47973507Y-65859990D01*
X47989123Y-65911470D01*
X47995000Y-65971140D01*
X47995000Y-66858860D01*
X47989123Y-66918530D01*
X47973507Y-66970010D01*
X47948154Y-67017442D01*
X47914027Y-67059027D01*
X47872442Y-67093154D01*
X47825010Y-67118507D01*
X47773530Y-67134123D01*
X47713860Y-67140000D01*
X46926140Y-67140000D01*
X46866470Y-67134123D01*
X46814990Y-67118507D01*
X46767558Y-67093154D01*
X46725973Y-67059027D01*
X46691846Y-67017442D01*
X46666493Y-66970010D01*
X46650877Y-66918530D01*
X46645000Y-66858860D01*
X46645000Y-65971140D01*
X46650877Y-65911470D01*
X46666493Y-65859990D01*
X46691846Y-65812558D01*
X46725973Y-65770973D01*
X46767558Y-65736846D01*
X46814990Y-65711493D01*
X46866470Y-65695877D01*
X46926140Y-65690000D01*
X47713860Y-65690000D01*
X47773530Y-65695877D01*
X47773530Y-65695877D01*
G37*
G36*
X88168503Y-63701789D02*
X88368991Y-63762607D01*
X88553764Y-63861369D01*
X88715718Y-63994282D01*
X88848631Y-64156236D01*
X88947393Y-64341009D01*
X89008211Y-64541497D01*
X89028746Y-64750000D01*
X89008211Y-64958503D01*
X88947393Y-65158991D01*
X88848631Y-65343764D01*
X88715718Y-65505718D01*
X88553764Y-65638631D01*
X88368991Y-65737393D01*
X88168503Y-65798211D01*
X88012251Y-65813600D01*
X87907749Y-65813600D01*
X87751497Y-65798211D01*
X87551009Y-65737393D01*
X87366236Y-65638631D01*
X87204282Y-65505718D01*
X87071369Y-65343764D01*
X86972607Y-65158991D01*
X86911789Y-64958503D01*
X86891254Y-64750000D01*
X86911789Y-64541497D01*
X86972607Y-64341009D01*
X87071369Y-64156236D01*
X87204282Y-63994282D01*
X87366236Y-63861369D01*
X87551009Y-63762607D01*
X87751497Y-63701789D01*
X87907749Y-63686400D01*
X88012251Y-63686400D01*
X88168503Y-63701789D01*
X88168503Y-63701789D01*
G37*
G36*
X90708503Y-63701789D02*
X90908991Y-63762607D01*
X91093764Y-63861369D01*
X91255718Y-63994282D01*
X91388631Y-64156236D01*
X91487393Y-64341009D01*
X91548211Y-64541497D01*
X91568746Y-64750000D01*
X91548211Y-64958503D01*
X91487393Y-65158991D01*
X91388631Y-65343764D01*
X91255718Y-65505718D01*
X91093764Y-65638631D01*
X90908991Y-65737393D01*
X90708503Y-65798211D01*
X90552251Y-65813600D01*
X90447749Y-65813600D01*
X90291497Y-65798211D01*
X90091009Y-65737393D01*
X89906236Y-65638631D01*
X89744282Y-65505718D01*
X89611369Y-65343764D01*
X89512607Y-65158991D01*
X89451789Y-64958503D01*
X89431254Y-64750000D01*
X89451789Y-64541497D01*
X89512607Y-64341009D01*
X89611369Y-64156236D01*
X89744282Y-63994282D01*
X89906236Y-63861369D01*
X90091009Y-63762607D01*
X90291497Y-63701789D01*
X90447749Y-63686400D01*
X90552251Y-63686400D01*
X90708503Y-63701789D01*
X90708503Y-63701789D01*
G37*
G36*
X42448503Y-63701789D02*
X42648991Y-63762607D01*
X42833764Y-63861369D01*
X42995718Y-63994282D01*
X43128631Y-64156236D01*
X43227393Y-64341009D01*
X43288211Y-64541497D01*
X43308746Y-64750000D01*
X43288211Y-64958503D01*
X43227393Y-65158991D01*
X43128631Y-65343764D01*
X42995718Y-65505718D01*
X42833764Y-65638631D01*
X42648991Y-65737393D01*
X42448503Y-65798211D01*
X42292251Y-65813600D01*
X42187749Y-65813600D01*
X42031497Y-65798211D01*
X41831009Y-65737393D01*
X41646236Y-65638631D01*
X41484282Y-65505718D01*
X41351369Y-65343764D01*
X41252607Y-65158991D01*
X41191789Y-64958503D01*
X41171254Y-64750000D01*
X41191789Y-64541497D01*
X41252607Y-64341009D01*
X41351369Y-64156236D01*
X41484282Y-63994282D01*
X41646236Y-63861369D01*
X41831009Y-63762607D01*
X42031497Y-63701789D01*
X42187749Y-63686400D01*
X42292251Y-63686400D01*
X42448503Y-63701789D01*
X42448503Y-63701789D01*
G37*
G36*
X39908503Y-63701789D02*
X40108991Y-63762607D01*
X40293764Y-63861369D01*
X40455718Y-63994282D01*
X40588631Y-64156236D01*
X40687393Y-64341009D01*
X40748211Y-64541497D01*
X40768746Y-64750000D01*
X40748211Y-64958503D01*
X40687393Y-65158991D01*
X40588631Y-65343764D01*
X40455718Y-65505718D01*
X40293764Y-65638631D01*
X40108991Y-65737393D01*
X39908503Y-65798211D01*
X39752251Y-65813600D01*
X39647749Y-65813600D01*
X39491497Y-65798211D01*
X39291009Y-65737393D01*
X39106236Y-65638631D01*
X38944282Y-65505718D01*
X38811369Y-65343764D01*
X38712607Y-65158991D01*
X38651789Y-64958503D01*
X38631254Y-64750000D01*
X38651789Y-64541497D01*
X38712607Y-64341009D01*
X38811369Y-64156236D01*
X38944282Y-63994282D01*
X39106236Y-63861369D01*
X39291009Y-63762607D01*
X39491497Y-63701789D01*
X39647749Y-63686400D01*
X39752251Y-63686400D01*
X39908503Y-63701789D01*
X39908503Y-63701789D01*
G37*
G36*
X90708503Y-61161789D02*
X90908991Y-61222607D01*
X91093764Y-61321369D01*
X91255718Y-61454282D01*
X91388631Y-61616236D01*
X91487393Y-61801009D01*
X91548211Y-62001497D01*
X91568746Y-62210000D01*
X91548211Y-62418503D01*
X91487393Y-62618991D01*
X91388631Y-62803764D01*
X91255718Y-62965718D01*
X91093764Y-63098631D01*
X90908991Y-63197393D01*
X90708503Y-63258211D01*
X90552251Y-63273600D01*
X90447749Y-63273600D01*
X90291497Y-63258211D01*
X90091009Y-63197393D01*
X89906236Y-63098631D01*
X89744282Y-62965718D01*
X89611369Y-62803764D01*
X89512607Y-62618991D01*
X89451789Y-62418503D01*
X89431254Y-62210000D01*
X89451789Y-62001497D01*
X89512607Y-61801009D01*
X89611369Y-61616236D01*
X89744282Y-61454282D01*
X89906236Y-61321369D01*
X90091009Y-61222607D01*
X90291497Y-61161789D01*
X90447749Y-61146400D01*
X90552251Y-61146400D01*
X90708503Y-61161789D01*
X90708503Y-61161789D01*
G37*
G36*
X88168503Y-61161789D02*
X88368991Y-61222607D01*
X88553764Y-61321369D01*
X88715718Y-61454282D01*
X88848631Y-61616236D01*
X88947393Y-61801009D01*
X89008211Y-62001497D01*
X89028746Y-62210000D01*
X89008211Y-62418503D01*
X88947393Y-62618991D01*
X88848631Y-62803764D01*
X88715718Y-62965718D01*
X88553764Y-63098631D01*
X88368991Y-63197393D01*
X88168503Y-63258211D01*
X88012251Y-63273600D01*
X87907749Y-63273600D01*
X87751497Y-63258211D01*
X87551009Y-63197393D01*
X87366236Y-63098631D01*
X87204282Y-62965718D01*
X87071369Y-62803764D01*
X86972607Y-62618991D01*
X86911789Y-62418503D01*
X86891254Y-62210000D01*
X86911789Y-62001497D01*
X86972607Y-61801009D01*
X87071369Y-61616236D01*
X87204282Y-61454282D01*
X87366236Y-61321369D01*
X87551009Y-61222607D01*
X87751497Y-61161789D01*
X87907749Y-61146400D01*
X88012251Y-61146400D01*
X88168503Y-61161789D01*
X88168503Y-61161789D01*
G37*
G36*
X42448503Y-61161789D02*
X42648991Y-61222607D01*
X42833764Y-61321369D01*
X42995718Y-61454282D01*
X43128631Y-61616236D01*
X43227393Y-61801009D01*
X43288211Y-62001497D01*
X43308746Y-62210000D01*
X43288211Y-62418503D01*
X43227393Y-62618991D01*
X43128631Y-62803764D01*
X42995718Y-62965718D01*
X42833764Y-63098631D01*
X42648991Y-63197393D01*
X42448503Y-63258211D01*
X42292251Y-63273600D01*
X42187749Y-63273600D01*
X42031497Y-63258211D01*
X41831009Y-63197393D01*
X41646236Y-63098631D01*
X41484282Y-62965718D01*
X41351369Y-62803764D01*
X41252607Y-62618991D01*
X41191789Y-62418503D01*
X41171254Y-62210000D01*
X41191789Y-62001497D01*
X41252607Y-61801009D01*
X41351369Y-61616236D01*
X41484282Y-61454282D01*
X41646236Y-61321369D01*
X41831009Y-61222607D01*
X42031497Y-61161789D01*
X42187749Y-61146400D01*
X42292251Y-61146400D01*
X42448503Y-61161789D01*
X42448503Y-61161789D01*
G37*
G36*
X39908503Y-61161789D02*
X40108991Y-61222607D01*
X40293764Y-61321369D01*
X40455718Y-61454282D01*
X40588631Y-61616236D01*
X40687393Y-61801009D01*
X40748211Y-62001497D01*
X40768746Y-62210000D01*
X40748211Y-62418503D01*
X40687393Y-62618991D01*
X40588631Y-62803764D01*
X40455718Y-62965718D01*
X40293764Y-63098631D01*
X40108991Y-63197393D01*
X39908503Y-63258211D01*
X39752251Y-63273600D01*
X39647749Y-63273600D01*
X39491497Y-63258211D01*
X39291009Y-63197393D01*
X39106236Y-63098631D01*
X38944282Y-62965718D01*
X38811369Y-62803764D01*
X38712607Y-62618991D01*
X38651789Y-62418503D01*
X38631254Y-62210000D01*
X38651789Y-62001497D01*
X38712607Y-61801009D01*
X38811369Y-61616236D01*
X38944282Y-61454282D01*
X39106236Y-61321369D01*
X39291009Y-61222607D01*
X39491497Y-61161789D01*
X39647749Y-61146400D01*
X39752251Y-61146400D01*
X39908503Y-61161789D01*
X39908503Y-61161789D01*
G37*
G36*
X42448503Y-58621789D02*
X42648991Y-58682607D01*
X42833764Y-58781369D01*
X42995718Y-58914282D01*
X43128631Y-59076236D01*
X43227393Y-59261009D01*
X43288211Y-59461497D01*
X43308746Y-59670000D01*
X43288211Y-59878503D01*
X43227393Y-60078991D01*
X43128631Y-60263764D01*
X42995718Y-60425718D01*
X42833764Y-60558631D01*
X42648991Y-60657393D01*
X42448503Y-60718211D01*
X42292251Y-60733600D01*
X42187749Y-60733600D01*
X42031497Y-60718211D01*
X41831009Y-60657393D01*
X41646236Y-60558631D01*
X41484282Y-60425718D01*
X41351369Y-60263764D01*
X41252607Y-60078991D01*
X41191789Y-59878503D01*
X41171254Y-59670000D01*
X41191789Y-59461497D01*
X41252607Y-59261009D01*
X41351369Y-59076236D01*
X41484282Y-58914282D01*
X41646236Y-58781369D01*
X41831009Y-58682607D01*
X42031497Y-58621789D01*
X42187749Y-58606400D01*
X42292251Y-58606400D01*
X42448503Y-58621789D01*
X42448503Y-58621789D01*
G37*
G36*
X90708503Y-58621789D02*
X90908991Y-58682607D01*
X91093764Y-58781369D01*
X91255718Y-58914282D01*
X91388631Y-59076236D01*
X91487393Y-59261009D01*
X91548211Y-59461497D01*
X91568746Y-59670000D01*
X91548211Y-59878503D01*
X91487393Y-60078991D01*
X91388631Y-60263764D01*
X91255718Y-60425718D01*
X91093764Y-60558631D01*
X90908991Y-60657393D01*
X90708503Y-60718211D01*
X90552251Y-60733600D01*
X90447749Y-60733600D01*
X90291497Y-60718211D01*
X90091009Y-60657393D01*
X89906236Y-60558631D01*
X89744282Y-60425718D01*
X89611369Y-60263764D01*
X89512607Y-60078991D01*
X89451789Y-59878503D01*
X89431254Y-59670000D01*
X89451789Y-59461497D01*
X89512607Y-59261009D01*
X89611369Y-59076236D01*
X89744282Y-58914282D01*
X89906236Y-58781369D01*
X90091009Y-58682607D01*
X90291497Y-58621789D01*
X90447749Y-58606400D01*
X90552251Y-58606400D01*
X90708503Y-58621789D01*
X90708503Y-58621789D01*
G37*
G36*
X39908503Y-58621789D02*
X40108991Y-58682607D01*
X40293764Y-58781369D01*
X40455718Y-58914282D01*
X40588631Y-59076236D01*
X40687393Y-59261009D01*
X40748211Y-59461497D01*
X40768746Y-59670000D01*
X40748211Y-59878503D01*
X40687393Y-60078991D01*
X40588631Y-60263764D01*
X40455718Y-60425718D01*
X40293764Y-60558631D01*
X40108991Y-60657393D01*
X39908503Y-60718211D01*
X39752251Y-60733600D01*
X39647749Y-60733600D01*
X39491497Y-60718211D01*
X39291009Y-60657393D01*
X39106236Y-60558631D01*
X38944282Y-60425718D01*
X38811369Y-60263764D01*
X38712607Y-60078991D01*
X38651789Y-59878503D01*
X38631254Y-59670000D01*
X38651789Y-59461497D01*
X38712607Y-59261009D01*
X38811369Y-59076236D01*
X38944282Y-58914282D01*
X39106236Y-58781369D01*
X39291009Y-58682607D01*
X39491497Y-58621789D01*
X39647749Y-58606400D01*
X39752251Y-58606400D01*
X39908503Y-58621789D01*
X39908503Y-58621789D01*
G37*
G36*
X88168503Y-58621789D02*
X88368991Y-58682607D01*
X88553764Y-58781369D01*
X88715718Y-58914282D01*
X88848631Y-59076236D01*
X88947393Y-59261009D01*
X89008211Y-59461497D01*
X89028746Y-59670000D01*
X89008211Y-59878503D01*
X88947393Y-60078991D01*
X88848631Y-60263764D01*
X88715718Y-60425718D01*
X88553764Y-60558631D01*
X88368991Y-60657393D01*
X88168503Y-60718211D01*
X88012251Y-60733600D01*
X87907749Y-60733600D01*
X87751497Y-60718211D01*
X87551009Y-60657393D01*
X87366236Y-60558631D01*
X87204282Y-60425718D01*
X87071369Y-60263764D01*
X86972607Y-60078991D01*
X86911789Y-59878503D01*
X86891254Y-59670000D01*
X86911789Y-59461497D01*
X86972607Y-59261009D01*
X87071369Y-59076236D01*
X87204282Y-58914282D01*
X87366236Y-58781369D01*
X87551009Y-58682607D01*
X87751497Y-58621789D01*
X87907749Y-58606400D01*
X88012251Y-58606400D01*
X88168503Y-58621789D01*
X88168503Y-58621789D01*
G37*
G36*
X110414000Y-60295000D02*
X104114000Y-60295000D01*
X104114000Y-57445000D01*
X110414000Y-57445000D01*
X110414000Y-60295000D01*
X110414000Y-60295000D01*
G37*
G36*
X118173529Y-56105000D02*
X118300872Y-56130330D01*
X118610252Y-56258479D01*
X118888687Y-56444523D01*
X119125477Y-56681313D01*
X119311521Y-56959748D01*
X119439670Y-57269128D01*
X119461447Y-57378607D01*
X119505000Y-57597563D01*
X119505000Y-57932437D01*
X119475648Y-58080000D01*
X119439670Y-58260872D01*
X119311521Y-58570252D01*
X119125477Y-58848687D01*
X118888687Y-59085477D01*
X118610252Y-59271521D01*
X118300872Y-59399670D01*
X118191393Y-59421447D01*
X117972437Y-59465000D01*
X117637563Y-59465000D01*
X117418607Y-59421447D01*
X117309128Y-59399670D01*
X116999748Y-59271521D01*
X116721313Y-59085477D01*
X116484523Y-58848687D01*
X116298479Y-58570252D01*
X116170330Y-58260872D01*
X116134352Y-58080000D01*
X116105000Y-57932437D01*
X116105000Y-57597563D01*
X116148553Y-57378607D01*
X116170330Y-57269128D01*
X116298479Y-56959748D01*
X116484523Y-56681313D01*
X116721313Y-56444523D01*
X116999748Y-56258479D01*
X117309128Y-56130330D01*
X117436471Y-56105000D01*
X117637563Y-56065000D01*
X117972437Y-56065000D01*
X118173529Y-56105000D01*
X118173529Y-56105000D01*
G37*
G36*
X103507000Y-59155000D02*
X100607000Y-59155000D01*
X100607000Y-56755000D01*
X103507000Y-56755000D01*
X103507000Y-59155000D01*
X103507000Y-59155000D01*
G37*
G36*
X48040000Y-58200000D02*
X45940000Y-58200000D01*
X45940000Y-56100000D01*
X48040000Y-56100000D01*
X48040000Y-58200000D01*
X48040000Y-58200000D01*
G37*
G36*
X42448503Y-56081789D02*
X42648991Y-56142607D01*
X42833764Y-56241369D01*
X42995718Y-56374282D01*
X43128631Y-56536236D01*
X43227393Y-56721009D01*
X43288211Y-56921497D01*
X43308746Y-57130000D01*
X43288211Y-57338503D01*
X43227393Y-57538991D01*
X43128631Y-57723764D01*
X42995718Y-57885718D01*
X42833764Y-58018631D01*
X42648991Y-58117393D01*
X42448503Y-58178211D01*
X42292251Y-58193600D01*
X42187749Y-58193600D01*
X42031497Y-58178211D01*
X41831009Y-58117393D01*
X41646236Y-58018631D01*
X41484282Y-57885718D01*
X41351369Y-57723764D01*
X41252607Y-57538991D01*
X41191789Y-57338503D01*
X41171254Y-57130000D01*
X41191789Y-56921497D01*
X41252607Y-56721009D01*
X41351369Y-56536236D01*
X41484282Y-56374282D01*
X41646236Y-56241369D01*
X41831009Y-56142607D01*
X42031497Y-56081789D01*
X42187749Y-56066400D01*
X42292251Y-56066400D01*
X42448503Y-56081789D01*
X42448503Y-56081789D01*
G37*
G36*
X88168503Y-56081789D02*
X88368991Y-56142607D01*
X88553764Y-56241369D01*
X88715718Y-56374282D01*
X88848631Y-56536236D01*
X88947393Y-56721009D01*
X89008211Y-56921497D01*
X89028746Y-57130000D01*
X89008211Y-57338503D01*
X88947393Y-57538991D01*
X88848631Y-57723764D01*
X88715718Y-57885718D01*
X88553764Y-58018631D01*
X88368991Y-58117393D01*
X88168503Y-58178211D01*
X88012251Y-58193600D01*
X87907749Y-58193600D01*
X87751497Y-58178211D01*
X87551009Y-58117393D01*
X87366236Y-58018631D01*
X87204282Y-57885718D01*
X87071369Y-57723764D01*
X86972607Y-57538991D01*
X86911789Y-57338503D01*
X86891254Y-57130000D01*
X86911789Y-56921497D01*
X86972607Y-56721009D01*
X87071369Y-56536236D01*
X87204282Y-56374282D01*
X87366236Y-56241369D01*
X87551009Y-56142607D01*
X87751497Y-56081789D01*
X87907749Y-56066400D01*
X88012251Y-56066400D01*
X88168503Y-56081789D01*
X88168503Y-56081789D01*
G37*
G36*
X90708503Y-56081789D02*
X90908991Y-56142607D01*
X91093764Y-56241369D01*
X91255718Y-56374282D01*
X91388631Y-56536236D01*
X91487393Y-56721009D01*
X91548211Y-56921497D01*
X91568746Y-57130000D01*
X91548211Y-57338503D01*
X91487393Y-57538991D01*
X91388631Y-57723764D01*
X91255718Y-57885718D01*
X91093764Y-58018631D01*
X90908991Y-58117393D01*
X90708503Y-58178211D01*
X90552251Y-58193600D01*
X90447749Y-58193600D01*
X90291497Y-58178211D01*
X90091009Y-58117393D01*
X89906236Y-58018631D01*
X89744282Y-57885718D01*
X89611369Y-57723764D01*
X89512607Y-57538991D01*
X89451789Y-57338503D01*
X89431254Y-57130000D01*
X89451789Y-56921497D01*
X89512607Y-56721009D01*
X89611369Y-56536236D01*
X89744282Y-56374282D01*
X89906236Y-56241369D01*
X90091009Y-56142607D01*
X90291497Y-56081789D01*
X90447749Y-56066400D01*
X90552251Y-56066400D01*
X90708503Y-56081789D01*
X90708503Y-56081789D01*
G37*
G36*
X39908503Y-56081789D02*
X40108991Y-56142607D01*
X40293764Y-56241369D01*
X40455718Y-56374282D01*
X40588631Y-56536236D01*
X40687393Y-56721009D01*
X40748211Y-56921497D01*
X40768746Y-57130000D01*
X40748211Y-57338503D01*
X40687393Y-57538991D01*
X40588631Y-57723764D01*
X40455718Y-57885718D01*
X40293764Y-58018631D01*
X40108991Y-58117393D01*
X39908503Y-58178211D01*
X39752251Y-58193600D01*
X39647749Y-58193600D01*
X39491497Y-58178211D01*
X39291009Y-58117393D01*
X39106236Y-58018631D01*
X38944282Y-57885718D01*
X38811369Y-57723764D01*
X38712607Y-57538991D01*
X38651789Y-57338503D01*
X38631254Y-57130000D01*
X38651789Y-56921497D01*
X38712607Y-56721009D01*
X38811369Y-56536236D01*
X38944282Y-56374282D01*
X39106236Y-56241369D01*
X39291009Y-56142607D01*
X39491497Y-56081789D01*
X39647749Y-56066400D01*
X39752251Y-56066400D01*
X39908503Y-56081789D01*
X39908503Y-56081789D01*
G37*
G36*
X64985452Y-56189127D02*
X65123105Y-56216508D01*
X65295994Y-56288121D01*
X65451590Y-56392087D01*
X65583913Y-56524410D01*
X65687879Y-56680006D01*
X65759492Y-56852895D01*
X65796000Y-57036433D01*
X65796000Y-57223567D01*
X65759492Y-57407105D01*
X65687879Y-57579994D01*
X65583913Y-57735590D01*
X65451590Y-57867913D01*
X65295994Y-57971879D01*
X65123105Y-58043492D01*
X64985452Y-58070873D01*
X64939568Y-58080000D01*
X64752432Y-58080000D01*
X64706548Y-58070873D01*
X64568895Y-58043492D01*
X64396006Y-57971879D01*
X64240410Y-57867913D01*
X64108087Y-57735590D01*
X64004121Y-57579994D01*
X63932508Y-57407105D01*
X63896000Y-57223567D01*
X63896000Y-57036433D01*
X63932508Y-56852895D01*
X64004121Y-56680006D01*
X64108087Y-56524410D01*
X64240410Y-56392087D01*
X64396006Y-56288121D01*
X64568895Y-56216508D01*
X64706548Y-56189127D01*
X64752432Y-56180000D01*
X64939568Y-56180000D01*
X64985452Y-56189127D01*
X64985452Y-56189127D01*
G37*
G36*
X78696000Y-57880000D02*
X76396000Y-57880000D01*
X76396000Y-56380000D01*
X78696000Y-56380000D01*
X78696000Y-57880000D01*
X78696000Y-57880000D01*
G37*
G36*
X81809530Y-56410877D02*
X81861010Y-56426493D01*
X81908442Y-56451846D01*
X81950027Y-56485973D01*
X81984154Y-56527558D01*
X82009507Y-56574990D01*
X82025123Y-56626470D01*
X82031000Y-56686140D01*
X82031000Y-57573860D01*
X82025123Y-57633530D01*
X82009507Y-57685010D01*
X81984154Y-57732442D01*
X81950027Y-57774027D01*
X81908442Y-57808154D01*
X81861010Y-57833507D01*
X81809530Y-57849123D01*
X81749860Y-57855000D01*
X80962140Y-57855000D01*
X80902470Y-57849123D01*
X80850990Y-57833507D01*
X80803558Y-57808154D01*
X80761973Y-57774027D01*
X80727846Y-57732442D01*
X80702493Y-57685010D01*
X80686877Y-57633530D01*
X80681000Y-57573860D01*
X80681000Y-56686140D01*
X80686877Y-56626470D01*
X80702493Y-56574990D01*
X80727846Y-56527558D01*
X80761973Y-56485973D01*
X80803558Y-56451846D01*
X80850990Y-56426493D01*
X80902470Y-56410877D01*
X80962140Y-56405000D01*
X81749860Y-56405000D01*
X81809530Y-56410877D01*
X81809530Y-56410877D01*
G37*
G36*
X71939530Y-55190877D02*
X71991010Y-55206493D01*
X72038442Y-55231846D01*
X72080027Y-55265973D01*
X72114154Y-55307558D01*
X72139507Y-55354990D01*
X72155123Y-55406470D01*
X72161000Y-55466140D01*
X72161000Y-56253860D01*
X72155123Y-56313530D01*
X72139507Y-56365010D01*
X72114154Y-56412442D01*
X72080027Y-56454027D01*
X72038442Y-56488154D01*
X71991010Y-56513507D01*
X71939530Y-56529123D01*
X71879860Y-56535000D01*
X70992140Y-56535000D01*
X70932470Y-56529123D01*
X70880990Y-56513507D01*
X70833558Y-56488154D01*
X70791973Y-56454027D01*
X70757846Y-56412442D01*
X70732493Y-56365010D01*
X70716877Y-56313530D01*
X70711000Y-56253860D01*
X70711000Y-55466140D01*
X70716877Y-55406470D01*
X70732493Y-55354990D01*
X70757846Y-55307558D01*
X70791973Y-55265973D01*
X70833558Y-55231846D01*
X70880990Y-55206493D01*
X70932470Y-55190877D01*
X70992140Y-55185000D01*
X71879860Y-55185000D01*
X71939530Y-55190877D01*
X71939530Y-55190877D01*
G37*
G36*
X70189530Y-55190877D02*
X70241010Y-55206493D01*
X70288442Y-55231846D01*
X70330027Y-55265973D01*
X70364154Y-55307558D01*
X70389507Y-55354990D01*
X70405123Y-55406470D01*
X70411000Y-55466140D01*
X70411000Y-56253860D01*
X70405123Y-56313530D01*
X70389507Y-56365010D01*
X70364154Y-56412442D01*
X70330027Y-56454027D01*
X70288442Y-56488154D01*
X70241010Y-56513507D01*
X70189530Y-56529123D01*
X70129860Y-56535000D01*
X69242140Y-56535000D01*
X69182470Y-56529123D01*
X69130990Y-56513507D01*
X69083558Y-56488154D01*
X69041973Y-56454027D01*
X69007846Y-56412442D01*
X68982493Y-56365010D01*
X68966877Y-56313530D01*
X68961000Y-56253860D01*
X68961000Y-55466140D01*
X68966877Y-55406470D01*
X68982493Y-55354990D01*
X69007846Y-55307558D01*
X69041973Y-55265973D01*
X69083558Y-55231846D01*
X69130990Y-55206493D01*
X69182470Y-55190877D01*
X69242140Y-55185000D01*
X70129860Y-55185000D01*
X70189530Y-55190877D01*
X70189530Y-55190877D01*
G37*
G36*
X81809530Y-54660877D02*
X81861010Y-54676493D01*
X81908442Y-54701846D01*
X81950027Y-54735973D01*
X81984154Y-54777558D01*
X82009507Y-54824990D01*
X82025123Y-54876470D01*
X82031000Y-54936140D01*
X82031000Y-55823860D01*
X82025123Y-55883530D01*
X82009507Y-55935010D01*
X81984154Y-55982442D01*
X81950027Y-56024027D01*
X81908442Y-56058154D01*
X81861010Y-56083507D01*
X81809530Y-56099123D01*
X81749860Y-56105000D01*
X80962140Y-56105000D01*
X80902470Y-56099123D01*
X80850990Y-56083507D01*
X80803558Y-56058154D01*
X80761973Y-56024027D01*
X80727846Y-55982442D01*
X80702493Y-55935010D01*
X80686877Y-55883530D01*
X80681000Y-55823860D01*
X80681000Y-54936140D01*
X80686877Y-54876470D01*
X80702493Y-54824990D01*
X80727846Y-54777558D01*
X80761973Y-54735973D01*
X80803558Y-54701846D01*
X80850990Y-54676493D01*
X80902470Y-54660877D01*
X80962140Y-54655000D01*
X81749860Y-54655000D01*
X81809530Y-54660877D01*
X81809530Y-54660877D01*
G37*
G36*
X97552000Y-55705000D02*
X96402000Y-55705000D01*
X96402000Y-54105000D01*
X97552000Y-54105000D01*
X97552000Y-55705000D01*
X97552000Y-55705000D01*
G37*
G36*
X99532000Y-55685000D02*
X98232000Y-55685000D01*
X98232000Y-54085000D01*
X99532000Y-54085000D01*
X99532000Y-55685000D01*
X99532000Y-55685000D01*
G37*
G36*
X47118707Y-53567597D02*
X47195836Y-53575193D01*
X47286208Y-53602607D01*
X47393763Y-53635233D01*
X47576172Y-53732733D01*
X47736054Y-53863946D01*
X47867267Y-54023828D01*
X47964767Y-54206237D01*
X47964767Y-54206238D01*
X48024807Y-54404164D01*
X48045080Y-54610000D01*
X48024807Y-54815836D01*
X48006414Y-54876470D01*
X47964767Y-55013763D01*
X47867267Y-55196172D01*
X47736054Y-55356054D01*
X47576172Y-55487267D01*
X47393763Y-55584767D01*
X47327787Y-55604780D01*
X47195836Y-55644807D01*
X47118707Y-55652404D01*
X47041580Y-55660000D01*
X46938420Y-55660000D01*
X46861293Y-55652404D01*
X46784164Y-55644807D01*
X46652213Y-55604780D01*
X46586237Y-55584767D01*
X46403828Y-55487267D01*
X46243946Y-55356054D01*
X46112733Y-55196172D01*
X46015233Y-55013763D01*
X45973586Y-54876470D01*
X45955193Y-54815836D01*
X45934920Y-54610000D01*
X45955193Y-54404164D01*
X46015233Y-54206238D01*
X46015233Y-54206237D01*
X46112733Y-54023828D01*
X46243946Y-53863946D01*
X46403828Y-53732733D01*
X46586237Y-53635233D01*
X46693792Y-53602607D01*
X46784164Y-53575193D01*
X46861293Y-53567597D01*
X46938420Y-53560000D01*
X47041580Y-53560000D01*
X47118707Y-53567597D01*
X47118707Y-53567597D01*
G37*
G36*
X39908503Y-53541789D02*
X40108991Y-53602607D01*
X40293764Y-53701369D01*
X40455718Y-53834282D01*
X40588631Y-53996236D01*
X40687393Y-54181009D01*
X40748211Y-54381497D01*
X40768746Y-54590000D01*
X40748211Y-54798503D01*
X40687393Y-54998991D01*
X40588631Y-55183764D01*
X40455718Y-55345718D01*
X40293764Y-55478631D01*
X40108991Y-55577393D01*
X39908503Y-55638211D01*
X39752251Y-55653600D01*
X39647749Y-55653600D01*
X39491497Y-55638211D01*
X39291009Y-55577393D01*
X39106236Y-55478631D01*
X38944282Y-55345718D01*
X38811369Y-55183764D01*
X38712607Y-54998991D01*
X38651789Y-54798503D01*
X38631254Y-54590000D01*
X38651789Y-54381497D01*
X38712607Y-54181009D01*
X38811369Y-53996236D01*
X38944282Y-53834282D01*
X39106236Y-53701369D01*
X39291009Y-53602607D01*
X39491497Y-53541789D01*
X39647749Y-53526400D01*
X39752251Y-53526400D01*
X39908503Y-53541789D01*
X39908503Y-53541789D01*
G37*
G36*
X88168503Y-53541789D02*
X88368991Y-53602607D01*
X88553764Y-53701369D01*
X88715718Y-53834282D01*
X88848631Y-53996236D01*
X88947393Y-54181009D01*
X89008211Y-54381497D01*
X89028746Y-54590000D01*
X89008211Y-54798503D01*
X88947393Y-54998991D01*
X88848631Y-55183764D01*
X88715718Y-55345718D01*
X88553764Y-55478631D01*
X88368991Y-55577393D01*
X88168503Y-55638211D01*
X88012251Y-55653600D01*
X87907749Y-55653600D01*
X87751497Y-55638211D01*
X87551009Y-55577393D01*
X87366236Y-55478631D01*
X87204282Y-55345718D01*
X87071369Y-55183764D01*
X86972607Y-54998991D01*
X86911789Y-54798503D01*
X86891254Y-54590000D01*
X86911789Y-54381497D01*
X86972607Y-54181009D01*
X87071369Y-53996236D01*
X87204282Y-53834282D01*
X87366236Y-53701369D01*
X87551009Y-53602607D01*
X87751497Y-53541789D01*
X87907749Y-53526400D01*
X88012251Y-53526400D01*
X88168503Y-53541789D01*
X88168503Y-53541789D01*
G37*
G36*
X42448503Y-53541789D02*
X42648991Y-53602607D01*
X42833764Y-53701369D01*
X42995718Y-53834282D01*
X43128631Y-53996236D01*
X43227393Y-54181009D01*
X43288211Y-54381497D01*
X43308746Y-54590000D01*
X43288211Y-54798503D01*
X43227393Y-54998991D01*
X43128631Y-55183764D01*
X42995718Y-55345718D01*
X42833764Y-55478631D01*
X42648991Y-55577393D01*
X42448503Y-55638211D01*
X42292251Y-55653600D01*
X42187749Y-55653600D01*
X42031497Y-55638211D01*
X41831009Y-55577393D01*
X41646236Y-55478631D01*
X41484282Y-55345718D01*
X41351369Y-55183764D01*
X41252607Y-54998991D01*
X41191789Y-54798503D01*
X41171254Y-54590000D01*
X41191789Y-54381497D01*
X41252607Y-54181009D01*
X41351369Y-53996236D01*
X41484282Y-53834282D01*
X41646236Y-53701369D01*
X41831009Y-53602607D01*
X42031497Y-53541789D01*
X42187749Y-53526400D01*
X42292251Y-53526400D01*
X42448503Y-53541789D01*
X42448503Y-53541789D01*
G37*
G36*
X90708503Y-53541789D02*
X90908991Y-53602607D01*
X91093764Y-53701369D01*
X91255718Y-53834282D01*
X91388631Y-53996236D01*
X91487393Y-54181009D01*
X91548211Y-54381497D01*
X91568746Y-54590000D01*
X91548211Y-54798503D01*
X91487393Y-54998991D01*
X91388631Y-55183764D01*
X91255718Y-55345718D01*
X91093764Y-55478631D01*
X90908991Y-55577393D01*
X90708503Y-55638211D01*
X90552251Y-55653600D01*
X90447749Y-55653600D01*
X90291497Y-55638211D01*
X90091009Y-55577393D01*
X89906236Y-55478631D01*
X89744282Y-55345718D01*
X89611369Y-55183764D01*
X89512607Y-54998991D01*
X89451789Y-54798503D01*
X89431254Y-54590000D01*
X89451789Y-54381497D01*
X89512607Y-54181009D01*
X89611369Y-53996236D01*
X89744282Y-53834282D01*
X89906236Y-53701369D01*
X90091009Y-53602607D01*
X90291497Y-53541789D01*
X90447749Y-53526400D01*
X90552251Y-53526400D01*
X90708503Y-53541789D01*
X90708503Y-53541789D01*
G37*
G36*
X52539452Y-53649127D02*
X52677105Y-53676508D01*
X52849994Y-53748121D01*
X53005590Y-53852087D01*
X53137913Y-53984410D01*
X53241879Y-54140006D01*
X53313492Y-54312895D01*
X53350000Y-54496433D01*
X53350000Y-54683567D01*
X53313492Y-54867105D01*
X53241879Y-55039994D01*
X53137913Y-55195590D01*
X53005590Y-55327913D01*
X52849994Y-55431879D01*
X52677105Y-55503492D01*
X52539451Y-55530873D01*
X52493568Y-55540000D01*
X52306432Y-55540000D01*
X52260549Y-55530873D01*
X52122895Y-55503492D01*
X51950006Y-55431879D01*
X51794410Y-55327913D01*
X51662087Y-55195590D01*
X51558121Y-55039994D01*
X51486508Y-54867105D01*
X51450000Y-54683567D01*
X51450000Y-54496433D01*
X51486508Y-54312895D01*
X51558121Y-54140006D01*
X51662087Y-53984410D01*
X51794410Y-53852087D01*
X51950006Y-53748121D01*
X52122895Y-53676508D01*
X52260548Y-53649127D01*
X52306432Y-53640000D01*
X52493568Y-53640000D01*
X52539452Y-53649127D01*
X52539452Y-53649127D01*
G37*
G36*
X78696000Y-55380000D02*
X76396000Y-55380000D01*
X76396000Y-53880000D01*
X78696000Y-53880000D01*
X78696000Y-55380000D01*
X78696000Y-55380000D01*
G37*
G36*
X65349530Y-53920877D02*
X65401010Y-53936493D01*
X65448442Y-53961846D01*
X65490027Y-53995973D01*
X65524154Y-54037558D01*
X65549507Y-54084990D01*
X65565123Y-54136470D01*
X65571000Y-54196140D01*
X65571000Y-54983860D01*
X65565123Y-55043530D01*
X65549507Y-55095010D01*
X65524154Y-55142442D01*
X65490027Y-55184027D01*
X65448442Y-55218154D01*
X65401010Y-55243507D01*
X65349530Y-55259123D01*
X65289860Y-55265000D01*
X64402140Y-55265000D01*
X64342470Y-55259123D01*
X64290990Y-55243507D01*
X64243558Y-55218154D01*
X64201973Y-55184027D01*
X64167846Y-55142442D01*
X64142493Y-55095010D01*
X64126877Y-55043530D01*
X64121000Y-54983860D01*
X64121000Y-54196140D01*
X64126877Y-54136470D01*
X64142493Y-54084990D01*
X64167846Y-54037558D01*
X64201973Y-53995973D01*
X64243558Y-53961846D01*
X64290990Y-53936493D01*
X64342470Y-53920877D01*
X64402140Y-53915000D01*
X65289860Y-53915000D01*
X65349530Y-53920877D01*
X65349530Y-53920877D01*
G37*
G36*
X63599530Y-53920877D02*
X63651010Y-53936493D01*
X63698442Y-53961846D01*
X63740027Y-53995973D01*
X63774154Y-54037558D01*
X63799507Y-54084990D01*
X63815123Y-54136470D01*
X63821000Y-54196140D01*
X63821000Y-54983860D01*
X63815123Y-55043530D01*
X63799507Y-55095010D01*
X63774154Y-55142442D01*
X63740027Y-55184027D01*
X63698442Y-55218154D01*
X63651010Y-55243507D01*
X63599530Y-55259123D01*
X63539860Y-55265000D01*
X62652140Y-55265000D01*
X62592470Y-55259123D01*
X62540990Y-55243507D01*
X62493558Y-55218154D01*
X62451973Y-55184027D01*
X62417846Y-55142442D01*
X62392493Y-55095010D01*
X62376877Y-55043530D01*
X62371000Y-54983860D01*
X62371000Y-54196140D01*
X62376877Y-54136470D01*
X62392493Y-54084990D01*
X62417846Y-54037558D01*
X62451973Y-53995973D01*
X62493558Y-53961846D01*
X62540990Y-53936493D01*
X62592470Y-53920877D01*
X62652140Y-53915000D01*
X63539860Y-53915000D01*
X63599530Y-53920877D01*
X63599530Y-53920877D01*
G37*
G36*
X103507000Y-55155000D02*
X100607000Y-55155000D01*
X100607000Y-52755000D01*
X103507000Y-52755000D01*
X103507000Y-55155000D01*
X103507000Y-55155000D01*
G37*
G36*
X110414000Y-54745000D02*
X104114000Y-54745000D01*
X104114000Y-51895000D01*
X110414000Y-51895000D01*
X110414000Y-54745000D01*
X110414000Y-54745000D01*
G37*
G36*
X69471000Y-54455000D02*
X67521000Y-54455000D01*
X67521000Y-53455000D01*
X69471000Y-53455000D01*
X69471000Y-54455000D01*
X69471000Y-54455000D01*
G37*
G36*
X74871000Y-54455000D02*
X72921000Y-54455000D01*
X72921000Y-53455000D01*
X74871000Y-53455000D01*
X74871000Y-54455000D01*
X74871000Y-54455000D01*
G37*
G36*
X97552000Y-53805000D02*
X96402000Y-53805000D01*
X96402000Y-52205000D01*
X97552000Y-52205000D01*
X97552000Y-53805000D01*
X97552000Y-53805000D01*
G37*
G36*
X119381778Y-50937879D02*
X119627466Y-51039646D01*
X119848578Y-51187389D01*
X120036611Y-51375422D01*
X120184354Y-51596534D01*
X120286121Y-51842222D01*
X120338000Y-52103035D01*
X120338000Y-52368965D01*
X120286121Y-52629778D01*
X120184354Y-52875466D01*
X120036611Y-53096578D01*
X119848578Y-53284611D01*
X119627466Y-53432354D01*
X119381778Y-53534121D01*
X119120965Y-53586000D01*
X118855035Y-53586000D01*
X118594222Y-53534121D01*
X118348534Y-53432354D01*
X118127422Y-53284611D01*
X117939389Y-53096578D01*
X117791646Y-52875466D01*
X117689879Y-52629778D01*
X117638000Y-52368965D01*
X117638000Y-52103035D01*
X117689879Y-51842222D01*
X117791646Y-51596534D01*
X117939389Y-51375422D01*
X118127422Y-51187389D01*
X118348534Y-51039646D01*
X118594222Y-50937879D01*
X118855035Y-50886000D01*
X119120965Y-50886000D01*
X119381778Y-50937879D01*
X119381778Y-50937879D01*
G37*
G36*
X99532000Y-53485000D02*
X98232000Y-53485000D01*
X98232000Y-51885000D01*
X99532000Y-51885000D01*
X99532000Y-53485000D01*
X99532000Y-53485000D01*
G37*
G36*
X69471000Y-53185000D02*
X67521000Y-53185000D01*
X67521000Y-52185000D01*
X69471000Y-52185000D01*
X69471000Y-53185000D01*
X69471000Y-53185000D01*
G37*
G36*
X74871000Y-53185000D02*
X72921000Y-53185000D01*
X72921000Y-52185000D01*
X74871000Y-52185000D01*
X74871000Y-53185000D01*
X74871000Y-53185000D01*
G37*
G36*
X47118707Y-51027597D02*
X47195836Y-51035193D01*
X47268070Y-51057105D01*
X47393763Y-51095233D01*
X47576172Y-51192733D01*
X47736054Y-51323946D01*
X47867267Y-51483828D01*
X47964767Y-51666237D01*
X47978800Y-51712500D01*
X48024807Y-51864164D01*
X48045080Y-52070000D01*
X48024807Y-52275836D01*
X47996557Y-52368963D01*
X47964767Y-52473763D01*
X47867267Y-52656172D01*
X47736054Y-52816054D01*
X47576172Y-52947267D01*
X47393763Y-53044767D01*
X47327787Y-53064780D01*
X47195836Y-53104807D01*
X47118707Y-53112403D01*
X47041580Y-53120000D01*
X46938420Y-53120000D01*
X46861293Y-53112403D01*
X46784164Y-53104807D01*
X46652213Y-53064780D01*
X46586237Y-53044767D01*
X46403828Y-52947267D01*
X46243946Y-52816054D01*
X46112733Y-52656172D01*
X46015233Y-52473763D01*
X45983443Y-52368963D01*
X45955193Y-52275836D01*
X45934920Y-52070000D01*
X45955193Y-51864164D01*
X46001200Y-51712500D01*
X46015233Y-51666237D01*
X46112733Y-51483828D01*
X46243946Y-51323946D01*
X46403828Y-51192733D01*
X46586237Y-51095233D01*
X46711930Y-51057105D01*
X46784164Y-51035193D01*
X46861293Y-51027597D01*
X46938420Y-51020000D01*
X47041580Y-51020000D01*
X47118707Y-51027597D01*
X47118707Y-51027597D01*
G37*
G36*
X42448503Y-51001789D02*
X42648991Y-51062607D01*
X42833764Y-51161369D01*
X42995718Y-51294282D01*
X43128631Y-51456236D01*
X43227393Y-51641009D01*
X43288211Y-51841497D01*
X43308746Y-52050000D01*
X43288211Y-52258503D01*
X43227393Y-52458991D01*
X43128631Y-52643764D01*
X42995718Y-52805718D01*
X42833764Y-52938631D01*
X42648991Y-53037393D01*
X42448503Y-53098211D01*
X42292251Y-53113600D01*
X42187749Y-53113600D01*
X42031497Y-53098211D01*
X41831009Y-53037393D01*
X41646236Y-52938631D01*
X41484282Y-52805718D01*
X41351369Y-52643764D01*
X41252607Y-52458991D01*
X41191789Y-52258503D01*
X41171254Y-52050000D01*
X41191789Y-51841497D01*
X41252607Y-51641009D01*
X41351369Y-51456236D01*
X41484282Y-51294282D01*
X41646236Y-51161369D01*
X41831009Y-51062607D01*
X42031497Y-51001789D01*
X42187749Y-50986400D01*
X42292251Y-50986400D01*
X42448503Y-51001789D01*
X42448503Y-51001789D01*
G37*
G36*
X88168503Y-51001789D02*
X88368991Y-51062607D01*
X88553764Y-51161369D01*
X88715718Y-51294282D01*
X88848631Y-51456236D01*
X88947393Y-51641009D01*
X89008211Y-51841497D01*
X89028746Y-52050000D01*
X89008211Y-52258503D01*
X88947393Y-52458991D01*
X88848631Y-52643764D01*
X88715718Y-52805718D01*
X88553764Y-52938631D01*
X88368991Y-53037393D01*
X88168503Y-53098211D01*
X88012251Y-53113600D01*
X87907749Y-53113600D01*
X87751497Y-53098211D01*
X87551009Y-53037393D01*
X87366236Y-52938631D01*
X87204282Y-52805718D01*
X87071369Y-52643764D01*
X86972607Y-52458991D01*
X86911789Y-52258503D01*
X86891254Y-52050000D01*
X86911789Y-51841497D01*
X86972607Y-51641009D01*
X87071369Y-51456236D01*
X87204282Y-51294282D01*
X87366236Y-51161369D01*
X87551009Y-51062607D01*
X87751497Y-51001789D01*
X87907749Y-50986400D01*
X88012251Y-50986400D01*
X88168503Y-51001789D01*
X88168503Y-51001789D01*
G37*
G36*
X90708503Y-51001789D02*
X90908991Y-51062607D01*
X91093764Y-51161369D01*
X91255718Y-51294282D01*
X91388631Y-51456236D01*
X91487393Y-51641009D01*
X91548211Y-51841497D01*
X91568746Y-52050000D01*
X91548211Y-52258503D01*
X91487393Y-52458991D01*
X91388631Y-52643764D01*
X91255718Y-52805718D01*
X91093764Y-52938631D01*
X90908991Y-53037393D01*
X90708503Y-53098211D01*
X90552251Y-53113600D01*
X90447749Y-53113600D01*
X90291497Y-53098211D01*
X90091009Y-53037393D01*
X89906236Y-52938631D01*
X89744282Y-52805718D01*
X89611369Y-52643764D01*
X89512607Y-52458991D01*
X89451789Y-52258503D01*
X89431254Y-52050000D01*
X89451789Y-51841497D01*
X89512607Y-51641009D01*
X89611369Y-51456236D01*
X89744282Y-51294282D01*
X89906236Y-51161369D01*
X90091009Y-51062607D01*
X90291497Y-51001789D01*
X90447749Y-50986400D01*
X90552251Y-50986400D01*
X90708503Y-51001789D01*
X90708503Y-51001789D01*
G37*
G36*
X39908503Y-51001789D02*
X40108991Y-51062607D01*
X40293764Y-51161369D01*
X40455718Y-51294282D01*
X40588631Y-51456236D01*
X40687393Y-51641009D01*
X40748211Y-51841497D01*
X40768746Y-52050000D01*
X40748211Y-52258503D01*
X40687393Y-52458991D01*
X40588631Y-52643764D01*
X40455718Y-52805718D01*
X40293764Y-52938631D01*
X40108991Y-53037393D01*
X39908503Y-53098211D01*
X39752251Y-53113600D01*
X39647749Y-53113600D01*
X39491497Y-53098211D01*
X39291009Y-53037393D01*
X39106236Y-52938631D01*
X38944282Y-52805718D01*
X38811369Y-52643764D01*
X38712607Y-52458991D01*
X38651789Y-52258503D01*
X38631254Y-52050000D01*
X38651789Y-51841497D01*
X38712607Y-51641009D01*
X38811369Y-51456236D01*
X38944282Y-51294282D01*
X39106236Y-51161369D01*
X39291009Y-51062607D01*
X39491497Y-51001789D01*
X39647749Y-50986400D01*
X39752251Y-50986400D01*
X39908503Y-51001789D01*
X39908503Y-51001789D01*
G37*
G36*
X52539451Y-51109127D02*
X52677105Y-51136508D01*
X52849994Y-51208121D01*
X53005590Y-51312087D01*
X53137913Y-51444410D01*
X53241879Y-51600006D01*
X53313492Y-51772895D01*
X53350000Y-51956433D01*
X53350000Y-52143567D01*
X53313492Y-52327105D01*
X53241879Y-52499994D01*
X53137913Y-52655590D01*
X53005590Y-52787913D01*
X52849994Y-52891879D01*
X52677105Y-52963492D01*
X52539451Y-52990873D01*
X52493568Y-53000000D01*
X52306432Y-53000000D01*
X52260549Y-52990873D01*
X52122895Y-52963492D01*
X51950006Y-52891879D01*
X51794410Y-52787913D01*
X51662087Y-52655590D01*
X51558121Y-52499994D01*
X51486508Y-52327105D01*
X51450000Y-52143567D01*
X51450000Y-51956433D01*
X51486508Y-51772895D01*
X51558121Y-51600006D01*
X51662087Y-51444410D01*
X51794410Y-51312087D01*
X51950006Y-51208121D01*
X52122895Y-51136508D01*
X52260549Y-51109127D01*
X52306432Y-51100000D01*
X52493568Y-51100000D01*
X52539451Y-51109127D01*
X52539451Y-51109127D01*
G37*
G36*
X80589530Y-51380877D02*
X80641010Y-51396493D01*
X80688442Y-51421846D01*
X80730027Y-51455973D01*
X80764154Y-51497558D01*
X80789507Y-51544990D01*
X80805123Y-51596470D01*
X80811000Y-51656140D01*
X80811000Y-52443860D01*
X80805123Y-52503530D01*
X80789507Y-52555010D01*
X80764154Y-52602442D01*
X80730027Y-52644027D01*
X80688442Y-52678154D01*
X80641010Y-52703507D01*
X80589530Y-52719123D01*
X80529860Y-52725000D01*
X79642140Y-52725000D01*
X79582470Y-52719123D01*
X79530990Y-52703507D01*
X79483558Y-52678154D01*
X79441973Y-52644027D01*
X79407846Y-52602442D01*
X79382493Y-52555010D01*
X79366877Y-52503530D01*
X79361000Y-52443860D01*
X79361000Y-51656140D01*
X79366877Y-51596470D01*
X79382493Y-51544990D01*
X79407846Y-51497558D01*
X79441973Y-51455973D01*
X79483558Y-51421846D01*
X79530990Y-51396493D01*
X79582470Y-51380877D01*
X79642140Y-51375000D01*
X80529860Y-51375000D01*
X80589530Y-51380877D01*
X80589530Y-51380877D01*
G37*
G36*
X78839530Y-51380877D02*
X78891010Y-51396493D01*
X78938442Y-51421846D01*
X78980027Y-51455973D01*
X79014154Y-51497558D01*
X79039507Y-51544990D01*
X79055123Y-51596470D01*
X79061000Y-51656140D01*
X79061000Y-52443860D01*
X79055123Y-52503530D01*
X79039507Y-52555010D01*
X79014154Y-52602442D01*
X78980027Y-52644027D01*
X78938442Y-52678154D01*
X78891010Y-52703507D01*
X78839530Y-52719123D01*
X78779860Y-52725000D01*
X77892140Y-52725000D01*
X77832470Y-52719123D01*
X77780990Y-52703507D01*
X77733558Y-52678154D01*
X77691973Y-52644027D01*
X77657846Y-52602442D01*
X77632493Y-52555010D01*
X77616877Y-52503530D01*
X77611000Y-52443860D01*
X77611000Y-51656140D01*
X77616877Y-51596470D01*
X77632493Y-51544990D01*
X77657846Y-51497558D01*
X77691973Y-51455973D01*
X77733558Y-51421846D01*
X77780990Y-51396493D01*
X77832470Y-51380877D01*
X77892140Y-51375000D01*
X78779860Y-51375000D01*
X78839530Y-51380877D01*
X78839530Y-51380877D01*
G37*
G36*
X74871000Y-51915000D02*
X72921000Y-51915000D01*
X72921000Y-50915000D01*
X74871000Y-50915000D01*
X74871000Y-51915000D01*
X74871000Y-51915000D01*
G37*
G36*
X69471000Y-51915000D02*
X67521000Y-51915000D01*
X67521000Y-50915000D01*
X69471000Y-50915000D01*
X69471000Y-51915000D01*
X69471000Y-51915000D01*
G37*
G36*
X64985451Y-49839127D02*
X65123105Y-49866508D01*
X65295994Y-49938121D01*
X65451590Y-50042087D01*
X65583913Y-50174410D01*
X65687879Y-50330006D01*
X65759492Y-50502895D01*
X65796000Y-50686433D01*
X65796000Y-50873567D01*
X65759492Y-51057105D01*
X65687879Y-51229994D01*
X65583913Y-51385590D01*
X65451590Y-51517913D01*
X65295994Y-51621879D01*
X65123105Y-51693492D01*
X64985451Y-51720873D01*
X64939568Y-51730000D01*
X64752432Y-51730000D01*
X64706548Y-51720873D01*
X64568895Y-51693492D01*
X64396006Y-51621879D01*
X64240410Y-51517913D01*
X64108087Y-51385590D01*
X64004121Y-51229994D01*
X63932508Y-51057105D01*
X63896000Y-50873567D01*
X63896000Y-50686433D01*
X63932508Y-50502895D01*
X64004121Y-50330006D01*
X64108087Y-50174410D01*
X64240410Y-50042087D01*
X64396006Y-49938121D01*
X64568895Y-49866508D01*
X64706548Y-49839127D01*
X64752432Y-49830000D01*
X64939568Y-49830000D01*
X64985451Y-49839127D01*
X64985451Y-49839127D01*
G37*
G36*
X104254000Y-51355000D02*
X102654000Y-51355000D01*
X102654000Y-50205000D01*
X104254000Y-50205000D01*
X104254000Y-51355000D01*
X104254000Y-51355000D01*
G37*
G36*
X106154000Y-51355000D02*
X104554000Y-51355000D01*
X104554000Y-50205000D01*
X106154000Y-50205000D01*
X106154000Y-51355000D01*
X106154000Y-51355000D01*
G37*
G36*
X99532000Y-51240000D02*
X98232000Y-51240000D01*
X98232000Y-49640000D01*
X99532000Y-49640000D01*
X99532000Y-51240000D01*
X99532000Y-51240000D01*
G37*
G36*
X69471000Y-50645000D02*
X67521000Y-50645000D01*
X67521000Y-49645000D01*
X69471000Y-49645000D01*
X69471000Y-50645000D01*
X69471000Y-50645000D01*
G37*
G36*
X74871000Y-50645000D02*
X72921000Y-50645000D01*
X72921000Y-49645000D01*
X74871000Y-49645000D01*
X74871000Y-50645000D01*
X74871000Y-50645000D01*
G37*
G36*
X47118707Y-48487597D02*
X47195836Y-48495193D01*
X47286208Y-48522607D01*
X47393763Y-48555233D01*
X47576172Y-48652733D01*
X47736054Y-48783946D01*
X47867267Y-48943828D01*
X47964767Y-49126237D01*
X47964767Y-49126238D01*
X48024807Y-49324164D01*
X48045080Y-49530000D01*
X48024807Y-49735836D01*
X47996243Y-49830000D01*
X47964767Y-49933763D01*
X47867267Y-50116172D01*
X47736054Y-50276054D01*
X47576172Y-50407267D01*
X47393763Y-50504767D01*
X47327787Y-50524780D01*
X47195836Y-50564807D01*
X47118707Y-50572404D01*
X47041580Y-50580000D01*
X46938420Y-50580000D01*
X46861293Y-50572404D01*
X46784164Y-50564807D01*
X46652213Y-50524780D01*
X46586237Y-50504767D01*
X46403828Y-50407267D01*
X46243946Y-50276054D01*
X46112733Y-50116172D01*
X46015233Y-49933763D01*
X45983757Y-49830000D01*
X45955193Y-49735836D01*
X45934920Y-49530000D01*
X45955193Y-49324164D01*
X46015233Y-49126238D01*
X46015233Y-49126237D01*
X46112733Y-48943828D01*
X46243946Y-48783946D01*
X46403828Y-48652733D01*
X46586237Y-48555233D01*
X46693792Y-48522607D01*
X46784164Y-48495193D01*
X46861293Y-48487597D01*
X46938420Y-48480000D01*
X47041580Y-48480000D01*
X47118707Y-48487597D01*
X47118707Y-48487597D01*
G37*
G36*
X88168503Y-48461789D02*
X88368991Y-48522607D01*
X88553764Y-48621369D01*
X88715718Y-48754282D01*
X88848631Y-48916236D01*
X88947393Y-49101009D01*
X89008211Y-49301497D01*
X89028746Y-49510000D01*
X89008211Y-49718503D01*
X88947393Y-49918991D01*
X88848631Y-50103764D01*
X88715718Y-50265718D01*
X88553764Y-50398631D01*
X88368991Y-50497393D01*
X88168503Y-50558211D01*
X88012251Y-50573600D01*
X87907749Y-50573600D01*
X87751497Y-50558211D01*
X87551009Y-50497393D01*
X87366236Y-50398631D01*
X87204282Y-50265718D01*
X87071369Y-50103764D01*
X86972607Y-49918991D01*
X86911789Y-49718503D01*
X86891254Y-49510000D01*
X86911789Y-49301497D01*
X86972607Y-49101009D01*
X87071369Y-48916236D01*
X87204282Y-48754282D01*
X87366236Y-48621369D01*
X87551009Y-48522607D01*
X87751497Y-48461789D01*
X87907749Y-48446400D01*
X88012251Y-48446400D01*
X88168503Y-48461789D01*
X88168503Y-48461789D01*
G37*
G36*
X42448503Y-48461789D02*
X42648991Y-48522607D01*
X42833764Y-48621369D01*
X42995718Y-48754282D01*
X43128631Y-48916236D01*
X43227393Y-49101009D01*
X43288211Y-49301497D01*
X43308746Y-49510000D01*
X43288211Y-49718503D01*
X43227393Y-49918991D01*
X43128631Y-50103764D01*
X42995718Y-50265718D01*
X42833764Y-50398631D01*
X42648991Y-50497393D01*
X42448503Y-50558211D01*
X42292251Y-50573600D01*
X42187749Y-50573600D01*
X42031497Y-50558211D01*
X41831009Y-50497393D01*
X41646236Y-50398631D01*
X41484282Y-50265718D01*
X41351369Y-50103764D01*
X41252607Y-49918991D01*
X41191789Y-49718503D01*
X41171254Y-49510000D01*
X41191789Y-49301497D01*
X41252607Y-49101009D01*
X41351369Y-48916236D01*
X41484282Y-48754282D01*
X41646236Y-48621369D01*
X41831009Y-48522607D01*
X42031497Y-48461789D01*
X42187749Y-48446400D01*
X42292251Y-48446400D01*
X42448503Y-48461789D01*
X42448503Y-48461789D01*
G37*
G36*
X39908503Y-48461789D02*
X40108991Y-48522607D01*
X40293764Y-48621369D01*
X40455718Y-48754282D01*
X40588631Y-48916236D01*
X40687393Y-49101009D01*
X40748211Y-49301497D01*
X40768746Y-49510000D01*
X40748211Y-49718503D01*
X40687393Y-49918991D01*
X40588631Y-50103764D01*
X40455718Y-50265718D01*
X40293764Y-50398631D01*
X40108991Y-50497393D01*
X39908503Y-50558211D01*
X39752251Y-50573600D01*
X39647749Y-50573600D01*
X39491497Y-50558211D01*
X39291009Y-50497393D01*
X39106236Y-50398631D01*
X38944282Y-50265718D01*
X38811369Y-50103764D01*
X38712607Y-49918991D01*
X38651789Y-49718503D01*
X38631254Y-49510000D01*
X38651789Y-49301497D01*
X38712607Y-49101009D01*
X38811369Y-48916236D01*
X38944282Y-48754282D01*
X39106236Y-48621369D01*
X39291009Y-48522607D01*
X39491497Y-48461789D01*
X39647749Y-48446400D01*
X39752251Y-48446400D01*
X39908503Y-48461789D01*
X39908503Y-48461789D01*
G37*
G36*
X90708503Y-48461789D02*
X90908991Y-48522607D01*
X91093764Y-48621369D01*
X91255718Y-48754282D01*
X91388631Y-48916236D01*
X91487393Y-49101009D01*
X91548211Y-49301497D01*
X91568746Y-49510000D01*
X91548211Y-49718503D01*
X91487393Y-49918991D01*
X91388631Y-50103764D01*
X91255718Y-50265718D01*
X91093764Y-50398631D01*
X90908991Y-50497393D01*
X90708503Y-50558211D01*
X90552251Y-50573600D01*
X90447749Y-50573600D01*
X90291497Y-50558211D01*
X90091009Y-50497393D01*
X89906236Y-50398631D01*
X89744282Y-50265718D01*
X89611369Y-50103764D01*
X89512607Y-49918991D01*
X89451789Y-49718503D01*
X89431254Y-49510000D01*
X89451789Y-49301497D01*
X89512607Y-49101009D01*
X89611369Y-48916236D01*
X89744282Y-48754282D01*
X89906236Y-48621369D01*
X90091009Y-48522607D01*
X90291497Y-48461789D01*
X90447749Y-48446400D01*
X90552251Y-48446400D01*
X90708503Y-48461789D01*
X90708503Y-48461789D01*
G37*
G36*
X78839530Y-48840877D02*
X78891010Y-48856493D01*
X78938442Y-48881846D01*
X78980027Y-48915973D01*
X79014154Y-48957558D01*
X79039507Y-49004990D01*
X79055123Y-49056470D01*
X79061000Y-49116140D01*
X79061000Y-49903860D01*
X79055123Y-49963530D01*
X79039507Y-50015010D01*
X79014154Y-50062442D01*
X78980027Y-50104027D01*
X78938442Y-50138154D01*
X78891010Y-50163507D01*
X78839530Y-50179123D01*
X78779860Y-50185000D01*
X77892140Y-50185000D01*
X77832470Y-50179123D01*
X77780990Y-50163507D01*
X77733558Y-50138154D01*
X77691973Y-50104027D01*
X77657846Y-50062442D01*
X77632493Y-50015010D01*
X77616877Y-49963530D01*
X77611000Y-49903860D01*
X77611000Y-49116140D01*
X77616877Y-49056470D01*
X77632493Y-49004990D01*
X77657846Y-48957558D01*
X77691973Y-48915973D01*
X77733558Y-48881846D01*
X77780990Y-48856493D01*
X77832470Y-48840877D01*
X77892140Y-48835000D01*
X78779860Y-48835000D01*
X78839530Y-48840877D01*
X78839530Y-48840877D01*
G37*
G36*
X80589530Y-48840877D02*
X80641010Y-48856493D01*
X80688442Y-48881846D01*
X80730027Y-48915973D01*
X80764154Y-48957558D01*
X80789507Y-49004990D01*
X80805123Y-49056470D01*
X80811000Y-49116140D01*
X80811000Y-49903860D01*
X80805123Y-49963530D01*
X80789507Y-50015010D01*
X80764154Y-50062442D01*
X80730027Y-50104027D01*
X80688442Y-50138154D01*
X80641010Y-50163507D01*
X80589530Y-50179123D01*
X80529860Y-50185000D01*
X79642140Y-50185000D01*
X79582470Y-50179123D01*
X79530990Y-50163507D01*
X79483558Y-50138154D01*
X79441973Y-50104027D01*
X79407846Y-50062442D01*
X79382493Y-50015010D01*
X79366877Y-49963530D01*
X79361000Y-49903860D01*
X79361000Y-49116140D01*
X79366877Y-49056470D01*
X79382493Y-49004990D01*
X79407846Y-48957558D01*
X79441973Y-48915973D01*
X79483558Y-48881846D01*
X79530990Y-48856493D01*
X79582470Y-48840877D01*
X79642140Y-48835000D01*
X80529860Y-48835000D01*
X80589530Y-48840877D01*
X80589530Y-48840877D01*
G37*
G36*
X111543287Y-49556779D02*
X108643287Y-49556779D01*
X108643287Y-47156779D01*
X111543287Y-47156779D01*
X111543287Y-49556779D01*
X111543287Y-49556779D01*
G37*
G36*
X116910947Y-46591722D02*
X117174833Y-46701027D01*
X117412324Y-46859713D01*
X117614287Y-47061676D01*
X117772973Y-47299167D01*
X117882278Y-47563053D01*
X117938000Y-47843186D01*
X117938000Y-48128814D01*
X117882278Y-48408947D01*
X117772973Y-48672833D01*
X117614287Y-48910324D01*
X117412324Y-49112287D01*
X117174833Y-49270973D01*
X116910947Y-49380278D01*
X116630814Y-49436000D01*
X116345186Y-49436000D01*
X116065053Y-49380278D01*
X115801167Y-49270973D01*
X115563676Y-49112287D01*
X115361713Y-48910324D01*
X115203027Y-48672833D01*
X115093722Y-48408947D01*
X115038000Y-48128814D01*
X115038000Y-47843186D01*
X115093722Y-47563053D01*
X115203027Y-47299167D01*
X115361713Y-47061676D01*
X115563676Y-46859713D01*
X115801167Y-46701027D01*
X116065053Y-46591722D01*
X116345186Y-46536000D01*
X116630814Y-46536000D01*
X116910947Y-46591722D01*
X116910947Y-46591722D01*
G37*
G36*
X121910947Y-46591722D02*
X122174833Y-46701027D01*
X122412324Y-46859713D01*
X122614287Y-47061676D01*
X122772973Y-47299167D01*
X122882278Y-47563053D01*
X122938000Y-47843186D01*
X122938000Y-48128814D01*
X122882278Y-48408947D01*
X122772973Y-48672833D01*
X122614287Y-48910324D01*
X122412324Y-49112287D01*
X122174833Y-49270973D01*
X121910947Y-49380278D01*
X121630814Y-49436000D01*
X121345186Y-49436000D01*
X121065053Y-49380278D01*
X120801167Y-49270973D01*
X120563676Y-49112287D01*
X120361713Y-48910324D01*
X120203027Y-48672833D01*
X120093722Y-48408947D01*
X120038000Y-48128814D01*
X120038000Y-47843186D01*
X120093722Y-47563053D01*
X120203027Y-47299167D01*
X120361713Y-47061676D01*
X120563676Y-46859713D01*
X120801167Y-46701027D01*
X121065053Y-46591722D01*
X121345186Y-46536000D01*
X121630814Y-46536000D01*
X121910947Y-46591722D01*
X121910947Y-46591722D01*
G37*
G36*
X103807000Y-49045000D02*
X102807000Y-49045000D01*
X102807000Y-47095000D01*
X103807000Y-47095000D01*
X103807000Y-49045000D01*
X103807000Y-49045000D01*
G37*
G36*
X105077000Y-49045000D02*
X104077000Y-49045000D01*
X104077000Y-47095000D01*
X105077000Y-47095000D01*
X105077000Y-49045000D01*
X105077000Y-49045000D01*
G37*
G36*
X106347000Y-49045000D02*
X105347000Y-49045000D01*
X105347000Y-47095000D01*
X106347000Y-47095000D01*
X106347000Y-49045000D01*
X106347000Y-49045000D01*
G37*
G36*
X102537000Y-49045000D02*
X101537000Y-49045000D01*
X101537000Y-47095000D01*
X102537000Y-47095000D01*
X102537000Y-49045000D01*
X102537000Y-49045000D01*
G37*
G36*
X99532000Y-49040000D02*
X98232000Y-49040000D01*
X98232000Y-47440000D01*
X99532000Y-47440000D01*
X99532000Y-49040000D01*
X99532000Y-49040000D01*
G37*
G36*
X65349530Y-47570877D02*
X65401010Y-47586493D01*
X65448442Y-47611846D01*
X65490027Y-47645973D01*
X65524154Y-47687558D01*
X65549507Y-47734990D01*
X65565123Y-47786470D01*
X65571000Y-47846140D01*
X65571000Y-48633860D01*
X65565123Y-48693530D01*
X65549507Y-48745010D01*
X65524154Y-48792442D01*
X65490027Y-48834027D01*
X65448442Y-48868154D01*
X65401010Y-48893507D01*
X65349530Y-48909123D01*
X65289860Y-48915000D01*
X64402140Y-48915000D01*
X64342470Y-48909123D01*
X64290990Y-48893507D01*
X64243558Y-48868154D01*
X64201973Y-48834027D01*
X64167846Y-48792442D01*
X64142493Y-48745010D01*
X64126877Y-48693530D01*
X64121000Y-48633860D01*
X64121000Y-47846140D01*
X64126877Y-47786470D01*
X64142493Y-47734990D01*
X64167846Y-47687558D01*
X64201973Y-47645973D01*
X64243558Y-47611846D01*
X64290990Y-47586493D01*
X64342470Y-47570877D01*
X64402140Y-47565000D01*
X65289860Y-47565000D01*
X65349530Y-47570877D01*
X65349530Y-47570877D01*
G37*
G36*
X63599530Y-47570877D02*
X63651010Y-47586493D01*
X63698442Y-47611846D01*
X63740027Y-47645973D01*
X63774154Y-47687558D01*
X63799507Y-47734990D01*
X63815123Y-47786470D01*
X63821000Y-47846140D01*
X63821000Y-48633860D01*
X63815123Y-48693530D01*
X63799507Y-48745010D01*
X63774154Y-48792442D01*
X63740027Y-48834027D01*
X63698442Y-48868154D01*
X63651010Y-48893507D01*
X63599530Y-48909123D01*
X63539860Y-48915000D01*
X62652140Y-48915000D01*
X62592470Y-48909123D01*
X62540990Y-48893507D01*
X62493558Y-48868154D01*
X62451973Y-48834027D01*
X62417846Y-48792442D01*
X62392493Y-48745010D01*
X62376877Y-48693530D01*
X62371000Y-48633860D01*
X62371000Y-47846140D01*
X62376877Y-47786470D01*
X62392493Y-47734990D01*
X62417846Y-47687558D01*
X62451973Y-47645973D01*
X62493558Y-47611846D01*
X62540990Y-47586493D01*
X62592470Y-47570877D01*
X62652140Y-47565000D01*
X63539860Y-47565000D01*
X63599530Y-47570877D01*
X63599530Y-47570877D01*
G37*
G36*
X108128287Y-48426779D02*
X106978287Y-48426779D01*
X106978287Y-46826779D01*
X108128287Y-46826779D01*
X108128287Y-48426779D01*
X108128287Y-48426779D01*
G37*
G36*
X39908503Y-45921789D02*
X40108991Y-45982607D01*
X40293764Y-46081369D01*
X40455718Y-46214282D01*
X40588631Y-46376236D01*
X40687393Y-46561009D01*
X40748211Y-46761497D01*
X40768746Y-46970000D01*
X40748211Y-47178503D01*
X40687393Y-47378991D01*
X40588631Y-47563764D01*
X40455718Y-47725718D01*
X40293764Y-47858631D01*
X40108991Y-47957393D01*
X39908503Y-48018211D01*
X39752251Y-48033600D01*
X39647749Y-48033600D01*
X39491497Y-48018211D01*
X39291009Y-47957393D01*
X39106236Y-47858631D01*
X38944282Y-47725718D01*
X38811369Y-47563764D01*
X38712607Y-47378991D01*
X38651789Y-47178503D01*
X38631254Y-46970000D01*
X38651789Y-46761497D01*
X38712607Y-46561009D01*
X38811369Y-46376236D01*
X38944282Y-46214282D01*
X39106236Y-46081369D01*
X39291009Y-45982607D01*
X39491497Y-45921789D01*
X39647749Y-45906400D01*
X39752251Y-45906400D01*
X39908503Y-45921789D01*
X39908503Y-45921789D01*
G37*
G36*
X90708503Y-45921789D02*
X90908991Y-45982607D01*
X91093764Y-46081369D01*
X91255718Y-46214282D01*
X91388631Y-46376236D01*
X91487393Y-46561009D01*
X91548211Y-46761497D01*
X91568746Y-46970000D01*
X91548211Y-47178503D01*
X91487393Y-47378991D01*
X91388631Y-47563764D01*
X91255718Y-47725718D01*
X91093764Y-47858631D01*
X90908991Y-47957393D01*
X90708503Y-48018211D01*
X90552251Y-48033600D01*
X90447749Y-48033600D01*
X90291497Y-48018211D01*
X90091009Y-47957393D01*
X89906236Y-47858631D01*
X89744282Y-47725718D01*
X89611369Y-47563764D01*
X89512607Y-47378991D01*
X89451789Y-47178503D01*
X89431254Y-46970000D01*
X89451789Y-46761497D01*
X89512607Y-46561009D01*
X89611369Y-46376236D01*
X89744282Y-46214282D01*
X89906236Y-46081369D01*
X90091009Y-45982607D01*
X90291497Y-45921789D01*
X90447749Y-45906400D01*
X90552251Y-45906400D01*
X90708503Y-45921789D01*
X90708503Y-45921789D01*
G37*
G36*
X88168503Y-45921789D02*
X88368991Y-45982607D01*
X88553764Y-46081369D01*
X88715718Y-46214282D01*
X88848631Y-46376236D01*
X88947393Y-46561009D01*
X89008211Y-46761497D01*
X89028746Y-46970000D01*
X89008211Y-47178503D01*
X88947393Y-47378991D01*
X88848631Y-47563764D01*
X88715718Y-47725718D01*
X88553764Y-47858631D01*
X88368991Y-47957393D01*
X88168503Y-48018211D01*
X88012251Y-48033600D01*
X87907749Y-48033600D01*
X87751497Y-48018211D01*
X87551009Y-47957393D01*
X87366236Y-47858631D01*
X87204282Y-47725718D01*
X87071369Y-47563764D01*
X86972607Y-47378991D01*
X86911789Y-47178503D01*
X86891254Y-46970000D01*
X86911789Y-46761497D01*
X86972607Y-46561009D01*
X87071369Y-46376236D01*
X87204282Y-46214282D01*
X87366236Y-46081369D01*
X87551009Y-45982607D01*
X87751497Y-45921789D01*
X87907749Y-45906400D01*
X88012251Y-45906400D01*
X88168503Y-45921789D01*
X88168503Y-45921789D01*
G37*
G36*
X42448503Y-45921789D02*
X42648991Y-45982607D01*
X42833764Y-46081369D01*
X42995718Y-46214282D01*
X43128631Y-46376236D01*
X43227393Y-46561009D01*
X43288211Y-46761497D01*
X43308746Y-46970000D01*
X43288211Y-47178503D01*
X43227393Y-47378991D01*
X43128631Y-47563764D01*
X42995718Y-47725718D01*
X42833764Y-47858631D01*
X42648991Y-47957393D01*
X42448503Y-48018211D01*
X42292251Y-48033600D01*
X42187749Y-48033600D01*
X42031497Y-48018211D01*
X41831009Y-47957393D01*
X41646236Y-47858631D01*
X41484282Y-47725718D01*
X41351369Y-47563764D01*
X41252607Y-47378991D01*
X41191789Y-47178503D01*
X41171254Y-46970000D01*
X41191789Y-46761497D01*
X41252607Y-46561009D01*
X41351369Y-46376236D01*
X41484282Y-46214282D01*
X41646236Y-46081369D01*
X41831009Y-45982607D01*
X42031497Y-45921789D01*
X42187749Y-45906400D01*
X42292251Y-45906400D01*
X42448503Y-45921789D01*
X42448503Y-45921789D01*
G37*
G36*
X105317000Y-46745000D02*
X102567000Y-46745000D01*
X102567000Y-43995000D01*
X105317000Y-43995000D01*
X105317000Y-46745000D01*
X105317000Y-46745000D01*
G37*
G36*
X108128287Y-46526779D02*
X106978287Y-46526779D01*
X106978287Y-44926779D01*
X108128287Y-44926779D01*
X108128287Y-46526779D01*
X108128287Y-46526779D01*
G37*
G36*
X111543287Y-45556779D02*
X108643287Y-45556779D01*
X108643287Y-43156779D01*
X111543287Y-43156779D01*
X111543287Y-45556779D01*
X111543287Y-45556779D01*
G37*
G36*
X100727000Y-45545000D02*
X99577000Y-45545000D01*
X99577000Y-43945000D01*
X100727000Y-43945000D01*
X100727000Y-45545000D01*
X100727000Y-45545000D01*
G37*
G36*
X39908503Y-43381789D02*
X40108991Y-43442607D01*
X40293764Y-43541369D01*
X40455718Y-43674282D01*
X40588631Y-43836236D01*
X40687393Y-44021009D01*
X40748211Y-44221497D01*
X40768746Y-44430000D01*
X40748211Y-44638503D01*
X40687393Y-44838991D01*
X40588631Y-45023764D01*
X40455718Y-45185718D01*
X40293764Y-45318631D01*
X40108991Y-45417393D01*
X39908503Y-45478211D01*
X39752251Y-45493600D01*
X39647749Y-45493600D01*
X39491497Y-45478211D01*
X39291009Y-45417393D01*
X39106236Y-45318631D01*
X38944282Y-45185718D01*
X38811369Y-45023764D01*
X38712607Y-44838991D01*
X38651789Y-44638503D01*
X38631254Y-44430000D01*
X38651789Y-44221497D01*
X38712607Y-44021009D01*
X38811369Y-43836236D01*
X38944282Y-43674282D01*
X39106236Y-43541369D01*
X39291009Y-43442607D01*
X39491497Y-43381789D01*
X39647749Y-43366400D01*
X39752251Y-43366400D01*
X39908503Y-43381789D01*
X39908503Y-43381789D01*
G37*
G36*
X42448503Y-43381789D02*
X42648991Y-43442607D01*
X42833764Y-43541369D01*
X42995718Y-43674282D01*
X43128631Y-43836236D01*
X43227393Y-44021009D01*
X43288211Y-44221497D01*
X43308746Y-44430000D01*
X43288211Y-44638503D01*
X43227393Y-44838991D01*
X43128631Y-45023764D01*
X42995718Y-45185718D01*
X42833764Y-45318631D01*
X42648991Y-45417393D01*
X42448503Y-45478211D01*
X42292251Y-45493600D01*
X42187749Y-45493600D01*
X42031497Y-45478211D01*
X41831009Y-45417393D01*
X41646236Y-45318631D01*
X41484282Y-45185718D01*
X41351369Y-45023764D01*
X41252607Y-44838991D01*
X41191789Y-44638503D01*
X41171254Y-44430000D01*
X41191789Y-44221497D01*
X41252607Y-44021009D01*
X41351369Y-43836236D01*
X41484282Y-43674282D01*
X41646236Y-43541369D01*
X41831009Y-43442607D01*
X42031497Y-43381789D01*
X42187749Y-43366400D01*
X42292251Y-43366400D01*
X42448503Y-43381789D01*
X42448503Y-43381789D01*
G37*
G36*
X90708503Y-43381789D02*
X90908991Y-43442607D01*
X91093764Y-43541369D01*
X91255718Y-43674282D01*
X91388631Y-43836236D01*
X91487393Y-44021009D01*
X91548211Y-44221497D01*
X91568746Y-44430000D01*
X91548211Y-44638503D01*
X91487393Y-44838991D01*
X91388631Y-45023764D01*
X91255718Y-45185718D01*
X91093764Y-45318631D01*
X90908991Y-45417393D01*
X90708503Y-45478211D01*
X90552251Y-45493600D01*
X90447749Y-45493600D01*
X90291497Y-45478211D01*
X90091009Y-45417393D01*
X89906236Y-45318631D01*
X89744282Y-45185718D01*
X89611369Y-45023764D01*
X89512607Y-44838991D01*
X89451789Y-44638503D01*
X89431254Y-44430000D01*
X89451789Y-44221497D01*
X89512607Y-44021009D01*
X89611369Y-43836236D01*
X89744282Y-43674282D01*
X89906236Y-43541369D01*
X90091009Y-43442607D01*
X90291497Y-43381789D01*
X90447749Y-43366400D01*
X90552251Y-43366400D01*
X90708503Y-43381789D01*
X90708503Y-43381789D01*
G37*
G36*
X88168503Y-43381789D02*
X88368991Y-43442607D01*
X88553764Y-43541369D01*
X88715718Y-43674282D01*
X88848631Y-43836236D01*
X88947393Y-44021009D01*
X89008211Y-44221497D01*
X89028746Y-44430000D01*
X89008211Y-44638503D01*
X88947393Y-44838991D01*
X88848631Y-45023764D01*
X88715718Y-45185718D01*
X88553764Y-45318631D01*
X88368991Y-45417393D01*
X88168503Y-45478211D01*
X88012251Y-45493600D01*
X87907749Y-45493600D01*
X87751497Y-45478211D01*
X87551009Y-45417393D01*
X87366236Y-45318631D01*
X87204282Y-45185718D01*
X87071369Y-45023764D01*
X86972607Y-44838991D01*
X86911789Y-44638503D01*
X86891254Y-44430000D01*
X86911789Y-44221497D01*
X86972607Y-44021009D01*
X87071369Y-43836236D01*
X87204282Y-43674282D01*
X87366236Y-43541369D01*
X87551009Y-43442607D01*
X87751497Y-43381789D01*
X87907749Y-43366400D01*
X88012251Y-43366400D01*
X88168503Y-43381789D01*
X88168503Y-43381789D01*
G37*
G36*
X121910947Y-42591722D02*
X122174833Y-42701027D01*
X122412324Y-42859713D01*
X122614287Y-43061676D01*
X122772973Y-43299167D01*
X122882278Y-43563053D01*
X122938000Y-43843186D01*
X122938000Y-44128814D01*
X122882278Y-44408947D01*
X122772973Y-44672833D01*
X122614287Y-44910324D01*
X122412324Y-45112287D01*
X122174833Y-45270973D01*
X121910947Y-45380278D01*
X121630814Y-45436000D01*
X121345186Y-45436000D01*
X121065053Y-45380278D01*
X120801167Y-45270973D01*
X120563676Y-45112287D01*
X120361713Y-44910324D01*
X120203027Y-44672833D01*
X120093722Y-44408947D01*
X120038000Y-44128814D01*
X120038000Y-43843186D01*
X120093722Y-43563053D01*
X120203027Y-43299167D01*
X120361713Y-43061676D01*
X120563676Y-42859713D01*
X120801167Y-42701027D01*
X121065053Y-42591722D01*
X121345186Y-42536000D01*
X121630814Y-42536000D01*
X121910947Y-42591722D01*
X121910947Y-42591722D01*
G37*
G36*
X116910947Y-42591722D02*
X117174833Y-42701027D01*
X117412324Y-42859713D01*
X117614287Y-43061676D01*
X117772973Y-43299167D01*
X117882278Y-43563053D01*
X117938000Y-43843186D01*
X117938000Y-44128814D01*
X117882278Y-44408947D01*
X117772973Y-44672833D01*
X117614287Y-44910324D01*
X117412324Y-45112287D01*
X117174833Y-45270973D01*
X116910947Y-45380278D01*
X116630814Y-45436000D01*
X116345186Y-45436000D01*
X116065053Y-45380278D01*
X115801167Y-45270973D01*
X115563676Y-45112287D01*
X115361713Y-44910324D01*
X115203027Y-44672833D01*
X115093722Y-44408947D01*
X115038000Y-44128814D01*
X115038000Y-43843186D01*
X115093722Y-43563053D01*
X115203027Y-43299167D01*
X115361713Y-43061676D01*
X115563676Y-42859713D01*
X115801167Y-42701027D01*
X116065053Y-42591722D01*
X116345186Y-42536000D01*
X116630814Y-42536000D01*
X116910947Y-42591722D01*
X116910947Y-42591722D01*
G37*
G36*
X100727000Y-43645000D02*
X99577000Y-43645000D01*
X99577000Y-42045000D01*
X100727000Y-42045000D01*
X100727000Y-43645000D01*
X100727000Y-43645000D01*
G37*
G36*
X102537000Y-43645000D02*
X101537000Y-43645000D01*
X101537000Y-41695000D01*
X102537000Y-41695000D01*
X102537000Y-43645000D01*
X102537000Y-43645000D01*
G37*
G36*
X103807000Y-43645000D02*
X102807000Y-43645000D01*
X102807000Y-41695000D01*
X103807000Y-41695000D01*
X103807000Y-43645000D01*
X103807000Y-43645000D01*
G37*
G36*
X105077000Y-43645000D02*
X104077000Y-43645000D01*
X104077000Y-41695000D01*
X105077000Y-41695000D01*
X105077000Y-43645000D01*
X105077000Y-43645000D01*
G37*
G36*
X106347000Y-43645000D02*
X105347000Y-43645000D01*
X105347000Y-41695000D01*
X106347000Y-41695000D01*
X106347000Y-43645000D01*
X106347000Y-43645000D01*
G37*
G36*
X42448503Y-40841789D02*
X42648991Y-40902607D01*
X42833764Y-41001369D01*
X42995718Y-41134282D01*
X43128631Y-41296236D01*
X43227393Y-41481009D01*
X43288211Y-41681497D01*
X43308746Y-41890000D01*
X43288211Y-42098503D01*
X43227393Y-42298991D01*
X43128631Y-42483764D01*
X42995718Y-42645718D01*
X42833764Y-42778631D01*
X42648991Y-42877393D01*
X42448503Y-42938211D01*
X42292251Y-42953600D01*
X42187749Y-42953600D01*
X42031497Y-42938211D01*
X41831009Y-42877393D01*
X41646236Y-42778631D01*
X41484282Y-42645718D01*
X41351369Y-42483764D01*
X41252607Y-42298991D01*
X41191789Y-42098503D01*
X41171254Y-41890000D01*
X41191789Y-41681497D01*
X41252607Y-41481009D01*
X41351369Y-41296236D01*
X41484282Y-41134282D01*
X41646236Y-41001369D01*
X41831009Y-40902607D01*
X42031497Y-40841789D01*
X42187749Y-40826400D01*
X42292251Y-40826400D01*
X42448503Y-40841789D01*
X42448503Y-40841789D01*
G37*
G36*
X90708503Y-40841789D02*
X90908991Y-40902607D01*
X91093764Y-41001369D01*
X91255718Y-41134282D01*
X91388631Y-41296236D01*
X91487393Y-41481009D01*
X91548211Y-41681497D01*
X91568746Y-41890000D01*
X91548211Y-42098503D01*
X91487393Y-42298991D01*
X91388631Y-42483764D01*
X91255718Y-42645718D01*
X91093764Y-42778631D01*
X90908991Y-42877393D01*
X90708503Y-42938211D01*
X90552251Y-42953600D01*
X90447749Y-42953600D01*
X90291497Y-42938211D01*
X90091009Y-42877393D01*
X89906236Y-42778631D01*
X89744282Y-42645718D01*
X89611369Y-42483764D01*
X89512607Y-42298991D01*
X89451789Y-42098503D01*
X89431254Y-41890000D01*
X89451789Y-41681497D01*
X89512607Y-41481009D01*
X89611369Y-41296236D01*
X89744282Y-41134282D01*
X89906236Y-41001369D01*
X90091009Y-40902607D01*
X90291497Y-40841789D01*
X90447749Y-40826400D01*
X90552251Y-40826400D01*
X90708503Y-40841789D01*
X90708503Y-40841789D01*
G37*
G36*
X88168503Y-40841789D02*
X88368991Y-40902607D01*
X88553764Y-41001369D01*
X88715718Y-41134282D01*
X88848631Y-41296236D01*
X88947393Y-41481009D01*
X89008211Y-41681497D01*
X89028746Y-41890000D01*
X89008211Y-42098503D01*
X88947393Y-42298991D01*
X88848631Y-42483764D01*
X88715718Y-42645718D01*
X88553764Y-42778631D01*
X88368991Y-42877393D01*
X88168503Y-42938211D01*
X88012251Y-42953600D01*
X87907749Y-42953600D01*
X87751497Y-42938211D01*
X87551009Y-42877393D01*
X87366236Y-42778631D01*
X87204282Y-42645718D01*
X87071369Y-42483764D01*
X86972607Y-42298991D01*
X86911789Y-42098503D01*
X86891254Y-41890000D01*
X86911789Y-41681497D01*
X86972607Y-41481009D01*
X87071369Y-41296236D01*
X87204282Y-41134282D01*
X87366236Y-41001369D01*
X87551009Y-40902607D01*
X87751497Y-40841789D01*
X87907749Y-40826400D01*
X88012251Y-40826400D01*
X88168503Y-40841789D01*
X88168503Y-40841789D01*
G37*
G36*
X39908503Y-40841789D02*
X40108991Y-40902607D01*
X40293764Y-41001369D01*
X40455718Y-41134282D01*
X40588631Y-41296236D01*
X40687393Y-41481009D01*
X40748211Y-41681497D01*
X40768746Y-41890000D01*
X40748211Y-42098503D01*
X40687393Y-42298991D01*
X40588631Y-42483764D01*
X40455718Y-42645718D01*
X40293764Y-42778631D01*
X40108991Y-42877393D01*
X39908503Y-42938211D01*
X39752251Y-42953600D01*
X39647749Y-42953600D01*
X39491497Y-42938211D01*
X39291009Y-42877393D01*
X39106236Y-42778631D01*
X38944282Y-42645718D01*
X38811369Y-42483764D01*
X38712607Y-42298991D01*
X38651789Y-42098503D01*
X38631254Y-41890000D01*
X38651789Y-41681497D01*
X38712607Y-41481009D01*
X38811369Y-41296236D01*
X38944282Y-41134282D01*
X39106236Y-41001369D01*
X39291009Y-40902607D01*
X39491497Y-40841789D01*
X39647749Y-40826400D01*
X39752251Y-40826400D01*
X39908503Y-40841789D01*
X39908503Y-40841789D01*
G37*
G36*
X110942000Y-42540000D02*
X109342000Y-42540000D01*
X109342000Y-41240000D01*
X110942000Y-41240000D01*
X110942000Y-42540000D01*
X110942000Y-42540000D01*
G37*
G36*
X108742000Y-42540000D02*
X107142000Y-42540000D01*
X107142000Y-41240000D01*
X108742000Y-41240000D01*
X108742000Y-42540000D01*
X108742000Y-42540000D01*
G37*
G36*
X116910947Y-38591722D02*
X117174833Y-38701027D01*
X117412324Y-38859713D01*
X117614287Y-39061676D01*
X117772973Y-39299167D01*
X117882278Y-39563053D01*
X117938000Y-39843186D01*
X117938000Y-40128814D01*
X117882278Y-40408947D01*
X117772973Y-40672833D01*
X117614287Y-40910324D01*
X117412324Y-41112287D01*
X117174833Y-41270973D01*
X116910947Y-41380278D01*
X116630814Y-41436000D01*
X116345186Y-41436000D01*
X116065053Y-41380278D01*
X115801167Y-41270973D01*
X115563676Y-41112287D01*
X115361713Y-40910324D01*
X115203027Y-40672833D01*
X115093722Y-40408947D01*
X115038000Y-40128814D01*
X115038000Y-39843186D01*
X115093722Y-39563053D01*
X115203027Y-39299167D01*
X115361713Y-39061676D01*
X115563676Y-38859713D01*
X115801167Y-38701027D01*
X116065053Y-38591722D01*
X116345186Y-38536000D01*
X116630814Y-38536000D01*
X116910947Y-38591722D01*
X116910947Y-38591722D01*
G37*
G36*
X121910947Y-38591722D02*
X122174833Y-38701027D01*
X122412324Y-38859713D01*
X122614287Y-39061676D01*
X122772973Y-39299167D01*
X122882278Y-39563053D01*
X122938000Y-39843186D01*
X122938000Y-40128814D01*
X122882278Y-40408947D01*
X122772973Y-40672833D01*
X122614287Y-40910324D01*
X122412324Y-41112287D01*
X122174833Y-41270973D01*
X121910947Y-41380278D01*
X121630814Y-41436000D01*
X121345186Y-41436000D01*
X121065053Y-41380278D01*
X120801167Y-41270973D01*
X120563676Y-41112287D01*
X120361713Y-40910324D01*
X120203027Y-40672833D01*
X120093722Y-40408947D01*
X120038000Y-40128814D01*
X120038000Y-39843186D01*
X120093722Y-39563053D01*
X120203027Y-39299167D01*
X120361713Y-39061676D01*
X120563676Y-38859713D01*
X120801167Y-38701027D01*
X121065053Y-38591722D01*
X121345186Y-38536000D01*
X121630814Y-38536000D01*
X121910947Y-38591722D01*
X121910947Y-38591722D01*
G37*
G36*
X101757000Y-40810000D02*
X99857000Y-40810000D01*
X99857000Y-39160000D01*
X101757000Y-39160000D01*
X101757000Y-40810000D01*
X101757000Y-40810000D01*
G37*
G36*
X104257000Y-40810000D02*
X102357000Y-40810000D01*
X102357000Y-39160000D01*
X104257000Y-39160000D01*
X104257000Y-40810000D01*
X104257000Y-40810000D01*
G37*
G36*
X40763600Y-40413600D02*
X38636400Y-40413600D01*
X38636400Y-38286400D01*
X40763600Y-38286400D01*
X40763600Y-40413600D01*
X40763600Y-40413600D01*
G37*
G36*
X42448503Y-38301789D02*
X42648991Y-38362607D01*
X42833764Y-38461369D01*
X42995718Y-38594282D01*
X43128631Y-38756236D01*
X43227393Y-38941009D01*
X43288211Y-39141497D01*
X43308746Y-39350000D01*
X43288211Y-39558503D01*
X43227393Y-39758991D01*
X43128631Y-39943764D01*
X42995718Y-40105718D01*
X42833764Y-40238631D01*
X42648991Y-40337393D01*
X42448503Y-40398211D01*
X42292251Y-40413600D01*
X42187749Y-40413600D01*
X42031497Y-40398211D01*
X41831009Y-40337393D01*
X41646236Y-40238631D01*
X41484282Y-40105718D01*
X41351369Y-39943764D01*
X41252607Y-39758991D01*
X41191789Y-39558503D01*
X41171254Y-39350000D01*
X41191789Y-39141497D01*
X41252607Y-38941009D01*
X41351369Y-38756236D01*
X41484282Y-38594282D01*
X41646236Y-38461369D01*
X41831009Y-38362607D01*
X42031497Y-38301789D01*
X42187749Y-38286400D01*
X42292251Y-38286400D01*
X42448503Y-38301789D01*
X42448503Y-38301789D01*
G37*
G36*
X89023600Y-40413600D02*
X86896400Y-40413600D01*
X86896400Y-38286400D01*
X89023600Y-38286400D01*
X89023600Y-40413600D01*
X89023600Y-40413600D01*
G37*
G36*
X90708503Y-38301789D02*
X90908991Y-38362607D01*
X91093764Y-38461369D01*
X91255718Y-38594282D01*
X91388631Y-38756236D01*
X91487393Y-38941009D01*
X91548211Y-39141497D01*
X91568746Y-39350000D01*
X91548211Y-39558503D01*
X91487393Y-39758991D01*
X91388631Y-39943764D01*
X91255718Y-40105718D01*
X91093764Y-40238631D01*
X90908991Y-40337393D01*
X90708503Y-40398211D01*
X90552251Y-40413600D01*
X90447749Y-40413600D01*
X90291497Y-40398211D01*
X90091009Y-40337393D01*
X89906236Y-40238631D01*
X89744282Y-40105718D01*
X89611369Y-39943764D01*
X89512607Y-39758991D01*
X89451789Y-39558503D01*
X89431254Y-39350000D01*
X89451789Y-39141497D01*
X89512607Y-38941009D01*
X89611369Y-38756236D01*
X89744282Y-38594282D01*
X89906236Y-38461369D01*
X90091009Y-38362607D01*
X90291497Y-38301789D01*
X90447749Y-38286400D01*
X90552251Y-38286400D01*
X90708503Y-38301789D01*
X90708503Y-38301789D01*
G37*
G36*
X119381778Y-34437879D02*
X119627466Y-34539646D01*
X119848578Y-34687389D01*
X120036611Y-34875422D01*
X120184354Y-35096534D01*
X120286121Y-35342222D01*
X120338000Y-35603035D01*
X120338000Y-35868965D01*
X120286121Y-36129778D01*
X120184354Y-36375466D01*
X120036611Y-36596578D01*
X119848578Y-36784611D01*
X119627466Y-36932354D01*
X119381778Y-37034121D01*
X119120965Y-37086000D01*
X118855035Y-37086000D01*
X118594222Y-37034121D01*
X118348534Y-36932354D01*
X118127422Y-36784611D01*
X117939389Y-36596578D01*
X117791646Y-36375466D01*
X117689879Y-36129778D01*
X117638000Y-35868965D01*
X117638000Y-35603035D01*
X117689879Y-35342222D01*
X117791646Y-35096534D01*
X117939389Y-34875422D01*
X118127422Y-34687389D01*
X118348534Y-34539646D01*
X118594222Y-34437879D01*
X118855035Y-34386000D01*
X119120965Y-34386000D01*
X119381778Y-34437879D01*
X119381778Y-34437879D01*
G37*
G36*
X41356393Y-32613553D02*
X41465872Y-32635330D01*
X41775252Y-32763479D01*
X42053687Y-32949523D01*
X42290477Y-33186313D01*
X42476521Y-33464748D01*
X42548284Y-33638000D01*
X42604670Y-33774129D01*
X42670000Y-34102563D01*
X42670000Y-34437437D01*
X42649669Y-34539646D01*
X42604670Y-34765872D01*
X42476521Y-35075252D01*
X42290477Y-35353687D01*
X42053687Y-35590477D01*
X41775252Y-35776521D01*
X41465872Y-35904670D01*
X41356393Y-35926447D01*
X41137437Y-35970000D01*
X40802563Y-35970000D01*
X40583607Y-35926447D01*
X40474128Y-35904670D01*
X40164748Y-35776521D01*
X39886313Y-35590477D01*
X39649523Y-35353687D01*
X39463479Y-35075252D01*
X39335330Y-34765872D01*
X39290331Y-34539646D01*
X39270000Y-34437437D01*
X39270000Y-34102563D01*
X39335330Y-33774129D01*
X39391716Y-33638000D01*
X39463479Y-33464748D01*
X39649523Y-33186313D01*
X39886313Y-32949523D01*
X40164748Y-32763479D01*
X40474128Y-32635330D01*
X40583607Y-32613553D01*
X40802563Y-32570000D01*
X41137437Y-32570000D01*
X41356393Y-32613553D01*
X41356393Y-32613553D01*
G37*
G36*
X89616393Y-32613553D02*
X89725872Y-32635330D01*
X90035252Y-32763479D01*
X90313687Y-32949523D01*
X90550477Y-33186313D01*
X90736521Y-33464748D01*
X90808284Y-33638000D01*
X90864670Y-33774129D01*
X90930000Y-34102563D01*
X90930000Y-34437437D01*
X90909669Y-34539646D01*
X90864670Y-34765872D01*
X90736521Y-35075252D01*
X90550477Y-35353687D01*
X90313687Y-35590477D01*
X90035252Y-35776521D01*
X89725872Y-35904670D01*
X89616393Y-35926447D01*
X89397437Y-35970000D01*
X89062563Y-35970000D01*
X88843607Y-35926447D01*
X88734128Y-35904670D01*
X88424748Y-35776521D01*
X88146313Y-35590477D01*
X87909523Y-35353687D01*
X87723479Y-35075252D01*
X87595330Y-34765872D01*
X87550331Y-34539646D01*
X87530000Y-34437437D01*
X87530000Y-34102563D01*
X87595330Y-33774129D01*
X87651716Y-33638000D01*
X87723479Y-33464748D01*
X87909523Y-33186313D01*
X88146313Y-32949523D01*
X88424748Y-32763479D01*
X88734128Y-32635330D01*
X88843607Y-32613553D01*
X89062563Y-32570000D01*
X89397437Y-32570000D01*
X89616393Y-32613553D01*
X89616393Y-32613553D01*
G37*
G36*
X114772000Y-35238000D02*
X113472000Y-35238000D01*
X113472000Y-33638000D01*
X114772000Y-33638000D01*
X114772000Y-35238000D01*
X114772000Y-35238000D01*
G37*
G36*
X118453000Y-30855690D02*
X118448554Y-30858066D01*
X118429612Y-30873612D01*
X118414066Y-30892554D01*
X118402515Y-30914165D01*
X118395402Y-30937614D01*
X118393000Y-30962000D01*
X118393000Y-32412000D01*
X118395402Y-32436386D01*
X118402515Y-32459835D01*
X118414066Y-32481446D01*
X118429612Y-32500388D01*
X118448554Y-32515934D01*
X118453000Y-32518310D01*
X118453000Y-33637000D01*
X115553000Y-33637000D01*
X115553000Y-32518310D01*
X115557446Y-32515934D01*
X115576388Y-32500388D01*
X115591934Y-32481446D01*
X115603485Y-32459835D01*
X115610598Y-32436386D01*
X115613000Y-32412000D01*
X115613000Y-30962000D01*
X115610598Y-30937614D01*
X115603485Y-30914165D01*
X115591934Y-30892554D01*
X115576388Y-30873612D01*
X115557446Y-30858066D01*
X115553000Y-30855690D01*
X115553000Y-29737000D01*
X118453000Y-29737000D01*
X118453000Y-30855690D01*
X118453000Y-30855690D01*
G37*
G36*
X101259452Y-31249127D02*
X101397105Y-31276508D01*
X101569994Y-31348121D01*
X101725590Y-31452087D01*
X101857913Y-31584410D01*
X101961879Y-31740006D01*
X102033492Y-31912895D01*
X102070000Y-32096433D01*
X102070000Y-32283567D01*
X102033492Y-32467105D01*
X101961879Y-32639994D01*
X101857913Y-32795590D01*
X101725590Y-32927913D01*
X101569994Y-33031879D01*
X101397105Y-33103492D01*
X101259452Y-33130873D01*
X101213568Y-33140000D01*
X101026432Y-33140000D01*
X100980548Y-33130873D01*
X100842895Y-33103492D01*
X100670006Y-33031879D01*
X100514410Y-32927913D01*
X100382087Y-32795590D01*
X100278121Y-32639994D01*
X100206508Y-32467105D01*
X100170000Y-32283567D01*
X100170000Y-32096433D01*
X100206508Y-31912895D01*
X100278121Y-31740006D01*
X100382087Y-31584410D01*
X100514410Y-31452087D01*
X100670006Y-31348121D01*
X100842895Y-31276508D01*
X100980548Y-31249127D01*
X101026432Y-31240000D01*
X101213568Y-31240000D01*
X101259452Y-31249127D01*
X101259452Y-31249127D01*
G37*
G36*
X104259452Y-31249127D02*
X104397105Y-31276508D01*
X104569994Y-31348121D01*
X104725590Y-31452087D01*
X104857913Y-31584410D01*
X104961879Y-31740006D01*
X105033492Y-31912895D01*
X105070000Y-32096433D01*
X105070000Y-32283567D01*
X105033492Y-32467105D01*
X104961879Y-32639994D01*
X104857913Y-32795590D01*
X104725590Y-32927913D01*
X104569994Y-33031879D01*
X104397105Y-33103492D01*
X104259452Y-33130873D01*
X104213568Y-33140000D01*
X104026432Y-33140000D01*
X103980548Y-33130873D01*
X103842895Y-33103492D01*
X103670006Y-33031879D01*
X103514410Y-32927913D01*
X103382087Y-32795590D01*
X103278121Y-32639994D01*
X103206508Y-32467105D01*
X103170000Y-32283567D01*
X103170000Y-32096433D01*
X103206508Y-31912895D01*
X103278121Y-31740006D01*
X103382087Y-31584410D01*
X103514410Y-31452087D01*
X103670006Y-31348121D01*
X103842895Y-31276508D01*
X103980548Y-31249127D01*
X104026432Y-31240000D01*
X104213568Y-31240000D01*
X104259452Y-31249127D01*
X104259452Y-31249127D01*
G37*
G36*
X98259452Y-31249127D02*
X98397105Y-31276508D01*
X98569994Y-31348121D01*
X98725590Y-31452087D01*
X98857913Y-31584410D01*
X98961879Y-31740006D01*
X99033492Y-31912895D01*
X99070000Y-32096433D01*
X99070000Y-32283567D01*
X99033492Y-32467105D01*
X98961879Y-32639994D01*
X98857913Y-32795590D01*
X98725590Y-32927913D01*
X98569994Y-33031879D01*
X98397105Y-33103492D01*
X98259452Y-33130873D01*
X98213568Y-33140000D01*
X98026432Y-33140000D01*
X97980548Y-33130873D01*
X97842895Y-33103492D01*
X97670006Y-33031879D01*
X97514410Y-32927913D01*
X97382087Y-32795590D01*
X97278121Y-32639994D01*
X97206508Y-32467105D01*
X97170000Y-32283567D01*
X97170000Y-32096433D01*
X97206508Y-31912895D01*
X97278121Y-31740006D01*
X97382087Y-31584410D01*
X97514410Y-31452087D01*
X97670006Y-31348121D01*
X97842895Y-31276508D01*
X97980548Y-31249127D01*
X98026432Y-31240000D01*
X98213568Y-31240000D01*
X98259452Y-31249127D01*
X98259452Y-31249127D01*
G37*
G36*
X114772000Y-33038000D02*
X113472000Y-33038000D01*
X113472000Y-31438000D01*
X114772000Y-31438000D01*
X114772000Y-33038000D01*
X114772000Y-33038000D01*
G37*
G36*
X112994000Y-33038000D02*
X111694000Y-33038000D01*
X111694000Y-31438000D01*
X112994000Y-31438000D01*
X112994000Y-33038000D01*
X112994000Y-33038000D01*
G37*
G36*
X112994000Y-30838000D02*
X111694000Y-30838000D01*
X111694000Y-29238000D01*
X112994000Y-29238000D01*
X112994000Y-30838000D01*
X112994000Y-30838000D01*
G37*
G36*
X104259451Y-28249127D02*
X104397105Y-28276508D01*
X104569994Y-28348121D01*
X104725590Y-28452087D01*
X104857913Y-28584410D01*
X104961879Y-28740006D01*
X105033492Y-28912895D01*
X105070000Y-29096433D01*
X105070000Y-29283567D01*
X105033492Y-29467105D01*
X104961879Y-29639994D01*
X104857913Y-29795590D01*
X104725590Y-29927913D01*
X104569994Y-30031879D01*
X104397105Y-30103492D01*
X104259451Y-30130873D01*
X104213568Y-30140000D01*
X104026432Y-30140000D01*
X103980549Y-30130873D01*
X103842895Y-30103492D01*
X103670006Y-30031879D01*
X103514410Y-29927913D01*
X103382087Y-29795590D01*
X103278121Y-29639994D01*
X103206508Y-29467105D01*
X103170000Y-29283567D01*
X103170000Y-29096433D01*
X103206508Y-28912895D01*
X103278121Y-28740006D01*
X103382087Y-28584410D01*
X103514410Y-28452087D01*
X103670006Y-28348121D01*
X103842895Y-28276508D01*
X103980549Y-28249127D01*
X104026432Y-28240000D01*
X104213568Y-28240000D01*
X104259451Y-28249127D01*
X104259451Y-28249127D01*
G37*
G36*
X101259451Y-28249127D02*
X101397105Y-28276508D01*
X101569994Y-28348121D01*
X101725590Y-28452087D01*
X101857913Y-28584410D01*
X101961879Y-28740006D01*
X102033492Y-28912895D01*
X102070000Y-29096433D01*
X102070000Y-29283567D01*
X102033492Y-29467105D01*
X101961879Y-29639994D01*
X101857913Y-29795590D01*
X101725590Y-29927913D01*
X101569994Y-30031879D01*
X101397105Y-30103492D01*
X101259451Y-30130873D01*
X101213568Y-30140000D01*
X101026432Y-30140000D01*
X100980549Y-30130873D01*
X100842895Y-30103492D01*
X100670006Y-30031879D01*
X100514410Y-29927913D01*
X100382087Y-29795590D01*
X100278121Y-29639994D01*
X100206508Y-29467105D01*
X100170000Y-29283567D01*
X100170000Y-29096433D01*
X100206508Y-28912895D01*
X100278121Y-28740006D01*
X100382087Y-28584410D01*
X100514410Y-28452087D01*
X100670006Y-28348121D01*
X100842895Y-28276508D01*
X100980549Y-28249127D01*
X101026432Y-28240000D01*
X101213568Y-28240000D01*
X101259451Y-28249127D01*
X101259451Y-28249127D01*
G37*
G36*
X98259451Y-28249127D02*
X98397105Y-28276508D01*
X98569994Y-28348121D01*
X98725590Y-28452087D01*
X98857913Y-28584410D01*
X98961879Y-28740006D01*
X99033492Y-28912895D01*
X99070000Y-29096433D01*
X99070000Y-29283567D01*
X99033492Y-29467105D01*
X98961879Y-29639994D01*
X98857913Y-29795590D01*
X98725590Y-29927913D01*
X98569994Y-30031879D01*
X98397105Y-30103492D01*
X98259451Y-30130873D01*
X98213568Y-30140000D01*
X98026432Y-30140000D01*
X97980549Y-30130873D01*
X97842895Y-30103492D01*
X97670006Y-30031879D01*
X97514410Y-29927913D01*
X97382087Y-29795590D01*
X97278121Y-29639994D01*
X97206508Y-29467105D01*
X97170000Y-29283567D01*
X97170000Y-29096433D01*
X97206508Y-28912895D01*
X97278121Y-28740006D01*
X97382087Y-28584410D01*
X97514410Y-28452087D01*
X97670006Y-28348121D01*
X97842895Y-28276508D01*
X97980549Y-28249127D01*
X98026432Y-28240000D01*
X98213568Y-28240000D01*
X98259451Y-28249127D01*
X98259451Y-28249127D01*
G37*
G36*
X118308000Y-28062000D02*
X116708000Y-28062000D01*
X116708000Y-26762000D01*
X118308000Y-26762000D01*
X118308000Y-28062000D01*
X118308000Y-28062000D01*
G37*
G36*
X113228000Y-28062000D02*
X111628000Y-28062000D01*
X111628000Y-26762000D01*
X113228000Y-26762000D01*
X113228000Y-28062000D01*
X113228000Y-28062000D01*
G37*
G36*
X116108000Y-28062000D02*
X114508000Y-28062000D01*
X114508000Y-26762000D01*
X116108000Y-26762000D01*
X116108000Y-28062000D01*
X116108000Y-28062000D01*
G37*
G36*
X111028000Y-28062000D02*
X109428000Y-28062000D01*
X109428000Y-26762000D01*
X111028000Y-26762000D01*
X111028000Y-28062000D01*
X111028000Y-28062000D01*
G37*
G36*
X101630456Y-23187251D02*
X101948936Y-23319170D01*
X102235560Y-23510686D01*
X102479314Y-23754440D01*
X102670830Y-24041064D01*
X102802749Y-24359544D01*
X102870000Y-24697640D01*
X102870000Y-25042360D01*
X102802749Y-25380456D01*
X102670830Y-25698936D01*
X102479314Y-25985560D01*
X102235560Y-26229314D01*
X101948936Y-26420830D01*
X101630456Y-26552749D01*
X101292360Y-26620000D01*
X100947640Y-26620000D01*
X100609544Y-26552749D01*
X100291064Y-26420830D01*
X100004440Y-26229314D01*
X99760686Y-25985560D01*
X99569170Y-25698936D01*
X99437251Y-25380456D01*
X99370000Y-25042360D01*
X99370000Y-24697640D01*
X99437251Y-24359544D01*
X99569170Y-24041064D01*
X99760686Y-23754440D01*
X100004440Y-23510686D01*
X100291064Y-23319170D01*
X100609544Y-23187251D01*
X100947640Y-23120000D01*
X101292360Y-23120000D01*
X101630456Y-23187251D01*
X101630456Y-23187251D01*
G37*
G36*
X119748000Y-25522000D02*
X118148000Y-25522000D01*
X118148000Y-24222000D01*
X119748000Y-24222000D01*
X119748000Y-25522000D01*
X119748000Y-25522000D01*
G37*
G36*
X117548000Y-25522000D02*
X115948000Y-25522000D01*
X115948000Y-24222000D01*
X117548000Y-24222000D01*
X117548000Y-25522000D01*
X117548000Y-25522000D01*
G37*
G36*
X111028000Y-25522000D02*
X109428000Y-25522000D01*
X109428000Y-24222000D01*
X111028000Y-24222000D01*
X111028000Y-25522000D01*
X111028000Y-25522000D01*
G37*
G36*
X113228000Y-25522000D02*
X111628000Y-25522000D01*
X111628000Y-24222000D01*
X113228000Y-24222000D01*
X113228000Y-25522000D01*
X113228000Y-25522000D01*
G37*
G36*
X84180000Y-22705782D02*
X84182402Y-22730168D01*
X84189515Y-22753617D01*
X84201066Y-22775228D01*
X84216612Y-22794170D01*
X84235554Y-22809716D01*
X84257165Y-22821267D01*
X84280614Y-22828380D01*
X84305000Y-22830782D01*
X84329386Y-22828380D01*
X84352835Y-22821267D01*
X84374446Y-22809716D01*
X84393388Y-22794170D01*
X84408933Y-22775230D01*
X84410226Y-22773295D01*
X84591295Y-22592226D01*
X84804220Y-22449954D01*
X85040804Y-22351958D01*
X85291960Y-22302000D01*
X85548040Y-22302000D01*
X85799196Y-22351958D01*
X86035780Y-22449954D01*
X86248705Y-22592226D01*
X86429774Y-22773295D01*
X86572047Y-22986221D01*
X86574515Y-22992180D01*
X86586066Y-23013791D01*
X86601611Y-23032733D01*
X86620553Y-23048279D01*
X86642163Y-23059830D01*
X86665612Y-23066944D01*
X86689999Y-23069346D01*
X86714385Y-23066944D01*
X86737834Y-23059831D01*
X86759445Y-23048280D01*
X86778387Y-23032735D01*
X86793933Y-23013793D01*
X86805485Y-22992180D01*
X86807953Y-22986221D01*
X86950226Y-22773295D01*
X87131295Y-22592226D01*
X87344220Y-22449954D01*
X87580804Y-22351958D01*
X87831960Y-22302000D01*
X88088040Y-22302000D01*
X88339196Y-22351958D01*
X88575780Y-22449954D01*
X88788705Y-22592226D01*
X88969774Y-22773295D01*
X89112047Y-22986221D01*
X89114515Y-22992180D01*
X89126066Y-23013791D01*
X89141611Y-23032733D01*
X89160553Y-23048279D01*
X89182163Y-23059830D01*
X89205612Y-23066944D01*
X89229999Y-23069346D01*
X89254385Y-23066944D01*
X89277834Y-23059831D01*
X89299445Y-23048280D01*
X89318387Y-23032735D01*
X89333933Y-23013793D01*
X89345485Y-22992180D01*
X89347953Y-22986221D01*
X89490226Y-22773295D01*
X89671295Y-22592226D01*
X89884220Y-22449954D01*
X90120804Y-22351958D01*
X90371960Y-22302000D01*
X90628040Y-22302000D01*
X90879196Y-22351958D01*
X91115780Y-22449954D01*
X91328705Y-22592226D01*
X91509774Y-22773295D01*
X91652046Y-22986220D01*
X91750042Y-23222804D01*
X91800000Y-23473960D01*
X91800000Y-23730040D01*
X91750042Y-23981196D01*
X91652046Y-24217780D01*
X91509774Y-24430705D01*
X91328705Y-24611774D01*
X91115780Y-24754046D01*
X90879196Y-24852042D01*
X90628040Y-24902000D01*
X90371960Y-24902000D01*
X90120804Y-24852042D01*
X89884220Y-24754046D01*
X89671295Y-24611774D01*
X89490226Y-24430705D01*
X89347953Y-24217779D01*
X89345485Y-24211820D01*
X89333934Y-24190209D01*
X89318389Y-24171267D01*
X89299447Y-24155721D01*
X89277837Y-24144170D01*
X89254388Y-24137056D01*
X89230001Y-24134654D01*
X89205615Y-24137056D01*
X89182166Y-24144169D01*
X89160555Y-24155720D01*
X89141613Y-24171265D01*
X89126067Y-24190207D01*
X89114515Y-24211820D01*
X89112047Y-24217779D01*
X88969774Y-24430705D01*
X88788705Y-24611774D01*
X88575780Y-24754046D01*
X88339196Y-24852042D01*
X88088040Y-24902000D01*
X87831960Y-24902000D01*
X87580804Y-24852042D01*
X87344220Y-24754046D01*
X87131295Y-24611774D01*
X86950226Y-24430705D01*
X86807953Y-24217779D01*
X86805485Y-24211820D01*
X86793934Y-24190209D01*
X86778389Y-24171267D01*
X86759447Y-24155721D01*
X86737837Y-24144170D01*
X86714388Y-24137056D01*
X86690001Y-24134654D01*
X86665615Y-24137056D01*
X86642166Y-24144169D01*
X86620555Y-24155720D01*
X86601613Y-24171265D01*
X86586067Y-24190207D01*
X86574515Y-24211820D01*
X86572047Y-24217779D01*
X86429774Y-24430705D01*
X86248705Y-24611774D01*
X86035780Y-24754046D01*
X85799196Y-24852042D01*
X85548040Y-24902000D01*
X85291960Y-24902000D01*
X85040804Y-24852042D01*
X84804220Y-24754046D01*
X84591295Y-24611774D01*
X84410226Y-24430705D01*
X84408933Y-24428770D01*
X84393387Y-24409828D01*
X84374445Y-24394283D01*
X84352834Y-24382732D01*
X84329384Y-24375619D01*
X84304998Y-24373218D01*
X84280612Y-24375620D01*
X84257163Y-24382734D01*
X84235552Y-24394285D01*
X84216610Y-24409831D01*
X84201065Y-24428773D01*
X84189514Y-24450384D01*
X84182401Y-24473834D01*
X84180000Y-24498218D01*
X84180000Y-24902000D01*
X81580000Y-24902000D01*
X81580000Y-22302000D01*
X84180000Y-22302000D01*
X84180000Y-22705782D01*
X84180000Y-22705782D01*
G37*
G36*
X117338000Y-23157000D02*
X115438000Y-23157000D01*
X115438000Y-21507000D01*
X117338000Y-21507000D01*
X117338000Y-23157000D01*
X117338000Y-23157000D01*
G37*
G36*
X114838000Y-23157000D02*
X112938000Y-23157000D01*
X112938000Y-21507000D01*
X114838000Y-21507000D01*
X114838000Y-23157000D01*
X114838000Y-23157000D01*
G37*
M02*
