G04 #@! TF.GenerationSoftware,KiCad,Pcbnew,(5.0.1)-3*
G04 #@! TF.CreationDate,2018-11-19T22:52:35-06:00*
G04 #@! TF.ProjectId,19-ELC-2700(Telemetry),31392D454C432D323730302854656C65,rev?*
G04 #@! TF.SameCoordinates,Original*
G04 #@! TF.FileFunction,Copper,L2,Bot,Signal*
G04 #@! TF.FilePolarity,Positive*
%FSLAX46Y46*%
G04 Gerber Fmt 4.6, Leading zero omitted, Abs format (unit mm)*
G04 Created by KiCad (PCBNEW (5.0.1)-3) date 11/19/2018 10:52:35 PM*
%MOMM*%
%LPD*%
G01*
G04 APERTURE LIST*
G04 #@! TA.AperFunction,ComponentPad*
%ADD10O,1.727200X1.727200*%
G04 #@! TD*
G04 #@! TA.AperFunction,ComponentPad*
%ADD11R,1.727200X1.727200*%
G04 #@! TD*
G04 #@! TA.AperFunction,ComponentPad*
%ADD12C,1.500000*%
G04 #@! TD*
G04 #@! TA.AperFunction,WasherPad*
%ADD13C,2.300000*%
G04 #@! TD*
G04 #@! TA.AperFunction,ComponentPad*
%ADD14C,2.500000*%
G04 #@! TD*
G04 #@! TA.AperFunction,ComponentPad*
%ADD15R,1.700000X1.700000*%
G04 #@! TD*
G04 #@! TA.AperFunction,ComponentPad*
%ADD16O,1.700000X1.700000*%
G04 #@! TD*
G04 #@! TA.AperFunction,ComponentPad*
%ADD17R,2.032000X2.032000*%
G04 #@! TD*
G04 #@! TA.AperFunction,ComponentPad*
%ADD18O,2.032000X2.032000*%
G04 #@! TD*
G04 #@! TA.AperFunction,ComponentPad*
%ADD19C,2.032000*%
G04 #@! TD*
G04 #@! TA.AperFunction,WasherPad*
%ADD20C,3.048000*%
G04 #@! TD*
G04 #@! TA.AperFunction,ComponentPad*
%ADD21R,2.200000X2.200000*%
G04 #@! TD*
G04 #@! TA.AperFunction,ComponentPad*
%ADD22C,2.200000*%
G04 #@! TD*
G04 #@! TA.AperFunction,ViaPad*
%ADD23C,0.800000*%
G04 #@! TD*
G04 #@! TA.AperFunction,Conductor*
%ADD24C,0.250000*%
G04 #@! TD*
G04 #@! TA.AperFunction,Conductor*
%ADD25C,0.254000*%
G04 #@! TD*
G04 APERTURE END LIST*
D10*
G04 #@! TO.P,J1,P9_46*
G04 #@! TO.N,GND*
X42240000Y-95230000D03*
G04 #@! TO.P,J1,P9_45*
X39700000Y-95230000D03*
G04 #@! TO.P,J1,P9_44*
X42240000Y-92690000D03*
G04 #@! TO.P,J1,P9_43*
X39700000Y-92690000D03*
G04 #@! TO.P,J1,P9_42*
G04 #@! TO.N,Net-(J1-PadP9_42)*
X42240000Y-90150000D03*
G04 #@! TO.P,J1,P9_41*
G04 #@! TO.N,Net-(J1-PadP9_41)*
X39700000Y-90150000D03*
G04 #@! TO.P,J1,P9_40*
G04 #@! TO.N,Net-(J1-PadP9_40)*
X42240000Y-87610000D03*
G04 #@! TO.P,J1,P9_39*
G04 #@! TO.N,Net-(J1-PadP9_39)*
X39700000Y-87610000D03*
G04 #@! TO.P,J1,P9_38*
G04 #@! TO.N,Net-(J1-PadP9_38)*
X42240000Y-85070000D03*
G04 #@! TO.P,J1,P9_37*
G04 #@! TO.N,Net-(J1-PadP9_37)*
X39700000Y-85070000D03*
G04 #@! TO.P,J1,P9_36*
G04 #@! TO.N,Net-(J1-PadP9_36)*
X42240000Y-82530000D03*
G04 #@! TO.P,J1,P9_35*
G04 #@! TO.N,Net-(J1-PadP9_35)*
X39700000Y-82530000D03*
G04 #@! TO.P,J1,P9_34*
G04 #@! TO.N,Net-(J1-PadP9_34)*
X42240000Y-79990000D03*
G04 #@! TO.P,J1,P9_33*
G04 #@! TO.N,Net-(J1-PadP9_33)*
X39700000Y-79990000D03*
G04 #@! TO.P,J1,P9_32*
G04 #@! TO.N,Net-(J1-PadP9_32)*
X42240000Y-77450000D03*
G04 #@! TO.P,J1,P9_31*
G04 #@! TO.N,/SW2*
X39700000Y-77450000D03*
G04 #@! TO.P,J1,P9_30*
G04 #@! TO.N,/SW1*
X42240000Y-74910000D03*
G04 #@! TO.P,J1,P9_29*
G04 #@! TO.N,/LED2*
X39700000Y-74910000D03*
G04 #@! TO.P,J1,P9_28*
G04 #@! TO.N,/LED1*
X42240000Y-72370000D03*
G04 #@! TO.P,J1,P9_27*
G04 #@! TO.N,/LED0*
X39700000Y-72370000D03*
G04 #@! TO.P,J1,P9_26*
G04 #@! TO.N,/CANTX*
X42240000Y-69830000D03*
G04 #@! TO.P,J1,P9_25*
G04 #@! TO.N,Net-(J1-PadP9_25)*
X39700000Y-69830000D03*
G04 #@! TO.P,J1,P9_24*
G04 #@! TO.N,/CANRX*
X42240000Y-67290000D03*
G04 #@! TO.P,J1,P9_23*
G04 #@! TO.N,Net-(J1-PadP9_23)*
X39700000Y-67290000D03*
G04 #@! TO.P,J1,P9_22*
G04 #@! TO.N,/GPSRX*
X42240000Y-64750000D03*
G04 #@! TO.P,J1,P9_21*
G04 #@! TO.N,/GPSTX*
X39700000Y-64750000D03*
G04 #@! TO.P,J1,P9_20*
G04 #@! TO.N,/I2Ccom*
X42240000Y-62210000D03*
G04 #@! TO.P,J1,P9_19*
G04 #@! TO.N,/I2Cclk*
X39700000Y-62210000D03*
G04 #@! TO.P,J1,P9_18*
G04 #@! TO.N,Net-(J1-PadP9_18)*
X42240000Y-59670000D03*
G04 #@! TO.P,J1,P9_17*
G04 #@! TO.N,Net-(J1-PadP9_17)*
X39700000Y-59670000D03*
G04 #@! TO.P,J1,P9_16*
G04 #@! TO.N,Net-(J1-PadP9_16)*
X42240000Y-57130000D03*
G04 #@! TO.P,J1,P9_15*
G04 #@! TO.N,Net-(J1-PadP9_15)*
X39700000Y-57130000D03*
G04 #@! TO.P,J1,P9_14*
G04 #@! TO.N,Net-(J1-PadP9_14)*
X42240000Y-54590000D03*
G04 #@! TO.P,J1,P9_13*
G04 #@! TO.N,/UART_TX*
X39700000Y-54590000D03*
G04 #@! TO.P,J1,P9_12*
G04 #@! TO.N,Net-(J1-PadP9_12)*
X42240000Y-52050000D03*
G04 #@! TO.P,J1,P9_11*
G04 #@! TO.N,/UART_RX*
X39700000Y-52050000D03*
G04 #@! TO.P,J1,P9_10*
G04 #@! TO.N,Net-(J1-PadP9_10)*
X42240000Y-49510000D03*
G04 #@! TO.P,J1,P9_9*
G04 #@! TO.N,Net-(J1-PadP9_9)*
X39700000Y-49510000D03*
G04 #@! TO.P,J1,P9_8*
G04 #@! TO.N,Net-(J1-PadP9_8)*
X42240000Y-46970000D03*
G04 #@! TO.P,J1,P9_7*
G04 #@! TO.N,Net-(J1-PadP9_7)*
X39700000Y-46970000D03*
G04 #@! TO.P,J1,P9_6*
G04 #@! TO.N,+5V*
X42240000Y-44430000D03*
G04 #@! TO.P,J1,P9_5*
X39700000Y-44430000D03*
G04 #@! TO.P,J1,P9_4*
G04 #@! TO.N,+3V3*
X42240000Y-41890000D03*
G04 #@! TO.P,J1,P9_3*
X39700000Y-41890000D03*
G04 #@! TO.P,J1,P9_2*
G04 #@! TO.N,GND*
X42240000Y-39350000D03*
D11*
G04 #@! TO.P,J1,P9_1*
X39700000Y-39350000D03*
D10*
G04 #@! TO.P,J1,P8_25*
G04 #@! TO.N,Net-(J1-PadP8_25)*
X87960000Y-69830000D03*
G04 #@! TO.P,J1,P8_10*
G04 #@! TO.N,Net-(J1-PadP8_10)*
X90500000Y-49510000D03*
G04 #@! TO.P,J1,P8_37*
G04 #@! TO.N,Net-(J1-PadP8_37)*
X87960000Y-85070000D03*
G04 #@! TO.P,J1,P8_18*
G04 #@! TO.N,Net-(J1-PadP8_18)*
X90500000Y-59670000D03*
G04 #@! TO.P,J1,P8_39*
G04 #@! TO.N,Net-(J1-PadP8_39)*
X87960000Y-87610000D03*
G04 #@! TO.P,J1,P8_27*
G04 #@! TO.N,Net-(J1-PadP8_27)*
X87960000Y-72370000D03*
G04 #@! TO.P,J1,P8_15*
G04 #@! TO.N,Net-(J1-PadP8_15)*
X87960000Y-57130000D03*
G04 #@! TO.P,J1,P8_11*
G04 #@! TO.N,Net-(J1-PadP8_11)*
X87960000Y-52050000D03*
G04 #@! TO.P,J1,P8_4*
G04 #@! TO.N,Net-(J1-PadP8_4)*
X90500000Y-41890000D03*
G04 #@! TO.P,J1,P8_31*
G04 #@! TO.N,Net-(J1-PadP8_31)*
X87960000Y-77450000D03*
G04 #@! TO.P,J1,P8_17*
G04 #@! TO.N,Net-(J1-PadP8_17)*
X87960000Y-59670000D03*
G04 #@! TO.P,J1,P8_7*
G04 #@! TO.N,Net-(J1-PadP8_7)*
X87960000Y-46970000D03*
G04 #@! TO.P,J1,P8_40*
G04 #@! TO.N,Net-(J1-PadP8_40)*
X90500000Y-87610000D03*
G04 #@! TO.P,J1,P8_46*
G04 #@! TO.N,Net-(J1-PadP8_46)*
X90500000Y-95230000D03*
G04 #@! TO.P,J1,P8_29*
G04 #@! TO.N,Net-(J1-PadP8_29)*
X87960000Y-74910000D03*
G04 #@! TO.P,J1,P8_12*
G04 #@! TO.N,Net-(J1-PadP8_12)*
X90500000Y-52050000D03*
G04 #@! TO.P,J1,P8_43*
G04 #@! TO.N,Net-(J1-PadP8_43)*
X87960000Y-92690000D03*
G04 #@! TO.P,J1,P8_42*
G04 #@! TO.N,Net-(J1-PadP8_42)*
X90500000Y-90150000D03*
G04 #@! TO.P,J1,P8_45*
G04 #@! TO.N,Net-(J1-PadP8_45)*
X87960000Y-95230000D03*
G04 #@! TO.P,J1,P8_34*
G04 #@! TO.N,Net-(J1-PadP8_34)*
X90500000Y-79990000D03*
G04 #@! TO.P,J1,P8_22*
G04 #@! TO.N,Net-(J1-PadP8_22)*
X90500000Y-64750000D03*
G04 #@! TO.P,J1,P8_6*
G04 #@! TO.N,Net-(J1-PadP8_6)*
X90500000Y-44430000D03*
G04 #@! TO.P,J1,P8_24*
G04 #@! TO.N,Net-(J1-PadP8_24)*
X90500000Y-67290000D03*
G04 #@! TO.P,J1,P8_8*
G04 #@! TO.N,Net-(J1-PadP8_8)*
X90500000Y-46970000D03*
G04 #@! TO.P,J1,P8_5*
G04 #@! TO.N,Net-(J1-PadP8_5)*
X87960000Y-44430000D03*
G04 #@! TO.P,J1,P8_3*
G04 #@! TO.N,Net-(J1-PadP8_3)*
X87960000Y-41890000D03*
G04 #@! TO.P,J1,P8_2*
G04 #@! TO.N,GND*
X90500000Y-39350000D03*
D11*
G04 #@! TO.P,J1,P8_1*
X87960000Y-39350000D03*
D10*
G04 #@! TO.P,J1,P8_38*
G04 #@! TO.N,Net-(J1-PadP8_38)*
X90500000Y-85070000D03*
G04 #@! TO.P,J1,P8_36*
G04 #@! TO.N,Net-(J1-PadP8_36)*
X90500000Y-82530000D03*
G04 #@! TO.P,J1,P8_23*
G04 #@! TO.N,Net-(J1-PadP8_23)*
X87960000Y-67290000D03*
G04 #@! TO.P,J1,P8_20*
G04 #@! TO.N,Net-(J1-PadP8_20)*
X90500000Y-62210000D03*
G04 #@! TO.P,J1,P8_9*
G04 #@! TO.N,Net-(J1-PadP8_9)*
X87960000Y-49510000D03*
G04 #@! TO.P,J1,P8_33*
G04 #@! TO.N,Net-(J1-PadP8_33)*
X87960000Y-79990000D03*
G04 #@! TO.P,J1,P8_28*
G04 #@! TO.N,Net-(J1-PadP8_28)*
X90500000Y-72370000D03*
G04 #@! TO.P,J1,P8_16*
G04 #@! TO.N,Net-(J1-PadP8_16)*
X90500000Y-57130000D03*
G04 #@! TO.P,J1,P8_14*
G04 #@! TO.N,Net-(J1-PadP8_14)*
X90500000Y-54590000D03*
G04 #@! TO.P,J1,P8_19*
G04 #@! TO.N,Net-(J1-PadP8_19)*
X87960000Y-62210000D03*
G04 #@! TO.P,J1,P8_41*
G04 #@! TO.N,Net-(J1-PadP8_41)*
X87960000Y-90150000D03*
G04 #@! TO.P,J1,P8_30*
G04 #@! TO.N,Net-(J1-PadP8_30)*
X90500000Y-74910000D03*
G04 #@! TO.P,J1,P8_44*
G04 #@! TO.N,Net-(J1-PadP8_44)*
X90500000Y-92690000D03*
G04 #@! TO.P,J1,P8_26*
G04 #@! TO.N,Net-(J1-PadP8_26)*
X90500000Y-69830000D03*
G04 #@! TO.P,J1,P8_35*
G04 #@! TO.N,Net-(J1-PadP8_35)*
X87960000Y-82530000D03*
G04 #@! TO.P,J1,P8_32*
G04 #@! TO.N,Net-(J1-PadP8_32)*
X90500000Y-77450000D03*
G04 #@! TO.P,J1,P8_21*
G04 #@! TO.N,Net-(J1-PadP8_21)*
X87960000Y-64750000D03*
G04 #@! TO.P,J1,P8_13*
G04 #@! TO.N,Net-(J1-PadP8_13)*
X87960000Y-54590000D03*
G04 #@! TD*
D12*
G04 #@! TO.P,J3,1*
G04 #@! TO.N,/12V_RAW*
X98120000Y-29190000D03*
G04 #@! TO.P,J3,4*
G04 #@! TO.N,/CANHigh*
X98120000Y-32190000D03*
G04 #@! TO.P,J3,5*
G04 #@! TO.N,/CANLow*
X101120000Y-32190000D03*
G04 #@! TO.P,J3,2*
G04 #@! TO.N,GND*
X101120000Y-29190000D03*
G04 #@! TO.P,J3,6*
G04 #@! TO.N,/CANHigh*
X104120000Y-32190000D03*
G04 #@! TO.P,J3,3*
G04 #@! TO.N,/CANLow*
X104120000Y-29190000D03*
G04 #@! TD*
D13*
G04 #@! TO.P,U1,*
G04 #@! TO.N,*
X118988000Y-35736000D03*
X118988000Y-52236000D03*
D14*
G04 #@! TO.P,U1,5*
G04 #@! TO.N,+12V*
X116488000Y-43986000D03*
G04 #@! TO.P,U1,4*
G04 #@! TO.N,Net-(U1-Pad4)*
X116488000Y-39986000D03*
G04 #@! TO.P,U1,6*
G04 #@! TO.N,/12V to 5V Converter/12V_IN*
X116488000Y-47986000D03*
G04 #@! TO.P,U1,3*
G04 #@! TO.N,Net-(U1-Pad3)*
X121488000Y-47986000D03*
G04 #@! TO.P,U1,2*
G04 #@! TO.N,Net-(U1-Pad2)*
X121488000Y-43986000D03*
G04 #@! TO.P,U1,1*
G04 #@! TO.N,Net-(U1-Pad1)*
X121488000Y-39986000D03*
G04 #@! TD*
D15*
G04 #@! TO.P,J2,1*
G04 #@! TO.N,+3V3*
X46990000Y-57150000D03*
D16*
G04 #@! TO.P,J2,2*
G04 #@! TO.N,/UART_TX*
X46990000Y-54610000D03*
G04 #@! TO.P,J2,3*
G04 #@! TO.N,/UART_RX*
X46990000Y-52070000D03*
G04 #@! TO.P,J2,4*
G04 #@! TO.N,GND*
X46990000Y-49530000D03*
G04 #@! TD*
D17*
G04 #@! TO.P,JP1,1*
G04 #@! TO.N,/CANHigh*
X95580000Y-85070000D03*
D18*
G04 #@! TO.P,JP1,2*
G04 #@! TO.N,Net-(JP1-Pad2)*
X95580000Y-82530000D03*
G04 #@! TD*
D19*
G04 #@! TO.P,U3,9*
G04 #@! TO.N,Net-(U3-Pad9)*
X100660000Y-95738000D03*
D20*
G04 #@! TO.P,U3,*
G04 #@! TO.N,*
X120980000Y-66274000D03*
X100660000Y-66274000D03*
D19*
G04 #@! TO.P,U3,8*
G04 #@! TO.N,+5V*
X103200000Y-95738000D03*
G04 #@! TO.P,U3,7*
G04 #@! TO.N,GND*
X105740000Y-95738000D03*
G04 #@! TO.P,U3,6*
G04 #@! TO.N,/GPSTX*
X108280000Y-95738000D03*
G04 #@! TO.P,U3,5*
G04 #@! TO.N,/GPSRX*
X110820000Y-95738000D03*
G04 #@! TO.P,U3,4*
G04 #@! TO.N,Net-(U3-Pad4)*
X113360000Y-95738000D03*
G04 #@! TO.P,U3,3*
G04 #@! TO.N,+BATT*
X115900000Y-95738000D03*
G04 #@! TO.P,U3,2*
G04 #@! TO.N,Net-(U3-Pad2)*
X118440000Y-95738000D03*
G04 #@! TO.P,U3,1*
G04 #@! TO.N,Net-(U3-Pad1)*
X120980000Y-95738000D03*
G04 #@! TD*
D21*
G04 #@! TO.P,J4,1*
G04 #@! TO.N,/CANHigh*
X82880000Y-23602000D03*
D22*
G04 #@! TO.P,J4,2*
G04 #@! TO.N,/CANLow*
X85420000Y-23602000D03*
G04 #@! TO.P,J4,3*
G04 #@! TO.N,/12V_RAW*
X87960000Y-23602000D03*
G04 #@! TO.P,J4,4*
G04 #@! TO.N,GND*
X90500000Y-23602000D03*
G04 #@! TD*
D23*
G04 #@! TO.N,GND*
X101422000Y-54336000D03*
X102946000Y-54336000D03*
X107518000Y-45700000D03*
X110820000Y-44176000D03*
X109296000Y-44176000D03*
X104978000Y-46462000D03*
X103962000Y-46462000D03*
X102946000Y-46462000D03*
X102946000Y-45446000D03*
X103962000Y-45446000D03*
X104978000Y-45446000D03*
X104978000Y-44430000D03*
X103962000Y-44430000D03*
X102946000Y-44430000D03*
X46050000Y-83800000D03*
X73736000Y-48240000D03*
X72466000Y-55860000D03*
X51040000Y-69105000D03*
X72085000Y-101580000D03*
X107518000Y-44176000D03*
X102184000Y-53320000D03*
X114155000Y-86340000D03*
X99517000Y-41255000D03*
X50495058Y-74910000D03*
X110312000Y-28936000D03*
X117003000Y-31687000D03*
X118186000Y-31730000D03*
X115646000Y-31730000D03*
G04 #@! TO.N,+3V3*
X51130000Y-85070000D03*
X51765000Y-71735000D03*
X51765000Y-60296399D03*
X68021000Y-55860000D03*
X63576000Y-55860000D03*
X51130000Y-88245008D03*
X47320000Y-45446000D03*
X113313294Y-81584060D03*
X111327990Y-80244000D03*
X93040000Y-79228000D03*
X86944000Y-78720000D03*
X45542000Y-43575990D03*
G04 #@! TO.N,+BATT*
X117170000Y-87610000D03*
X117170000Y-81260000D03*
X113868000Y-80752000D03*
X112089992Y-79228000D03*
X93040000Y-76688000D03*
X86944000Y-76180000D03*
G04 #@! TO.N,+5V*
X62306000Y-101580000D03*
X62306000Y-96354001D03*
G04 #@! TO.N,/GPSRX*
X100660000Y-93960000D03*
X110185000Y-93325000D03*
G04 #@! TO.N,/GPSTX*
X100660000Y-92690000D03*
X106375000Y-92690000D03*
G04 #@! TO.N,/I2Ccom*
X66751000Y-51415000D03*
X66751000Y-53955000D03*
G04 #@! TO.N,/CANHigh*
X114388794Y-50005609D03*
X113106000Y-83292010D03*
X114376000Y-45700000D03*
X116408000Y-80244000D03*
G04 #@! TO.N,/CANLow*
X112333040Y-82657527D03*
X113360000Y-45700000D03*
X115575951Y-79689276D03*
X107264000Y-31465000D03*
X108534000Y-32999978D03*
X113363540Y-50005543D03*
G04 #@! TO.N,/He Protec/OVLO*
X117403000Y-29226548D03*
X115138000Y-29317000D03*
G04 #@! TO.N,+12V*
X117350000Y-64750000D03*
X86436000Y-81768000D03*
X69164000Y-95693601D03*
X68910000Y-101580000D03*
X115392000Y-66528000D03*
X93040000Y-81006000D03*
G04 #@! TD*
D24*
G04 #@! TO.N,GND*
X117003000Y-31687000D02*
X115689000Y-31687000D01*
X115689000Y-31687000D02*
X115646000Y-31730000D01*
G04 #@! TO.N,+3V3*
X51765000Y-71735000D02*
X51765000Y-60296399D01*
X68021000Y-55860000D02*
X63576000Y-55860000D01*
X51130000Y-85070000D02*
X51130000Y-88245008D01*
X111893675Y-80244000D02*
X111327990Y-80244000D01*
X113313294Y-81584060D02*
X111973234Y-80244000D01*
X111973234Y-80244000D02*
X111893675Y-80244000D01*
X93040000Y-79228000D02*
X92532000Y-78720000D01*
X92532000Y-78720000D02*
X86944000Y-78720000D01*
X47320000Y-45446000D02*
X45542000Y-43668000D01*
X45542000Y-43668000D02*
X45542000Y-43575990D01*
G04 #@! TO.N,+BATT*
X117170000Y-87610000D02*
X117170000Y-81260000D01*
X112344000Y-79228000D02*
X112089992Y-79228000D01*
X113868000Y-80752000D02*
X112344000Y-79228000D01*
X87025399Y-76261399D02*
X86944000Y-76180000D01*
X93040000Y-76688000D02*
X92613399Y-76261399D01*
X92613399Y-76261399D02*
X87025399Y-76261399D01*
G04 #@! TO.N,+5V*
X61290000Y-100564000D02*
X62306000Y-101580000D01*
X61290000Y-97370001D02*
X61290000Y-100564000D01*
X62306000Y-96354001D02*
X61290000Y-97370001D01*
G04 #@! TO.N,/GPSRX*
X100660000Y-93960000D02*
X109550000Y-93960000D01*
X109550000Y-93960000D02*
X110185000Y-93325000D01*
G04 #@! TO.N,/GPSTX*
X100660000Y-92690000D02*
X106375000Y-92690000D01*
G04 #@! TO.N,/I2Ccom*
X66751000Y-51415000D02*
X66751000Y-53955000D01*
G04 #@! TO.N,/CANHigh*
X114388794Y-50005609D02*
X114388794Y-45712794D01*
X114388794Y-45712794D02*
X114376000Y-45700000D01*
X113359990Y-83292010D02*
X116408000Y-80244000D01*
X113106000Y-83292010D02*
X113359990Y-83292010D01*
G04 #@! TO.N,/CANLow*
X115575951Y-80394405D02*
X115575951Y-80254961D01*
X112681506Y-82309061D02*
X113661295Y-82309061D01*
X112333040Y-82657527D02*
X112681506Y-82309061D01*
X115575951Y-80254961D02*
X115575951Y-79689276D01*
X113661295Y-82309061D02*
X115575951Y-80394405D01*
X107264000Y-31465000D02*
X108534000Y-32735000D01*
X108534000Y-32735000D02*
X108534000Y-32999978D01*
X113360000Y-50002003D02*
X113363540Y-50005543D01*
X113360000Y-45700000D02*
X113360000Y-50002003D01*
G04 #@! TO.N,/He Protec/OVLO*
X117403000Y-29226548D02*
X115228452Y-29226548D01*
X115228452Y-29226548D02*
X115138000Y-29317000D01*
G04 #@! TO.N,+12V*
X68402000Y-101072000D02*
X68910000Y-101580000D01*
X69164000Y-95693601D02*
X68402000Y-96455601D01*
X68402000Y-96455601D02*
X68402000Y-101072000D01*
X117350000Y-64750000D02*
X115572000Y-66528000D01*
X115572000Y-66528000D02*
X115392000Y-66528000D01*
X92474315Y-81006000D02*
X93040000Y-81006000D01*
X86944000Y-81260000D02*
X92220315Y-81260000D01*
X92220315Y-81260000D02*
X92474315Y-81006000D01*
X86436000Y-81768000D02*
X86944000Y-81260000D01*
G04 #@! TD*
D25*
G04 #@! TO.N,GND*
G36*
X55393698Y-20437958D02*
X55818893Y-20606305D01*
X56188858Y-20875101D01*
X56480356Y-21227462D01*
X56675067Y-21641244D01*
X56767093Y-22123662D01*
X56770001Y-22216195D01*
X56770000Y-40689925D01*
X56772193Y-40700950D01*
X56775362Y-40801789D01*
X56777117Y-40812872D01*
X56776413Y-40824068D01*
X56787588Y-40912528D01*
X56906892Y-41537944D01*
X56920697Y-41580430D01*
X56929066Y-41624305D01*
X56961889Y-41707207D01*
X57232980Y-42283304D01*
X57256916Y-42321021D01*
X57275934Y-42361436D01*
X57328343Y-42433571D01*
X57734185Y-42924151D01*
X57766754Y-42954736D01*
X57795222Y-42989147D01*
X57863915Y-43045975D01*
X57863922Y-43045982D01*
X57863926Y-43045984D01*
X58379019Y-43420221D01*
X58418165Y-43441742D01*
X58454301Y-43467996D01*
X58534965Y-43505954D01*
X58534978Y-43505961D01*
X58534985Y-43505963D01*
X59126960Y-43740343D01*
X59170236Y-43751454D01*
X59211758Y-43767894D01*
X59299330Y-43784600D01*
X59299342Y-43784603D01*
X59299349Y-43784603D01*
X59906108Y-43861255D01*
X59950074Y-43870000D01*
X75329926Y-43870000D01*
X75340952Y-43867807D01*
X75441789Y-43864638D01*
X75452872Y-43862883D01*
X75464068Y-43863587D01*
X75552528Y-43852412D01*
X76177944Y-43733108D01*
X76220430Y-43719303D01*
X76264305Y-43710934D01*
X76347207Y-43678111D01*
X76923304Y-43407020D01*
X76961021Y-43383084D01*
X77001436Y-43364066D01*
X77073571Y-43311657D01*
X77564151Y-42905815D01*
X77594736Y-42873246D01*
X77629147Y-42844778D01*
X77685975Y-42776085D01*
X77685982Y-42776078D01*
X77685984Y-42776074D01*
X78060221Y-42260981D01*
X78081742Y-42221835D01*
X78107996Y-42185699D01*
X78145954Y-42105035D01*
X78145961Y-42105022D01*
X78145963Y-42105015D01*
X78380343Y-41513040D01*
X78391454Y-41469764D01*
X78407894Y-41428242D01*
X78424600Y-41340670D01*
X78424603Y-41340658D01*
X78424603Y-41340651D01*
X78501255Y-40733892D01*
X78510000Y-40689926D01*
X78510000Y-38360090D01*
X86461400Y-38360090D01*
X86461400Y-39064250D01*
X86620150Y-39223000D01*
X87833000Y-39223000D01*
X87833000Y-38010150D01*
X88087000Y-38010150D01*
X88087000Y-39223000D01*
X90373000Y-39223000D01*
X90373000Y-38015531D01*
X90627000Y-38015531D01*
X90627000Y-39223000D01*
X91833817Y-39223000D01*
X91954958Y-38990974D01*
X91782688Y-38575053D01*
X91388490Y-38143179D01*
X90859027Y-37895032D01*
X90627000Y-38015531D01*
X90373000Y-38015531D01*
X90140973Y-37895032D01*
X89611510Y-38143179D01*
X89444529Y-38326119D01*
X89361927Y-38126701D01*
X89183298Y-37948073D01*
X88949909Y-37851400D01*
X88245750Y-37851400D01*
X88087000Y-38010150D01*
X87833000Y-38010150D01*
X87674250Y-37851400D01*
X86970091Y-37851400D01*
X86736702Y-37948073D01*
X86558073Y-38126701D01*
X86461400Y-38360090D01*
X78510000Y-38360090D01*
X78510000Y-33845322D01*
X87095000Y-33845322D01*
X87095000Y-34694678D01*
X87420034Y-35479380D01*
X88020620Y-36079966D01*
X88805322Y-36405000D01*
X89654678Y-36405000D01*
X90439380Y-36079966D01*
X91039966Y-35479380D01*
X91080740Y-35380941D01*
X117203000Y-35380941D01*
X117203000Y-36091059D01*
X117474750Y-36747121D01*
X117976879Y-37249250D01*
X118632941Y-37521000D01*
X119343059Y-37521000D01*
X119999121Y-37249250D01*
X120501250Y-36747121D01*
X120773000Y-36091059D01*
X120773000Y-35380941D01*
X120501250Y-34724879D01*
X119999121Y-34222750D01*
X119343059Y-33951000D01*
X118632941Y-33951000D01*
X117976879Y-34222750D01*
X117474750Y-34724879D01*
X117203000Y-35380941D01*
X91080740Y-35380941D01*
X91365000Y-34694678D01*
X91365000Y-33845322D01*
X91039966Y-33060620D01*
X90439380Y-32460034D01*
X89654678Y-32135000D01*
X88805322Y-32135000D01*
X88020620Y-32460034D01*
X87420034Y-33060620D01*
X87095000Y-33845322D01*
X78510000Y-33845322D01*
X78510000Y-31914506D01*
X96735000Y-31914506D01*
X96735000Y-32465494D01*
X96945853Y-32974540D01*
X97335460Y-33364147D01*
X97844506Y-33575000D01*
X98395494Y-33575000D01*
X98904540Y-33364147D01*
X99294147Y-32974540D01*
X99505000Y-32465494D01*
X99505000Y-31914506D01*
X99735000Y-31914506D01*
X99735000Y-32465494D01*
X99945853Y-32974540D01*
X100335460Y-33364147D01*
X100844506Y-33575000D01*
X101395494Y-33575000D01*
X101904540Y-33364147D01*
X102294147Y-32974540D01*
X102505000Y-32465494D01*
X102505000Y-31914506D01*
X102735000Y-31914506D01*
X102735000Y-32465494D01*
X102945853Y-32974540D01*
X103335460Y-33364147D01*
X103844506Y-33575000D01*
X104395494Y-33575000D01*
X104904540Y-33364147D01*
X105294147Y-32974540D01*
X105505000Y-32465494D01*
X105505000Y-31914506D01*
X105294147Y-31405460D01*
X105147813Y-31259126D01*
X106229000Y-31259126D01*
X106229000Y-31670874D01*
X106386569Y-32051280D01*
X106677720Y-32342431D01*
X107058126Y-32500000D01*
X107224199Y-32500000D01*
X107504654Y-32780455D01*
X107499000Y-32794104D01*
X107499000Y-33205852D01*
X107656569Y-33586258D01*
X107947720Y-33877409D01*
X108328126Y-34034978D01*
X108739874Y-34034978D01*
X109120280Y-33877409D01*
X109411431Y-33586258D01*
X109569000Y-33205852D01*
X109569000Y-32794104D01*
X109411431Y-32413698D01*
X109120280Y-32122547D01*
X108908717Y-32034915D01*
X108299000Y-31425199D01*
X108299000Y-31259126D01*
X108141431Y-30878720D01*
X107850280Y-30587569D01*
X107469874Y-30430000D01*
X107058126Y-30430000D01*
X106677720Y-30587569D01*
X106386569Y-30878720D01*
X106229000Y-31259126D01*
X105147813Y-31259126D01*
X104904540Y-31015853D01*
X104395494Y-30805000D01*
X103844506Y-30805000D01*
X103335460Y-31015853D01*
X102945853Y-31405460D01*
X102735000Y-31914506D01*
X102505000Y-31914506D01*
X102294147Y-31405460D01*
X101904540Y-31015853D01*
X101395494Y-30805000D01*
X100844506Y-30805000D01*
X100335460Y-31015853D01*
X99945853Y-31405460D01*
X99735000Y-31914506D01*
X99505000Y-31914506D01*
X99294147Y-31405460D01*
X98904540Y-31015853D01*
X98395494Y-30805000D01*
X97844506Y-30805000D01*
X97335460Y-31015853D01*
X96945853Y-31405460D01*
X96735000Y-31914506D01*
X78510000Y-31914506D01*
X78510000Y-28914506D01*
X96735000Y-28914506D01*
X96735000Y-29465494D01*
X96945853Y-29974540D01*
X97335460Y-30364147D01*
X97844506Y-30575000D01*
X98395494Y-30575000D01*
X98904540Y-30364147D01*
X99107170Y-30161517D01*
X100328088Y-30161517D01*
X100396077Y-30402460D01*
X100915171Y-30587201D01*
X101465448Y-30559230D01*
X101843923Y-30402460D01*
X101911912Y-30161517D01*
X101120000Y-29369605D01*
X100328088Y-30161517D01*
X99107170Y-30161517D01*
X99294147Y-29974540D01*
X99505000Y-29465494D01*
X99505000Y-28985171D01*
X99722799Y-28985171D01*
X99750770Y-29535448D01*
X99907540Y-29913923D01*
X100148483Y-29981912D01*
X100940395Y-29190000D01*
X101299605Y-29190000D01*
X102091517Y-29981912D01*
X102332460Y-29913923D01*
X102517201Y-29394829D01*
X102492786Y-28914506D01*
X102735000Y-28914506D01*
X102735000Y-29465494D01*
X102945853Y-29974540D01*
X103335460Y-30364147D01*
X103844506Y-30575000D01*
X104395494Y-30575000D01*
X104904540Y-30364147D01*
X105294147Y-29974540D01*
X105505000Y-29465494D01*
X105505000Y-29111126D01*
X114103000Y-29111126D01*
X114103000Y-29522874D01*
X114260569Y-29903280D01*
X114551720Y-30194431D01*
X114932126Y-30352000D01*
X115343874Y-30352000D01*
X115724280Y-30194431D01*
X115932163Y-29986548D01*
X116699289Y-29986548D01*
X116816720Y-30103979D01*
X117197126Y-30261548D01*
X117608874Y-30261548D01*
X117989280Y-30103979D01*
X118280431Y-29812828D01*
X118438000Y-29432422D01*
X118438000Y-29020674D01*
X118280431Y-28640268D01*
X117989280Y-28349117D01*
X117608874Y-28191548D01*
X117197126Y-28191548D01*
X116816720Y-28349117D01*
X116699289Y-28466548D01*
X115751259Y-28466548D01*
X115724280Y-28439569D01*
X115343874Y-28282000D01*
X114932126Y-28282000D01*
X114551720Y-28439569D01*
X114260569Y-28730720D01*
X114103000Y-29111126D01*
X105505000Y-29111126D01*
X105505000Y-28914506D01*
X105294147Y-28405460D01*
X104904540Y-28015853D01*
X104395494Y-27805000D01*
X103844506Y-27805000D01*
X103335460Y-28015853D01*
X102945853Y-28405460D01*
X102735000Y-28914506D01*
X102492786Y-28914506D01*
X102489230Y-28844552D01*
X102332460Y-28466077D01*
X102091517Y-28398088D01*
X101299605Y-29190000D01*
X100940395Y-29190000D01*
X100148483Y-28398088D01*
X99907540Y-28466077D01*
X99722799Y-28985171D01*
X99505000Y-28985171D01*
X99505000Y-28914506D01*
X99294147Y-28405460D01*
X99107170Y-28218483D01*
X100328088Y-28218483D01*
X101120000Y-29010395D01*
X101911912Y-28218483D01*
X101843923Y-27977540D01*
X101324829Y-27792799D01*
X100774552Y-27820770D01*
X100396077Y-27977540D01*
X100328088Y-28218483D01*
X99107170Y-28218483D01*
X98904540Y-28015853D01*
X98395494Y-27805000D01*
X97844506Y-27805000D01*
X97335460Y-28015853D01*
X96945853Y-28405460D01*
X96735000Y-28914506D01*
X78510000Y-28914506D01*
X78510000Y-22502000D01*
X81132560Y-22502000D01*
X81132560Y-24702000D01*
X81181843Y-24949765D01*
X81322191Y-25159809D01*
X81532235Y-25300157D01*
X81780000Y-25349440D01*
X83980000Y-25349440D01*
X84227765Y-25300157D01*
X84437809Y-25159809D01*
X84483180Y-25091907D01*
X85074887Y-25337000D01*
X85765113Y-25337000D01*
X86402799Y-25072862D01*
X86690000Y-24785661D01*
X86977201Y-25072862D01*
X87614887Y-25337000D01*
X88305113Y-25337000D01*
X88942799Y-25072862D01*
X89188793Y-24826868D01*
X89454737Y-24826868D01*
X89565641Y-25104099D01*
X90211593Y-25347323D01*
X90901453Y-25324836D01*
X91434359Y-25104099D01*
X91545263Y-24826868D01*
X90500000Y-23781605D01*
X89454737Y-24826868D01*
X89188793Y-24826868D01*
X89430862Y-24584799D01*
X89496811Y-24425584D01*
X90320395Y-23602000D01*
X90679605Y-23602000D01*
X91724868Y-24647263D01*
X92002099Y-24536359D01*
X92040122Y-24435376D01*
X98935000Y-24435376D01*
X98935000Y-25304624D01*
X99267646Y-26107703D01*
X99882297Y-26722354D01*
X100685376Y-27055000D01*
X101554624Y-27055000D01*
X102357703Y-26722354D01*
X102972354Y-26107703D01*
X103305000Y-25304624D01*
X103305000Y-24435376D01*
X102972354Y-23632297D01*
X102357703Y-23017646D01*
X101554624Y-22685000D01*
X100685376Y-22685000D01*
X99882297Y-23017646D01*
X99267646Y-23632297D01*
X98935000Y-24435376D01*
X92040122Y-24435376D01*
X92245323Y-23890407D01*
X92222836Y-23200547D01*
X92002099Y-22667641D01*
X91724868Y-22556737D01*
X90679605Y-23602000D01*
X90320395Y-23602000D01*
X89496811Y-22778416D01*
X89430862Y-22619201D01*
X89188793Y-22377132D01*
X89454737Y-22377132D01*
X90500000Y-23422395D01*
X91545263Y-22377132D01*
X91434359Y-22099901D01*
X90788407Y-21856677D01*
X90098547Y-21879164D01*
X89565641Y-22099901D01*
X89454737Y-22377132D01*
X89188793Y-22377132D01*
X88942799Y-22131138D01*
X88305113Y-21867000D01*
X87614887Y-21867000D01*
X86977201Y-22131138D01*
X86690000Y-22418339D01*
X86402799Y-22131138D01*
X85765113Y-21867000D01*
X85074887Y-21867000D01*
X84483180Y-22112093D01*
X84437809Y-22044191D01*
X84227765Y-21903843D01*
X83980000Y-21854560D01*
X81780000Y-21854560D01*
X81532235Y-21903843D01*
X81322191Y-22044191D01*
X81181843Y-22254235D01*
X81132560Y-22502000D01*
X78510000Y-22502000D01*
X78510000Y-22249666D01*
X78572958Y-21751302D01*
X78741305Y-21326107D01*
X79010101Y-20956142D01*
X79362462Y-20664644D01*
X79776244Y-20469933D01*
X80001307Y-20427000D01*
X118437827Y-20427000D01*
X118686943Y-20446606D01*
X119547181Y-20653131D01*
X120364505Y-20991677D01*
X121118821Y-21453923D01*
X121791530Y-22028470D01*
X122366077Y-22701179D01*
X122828320Y-23455489D01*
X123166870Y-24272820D01*
X123373394Y-25133057D01*
X123393000Y-25382173D01*
X123393000Y-94235263D01*
X123369176Y-94661390D01*
X123145961Y-95981117D01*
X122777025Y-97267746D01*
X122266971Y-98505230D01*
X121622156Y-99678145D01*
X120850614Y-100771876D01*
X119961965Y-101772784D01*
X118967282Y-102668400D01*
X117878970Y-103447555D01*
X116710584Y-104100544D01*
X115476691Y-104619225D01*
X114192678Y-104997130D01*
X112874528Y-105229556D01*
X112342949Y-105263000D01*
X49584737Y-105263000D01*
X49158610Y-105239176D01*
X47838883Y-105015961D01*
X46552254Y-104647025D01*
X45314770Y-104136971D01*
X44141855Y-103492156D01*
X43048124Y-102720614D01*
X42047216Y-101831965D01*
X41151600Y-100837282D01*
X40470064Y-99885322D01*
X42010000Y-99885322D01*
X42010000Y-100734678D01*
X42335034Y-101519380D01*
X42935620Y-102119966D01*
X43720322Y-102445000D01*
X44569678Y-102445000D01*
X45354380Y-102119966D01*
X45954966Y-101519380D01*
X46280000Y-100734678D01*
X46280000Y-99885322D01*
X45954966Y-99100620D01*
X45354380Y-98500034D01*
X44569678Y-98175000D01*
X43720322Y-98175000D01*
X42935620Y-98500034D01*
X42335034Y-99100620D01*
X42010000Y-99885322D01*
X40470064Y-99885322D01*
X40372445Y-99748970D01*
X39719456Y-98580584D01*
X39210574Y-97370001D01*
X60515112Y-97370001D01*
X60530000Y-97444848D01*
X60530001Y-100489148D01*
X60515112Y-100564000D01*
X60530001Y-100638852D01*
X60549886Y-100738821D01*
X60574097Y-100860537D01*
X60678574Y-101016897D01*
X60742072Y-101111929D01*
X60805528Y-101154329D01*
X61271000Y-101619802D01*
X61271000Y-101785874D01*
X61428569Y-102166280D01*
X61719720Y-102457431D01*
X62100126Y-102615000D01*
X62511874Y-102615000D01*
X62892280Y-102457431D01*
X63183431Y-102166280D01*
X63341000Y-101785874D01*
X63341000Y-101374126D01*
X63183431Y-100993720D01*
X62892280Y-100702569D01*
X62511874Y-100545000D01*
X62345802Y-100545000D01*
X62050000Y-100249199D01*
X62050000Y-97684802D01*
X62345802Y-97389001D01*
X62511874Y-97389001D01*
X62892280Y-97231432D01*
X63183431Y-96940281D01*
X63341000Y-96559875D01*
X63341000Y-96455601D01*
X67627112Y-96455601D01*
X67642000Y-96530448D01*
X67642001Y-100997148D01*
X67627112Y-101072000D01*
X67686097Y-101368537D01*
X67763339Y-101484137D01*
X67854072Y-101619929D01*
X67875000Y-101633913D01*
X67875000Y-101785874D01*
X68032569Y-102166280D01*
X68323720Y-102457431D01*
X68704126Y-102615000D01*
X69115874Y-102615000D01*
X69496280Y-102457431D01*
X69787431Y-102166280D01*
X69945000Y-101785874D01*
X69945000Y-101374126D01*
X69787431Y-100993720D01*
X69496280Y-100702569D01*
X69162000Y-100564106D01*
X69162000Y-99885322D01*
X83920000Y-99885322D01*
X83920000Y-100734678D01*
X84245034Y-101519380D01*
X84845620Y-102119966D01*
X85630322Y-102445000D01*
X86479678Y-102445000D01*
X87264380Y-102119966D01*
X87864966Y-101519380D01*
X88190000Y-100734678D01*
X88190000Y-99885322D01*
X87864966Y-99100620D01*
X87264380Y-98500034D01*
X86479678Y-98175000D01*
X85630322Y-98175000D01*
X84845620Y-98500034D01*
X84245034Y-99100620D01*
X83920000Y-99885322D01*
X69162000Y-99885322D01*
X69162000Y-96770402D01*
X69203801Y-96728601D01*
X69369874Y-96728601D01*
X69750280Y-96571032D01*
X70041431Y-96279881D01*
X70199000Y-95899475D01*
X70199000Y-95487727D01*
X70041431Y-95107321D01*
X69750280Y-94816170D01*
X69369874Y-94658601D01*
X68958126Y-94658601D01*
X68577720Y-94816170D01*
X68286569Y-95107321D01*
X68129000Y-95487727D01*
X68129000Y-95653800D01*
X67917530Y-95865270D01*
X67854071Y-95907672D01*
X67686096Y-96159065D01*
X67642000Y-96380750D01*
X67642000Y-96380754D01*
X67627112Y-96455601D01*
X63341000Y-96455601D01*
X63341000Y-96148127D01*
X63183431Y-95767721D01*
X62892280Y-95476570D01*
X62511874Y-95319001D01*
X62100126Y-95319001D01*
X61719720Y-95476570D01*
X61428569Y-95767721D01*
X61271000Y-96148127D01*
X61271000Y-96314199D01*
X60805530Y-96779670D01*
X60742071Y-96822072D01*
X60574096Y-97073465D01*
X60530000Y-97295150D01*
X60530000Y-97295154D01*
X60515112Y-97370001D01*
X39210574Y-97370001D01*
X39200775Y-97346691D01*
X39130188Y-97106858D01*
X39126289Y-96584351D01*
X39340973Y-96684968D01*
X39573000Y-96564469D01*
X39573000Y-95357000D01*
X39827000Y-95357000D01*
X39827000Y-96564469D01*
X40059027Y-96684968D01*
X40588490Y-96436821D01*
X40970000Y-96018848D01*
X41351510Y-96436821D01*
X41880973Y-96684968D01*
X42113000Y-96564469D01*
X42113000Y-95357000D01*
X42367000Y-95357000D01*
X42367000Y-96564469D01*
X42599027Y-96684968D01*
X43128490Y-96436821D01*
X43522688Y-96004947D01*
X43694958Y-95589026D01*
X43573817Y-95357000D01*
X42367000Y-95357000D01*
X42113000Y-95357000D01*
X39827000Y-95357000D01*
X39573000Y-95357000D01*
X39553000Y-95357000D01*
X39553000Y-95103000D01*
X39573000Y-95103000D01*
X39573000Y-92817000D01*
X39827000Y-92817000D01*
X39827000Y-95103000D01*
X42113000Y-95103000D01*
X42113000Y-92817000D01*
X42367000Y-92817000D01*
X42367000Y-95103000D01*
X43573817Y-95103000D01*
X43694958Y-94870974D01*
X43522688Y-94455053D01*
X43128490Y-94023179D01*
X42993687Y-93960000D01*
X43128490Y-93896821D01*
X43522688Y-93464947D01*
X43694958Y-93049026D01*
X43573817Y-92817000D01*
X42367000Y-92817000D01*
X42113000Y-92817000D01*
X39827000Y-92817000D01*
X39573000Y-92817000D01*
X39553000Y-92817000D01*
X39553000Y-92563000D01*
X39573000Y-92563000D01*
X39573000Y-92543000D01*
X39827000Y-92543000D01*
X39827000Y-92563000D01*
X42113000Y-92563000D01*
X42113000Y-92543000D01*
X42367000Y-92543000D01*
X42367000Y-92563000D01*
X43573817Y-92563000D01*
X43694958Y-92330974D01*
X43522688Y-91915053D01*
X43128490Y-91483179D01*
X43018979Y-91431854D01*
X43320430Y-91230430D01*
X43651650Y-90734725D01*
X43767959Y-90150000D01*
X43651650Y-89565275D01*
X43320430Y-89069570D01*
X43036719Y-88880000D01*
X43320430Y-88690430D01*
X43651650Y-88194725D01*
X43767959Y-87610000D01*
X43651650Y-87025275D01*
X43320430Y-86529570D01*
X43036719Y-86340000D01*
X43320430Y-86150430D01*
X43651650Y-85654725D01*
X43767959Y-85070000D01*
X43727009Y-84864126D01*
X50095000Y-84864126D01*
X50095000Y-85275874D01*
X50252569Y-85656280D01*
X50370000Y-85773711D01*
X50370001Y-87541296D01*
X50252569Y-87658728D01*
X50095000Y-88039134D01*
X50095000Y-88450882D01*
X50252569Y-88831288D01*
X50543720Y-89122439D01*
X50924126Y-89280008D01*
X51335874Y-89280008D01*
X51716280Y-89122439D01*
X52007431Y-88831288D01*
X52165000Y-88450882D01*
X52165000Y-88039134D01*
X52007431Y-87658728D01*
X51890000Y-87541297D01*
X51890000Y-85773711D01*
X52007431Y-85656280D01*
X52165000Y-85275874D01*
X52165000Y-84864126D01*
X52007431Y-84483720D01*
X51716280Y-84192569D01*
X51335874Y-84035000D01*
X50924126Y-84035000D01*
X50543720Y-84192569D01*
X50252569Y-84483720D01*
X50095000Y-84864126D01*
X43727009Y-84864126D01*
X43651650Y-84485275D01*
X43320430Y-83989570D01*
X43036719Y-83800000D01*
X43320430Y-83610430D01*
X43651650Y-83114725D01*
X43767959Y-82530000D01*
X43651650Y-81945275D01*
X43395638Y-81562126D01*
X85401000Y-81562126D01*
X85401000Y-81973874D01*
X85558569Y-82354280D01*
X85849720Y-82645431D01*
X86230126Y-82803000D01*
X86486344Y-82803000D01*
X86548350Y-83114725D01*
X86879570Y-83610430D01*
X87163281Y-83800000D01*
X86879570Y-83989570D01*
X86548350Y-84485275D01*
X86432041Y-85070000D01*
X86548350Y-85654725D01*
X86879570Y-86150430D01*
X87163281Y-86340000D01*
X86879570Y-86529570D01*
X86548350Y-87025275D01*
X86432041Y-87610000D01*
X86548350Y-88194725D01*
X86879570Y-88690430D01*
X87163281Y-88880000D01*
X86879570Y-89069570D01*
X86548350Y-89565275D01*
X86432041Y-90150000D01*
X86548350Y-90734725D01*
X86879570Y-91230430D01*
X87163281Y-91420000D01*
X86879570Y-91609570D01*
X86548350Y-92105275D01*
X86432041Y-92690000D01*
X86548350Y-93274725D01*
X86879570Y-93770430D01*
X87163281Y-93960000D01*
X86879570Y-94149570D01*
X86548350Y-94645275D01*
X86432041Y-95230000D01*
X86548350Y-95814725D01*
X86879570Y-96310430D01*
X87375275Y-96641650D01*
X87812402Y-96728600D01*
X88107598Y-96728600D01*
X88544725Y-96641650D01*
X89040430Y-96310430D01*
X89230000Y-96026719D01*
X89419570Y-96310430D01*
X89915275Y-96641650D01*
X90352402Y-96728600D01*
X90647598Y-96728600D01*
X91084725Y-96641650D01*
X91580430Y-96310430D01*
X91911650Y-95814725D01*
X91992235Y-95409596D01*
X99009000Y-95409596D01*
X99009000Y-96066404D01*
X99260350Y-96673216D01*
X99724784Y-97137650D01*
X100331596Y-97389000D01*
X100988404Y-97389000D01*
X101595216Y-97137650D01*
X101930000Y-96802866D01*
X102264784Y-97137650D01*
X102871596Y-97389000D01*
X103528404Y-97389000D01*
X104135216Y-97137650D01*
X104370759Y-96902107D01*
X104755498Y-96902107D01*
X104856120Y-97170622D01*
X105471642Y-97399816D01*
X106128019Y-97376014D01*
X106623880Y-97170622D01*
X106724502Y-96902107D01*
X105740000Y-95917605D01*
X104755498Y-96902107D01*
X104370759Y-96902107D01*
X104557323Y-96715543D01*
X104575893Y-96722502D01*
X105560395Y-95738000D01*
X105546253Y-95723858D01*
X105725858Y-95544253D01*
X105740000Y-95558395D01*
X105754143Y-95544253D01*
X105933748Y-95723858D01*
X105919605Y-95738000D01*
X106904107Y-96722502D01*
X106922677Y-96715543D01*
X107344784Y-97137650D01*
X107951596Y-97389000D01*
X108608404Y-97389000D01*
X109215216Y-97137650D01*
X109550000Y-96802866D01*
X109884784Y-97137650D01*
X110491596Y-97389000D01*
X111148404Y-97389000D01*
X111755216Y-97137650D01*
X112090000Y-96802866D01*
X112424784Y-97137650D01*
X113031596Y-97389000D01*
X113688404Y-97389000D01*
X114295216Y-97137650D01*
X114630000Y-96802866D01*
X114964784Y-97137650D01*
X115571596Y-97389000D01*
X116228404Y-97389000D01*
X116835216Y-97137650D01*
X117170000Y-96802866D01*
X117504784Y-97137650D01*
X118111596Y-97389000D01*
X118768404Y-97389000D01*
X119375216Y-97137650D01*
X119710000Y-96802866D01*
X120044784Y-97137650D01*
X120651596Y-97389000D01*
X121308404Y-97389000D01*
X121915216Y-97137650D01*
X122379650Y-96673216D01*
X122631000Y-96066404D01*
X122631000Y-95409596D01*
X122379650Y-94802784D01*
X121915216Y-94338350D01*
X121308404Y-94087000D01*
X120651596Y-94087000D01*
X120044784Y-94338350D01*
X119710000Y-94673134D01*
X119375216Y-94338350D01*
X118768404Y-94087000D01*
X118111596Y-94087000D01*
X117504784Y-94338350D01*
X117170000Y-94673134D01*
X116835216Y-94338350D01*
X116228404Y-94087000D01*
X115571596Y-94087000D01*
X114964784Y-94338350D01*
X114630000Y-94673134D01*
X114295216Y-94338350D01*
X113688404Y-94087000D01*
X113031596Y-94087000D01*
X112424784Y-94338350D01*
X112090000Y-94673134D01*
X111755216Y-94338350D01*
X111148404Y-94087000D01*
X110886711Y-94087000D01*
X111062431Y-93911280D01*
X111220000Y-93530874D01*
X111220000Y-93119126D01*
X111062431Y-92738720D01*
X110771280Y-92447569D01*
X110390874Y-92290000D01*
X109979126Y-92290000D01*
X109598720Y-92447569D01*
X109307569Y-92738720D01*
X109150000Y-93119126D01*
X109150000Y-93200000D01*
X107284027Y-93200000D01*
X107410000Y-92895874D01*
X107410000Y-92484126D01*
X107252431Y-92103720D01*
X106961280Y-91812569D01*
X106580874Y-91655000D01*
X106169126Y-91655000D01*
X105788720Y-91812569D01*
X105671289Y-91930000D01*
X101363711Y-91930000D01*
X101246280Y-91812569D01*
X100865874Y-91655000D01*
X100454126Y-91655000D01*
X100073720Y-91812569D01*
X99782569Y-92103720D01*
X99625000Y-92484126D01*
X99625000Y-92895874D01*
X99782569Y-93276280D01*
X99831289Y-93325000D01*
X99782569Y-93373720D01*
X99625000Y-93754126D01*
X99625000Y-94165874D01*
X99704743Y-94358391D01*
X99260350Y-94802784D01*
X99009000Y-95409596D01*
X91992235Y-95409596D01*
X92027959Y-95230000D01*
X91911650Y-94645275D01*
X91580430Y-94149570D01*
X91296719Y-93960000D01*
X91580430Y-93770430D01*
X91911650Y-93274725D01*
X92027959Y-92690000D01*
X91911650Y-92105275D01*
X91580430Y-91609570D01*
X91296719Y-91420000D01*
X91580430Y-91230430D01*
X91911650Y-90734725D01*
X92027959Y-90150000D01*
X91911650Y-89565275D01*
X91580430Y-89069570D01*
X91296719Y-88880000D01*
X91580430Y-88690430D01*
X91911650Y-88194725D01*
X92027959Y-87610000D01*
X91911650Y-87025275D01*
X91580430Y-86529570D01*
X91296719Y-86340000D01*
X91580430Y-86150430D01*
X91911650Y-85654725D01*
X92027959Y-85070000D01*
X91911650Y-84485275D01*
X91580430Y-83989570D01*
X91296719Y-83800000D01*
X91580430Y-83610430D01*
X91911650Y-83114725D01*
X92027959Y-82530000D01*
X93896655Y-82530000D01*
X94024792Y-83174188D01*
X94244856Y-83503537D01*
X94106191Y-83596191D01*
X93965843Y-83806235D01*
X93916560Y-84054000D01*
X93916560Y-86086000D01*
X93965843Y-86333765D01*
X94106191Y-86543809D01*
X94316235Y-86684157D01*
X94564000Y-86733440D01*
X96596000Y-86733440D01*
X96843765Y-86684157D01*
X97053809Y-86543809D01*
X97194157Y-86333765D01*
X97243440Y-86086000D01*
X97243440Y-84054000D01*
X97194157Y-83806235D01*
X97053809Y-83596191D01*
X96915144Y-83503537D01*
X97135208Y-83174188D01*
X97263345Y-82530000D01*
X97135208Y-81885812D01*
X96770305Y-81339695D01*
X96224188Y-80974792D01*
X95742609Y-80879000D01*
X95417391Y-80879000D01*
X94935812Y-80974792D01*
X94389695Y-81339695D01*
X94024792Y-81885812D01*
X93896655Y-82530000D01*
X92027959Y-82530000D01*
X91926514Y-82020000D01*
X92145468Y-82020000D01*
X92220315Y-82034888D01*
X92295162Y-82020000D01*
X92295167Y-82020000D01*
X92516852Y-81975904D01*
X92578126Y-81934962D01*
X92834126Y-82041000D01*
X93245874Y-82041000D01*
X93626280Y-81883431D01*
X93917431Y-81592280D01*
X94075000Y-81211874D01*
X94075000Y-80800126D01*
X93917431Y-80419720D01*
X93626280Y-80128569D01*
X93598350Y-80117000D01*
X93626280Y-80105431D01*
X93693585Y-80038126D01*
X110292990Y-80038126D01*
X110292990Y-80449874D01*
X110450559Y-80830280D01*
X110741710Y-81121431D01*
X111122116Y-81279000D01*
X111533864Y-81279000D01*
X111816402Y-81161969D01*
X112276959Y-81622527D01*
X112127166Y-81622527D01*
X111746760Y-81780096D01*
X111455609Y-82071247D01*
X111298040Y-82451653D01*
X111298040Y-82863401D01*
X111455609Y-83243807D01*
X111746760Y-83534958D01*
X112127166Y-83692527D01*
X112151624Y-83692527D01*
X112228569Y-83878290D01*
X112519720Y-84169441D01*
X112900126Y-84327010D01*
X113311874Y-84327010D01*
X113692280Y-84169441D01*
X113983431Y-83878290D01*
X114078833Y-83647968D01*
X116171883Y-81554918D01*
X116292569Y-81846280D01*
X116410001Y-81963712D01*
X116410000Y-86906289D01*
X116292569Y-87023720D01*
X116135000Y-87404126D01*
X116135000Y-87815874D01*
X116292569Y-88196280D01*
X116583720Y-88487431D01*
X116964126Y-88645000D01*
X117375874Y-88645000D01*
X117756280Y-88487431D01*
X118047431Y-88196280D01*
X118205000Y-87815874D01*
X118205000Y-87404126D01*
X118047431Y-87023720D01*
X117930000Y-86906289D01*
X117930000Y-81963711D01*
X118047431Y-81846280D01*
X118205000Y-81465874D01*
X118205000Y-81054126D01*
X118047431Y-80673720D01*
X117756280Y-80382569D01*
X117443000Y-80252804D01*
X117443000Y-80038126D01*
X117285431Y-79657720D01*
X116994280Y-79366569D01*
X116613874Y-79209000D01*
X116497290Y-79209000D01*
X116453382Y-79102996D01*
X116162231Y-78811845D01*
X115781825Y-78654276D01*
X115370077Y-78654276D01*
X114989671Y-78811845D01*
X114698520Y-79102996D01*
X114540951Y-79483402D01*
X114540951Y-79895150D01*
X114587684Y-80007973D01*
X114454280Y-79874569D01*
X114073874Y-79717000D01*
X113907802Y-79717000D01*
X113062813Y-78872011D01*
X112967423Y-78641720D01*
X112676272Y-78350569D01*
X112295866Y-78193000D01*
X111884118Y-78193000D01*
X111503712Y-78350569D01*
X111212561Y-78641720D01*
X111054992Y-79022126D01*
X111054992Y-79236804D01*
X110741710Y-79366569D01*
X110450559Y-79657720D01*
X110292990Y-80038126D01*
X93693585Y-80038126D01*
X93917431Y-79814280D01*
X94075000Y-79433874D01*
X94075000Y-79022126D01*
X93917431Y-78641720D01*
X93626280Y-78350569D01*
X93245874Y-78193000D01*
X93093913Y-78193000D01*
X93079929Y-78172071D01*
X92828537Y-78004096D01*
X92606852Y-77960000D01*
X92606847Y-77960000D01*
X92532000Y-77945112D01*
X92457153Y-77960000D01*
X91926514Y-77960000D01*
X92027959Y-77450000D01*
X91942705Y-77021399D01*
X92057822Y-77021399D01*
X92162569Y-77274280D01*
X92453720Y-77565431D01*
X92834126Y-77723000D01*
X93245874Y-77723000D01*
X93626280Y-77565431D01*
X93917431Y-77274280D01*
X94075000Y-76893874D01*
X94075000Y-76482126D01*
X93917431Y-76101720D01*
X93626280Y-75810569D01*
X93245874Y-75653000D01*
X93070828Y-75653000D01*
X92909936Y-75545495D01*
X92688251Y-75501399D01*
X92688246Y-75501399D01*
X92613399Y-75486511D01*
X92538552Y-75501399D01*
X91907191Y-75501399D01*
X91911650Y-75494725D01*
X92027959Y-74910000D01*
X91911650Y-74325275D01*
X91580430Y-73829570D01*
X91296719Y-73640000D01*
X91580430Y-73450430D01*
X91911650Y-72954725D01*
X92027959Y-72370000D01*
X91911650Y-71785275D01*
X91580430Y-71289570D01*
X91296719Y-71100000D01*
X91580430Y-70910430D01*
X91911650Y-70414725D01*
X92027959Y-69830000D01*
X91911650Y-69245275D01*
X91580430Y-68749570D01*
X91296719Y-68560000D01*
X91580430Y-68370430D01*
X91911650Y-67874725D01*
X92027959Y-67290000D01*
X91911650Y-66705275D01*
X91580430Y-66209570D01*
X91296719Y-66020000D01*
X91559300Y-65844548D01*
X98501000Y-65844548D01*
X98501000Y-66703452D01*
X98829688Y-67496975D01*
X99437025Y-68104312D01*
X100230548Y-68433000D01*
X101089452Y-68433000D01*
X101882975Y-68104312D01*
X102490312Y-67496975D01*
X102819000Y-66703452D01*
X102819000Y-66322126D01*
X114357000Y-66322126D01*
X114357000Y-66733874D01*
X114514569Y-67114280D01*
X114805720Y-67405431D01*
X115186126Y-67563000D01*
X115597874Y-67563000D01*
X115978280Y-67405431D01*
X116269431Y-67114280D01*
X116417152Y-66757649D01*
X117330253Y-65844548D01*
X118821000Y-65844548D01*
X118821000Y-66703452D01*
X119149688Y-67496975D01*
X119757025Y-68104312D01*
X120550548Y-68433000D01*
X121409452Y-68433000D01*
X122202975Y-68104312D01*
X122810312Y-67496975D01*
X123139000Y-66703452D01*
X123139000Y-65844548D01*
X122810312Y-65051025D01*
X122202975Y-64443688D01*
X121409452Y-64115000D01*
X120550548Y-64115000D01*
X119757025Y-64443688D01*
X119149688Y-65051025D01*
X118821000Y-65844548D01*
X117330253Y-65844548D01*
X117389802Y-65785000D01*
X117555874Y-65785000D01*
X117936280Y-65627431D01*
X118227431Y-65336280D01*
X118385000Y-64955874D01*
X118385000Y-64544126D01*
X118227431Y-64163720D01*
X117936280Y-63872569D01*
X117555874Y-63715000D01*
X117144126Y-63715000D01*
X116763720Y-63872569D01*
X116472569Y-64163720D01*
X116315000Y-64544126D01*
X116315000Y-64710198D01*
X115532199Y-65493000D01*
X115186126Y-65493000D01*
X114805720Y-65650569D01*
X114514569Y-65941720D01*
X114357000Y-66322126D01*
X102819000Y-66322126D01*
X102819000Y-65844548D01*
X102490312Y-65051025D01*
X101882975Y-64443688D01*
X101089452Y-64115000D01*
X100230548Y-64115000D01*
X99437025Y-64443688D01*
X98829688Y-65051025D01*
X98501000Y-65844548D01*
X91559300Y-65844548D01*
X91580430Y-65830430D01*
X91911650Y-65334725D01*
X92027959Y-64750000D01*
X91911650Y-64165275D01*
X91580430Y-63669570D01*
X91296719Y-63480000D01*
X91580430Y-63290430D01*
X91911650Y-62794725D01*
X92027959Y-62210000D01*
X91911650Y-61625275D01*
X91580430Y-61129570D01*
X91296719Y-60940000D01*
X91580430Y-60750430D01*
X91911650Y-60254725D01*
X92027959Y-59670000D01*
X91911650Y-59085275D01*
X91580430Y-58589570D01*
X91296719Y-58400000D01*
X91580430Y-58210430D01*
X91911650Y-57714725D01*
X91986123Y-57340322D01*
X115670000Y-57340322D01*
X115670000Y-58189678D01*
X115995034Y-58974380D01*
X116595620Y-59574966D01*
X117380322Y-59900000D01*
X118229678Y-59900000D01*
X119014380Y-59574966D01*
X119614966Y-58974380D01*
X119940000Y-58189678D01*
X119940000Y-57340322D01*
X119614966Y-56555620D01*
X119014380Y-55955034D01*
X118229678Y-55630000D01*
X117380322Y-55630000D01*
X116595620Y-55955034D01*
X115995034Y-56555620D01*
X115670000Y-57340322D01*
X91986123Y-57340322D01*
X92027959Y-57130000D01*
X91911650Y-56545275D01*
X91580430Y-56049570D01*
X91296719Y-55860000D01*
X91580430Y-55670430D01*
X91911650Y-55174725D01*
X92027959Y-54590000D01*
X91911650Y-54005275D01*
X91580430Y-53509570D01*
X91296719Y-53320000D01*
X91580430Y-53130430D01*
X91911650Y-52634725D01*
X92027959Y-52050000D01*
X91994332Y-51880941D01*
X117203000Y-51880941D01*
X117203000Y-52591059D01*
X117474750Y-53247121D01*
X117976879Y-53749250D01*
X118632941Y-54021000D01*
X119343059Y-54021000D01*
X119999121Y-53749250D01*
X120501250Y-53247121D01*
X120773000Y-52591059D01*
X120773000Y-51880941D01*
X120501250Y-51224879D01*
X119999121Y-50722750D01*
X119343059Y-50451000D01*
X118632941Y-50451000D01*
X117976879Y-50722750D01*
X117474750Y-51224879D01*
X117203000Y-51880941D01*
X91994332Y-51880941D01*
X91911650Y-51465275D01*
X91580430Y-50969570D01*
X91296719Y-50780000D01*
X91580430Y-50590430D01*
X91911650Y-50094725D01*
X92027959Y-49510000D01*
X91911650Y-48925275D01*
X91580430Y-48429570D01*
X91296719Y-48240000D01*
X91580430Y-48050430D01*
X91911650Y-47554725D01*
X92027959Y-46970000D01*
X91911650Y-46385275D01*
X91580430Y-45889570D01*
X91296719Y-45700000D01*
X91580430Y-45510430D01*
X91591324Y-45494126D01*
X112325000Y-45494126D01*
X112325000Y-45905874D01*
X112482569Y-46286280D01*
X112600000Y-46403711D01*
X112600001Y-49305371D01*
X112486109Y-49419263D01*
X112328540Y-49799669D01*
X112328540Y-50211417D01*
X112486109Y-50591823D01*
X112777260Y-50882974D01*
X113157666Y-51040543D01*
X113569414Y-51040543D01*
X113876087Y-50913515D01*
X114182920Y-51040609D01*
X114594668Y-51040609D01*
X114975074Y-50883040D01*
X115266225Y-50591889D01*
X115423794Y-50211483D01*
X115423794Y-49799735D01*
X115273783Y-49437576D01*
X115420233Y-49584026D01*
X116113050Y-49871000D01*
X116862950Y-49871000D01*
X117555767Y-49584026D01*
X118086026Y-49053767D01*
X118373000Y-48360950D01*
X118373000Y-47611050D01*
X119603000Y-47611050D01*
X119603000Y-48360950D01*
X119889974Y-49053767D01*
X120420233Y-49584026D01*
X121113050Y-49871000D01*
X121862950Y-49871000D01*
X122555767Y-49584026D01*
X123086026Y-49053767D01*
X123373000Y-48360950D01*
X123373000Y-47611050D01*
X123086026Y-46918233D01*
X122555767Y-46387974D01*
X121862950Y-46101000D01*
X121113050Y-46101000D01*
X120420233Y-46387974D01*
X119889974Y-46918233D01*
X119603000Y-47611050D01*
X118373000Y-47611050D01*
X118086026Y-46918233D01*
X117555767Y-46387974D01*
X116862950Y-46101000D01*
X116113050Y-46101000D01*
X115420233Y-46387974D01*
X115148794Y-46659413D01*
X115148794Y-46390917D01*
X115253431Y-46286280D01*
X115411000Y-45905874D01*
X115411000Y-45574793D01*
X115420233Y-45584026D01*
X116113050Y-45871000D01*
X116862950Y-45871000D01*
X117555767Y-45584026D01*
X118086026Y-45053767D01*
X118373000Y-44360950D01*
X118373000Y-43611050D01*
X119603000Y-43611050D01*
X119603000Y-44360950D01*
X119889974Y-45053767D01*
X120420233Y-45584026D01*
X121113050Y-45871000D01*
X121862950Y-45871000D01*
X122555767Y-45584026D01*
X123086026Y-45053767D01*
X123373000Y-44360950D01*
X123373000Y-43611050D01*
X123086026Y-42918233D01*
X122555767Y-42387974D01*
X121862950Y-42101000D01*
X121113050Y-42101000D01*
X120420233Y-42387974D01*
X119889974Y-42918233D01*
X119603000Y-43611050D01*
X118373000Y-43611050D01*
X118086026Y-42918233D01*
X117555767Y-42387974D01*
X116862950Y-42101000D01*
X116113050Y-42101000D01*
X115420233Y-42387974D01*
X114889974Y-42918233D01*
X114603000Y-43611050D01*
X114603000Y-44360950D01*
X114759400Y-44738534D01*
X114581874Y-44665000D01*
X114170126Y-44665000D01*
X113868000Y-44790144D01*
X113565874Y-44665000D01*
X113154126Y-44665000D01*
X112773720Y-44822569D01*
X112482569Y-45113720D01*
X112325000Y-45494126D01*
X91591324Y-45494126D01*
X91911650Y-45014725D01*
X92027959Y-44430000D01*
X91911650Y-43845275D01*
X91580430Y-43349570D01*
X91296719Y-43160000D01*
X91580430Y-42970430D01*
X91911650Y-42474725D01*
X92027959Y-41890000D01*
X91911650Y-41305275D01*
X91580430Y-40809570D01*
X91278979Y-40608146D01*
X91388490Y-40556821D01*
X91782688Y-40124947D01*
X91954958Y-39709026D01*
X91903805Y-39611050D01*
X114603000Y-39611050D01*
X114603000Y-40360950D01*
X114889974Y-41053767D01*
X115420233Y-41584026D01*
X116113050Y-41871000D01*
X116862950Y-41871000D01*
X117555767Y-41584026D01*
X118086026Y-41053767D01*
X118373000Y-40360950D01*
X118373000Y-39611050D01*
X119603000Y-39611050D01*
X119603000Y-40360950D01*
X119889974Y-41053767D01*
X120420233Y-41584026D01*
X121113050Y-41871000D01*
X121862950Y-41871000D01*
X122555767Y-41584026D01*
X123086026Y-41053767D01*
X123373000Y-40360950D01*
X123373000Y-39611050D01*
X123086026Y-38918233D01*
X122555767Y-38387974D01*
X121862950Y-38101000D01*
X121113050Y-38101000D01*
X120420233Y-38387974D01*
X119889974Y-38918233D01*
X119603000Y-39611050D01*
X118373000Y-39611050D01*
X118086026Y-38918233D01*
X117555767Y-38387974D01*
X116862950Y-38101000D01*
X116113050Y-38101000D01*
X115420233Y-38387974D01*
X114889974Y-38918233D01*
X114603000Y-39611050D01*
X91903805Y-39611050D01*
X91833817Y-39477000D01*
X90627000Y-39477000D01*
X90627000Y-39497000D01*
X90373000Y-39497000D01*
X90373000Y-39477000D01*
X88087000Y-39477000D01*
X88087000Y-39497000D01*
X87833000Y-39497000D01*
X87833000Y-39477000D01*
X86620150Y-39477000D01*
X86461400Y-39635750D01*
X86461400Y-40339910D01*
X86558073Y-40573299D01*
X86736702Y-40751927D01*
X86878767Y-40810772D01*
X86548350Y-41305275D01*
X86432041Y-41890000D01*
X86548350Y-42474725D01*
X86879570Y-42970430D01*
X87163281Y-43160000D01*
X86879570Y-43349570D01*
X86548350Y-43845275D01*
X86432041Y-44430000D01*
X86548350Y-45014725D01*
X86879570Y-45510430D01*
X87163281Y-45700000D01*
X86879570Y-45889570D01*
X86548350Y-46385275D01*
X86432041Y-46970000D01*
X86548350Y-47554725D01*
X86879570Y-48050430D01*
X87163281Y-48240000D01*
X86879570Y-48429570D01*
X86548350Y-48925275D01*
X86432041Y-49510000D01*
X86548350Y-50094725D01*
X86879570Y-50590430D01*
X87163281Y-50780000D01*
X86879570Y-50969570D01*
X86548350Y-51465275D01*
X86432041Y-52050000D01*
X86548350Y-52634725D01*
X86879570Y-53130430D01*
X87163281Y-53320000D01*
X86879570Y-53509570D01*
X86548350Y-54005275D01*
X86432041Y-54590000D01*
X86548350Y-55174725D01*
X86879570Y-55670430D01*
X87163281Y-55860000D01*
X86879570Y-56049570D01*
X86548350Y-56545275D01*
X86432041Y-57130000D01*
X86548350Y-57714725D01*
X86879570Y-58210430D01*
X87163281Y-58400000D01*
X86879570Y-58589570D01*
X86548350Y-59085275D01*
X86432041Y-59670000D01*
X86548350Y-60254725D01*
X86879570Y-60750430D01*
X87163281Y-60940000D01*
X86879570Y-61129570D01*
X86548350Y-61625275D01*
X86432041Y-62210000D01*
X86548350Y-62794725D01*
X86879570Y-63290430D01*
X87163281Y-63480000D01*
X86879570Y-63669570D01*
X86548350Y-64165275D01*
X86432041Y-64750000D01*
X86548350Y-65334725D01*
X86879570Y-65830430D01*
X87163281Y-66020000D01*
X86879570Y-66209570D01*
X86548350Y-66705275D01*
X86432041Y-67290000D01*
X86548350Y-67874725D01*
X86879570Y-68370430D01*
X87163281Y-68560000D01*
X86879570Y-68749570D01*
X86548350Y-69245275D01*
X86432041Y-69830000D01*
X86548350Y-70414725D01*
X86879570Y-70910430D01*
X87163281Y-71100000D01*
X86879570Y-71289570D01*
X86548350Y-71785275D01*
X86432041Y-72370000D01*
X86548350Y-72954725D01*
X86879570Y-73450430D01*
X87163281Y-73640000D01*
X86879570Y-73829570D01*
X86548350Y-74325275D01*
X86432041Y-74910000D01*
X86498526Y-75244245D01*
X86357720Y-75302569D01*
X86066569Y-75593720D01*
X85909000Y-75974126D01*
X85909000Y-76385874D01*
X86066569Y-76766280D01*
X86357720Y-77057431D01*
X86498526Y-77115755D01*
X86432041Y-77450000D01*
X86498526Y-77784245D01*
X86357720Y-77842569D01*
X86066569Y-78133720D01*
X85909000Y-78514126D01*
X85909000Y-78925874D01*
X86066569Y-79306280D01*
X86357720Y-79597431D01*
X86498526Y-79655755D01*
X86432041Y-79990000D01*
X86548350Y-80574725D01*
X86564793Y-80599334D01*
X86459526Y-80669671D01*
X86459524Y-80669673D01*
X86396071Y-80712071D01*
X86382087Y-80733000D01*
X86230126Y-80733000D01*
X85849720Y-80890569D01*
X85558569Y-81181720D01*
X85401000Y-81562126D01*
X43395638Y-81562126D01*
X43320430Y-81449570D01*
X43036719Y-81260000D01*
X43320430Y-81070430D01*
X43651650Y-80574725D01*
X43767959Y-79990000D01*
X43651650Y-79405275D01*
X43320430Y-78909570D01*
X43036719Y-78720000D01*
X43320430Y-78530430D01*
X43651650Y-78034725D01*
X43767959Y-77450000D01*
X43651650Y-76865275D01*
X43320430Y-76369570D01*
X43036719Y-76180000D01*
X43320430Y-75990430D01*
X43651650Y-75494725D01*
X43767959Y-74910000D01*
X43651650Y-74325275D01*
X43320430Y-73829570D01*
X43036719Y-73640000D01*
X43320430Y-73450430D01*
X43651650Y-72954725D01*
X43767959Y-72370000D01*
X43651650Y-71785275D01*
X43320430Y-71289570D01*
X43036719Y-71100000D01*
X43320430Y-70910430D01*
X43651650Y-70414725D01*
X43767959Y-69830000D01*
X43651650Y-69245275D01*
X43320430Y-68749570D01*
X43036719Y-68560000D01*
X43320430Y-68370430D01*
X43651650Y-67874725D01*
X43767959Y-67290000D01*
X43651650Y-66705275D01*
X43320430Y-66209570D01*
X43036719Y-66020000D01*
X43320430Y-65830430D01*
X43651650Y-65334725D01*
X43767959Y-64750000D01*
X43651650Y-64165275D01*
X43320430Y-63669570D01*
X43036719Y-63480000D01*
X43320430Y-63290430D01*
X43651650Y-62794725D01*
X43767959Y-62210000D01*
X43651650Y-61625275D01*
X43320430Y-61129570D01*
X43036719Y-60940000D01*
X43320430Y-60750430D01*
X43651650Y-60254725D01*
X43684311Y-60090525D01*
X50730000Y-60090525D01*
X50730000Y-60502273D01*
X50887569Y-60882679D01*
X51005001Y-61000111D01*
X51005000Y-71031289D01*
X50887569Y-71148720D01*
X50730000Y-71529126D01*
X50730000Y-71940874D01*
X50887569Y-72321280D01*
X51178720Y-72612431D01*
X51559126Y-72770000D01*
X51970874Y-72770000D01*
X52351280Y-72612431D01*
X52642431Y-72321280D01*
X52800000Y-71940874D01*
X52800000Y-71529126D01*
X52642431Y-71148720D01*
X52525000Y-71031289D01*
X52525000Y-61000110D01*
X52642431Y-60882679D01*
X52800000Y-60502273D01*
X52800000Y-60090525D01*
X52642431Y-59710119D01*
X52351280Y-59418968D01*
X51970874Y-59261399D01*
X51559126Y-59261399D01*
X51178720Y-59418968D01*
X50887569Y-59710119D01*
X50730000Y-60090525D01*
X43684311Y-60090525D01*
X43767959Y-59670000D01*
X43651650Y-59085275D01*
X43320430Y-58589570D01*
X43036719Y-58400000D01*
X43320430Y-58210430D01*
X43651650Y-57714725D01*
X43767959Y-57130000D01*
X43651650Y-56545275D01*
X43320430Y-56049570D01*
X43036719Y-55860000D01*
X43320430Y-55670430D01*
X43651650Y-55174725D01*
X43767959Y-54590000D01*
X43651650Y-54005275D01*
X43320430Y-53509570D01*
X43036719Y-53320000D01*
X43320430Y-53130430D01*
X43651650Y-52634725D01*
X43763980Y-52070000D01*
X45475908Y-52070000D01*
X45591161Y-52649418D01*
X45919375Y-53140625D01*
X46217761Y-53340000D01*
X45919375Y-53539375D01*
X45591161Y-54030582D01*
X45475908Y-54610000D01*
X45591161Y-55189418D01*
X45919375Y-55680625D01*
X45937619Y-55692816D01*
X45892235Y-55701843D01*
X45682191Y-55842191D01*
X45541843Y-56052235D01*
X45492560Y-56300000D01*
X45492560Y-58000000D01*
X45541843Y-58247765D01*
X45682191Y-58457809D01*
X45892235Y-58598157D01*
X46140000Y-58647440D01*
X47840000Y-58647440D01*
X48087765Y-58598157D01*
X48297809Y-58457809D01*
X48438157Y-58247765D01*
X48487440Y-58000000D01*
X48487440Y-56300000D01*
X48438157Y-56052235D01*
X48297809Y-55842191D01*
X48087765Y-55701843D01*
X48042381Y-55692816D01*
X48060625Y-55680625D01*
X48078331Y-55654126D01*
X62541000Y-55654126D01*
X62541000Y-56065874D01*
X62698569Y-56446280D01*
X62989720Y-56737431D01*
X63370126Y-56895000D01*
X63781874Y-56895000D01*
X64162280Y-56737431D01*
X64279711Y-56620000D01*
X67317289Y-56620000D01*
X67434720Y-56737431D01*
X67815126Y-56895000D01*
X68226874Y-56895000D01*
X68607280Y-56737431D01*
X68898431Y-56446280D01*
X69056000Y-56065874D01*
X69056000Y-55654126D01*
X68898431Y-55273720D01*
X68607280Y-54982569D01*
X68226874Y-54825000D01*
X67815126Y-54825000D01*
X67434720Y-54982569D01*
X67317289Y-55100000D01*
X64279711Y-55100000D01*
X64162280Y-54982569D01*
X63781874Y-54825000D01*
X63370126Y-54825000D01*
X62989720Y-54982569D01*
X62698569Y-55273720D01*
X62541000Y-55654126D01*
X48078331Y-55654126D01*
X48388839Y-55189418D01*
X48504092Y-54610000D01*
X48388839Y-54030582D01*
X48060625Y-53539375D01*
X47762239Y-53340000D01*
X48060625Y-53140625D01*
X48388839Y-52649418D01*
X48504092Y-52070000D01*
X48388839Y-51490582D01*
X48200777Y-51209126D01*
X65716000Y-51209126D01*
X65716000Y-51620874D01*
X65873569Y-52001280D01*
X65991000Y-52118711D01*
X65991001Y-53251288D01*
X65873569Y-53368720D01*
X65716000Y-53749126D01*
X65716000Y-54160874D01*
X65873569Y-54541280D01*
X66164720Y-54832431D01*
X66545126Y-54990000D01*
X66956874Y-54990000D01*
X67337280Y-54832431D01*
X67628431Y-54541280D01*
X67786000Y-54160874D01*
X67786000Y-53749126D01*
X67628431Y-53368720D01*
X67511000Y-53251289D01*
X67511000Y-52118711D01*
X67628431Y-52001280D01*
X67786000Y-51620874D01*
X67786000Y-51209126D01*
X67628431Y-50828720D01*
X67337280Y-50537569D01*
X66956874Y-50380000D01*
X66545126Y-50380000D01*
X66164720Y-50537569D01*
X65873569Y-50828720D01*
X65716000Y-51209126D01*
X48200777Y-51209126D01*
X48060625Y-50999375D01*
X47741522Y-50786157D01*
X47871358Y-50725183D01*
X48261645Y-50296924D01*
X48431476Y-49886890D01*
X48310155Y-49657000D01*
X47117000Y-49657000D01*
X47117000Y-49677000D01*
X46863000Y-49677000D01*
X46863000Y-49657000D01*
X45669845Y-49657000D01*
X45548524Y-49886890D01*
X45718355Y-50296924D01*
X46108642Y-50725183D01*
X46238478Y-50786157D01*
X45919375Y-50999375D01*
X45591161Y-51490582D01*
X45475908Y-52070000D01*
X43763980Y-52070000D01*
X43767959Y-52050000D01*
X43651650Y-51465275D01*
X43320430Y-50969570D01*
X43036719Y-50780000D01*
X43320430Y-50590430D01*
X43651650Y-50094725D01*
X43767959Y-49510000D01*
X43700948Y-49173110D01*
X45548524Y-49173110D01*
X45669845Y-49403000D01*
X46863000Y-49403000D01*
X46863000Y-48209181D01*
X47117000Y-48209181D01*
X47117000Y-49403000D01*
X48310155Y-49403000D01*
X48431476Y-49173110D01*
X48261645Y-48763076D01*
X47871358Y-48334817D01*
X47346892Y-48088514D01*
X47117000Y-48209181D01*
X46863000Y-48209181D01*
X46633108Y-48088514D01*
X46108642Y-48334817D01*
X45718355Y-48763076D01*
X45548524Y-49173110D01*
X43700948Y-49173110D01*
X43651650Y-48925275D01*
X43320430Y-48429570D01*
X43036719Y-48240000D01*
X43320430Y-48050430D01*
X43651650Y-47554725D01*
X43767959Y-46970000D01*
X43651650Y-46385275D01*
X43320430Y-45889570D01*
X43036719Y-45700000D01*
X43320430Y-45510430D01*
X43651650Y-45014725D01*
X43767959Y-44430000D01*
X43651650Y-43845275D01*
X43334159Y-43370116D01*
X44507000Y-43370116D01*
X44507000Y-43781864D01*
X44664569Y-44162270D01*
X44955720Y-44453421D01*
X45336126Y-44610990D01*
X45410189Y-44610990D01*
X46285000Y-45485802D01*
X46285000Y-45651874D01*
X46442569Y-46032280D01*
X46733720Y-46323431D01*
X47114126Y-46481000D01*
X47525874Y-46481000D01*
X47906280Y-46323431D01*
X48197431Y-46032280D01*
X48355000Y-45651874D01*
X48355000Y-45240126D01*
X48197431Y-44859720D01*
X47906280Y-44568569D01*
X47525874Y-44411000D01*
X47359802Y-44411000D01*
X46577000Y-43628199D01*
X46577000Y-43370116D01*
X46419431Y-42989710D01*
X46128280Y-42698559D01*
X45747874Y-42540990D01*
X45336126Y-42540990D01*
X44955720Y-42698559D01*
X44664569Y-42989710D01*
X44507000Y-43370116D01*
X43334159Y-43370116D01*
X43320430Y-43349570D01*
X43036719Y-43160000D01*
X43320430Y-42970430D01*
X43651650Y-42474725D01*
X43767959Y-41890000D01*
X43651650Y-41305275D01*
X43320430Y-40809570D01*
X43018979Y-40608146D01*
X43128490Y-40556821D01*
X43522688Y-40124947D01*
X43694958Y-39709026D01*
X43573817Y-39477000D01*
X42367000Y-39477000D01*
X42367000Y-39497000D01*
X42113000Y-39497000D01*
X42113000Y-39477000D01*
X39827000Y-39477000D01*
X39827000Y-39497000D01*
X39573000Y-39497000D01*
X39573000Y-39477000D01*
X39553000Y-39477000D01*
X39553000Y-39223000D01*
X39573000Y-39223000D01*
X39573000Y-38010150D01*
X39827000Y-38010150D01*
X39827000Y-39223000D01*
X42113000Y-39223000D01*
X42113000Y-38015531D01*
X42367000Y-38015531D01*
X42367000Y-39223000D01*
X43573817Y-39223000D01*
X43694958Y-38990974D01*
X43522688Y-38575053D01*
X43128490Y-38143179D01*
X42599027Y-37895032D01*
X42367000Y-38015531D01*
X42113000Y-38015531D01*
X41880973Y-37895032D01*
X41351510Y-38143179D01*
X41184529Y-38326119D01*
X41101927Y-38126701D01*
X40923298Y-37948073D01*
X40689909Y-37851400D01*
X39985750Y-37851400D01*
X39827000Y-38010150D01*
X39573000Y-38010150D01*
X39414250Y-37851400D01*
X38710091Y-37851400D01*
X38688052Y-37860529D01*
X38658088Y-33845322D01*
X38835000Y-33845322D01*
X38835000Y-34694678D01*
X39160034Y-35479380D01*
X39760620Y-36079966D01*
X40545322Y-36405000D01*
X41394678Y-36405000D01*
X42179380Y-36079966D01*
X42779966Y-35479380D01*
X43105000Y-34694678D01*
X43105000Y-33845322D01*
X42779966Y-33060620D01*
X42179380Y-32460034D01*
X41394678Y-32135000D01*
X40545322Y-32135000D01*
X39760620Y-32460034D01*
X39160034Y-33060620D01*
X38835000Y-33845322D01*
X38658088Y-33845322D01*
X38592574Y-25066544D01*
X38783131Y-24272819D01*
X39121677Y-23455495D01*
X39583923Y-22701179D01*
X40158470Y-22028470D01*
X40831179Y-21453923D01*
X41585489Y-20991680D01*
X42402820Y-20653130D01*
X43263057Y-20446606D01*
X43512173Y-20427000D01*
X55306956Y-20427000D01*
X55393698Y-20437958D01*
X55393698Y-20437958D01*
G37*
X55393698Y-20437958D02*
X55818893Y-20606305D01*
X56188858Y-20875101D01*
X56480356Y-21227462D01*
X56675067Y-21641244D01*
X56767093Y-22123662D01*
X56770001Y-22216195D01*
X56770000Y-40689925D01*
X56772193Y-40700950D01*
X56775362Y-40801789D01*
X56777117Y-40812872D01*
X56776413Y-40824068D01*
X56787588Y-40912528D01*
X56906892Y-41537944D01*
X56920697Y-41580430D01*
X56929066Y-41624305D01*
X56961889Y-41707207D01*
X57232980Y-42283304D01*
X57256916Y-42321021D01*
X57275934Y-42361436D01*
X57328343Y-42433571D01*
X57734185Y-42924151D01*
X57766754Y-42954736D01*
X57795222Y-42989147D01*
X57863915Y-43045975D01*
X57863922Y-43045982D01*
X57863926Y-43045984D01*
X58379019Y-43420221D01*
X58418165Y-43441742D01*
X58454301Y-43467996D01*
X58534965Y-43505954D01*
X58534978Y-43505961D01*
X58534985Y-43505963D01*
X59126960Y-43740343D01*
X59170236Y-43751454D01*
X59211758Y-43767894D01*
X59299330Y-43784600D01*
X59299342Y-43784603D01*
X59299349Y-43784603D01*
X59906108Y-43861255D01*
X59950074Y-43870000D01*
X75329926Y-43870000D01*
X75340952Y-43867807D01*
X75441789Y-43864638D01*
X75452872Y-43862883D01*
X75464068Y-43863587D01*
X75552528Y-43852412D01*
X76177944Y-43733108D01*
X76220430Y-43719303D01*
X76264305Y-43710934D01*
X76347207Y-43678111D01*
X76923304Y-43407020D01*
X76961021Y-43383084D01*
X77001436Y-43364066D01*
X77073571Y-43311657D01*
X77564151Y-42905815D01*
X77594736Y-42873246D01*
X77629147Y-42844778D01*
X77685975Y-42776085D01*
X77685982Y-42776078D01*
X77685984Y-42776074D01*
X78060221Y-42260981D01*
X78081742Y-42221835D01*
X78107996Y-42185699D01*
X78145954Y-42105035D01*
X78145961Y-42105022D01*
X78145963Y-42105015D01*
X78380343Y-41513040D01*
X78391454Y-41469764D01*
X78407894Y-41428242D01*
X78424600Y-41340670D01*
X78424603Y-41340658D01*
X78424603Y-41340651D01*
X78501255Y-40733892D01*
X78510000Y-40689926D01*
X78510000Y-38360090D01*
X86461400Y-38360090D01*
X86461400Y-39064250D01*
X86620150Y-39223000D01*
X87833000Y-39223000D01*
X87833000Y-38010150D01*
X88087000Y-38010150D01*
X88087000Y-39223000D01*
X90373000Y-39223000D01*
X90373000Y-38015531D01*
X90627000Y-38015531D01*
X90627000Y-39223000D01*
X91833817Y-39223000D01*
X91954958Y-38990974D01*
X91782688Y-38575053D01*
X91388490Y-38143179D01*
X90859027Y-37895032D01*
X90627000Y-38015531D01*
X90373000Y-38015531D01*
X90140973Y-37895032D01*
X89611510Y-38143179D01*
X89444529Y-38326119D01*
X89361927Y-38126701D01*
X89183298Y-37948073D01*
X88949909Y-37851400D01*
X88245750Y-37851400D01*
X88087000Y-38010150D01*
X87833000Y-38010150D01*
X87674250Y-37851400D01*
X86970091Y-37851400D01*
X86736702Y-37948073D01*
X86558073Y-38126701D01*
X86461400Y-38360090D01*
X78510000Y-38360090D01*
X78510000Y-33845322D01*
X87095000Y-33845322D01*
X87095000Y-34694678D01*
X87420034Y-35479380D01*
X88020620Y-36079966D01*
X88805322Y-36405000D01*
X89654678Y-36405000D01*
X90439380Y-36079966D01*
X91039966Y-35479380D01*
X91080740Y-35380941D01*
X117203000Y-35380941D01*
X117203000Y-36091059D01*
X117474750Y-36747121D01*
X117976879Y-37249250D01*
X118632941Y-37521000D01*
X119343059Y-37521000D01*
X119999121Y-37249250D01*
X120501250Y-36747121D01*
X120773000Y-36091059D01*
X120773000Y-35380941D01*
X120501250Y-34724879D01*
X119999121Y-34222750D01*
X119343059Y-33951000D01*
X118632941Y-33951000D01*
X117976879Y-34222750D01*
X117474750Y-34724879D01*
X117203000Y-35380941D01*
X91080740Y-35380941D01*
X91365000Y-34694678D01*
X91365000Y-33845322D01*
X91039966Y-33060620D01*
X90439380Y-32460034D01*
X89654678Y-32135000D01*
X88805322Y-32135000D01*
X88020620Y-32460034D01*
X87420034Y-33060620D01*
X87095000Y-33845322D01*
X78510000Y-33845322D01*
X78510000Y-31914506D01*
X96735000Y-31914506D01*
X96735000Y-32465494D01*
X96945853Y-32974540D01*
X97335460Y-33364147D01*
X97844506Y-33575000D01*
X98395494Y-33575000D01*
X98904540Y-33364147D01*
X99294147Y-32974540D01*
X99505000Y-32465494D01*
X99505000Y-31914506D01*
X99735000Y-31914506D01*
X99735000Y-32465494D01*
X99945853Y-32974540D01*
X100335460Y-33364147D01*
X100844506Y-33575000D01*
X101395494Y-33575000D01*
X101904540Y-33364147D01*
X102294147Y-32974540D01*
X102505000Y-32465494D01*
X102505000Y-31914506D01*
X102735000Y-31914506D01*
X102735000Y-32465494D01*
X102945853Y-32974540D01*
X103335460Y-33364147D01*
X103844506Y-33575000D01*
X104395494Y-33575000D01*
X104904540Y-33364147D01*
X105294147Y-32974540D01*
X105505000Y-32465494D01*
X105505000Y-31914506D01*
X105294147Y-31405460D01*
X105147813Y-31259126D01*
X106229000Y-31259126D01*
X106229000Y-31670874D01*
X106386569Y-32051280D01*
X106677720Y-32342431D01*
X107058126Y-32500000D01*
X107224199Y-32500000D01*
X107504654Y-32780455D01*
X107499000Y-32794104D01*
X107499000Y-33205852D01*
X107656569Y-33586258D01*
X107947720Y-33877409D01*
X108328126Y-34034978D01*
X108739874Y-34034978D01*
X109120280Y-33877409D01*
X109411431Y-33586258D01*
X109569000Y-33205852D01*
X109569000Y-32794104D01*
X109411431Y-32413698D01*
X109120280Y-32122547D01*
X108908717Y-32034915D01*
X108299000Y-31425199D01*
X108299000Y-31259126D01*
X108141431Y-30878720D01*
X107850280Y-30587569D01*
X107469874Y-30430000D01*
X107058126Y-30430000D01*
X106677720Y-30587569D01*
X106386569Y-30878720D01*
X106229000Y-31259126D01*
X105147813Y-31259126D01*
X104904540Y-31015853D01*
X104395494Y-30805000D01*
X103844506Y-30805000D01*
X103335460Y-31015853D01*
X102945853Y-31405460D01*
X102735000Y-31914506D01*
X102505000Y-31914506D01*
X102294147Y-31405460D01*
X101904540Y-31015853D01*
X101395494Y-30805000D01*
X100844506Y-30805000D01*
X100335460Y-31015853D01*
X99945853Y-31405460D01*
X99735000Y-31914506D01*
X99505000Y-31914506D01*
X99294147Y-31405460D01*
X98904540Y-31015853D01*
X98395494Y-30805000D01*
X97844506Y-30805000D01*
X97335460Y-31015853D01*
X96945853Y-31405460D01*
X96735000Y-31914506D01*
X78510000Y-31914506D01*
X78510000Y-28914506D01*
X96735000Y-28914506D01*
X96735000Y-29465494D01*
X96945853Y-29974540D01*
X97335460Y-30364147D01*
X97844506Y-30575000D01*
X98395494Y-30575000D01*
X98904540Y-30364147D01*
X99107170Y-30161517D01*
X100328088Y-30161517D01*
X100396077Y-30402460D01*
X100915171Y-30587201D01*
X101465448Y-30559230D01*
X101843923Y-30402460D01*
X101911912Y-30161517D01*
X101120000Y-29369605D01*
X100328088Y-30161517D01*
X99107170Y-30161517D01*
X99294147Y-29974540D01*
X99505000Y-29465494D01*
X99505000Y-28985171D01*
X99722799Y-28985171D01*
X99750770Y-29535448D01*
X99907540Y-29913923D01*
X100148483Y-29981912D01*
X100940395Y-29190000D01*
X101299605Y-29190000D01*
X102091517Y-29981912D01*
X102332460Y-29913923D01*
X102517201Y-29394829D01*
X102492786Y-28914506D01*
X102735000Y-28914506D01*
X102735000Y-29465494D01*
X102945853Y-29974540D01*
X103335460Y-30364147D01*
X103844506Y-30575000D01*
X104395494Y-30575000D01*
X104904540Y-30364147D01*
X105294147Y-29974540D01*
X105505000Y-29465494D01*
X105505000Y-29111126D01*
X114103000Y-29111126D01*
X114103000Y-29522874D01*
X114260569Y-29903280D01*
X114551720Y-30194431D01*
X114932126Y-30352000D01*
X115343874Y-30352000D01*
X115724280Y-30194431D01*
X115932163Y-29986548D01*
X116699289Y-29986548D01*
X116816720Y-30103979D01*
X117197126Y-30261548D01*
X117608874Y-30261548D01*
X117989280Y-30103979D01*
X118280431Y-29812828D01*
X118438000Y-29432422D01*
X118438000Y-29020674D01*
X118280431Y-28640268D01*
X117989280Y-28349117D01*
X117608874Y-28191548D01*
X117197126Y-28191548D01*
X116816720Y-28349117D01*
X116699289Y-28466548D01*
X115751259Y-28466548D01*
X115724280Y-28439569D01*
X115343874Y-28282000D01*
X114932126Y-28282000D01*
X114551720Y-28439569D01*
X114260569Y-28730720D01*
X114103000Y-29111126D01*
X105505000Y-29111126D01*
X105505000Y-28914506D01*
X105294147Y-28405460D01*
X104904540Y-28015853D01*
X104395494Y-27805000D01*
X103844506Y-27805000D01*
X103335460Y-28015853D01*
X102945853Y-28405460D01*
X102735000Y-28914506D01*
X102492786Y-28914506D01*
X102489230Y-28844552D01*
X102332460Y-28466077D01*
X102091517Y-28398088D01*
X101299605Y-29190000D01*
X100940395Y-29190000D01*
X100148483Y-28398088D01*
X99907540Y-28466077D01*
X99722799Y-28985171D01*
X99505000Y-28985171D01*
X99505000Y-28914506D01*
X99294147Y-28405460D01*
X99107170Y-28218483D01*
X100328088Y-28218483D01*
X101120000Y-29010395D01*
X101911912Y-28218483D01*
X101843923Y-27977540D01*
X101324829Y-27792799D01*
X100774552Y-27820770D01*
X100396077Y-27977540D01*
X100328088Y-28218483D01*
X99107170Y-28218483D01*
X98904540Y-28015853D01*
X98395494Y-27805000D01*
X97844506Y-27805000D01*
X97335460Y-28015853D01*
X96945853Y-28405460D01*
X96735000Y-28914506D01*
X78510000Y-28914506D01*
X78510000Y-22502000D01*
X81132560Y-22502000D01*
X81132560Y-24702000D01*
X81181843Y-24949765D01*
X81322191Y-25159809D01*
X81532235Y-25300157D01*
X81780000Y-25349440D01*
X83980000Y-25349440D01*
X84227765Y-25300157D01*
X84437809Y-25159809D01*
X84483180Y-25091907D01*
X85074887Y-25337000D01*
X85765113Y-25337000D01*
X86402799Y-25072862D01*
X86690000Y-24785661D01*
X86977201Y-25072862D01*
X87614887Y-25337000D01*
X88305113Y-25337000D01*
X88942799Y-25072862D01*
X89188793Y-24826868D01*
X89454737Y-24826868D01*
X89565641Y-25104099D01*
X90211593Y-25347323D01*
X90901453Y-25324836D01*
X91434359Y-25104099D01*
X91545263Y-24826868D01*
X90500000Y-23781605D01*
X89454737Y-24826868D01*
X89188793Y-24826868D01*
X89430862Y-24584799D01*
X89496811Y-24425584D01*
X90320395Y-23602000D01*
X90679605Y-23602000D01*
X91724868Y-24647263D01*
X92002099Y-24536359D01*
X92040122Y-24435376D01*
X98935000Y-24435376D01*
X98935000Y-25304624D01*
X99267646Y-26107703D01*
X99882297Y-26722354D01*
X100685376Y-27055000D01*
X101554624Y-27055000D01*
X102357703Y-26722354D01*
X102972354Y-26107703D01*
X103305000Y-25304624D01*
X103305000Y-24435376D01*
X102972354Y-23632297D01*
X102357703Y-23017646D01*
X101554624Y-22685000D01*
X100685376Y-22685000D01*
X99882297Y-23017646D01*
X99267646Y-23632297D01*
X98935000Y-24435376D01*
X92040122Y-24435376D01*
X92245323Y-23890407D01*
X92222836Y-23200547D01*
X92002099Y-22667641D01*
X91724868Y-22556737D01*
X90679605Y-23602000D01*
X90320395Y-23602000D01*
X89496811Y-22778416D01*
X89430862Y-22619201D01*
X89188793Y-22377132D01*
X89454737Y-22377132D01*
X90500000Y-23422395D01*
X91545263Y-22377132D01*
X91434359Y-22099901D01*
X90788407Y-21856677D01*
X90098547Y-21879164D01*
X89565641Y-22099901D01*
X89454737Y-22377132D01*
X89188793Y-22377132D01*
X88942799Y-22131138D01*
X88305113Y-21867000D01*
X87614887Y-21867000D01*
X86977201Y-22131138D01*
X86690000Y-22418339D01*
X86402799Y-22131138D01*
X85765113Y-21867000D01*
X85074887Y-21867000D01*
X84483180Y-22112093D01*
X84437809Y-22044191D01*
X84227765Y-21903843D01*
X83980000Y-21854560D01*
X81780000Y-21854560D01*
X81532235Y-21903843D01*
X81322191Y-22044191D01*
X81181843Y-22254235D01*
X81132560Y-22502000D01*
X78510000Y-22502000D01*
X78510000Y-22249666D01*
X78572958Y-21751302D01*
X78741305Y-21326107D01*
X79010101Y-20956142D01*
X79362462Y-20664644D01*
X79776244Y-20469933D01*
X80001307Y-20427000D01*
X118437827Y-20427000D01*
X118686943Y-20446606D01*
X119547181Y-20653131D01*
X120364505Y-20991677D01*
X121118821Y-21453923D01*
X121791530Y-22028470D01*
X122366077Y-22701179D01*
X122828320Y-23455489D01*
X123166870Y-24272820D01*
X123373394Y-25133057D01*
X123393000Y-25382173D01*
X123393000Y-94235263D01*
X123369176Y-94661390D01*
X123145961Y-95981117D01*
X122777025Y-97267746D01*
X122266971Y-98505230D01*
X121622156Y-99678145D01*
X120850614Y-100771876D01*
X119961965Y-101772784D01*
X118967282Y-102668400D01*
X117878970Y-103447555D01*
X116710584Y-104100544D01*
X115476691Y-104619225D01*
X114192678Y-104997130D01*
X112874528Y-105229556D01*
X112342949Y-105263000D01*
X49584737Y-105263000D01*
X49158610Y-105239176D01*
X47838883Y-105015961D01*
X46552254Y-104647025D01*
X45314770Y-104136971D01*
X44141855Y-103492156D01*
X43048124Y-102720614D01*
X42047216Y-101831965D01*
X41151600Y-100837282D01*
X40470064Y-99885322D01*
X42010000Y-99885322D01*
X42010000Y-100734678D01*
X42335034Y-101519380D01*
X42935620Y-102119966D01*
X43720322Y-102445000D01*
X44569678Y-102445000D01*
X45354380Y-102119966D01*
X45954966Y-101519380D01*
X46280000Y-100734678D01*
X46280000Y-99885322D01*
X45954966Y-99100620D01*
X45354380Y-98500034D01*
X44569678Y-98175000D01*
X43720322Y-98175000D01*
X42935620Y-98500034D01*
X42335034Y-99100620D01*
X42010000Y-99885322D01*
X40470064Y-99885322D01*
X40372445Y-99748970D01*
X39719456Y-98580584D01*
X39210574Y-97370001D01*
X60515112Y-97370001D01*
X60530000Y-97444848D01*
X60530001Y-100489148D01*
X60515112Y-100564000D01*
X60530001Y-100638852D01*
X60549886Y-100738821D01*
X60574097Y-100860537D01*
X60678574Y-101016897D01*
X60742072Y-101111929D01*
X60805528Y-101154329D01*
X61271000Y-101619802D01*
X61271000Y-101785874D01*
X61428569Y-102166280D01*
X61719720Y-102457431D01*
X62100126Y-102615000D01*
X62511874Y-102615000D01*
X62892280Y-102457431D01*
X63183431Y-102166280D01*
X63341000Y-101785874D01*
X63341000Y-101374126D01*
X63183431Y-100993720D01*
X62892280Y-100702569D01*
X62511874Y-100545000D01*
X62345802Y-100545000D01*
X62050000Y-100249199D01*
X62050000Y-97684802D01*
X62345802Y-97389001D01*
X62511874Y-97389001D01*
X62892280Y-97231432D01*
X63183431Y-96940281D01*
X63341000Y-96559875D01*
X63341000Y-96455601D01*
X67627112Y-96455601D01*
X67642000Y-96530448D01*
X67642001Y-100997148D01*
X67627112Y-101072000D01*
X67686097Y-101368537D01*
X67763339Y-101484137D01*
X67854072Y-101619929D01*
X67875000Y-101633913D01*
X67875000Y-101785874D01*
X68032569Y-102166280D01*
X68323720Y-102457431D01*
X68704126Y-102615000D01*
X69115874Y-102615000D01*
X69496280Y-102457431D01*
X69787431Y-102166280D01*
X69945000Y-101785874D01*
X69945000Y-101374126D01*
X69787431Y-100993720D01*
X69496280Y-100702569D01*
X69162000Y-100564106D01*
X69162000Y-99885322D01*
X83920000Y-99885322D01*
X83920000Y-100734678D01*
X84245034Y-101519380D01*
X84845620Y-102119966D01*
X85630322Y-102445000D01*
X86479678Y-102445000D01*
X87264380Y-102119966D01*
X87864966Y-101519380D01*
X88190000Y-100734678D01*
X88190000Y-99885322D01*
X87864966Y-99100620D01*
X87264380Y-98500034D01*
X86479678Y-98175000D01*
X85630322Y-98175000D01*
X84845620Y-98500034D01*
X84245034Y-99100620D01*
X83920000Y-99885322D01*
X69162000Y-99885322D01*
X69162000Y-96770402D01*
X69203801Y-96728601D01*
X69369874Y-96728601D01*
X69750280Y-96571032D01*
X70041431Y-96279881D01*
X70199000Y-95899475D01*
X70199000Y-95487727D01*
X70041431Y-95107321D01*
X69750280Y-94816170D01*
X69369874Y-94658601D01*
X68958126Y-94658601D01*
X68577720Y-94816170D01*
X68286569Y-95107321D01*
X68129000Y-95487727D01*
X68129000Y-95653800D01*
X67917530Y-95865270D01*
X67854071Y-95907672D01*
X67686096Y-96159065D01*
X67642000Y-96380750D01*
X67642000Y-96380754D01*
X67627112Y-96455601D01*
X63341000Y-96455601D01*
X63341000Y-96148127D01*
X63183431Y-95767721D01*
X62892280Y-95476570D01*
X62511874Y-95319001D01*
X62100126Y-95319001D01*
X61719720Y-95476570D01*
X61428569Y-95767721D01*
X61271000Y-96148127D01*
X61271000Y-96314199D01*
X60805530Y-96779670D01*
X60742071Y-96822072D01*
X60574096Y-97073465D01*
X60530000Y-97295150D01*
X60530000Y-97295154D01*
X60515112Y-97370001D01*
X39210574Y-97370001D01*
X39200775Y-97346691D01*
X39130188Y-97106858D01*
X39126289Y-96584351D01*
X39340973Y-96684968D01*
X39573000Y-96564469D01*
X39573000Y-95357000D01*
X39827000Y-95357000D01*
X39827000Y-96564469D01*
X40059027Y-96684968D01*
X40588490Y-96436821D01*
X40970000Y-96018848D01*
X41351510Y-96436821D01*
X41880973Y-96684968D01*
X42113000Y-96564469D01*
X42113000Y-95357000D01*
X42367000Y-95357000D01*
X42367000Y-96564469D01*
X42599027Y-96684968D01*
X43128490Y-96436821D01*
X43522688Y-96004947D01*
X43694958Y-95589026D01*
X43573817Y-95357000D01*
X42367000Y-95357000D01*
X42113000Y-95357000D01*
X39827000Y-95357000D01*
X39573000Y-95357000D01*
X39553000Y-95357000D01*
X39553000Y-95103000D01*
X39573000Y-95103000D01*
X39573000Y-92817000D01*
X39827000Y-92817000D01*
X39827000Y-95103000D01*
X42113000Y-95103000D01*
X42113000Y-92817000D01*
X42367000Y-92817000D01*
X42367000Y-95103000D01*
X43573817Y-95103000D01*
X43694958Y-94870974D01*
X43522688Y-94455053D01*
X43128490Y-94023179D01*
X42993687Y-93960000D01*
X43128490Y-93896821D01*
X43522688Y-93464947D01*
X43694958Y-93049026D01*
X43573817Y-92817000D01*
X42367000Y-92817000D01*
X42113000Y-92817000D01*
X39827000Y-92817000D01*
X39573000Y-92817000D01*
X39553000Y-92817000D01*
X39553000Y-92563000D01*
X39573000Y-92563000D01*
X39573000Y-92543000D01*
X39827000Y-92543000D01*
X39827000Y-92563000D01*
X42113000Y-92563000D01*
X42113000Y-92543000D01*
X42367000Y-92543000D01*
X42367000Y-92563000D01*
X43573817Y-92563000D01*
X43694958Y-92330974D01*
X43522688Y-91915053D01*
X43128490Y-91483179D01*
X43018979Y-91431854D01*
X43320430Y-91230430D01*
X43651650Y-90734725D01*
X43767959Y-90150000D01*
X43651650Y-89565275D01*
X43320430Y-89069570D01*
X43036719Y-88880000D01*
X43320430Y-88690430D01*
X43651650Y-88194725D01*
X43767959Y-87610000D01*
X43651650Y-87025275D01*
X43320430Y-86529570D01*
X43036719Y-86340000D01*
X43320430Y-86150430D01*
X43651650Y-85654725D01*
X43767959Y-85070000D01*
X43727009Y-84864126D01*
X50095000Y-84864126D01*
X50095000Y-85275874D01*
X50252569Y-85656280D01*
X50370000Y-85773711D01*
X50370001Y-87541296D01*
X50252569Y-87658728D01*
X50095000Y-88039134D01*
X50095000Y-88450882D01*
X50252569Y-88831288D01*
X50543720Y-89122439D01*
X50924126Y-89280008D01*
X51335874Y-89280008D01*
X51716280Y-89122439D01*
X52007431Y-88831288D01*
X52165000Y-88450882D01*
X52165000Y-88039134D01*
X52007431Y-87658728D01*
X51890000Y-87541297D01*
X51890000Y-85773711D01*
X52007431Y-85656280D01*
X52165000Y-85275874D01*
X52165000Y-84864126D01*
X52007431Y-84483720D01*
X51716280Y-84192569D01*
X51335874Y-84035000D01*
X50924126Y-84035000D01*
X50543720Y-84192569D01*
X50252569Y-84483720D01*
X50095000Y-84864126D01*
X43727009Y-84864126D01*
X43651650Y-84485275D01*
X43320430Y-83989570D01*
X43036719Y-83800000D01*
X43320430Y-83610430D01*
X43651650Y-83114725D01*
X43767959Y-82530000D01*
X43651650Y-81945275D01*
X43395638Y-81562126D01*
X85401000Y-81562126D01*
X85401000Y-81973874D01*
X85558569Y-82354280D01*
X85849720Y-82645431D01*
X86230126Y-82803000D01*
X86486344Y-82803000D01*
X86548350Y-83114725D01*
X86879570Y-83610430D01*
X87163281Y-83800000D01*
X86879570Y-83989570D01*
X86548350Y-84485275D01*
X86432041Y-85070000D01*
X86548350Y-85654725D01*
X86879570Y-86150430D01*
X87163281Y-86340000D01*
X86879570Y-86529570D01*
X86548350Y-87025275D01*
X86432041Y-87610000D01*
X86548350Y-88194725D01*
X86879570Y-88690430D01*
X87163281Y-88880000D01*
X86879570Y-89069570D01*
X86548350Y-89565275D01*
X86432041Y-90150000D01*
X86548350Y-90734725D01*
X86879570Y-91230430D01*
X87163281Y-91420000D01*
X86879570Y-91609570D01*
X86548350Y-92105275D01*
X86432041Y-92690000D01*
X86548350Y-93274725D01*
X86879570Y-93770430D01*
X87163281Y-93960000D01*
X86879570Y-94149570D01*
X86548350Y-94645275D01*
X86432041Y-95230000D01*
X86548350Y-95814725D01*
X86879570Y-96310430D01*
X87375275Y-96641650D01*
X87812402Y-96728600D01*
X88107598Y-96728600D01*
X88544725Y-96641650D01*
X89040430Y-96310430D01*
X89230000Y-96026719D01*
X89419570Y-96310430D01*
X89915275Y-96641650D01*
X90352402Y-96728600D01*
X90647598Y-96728600D01*
X91084725Y-96641650D01*
X91580430Y-96310430D01*
X91911650Y-95814725D01*
X91992235Y-95409596D01*
X99009000Y-95409596D01*
X99009000Y-96066404D01*
X99260350Y-96673216D01*
X99724784Y-97137650D01*
X100331596Y-97389000D01*
X100988404Y-97389000D01*
X101595216Y-97137650D01*
X101930000Y-96802866D01*
X102264784Y-97137650D01*
X102871596Y-97389000D01*
X103528404Y-97389000D01*
X104135216Y-97137650D01*
X104370759Y-96902107D01*
X104755498Y-96902107D01*
X104856120Y-97170622D01*
X105471642Y-97399816D01*
X106128019Y-97376014D01*
X106623880Y-97170622D01*
X106724502Y-96902107D01*
X105740000Y-95917605D01*
X104755498Y-96902107D01*
X104370759Y-96902107D01*
X104557323Y-96715543D01*
X104575893Y-96722502D01*
X105560395Y-95738000D01*
X105546253Y-95723858D01*
X105725858Y-95544253D01*
X105740000Y-95558395D01*
X105754143Y-95544253D01*
X105933748Y-95723858D01*
X105919605Y-95738000D01*
X106904107Y-96722502D01*
X106922677Y-96715543D01*
X107344784Y-97137650D01*
X107951596Y-97389000D01*
X108608404Y-97389000D01*
X109215216Y-97137650D01*
X109550000Y-96802866D01*
X109884784Y-97137650D01*
X110491596Y-97389000D01*
X111148404Y-97389000D01*
X111755216Y-97137650D01*
X112090000Y-96802866D01*
X112424784Y-97137650D01*
X113031596Y-97389000D01*
X113688404Y-97389000D01*
X114295216Y-97137650D01*
X114630000Y-96802866D01*
X114964784Y-97137650D01*
X115571596Y-97389000D01*
X116228404Y-97389000D01*
X116835216Y-97137650D01*
X117170000Y-96802866D01*
X117504784Y-97137650D01*
X118111596Y-97389000D01*
X118768404Y-97389000D01*
X119375216Y-97137650D01*
X119710000Y-96802866D01*
X120044784Y-97137650D01*
X120651596Y-97389000D01*
X121308404Y-97389000D01*
X121915216Y-97137650D01*
X122379650Y-96673216D01*
X122631000Y-96066404D01*
X122631000Y-95409596D01*
X122379650Y-94802784D01*
X121915216Y-94338350D01*
X121308404Y-94087000D01*
X120651596Y-94087000D01*
X120044784Y-94338350D01*
X119710000Y-94673134D01*
X119375216Y-94338350D01*
X118768404Y-94087000D01*
X118111596Y-94087000D01*
X117504784Y-94338350D01*
X117170000Y-94673134D01*
X116835216Y-94338350D01*
X116228404Y-94087000D01*
X115571596Y-94087000D01*
X114964784Y-94338350D01*
X114630000Y-94673134D01*
X114295216Y-94338350D01*
X113688404Y-94087000D01*
X113031596Y-94087000D01*
X112424784Y-94338350D01*
X112090000Y-94673134D01*
X111755216Y-94338350D01*
X111148404Y-94087000D01*
X110886711Y-94087000D01*
X111062431Y-93911280D01*
X111220000Y-93530874D01*
X111220000Y-93119126D01*
X111062431Y-92738720D01*
X110771280Y-92447569D01*
X110390874Y-92290000D01*
X109979126Y-92290000D01*
X109598720Y-92447569D01*
X109307569Y-92738720D01*
X109150000Y-93119126D01*
X109150000Y-93200000D01*
X107284027Y-93200000D01*
X107410000Y-92895874D01*
X107410000Y-92484126D01*
X107252431Y-92103720D01*
X106961280Y-91812569D01*
X106580874Y-91655000D01*
X106169126Y-91655000D01*
X105788720Y-91812569D01*
X105671289Y-91930000D01*
X101363711Y-91930000D01*
X101246280Y-91812569D01*
X100865874Y-91655000D01*
X100454126Y-91655000D01*
X100073720Y-91812569D01*
X99782569Y-92103720D01*
X99625000Y-92484126D01*
X99625000Y-92895874D01*
X99782569Y-93276280D01*
X99831289Y-93325000D01*
X99782569Y-93373720D01*
X99625000Y-93754126D01*
X99625000Y-94165874D01*
X99704743Y-94358391D01*
X99260350Y-94802784D01*
X99009000Y-95409596D01*
X91992235Y-95409596D01*
X92027959Y-95230000D01*
X91911650Y-94645275D01*
X91580430Y-94149570D01*
X91296719Y-93960000D01*
X91580430Y-93770430D01*
X91911650Y-93274725D01*
X92027959Y-92690000D01*
X91911650Y-92105275D01*
X91580430Y-91609570D01*
X91296719Y-91420000D01*
X91580430Y-91230430D01*
X91911650Y-90734725D01*
X92027959Y-90150000D01*
X91911650Y-89565275D01*
X91580430Y-89069570D01*
X91296719Y-88880000D01*
X91580430Y-88690430D01*
X91911650Y-88194725D01*
X92027959Y-87610000D01*
X91911650Y-87025275D01*
X91580430Y-86529570D01*
X91296719Y-86340000D01*
X91580430Y-86150430D01*
X91911650Y-85654725D01*
X92027959Y-85070000D01*
X91911650Y-84485275D01*
X91580430Y-83989570D01*
X91296719Y-83800000D01*
X91580430Y-83610430D01*
X91911650Y-83114725D01*
X92027959Y-82530000D01*
X93896655Y-82530000D01*
X94024792Y-83174188D01*
X94244856Y-83503537D01*
X94106191Y-83596191D01*
X93965843Y-83806235D01*
X93916560Y-84054000D01*
X93916560Y-86086000D01*
X93965843Y-86333765D01*
X94106191Y-86543809D01*
X94316235Y-86684157D01*
X94564000Y-86733440D01*
X96596000Y-86733440D01*
X96843765Y-86684157D01*
X97053809Y-86543809D01*
X97194157Y-86333765D01*
X97243440Y-86086000D01*
X97243440Y-84054000D01*
X97194157Y-83806235D01*
X97053809Y-83596191D01*
X96915144Y-83503537D01*
X97135208Y-83174188D01*
X97263345Y-82530000D01*
X97135208Y-81885812D01*
X96770305Y-81339695D01*
X96224188Y-80974792D01*
X95742609Y-80879000D01*
X95417391Y-80879000D01*
X94935812Y-80974792D01*
X94389695Y-81339695D01*
X94024792Y-81885812D01*
X93896655Y-82530000D01*
X92027959Y-82530000D01*
X91926514Y-82020000D01*
X92145468Y-82020000D01*
X92220315Y-82034888D01*
X92295162Y-82020000D01*
X92295167Y-82020000D01*
X92516852Y-81975904D01*
X92578126Y-81934962D01*
X92834126Y-82041000D01*
X93245874Y-82041000D01*
X93626280Y-81883431D01*
X93917431Y-81592280D01*
X94075000Y-81211874D01*
X94075000Y-80800126D01*
X93917431Y-80419720D01*
X93626280Y-80128569D01*
X93598350Y-80117000D01*
X93626280Y-80105431D01*
X93693585Y-80038126D01*
X110292990Y-80038126D01*
X110292990Y-80449874D01*
X110450559Y-80830280D01*
X110741710Y-81121431D01*
X111122116Y-81279000D01*
X111533864Y-81279000D01*
X111816402Y-81161969D01*
X112276959Y-81622527D01*
X112127166Y-81622527D01*
X111746760Y-81780096D01*
X111455609Y-82071247D01*
X111298040Y-82451653D01*
X111298040Y-82863401D01*
X111455609Y-83243807D01*
X111746760Y-83534958D01*
X112127166Y-83692527D01*
X112151624Y-83692527D01*
X112228569Y-83878290D01*
X112519720Y-84169441D01*
X112900126Y-84327010D01*
X113311874Y-84327010D01*
X113692280Y-84169441D01*
X113983431Y-83878290D01*
X114078833Y-83647968D01*
X116171883Y-81554918D01*
X116292569Y-81846280D01*
X116410001Y-81963712D01*
X116410000Y-86906289D01*
X116292569Y-87023720D01*
X116135000Y-87404126D01*
X116135000Y-87815874D01*
X116292569Y-88196280D01*
X116583720Y-88487431D01*
X116964126Y-88645000D01*
X117375874Y-88645000D01*
X117756280Y-88487431D01*
X118047431Y-88196280D01*
X118205000Y-87815874D01*
X118205000Y-87404126D01*
X118047431Y-87023720D01*
X117930000Y-86906289D01*
X117930000Y-81963711D01*
X118047431Y-81846280D01*
X118205000Y-81465874D01*
X118205000Y-81054126D01*
X118047431Y-80673720D01*
X117756280Y-80382569D01*
X117443000Y-80252804D01*
X117443000Y-80038126D01*
X117285431Y-79657720D01*
X116994280Y-79366569D01*
X116613874Y-79209000D01*
X116497290Y-79209000D01*
X116453382Y-79102996D01*
X116162231Y-78811845D01*
X115781825Y-78654276D01*
X115370077Y-78654276D01*
X114989671Y-78811845D01*
X114698520Y-79102996D01*
X114540951Y-79483402D01*
X114540951Y-79895150D01*
X114587684Y-80007973D01*
X114454280Y-79874569D01*
X114073874Y-79717000D01*
X113907802Y-79717000D01*
X113062813Y-78872011D01*
X112967423Y-78641720D01*
X112676272Y-78350569D01*
X112295866Y-78193000D01*
X111884118Y-78193000D01*
X111503712Y-78350569D01*
X111212561Y-78641720D01*
X111054992Y-79022126D01*
X111054992Y-79236804D01*
X110741710Y-79366569D01*
X110450559Y-79657720D01*
X110292990Y-80038126D01*
X93693585Y-80038126D01*
X93917431Y-79814280D01*
X94075000Y-79433874D01*
X94075000Y-79022126D01*
X93917431Y-78641720D01*
X93626280Y-78350569D01*
X93245874Y-78193000D01*
X93093913Y-78193000D01*
X93079929Y-78172071D01*
X92828537Y-78004096D01*
X92606852Y-77960000D01*
X92606847Y-77960000D01*
X92532000Y-77945112D01*
X92457153Y-77960000D01*
X91926514Y-77960000D01*
X92027959Y-77450000D01*
X91942705Y-77021399D01*
X92057822Y-77021399D01*
X92162569Y-77274280D01*
X92453720Y-77565431D01*
X92834126Y-77723000D01*
X93245874Y-77723000D01*
X93626280Y-77565431D01*
X93917431Y-77274280D01*
X94075000Y-76893874D01*
X94075000Y-76482126D01*
X93917431Y-76101720D01*
X93626280Y-75810569D01*
X93245874Y-75653000D01*
X93070828Y-75653000D01*
X92909936Y-75545495D01*
X92688251Y-75501399D01*
X92688246Y-75501399D01*
X92613399Y-75486511D01*
X92538552Y-75501399D01*
X91907191Y-75501399D01*
X91911650Y-75494725D01*
X92027959Y-74910000D01*
X91911650Y-74325275D01*
X91580430Y-73829570D01*
X91296719Y-73640000D01*
X91580430Y-73450430D01*
X91911650Y-72954725D01*
X92027959Y-72370000D01*
X91911650Y-71785275D01*
X91580430Y-71289570D01*
X91296719Y-71100000D01*
X91580430Y-70910430D01*
X91911650Y-70414725D01*
X92027959Y-69830000D01*
X91911650Y-69245275D01*
X91580430Y-68749570D01*
X91296719Y-68560000D01*
X91580430Y-68370430D01*
X91911650Y-67874725D01*
X92027959Y-67290000D01*
X91911650Y-66705275D01*
X91580430Y-66209570D01*
X91296719Y-66020000D01*
X91559300Y-65844548D01*
X98501000Y-65844548D01*
X98501000Y-66703452D01*
X98829688Y-67496975D01*
X99437025Y-68104312D01*
X100230548Y-68433000D01*
X101089452Y-68433000D01*
X101882975Y-68104312D01*
X102490312Y-67496975D01*
X102819000Y-66703452D01*
X102819000Y-66322126D01*
X114357000Y-66322126D01*
X114357000Y-66733874D01*
X114514569Y-67114280D01*
X114805720Y-67405431D01*
X115186126Y-67563000D01*
X115597874Y-67563000D01*
X115978280Y-67405431D01*
X116269431Y-67114280D01*
X116417152Y-66757649D01*
X117330253Y-65844548D01*
X118821000Y-65844548D01*
X118821000Y-66703452D01*
X119149688Y-67496975D01*
X119757025Y-68104312D01*
X120550548Y-68433000D01*
X121409452Y-68433000D01*
X122202975Y-68104312D01*
X122810312Y-67496975D01*
X123139000Y-66703452D01*
X123139000Y-65844548D01*
X122810312Y-65051025D01*
X122202975Y-64443688D01*
X121409452Y-64115000D01*
X120550548Y-64115000D01*
X119757025Y-64443688D01*
X119149688Y-65051025D01*
X118821000Y-65844548D01*
X117330253Y-65844548D01*
X117389802Y-65785000D01*
X117555874Y-65785000D01*
X117936280Y-65627431D01*
X118227431Y-65336280D01*
X118385000Y-64955874D01*
X118385000Y-64544126D01*
X118227431Y-64163720D01*
X117936280Y-63872569D01*
X117555874Y-63715000D01*
X117144126Y-63715000D01*
X116763720Y-63872569D01*
X116472569Y-64163720D01*
X116315000Y-64544126D01*
X116315000Y-64710198D01*
X115532199Y-65493000D01*
X115186126Y-65493000D01*
X114805720Y-65650569D01*
X114514569Y-65941720D01*
X114357000Y-66322126D01*
X102819000Y-66322126D01*
X102819000Y-65844548D01*
X102490312Y-65051025D01*
X101882975Y-64443688D01*
X101089452Y-64115000D01*
X100230548Y-64115000D01*
X99437025Y-64443688D01*
X98829688Y-65051025D01*
X98501000Y-65844548D01*
X91559300Y-65844548D01*
X91580430Y-65830430D01*
X91911650Y-65334725D01*
X92027959Y-64750000D01*
X91911650Y-64165275D01*
X91580430Y-63669570D01*
X91296719Y-63480000D01*
X91580430Y-63290430D01*
X91911650Y-62794725D01*
X92027959Y-62210000D01*
X91911650Y-61625275D01*
X91580430Y-61129570D01*
X91296719Y-60940000D01*
X91580430Y-60750430D01*
X91911650Y-60254725D01*
X92027959Y-59670000D01*
X91911650Y-59085275D01*
X91580430Y-58589570D01*
X91296719Y-58400000D01*
X91580430Y-58210430D01*
X91911650Y-57714725D01*
X91986123Y-57340322D01*
X115670000Y-57340322D01*
X115670000Y-58189678D01*
X115995034Y-58974380D01*
X116595620Y-59574966D01*
X117380322Y-59900000D01*
X118229678Y-59900000D01*
X119014380Y-59574966D01*
X119614966Y-58974380D01*
X119940000Y-58189678D01*
X119940000Y-57340322D01*
X119614966Y-56555620D01*
X119014380Y-55955034D01*
X118229678Y-55630000D01*
X117380322Y-55630000D01*
X116595620Y-55955034D01*
X115995034Y-56555620D01*
X115670000Y-57340322D01*
X91986123Y-57340322D01*
X92027959Y-57130000D01*
X91911650Y-56545275D01*
X91580430Y-56049570D01*
X91296719Y-55860000D01*
X91580430Y-55670430D01*
X91911650Y-55174725D01*
X92027959Y-54590000D01*
X91911650Y-54005275D01*
X91580430Y-53509570D01*
X91296719Y-53320000D01*
X91580430Y-53130430D01*
X91911650Y-52634725D01*
X92027959Y-52050000D01*
X91994332Y-51880941D01*
X117203000Y-51880941D01*
X117203000Y-52591059D01*
X117474750Y-53247121D01*
X117976879Y-53749250D01*
X118632941Y-54021000D01*
X119343059Y-54021000D01*
X119999121Y-53749250D01*
X120501250Y-53247121D01*
X120773000Y-52591059D01*
X120773000Y-51880941D01*
X120501250Y-51224879D01*
X119999121Y-50722750D01*
X119343059Y-50451000D01*
X118632941Y-50451000D01*
X117976879Y-50722750D01*
X117474750Y-51224879D01*
X117203000Y-51880941D01*
X91994332Y-51880941D01*
X91911650Y-51465275D01*
X91580430Y-50969570D01*
X91296719Y-50780000D01*
X91580430Y-50590430D01*
X91911650Y-50094725D01*
X92027959Y-49510000D01*
X91911650Y-48925275D01*
X91580430Y-48429570D01*
X91296719Y-48240000D01*
X91580430Y-48050430D01*
X91911650Y-47554725D01*
X92027959Y-46970000D01*
X91911650Y-46385275D01*
X91580430Y-45889570D01*
X91296719Y-45700000D01*
X91580430Y-45510430D01*
X91591324Y-45494126D01*
X112325000Y-45494126D01*
X112325000Y-45905874D01*
X112482569Y-46286280D01*
X112600000Y-46403711D01*
X112600001Y-49305371D01*
X112486109Y-49419263D01*
X112328540Y-49799669D01*
X112328540Y-50211417D01*
X112486109Y-50591823D01*
X112777260Y-50882974D01*
X113157666Y-51040543D01*
X113569414Y-51040543D01*
X113876087Y-50913515D01*
X114182920Y-51040609D01*
X114594668Y-51040609D01*
X114975074Y-50883040D01*
X115266225Y-50591889D01*
X115423794Y-50211483D01*
X115423794Y-49799735D01*
X115273783Y-49437576D01*
X115420233Y-49584026D01*
X116113050Y-49871000D01*
X116862950Y-49871000D01*
X117555767Y-49584026D01*
X118086026Y-49053767D01*
X118373000Y-48360950D01*
X118373000Y-47611050D01*
X119603000Y-47611050D01*
X119603000Y-48360950D01*
X119889974Y-49053767D01*
X120420233Y-49584026D01*
X121113050Y-49871000D01*
X121862950Y-49871000D01*
X122555767Y-49584026D01*
X123086026Y-49053767D01*
X123373000Y-48360950D01*
X123373000Y-47611050D01*
X123086026Y-46918233D01*
X122555767Y-46387974D01*
X121862950Y-46101000D01*
X121113050Y-46101000D01*
X120420233Y-46387974D01*
X119889974Y-46918233D01*
X119603000Y-47611050D01*
X118373000Y-47611050D01*
X118086026Y-46918233D01*
X117555767Y-46387974D01*
X116862950Y-46101000D01*
X116113050Y-46101000D01*
X115420233Y-46387974D01*
X115148794Y-46659413D01*
X115148794Y-46390917D01*
X115253431Y-46286280D01*
X115411000Y-45905874D01*
X115411000Y-45574793D01*
X115420233Y-45584026D01*
X116113050Y-45871000D01*
X116862950Y-45871000D01*
X117555767Y-45584026D01*
X118086026Y-45053767D01*
X118373000Y-44360950D01*
X118373000Y-43611050D01*
X119603000Y-43611050D01*
X119603000Y-44360950D01*
X119889974Y-45053767D01*
X120420233Y-45584026D01*
X121113050Y-45871000D01*
X121862950Y-45871000D01*
X122555767Y-45584026D01*
X123086026Y-45053767D01*
X123373000Y-44360950D01*
X123373000Y-43611050D01*
X123086026Y-42918233D01*
X122555767Y-42387974D01*
X121862950Y-42101000D01*
X121113050Y-42101000D01*
X120420233Y-42387974D01*
X119889974Y-42918233D01*
X119603000Y-43611050D01*
X118373000Y-43611050D01*
X118086026Y-42918233D01*
X117555767Y-42387974D01*
X116862950Y-42101000D01*
X116113050Y-42101000D01*
X115420233Y-42387974D01*
X114889974Y-42918233D01*
X114603000Y-43611050D01*
X114603000Y-44360950D01*
X114759400Y-44738534D01*
X114581874Y-44665000D01*
X114170126Y-44665000D01*
X113868000Y-44790144D01*
X113565874Y-44665000D01*
X113154126Y-44665000D01*
X112773720Y-44822569D01*
X112482569Y-45113720D01*
X112325000Y-45494126D01*
X91591324Y-45494126D01*
X91911650Y-45014725D01*
X92027959Y-44430000D01*
X91911650Y-43845275D01*
X91580430Y-43349570D01*
X91296719Y-43160000D01*
X91580430Y-42970430D01*
X91911650Y-42474725D01*
X92027959Y-41890000D01*
X91911650Y-41305275D01*
X91580430Y-40809570D01*
X91278979Y-40608146D01*
X91388490Y-40556821D01*
X91782688Y-40124947D01*
X91954958Y-39709026D01*
X91903805Y-39611050D01*
X114603000Y-39611050D01*
X114603000Y-40360950D01*
X114889974Y-41053767D01*
X115420233Y-41584026D01*
X116113050Y-41871000D01*
X116862950Y-41871000D01*
X117555767Y-41584026D01*
X118086026Y-41053767D01*
X118373000Y-40360950D01*
X118373000Y-39611050D01*
X119603000Y-39611050D01*
X119603000Y-40360950D01*
X119889974Y-41053767D01*
X120420233Y-41584026D01*
X121113050Y-41871000D01*
X121862950Y-41871000D01*
X122555767Y-41584026D01*
X123086026Y-41053767D01*
X123373000Y-40360950D01*
X123373000Y-39611050D01*
X123086026Y-38918233D01*
X122555767Y-38387974D01*
X121862950Y-38101000D01*
X121113050Y-38101000D01*
X120420233Y-38387974D01*
X119889974Y-38918233D01*
X119603000Y-39611050D01*
X118373000Y-39611050D01*
X118086026Y-38918233D01*
X117555767Y-38387974D01*
X116862950Y-38101000D01*
X116113050Y-38101000D01*
X115420233Y-38387974D01*
X114889974Y-38918233D01*
X114603000Y-39611050D01*
X91903805Y-39611050D01*
X91833817Y-39477000D01*
X90627000Y-39477000D01*
X90627000Y-39497000D01*
X90373000Y-39497000D01*
X90373000Y-39477000D01*
X88087000Y-39477000D01*
X88087000Y-39497000D01*
X87833000Y-39497000D01*
X87833000Y-39477000D01*
X86620150Y-39477000D01*
X86461400Y-39635750D01*
X86461400Y-40339910D01*
X86558073Y-40573299D01*
X86736702Y-40751927D01*
X86878767Y-40810772D01*
X86548350Y-41305275D01*
X86432041Y-41890000D01*
X86548350Y-42474725D01*
X86879570Y-42970430D01*
X87163281Y-43160000D01*
X86879570Y-43349570D01*
X86548350Y-43845275D01*
X86432041Y-44430000D01*
X86548350Y-45014725D01*
X86879570Y-45510430D01*
X87163281Y-45700000D01*
X86879570Y-45889570D01*
X86548350Y-46385275D01*
X86432041Y-46970000D01*
X86548350Y-47554725D01*
X86879570Y-48050430D01*
X87163281Y-48240000D01*
X86879570Y-48429570D01*
X86548350Y-48925275D01*
X86432041Y-49510000D01*
X86548350Y-50094725D01*
X86879570Y-50590430D01*
X87163281Y-50780000D01*
X86879570Y-50969570D01*
X86548350Y-51465275D01*
X86432041Y-52050000D01*
X86548350Y-52634725D01*
X86879570Y-53130430D01*
X87163281Y-53320000D01*
X86879570Y-53509570D01*
X86548350Y-54005275D01*
X86432041Y-54590000D01*
X86548350Y-55174725D01*
X86879570Y-55670430D01*
X87163281Y-55860000D01*
X86879570Y-56049570D01*
X86548350Y-56545275D01*
X86432041Y-57130000D01*
X86548350Y-57714725D01*
X86879570Y-58210430D01*
X87163281Y-58400000D01*
X86879570Y-58589570D01*
X86548350Y-59085275D01*
X86432041Y-59670000D01*
X86548350Y-60254725D01*
X86879570Y-60750430D01*
X87163281Y-60940000D01*
X86879570Y-61129570D01*
X86548350Y-61625275D01*
X86432041Y-62210000D01*
X86548350Y-62794725D01*
X86879570Y-63290430D01*
X87163281Y-63480000D01*
X86879570Y-63669570D01*
X86548350Y-64165275D01*
X86432041Y-64750000D01*
X86548350Y-65334725D01*
X86879570Y-65830430D01*
X87163281Y-66020000D01*
X86879570Y-66209570D01*
X86548350Y-66705275D01*
X86432041Y-67290000D01*
X86548350Y-67874725D01*
X86879570Y-68370430D01*
X87163281Y-68560000D01*
X86879570Y-68749570D01*
X86548350Y-69245275D01*
X86432041Y-69830000D01*
X86548350Y-70414725D01*
X86879570Y-70910430D01*
X87163281Y-71100000D01*
X86879570Y-71289570D01*
X86548350Y-71785275D01*
X86432041Y-72370000D01*
X86548350Y-72954725D01*
X86879570Y-73450430D01*
X87163281Y-73640000D01*
X86879570Y-73829570D01*
X86548350Y-74325275D01*
X86432041Y-74910000D01*
X86498526Y-75244245D01*
X86357720Y-75302569D01*
X86066569Y-75593720D01*
X85909000Y-75974126D01*
X85909000Y-76385874D01*
X86066569Y-76766280D01*
X86357720Y-77057431D01*
X86498526Y-77115755D01*
X86432041Y-77450000D01*
X86498526Y-77784245D01*
X86357720Y-77842569D01*
X86066569Y-78133720D01*
X85909000Y-78514126D01*
X85909000Y-78925874D01*
X86066569Y-79306280D01*
X86357720Y-79597431D01*
X86498526Y-79655755D01*
X86432041Y-79990000D01*
X86548350Y-80574725D01*
X86564793Y-80599334D01*
X86459526Y-80669671D01*
X86459524Y-80669673D01*
X86396071Y-80712071D01*
X86382087Y-80733000D01*
X86230126Y-80733000D01*
X85849720Y-80890569D01*
X85558569Y-81181720D01*
X85401000Y-81562126D01*
X43395638Y-81562126D01*
X43320430Y-81449570D01*
X43036719Y-81260000D01*
X43320430Y-81070430D01*
X43651650Y-80574725D01*
X43767959Y-79990000D01*
X43651650Y-79405275D01*
X43320430Y-78909570D01*
X43036719Y-78720000D01*
X43320430Y-78530430D01*
X43651650Y-78034725D01*
X43767959Y-77450000D01*
X43651650Y-76865275D01*
X43320430Y-76369570D01*
X43036719Y-76180000D01*
X43320430Y-75990430D01*
X43651650Y-75494725D01*
X43767959Y-74910000D01*
X43651650Y-74325275D01*
X43320430Y-73829570D01*
X43036719Y-73640000D01*
X43320430Y-73450430D01*
X43651650Y-72954725D01*
X43767959Y-72370000D01*
X43651650Y-71785275D01*
X43320430Y-71289570D01*
X43036719Y-71100000D01*
X43320430Y-70910430D01*
X43651650Y-70414725D01*
X43767959Y-69830000D01*
X43651650Y-69245275D01*
X43320430Y-68749570D01*
X43036719Y-68560000D01*
X43320430Y-68370430D01*
X43651650Y-67874725D01*
X43767959Y-67290000D01*
X43651650Y-66705275D01*
X43320430Y-66209570D01*
X43036719Y-66020000D01*
X43320430Y-65830430D01*
X43651650Y-65334725D01*
X43767959Y-64750000D01*
X43651650Y-64165275D01*
X43320430Y-63669570D01*
X43036719Y-63480000D01*
X43320430Y-63290430D01*
X43651650Y-62794725D01*
X43767959Y-62210000D01*
X43651650Y-61625275D01*
X43320430Y-61129570D01*
X43036719Y-60940000D01*
X43320430Y-60750430D01*
X43651650Y-60254725D01*
X43684311Y-60090525D01*
X50730000Y-60090525D01*
X50730000Y-60502273D01*
X50887569Y-60882679D01*
X51005001Y-61000111D01*
X51005000Y-71031289D01*
X50887569Y-71148720D01*
X50730000Y-71529126D01*
X50730000Y-71940874D01*
X50887569Y-72321280D01*
X51178720Y-72612431D01*
X51559126Y-72770000D01*
X51970874Y-72770000D01*
X52351280Y-72612431D01*
X52642431Y-72321280D01*
X52800000Y-71940874D01*
X52800000Y-71529126D01*
X52642431Y-71148720D01*
X52525000Y-71031289D01*
X52525000Y-61000110D01*
X52642431Y-60882679D01*
X52800000Y-60502273D01*
X52800000Y-60090525D01*
X52642431Y-59710119D01*
X52351280Y-59418968D01*
X51970874Y-59261399D01*
X51559126Y-59261399D01*
X51178720Y-59418968D01*
X50887569Y-59710119D01*
X50730000Y-60090525D01*
X43684311Y-60090525D01*
X43767959Y-59670000D01*
X43651650Y-59085275D01*
X43320430Y-58589570D01*
X43036719Y-58400000D01*
X43320430Y-58210430D01*
X43651650Y-57714725D01*
X43767959Y-57130000D01*
X43651650Y-56545275D01*
X43320430Y-56049570D01*
X43036719Y-55860000D01*
X43320430Y-55670430D01*
X43651650Y-55174725D01*
X43767959Y-54590000D01*
X43651650Y-54005275D01*
X43320430Y-53509570D01*
X43036719Y-53320000D01*
X43320430Y-53130430D01*
X43651650Y-52634725D01*
X43763980Y-52070000D01*
X45475908Y-52070000D01*
X45591161Y-52649418D01*
X45919375Y-53140625D01*
X46217761Y-53340000D01*
X45919375Y-53539375D01*
X45591161Y-54030582D01*
X45475908Y-54610000D01*
X45591161Y-55189418D01*
X45919375Y-55680625D01*
X45937619Y-55692816D01*
X45892235Y-55701843D01*
X45682191Y-55842191D01*
X45541843Y-56052235D01*
X45492560Y-56300000D01*
X45492560Y-58000000D01*
X45541843Y-58247765D01*
X45682191Y-58457809D01*
X45892235Y-58598157D01*
X46140000Y-58647440D01*
X47840000Y-58647440D01*
X48087765Y-58598157D01*
X48297809Y-58457809D01*
X48438157Y-58247765D01*
X48487440Y-58000000D01*
X48487440Y-56300000D01*
X48438157Y-56052235D01*
X48297809Y-55842191D01*
X48087765Y-55701843D01*
X48042381Y-55692816D01*
X48060625Y-55680625D01*
X48078331Y-55654126D01*
X62541000Y-55654126D01*
X62541000Y-56065874D01*
X62698569Y-56446280D01*
X62989720Y-56737431D01*
X63370126Y-56895000D01*
X63781874Y-56895000D01*
X64162280Y-56737431D01*
X64279711Y-56620000D01*
X67317289Y-56620000D01*
X67434720Y-56737431D01*
X67815126Y-56895000D01*
X68226874Y-56895000D01*
X68607280Y-56737431D01*
X68898431Y-56446280D01*
X69056000Y-56065874D01*
X69056000Y-55654126D01*
X68898431Y-55273720D01*
X68607280Y-54982569D01*
X68226874Y-54825000D01*
X67815126Y-54825000D01*
X67434720Y-54982569D01*
X67317289Y-55100000D01*
X64279711Y-55100000D01*
X64162280Y-54982569D01*
X63781874Y-54825000D01*
X63370126Y-54825000D01*
X62989720Y-54982569D01*
X62698569Y-55273720D01*
X62541000Y-55654126D01*
X48078331Y-55654126D01*
X48388839Y-55189418D01*
X48504092Y-54610000D01*
X48388839Y-54030582D01*
X48060625Y-53539375D01*
X47762239Y-53340000D01*
X48060625Y-53140625D01*
X48388839Y-52649418D01*
X48504092Y-52070000D01*
X48388839Y-51490582D01*
X48200777Y-51209126D01*
X65716000Y-51209126D01*
X65716000Y-51620874D01*
X65873569Y-52001280D01*
X65991000Y-52118711D01*
X65991001Y-53251288D01*
X65873569Y-53368720D01*
X65716000Y-53749126D01*
X65716000Y-54160874D01*
X65873569Y-54541280D01*
X66164720Y-54832431D01*
X66545126Y-54990000D01*
X66956874Y-54990000D01*
X67337280Y-54832431D01*
X67628431Y-54541280D01*
X67786000Y-54160874D01*
X67786000Y-53749126D01*
X67628431Y-53368720D01*
X67511000Y-53251289D01*
X67511000Y-52118711D01*
X67628431Y-52001280D01*
X67786000Y-51620874D01*
X67786000Y-51209126D01*
X67628431Y-50828720D01*
X67337280Y-50537569D01*
X66956874Y-50380000D01*
X66545126Y-50380000D01*
X66164720Y-50537569D01*
X65873569Y-50828720D01*
X65716000Y-51209126D01*
X48200777Y-51209126D01*
X48060625Y-50999375D01*
X47741522Y-50786157D01*
X47871358Y-50725183D01*
X48261645Y-50296924D01*
X48431476Y-49886890D01*
X48310155Y-49657000D01*
X47117000Y-49657000D01*
X47117000Y-49677000D01*
X46863000Y-49677000D01*
X46863000Y-49657000D01*
X45669845Y-49657000D01*
X45548524Y-49886890D01*
X45718355Y-50296924D01*
X46108642Y-50725183D01*
X46238478Y-50786157D01*
X45919375Y-50999375D01*
X45591161Y-51490582D01*
X45475908Y-52070000D01*
X43763980Y-52070000D01*
X43767959Y-52050000D01*
X43651650Y-51465275D01*
X43320430Y-50969570D01*
X43036719Y-50780000D01*
X43320430Y-50590430D01*
X43651650Y-50094725D01*
X43767959Y-49510000D01*
X43700948Y-49173110D01*
X45548524Y-49173110D01*
X45669845Y-49403000D01*
X46863000Y-49403000D01*
X46863000Y-48209181D01*
X47117000Y-48209181D01*
X47117000Y-49403000D01*
X48310155Y-49403000D01*
X48431476Y-49173110D01*
X48261645Y-48763076D01*
X47871358Y-48334817D01*
X47346892Y-48088514D01*
X47117000Y-48209181D01*
X46863000Y-48209181D01*
X46633108Y-48088514D01*
X46108642Y-48334817D01*
X45718355Y-48763076D01*
X45548524Y-49173110D01*
X43700948Y-49173110D01*
X43651650Y-48925275D01*
X43320430Y-48429570D01*
X43036719Y-48240000D01*
X43320430Y-48050430D01*
X43651650Y-47554725D01*
X43767959Y-46970000D01*
X43651650Y-46385275D01*
X43320430Y-45889570D01*
X43036719Y-45700000D01*
X43320430Y-45510430D01*
X43651650Y-45014725D01*
X43767959Y-44430000D01*
X43651650Y-43845275D01*
X43334159Y-43370116D01*
X44507000Y-43370116D01*
X44507000Y-43781864D01*
X44664569Y-44162270D01*
X44955720Y-44453421D01*
X45336126Y-44610990D01*
X45410189Y-44610990D01*
X46285000Y-45485802D01*
X46285000Y-45651874D01*
X46442569Y-46032280D01*
X46733720Y-46323431D01*
X47114126Y-46481000D01*
X47525874Y-46481000D01*
X47906280Y-46323431D01*
X48197431Y-46032280D01*
X48355000Y-45651874D01*
X48355000Y-45240126D01*
X48197431Y-44859720D01*
X47906280Y-44568569D01*
X47525874Y-44411000D01*
X47359802Y-44411000D01*
X46577000Y-43628199D01*
X46577000Y-43370116D01*
X46419431Y-42989710D01*
X46128280Y-42698559D01*
X45747874Y-42540990D01*
X45336126Y-42540990D01*
X44955720Y-42698559D01*
X44664569Y-42989710D01*
X44507000Y-43370116D01*
X43334159Y-43370116D01*
X43320430Y-43349570D01*
X43036719Y-43160000D01*
X43320430Y-42970430D01*
X43651650Y-42474725D01*
X43767959Y-41890000D01*
X43651650Y-41305275D01*
X43320430Y-40809570D01*
X43018979Y-40608146D01*
X43128490Y-40556821D01*
X43522688Y-40124947D01*
X43694958Y-39709026D01*
X43573817Y-39477000D01*
X42367000Y-39477000D01*
X42367000Y-39497000D01*
X42113000Y-39497000D01*
X42113000Y-39477000D01*
X39827000Y-39477000D01*
X39827000Y-39497000D01*
X39573000Y-39497000D01*
X39573000Y-39477000D01*
X39553000Y-39477000D01*
X39553000Y-39223000D01*
X39573000Y-39223000D01*
X39573000Y-38010150D01*
X39827000Y-38010150D01*
X39827000Y-39223000D01*
X42113000Y-39223000D01*
X42113000Y-38015531D01*
X42367000Y-38015531D01*
X42367000Y-39223000D01*
X43573817Y-39223000D01*
X43694958Y-38990974D01*
X43522688Y-38575053D01*
X43128490Y-38143179D01*
X42599027Y-37895032D01*
X42367000Y-38015531D01*
X42113000Y-38015531D01*
X41880973Y-37895032D01*
X41351510Y-38143179D01*
X41184529Y-38326119D01*
X41101927Y-38126701D01*
X40923298Y-37948073D01*
X40689909Y-37851400D01*
X39985750Y-37851400D01*
X39827000Y-38010150D01*
X39573000Y-38010150D01*
X39414250Y-37851400D01*
X38710091Y-37851400D01*
X38688052Y-37860529D01*
X38658088Y-33845322D01*
X38835000Y-33845322D01*
X38835000Y-34694678D01*
X39160034Y-35479380D01*
X39760620Y-36079966D01*
X40545322Y-36405000D01*
X41394678Y-36405000D01*
X42179380Y-36079966D01*
X42779966Y-35479380D01*
X43105000Y-34694678D01*
X43105000Y-33845322D01*
X42779966Y-33060620D01*
X42179380Y-32460034D01*
X41394678Y-32135000D01*
X40545322Y-32135000D01*
X39760620Y-32460034D01*
X39160034Y-33060620D01*
X38835000Y-33845322D01*
X38658088Y-33845322D01*
X38592574Y-25066544D01*
X38783131Y-24272819D01*
X39121677Y-23455495D01*
X39583923Y-22701179D01*
X40158470Y-22028470D01*
X40831179Y-21453923D01*
X41585489Y-20991680D01*
X42402820Y-20653130D01*
X43263057Y-20446606D01*
X43512173Y-20427000D01*
X55306956Y-20427000D01*
X55393698Y-20437958D01*
G04 #@! TD*
M02*
