G04 #@! TF.GenerationSoftware,KiCad,Pcbnew,(5.0.1)-3*
G04 #@! TF.CreationDate,2018-11-19T22:52:35-06:00*
G04 #@! TF.ProjectId,19-ELC-2700(Telemetry),31392D454C432D323730302854656C65,rev?*
G04 #@! TF.SameCoordinates,Original*
G04 #@! TF.FileFunction,Copper,L1,Top,Signal*
G04 #@! TF.FilePolarity,Positive*
%FSLAX46Y46*%
G04 Gerber Fmt 4.6, Leading zero omitted, Abs format (unit mm)*
G04 Created by KiCad (PCBNEW (5.0.1)-3) date 11/19/2018 10:52:35 PM*
%MOMM*%
%LPD*%
G01*
G04 APERTURE LIST*
G04 #@! TA.AperFunction,ComponentPad*
%ADD10O,1.727200X1.727200*%
G04 #@! TD*
G04 #@! TA.AperFunction,ComponentPad*
%ADD11R,1.727200X1.727200*%
G04 #@! TD*
G04 #@! TA.AperFunction,ComponentPad*
%ADD12C,1.500000*%
G04 #@! TD*
G04 #@! TA.AperFunction,WasherPad*
%ADD13C,2.300000*%
G04 #@! TD*
G04 #@! TA.AperFunction,ComponentPad*
%ADD14C,2.500000*%
G04 #@! TD*
G04 #@! TA.AperFunction,SMDPad,CuDef*
%ADD15R,0.750000X1.200000*%
G04 #@! TD*
G04 #@! TA.AperFunction,SMDPad,CuDef*
%ADD16R,1.550000X0.600000*%
G04 #@! TD*
G04 #@! TA.AperFunction,Conductor*
%ADD17C,0.100000*%
G04 #@! TD*
G04 #@! TA.AperFunction,SMDPad,CuDef*
%ADD18C,0.950000*%
G04 #@! TD*
G04 #@! TA.AperFunction,SMDPad,CuDef*
%ADD19C,1.150000*%
G04 #@! TD*
G04 #@! TA.AperFunction,SMDPad,CuDef*
%ADD20R,2.500000X2.000000*%
G04 #@! TD*
G04 #@! TA.AperFunction,SMDPad,CuDef*
%ADD21R,1.500000X1.250000*%
G04 #@! TD*
G04 #@! TA.AperFunction,SMDPad,CuDef*
%ADD22R,1.200000X0.750000*%
G04 #@! TD*
G04 #@! TA.AperFunction,ComponentPad*
%ADD23R,1.700000X1.700000*%
G04 #@! TD*
G04 #@! TA.AperFunction,ComponentPad*
%ADD24O,1.700000X1.700000*%
G04 #@! TD*
G04 #@! TA.AperFunction,ComponentPad*
%ADD25R,2.032000X2.032000*%
G04 #@! TD*
G04 #@! TA.AperFunction,ComponentPad*
%ADD26O,2.032000X2.032000*%
G04 #@! TD*
G04 #@! TA.AperFunction,SMDPad,CuDef*
%ADD27R,5.900000X2.450000*%
G04 #@! TD*
G04 #@! TA.AperFunction,SMDPad,CuDef*
%ADD28R,1.200000X0.900000*%
G04 #@! TD*
G04 #@! TA.AperFunction,SMDPad,CuDef*
%ADD29R,0.900000X1.200000*%
G04 #@! TD*
G04 #@! TA.AperFunction,SMDPad,CuDef*
%ADD30R,1.130000X2.440000*%
G04 #@! TD*
G04 #@! TA.AperFunction,BGAPad,CuDef*
%ADD31C,1.500000*%
G04 #@! TD*
G04 #@! TA.AperFunction,SMDPad,CuDef*
%ADD32R,3.400000X1.800000*%
G04 #@! TD*
G04 #@! TA.AperFunction,ComponentPad*
%ADD33C,2.032000*%
G04 #@! TD*
G04 #@! TA.AperFunction,WasherPad*
%ADD34C,3.048000*%
G04 #@! TD*
G04 #@! TA.AperFunction,SMDPad,CuDef*
%ADD35R,0.600000X1.550000*%
G04 #@! TD*
G04 #@! TA.AperFunction,SMDPad,CuDef*
%ADD36R,2.350000X2.350000*%
G04 #@! TD*
G04 #@! TA.AperFunction,SMDPad,CuDef*
%ADD37R,0.250000X0.700000*%
G04 #@! TD*
G04 #@! TA.AperFunction,SMDPad,CuDef*
%ADD38R,2.380000X1.660000*%
G04 #@! TD*
G04 #@! TA.AperFunction,SMDPad,CuDef*
%ADD39R,1.900000X1.100000*%
G04 #@! TD*
G04 #@! TA.AperFunction,ComponentPad*
%ADD40R,2.200000X2.200000*%
G04 #@! TD*
G04 #@! TA.AperFunction,ComponentPad*
%ADD41C,2.200000*%
G04 #@! TD*
G04 #@! TA.AperFunction,ViaPad*
%ADD42C,0.800000*%
G04 #@! TD*
G04 #@! TA.AperFunction,Conductor*
%ADD43C,0.250000*%
G04 #@! TD*
G04 #@! TA.AperFunction,Conductor*
%ADD44C,0.304800*%
G04 #@! TD*
G04 #@! TA.AperFunction,Conductor*
%ADD45C,0.508000*%
G04 #@! TD*
G04 #@! TA.AperFunction,Conductor*
%ADD46C,0.254000*%
G04 #@! TD*
G04 APERTURE END LIST*
D10*
G04 #@! TO.P,J1,P9_46*
G04 #@! TO.N,GND*
X42240000Y-95230000D03*
G04 #@! TO.P,J1,P9_45*
X39700000Y-95230000D03*
G04 #@! TO.P,J1,P9_44*
X42240000Y-92690000D03*
G04 #@! TO.P,J1,P9_43*
X39700000Y-92690000D03*
G04 #@! TO.P,J1,P9_42*
G04 #@! TO.N,Net-(J1-PadP9_42)*
X42240000Y-90150000D03*
G04 #@! TO.P,J1,P9_41*
G04 #@! TO.N,Net-(J1-PadP9_41)*
X39700000Y-90150000D03*
G04 #@! TO.P,J1,P9_40*
G04 #@! TO.N,Net-(J1-PadP9_40)*
X42240000Y-87610000D03*
G04 #@! TO.P,J1,P9_39*
G04 #@! TO.N,Net-(J1-PadP9_39)*
X39700000Y-87610000D03*
G04 #@! TO.P,J1,P9_38*
G04 #@! TO.N,Net-(J1-PadP9_38)*
X42240000Y-85070000D03*
G04 #@! TO.P,J1,P9_37*
G04 #@! TO.N,Net-(J1-PadP9_37)*
X39700000Y-85070000D03*
G04 #@! TO.P,J1,P9_36*
G04 #@! TO.N,Net-(J1-PadP9_36)*
X42240000Y-82530000D03*
G04 #@! TO.P,J1,P9_35*
G04 #@! TO.N,Net-(J1-PadP9_35)*
X39700000Y-82530000D03*
G04 #@! TO.P,J1,P9_34*
G04 #@! TO.N,Net-(J1-PadP9_34)*
X42240000Y-79990000D03*
G04 #@! TO.P,J1,P9_33*
G04 #@! TO.N,Net-(J1-PadP9_33)*
X39700000Y-79990000D03*
G04 #@! TO.P,J1,P9_32*
G04 #@! TO.N,Net-(J1-PadP9_32)*
X42240000Y-77450000D03*
G04 #@! TO.P,J1,P9_31*
G04 #@! TO.N,/SW2*
X39700000Y-77450000D03*
G04 #@! TO.P,J1,P9_30*
G04 #@! TO.N,/SW1*
X42240000Y-74910000D03*
G04 #@! TO.P,J1,P9_29*
G04 #@! TO.N,/LED2*
X39700000Y-74910000D03*
G04 #@! TO.P,J1,P9_28*
G04 #@! TO.N,/LED1*
X42240000Y-72370000D03*
G04 #@! TO.P,J1,P9_27*
G04 #@! TO.N,/LED0*
X39700000Y-72370000D03*
G04 #@! TO.P,J1,P9_26*
G04 #@! TO.N,/CANTX*
X42240000Y-69830000D03*
G04 #@! TO.P,J1,P9_25*
G04 #@! TO.N,Net-(J1-PadP9_25)*
X39700000Y-69830000D03*
G04 #@! TO.P,J1,P9_24*
G04 #@! TO.N,/CANRX*
X42240000Y-67290000D03*
G04 #@! TO.P,J1,P9_23*
G04 #@! TO.N,Net-(J1-PadP9_23)*
X39700000Y-67290000D03*
G04 #@! TO.P,J1,P9_22*
G04 #@! TO.N,/GPSRX*
X42240000Y-64750000D03*
G04 #@! TO.P,J1,P9_21*
G04 #@! TO.N,/GPSTX*
X39700000Y-64750000D03*
G04 #@! TO.P,J1,P9_20*
G04 #@! TO.N,/I2Ccom*
X42240000Y-62210000D03*
G04 #@! TO.P,J1,P9_19*
G04 #@! TO.N,/I2Cclk*
X39700000Y-62210000D03*
G04 #@! TO.P,J1,P9_18*
G04 #@! TO.N,Net-(J1-PadP9_18)*
X42240000Y-59670000D03*
G04 #@! TO.P,J1,P9_17*
G04 #@! TO.N,Net-(J1-PadP9_17)*
X39700000Y-59670000D03*
G04 #@! TO.P,J1,P9_16*
G04 #@! TO.N,Net-(J1-PadP9_16)*
X42240000Y-57130000D03*
G04 #@! TO.P,J1,P9_15*
G04 #@! TO.N,Net-(J1-PadP9_15)*
X39700000Y-57130000D03*
G04 #@! TO.P,J1,P9_14*
G04 #@! TO.N,Net-(J1-PadP9_14)*
X42240000Y-54590000D03*
G04 #@! TO.P,J1,P9_13*
G04 #@! TO.N,/UART_TX*
X39700000Y-54590000D03*
G04 #@! TO.P,J1,P9_12*
G04 #@! TO.N,Net-(J1-PadP9_12)*
X42240000Y-52050000D03*
G04 #@! TO.P,J1,P9_11*
G04 #@! TO.N,/UART_RX*
X39700000Y-52050000D03*
G04 #@! TO.P,J1,P9_10*
G04 #@! TO.N,Net-(J1-PadP9_10)*
X42240000Y-49510000D03*
G04 #@! TO.P,J1,P9_9*
G04 #@! TO.N,Net-(J1-PadP9_9)*
X39700000Y-49510000D03*
G04 #@! TO.P,J1,P9_8*
G04 #@! TO.N,Net-(J1-PadP9_8)*
X42240000Y-46970000D03*
G04 #@! TO.P,J1,P9_7*
G04 #@! TO.N,Net-(J1-PadP9_7)*
X39700000Y-46970000D03*
G04 #@! TO.P,J1,P9_6*
G04 #@! TO.N,+5V*
X42240000Y-44430000D03*
G04 #@! TO.P,J1,P9_5*
X39700000Y-44430000D03*
G04 #@! TO.P,J1,P9_4*
G04 #@! TO.N,+3V3*
X42240000Y-41890000D03*
G04 #@! TO.P,J1,P9_3*
X39700000Y-41890000D03*
G04 #@! TO.P,J1,P9_2*
G04 #@! TO.N,GND*
X42240000Y-39350000D03*
D11*
G04 #@! TO.P,J1,P9_1*
X39700000Y-39350000D03*
D10*
G04 #@! TO.P,J1,P8_25*
G04 #@! TO.N,Net-(J1-PadP8_25)*
X87960000Y-69830000D03*
G04 #@! TO.P,J1,P8_10*
G04 #@! TO.N,Net-(J1-PadP8_10)*
X90500000Y-49510000D03*
G04 #@! TO.P,J1,P8_37*
G04 #@! TO.N,Net-(J1-PadP8_37)*
X87960000Y-85070000D03*
G04 #@! TO.P,J1,P8_18*
G04 #@! TO.N,Net-(J1-PadP8_18)*
X90500000Y-59670000D03*
G04 #@! TO.P,J1,P8_39*
G04 #@! TO.N,Net-(J1-PadP8_39)*
X87960000Y-87610000D03*
G04 #@! TO.P,J1,P8_27*
G04 #@! TO.N,Net-(J1-PadP8_27)*
X87960000Y-72370000D03*
G04 #@! TO.P,J1,P8_15*
G04 #@! TO.N,Net-(J1-PadP8_15)*
X87960000Y-57130000D03*
G04 #@! TO.P,J1,P8_11*
G04 #@! TO.N,Net-(J1-PadP8_11)*
X87960000Y-52050000D03*
G04 #@! TO.P,J1,P8_4*
G04 #@! TO.N,Net-(J1-PadP8_4)*
X90500000Y-41890000D03*
G04 #@! TO.P,J1,P8_31*
G04 #@! TO.N,Net-(J1-PadP8_31)*
X87960000Y-77450000D03*
G04 #@! TO.P,J1,P8_17*
G04 #@! TO.N,Net-(J1-PadP8_17)*
X87960000Y-59670000D03*
G04 #@! TO.P,J1,P8_7*
G04 #@! TO.N,Net-(J1-PadP8_7)*
X87960000Y-46970000D03*
G04 #@! TO.P,J1,P8_40*
G04 #@! TO.N,Net-(J1-PadP8_40)*
X90500000Y-87610000D03*
G04 #@! TO.P,J1,P8_46*
G04 #@! TO.N,Net-(J1-PadP8_46)*
X90500000Y-95230000D03*
G04 #@! TO.P,J1,P8_29*
G04 #@! TO.N,Net-(J1-PadP8_29)*
X87960000Y-74910000D03*
G04 #@! TO.P,J1,P8_12*
G04 #@! TO.N,Net-(J1-PadP8_12)*
X90500000Y-52050000D03*
G04 #@! TO.P,J1,P8_43*
G04 #@! TO.N,Net-(J1-PadP8_43)*
X87960000Y-92690000D03*
G04 #@! TO.P,J1,P8_42*
G04 #@! TO.N,Net-(J1-PadP8_42)*
X90500000Y-90150000D03*
G04 #@! TO.P,J1,P8_45*
G04 #@! TO.N,Net-(J1-PadP8_45)*
X87960000Y-95230000D03*
G04 #@! TO.P,J1,P8_34*
G04 #@! TO.N,Net-(J1-PadP8_34)*
X90500000Y-79990000D03*
G04 #@! TO.P,J1,P8_22*
G04 #@! TO.N,Net-(J1-PadP8_22)*
X90500000Y-64750000D03*
G04 #@! TO.P,J1,P8_6*
G04 #@! TO.N,Net-(J1-PadP8_6)*
X90500000Y-44430000D03*
G04 #@! TO.P,J1,P8_24*
G04 #@! TO.N,Net-(J1-PadP8_24)*
X90500000Y-67290000D03*
G04 #@! TO.P,J1,P8_8*
G04 #@! TO.N,Net-(J1-PadP8_8)*
X90500000Y-46970000D03*
G04 #@! TO.P,J1,P8_5*
G04 #@! TO.N,Net-(J1-PadP8_5)*
X87960000Y-44430000D03*
G04 #@! TO.P,J1,P8_3*
G04 #@! TO.N,Net-(J1-PadP8_3)*
X87960000Y-41890000D03*
G04 #@! TO.P,J1,P8_2*
G04 #@! TO.N,GND*
X90500000Y-39350000D03*
D11*
G04 #@! TO.P,J1,P8_1*
X87960000Y-39350000D03*
D10*
G04 #@! TO.P,J1,P8_38*
G04 #@! TO.N,Net-(J1-PadP8_38)*
X90500000Y-85070000D03*
G04 #@! TO.P,J1,P8_36*
G04 #@! TO.N,Net-(J1-PadP8_36)*
X90500000Y-82530000D03*
G04 #@! TO.P,J1,P8_23*
G04 #@! TO.N,Net-(J1-PadP8_23)*
X87960000Y-67290000D03*
G04 #@! TO.P,J1,P8_20*
G04 #@! TO.N,Net-(J1-PadP8_20)*
X90500000Y-62210000D03*
G04 #@! TO.P,J1,P8_9*
G04 #@! TO.N,Net-(J1-PadP8_9)*
X87960000Y-49510000D03*
G04 #@! TO.P,J1,P8_33*
G04 #@! TO.N,Net-(J1-PadP8_33)*
X87960000Y-79990000D03*
G04 #@! TO.P,J1,P8_28*
G04 #@! TO.N,Net-(J1-PadP8_28)*
X90500000Y-72370000D03*
G04 #@! TO.P,J1,P8_16*
G04 #@! TO.N,Net-(J1-PadP8_16)*
X90500000Y-57130000D03*
G04 #@! TO.P,J1,P8_14*
G04 #@! TO.N,Net-(J1-PadP8_14)*
X90500000Y-54590000D03*
G04 #@! TO.P,J1,P8_19*
G04 #@! TO.N,Net-(J1-PadP8_19)*
X87960000Y-62210000D03*
G04 #@! TO.P,J1,P8_41*
G04 #@! TO.N,Net-(J1-PadP8_41)*
X87960000Y-90150000D03*
G04 #@! TO.P,J1,P8_30*
G04 #@! TO.N,Net-(J1-PadP8_30)*
X90500000Y-74910000D03*
G04 #@! TO.P,J1,P8_44*
G04 #@! TO.N,Net-(J1-PadP8_44)*
X90500000Y-92690000D03*
G04 #@! TO.P,J1,P8_26*
G04 #@! TO.N,Net-(J1-PadP8_26)*
X90500000Y-69830000D03*
G04 #@! TO.P,J1,P8_35*
G04 #@! TO.N,Net-(J1-PadP8_35)*
X87960000Y-82530000D03*
G04 #@! TO.P,J1,P8_32*
G04 #@! TO.N,Net-(J1-PadP8_32)*
X90500000Y-77450000D03*
G04 #@! TO.P,J1,P8_21*
G04 #@! TO.N,Net-(J1-PadP8_21)*
X87960000Y-64750000D03*
G04 #@! TO.P,J1,P8_13*
G04 #@! TO.N,Net-(J1-PadP8_13)*
X87960000Y-54590000D03*
G04 #@! TD*
D12*
G04 #@! TO.P,J3,1*
G04 #@! TO.N,/12V_RAW*
X98120000Y-29190000D03*
G04 #@! TO.P,J3,4*
G04 #@! TO.N,/CANHigh*
X98120000Y-32190000D03*
G04 #@! TO.P,J3,5*
G04 #@! TO.N,/CANLow*
X101120000Y-32190000D03*
G04 #@! TO.P,J3,2*
G04 #@! TO.N,GND*
X101120000Y-29190000D03*
G04 #@! TO.P,J3,6*
G04 #@! TO.N,/CANHigh*
X104120000Y-32190000D03*
G04 #@! TO.P,J3,3*
G04 #@! TO.N,/CANLow*
X104120000Y-29190000D03*
G04 #@! TD*
D13*
G04 #@! TO.P,U1,*
G04 #@! TO.N,*
X118988000Y-35736000D03*
X118988000Y-52236000D03*
D14*
G04 #@! TO.P,U1,5*
G04 #@! TO.N,+12V*
X116488000Y-43986000D03*
G04 #@! TO.P,U1,4*
G04 #@! TO.N,Net-(U1-Pad4)*
X116488000Y-39986000D03*
G04 #@! TO.P,U1,6*
G04 #@! TO.N,/12V to 5V Converter/12V_IN*
X116488000Y-47986000D03*
G04 #@! TO.P,U1,3*
G04 #@! TO.N,Net-(U1-Pad3)*
X121488000Y-47986000D03*
G04 #@! TO.P,U1,2*
G04 #@! TO.N,Net-(U1-Pad2)*
X121488000Y-43986000D03*
G04 #@! TO.P,U1,1*
G04 #@! TO.N,Net-(U1-Pad1)*
X121488000Y-39986000D03*
G04 #@! TD*
D15*
G04 #@! TO.P,C10,2*
G04 #@! TO.N,GND*
X100152000Y-44745000D03*
G04 #@! TO.P,C10,1*
G04 #@! TO.N,Net-(C10-Pad1)*
X100152000Y-42845000D03*
G04 #@! TD*
D16*
G04 #@! TO.P,U2,1*
G04 #@! TO.N,Net-(C4-Pad1)*
X73896000Y-53955000D03*
G04 #@! TO.P,U2,2*
G04 #@! TO.N,Net-(C3-Pad1)*
X73896000Y-52685000D03*
G04 #@! TO.P,U2,3*
G04 #@! TO.N,+BATT*
X73896000Y-51415000D03*
G04 #@! TO.P,U2,4*
G04 #@! TO.N,GND*
X73896000Y-50145000D03*
G04 #@! TO.P,U2,5*
G04 #@! TO.N,/I2Ccom*
X68496000Y-50145000D03*
G04 #@! TO.P,U2,6*
G04 #@! TO.N,/I2Cclk*
X68496000Y-51415000D03*
G04 #@! TO.P,U2,7*
G04 #@! TO.N,Net-(U2-Pad7)*
X68496000Y-52685000D03*
G04 #@! TO.P,U2,8*
G04 #@! TO.N,+3V3*
X68496000Y-53955000D03*
G04 #@! TD*
D17*
G04 #@! TO.N,GND*
G04 #@! TO.C,C1*
G36*
X71746779Y-55386144D02*
X71769834Y-55389563D01*
X71792443Y-55395227D01*
X71814387Y-55403079D01*
X71835457Y-55413044D01*
X71855448Y-55425026D01*
X71874168Y-55438910D01*
X71891438Y-55454562D01*
X71907090Y-55471832D01*
X71920974Y-55490552D01*
X71932956Y-55510543D01*
X71942921Y-55531613D01*
X71950773Y-55553557D01*
X71956437Y-55576166D01*
X71959856Y-55599221D01*
X71961000Y-55622500D01*
X71961000Y-56097500D01*
X71959856Y-56120779D01*
X71956437Y-56143834D01*
X71950773Y-56166443D01*
X71942921Y-56188387D01*
X71932956Y-56209457D01*
X71920974Y-56229448D01*
X71907090Y-56248168D01*
X71891438Y-56265438D01*
X71874168Y-56281090D01*
X71855448Y-56294974D01*
X71835457Y-56306956D01*
X71814387Y-56316921D01*
X71792443Y-56324773D01*
X71769834Y-56330437D01*
X71746779Y-56333856D01*
X71723500Y-56335000D01*
X71148500Y-56335000D01*
X71125221Y-56333856D01*
X71102166Y-56330437D01*
X71079557Y-56324773D01*
X71057613Y-56316921D01*
X71036543Y-56306956D01*
X71016552Y-56294974D01*
X70997832Y-56281090D01*
X70980562Y-56265438D01*
X70964910Y-56248168D01*
X70951026Y-56229448D01*
X70939044Y-56209457D01*
X70929079Y-56188387D01*
X70921227Y-56166443D01*
X70915563Y-56143834D01*
X70912144Y-56120779D01*
X70911000Y-56097500D01*
X70911000Y-55622500D01*
X70912144Y-55599221D01*
X70915563Y-55576166D01*
X70921227Y-55553557D01*
X70929079Y-55531613D01*
X70939044Y-55510543D01*
X70951026Y-55490552D01*
X70964910Y-55471832D01*
X70980562Y-55454562D01*
X70997832Y-55438910D01*
X71016552Y-55425026D01*
X71036543Y-55413044D01*
X71057613Y-55403079D01*
X71079557Y-55395227D01*
X71102166Y-55389563D01*
X71125221Y-55386144D01*
X71148500Y-55385000D01*
X71723500Y-55385000D01*
X71746779Y-55386144D01*
X71746779Y-55386144D01*
G37*
D18*
G04 #@! TD*
G04 #@! TO.P,C1,2*
G04 #@! TO.N,GND*
X71436000Y-55860000D03*
D17*
G04 #@! TO.N,+3V3*
G04 #@! TO.C,C1*
G36*
X69996779Y-55386144D02*
X70019834Y-55389563D01*
X70042443Y-55395227D01*
X70064387Y-55403079D01*
X70085457Y-55413044D01*
X70105448Y-55425026D01*
X70124168Y-55438910D01*
X70141438Y-55454562D01*
X70157090Y-55471832D01*
X70170974Y-55490552D01*
X70182956Y-55510543D01*
X70192921Y-55531613D01*
X70200773Y-55553557D01*
X70206437Y-55576166D01*
X70209856Y-55599221D01*
X70211000Y-55622500D01*
X70211000Y-56097500D01*
X70209856Y-56120779D01*
X70206437Y-56143834D01*
X70200773Y-56166443D01*
X70192921Y-56188387D01*
X70182956Y-56209457D01*
X70170974Y-56229448D01*
X70157090Y-56248168D01*
X70141438Y-56265438D01*
X70124168Y-56281090D01*
X70105448Y-56294974D01*
X70085457Y-56306956D01*
X70064387Y-56316921D01*
X70042443Y-56324773D01*
X70019834Y-56330437D01*
X69996779Y-56333856D01*
X69973500Y-56335000D01*
X69398500Y-56335000D01*
X69375221Y-56333856D01*
X69352166Y-56330437D01*
X69329557Y-56324773D01*
X69307613Y-56316921D01*
X69286543Y-56306956D01*
X69266552Y-56294974D01*
X69247832Y-56281090D01*
X69230562Y-56265438D01*
X69214910Y-56248168D01*
X69201026Y-56229448D01*
X69189044Y-56209457D01*
X69179079Y-56188387D01*
X69171227Y-56166443D01*
X69165563Y-56143834D01*
X69162144Y-56120779D01*
X69161000Y-56097500D01*
X69161000Y-55622500D01*
X69162144Y-55599221D01*
X69165563Y-55576166D01*
X69171227Y-55553557D01*
X69179079Y-55531613D01*
X69189044Y-55510543D01*
X69201026Y-55490552D01*
X69214910Y-55471832D01*
X69230562Y-55454562D01*
X69247832Y-55438910D01*
X69266552Y-55425026D01*
X69286543Y-55413044D01*
X69307613Y-55403079D01*
X69329557Y-55395227D01*
X69352166Y-55389563D01*
X69375221Y-55386144D01*
X69398500Y-55385000D01*
X69973500Y-55385000D01*
X69996779Y-55386144D01*
X69996779Y-55386144D01*
G37*
D18*
G04 #@! TD*
G04 #@! TO.P,C1,1*
G04 #@! TO.N,+3V3*
X69686000Y-55860000D03*
D17*
G04 #@! TO.N,+BATT*
G04 #@! TO.C,C2*
G36*
X78646779Y-49036144D02*
X78669834Y-49039563D01*
X78692443Y-49045227D01*
X78714387Y-49053079D01*
X78735457Y-49063044D01*
X78755448Y-49075026D01*
X78774168Y-49088910D01*
X78791438Y-49104562D01*
X78807090Y-49121832D01*
X78820974Y-49140552D01*
X78832956Y-49160543D01*
X78842921Y-49181613D01*
X78850773Y-49203557D01*
X78856437Y-49226166D01*
X78859856Y-49249221D01*
X78861000Y-49272500D01*
X78861000Y-49747500D01*
X78859856Y-49770779D01*
X78856437Y-49793834D01*
X78850773Y-49816443D01*
X78842921Y-49838387D01*
X78832956Y-49859457D01*
X78820974Y-49879448D01*
X78807090Y-49898168D01*
X78791438Y-49915438D01*
X78774168Y-49931090D01*
X78755448Y-49944974D01*
X78735457Y-49956956D01*
X78714387Y-49966921D01*
X78692443Y-49974773D01*
X78669834Y-49980437D01*
X78646779Y-49983856D01*
X78623500Y-49985000D01*
X78048500Y-49985000D01*
X78025221Y-49983856D01*
X78002166Y-49980437D01*
X77979557Y-49974773D01*
X77957613Y-49966921D01*
X77936543Y-49956956D01*
X77916552Y-49944974D01*
X77897832Y-49931090D01*
X77880562Y-49915438D01*
X77864910Y-49898168D01*
X77851026Y-49879448D01*
X77839044Y-49859457D01*
X77829079Y-49838387D01*
X77821227Y-49816443D01*
X77815563Y-49793834D01*
X77812144Y-49770779D01*
X77811000Y-49747500D01*
X77811000Y-49272500D01*
X77812144Y-49249221D01*
X77815563Y-49226166D01*
X77821227Y-49203557D01*
X77829079Y-49181613D01*
X77839044Y-49160543D01*
X77851026Y-49140552D01*
X77864910Y-49121832D01*
X77880562Y-49104562D01*
X77897832Y-49088910D01*
X77916552Y-49075026D01*
X77936543Y-49063044D01*
X77957613Y-49053079D01*
X77979557Y-49045227D01*
X78002166Y-49039563D01*
X78025221Y-49036144D01*
X78048500Y-49035000D01*
X78623500Y-49035000D01*
X78646779Y-49036144D01*
X78646779Y-49036144D01*
G37*
D18*
G04 #@! TD*
G04 #@! TO.P,C2,1*
G04 #@! TO.N,+BATT*
X78336000Y-49510000D03*
D17*
G04 #@! TO.N,GND*
G04 #@! TO.C,C2*
G36*
X80396779Y-49036144D02*
X80419834Y-49039563D01*
X80442443Y-49045227D01*
X80464387Y-49053079D01*
X80485457Y-49063044D01*
X80505448Y-49075026D01*
X80524168Y-49088910D01*
X80541438Y-49104562D01*
X80557090Y-49121832D01*
X80570974Y-49140552D01*
X80582956Y-49160543D01*
X80592921Y-49181613D01*
X80600773Y-49203557D01*
X80606437Y-49226166D01*
X80609856Y-49249221D01*
X80611000Y-49272500D01*
X80611000Y-49747500D01*
X80609856Y-49770779D01*
X80606437Y-49793834D01*
X80600773Y-49816443D01*
X80592921Y-49838387D01*
X80582956Y-49859457D01*
X80570974Y-49879448D01*
X80557090Y-49898168D01*
X80541438Y-49915438D01*
X80524168Y-49931090D01*
X80505448Y-49944974D01*
X80485457Y-49956956D01*
X80464387Y-49966921D01*
X80442443Y-49974773D01*
X80419834Y-49980437D01*
X80396779Y-49983856D01*
X80373500Y-49985000D01*
X79798500Y-49985000D01*
X79775221Y-49983856D01*
X79752166Y-49980437D01*
X79729557Y-49974773D01*
X79707613Y-49966921D01*
X79686543Y-49956956D01*
X79666552Y-49944974D01*
X79647832Y-49931090D01*
X79630562Y-49915438D01*
X79614910Y-49898168D01*
X79601026Y-49879448D01*
X79589044Y-49859457D01*
X79579079Y-49838387D01*
X79571227Y-49816443D01*
X79565563Y-49793834D01*
X79562144Y-49770779D01*
X79561000Y-49747500D01*
X79561000Y-49272500D01*
X79562144Y-49249221D01*
X79565563Y-49226166D01*
X79571227Y-49203557D01*
X79579079Y-49181613D01*
X79589044Y-49160543D01*
X79601026Y-49140552D01*
X79614910Y-49121832D01*
X79630562Y-49104562D01*
X79647832Y-49088910D01*
X79666552Y-49075026D01*
X79686543Y-49063044D01*
X79707613Y-49053079D01*
X79729557Y-49045227D01*
X79752166Y-49039563D01*
X79775221Y-49036144D01*
X79798500Y-49035000D01*
X80373500Y-49035000D01*
X80396779Y-49036144D01*
X80396779Y-49036144D01*
G37*
D18*
G04 #@! TD*
G04 #@! TO.P,C2,2*
G04 #@! TO.N,GND*
X80086000Y-49510000D03*
D17*
G04 #@! TO.N,GND*
G04 #@! TO.C,C3*
G36*
X80396779Y-51576144D02*
X80419834Y-51579563D01*
X80442443Y-51585227D01*
X80464387Y-51593079D01*
X80485457Y-51603044D01*
X80505448Y-51615026D01*
X80524168Y-51628910D01*
X80541438Y-51644562D01*
X80557090Y-51661832D01*
X80570974Y-51680552D01*
X80582956Y-51700543D01*
X80592921Y-51721613D01*
X80600773Y-51743557D01*
X80606437Y-51766166D01*
X80609856Y-51789221D01*
X80611000Y-51812500D01*
X80611000Y-52287500D01*
X80609856Y-52310779D01*
X80606437Y-52333834D01*
X80600773Y-52356443D01*
X80592921Y-52378387D01*
X80582956Y-52399457D01*
X80570974Y-52419448D01*
X80557090Y-52438168D01*
X80541438Y-52455438D01*
X80524168Y-52471090D01*
X80505448Y-52484974D01*
X80485457Y-52496956D01*
X80464387Y-52506921D01*
X80442443Y-52514773D01*
X80419834Y-52520437D01*
X80396779Y-52523856D01*
X80373500Y-52525000D01*
X79798500Y-52525000D01*
X79775221Y-52523856D01*
X79752166Y-52520437D01*
X79729557Y-52514773D01*
X79707613Y-52506921D01*
X79686543Y-52496956D01*
X79666552Y-52484974D01*
X79647832Y-52471090D01*
X79630562Y-52455438D01*
X79614910Y-52438168D01*
X79601026Y-52419448D01*
X79589044Y-52399457D01*
X79579079Y-52378387D01*
X79571227Y-52356443D01*
X79565563Y-52333834D01*
X79562144Y-52310779D01*
X79561000Y-52287500D01*
X79561000Y-51812500D01*
X79562144Y-51789221D01*
X79565563Y-51766166D01*
X79571227Y-51743557D01*
X79579079Y-51721613D01*
X79589044Y-51700543D01*
X79601026Y-51680552D01*
X79614910Y-51661832D01*
X79630562Y-51644562D01*
X79647832Y-51628910D01*
X79666552Y-51615026D01*
X79686543Y-51603044D01*
X79707613Y-51593079D01*
X79729557Y-51585227D01*
X79752166Y-51579563D01*
X79775221Y-51576144D01*
X79798500Y-51575000D01*
X80373500Y-51575000D01*
X80396779Y-51576144D01*
X80396779Y-51576144D01*
G37*
D18*
G04 #@! TD*
G04 #@! TO.P,C3,2*
G04 #@! TO.N,GND*
X80086000Y-52050000D03*
D17*
G04 #@! TO.N,Net-(C3-Pad1)*
G04 #@! TO.C,C3*
G36*
X78646779Y-51576144D02*
X78669834Y-51579563D01*
X78692443Y-51585227D01*
X78714387Y-51593079D01*
X78735457Y-51603044D01*
X78755448Y-51615026D01*
X78774168Y-51628910D01*
X78791438Y-51644562D01*
X78807090Y-51661832D01*
X78820974Y-51680552D01*
X78832956Y-51700543D01*
X78842921Y-51721613D01*
X78850773Y-51743557D01*
X78856437Y-51766166D01*
X78859856Y-51789221D01*
X78861000Y-51812500D01*
X78861000Y-52287500D01*
X78859856Y-52310779D01*
X78856437Y-52333834D01*
X78850773Y-52356443D01*
X78842921Y-52378387D01*
X78832956Y-52399457D01*
X78820974Y-52419448D01*
X78807090Y-52438168D01*
X78791438Y-52455438D01*
X78774168Y-52471090D01*
X78755448Y-52484974D01*
X78735457Y-52496956D01*
X78714387Y-52506921D01*
X78692443Y-52514773D01*
X78669834Y-52520437D01*
X78646779Y-52523856D01*
X78623500Y-52525000D01*
X78048500Y-52525000D01*
X78025221Y-52523856D01*
X78002166Y-52520437D01*
X77979557Y-52514773D01*
X77957613Y-52506921D01*
X77936543Y-52496956D01*
X77916552Y-52484974D01*
X77897832Y-52471090D01*
X77880562Y-52455438D01*
X77864910Y-52438168D01*
X77851026Y-52419448D01*
X77839044Y-52399457D01*
X77829079Y-52378387D01*
X77821227Y-52356443D01*
X77815563Y-52333834D01*
X77812144Y-52310779D01*
X77811000Y-52287500D01*
X77811000Y-51812500D01*
X77812144Y-51789221D01*
X77815563Y-51766166D01*
X77821227Y-51743557D01*
X77829079Y-51721613D01*
X77839044Y-51700543D01*
X77851026Y-51680552D01*
X77864910Y-51661832D01*
X77880562Y-51644562D01*
X77897832Y-51628910D01*
X77916552Y-51615026D01*
X77936543Y-51603044D01*
X77957613Y-51593079D01*
X77979557Y-51585227D01*
X78002166Y-51579563D01*
X78025221Y-51576144D01*
X78048500Y-51575000D01*
X78623500Y-51575000D01*
X78646779Y-51576144D01*
X78646779Y-51576144D01*
G37*
D18*
G04 #@! TD*
G04 #@! TO.P,C3,1*
G04 #@! TO.N,Net-(C3-Pad1)*
X78336000Y-52050000D03*
D17*
G04 #@! TO.N,Net-(C4-Pad1)*
G04 #@! TO.C,C4*
G36*
X81616779Y-56606144D02*
X81639834Y-56609563D01*
X81662443Y-56615227D01*
X81684387Y-56623079D01*
X81705457Y-56633044D01*
X81725448Y-56645026D01*
X81744168Y-56658910D01*
X81761438Y-56674562D01*
X81777090Y-56691832D01*
X81790974Y-56710552D01*
X81802956Y-56730543D01*
X81812921Y-56751613D01*
X81820773Y-56773557D01*
X81826437Y-56796166D01*
X81829856Y-56819221D01*
X81831000Y-56842500D01*
X81831000Y-57417500D01*
X81829856Y-57440779D01*
X81826437Y-57463834D01*
X81820773Y-57486443D01*
X81812921Y-57508387D01*
X81802956Y-57529457D01*
X81790974Y-57549448D01*
X81777090Y-57568168D01*
X81761438Y-57585438D01*
X81744168Y-57601090D01*
X81725448Y-57614974D01*
X81705457Y-57626956D01*
X81684387Y-57636921D01*
X81662443Y-57644773D01*
X81639834Y-57650437D01*
X81616779Y-57653856D01*
X81593500Y-57655000D01*
X81118500Y-57655000D01*
X81095221Y-57653856D01*
X81072166Y-57650437D01*
X81049557Y-57644773D01*
X81027613Y-57636921D01*
X81006543Y-57626956D01*
X80986552Y-57614974D01*
X80967832Y-57601090D01*
X80950562Y-57585438D01*
X80934910Y-57568168D01*
X80921026Y-57549448D01*
X80909044Y-57529457D01*
X80899079Y-57508387D01*
X80891227Y-57486443D01*
X80885563Y-57463834D01*
X80882144Y-57440779D01*
X80881000Y-57417500D01*
X80881000Y-56842500D01*
X80882144Y-56819221D01*
X80885563Y-56796166D01*
X80891227Y-56773557D01*
X80899079Y-56751613D01*
X80909044Y-56730543D01*
X80921026Y-56710552D01*
X80934910Y-56691832D01*
X80950562Y-56674562D01*
X80967832Y-56658910D01*
X80986552Y-56645026D01*
X81006543Y-56633044D01*
X81027613Y-56623079D01*
X81049557Y-56615227D01*
X81072166Y-56609563D01*
X81095221Y-56606144D01*
X81118500Y-56605000D01*
X81593500Y-56605000D01*
X81616779Y-56606144D01*
X81616779Y-56606144D01*
G37*
D18*
G04 #@! TD*
G04 #@! TO.P,C4,1*
G04 #@! TO.N,Net-(C4-Pad1)*
X81356000Y-57130000D03*
D17*
G04 #@! TO.N,GND*
G04 #@! TO.C,C4*
G36*
X81616779Y-54856144D02*
X81639834Y-54859563D01*
X81662443Y-54865227D01*
X81684387Y-54873079D01*
X81705457Y-54883044D01*
X81725448Y-54895026D01*
X81744168Y-54908910D01*
X81761438Y-54924562D01*
X81777090Y-54941832D01*
X81790974Y-54960552D01*
X81802956Y-54980543D01*
X81812921Y-55001613D01*
X81820773Y-55023557D01*
X81826437Y-55046166D01*
X81829856Y-55069221D01*
X81831000Y-55092500D01*
X81831000Y-55667500D01*
X81829856Y-55690779D01*
X81826437Y-55713834D01*
X81820773Y-55736443D01*
X81812921Y-55758387D01*
X81802956Y-55779457D01*
X81790974Y-55799448D01*
X81777090Y-55818168D01*
X81761438Y-55835438D01*
X81744168Y-55851090D01*
X81725448Y-55864974D01*
X81705457Y-55876956D01*
X81684387Y-55886921D01*
X81662443Y-55894773D01*
X81639834Y-55900437D01*
X81616779Y-55903856D01*
X81593500Y-55905000D01*
X81118500Y-55905000D01*
X81095221Y-55903856D01*
X81072166Y-55900437D01*
X81049557Y-55894773D01*
X81027613Y-55886921D01*
X81006543Y-55876956D01*
X80986552Y-55864974D01*
X80967832Y-55851090D01*
X80950562Y-55835438D01*
X80934910Y-55818168D01*
X80921026Y-55799448D01*
X80909044Y-55779457D01*
X80899079Y-55758387D01*
X80891227Y-55736443D01*
X80885563Y-55713834D01*
X80882144Y-55690779D01*
X80881000Y-55667500D01*
X80881000Y-55092500D01*
X80882144Y-55069221D01*
X80885563Y-55046166D01*
X80891227Y-55023557D01*
X80899079Y-55001613D01*
X80909044Y-54980543D01*
X80921026Y-54960552D01*
X80934910Y-54941832D01*
X80950562Y-54924562D01*
X80967832Y-54908910D01*
X80986552Y-54895026D01*
X81006543Y-54883044D01*
X81027613Y-54873079D01*
X81049557Y-54865227D01*
X81072166Y-54859563D01*
X81095221Y-54856144D01*
X81118500Y-54855000D01*
X81593500Y-54855000D01*
X81616779Y-54856144D01*
X81616779Y-54856144D01*
G37*
D18*
G04 #@! TD*
G04 #@! TO.P,C4,2*
G04 #@! TO.N,GND*
X81356000Y-55380000D03*
D17*
G04 #@! TO.N,GND*
G04 #@! TO.C,C5*
G36*
X115469505Y-90721204D02*
X115493773Y-90724804D01*
X115517572Y-90730765D01*
X115540671Y-90739030D01*
X115562850Y-90749520D01*
X115583893Y-90762132D01*
X115603599Y-90776747D01*
X115621777Y-90793223D01*
X115638253Y-90811401D01*
X115652868Y-90831107D01*
X115665480Y-90852150D01*
X115675970Y-90874329D01*
X115684235Y-90897428D01*
X115690196Y-90921227D01*
X115693796Y-90945495D01*
X115695000Y-90969999D01*
X115695000Y-91870001D01*
X115693796Y-91894505D01*
X115690196Y-91918773D01*
X115684235Y-91942572D01*
X115675970Y-91965671D01*
X115665480Y-91987850D01*
X115652868Y-92008893D01*
X115638253Y-92028599D01*
X115621777Y-92046777D01*
X115603599Y-92063253D01*
X115583893Y-92077868D01*
X115562850Y-92090480D01*
X115540671Y-92100970D01*
X115517572Y-92109235D01*
X115493773Y-92115196D01*
X115469505Y-92118796D01*
X115445001Y-92120000D01*
X114794999Y-92120000D01*
X114770495Y-92118796D01*
X114746227Y-92115196D01*
X114722428Y-92109235D01*
X114699329Y-92100970D01*
X114677150Y-92090480D01*
X114656107Y-92077868D01*
X114636401Y-92063253D01*
X114618223Y-92046777D01*
X114601747Y-92028599D01*
X114587132Y-92008893D01*
X114574520Y-91987850D01*
X114564030Y-91965671D01*
X114555765Y-91942572D01*
X114549804Y-91918773D01*
X114546204Y-91894505D01*
X114545000Y-91870001D01*
X114545000Y-90969999D01*
X114546204Y-90945495D01*
X114549804Y-90921227D01*
X114555765Y-90897428D01*
X114564030Y-90874329D01*
X114574520Y-90852150D01*
X114587132Y-90831107D01*
X114601747Y-90811401D01*
X114618223Y-90793223D01*
X114636401Y-90776747D01*
X114656107Y-90762132D01*
X114677150Y-90749520D01*
X114699329Y-90739030D01*
X114722428Y-90730765D01*
X114746227Y-90724804D01*
X114770495Y-90721204D01*
X114794999Y-90720000D01*
X115445001Y-90720000D01*
X115469505Y-90721204D01*
X115469505Y-90721204D01*
G37*
D19*
G04 #@! TD*
G04 #@! TO.P,C5,2*
G04 #@! TO.N,GND*
X115120000Y-91420000D03*
D17*
G04 #@! TO.N,+BATT*
G04 #@! TO.C,C5*
G36*
X117519505Y-90721204D02*
X117543773Y-90724804D01*
X117567572Y-90730765D01*
X117590671Y-90739030D01*
X117612850Y-90749520D01*
X117633893Y-90762132D01*
X117653599Y-90776747D01*
X117671777Y-90793223D01*
X117688253Y-90811401D01*
X117702868Y-90831107D01*
X117715480Y-90852150D01*
X117725970Y-90874329D01*
X117734235Y-90897428D01*
X117740196Y-90921227D01*
X117743796Y-90945495D01*
X117745000Y-90969999D01*
X117745000Y-91870001D01*
X117743796Y-91894505D01*
X117740196Y-91918773D01*
X117734235Y-91942572D01*
X117725970Y-91965671D01*
X117715480Y-91987850D01*
X117702868Y-92008893D01*
X117688253Y-92028599D01*
X117671777Y-92046777D01*
X117653599Y-92063253D01*
X117633893Y-92077868D01*
X117612850Y-92090480D01*
X117590671Y-92100970D01*
X117567572Y-92109235D01*
X117543773Y-92115196D01*
X117519505Y-92118796D01*
X117495001Y-92120000D01*
X116844999Y-92120000D01*
X116820495Y-92118796D01*
X116796227Y-92115196D01*
X116772428Y-92109235D01*
X116749329Y-92100970D01*
X116727150Y-92090480D01*
X116706107Y-92077868D01*
X116686401Y-92063253D01*
X116668223Y-92046777D01*
X116651747Y-92028599D01*
X116637132Y-92008893D01*
X116624520Y-91987850D01*
X116614030Y-91965671D01*
X116605765Y-91942572D01*
X116599804Y-91918773D01*
X116596204Y-91894505D01*
X116595000Y-91870001D01*
X116595000Y-90969999D01*
X116596204Y-90945495D01*
X116599804Y-90921227D01*
X116605765Y-90897428D01*
X116614030Y-90874329D01*
X116624520Y-90852150D01*
X116637132Y-90831107D01*
X116651747Y-90811401D01*
X116668223Y-90793223D01*
X116686401Y-90776747D01*
X116706107Y-90762132D01*
X116727150Y-90749520D01*
X116749329Y-90739030D01*
X116772428Y-90730765D01*
X116796227Y-90724804D01*
X116820495Y-90721204D01*
X116844999Y-90720000D01*
X117495001Y-90720000D01*
X117519505Y-90721204D01*
X117519505Y-90721204D01*
G37*
D19*
G04 #@! TD*
G04 #@! TO.P,C5,1*
G04 #@! TO.N,+BATT*
X117170000Y-91420000D03*
D17*
G04 #@! TO.N,+5V*
G04 #@! TO.C,C6*
G36*
X102769505Y-90721204D02*
X102793773Y-90724804D01*
X102817572Y-90730765D01*
X102840671Y-90739030D01*
X102862850Y-90749520D01*
X102883893Y-90762132D01*
X102903599Y-90776747D01*
X102921777Y-90793223D01*
X102938253Y-90811401D01*
X102952868Y-90831107D01*
X102965480Y-90852150D01*
X102975970Y-90874329D01*
X102984235Y-90897428D01*
X102990196Y-90921227D01*
X102993796Y-90945495D01*
X102995000Y-90969999D01*
X102995000Y-91870001D01*
X102993796Y-91894505D01*
X102990196Y-91918773D01*
X102984235Y-91942572D01*
X102975970Y-91965671D01*
X102965480Y-91987850D01*
X102952868Y-92008893D01*
X102938253Y-92028599D01*
X102921777Y-92046777D01*
X102903599Y-92063253D01*
X102883893Y-92077868D01*
X102862850Y-92090480D01*
X102840671Y-92100970D01*
X102817572Y-92109235D01*
X102793773Y-92115196D01*
X102769505Y-92118796D01*
X102745001Y-92120000D01*
X102094999Y-92120000D01*
X102070495Y-92118796D01*
X102046227Y-92115196D01*
X102022428Y-92109235D01*
X101999329Y-92100970D01*
X101977150Y-92090480D01*
X101956107Y-92077868D01*
X101936401Y-92063253D01*
X101918223Y-92046777D01*
X101901747Y-92028599D01*
X101887132Y-92008893D01*
X101874520Y-91987850D01*
X101864030Y-91965671D01*
X101855765Y-91942572D01*
X101849804Y-91918773D01*
X101846204Y-91894505D01*
X101845000Y-91870001D01*
X101845000Y-90969999D01*
X101846204Y-90945495D01*
X101849804Y-90921227D01*
X101855765Y-90897428D01*
X101864030Y-90874329D01*
X101874520Y-90852150D01*
X101887132Y-90831107D01*
X101901747Y-90811401D01*
X101918223Y-90793223D01*
X101936401Y-90776747D01*
X101956107Y-90762132D01*
X101977150Y-90749520D01*
X101999329Y-90739030D01*
X102022428Y-90730765D01*
X102046227Y-90724804D01*
X102070495Y-90721204D01*
X102094999Y-90720000D01*
X102745001Y-90720000D01*
X102769505Y-90721204D01*
X102769505Y-90721204D01*
G37*
D19*
G04 #@! TD*
G04 #@! TO.P,C6,1*
G04 #@! TO.N,+5V*
X102420000Y-91420000D03*
D17*
G04 #@! TO.N,GND*
G04 #@! TO.C,C6*
G36*
X104819505Y-90721204D02*
X104843773Y-90724804D01*
X104867572Y-90730765D01*
X104890671Y-90739030D01*
X104912850Y-90749520D01*
X104933893Y-90762132D01*
X104953599Y-90776747D01*
X104971777Y-90793223D01*
X104988253Y-90811401D01*
X105002868Y-90831107D01*
X105015480Y-90852150D01*
X105025970Y-90874329D01*
X105034235Y-90897428D01*
X105040196Y-90921227D01*
X105043796Y-90945495D01*
X105045000Y-90969999D01*
X105045000Y-91870001D01*
X105043796Y-91894505D01*
X105040196Y-91918773D01*
X105034235Y-91942572D01*
X105025970Y-91965671D01*
X105015480Y-91987850D01*
X105002868Y-92008893D01*
X104988253Y-92028599D01*
X104971777Y-92046777D01*
X104953599Y-92063253D01*
X104933893Y-92077868D01*
X104912850Y-92090480D01*
X104890671Y-92100970D01*
X104867572Y-92109235D01*
X104843773Y-92115196D01*
X104819505Y-92118796D01*
X104795001Y-92120000D01*
X104144999Y-92120000D01*
X104120495Y-92118796D01*
X104096227Y-92115196D01*
X104072428Y-92109235D01*
X104049329Y-92100970D01*
X104027150Y-92090480D01*
X104006107Y-92077868D01*
X103986401Y-92063253D01*
X103968223Y-92046777D01*
X103951747Y-92028599D01*
X103937132Y-92008893D01*
X103924520Y-91987850D01*
X103914030Y-91965671D01*
X103905765Y-91942572D01*
X103899804Y-91918773D01*
X103896204Y-91894505D01*
X103895000Y-91870001D01*
X103895000Y-90969999D01*
X103896204Y-90945495D01*
X103899804Y-90921227D01*
X103905765Y-90897428D01*
X103914030Y-90874329D01*
X103924520Y-90852150D01*
X103937132Y-90831107D01*
X103951747Y-90811401D01*
X103968223Y-90793223D01*
X103986401Y-90776747D01*
X104006107Y-90762132D01*
X104027150Y-90749520D01*
X104049329Y-90739030D01*
X104072428Y-90730765D01*
X104096227Y-90724804D01*
X104120495Y-90721204D01*
X104144999Y-90720000D01*
X104795001Y-90720000D01*
X104819505Y-90721204D01*
X104819505Y-90721204D01*
G37*
D19*
G04 #@! TD*
G04 #@! TO.P,C6,2*
G04 #@! TO.N,GND*
X104470000Y-91420000D03*
D17*
G04 #@! TO.N,GND*
G04 #@! TO.C,C7*
G36*
X119335779Y-84546144D02*
X119358834Y-84549563D01*
X119381443Y-84555227D01*
X119403387Y-84563079D01*
X119424457Y-84573044D01*
X119444448Y-84585026D01*
X119463168Y-84598910D01*
X119480438Y-84614562D01*
X119496090Y-84631832D01*
X119509974Y-84650552D01*
X119521956Y-84670543D01*
X119531921Y-84691613D01*
X119539773Y-84713557D01*
X119545437Y-84736166D01*
X119548856Y-84759221D01*
X119550000Y-84782500D01*
X119550000Y-85357500D01*
X119548856Y-85380779D01*
X119545437Y-85403834D01*
X119539773Y-85426443D01*
X119531921Y-85448387D01*
X119521956Y-85469457D01*
X119509974Y-85489448D01*
X119496090Y-85508168D01*
X119480438Y-85525438D01*
X119463168Y-85541090D01*
X119444448Y-85554974D01*
X119424457Y-85566956D01*
X119403387Y-85576921D01*
X119381443Y-85584773D01*
X119358834Y-85590437D01*
X119335779Y-85593856D01*
X119312500Y-85595000D01*
X118837500Y-85595000D01*
X118814221Y-85593856D01*
X118791166Y-85590437D01*
X118768557Y-85584773D01*
X118746613Y-85576921D01*
X118725543Y-85566956D01*
X118705552Y-85554974D01*
X118686832Y-85541090D01*
X118669562Y-85525438D01*
X118653910Y-85508168D01*
X118640026Y-85489448D01*
X118628044Y-85469457D01*
X118618079Y-85448387D01*
X118610227Y-85426443D01*
X118604563Y-85403834D01*
X118601144Y-85380779D01*
X118600000Y-85357500D01*
X118600000Y-84782500D01*
X118601144Y-84759221D01*
X118604563Y-84736166D01*
X118610227Y-84713557D01*
X118618079Y-84691613D01*
X118628044Y-84670543D01*
X118640026Y-84650552D01*
X118653910Y-84631832D01*
X118669562Y-84614562D01*
X118686832Y-84598910D01*
X118705552Y-84585026D01*
X118725543Y-84573044D01*
X118746613Y-84563079D01*
X118768557Y-84555227D01*
X118791166Y-84549563D01*
X118814221Y-84546144D01*
X118837500Y-84545000D01*
X119312500Y-84545000D01*
X119335779Y-84546144D01*
X119335779Y-84546144D01*
G37*
D18*
G04 #@! TD*
G04 #@! TO.P,C7,1*
G04 #@! TO.N,GND*
X119075000Y-85070000D03*
D17*
G04 #@! TO.N,+3V3*
G04 #@! TO.C,C7*
G36*
X119335779Y-82796144D02*
X119358834Y-82799563D01*
X119381443Y-82805227D01*
X119403387Y-82813079D01*
X119424457Y-82823044D01*
X119444448Y-82835026D01*
X119463168Y-82848910D01*
X119480438Y-82864562D01*
X119496090Y-82881832D01*
X119509974Y-82900552D01*
X119521956Y-82920543D01*
X119531921Y-82941613D01*
X119539773Y-82963557D01*
X119545437Y-82986166D01*
X119548856Y-83009221D01*
X119550000Y-83032500D01*
X119550000Y-83607500D01*
X119548856Y-83630779D01*
X119545437Y-83653834D01*
X119539773Y-83676443D01*
X119531921Y-83698387D01*
X119521956Y-83719457D01*
X119509974Y-83739448D01*
X119496090Y-83758168D01*
X119480438Y-83775438D01*
X119463168Y-83791090D01*
X119444448Y-83804974D01*
X119424457Y-83816956D01*
X119403387Y-83826921D01*
X119381443Y-83834773D01*
X119358834Y-83840437D01*
X119335779Y-83843856D01*
X119312500Y-83845000D01*
X118837500Y-83845000D01*
X118814221Y-83843856D01*
X118791166Y-83840437D01*
X118768557Y-83834773D01*
X118746613Y-83826921D01*
X118725543Y-83816956D01*
X118705552Y-83804974D01*
X118686832Y-83791090D01*
X118669562Y-83775438D01*
X118653910Y-83758168D01*
X118640026Y-83739448D01*
X118628044Y-83719457D01*
X118618079Y-83698387D01*
X118610227Y-83676443D01*
X118604563Y-83653834D01*
X118601144Y-83630779D01*
X118600000Y-83607500D01*
X118600000Y-83032500D01*
X118601144Y-83009221D01*
X118604563Y-82986166D01*
X118610227Y-82963557D01*
X118618079Y-82941613D01*
X118628044Y-82920543D01*
X118640026Y-82900552D01*
X118653910Y-82881832D01*
X118669562Y-82864562D01*
X118686832Y-82848910D01*
X118705552Y-82835026D01*
X118725543Y-82823044D01*
X118746613Y-82813079D01*
X118768557Y-82805227D01*
X118791166Y-82799563D01*
X118814221Y-82796144D01*
X118837500Y-82795000D01*
X119312500Y-82795000D01*
X119335779Y-82796144D01*
X119335779Y-82796144D01*
G37*
D18*
G04 #@! TD*
G04 #@! TO.P,C7,2*
G04 #@! TO.N,+3V3*
X119075000Y-83320000D03*
D20*
G04 #@! TO.P,C8,1*
G04 #@! TO.N,/12V to 5V Converter/12V_IN*
X110093287Y-48356779D03*
G04 #@! TO.P,C8,2*
G04 #@! TO.N,GND*
X110093287Y-44356779D03*
G04 #@! TD*
D15*
G04 #@! TO.P,C9,1*
G04 #@! TO.N,/12V to 5V Converter/12V_IN*
X107553287Y-47626779D03*
G04 #@! TO.P,C9,2*
G04 #@! TO.N,GND*
X107553287Y-45726779D03*
G04 #@! TD*
D21*
G04 #@! TO.P,C11,2*
G04 #@! TO.N,Net-(C11-Pad2)*
X103307000Y-39985000D03*
G04 #@! TO.P,C11,1*
G04 #@! TO.N,GND*
X100807000Y-39985000D03*
G04 #@! TD*
D22*
G04 #@! TO.P,C12,2*
G04 #@! TO.N,Net-(C12-Pad2)*
X103454000Y-50780000D03*
G04 #@! TO.P,C12,1*
G04 #@! TO.N,Net-(C12-Pad1)*
X105354000Y-50780000D03*
G04 #@! TD*
D20*
G04 #@! TO.P,C13,2*
G04 #@! TO.N,GND*
X102057000Y-53955000D03*
G04 #@! TO.P,C13,1*
G04 #@! TO.N,+5V*
X102057000Y-57955000D03*
G04 #@! TD*
D15*
G04 #@! TO.P,C14,1*
G04 #@! TO.N,+5V*
X96977000Y-54905000D03*
G04 #@! TO.P,C14,2*
G04 #@! TO.N,/12V to 5V Converter/VFB*
X96977000Y-53005000D03*
G04 #@! TD*
D21*
G04 #@! TO.P,C15,1*
G04 #@! TO.N,/12V_RAW*
X116388000Y-22332000D03*
G04 #@! TO.P,C15,2*
G04 #@! TO.N,GND*
X113888000Y-22332000D03*
G04 #@! TD*
D17*
G04 #@! TO.N,GND*
G04 #@! TO.C,D1*
G36*
X50120779Y-67641144D02*
X50143834Y-67644563D01*
X50166443Y-67650227D01*
X50188387Y-67658079D01*
X50209457Y-67668044D01*
X50229448Y-67680026D01*
X50248168Y-67693910D01*
X50265438Y-67709562D01*
X50281090Y-67726832D01*
X50294974Y-67745552D01*
X50306956Y-67765543D01*
X50316921Y-67786613D01*
X50324773Y-67808557D01*
X50330437Y-67831166D01*
X50333856Y-67854221D01*
X50335000Y-67877500D01*
X50335000Y-68452500D01*
X50333856Y-68475779D01*
X50330437Y-68498834D01*
X50324773Y-68521443D01*
X50316921Y-68543387D01*
X50306956Y-68564457D01*
X50294974Y-68584448D01*
X50281090Y-68603168D01*
X50265438Y-68620438D01*
X50248168Y-68636090D01*
X50229448Y-68649974D01*
X50209457Y-68661956D01*
X50188387Y-68671921D01*
X50166443Y-68679773D01*
X50143834Y-68685437D01*
X50120779Y-68688856D01*
X50097500Y-68690000D01*
X49622500Y-68690000D01*
X49599221Y-68688856D01*
X49576166Y-68685437D01*
X49553557Y-68679773D01*
X49531613Y-68671921D01*
X49510543Y-68661956D01*
X49490552Y-68649974D01*
X49471832Y-68636090D01*
X49454562Y-68620438D01*
X49438910Y-68603168D01*
X49425026Y-68584448D01*
X49413044Y-68564457D01*
X49403079Y-68543387D01*
X49395227Y-68521443D01*
X49389563Y-68498834D01*
X49386144Y-68475779D01*
X49385000Y-68452500D01*
X49385000Y-67877500D01*
X49386144Y-67854221D01*
X49389563Y-67831166D01*
X49395227Y-67808557D01*
X49403079Y-67786613D01*
X49413044Y-67765543D01*
X49425026Y-67745552D01*
X49438910Y-67726832D01*
X49454562Y-67709562D01*
X49471832Y-67693910D01*
X49490552Y-67680026D01*
X49510543Y-67668044D01*
X49531613Y-67658079D01*
X49553557Y-67650227D01*
X49576166Y-67644563D01*
X49599221Y-67641144D01*
X49622500Y-67640000D01*
X50097500Y-67640000D01*
X50120779Y-67641144D01*
X50120779Y-67641144D01*
G37*
D18*
G04 #@! TD*
G04 #@! TO.P,D1,1*
G04 #@! TO.N,GND*
X49860000Y-68165000D03*
D17*
G04 #@! TO.N,Net-(D1-Pad2)*
G04 #@! TO.C,D1*
G36*
X50120779Y-65891144D02*
X50143834Y-65894563D01*
X50166443Y-65900227D01*
X50188387Y-65908079D01*
X50209457Y-65918044D01*
X50229448Y-65930026D01*
X50248168Y-65943910D01*
X50265438Y-65959562D01*
X50281090Y-65976832D01*
X50294974Y-65995552D01*
X50306956Y-66015543D01*
X50316921Y-66036613D01*
X50324773Y-66058557D01*
X50330437Y-66081166D01*
X50333856Y-66104221D01*
X50335000Y-66127500D01*
X50335000Y-66702500D01*
X50333856Y-66725779D01*
X50330437Y-66748834D01*
X50324773Y-66771443D01*
X50316921Y-66793387D01*
X50306956Y-66814457D01*
X50294974Y-66834448D01*
X50281090Y-66853168D01*
X50265438Y-66870438D01*
X50248168Y-66886090D01*
X50229448Y-66899974D01*
X50209457Y-66911956D01*
X50188387Y-66921921D01*
X50166443Y-66929773D01*
X50143834Y-66935437D01*
X50120779Y-66938856D01*
X50097500Y-66940000D01*
X49622500Y-66940000D01*
X49599221Y-66938856D01*
X49576166Y-66935437D01*
X49553557Y-66929773D01*
X49531613Y-66921921D01*
X49510543Y-66911956D01*
X49490552Y-66899974D01*
X49471832Y-66886090D01*
X49454562Y-66870438D01*
X49438910Y-66853168D01*
X49425026Y-66834448D01*
X49413044Y-66814457D01*
X49403079Y-66793387D01*
X49395227Y-66771443D01*
X49389563Y-66748834D01*
X49386144Y-66725779D01*
X49385000Y-66702500D01*
X49385000Y-66127500D01*
X49386144Y-66104221D01*
X49389563Y-66081166D01*
X49395227Y-66058557D01*
X49403079Y-66036613D01*
X49413044Y-66015543D01*
X49425026Y-65995552D01*
X49438910Y-65976832D01*
X49454562Y-65959562D01*
X49471832Y-65943910D01*
X49490552Y-65930026D01*
X49510543Y-65918044D01*
X49531613Y-65908079D01*
X49553557Y-65900227D01*
X49576166Y-65894563D01*
X49599221Y-65891144D01*
X49622500Y-65890000D01*
X50097500Y-65890000D01*
X50120779Y-65891144D01*
X50120779Y-65891144D01*
G37*
D18*
G04 #@! TD*
G04 #@! TO.P,D1,2*
G04 #@! TO.N,Net-(D1-Pad2)*
X49860000Y-66415000D03*
D17*
G04 #@! TO.N,Net-(D2-Pad2)*
G04 #@! TO.C,D2*
G36*
X50120779Y-70971144D02*
X50143834Y-70974563D01*
X50166443Y-70980227D01*
X50188387Y-70988079D01*
X50209457Y-70998044D01*
X50229448Y-71010026D01*
X50248168Y-71023910D01*
X50265438Y-71039562D01*
X50281090Y-71056832D01*
X50294974Y-71075552D01*
X50306956Y-71095543D01*
X50316921Y-71116613D01*
X50324773Y-71138557D01*
X50330437Y-71161166D01*
X50333856Y-71184221D01*
X50335000Y-71207500D01*
X50335000Y-71782500D01*
X50333856Y-71805779D01*
X50330437Y-71828834D01*
X50324773Y-71851443D01*
X50316921Y-71873387D01*
X50306956Y-71894457D01*
X50294974Y-71914448D01*
X50281090Y-71933168D01*
X50265438Y-71950438D01*
X50248168Y-71966090D01*
X50229448Y-71979974D01*
X50209457Y-71991956D01*
X50188387Y-72001921D01*
X50166443Y-72009773D01*
X50143834Y-72015437D01*
X50120779Y-72018856D01*
X50097500Y-72020000D01*
X49622500Y-72020000D01*
X49599221Y-72018856D01*
X49576166Y-72015437D01*
X49553557Y-72009773D01*
X49531613Y-72001921D01*
X49510543Y-71991956D01*
X49490552Y-71979974D01*
X49471832Y-71966090D01*
X49454562Y-71950438D01*
X49438910Y-71933168D01*
X49425026Y-71914448D01*
X49413044Y-71894457D01*
X49403079Y-71873387D01*
X49395227Y-71851443D01*
X49389563Y-71828834D01*
X49386144Y-71805779D01*
X49385000Y-71782500D01*
X49385000Y-71207500D01*
X49386144Y-71184221D01*
X49389563Y-71161166D01*
X49395227Y-71138557D01*
X49403079Y-71116613D01*
X49413044Y-71095543D01*
X49425026Y-71075552D01*
X49438910Y-71056832D01*
X49454562Y-71039562D01*
X49471832Y-71023910D01*
X49490552Y-71010026D01*
X49510543Y-70998044D01*
X49531613Y-70988079D01*
X49553557Y-70980227D01*
X49576166Y-70974563D01*
X49599221Y-70971144D01*
X49622500Y-70970000D01*
X50097500Y-70970000D01*
X50120779Y-70971144D01*
X50120779Y-70971144D01*
G37*
D18*
G04 #@! TD*
G04 #@! TO.P,D2,2*
G04 #@! TO.N,Net-(D2-Pad2)*
X49860000Y-71495000D03*
D17*
G04 #@! TO.N,GND*
G04 #@! TO.C,D2*
G36*
X50120779Y-72721144D02*
X50143834Y-72724563D01*
X50166443Y-72730227D01*
X50188387Y-72738079D01*
X50209457Y-72748044D01*
X50229448Y-72760026D01*
X50248168Y-72773910D01*
X50265438Y-72789562D01*
X50281090Y-72806832D01*
X50294974Y-72825552D01*
X50306956Y-72845543D01*
X50316921Y-72866613D01*
X50324773Y-72888557D01*
X50330437Y-72911166D01*
X50333856Y-72934221D01*
X50335000Y-72957500D01*
X50335000Y-73532500D01*
X50333856Y-73555779D01*
X50330437Y-73578834D01*
X50324773Y-73601443D01*
X50316921Y-73623387D01*
X50306956Y-73644457D01*
X50294974Y-73664448D01*
X50281090Y-73683168D01*
X50265438Y-73700438D01*
X50248168Y-73716090D01*
X50229448Y-73729974D01*
X50209457Y-73741956D01*
X50188387Y-73751921D01*
X50166443Y-73759773D01*
X50143834Y-73765437D01*
X50120779Y-73768856D01*
X50097500Y-73770000D01*
X49622500Y-73770000D01*
X49599221Y-73768856D01*
X49576166Y-73765437D01*
X49553557Y-73759773D01*
X49531613Y-73751921D01*
X49510543Y-73741956D01*
X49490552Y-73729974D01*
X49471832Y-73716090D01*
X49454562Y-73700438D01*
X49438910Y-73683168D01*
X49425026Y-73664448D01*
X49413044Y-73644457D01*
X49403079Y-73623387D01*
X49395227Y-73601443D01*
X49389563Y-73578834D01*
X49386144Y-73555779D01*
X49385000Y-73532500D01*
X49385000Y-72957500D01*
X49386144Y-72934221D01*
X49389563Y-72911166D01*
X49395227Y-72888557D01*
X49403079Y-72866613D01*
X49413044Y-72845543D01*
X49425026Y-72825552D01*
X49438910Y-72806832D01*
X49454562Y-72789562D01*
X49471832Y-72773910D01*
X49490552Y-72760026D01*
X49510543Y-72748044D01*
X49531613Y-72738079D01*
X49553557Y-72730227D01*
X49576166Y-72724563D01*
X49599221Y-72721144D01*
X49622500Y-72720000D01*
X50097500Y-72720000D01*
X50120779Y-72721144D01*
X50120779Y-72721144D01*
G37*
D18*
G04 #@! TD*
G04 #@! TO.P,D2,1*
G04 #@! TO.N,GND*
X49860000Y-73245000D03*
D17*
G04 #@! TO.N,GND*
G04 #@! TO.C,D3*
G36*
X50120779Y-77801144D02*
X50143834Y-77804563D01*
X50166443Y-77810227D01*
X50188387Y-77818079D01*
X50209457Y-77828044D01*
X50229448Y-77840026D01*
X50248168Y-77853910D01*
X50265438Y-77869562D01*
X50281090Y-77886832D01*
X50294974Y-77905552D01*
X50306956Y-77925543D01*
X50316921Y-77946613D01*
X50324773Y-77968557D01*
X50330437Y-77991166D01*
X50333856Y-78014221D01*
X50335000Y-78037500D01*
X50335000Y-78612500D01*
X50333856Y-78635779D01*
X50330437Y-78658834D01*
X50324773Y-78681443D01*
X50316921Y-78703387D01*
X50306956Y-78724457D01*
X50294974Y-78744448D01*
X50281090Y-78763168D01*
X50265438Y-78780438D01*
X50248168Y-78796090D01*
X50229448Y-78809974D01*
X50209457Y-78821956D01*
X50188387Y-78831921D01*
X50166443Y-78839773D01*
X50143834Y-78845437D01*
X50120779Y-78848856D01*
X50097500Y-78850000D01*
X49622500Y-78850000D01*
X49599221Y-78848856D01*
X49576166Y-78845437D01*
X49553557Y-78839773D01*
X49531613Y-78831921D01*
X49510543Y-78821956D01*
X49490552Y-78809974D01*
X49471832Y-78796090D01*
X49454562Y-78780438D01*
X49438910Y-78763168D01*
X49425026Y-78744448D01*
X49413044Y-78724457D01*
X49403079Y-78703387D01*
X49395227Y-78681443D01*
X49389563Y-78658834D01*
X49386144Y-78635779D01*
X49385000Y-78612500D01*
X49385000Y-78037500D01*
X49386144Y-78014221D01*
X49389563Y-77991166D01*
X49395227Y-77968557D01*
X49403079Y-77946613D01*
X49413044Y-77925543D01*
X49425026Y-77905552D01*
X49438910Y-77886832D01*
X49454562Y-77869562D01*
X49471832Y-77853910D01*
X49490552Y-77840026D01*
X49510543Y-77828044D01*
X49531613Y-77818079D01*
X49553557Y-77810227D01*
X49576166Y-77804563D01*
X49599221Y-77801144D01*
X49622500Y-77800000D01*
X50097500Y-77800000D01*
X50120779Y-77801144D01*
X50120779Y-77801144D01*
G37*
D18*
G04 #@! TD*
G04 #@! TO.P,D3,1*
G04 #@! TO.N,GND*
X49860000Y-78325000D03*
D17*
G04 #@! TO.N,Net-(D3-Pad2)*
G04 #@! TO.C,D3*
G36*
X50120779Y-76051144D02*
X50143834Y-76054563D01*
X50166443Y-76060227D01*
X50188387Y-76068079D01*
X50209457Y-76078044D01*
X50229448Y-76090026D01*
X50248168Y-76103910D01*
X50265438Y-76119562D01*
X50281090Y-76136832D01*
X50294974Y-76155552D01*
X50306956Y-76175543D01*
X50316921Y-76196613D01*
X50324773Y-76218557D01*
X50330437Y-76241166D01*
X50333856Y-76264221D01*
X50335000Y-76287500D01*
X50335000Y-76862500D01*
X50333856Y-76885779D01*
X50330437Y-76908834D01*
X50324773Y-76931443D01*
X50316921Y-76953387D01*
X50306956Y-76974457D01*
X50294974Y-76994448D01*
X50281090Y-77013168D01*
X50265438Y-77030438D01*
X50248168Y-77046090D01*
X50229448Y-77059974D01*
X50209457Y-77071956D01*
X50188387Y-77081921D01*
X50166443Y-77089773D01*
X50143834Y-77095437D01*
X50120779Y-77098856D01*
X50097500Y-77100000D01*
X49622500Y-77100000D01*
X49599221Y-77098856D01*
X49576166Y-77095437D01*
X49553557Y-77089773D01*
X49531613Y-77081921D01*
X49510543Y-77071956D01*
X49490552Y-77059974D01*
X49471832Y-77046090D01*
X49454562Y-77030438D01*
X49438910Y-77013168D01*
X49425026Y-76994448D01*
X49413044Y-76974457D01*
X49403079Y-76953387D01*
X49395227Y-76931443D01*
X49389563Y-76908834D01*
X49386144Y-76885779D01*
X49385000Y-76862500D01*
X49385000Y-76287500D01*
X49386144Y-76264221D01*
X49389563Y-76241166D01*
X49395227Y-76218557D01*
X49403079Y-76196613D01*
X49413044Y-76175543D01*
X49425026Y-76155552D01*
X49438910Y-76136832D01*
X49454562Y-76119562D01*
X49471832Y-76103910D01*
X49490552Y-76090026D01*
X49510543Y-76078044D01*
X49531613Y-76068079D01*
X49553557Y-76060227D01*
X49576166Y-76054563D01*
X49599221Y-76051144D01*
X49622500Y-76050000D01*
X50097500Y-76050000D01*
X50120779Y-76051144D01*
X50120779Y-76051144D01*
G37*
D18*
G04 #@! TD*
G04 #@! TO.P,D3,2*
G04 #@! TO.N,Net-(D3-Pad2)*
X49860000Y-76575000D03*
D23*
G04 #@! TO.P,J2,1*
G04 #@! TO.N,+3V3*
X46990000Y-57150000D03*
D24*
G04 #@! TO.P,J2,2*
G04 #@! TO.N,/UART_TX*
X46990000Y-54610000D03*
G04 #@! TO.P,J2,3*
G04 #@! TO.N,/UART_RX*
X46990000Y-52070000D03*
G04 #@! TO.P,J2,4*
G04 #@! TO.N,GND*
X46990000Y-49530000D03*
G04 #@! TD*
D25*
G04 #@! TO.P,JP1,1*
G04 #@! TO.N,/CANHigh*
X95580000Y-85070000D03*
D26*
G04 #@! TO.P,JP1,2*
G04 #@! TO.N,Net-(JP1-Pad2)*
X95580000Y-82530000D03*
G04 #@! TD*
D27*
G04 #@! TO.P,L1,1*
G04 #@! TO.N,Net-(C12-Pad2)*
X107264000Y-53320000D03*
G04 #@! TO.P,L1,2*
G04 #@! TO.N,+5V*
X107264000Y-58870000D03*
G04 #@! TD*
D17*
G04 #@! TO.N,/I2Cclk*
G04 #@! TO.C,R1*
G36*
X65156779Y-54116144D02*
X65179834Y-54119563D01*
X65202443Y-54125227D01*
X65224387Y-54133079D01*
X65245457Y-54143044D01*
X65265448Y-54155026D01*
X65284168Y-54168910D01*
X65301438Y-54184562D01*
X65317090Y-54201832D01*
X65330974Y-54220552D01*
X65342956Y-54240543D01*
X65352921Y-54261613D01*
X65360773Y-54283557D01*
X65366437Y-54306166D01*
X65369856Y-54329221D01*
X65371000Y-54352500D01*
X65371000Y-54827500D01*
X65369856Y-54850779D01*
X65366437Y-54873834D01*
X65360773Y-54896443D01*
X65352921Y-54918387D01*
X65342956Y-54939457D01*
X65330974Y-54959448D01*
X65317090Y-54978168D01*
X65301438Y-54995438D01*
X65284168Y-55011090D01*
X65265448Y-55024974D01*
X65245457Y-55036956D01*
X65224387Y-55046921D01*
X65202443Y-55054773D01*
X65179834Y-55060437D01*
X65156779Y-55063856D01*
X65133500Y-55065000D01*
X64558500Y-55065000D01*
X64535221Y-55063856D01*
X64512166Y-55060437D01*
X64489557Y-55054773D01*
X64467613Y-55046921D01*
X64446543Y-55036956D01*
X64426552Y-55024974D01*
X64407832Y-55011090D01*
X64390562Y-54995438D01*
X64374910Y-54978168D01*
X64361026Y-54959448D01*
X64349044Y-54939457D01*
X64339079Y-54918387D01*
X64331227Y-54896443D01*
X64325563Y-54873834D01*
X64322144Y-54850779D01*
X64321000Y-54827500D01*
X64321000Y-54352500D01*
X64322144Y-54329221D01*
X64325563Y-54306166D01*
X64331227Y-54283557D01*
X64339079Y-54261613D01*
X64349044Y-54240543D01*
X64361026Y-54220552D01*
X64374910Y-54201832D01*
X64390562Y-54184562D01*
X64407832Y-54168910D01*
X64426552Y-54155026D01*
X64446543Y-54143044D01*
X64467613Y-54133079D01*
X64489557Y-54125227D01*
X64512166Y-54119563D01*
X64535221Y-54116144D01*
X64558500Y-54115000D01*
X65133500Y-54115000D01*
X65156779Y-54116144D01*
X65156779Y-54116144D01*
G37*
D18*
G04 #@! TD*
G04 #@! TO.P,R1,2*
G04 #@! TO.N,/I2Cclk*
X64846000Y-54590000D03*
D17*
G04 #@! TO.N,+3V3*
G04 #@! TO.C,R1*
G36*
X63406779Y-54116144D02*
X63429834Y-54119563D01*
X63452443Y-54125227D01*
X63474387Y-54133079D01*
X63495457Y-54143044D01*
X63515448Y-54155026D01*
X63534168Y-54168910D01*
X63551438Y-54184562D01*
X63567090Y-54201832D01*
X63580974Y-54220552D01*
X63592956Y-54240543D01*
X63602921Y-54261613D01*
X63610773Y-54283557D01*
X63616437Y-54306166D01*
X63619856Y-54329221D01*
X63621000Y-54352500D01*
X63621000Y-54827500D01*
X63619856Y-54850779D01*
X63616437Y-54873834D01*
X63610773Y-54896443D01*
X63602921Y-54918387D01*
X63592956Y-54939457D01*
X63580974Y-54959448D01*
X63567090Y-54978168D01*
X63551438Y-54995438D01*
X63534168Y-55011090D01*
X63515448Y-55024974D01*
X63495457Y-55036956D01*
X63474387Y-55046921D01*
X63452443Y-55054773D01*
X63429834Y-55060437D01*
X63406779Y-55063856D01*
X63383500Y-55065000D01*
X62808500Y-55065000D01*
X62785221Y-55063856D01*
X62762166Y-55060437D01*
X62739557Y-55054773D01*
X62717613Y-55046921D01*
X62696543Y-55036956D01*
X62676552Y-55024974D01*
X62657832Y-55011090D01*
X62640562Y-54995438D01*
X62624910Y-54978168D01*
X62611026Y-54959448D01*
X62599044Y-54939457D01*
X62589079Y-54918387D01*
X62581227Y-54896443D01*
X62575563Y-54873834D01*
X62572144Y-54850779D01*
X62571000Y-54827500D01*
X62571000Y-54352500D01*
X62572144Y-54329221D01*
X62575563Y-54306166D01*
X62581227Y-54283557D01*
X62589079Y-54261613D01*
X62599044Y-54240543D01*
X62611026Y-54220552D01*
X62624910Y-54201832D01*
X62640562Y-54184562D01*
X62657832Y-54168910D01*
X62676552Y-54155026D01*
X62696543Y-54143044D01*
X62717613Y-54133079D01*
X62739557Y-54125227D01*
X62762166Y-54119563D01*
X62785221Y-54116144D01*
X62808500Y-54115000D01*
X63383500Y-54115000D01*
X63406779Y-54116144D01*
X63406779Y-54116144D01*
G37*
D18*
G04 #@! TD*
G04 #@! TO.P,R1,1*
G04 #@! TO.N,+3V3*
X63096000Y-54590000D03*
D17*
G04 #@! TO.N,+3V3*
G04 #@! TO.C,R2*
G36*
X63406779Y-47766144D02*
X63429834Y-47769563D01*
X63452443Y-47775227D01*
X63474387Y-47783079D01*
X63495457Y-47793044D01*
X63515448Y-47805026D01*
X63534168Y-47818910D01*
X63551438Y-47834562D01*
X63567090Y-47851832D01*
X63580974Y-47870552D01*
X63592956Y-47890543D01*
X63602921Y-47911613D01*
X63610773Y-47933557D01*
X63616437Y-47956166D01*
X63619856Y-47979221D01*
X63621000Y-48002500D01*
X63621000Y-48477500D01*
X63619856Y-48500779D01*
X63616437Y-48523834D01*
X63610773Y-48546443D01*
X63602921Y-48568387D01*
X63592956Y-48589457D01*
X63580974Y-48609448D01*
X63567090Y-48628168D01*
X63551438Y-48645438D01*
X63534168Y-48661090D01*
X63515448Y-48674974D01*
X63495457Y-48686956D01*
X63474387Y-48696921D01*
X63452443Y-48704773D01*
X63429834Y-48710437D01*
X63406779Y-48713856D01*
X63383500Y-48715000D01*
X62808500Y-48715000D01*
X62785221Y-48713856D01*
X62762166Y-48710437D01*
X62739557Y-48704773D01*
X62717613Y-48696921D01*
X62696543Y-48686956D01*
X62676552Y-48674974D01*
X62657832Y-48661090D01*
X62640562Y-48645438D01*
X62624910Y-48628168D01*
X62611026Y-48609448D01*
X62599044Y-48589457D01*
X62589079Y-48568387D01*
X62581227Y-48546443D01*
X62575563Y-48523834D01*
X62572144Y-48500779D01*
X62571000Y-48477500D01*
X62571000Y-48002500D01*
X62572144Y-47979221D01*
X62575563Y-47956166D01*
X62581227Y-47933557D01*
X62589079Y-47911613D01*
X62599044Y-47890543D01*
X62611026Y-47870552D01*
X62624910Y-47851832D01*
X62640562Y-47834562D01*
X62657832Y-47818910D01*
X62676552Y-47805026D01*
X62696543Y-47793044D01*
X62717613Y-47783079D01*
X62739557Y-47775227D01*
X62762166Y-47769563D01*
X62785221Y-47766144D01*
X62808500Y-47765000D01*
X63383500Y-47765000D01*
X63406779Y-47766144D01*
X63406779Y-47766144D01*
G37*
D18*
G04 #@! TD*
G04 #@! TO.P,R2,1*
G04 #@! TO.N,+3V3*
X63096000Y-48240000D03*
D17*
G04 #@! TO.N,/I2Ccom*
G04 #@! TO.C,R2*
G36*
X65156779Y-47766144D02*
X65179834Y-47769563D01*
X65202443Y-47775227D01*
X65224387Y-47783079D01*
X65245457Y-47793044D01*
X65265448Y-47805026D01*
X65284168Y-47818910D01*
X65301438Y-47834562D01*
X65317090Y-47851832D01*
X65330974Y-47870552D01*
X65342956Y-47890543D01*
X65352921Y-47911613D01*
X65360773Y-47933557D01*
X65366437Y-47956166D01*
X65369856Y-47979221D01*
X65371000Y-48002500D01*
X65371000Y-48477500D01*
X65369856Y-48500779D01*
X65366437Y-48523834D01*
X65360773Y-48546443D01*
X65352921Y-48568387D01*
X65342956Y-48589457D01*
X65330974Y-48609448D01*
X65317090Y-48628168D01*
X65301438Y-48645438D01*
X65284168Y-48661090D01*
X65265448Y-48674974D01*
X65245457Y-48686956D01*
X65224387Y-48696921D01*
X65202443Y-48704773D01*
X65179834Y-48710437D01*
X65156779Y-48713856D01*
X65133500Y-48715000D01*
X64558500Y-48715000D01*
X64535221Y-48713856D01*
X64512166Y-48710437D01*
X64489557Y-48704773D01*
X64467613Y-48696921D01*
X64446543Y-48686956D01*
X64426552Y-48674974D01*
X64407832Y-48661090D01*
X64390562Y-48645438D01*
X64374910Y-48628168D01*
X64361026Y-48609448D01*
X64349044Y-48589457D01*
X64339079Y-48568387D01*
X64331227Y-48546443D01*
X64325563Y-48523834D01*
X64322144Y-48500779D01*
X64321000Y-48477500D01*
X64321000Y-48002500D01*
X64322144Y-47979221D01*
X64325563Y-47956166D01*
X64331227Y-47933557D01*
X64339079Y-47911613D01*
X64349044Y-47890543D01*
X64361026Y-47870552D01*
X64374910Y-47851832D01*
X64390562Y-47834562D01*
X64407832Y-47818910D01*
X64426552Y-47805026D01*
X64446543Y-47793044D01*
X64467613Y-47783079D01*
X64489557Y-47775227D01*
X64512166Y-47769563D01*
X64535221Y-47766144D01*
X64558500Y-47765000D01*
X65133500Y-47765000D01*
X65156779Y-47766144D01*
X65156779Y-47766144D01*
G37*
D18*
G04 #@! TD*
G04 #@! TO.P,R2,2*
G04 #@! TO.N,/I2Ccom*
X64846000Y-48240000D03*
D17*
G04 #@! TO.N,/LED0*
G04 #@! TO.C,R3*
G36*
X47580779Y-67641144D02*
X47603834Y-67644563D01*
X47626443Y-67650227D01*
X47648387Y-67658079D01*
X47669457Y-67668044D01*
X47689448Y-67680026D01*
X47708168Y-67693910D01*
X47725438Y-67709562D01*
X47741090Y-67726832D01*
X47754974Y-67745552D01*
X47766956Y-67765543D01*
X47776921Y-67786613D01*
X47784773Y-67808557D01*
X47790437Y-67831166D01*
X47793856Y-67854221D01*
X47795000Y-67877500D01*
X47795000Y-68452500D01*
X47793856Y-68475779D01*
X47790437Y-68498834D01*
X47784773Y-68521443D01*
X47776921Y-68543387D01*
X47766956Y-68564457D01*
X47754974Y-68584448D01*
X47741090Y-68603168D01*
X47725438Y-68620438D01*
X47708168Y-68636090D01*
X47689448Y-68649974D01*
X47669457Y-68661956D01*
X47648387Y-68671921D01*
X47626443Y-68679773D01*
X47603834Y-68685437D01*
X47580779Y-68688856D01*
X47557500Y-68690000D01*
X47082500Y-68690000D01*
X47059221Y-68688856D01*
X47036166Y-68685437D01*
X47013557Y-68679773D01*
X46991613Y-68671921D01*
X46970543Y-68661956D01*
X46950552Y-68649974D01*
X46931832Y-68636090D01*
X46914562Y-68620438D01*
X46898910Y-68603168D01*
X46885026Y-68584448D01*
X46873044Y-68564457D01*
X46863079Y-68543387D01*
X46855227Y-68521443D01*
X46849563Y-68498834D01*
X46846144Y-68475779D01*
X46845000Y-68452500D01*
X46845000Y-67877500D01*
X46846144Y-67854221D01*
X46849563Y-67831166D01*
X46855227Y-67808557D01*
X46863079Y-67786613D01*
X46873044Y-67765543D01*
X46885026Y-67745552D01*
X46898910Y-67726832D01*
X46914562Y-67709562D01*
X46931832Y-67693910D01*
X46950552Y-67680026D01*
X46970543Y-67668044D01*
X46991613Y-67658079D01*
X47013557Y-67650227D01*
X47036166Y-67644563D01*
X47059221Y-67641144D01*
X47082500Y-67640000D01*
X47557500Y-67640000D01*
X47580779Y-67641144D01*
X47580779Y-67641144D01*
G37*
D18*
G04 #@! TD*
G04 #@! TO.P,R3,1*
G04 #@! TO.N,/LED0*
X47320000Y-68165000D03*
D17*
G04 #@! TO.N,Net-(D1-Pad2)*
G04 #@! TO.C,R3*
G36*
X47580779Y-65891144D02*
X47603834Y-65894563D01*
X47626443Y-65900227D01*
X47648387Y-65908079D01*
X47669457Y-65918044D01*
X47689448Y-65930026D01*
X47708168Y-65943910D01*
X47725438Y-65959562D01*
X47741090Y-65976832D01*
X47754974Y-65995552D01*
X47766956Y-66015543D01*
X47776921Y-66036613D01*
X47784773Y-66058557D01*
X47790437Y-66081166D01*
X47793856Y-66104221D01*
X47795000Y-66127500D01*
X47795000Y-66702500D01*
X47793856Y-66725779D01*
X47790437Y-66748834D01*
X47784773Y-66771443D01*
X47776921Y-66793387D01*
X47766956Y-66814457D01*
X47754974Y-66834448D01*
X47741090Y-66853168D01*
X47725438Y-66870438D01*
X47708168Y-66886090D01*
X47689448Y-66899974D01*
X47669457Y-66911956D01*
X47648387Y-66921921D01*
X47626443Y-66929773D01*
X47603834Y-66935437D01*
X47580779Y-66938856D01*
X47557500Y-66940000D01*
X47082500Y-66940000D01*
X47059221Y-66938856D01*
X47036166Y-66935437D01*
X47013557Y-66929773D01*
X46991613Y-66921921D01*
X46970543Y-66911956D01*
X46950552Y-66899974D01*
X46931832Y-66886090D01*
X46914562Y-66870438D01*
X46898910Y-66853168D01*
X46885026Y-66834448D01*
X46873044Y-66814457D01*
X46863079Y-66793387D01*
X46855227Y-66771443D01*
X46849563Y-66748834D01*
X46846144Y-66725779D01*
X46845000Y-66702500D01*
X46845000Y-66127500D01*
X46846144Y-66104221D01*
X46849563Y-66081166D01*
X46855227Y-66058557D01*
X46863079Y-66036613D01*
X46873044Y-66015543D01*
X46885026Y-65995552D01*
X46898910Y-65976832D01*
X46914562Y-65959562D01*
X46931832Y-65943910D01*
X46950552Y-65930026D01*
X46970543Y-65918044D01*
X46991613Y-65908079D01*
X47013557Y-65900227D01*
X47036166Y-65894563D01*
X47059221Y-65891144D01*
X47082500Y-65890000D01*
X47557500Y-65890000D01*
X47580779Y-65891144D01*
X47580779Y-65891144D01*
G37*
D18*
G04 #@! TD*
G04 #@! TO.P,R3,2*
G04 #@! TO.N,Net-(D1-Pad2)*
X47320000Y-66415000D03*
D17*
G04 #@! TO.N,/LED1*
G04 #@! TO.C,R4*
G36*
X47580779Y-72721144D02*
X47603834Y-72724563D01*
X47626443Y-72730227D01*
X47648387Y-72738079D01*
X47669457Y-72748044D01*
X47689448Y-72760026D01*
X47708168Y-72773910D01*
X47725438Y-72789562D01*
X47741090Y-72806832D01*
X47754974Y-72825552D01*
X47766956Y-72845543D01*
X47776921Y-72866613D01*
X47784773Y-72888557D01*
X47790437Y-72911166D01*
X47793856Y-72934221D01*
X47795000Y-72957500D01*
X47795000Y-73532500D01*
X47793856Y-73555779D01*
X47790437Y-73578834D01*
X47784773Y-73601443D01*
X47776921Y-73623387D01*
X47766956Y-73644457D01*
X47754974Y-73664448D01*
X47741090Y-73683168D01*
X47725438Y-73700438D01*
X47708168Y-73716090D01*
X47689448Y-73729974D01*
X47669457Y-73741956D01*
X47648387Y-73751921D01*
X47626443Y-73759773D01*
X47603834Y-73765437D01*
X47580779Y-73768856D01*
X47557500Y-73770000D01*
X47082500Y-73770000D01*
X47059221Y-73768856D01*
X47036166Y-73765437D01*
X47013557Y-73759773D01*
X46991613Y-73751921D01*
X46970543Y-73741956D01*
X46950552Y-73729974D01*
X46931832Y-73716090D01*
X46914562Y-73700438D01*
X46898910Y-73683168D01*
X46885026Y-73664448D01*
X46873044Y-73644457D01*
X46863079Y-73623387D01*
X46855227Y-73601443D01*
X46849563Y-73578834D01*
X46846144Y-73555779D01*
X46845000Y-73532500D01*
X46845000Y-72957500D01*
X46846144Y-72934221D01*
X46849563Y-72911166D01*
X46855227Y-72888557D01*
X46863079Y-72866613D01*
X46873044Y-72845543D01*
X46885026Y-72825552D01*
X46898910Y-72806832D01*
X46914562Y-72789562D01*
X46931832Y-72773910D01*
X46950552Y-72760026D01*
X46970543Y-72748044D01*
X46991613Y-72738079D01*
X47013557Y-72730227D01*
X47036166Y-72724563D01*
X47059221Y-72721144D01*
X47082500Y-72720000D01*
X47557500Y-72720000D01*
X47580779Y-72721144D01*
X47580779Y-72721144D01*
G37*
D18*
G04 #@! TD*
G04 #@! TO.P,R4,1*
G04 #@! TO.N,/LED1*
X47320000Y-73245000D03*
D17*
G04 #@! TO.N,Net-(D2-Pad2)*
G04 #@! TO.C,R4*
G36*
X47580779Y-70971144D02*
X47603834Y-70974563D01*
X47626443Y-70980227D01*
X47648387Y-70988079D01*
X47669457Y-70998044D01*
X47689448Y-71010026D01*
X47708168Y-71023910D01*
X47725438Y-71039562D01*
X47741090Y-71056832D01*
X47754974Y-71075552D01*
X47766956Y-71095543D01*
X47776921Y-71116613D01*
X47784773Y-71138557D01*
X47790437Y-71161166D01*
X47793856Y-71184221D01*
X47795000Y-71207500D01*
X47795000Y-71782500D01*
X47793856Y-71805779D01*
X47790437Y-71828834D01*
X47784773Y-71851443D01*
X47776921Y-71873387D01*
X47766956Y-71894457D01*
X47754974Y-71914448D01*
X47741090Y-71933168D01*
X47725438Y-71950438D01*
X47708168Y-71966090D01*
X47689448Y-71979974D01*
X47669457Y-71991956D01*
X47648387Y-72001921D01*
X47626443Y-72009773D01*
X47603834Y-72015437D01*
X47580779Y-72018856D01*
X47557500Y-72020000D01*
X47082500Y-72020000D01*
X47059221Y-72018856D01*
X47036166Y-72015437D01*
X47013557Y-72009773D01*
X46991613Y-72001921D01*
X46970543Y-71991956D01*
X46950552Y-71979974D01*
X46931832Y-71966090D01*
X46914562Y-71950438D01*
X46898910Y-71933168D01*
X46885026Y-71914448D01*
X46873044Y-71894457D01*
X46863079Y-71873387D01*
X46855227Y-71851443D01*
X46849563Y-71828834D01*
X46846144Y-71805779D01*
X46845000Y-71782500D01*
X46845000Y-71207500D01*
X46846144Y-71184221D01*
X46849563Y-71161166D01*
X46855227Y-71138557D01*
X46863079Y-71116613D01*
X46873044Y-71095543D01*
X46885026Y-71075552D01*
X46898910Y-71056832D01*
X46914562Y-71039562D01*
X46931832Y-71023910D01*
X46950552Y-71010026D01*
X46970543Y-70998044D01*
X46991613Y-70988079D01*
X47013557Y-70980227D01*
X47036166Y-70974563D01*
X47059221Y-70971144D01*
X47082500Y-70970000D01*
X47557500Y-70970000D01*
X47580779Y-70971144D01*
X47580779Y-70971144D01*
G37*
D18*
G04 #@! TD*
G04 #@! TO.P,R4,2*
G04 #@! TO.N,Net-(D2-Pad2)*
X47320000Y-71495000D03*
D17*
G04 #@! TO.N,Net-(D3-Pad2)*
G04 #@! TO.C,R5*
G36*
X47580779Y-76051144D02*
X47603834Y-76054563D01*
X47626443Y-76060227D01*
X47648387Y-76068079D01*
X47669457Y-76078044D01*
X47689448Y-76090026D01*
X47708168Y-76103910D01*
X47725438Y-76119562D01*
X47741090Y-76136832D01*
X47754974Y-76155552D01*
X47766956Y-76175543D01*
X47776921Y-76196613D01*
X47784773Y-76218557D01*
X47790437Y-76241166D01*
X47793856Y-76264221D01*
X47795000Y-76287500D01*
X47795000Y-76862500D01*
X47793856Y-76885779D01*
X47790437Y-76908834D01*
X47784773Y-76931443D01*
X47776921Y-76953387D01*
X47766956Y-76974457D01*
X47754974Y-76994448D01*
X47741090Y-77013168D01*
X47725438Y-77030438D01*
X47708168Y-77046090D01*
X47689448Y-77059974D01*
X47669457Y-77071956D01*
X47648387Y-77081921D01*
X47626443Y-77089773D01*
X47603834Y-77095437D01*
X47580779Y-77098856D01*
X47557500Y-77100000D01*
X47082500Y-77100000D01*
X47059221Y-77098856D01*
X47036166Y-77095437D01*
X47013557Y-77089773D01*
X46991613Y-77081921D01*
X46970543Y-77071956D01*
X46950552Y-77059974D01*
X46931832Y-77046090D01*
X46914562Y-77030438D01*
X46898910Y-77013168D01*
X46885026Y-76994448D01*
X46873044Y-76974457D01*
X46863079Y-76953387D01*
X46855227Y-76931443D01*
X46849563Y-76908834D01*
X46846144Y-76885779D01*
X46845000Y-76862500D01*
X46845000Y-76287500D01*
X46846144Y-76264221D01*
X46849563Y-76241166D01*
X46855227Y-76218557D01*
X46863079Y-76196613D01*
X46873044Y-76175543D01*
X46885026Y-76155552D01*
X46898910Y-76136832D01*
X46914562Y-76119562D01*
X46931832Y-76103910D01*
X46950552Y-76090026D01*
X46970543Y-76078044D01*
X46991613Y-76068079D01*
X47013557Y-76060227D01*
X47036166Y-76054563D01*
X47059221Y-76051144D01*
X47082500Y-76050000D01*
X47557500Y-76050000D01*
X47580779Y-76051144D01*
X47580779Y-76051144D01*
G37*
D18*
G04 #@! TD*
G04 #@! TO.P,R5,2*
G04 #@! TO.N,Net-(D3-Pad2)*
X47320000Y-76575000D03*
D17*
G04 #@! TO.N,/LED2*
G04 #@! TO.C,R5*
G36*
X47580779Y-77801144D02*
X47603834Y-77804563D01*
X47626443Y-77810227D01*
X47648387Y-77818079D01*
X47669457Y-77828044D01*
X47689448Y-77840026D01*
X47708168Y-77853910D01*
X47725438Y-77869562D01*
X47741090Y-77886832D01*
X47754974Y-77905552D01*
X47766956Y-77925543D01*
X47776921Y-77946613D01*
X47784773Y-77968557D01*
X47790437Y-77991166D01*
X47793856Y-78014221D01*
X47795000Y-78037500D01*
X47795000Y-78612500D01*
X47793856Y-78635779D01*
X47790437Y-78658834D01*
X47784773Y-78681443D01*
X47776921Y-78703387D01*
X47766956Y-78724457D01*
X47754974Y-78744448D01*
X47741090Y-78763168D01*
X47725438Y-78780438D01*
X47708168Y-78796090D01*
X47689448Y-78809974D01*
X47669457Y-78821956D01*
X47648387Y-78831921D01*
X47626443Y-78839773D01*
X47603834Y-78845437D01*
X47580779Y-78848856D01*
X47557500Y-78850000D01*
X47082500Y-78850000D01*
X47059221Y-78848856D01*
X47036166Y-78845437D01*
X47013557Y-78839773D01*
X46991613Y-78831921D01*
X46970543Y-78821956D01*
X46950552Y-78809974D01*
X46931832Y-78796090D01*
X46914562Y-78780438D01*
X46898910Y-78763168D01*
X46885026Y-78744448D01*
X46873044Y-78724457D01*
X46863079Y-78703387D01*
X46855227Y-78681443D01*
X46849563Y-78658834D01*
X46846144Y-78635779D01*
X46845000Y-78612500D01*
X46845000Y-78037500D01*
X46846144Y-78014221D01*
X46849563Y-77991166D01*
X46855227Y-77968557D01*
X46863079Y-77946613D01*
X46873044Y-77925543D01*
X46885026Y-77905552D01*
X46898910Y-77886832D01*
X46914562Y-77869562D01*
X46931832Y-77853910D01*
X46950552Y-77840026D01*
X46970543Y-77828044D01*
X46991613Y-77818079D01*
X47013557Y-77810227D01*
X47036166Y-77804563D01*
X47059221Y-77801144D01*
X47082500Y-77800000D01*
X47557500Y-77800000D01*
X47580779Y-77801144D01*
X47580779Y-77801144D01*
G37*
D18*
G04 #@! TD*
G04 #@! TO.P,R5,1*
G04 #@! TO.N,/LED2*
X47320000Y-78325000D03*
D17*
G04 #@! TO.N,/SW2*
G04 #@! TO.C,R6*
G36*
X47580779Y-85816144D02*
X47603834Y-85819563D01*
X47626443Y-85825227D01*
X47648387Y-85833079D01*
X47669457Y-85843044D01*
X47689448Y-85855026D01*
X47708168Y-85868910D01*
X47725438Y-85884562D01*
X47741090Y-85901832D01*
X47754974Y-85920552D01*
X47766956Y-85940543D01*
X47776921Y-85961613D01*
X47784773Y-85983557D01*
X47790437Y-86006166D01*
X47793856Y-86029221D01*
X47795000Y-86052500D01*
X47795000Y-86627500D01*
X47793856Y-86650779D01*
X47790437Y-86673834D01*
X47784773Y-86696443D01*
X47776921Y-86718387D01*
X47766956Y-86739457D01*
X47754974Y-86759448D01*
X47741090Y-86778168D01*
X47725438Y-86795438D01*
X47708168Y-86811090D01*
X47689448Y-86824974D01*
X47669457Y-86836956D01*
X47648387Y-86846921D01*
X47626443Y-86854773D01*
X47603834Y-86860437D01*
X47580779Y-86863856D01*
X47557500Y-86865000D01*
X47082500Y-86865000D01*
X47059221Y-86863856D01*
X47036166Y-86860437D01*
X47013557Y-86854773D01*
X46991613Y-86846921D01*
X46970543Y-86836956D01*
X46950552Y-86824974D01*
X46931832Y-86811090D01*
X46914562Y-86795438D01*
X46898910Y-86778168D01*
X46885026Y-86759448D01*
X46873044Y-86739457D01*
X46863079Y-86718387D01*
X46855227Y-86696443D01*
X46849563Y-86673834D01*
X46846144Y-86650779D01*
X46845000Y-86627500D01*
X46845000Y-86052500D01*
X46846144Y-86029221D01*
X46849563Y-86006166D01*
X46855227Y-85983557D01*
X46863079Y-85961613D01*
X46873044Y-85940543D01*
X46885026Y-85920552D01*
X46898910Y-85901832D01*
X46914562Y-85884562D01*
X46931832Y-85868910D01*
X46950552Y-85855026D01*
X46970543Y-85843044D01*
X46991613Y-85833079D01*
X47013557Y-85825227D01*
X47036166Y-85819563D01*
X47059221Y-85816144D01*
X47082500Y-85815000D01*
X47557500Y-85815000D01*
X47580779Y-85816144D01*
X47580779Y-85816144D01*
G37*
D18*
G04 #@! TD*
G04 #@! TO.P,R6,1*
G04 #@! TO.N,/SW2*
X47320000Y-86340000D03*
D17*
G04 #@! TO.N,GND*
G04 #@! TO.C,R6*
G36*
X47580779Y-84066144D02*
X47603834Y-84069563D01*
X47626443Y-84075227D01*
X47648387Y-84083079D01*
X47669457Y-84093044D01*
X47689448Y-84105026D01*
X47708168Y-84118910D01*
X47725438Y-84134562D01*
X47741090Y-84151832D01*
X47754974Y-84170552D01*
X47766956Y-84190543D01*
X47776921Y-84211613D01*
X47784773Y-84233557D01*
X47790437Y-84256166D01*
X47793856Y-84279221D01*
X47795000Y-84302500D01*
X47795000Y-84877500D01*
X47793856Y-84900779D01*
X47790437Y-84923834D01*
X47784773Y-84946443D01*
X47776921Y-84968387D01*
X47766956Y-84989457D01*
X47754974Y-85009448D01*
X47741090Y-85028168D01*
X47725438Y-85045438D01*
X47708168Y-85061090D01*
X47689448Y-85074974D01*
X47669457Y-85086956D01*
X47648387Y-85096921D01*
X47626443Y-85104773D01*
X47603834Y-85110437D01*
X47580779Y-85113856D01*
X47557500Y-85115000D01*
X47082500Y-85115000D01*
X47059221Y-85113856D01*
X47036166Y-85110437D01*
X47013557Y-85104773D01*
X46991613Y-85096921D01*
X46970543Y-85086956D01*
X46950552Y-85074974D01*
X46931832Y-85061090D01*
X46914562Y-85045438D01*
X46898910Y-85028168D01*
X46885026Y-85009448D01*
X46873044Y-84989457D01*
X46863079Y-84968387D01*
X46855227Y-84946443D01*
X46849563Y-84923834D01*
X46846144Y-84900779D01*
X46845000Y-84877500D01*
X46845000Y-84302500D01*
X46846144Y-84279221D01*
X46849563Y-84256166D01*
X46855227Y-84233557D01*
X46863079Y-84211613D01*
X46873044Y-84190543D01*
X46885026Y-84170552D01*
X46898910Y-84151832D01*
X46914562Y-84134562D01*
X46931832Y-84118910D01*
X46950552Y-84105026D01*
X46970543Y-84093044D01*
X46991613Y-84083079D01*
X47013557Y-84075227D01*
X47036166Y-84069563D01*
X47059221Y-84066144D01*
X47082500Y-84065000D01*
X47557500Y-84065000D01*
X47580779Y-84066144D01*
X47580779Y-84066144D01*
G37*
D18*
G04 #@! TD*
G04 #@! TO.P,R6,2*
G04 #@! TO.N,GND*
X47320000Y-84590000D03*
D17*
G04 #@! TO.N,GND*
G04 #@! TO.C,R7*
G36*
X47580779Y-80256144D02*
X47603834Y-80259563D01*
X47626443Y-80265227D01*
X47648387Y-80273079D01*
X47669457Y-80283044D01*
X47689448Y-80295026D01*
X47708168Y-80308910D01*
X47725438Y-80324562D01*
X47741090Y-80341832D01*
X47754974Y-80360552D01*
X47766956Y-80380543D01*
X47776921Y-80401613D01*
X47784773Y-80423557D01*
X47790437Y-80446166D01*
X47793856Y-80469221D01*
X47795000Y-80492500D01*
X47795000Y-81067500D01*
X47793856Y-81090779D01*
X47790437Y-81113834D01*
X47784773Y-81136443D01*
X47776921Y-81158387D01*
X47766956Y-81179457D01*
X47754974Y-81199448D01*
X47741090Y-81218168D01*
X47725438Y-81235438D01*
X47708168Y-81251090D01*
X47689448Y-81264974D01*
X47669457Y-81276956D01*
X47648387Y-81286921D01*
X47626443Y-81294773D01*
X47603834Y-81300437D01*
X47580779Y-81303856D01*
X47557500Y-81305000D01*
X47082500Y-81305000D01*
X47059221Y-81303856D01*
X47036166Y-81300437D01*
X47013557Y-81294773D01*
X46991613Y-81286921D01*
X46970543Y-81276956D01*
X46950552Y-81264974D01*
X46931832Y-81251090D01*
X46914562Y-81235438D01*
X46898910Y-81218168D01*
X46885026Y-81199448D01*
X46873044Y-81179457D01*
X46863079Y-81158387D01*
X46855227Y-81136443D01*
X46849563Y-81113834D01*
X46846144Y-81090779D01*
X46845000Y-81067500D01*
X46845000Y-80492500D01*
X46846144Y-80469221D01*
X46849563Y-80446166D01*
X46855227Y-80423557D01*
X46863079Y-80401613D01*
X46873044Y-80380543D01*
X46885026Y-80360552D01*
X46898910Y-80341832D01*
X46914562Y-80324562D01*
X46931832Y-80308910D01*
X46950552Y-80295026D01*
X46970543Y-80283044D01*
X46991613Y-80273079D01*
X47013557Y-80265227D01*
X47036166Y-80259563D01*
X47059221Y-80256144D01*
X47082500Y-80255000D01*
X47557500Y-80255000D01*
X47580779Y-80256144D01*
X47580779Y-80256144D01*
G37*
D18*
G04 #@! TD*
G04 #@! TO.P,R7,2*
G04 #@! TO.N,GND*
X47320000Y-80780000D03*
D17*
G04 #@! TO.N,/SW1*
G04 #@! TO.C,R7*
G36*
X47580779Y-82006144D02*
X47603834Y-82009563D01*
X47626443Y-82015227D01*
X47648387Y-82023079D01*
X47669457Y-82033044D01*
X47689448Y-82045026D01*
X47708168Y-82058910D01*
X47725438Y-82074562D01*
X47741090Y-82091832D01*
X47754974Y-82110552D01*
X47766956Y-82130543D01*
X47776921Y-82151613D01*
X47784773Y-82173557D01*
X47790437Y-82196166D01*
X47793856Y-82219221D01*
X47795000Y-82242500D01*
X47795000Y-82817500D01*
X47793856Y-82840779D01*
X47790437Y-82863834D01*
X47784773Y-82886443D01*
X47776921Y-82908387D01*
X47766956Y-82929457D01*
X47754974Y-82949448D01*
X47741090Y-82968168D01*
X47725438Y-82985438D01*
X47708168Y-83001090D01*
X47689448Y-83014974D01*
X47669457Y-83026956D01*
X47648387Y-83036921D01*
X47626443Y-83044773D01*
X47603834Y-83050437D01*
X47580779Y-83053856D01*
X47557500Y-83055000D01*
X47082500Y-83055000D01*
X47059221Y-83053856D01*
X47036166Y-83050437D01*
X47013557Y-83044773D01*
X46991613Y-83036921D01*
X46970543Y-83026956D01*
X46950552Y-83014974D01*
X46931832Y-83001090D01*
X46914562Y-82985438D01*
X46898910Y-82968168D01*
X46885026Y-82949448D01*
X46873044Y-82929457D01*
X46863079Y-82908387D01*
X46855227Y-82886443D01*
X46849563Y-82863834D01*
X46846144Y-82840779D01*
X46845000Y-82817500D01*
X46845000Y-82242500D01*
X46846144Y-82219221D01*
X46849563Y-82196166D01*
X46855227Y-82173557D01*
X46863079Y-82151613D01*
X46873044Y-82130543D01*
X46885026Y-82110552D01*
X46898910Y-82091832D01*
X46914562Y-82074562D01*
X46931832Y-82058910D01*
X46950552Y-82045026D01*
X46970543Y-82033044D01*
X46991613Y-82023079D01*
X47013557Y-82015227D01*
X47036166Y-82009563D01*
X47059221Y-82006144D01*
X47082500Y-82005000D01*
X47557500Y-82005000D01*
X47580779Y-82006144D01*
X47580779Y-82006144D01*
G37*
D18*
G04 #@! TD*
G04 #@! TO.P,R7,1*
G04 #@! TO.N,/SW1*
X47320000Y-82530000D03*
D17*
G04 #@! TO.N,Net-(JP1-Pad2)*
G04 #@! TO.C,R8*
G36*
X100095779Y-82056144D02*
X100118834Y-82059563D01*
X100141443Y-82065227D01*
X100163387Y-82073079D01*
X100184457Y-82083044D01*
X100204448Y-82095026D01*
X100223168Y-82108910D01*
X100240438Y-82124562D01*
X100256090Y-82141832D01*
X100269974Y-82160552D01*
X100281956Y-82180543D01*
X100291921Y-82201613D01*
X100299773Y-82223557D01*
X100305437Y-82246166D01*
X100308856Y-82269221D01*
X100310000Y-82292500D01*
X100310000Y-82767500D01*
X100308856Y-82790779D01*
X100305437Y-82813834D01*
X100299773Y-82836443D01*
X100291921Y-82858387D01*
X100281956Y-82879457D01*
X100269974Y-82899448D01*
X100256090Y-82918168D01*
X100240438Y-82935438D01*
X100223168Y-82951090D01*
X100204448Y-82964974D01*
X100184457Y-82976956D01*
X100163387Y-82986921D01*
X100141443Y-82994773D01*
X100118834Y-83000437D01*
X100095779Y-83003856D01*
X100072500Y-83005000D01*
X99497500Y-83005000D01*
X99474221Y-83003856D01*
X99451166Y-83000437D01*
X99428557Y-82994773D01*
X99406613Y-82986921D01*
X99385543Y-82976956D01*
X99365552Y-82964974D01*
X99346832Y-82951090D01*
X99329562Y-82935438D01*
X99313910Y-82918168D01*
X99300026Y-82899448D01*
X99288044Y-82879457D01*
X99278079Y-82858387D01*
X99270227Y-82836443D01*
X99264563Y-82813834D01*
X99261144Y-82790779D01*
X99260000Y-82767500D01*
X99260000Y-82292500D01*
X99261144Y-82269221D01*
X99264563Y-82246166D01*
X99270227Y-82223557D01*
X99278079Y-82201613D01*
X99288044Y-82180543D01*
X99300026Y-82160552D01*
X99313910Y-82141832D01*
X99329562Y-82124562D01*
X99346832Y-82108910D01*
X99365552Y-82095026D01*
X99385543Y-82083044D01*
X99406613Y-82073079D01*
X99428557Y-82065227D01*
X99451166Y-82059563D01*
X99474221Y-82056144D01*
X99497500Y-82055000D01*
X100072500Y-82055000D01*
X100095779Y-82056144D01*
X100095779Y-82056144D01*
G37*
D18*
G04 #@! TD*
G04 #@! TO.P,R8,2*
G04 #@! TO.N,Net-(JP1-Pad2)*
X99785000Y-82530000D03*
D17*
G04 #@! TO.N,/CANLow*
G04 #@! TO.C,R8*
G36*
X101845779Y-82056144D02*
X101868834Y-82059563D01*
X101891443Y-82065227D01*
X101913387Y-82073079D01*
X101934457Y-82083044D01*
X101954448Y-82095026D01*
X101973168Y-82108910D01*
X101990438Y-82124562D01*
X102006090Y-82141832D01*
X102019974Y-82160552D01*
X102031956Y-82180543D01*
X102041921Y-82201613D01*
X102049773Y-82223557D01*
X102055437Y-82246166D01*
X102058856Y-82269221D01*
X102060000Y-82292500D01*
X102060000Y-82767500D01*
X102058856Y-82790779D01*
X102055437Y-82813834D01*
X102049773Y-82836443D01*
X102041921Y-82858387D01*
X102031956Y-82879457D01*
X102019974Y-82899448D01*
X102006090Y-82918168D01*
X101990438Y-82935438D01*
X101973168Y-82951090D01*
X101954448Y-82964974D01*
X101934457Y-82976956D01*
X101913387Y-82986921D01*
X101891443Y-82994773D01*
X101868834Y-83000437D01*
X101845779Y-83003856D01*
X101822500Y-83005000D01*
X101247500Y-83005000D01*
X101224221Y-83003856D01*
X101201166Y-83000437D01*
X101178557Y-82994773D01*
X101156613Y-82986921D01*
X101135543Y-82976956D01*
X101115552Y-82964974D01*
X101096832Y-82951090D01*
X101079562Y-82935438D01*
X101063910Y-82918168D01*
X101050026Y-82899448D01*
X101038044Y-82879457D01*
X101028079Y-82858387D01*
X101020227Y-82836443D01*
X101014563Y-82813834D01*
X101011144Y-82790779D01*
X101010000Y-82767500D01*
X101010000Y-82292500D01*
X101011144Y-82269221D01*
X101014563Y-82246166D01*
X101020227Y-82223557D01*
X101028079Y-82201613D01*
X101038044Y-82180543D01*
X101050026Y-82160552D01*
X101063910Y-82141832D01*
X101079562Y-82124562D01*
X101096832Y-82108910D01*
X101115552Y-82095026D01*
X101135543Y-82083044D01*
X101156613Y-82073079D01*
X101178557Y-82065227D01*
X101201166Y-82059563D01*
X101224221Y-82056144D01*
X101247500Y-82055000D01*
X101822500Y-82055000D01*
X101845779Y-82056144D01*
X101845779Y-82056144D01*
G37*
D18*
G04 #@! TD*
G04 #@! TO.P,R8,1*
G04 #@! TO.N,/CANLow*
X101535000Y-82530000D03*
D28*
G04 #@! TO.P,R9,1*
G04 #@! TO.N,Net-(R9-Pad1)*
X107942000Y-41890000D03*
G04 #@! TO.P,R9,2*
G04 #@! TO.N,/12V to 5V Converter/12V_IN*
X110142000Y-41890000D03*
G04 #@! TD*
D29*
G04 #@! TO.P,R10,2*
G04 #@! TO.N,/12V to 5V Converter/VFB*
X98882000Y-52685000D03*
G04 #@! TO.P,R10,1*
G04 #@! TO.N,+5V*
X98882000Y-54885000D03*
G04 #@! TD*
G04 #@! TO.P,R11,1*
G04 #@! TO.N,/12V to 5V Converter/VFB*
X98882000Y-50440000D03*
G04 #@! TO.P,R11,2*
G04 #@! TO.N,GND*
X98882000Y-48240000D03*
G04 #@! TD*
D28*
G04 #@! TO.P,R12,1*
G04 #@! TO.N,/12V_RAW*
X118948000Y-24872000D03*
G04 #@! TO.P,R12,2*
G04 #@! TO.N,/He Protec/UVLO*
X116748000Y-24872000D03*
G04 #@! TD*
G04 #@! TO.P,R13,2*
G04 #@! TO.N,GND*
X110228000Y-24872000D03*
G04 #@! TO.P,R13,1*
G04 #@! TO.N,/He Protec/UVLO*
X112428000Y-24872000D03*
G04 #@! TD*
G04 #@! TO.P,R14,2*
G04 #@! TO.N,/He Protec/OVLO*
X115308000Y-27412000D03*
G04 #@! TO.P,R14,1*
G04 #@! TO.N,/12V_RAW*
X117508000Y-27412000D03*
G04 #@! TD*
G04 #@! TO.P,R15,1*
G04 #@! TO.N,/He Protec/OVLO*
X112428000Y-27412000D03*
G04 #@! TO.P,R15,2*
G04 #@! TO.N,GND*
X110228000Y-27412000D03*
G04 #@! TD*
D29*
G04 #@! TO.P,R16,1*
G04 #@! TO.N,/He Protec/CLMODE*
X112344000Y-30038000D03*
G04 #@! TO.P,R16,2*
G04 #@! TO.N,GND*
X112344000Y-32238000D03*
G04 #@! TD*
G04 #@! TO.P,R17,2*
G04 #@! TO.N,GND*
X114122000Y-32238000D03*
G04 #@! TO.P,R17,1*
G04 #@! TO.N,/He Protec/SETI*
X114122000Y-34438000D03*
G04 #@! TD*
D30*
G04 #@! TO.P,SW1,1*
G04 #@! TO.N,+3V3*
X49860000Y-96990000D03*
G04 #@! TO.P,SW1,3*
G04 #@! TO.N,/SW2*
X49860000Y-88390000D03*
G04 #@! TO.P,SW1,2*
G04 #@! TO.N,+3V3*
X52400000Y-96990000D03*
G04 #@! TO.P,SW1,4*
G04 #@! TO.N,/SW1*
X52400000Y-88390000D03*
G04 #@! TD*
D31*
G04 #@! TO.P,UART TX,1*
G04 #@! TO.N,/UART_TX*
X52400000Y-54590000D03*
G04 #@! TD*
G04 #@! TO.P,UART RX,1*
G04 #@! TO.N,/UART_RX*
X52400000Y-52050000D03*
G04 #@! TD*
G04 #@! TO.P,TP3,1*
G04 #@! TO.N,/I2Cclk*
X64846000Y-57130000D03*
G04 #@! TD*
G04 #@! TO.P,TP4,1*
G04 #@! TO.N,/I2Ccom*
X64846000Y-50780000D03*
G04 #@! TD*
D32*
G04 #@! TO.P,TP5,1*
G04 #@! TO.N,GND*
X75260000Y-101580000D03*
G04 #@! TD*
G04 #@! TO.P,TP6,1*
G04 #@! TO.N,+3V3*
X56210000Y-101580000D03*
G04 #@! TD*
D31*
G04 #@! TO.P,GPSTX,1*
G04 #@! TO.N,/GPSTX*
X108280000Y-91420000D03*
G04 #@! TD*
D32*
G04 #@! TO.P,TP8,1*
G04 #@! TO.N,+12V*
X68910000Y-101580000D03*
G04 #@! TD*
G04 #@! TO.P,TP9,1*
G04 #@! TO.N,+5V*
X62560000Y-101580000D03*
G04 #@! TD*
D31*
G04 #@! TO.P,GPSRX,1*
G04 #@! TO.N,/GPSRX*
X110820000Y-91420000D03*
G04 #@! TD*
G04 #@! TO.P,TP11,1*
G04 #@! TO.N,/CANHigh*
X105740000Y-85070000D03*
G04 #@! TD*
G04 #@! TO.P,TP12,1*
G04 #@! TO.N,/CANLow*
X107010000Y-82530000D03*
G04 #@! TD*
D33*
G04 #@! TO.P,U3,9*
G04 #@! TO.N,Net-(U3-Pad9)*
X100660000Y-95738000D03*
D34*
G04 #@! TO.P,U3,*
G04 #@! TO.N,*
X120980000Y-66274000D03*
X100660000Y-66274000D03*
D33*
G04 #@! TO.P,U3,8*
G04 #@! TO.N,+5V*
X103200000Y-95738000D03*
G04 #@! TO.P,U3,7*
G04 #@! TO.N,GND*
X105740000Y-95738000D03*
G04 #@! TO.P,U3,6*
G04 #@! TO.N,/GPSTX*
X108280000Y-95738000D03*
G04 #@! TO.P,U3,5*
G04 #@! TO.N,/GPSRX*
X110820000Y-95738000D03*
G04 #@! TO.P,U3,4*
G04 #@! TO.N,Net-(U3-Pad4)*
X113360000Y-95738000D03*
G04 #@! TO.P,U3,3*
G04 #@! TO.N,+BATT*
X115900000Y-95738000D03*
G04 #@! TO.P,U3,2*
G04 #@! TO.N,Net-(U3-Pad2)*
X118440000Y-95738000D03*
G04 #@! TO.P,U3,1*
G04 #@! TO.N,Net-(U3-Pad1)*
X120980000Y-95738000D03*
G04 #@! TD*
D16*
G04 #@! TO.P,U4,8*
G04 #@! TO.N,GND*
X110500000Y-86340000D03*
G04 #@! TO.P,U4,7*
G04 #@! TO.N,/CANHigh*
X110500000Y-85070000D03*
G04 #@! TO.P,U4,6*
G04 #@! TO.N,/CANLow*
X110500000Y-83800000D03*
G04 #@! TO.P,U4,5*
G04 #@! TO.N,Net-(U4-Pad5)*
X110500000Y-82530000D03*
G04 #@! TO.P,U4,4*
G04 #@! TO.N,/CANRX*
X115900000Y-82530000D03*
G04 #@! TO.P,U4,3*
G04 #@! TO.N,+3V3*
X115900000Y-83800000D03*
G04 #@! TO.P,U4,2*
G04 #@! TO.N,GND*
X115900000Y-85070000D03*
G04 #@! TO.P,U4,1*
G04 #@! TO.N,/CANTX*
X115900000Y-86340000D03*
G04 #@! TD*
D35*
G04 #@! TO.P,U5,1*
G04 #@! TO.N,Net-(R9-Pad1)*
X105847000Y-42670000D03*
G04 #@! TO.P,U5,2*
G04 #@! TO.N,/12V to 5V Converter/VFB*
X104577000Y-42670000D03*
G04 #@! TO.P,U5,3*
G04 #@! TO.N,Net-(C11-Pad2)*
X103307000Y-42670000D03*
G04 #@! TO.P,U5,4*
G04 #@! TO.N,Net-(C10-Pad1)*
X102037000Y-42670000D03*
G04 #@! TO.P,U5,5*
G04 #@! TO.N,GND*
X102037000Y-48070000D03*
G04 #@! TO.P,U5,6*
G04 #@! TO.N,Net-(C12-Pad2)*
X103307000Y-48070000D03*
G04 #@! TO.P,U5,7*
G04 #@! TO.N,Net-(C12-Pad1)*
X104577000Y-48070000D03*
G04 #@! TO.P,U5,8*
G04 #@! TO.N,/12V to 5V Converter/12V_IN*
X105847000Y-48070000D03*
D36*
G04 #@! TO.P,U5,9*
G04 #@! TO.N,GND*
X103942000Y-45370000D03*
G04 #@! TD*
D37*
G04 #@! TO.P,U6,1*
G04 #@! TO.N,/12V_RAW*
X118128000Y-30287000D03*
G04 #@! TO.P,U6,2*
X117678000Y-30287000D03*
G04 #@! TO.P,U6,3*
G04 #@! TO.N,/He Protec/OVLO*
X117228000Y-30287000D03*
G04 #@! TO.P,U6,4*
G04 #@! TO.N,/He Protec/UVLO*
X116778000Y-30287000D03*
G04 #@! TO.P,U6,5*
G04 #@! TO.N,Net-(U6-Pad5)*
X116328000Y-30287000D03*
G04 #@! TO.P,U6,6*
G04 #@! TO.N,/He Protec/CLMODE*
X115878000Y-30287000D03*
G04 #@! TO.P,U6,7*
G04 #@! TO.N,GND*
X115878000Y-33087000D03*
G04 #@! TO.P,U6,8*
G04 #@! TO.N,/He Protec/SETI*
X116328000Y-33087000D03*
G04 #@! TO.P,U6,9*
G04 #@! TO.N,Net-(U6-Pad9)*
X116778000Y-33087000D03*
G04 #@! TO.P,U6,10*
G04 #@! TO.N,Net-(U6-Pad10)*
X117228000Y-33087000D03*
G04 #@! TO.P,U6,11*
G04 #@! TO.N,+12V*
X117678000Y-33087000D03*
G04 #@! TO.P,U6,12*
X118128000Y-33087000D03*
D38*
G04 #@! TO.P,U6,13*
G04 #@! TO.N,GND*
X117003000Y-31687000D03*
G04 #@! TD*
D39*
G04 #@! TO.P,Y1,1*
G04 #@! TO.N,Net-(C4-Pad1)*
X77546000Y-57130000D03*
G04 #@! TO.P,Y1,2*
G04 #@! TO.N,Net-(C3-Pad1)*
X77546000Y-54630000D03*
G04 #@! TD*
D40*
G04 #@! TO.P,J4,1*
G04 #@! TO.N,/CANHigh*
X82880000Y-23602000D03*
D41*
G04 #@! TO.P,J4,2*
G04 #@! TO.N,/CANLow*
X85420000Y-23602000D03*
G04 #@! TO.P,J4,3*
G04 #@! TO.N,/12V_RAW*
X87960000Y-23602000D03*
G04 #@! TO.P,J4,4*
G04 #@! TO.N,GND*
X90500000Y-23602000D03*
G04 #@! TD*
D42*
G04 #@! TO.N,GND*
X101422000Y-54336000D03*
X102946000Y-54336000D03*
X107518000Y-45700000D03*
X110820000Y-44176000D03*
X109296000Y-44176000D03*
X104978000Y-46462000D03*
X103962000Y-46462000D03*
X102946000Y-46462000D03*
X102946000Y-45446000D03*
X103962000Y-45446000D03*
X104978000Y-45446000D03*
X104978000Y-44430000D03*
X103962000Y-44430000D03*
X102946000Y-44430000D03*
X46050000Y-83800000D03*
X73736000Y-48240000D03*
X72466000Y-55860000D03*
X51040000Y-69105000D03*
X72085000Y-101580000D03*
X107518000Y-44176000D03*
X102184000Y-53320000D03*
X114155000Y-86340000D03*
X99517000Y-41255000D03*
X50495058Y-74910000D03*
X110312000Y-28936000D03*
X117003000Y-31687000D03*
X118186000Y-31730000D03*
X115646000Y-31730000D03*
G04 #@! TO.N,+3V3*
X51130000Y-85070000D03*
X51765000Y-71735000D03*
X51765000Y-60296399D03*
X68021000Y-55860000D03*
X63576000Y-55860000D03*
X51130000Y-88245008D03*
X47320000Y-45446000D03*
X113313294Y-81584060D03*
X111327990Y-80244000D03*
X93040000Y-79228000D03*
X86944000Y-78720000D03*
X45542000Y-43575990D03*
G04 #@! TO.N,+BATT*
X117170000Y-87610000D03*
X117170000Y-81260000D03*
X113868000Y-80752000D03*
X112089992Y-79228000D03*
X93040000Y-76688000D03*
X86944000Y-76180000D03*
G04 #@! TO.N,+5V*
X62306000Y-101580000D03*
X62306000Y-96354001D03*
G04 #@! TO.N,/GPSRX*
X100660000Y-93960000D03*
X110185000Y-93325000D03*
G04 #@! TO.N,/GPSTX*
X100660000Y-92690000D03*
X106375000Y-92690000D03*
G04 #@! TO.N,/I2Ccom*
X66751000Y-51415000D03*
X66751000Y-53955000D03*
G04 #@! TO.N,/CANHigh*
X114388794Y-50005609D03*
X113106000Y-83292010D03*
X114376000Y-45700000D03*
X116408000Y-80244000D03*
G04 #@! TO.N,/CANLow*
X112333040Y-82657527D03*
X113360000Y-45700000D03*
X115575951Y-79689276D03*
X107264000Y-31465000D03*
X108534000Y-32999978D03*
X113363540Y-50005543D03*
G04 #@! TO.N,/He Protec/OVLO*
X117403000Y-29226548D03*
X115138000Y-29317000D03*
G04 #@! TO.N,+12V*
X117350000Y-64750000D03*
X86436000Y-81768000D03*
X69164000Y-95693601D03*
X68910000Y-101580000D03*
X115392000Y-66528000D03*
X93040000Y-81006000D03*
G04 #@! TD*
D43*
G04 #@! TO.N,GND*
X47320000Y-84590000D02*
X46840000Y-84590000D01*
X46840000Y-84590000D02*
X46050000Y-83800000D01*
X49775000Y-78325000D02*
X49860000Y-78325000D01*
X47320000Y-80780000D02*
X49775000Y-78325000D01*
X104470000Y-94468000D02*
X105740000Y-95738000D01*
X104470000Y-91420000D02*
X104470000Y-94468000D01*
X110500000Y-86890000D02*
X110500000Y-86340000D01*
X105970000Y-91420000D02*
X110500000Y-86890000D01*
X104470000Y-91420000D02*
X105970000Y-91420000D01*
X115425000Y-85070000D02*
X114155000Y-86340000D01*
X115900000Y-85070000D02*
X115425000Y-85070000D01*
X114155000Y-86340000D02*
X110500000Y-86340000D01*
X114155000Y-89655000D02*
X114155000Y-86340000D01*
X115120000Y-90620000D02*
X114155000Y-89655000D01*
X115120000Y-91420000D02*
X115120000Y-90620000D01*
X79285990Y-48709990D02*
X80086000Y-49510000D01*
X75806010Y-48709990D02*
X79285990Y-48709990D01*
X74371000Y-50145000D02*
X75806010Y-48709990D01*
X73896000Y-50145000D02*
X74371000Y-50145000D01*
X80086000Y-49510000D02*
X80086000Y-52050000D01*
X80086000Y-54110000D02*
X81356000Y-55380000D01*
X80086000Y-52050000D02*
X80086000Y-54110000D01*
X110228000Y-24172000D02*
X110228000Y-24872000D01*
X112068000Y-22332000D02*
X110228000Y-24172000D01*
X113888000Y-22332000D02*
X112068000Y-22332000D01*
X110228000Y-24872000D02*
X110228000Y-27412000D01*
X73896000Y-50145000D02*
X73896000Y-48400000D01*
X73896000Y-48400000D02*
X73736000Y-48240000D01*
X71436000Y-55860000D02*
X72466000Y-55860000D01*
X49860000Y-68165000D02*
X50100000Y-68165000D01*
X50100000Y-68165000D02*
X51040000Y-69105000D01*
X115900000Y-85070000D02*
X119075000Y-85070000D01*
X99807000Y-39985000D02*
X99517000Y-40275000D01*
X100807000Y-39985000D02*
X99807000Y-39985000D01*
X99517000Y-40275000D02*
X99517000Y-41255000D01*
D44*
X72085000Y-101580000D02*
X75260000Y-101580000D01*
D43*
X50895057Y-77289943D02*
X50895057Y-75309999D01*
X50895057Y-75309999D02*
X50495058Y-74910000D01*
X49860000Y-78325000D02*
X50895057Y-77289943D01*
X50095059Y-74510001D02*
X50495058Y-74910000D01*
X49860000Y-74274942D02*
X50095059Y-74510001D01*
X49860000Y-73245000D02*
X49860000Y-74274942D01*
X110228000Y-27412000D02*
X110228000Y-28852000D01*
X110228000Y-28852000D02*
X110312000Y-28936000D01*
X112344000Y-32238000D02*
X114122000Y-32238000D01*
X114971000Y-33087000D02*
X115878000Y-33087000D01*
X114122000Y-32238000D02*
X114971000Y-33087000D01*
X110312000Y-29501685D02*
X110312000Y-28936000D01*
X110312000Y-30906000D02*
X110312000Y-29501685D01*
X111644000Y-32238000D02*
X110312000Y-30906000D01*
X112344000Y-32238000D02*
X111644000Y-32238000D01*
X117003000Y-31687000D02*
X118143000Y-31687000D01*
X118143000Y-31687000D02*
X118186000Y-31730000D01*
G04 #@! TO.N,+3V3*
X49860000Y-96990000D02*
X51130000Y-96990000D01*
X51431002Y-57150000D02*
X46990000Y-57150000D01*
X53475001Y-51533999D02*
X53475001Y-55106001D01*
X63096000Y-54590000D02*
X63096000Y-48240000D01*
X51130000Y-96990000D02*
X52400000Y-96990000D01*
X51765000Y-60296399D02*
X51765000Y-56816002D01*
X51765000Y-56816002D02*
X51431002Y-57150000D01*
X68496000Y-54670000D02*
X69686000Y-55860000D01*
X68496000Y-53955000D02*
X68496000Y-54670000D01*
X69686000Y-55860000D02*
X68021000Y-55860000D01*
X63576000Y-55070000D02*
X63096000Y-54590000D01*
X63576000Y-55860000D02*
X63576000Y-55070000D01*
X118595000Y-83800000D02*
X119075000Y-83320000D01*
X115900000Y-83800000D02*
X118595000Y-83800000D01*
X56210000Y-101455000D02*
X56210000Y-101580000D01*
X52400000Y-97645000D02*
X56210000Y-101455000D01*
X52400000Y-96990000D02*
X52400000Y-97645000D01*
X51765000Y-84435000D02*
X51765000Y-71735000D01*
X51130000Y-85070000D02*
X51765000Y-84435000D01*
X51130000Y-96990000D02*
X51130000Y-88245008D01*
X39700000Y-41890000D02*
X42240000Y-41890000D01*
X47719999Y-45845999D02*
X47320000Y-45446000D01*
X53407999Y-51533999D02*
X47719999Y-45845999D01*
X53475001Y-51533999D02*
X53407999Y-51533999D01*
X53991002Y-54590000D02*
X52467002Y-56114000D01*
X63096000Y-54590000D02*
X53991002Y-54590000D01*
X53475001Y-55106001D02*
X52467002Y-56114000D01*
X52467002Y-56114000D02*
X51765000Y-56816002D01*
X115425000Y-83800000D02*
X113313294Y-81688294D01*
X113313294Y-81688294D02*
X113313294Y-81584060D01*
X115900000Y-83800000D02*
X115425000Y-83800000D01*
X111327990Y-80244000D02*
X94056000Y-80244000D01*
X94056000Y-80244000D02*
X93040000Y-79228000D01*
X85420000Y-77196000D02*
X85420000Y-68560000D01*
X86944000Y-78720000D02*
X85420000Y-77196000D01*
X85420000Y-68560000D02*
X74244000Y-57384000D01*
X71210000Y-57384000D02*
X69686000Y-55860000D01*
X74244000Y-57384000D02*
X71210000Y-57384000D01*
X45449990Y-43575990D02*
X45542000Y-43575990D01*
X42240000Y-41890000D02*
X43764000Y-41890000D01*
X43764000Y-41890000D02*
X45449990Y-43575990D01*
G04 #@! TO.N,+BATT*
X117170000Y-94468000D02*
X115900000Y-95738000D01*
X117170000Y-91420000D02*
X117170000Y-94468000D01*
X117170000Y-91420000D02*
X117170000Y-87610000D01*
X76431000Y-51415000D02*
X73896000Y-51415000D01*
X78336000Y-49510000D02*
X76431000Y-51415000D01*
X114376000Y-81260000D02*
X114267999Y-81151999D01*
X114267999Y-81151999D02*
X113868000Y-80752000D01*
X117170000Y-81260000D02*
X114376000Y-81260000D01*
X112089992Y-79228000D02*
X95580000Y-79228000D01*
X95580000Y-79228000D02*
X93040000Y-76688000D01*
X73421000Y-51415000D02*
X73896000Y-51415000D01*
X72466000Y-52370000D02*
X73421000Y-51415000D01*
X72466000Y-54626999D02*
X72466000Y-52370000D01*
X86182000Y-68342999D02*
X72466000Y-54626999D01*
X86944000Y-76180000D02*
X86182000Y-75418000D01*
X86182000Y-75418000D02*
X86182000Y-68342999D01*
G04 #@! TO.N,Net-(C3-Pad1)*
X74371000Y-52685000D02*
X73896000Y-52685000D01*
X76316000Y-54630000D02*
X74371000Y-52685000D01*
X77546000Y-54630000D02*
X76316000Y-54630000D01*
X77546000Y-52840000D02*
X78336000Y-52050000D01*
X77546000Y-54630000D02*
X77546000Y-52840000D01*
G04 #@! TO.N,Net-(C4-Pad1)*
X81356000Y-57130000D02*
X77546000Y-57130000D01*
X73971000Y-53955000D02*
X73896000Y-53955000D01*
X77146000Y-57130000D02*
X73971000Y-53955000D01*
X77546000Y-57130000D02*
X77146000Y-57130000D01*
G04 #@! TO.N,+5V*
X101796628Y-94334628D02*
X103200000Y-95738000D01*
X101796628Y-92043372D02*
X101796628Y-94334628D01*
X99312998Y-91420000D02*
X93040000Y-85147002D01*
X102420000Y-91420000D02*
X99312998Y-91420000D01*
X101796628Y-92043372D02*
X102420000Y-91420000D01*
X102827000Y-57955000D02*
X102057000Y-57955000D01*
X98882000Y-55030000D02*
X98882000Y-54885000D01*
X102057000Y-57955000D02*
X101807000Y-57955000D01*
X96997000Y-54885000D02*
X96977000Y-54905000D01*
D44*
X96977000Y-54905000D02*
X96977000Y-55130000D01*
D43*
X92786000Y-84893002D02*
X93040000Y-85147002D01*
D45*
X42240000Y-44430000D02*
X39700000Y-44430000D01*
X96977000Y-54905000D02*
X96977000Y-54680000D01*
D43*
X92024000Y-84131002D02*
X93040000Y-85147002D01*
D45*
X106927000Y-60940000D02*
X100914000Y-60940000D01*
X107264000Y-60603000D02*
X106927000Y-60940000D01*
X107264000Y-58870000D02*
X107264000Y-60603000D01*
D44*
X92278000Y-69576000D02*
X92278000Y-83877002D01*
X100914000Y-60940000D02*
X92278000Y-69576000D01*
X92278000Y-83877002D02*
X92024000Y-84131002D01*
D43*
X78458990Y-96418601D02*
X62936285Y-96418601D01*
X84334990Y-90542601D02*
X78458990Y-96418601D01*
X62871685Y-96354001D02*
X62306000Y-96354001D01*
X62936285Y-96418601D02*
X62871685Y-96354001D01*
X84334991Y-88058599D02*
X84334990Y-90542601D01*
X91774397Y-83881399D02*
X87389471Y-83881399D01*
X92024000Y-84131002D02*
X91774397Y-83881399D01*
X87389471Y-83881399D02*
X86771399Y-84499471D01*
X86771399Y-84499471D02*
X86771399Y-84734601D01*
X86771399Y-84734601D02*
X86182000Y-85324000D01*
X86182000Y-86211590D02*
X84334991Y-88058599D01*
X86182000Y-85324000D02*
X86182000Y-86211590D01*
D45*
X91713156Y-29698000D02*
X86690000Y-29698000D01*
X94056000Y-54082000D02*
X94056000Y-32040844D01*
X81102000Y-44430000D02*
X43461314Y-44430000D01*
X84404000Y-31984000D02*
X84404000Y-41128000D01*
X100914000Y-60940000D02*
X94056000Y-54082000D01*
X86690000Y-29698000D02*
X84404000Y-31984000D01*
X84404000Y-41128000D02*
X81102000Y-44430000D01*
X43461314Y-44430000D02*
X42240000Y-44430000D01*
X94056000Y-32040844D02*
X91713156Y-29698000D01*
G04 #@! TO.N,/12V to 5V Converter/12V_IN*
X110343287Y-48356779D02*
X110093287Y-48356779D01*
X111851287Y-46848779D02*
X110343287Y-48356779D01*
X111851287Y-42491287D02*
X111851287Y-46848779D01*
X111250000Y-41890000D02*
X111851287Y-42491287D01*
X110142000Y-41890000D02*
X111250000Y-41890000D01*
D43*
G04 #@! TO.N,Net-(C10-Pad1)*
X101862000Y-42845000D02*
X102037000Y-42670000D01*
X100152000Y-42845000D02*
X101862000Y-42845000D01*
G04 #@! TO.N,Net-(C11-Pad2)*
X103307000Y-42670000D02*
X103307000Y-39985000D01*
G04 #@! TO.N,Net-(C12-Pad1)*
X104577000Y-48070000D02*
X104577000Y-49109000D01*
X105354000Y-49886000D02*
X105354000Y-50780000D01*
X104577000Y-49109000D02*
X105354000Y-49886000D01*
G04 #@! TO.N,/12V to 5V Converter/VFB*
X96977000Y-41854998D02*
X96977000Y-53005000D01*
X99796999Y-39034999D02*
X96977000Y-41854998D01*
X104317001Y-39034999D02*
X99796999Y-39034999D01*
X104577000Y-39294998D02*
X104317001Y-39034999D01*
X104577000Y-42670000D02*
X104577000Y-39294998D01*
X98562000Y-53005000D02*
X98882000Y-52685000D01*
X96977000Y-53005000D02*
X98562000Y-53005000D01*
X98882000Y-50440000D02*
X98882000Y-52685000D01*
G04 #@! TO.N,/12V_RAW*
X117678000Y-30287000D02*
X118128000Y-30287000D01*
D45*
X116408000Y-22332000D02*
X118948000Y-24872000D01*
X116388000Y-22332000D02*
X116408000Y-22332000D01*
X118948000Y-25972000D02*
X117508000Y-27412000D01*
X118948000Y-24872000D02*
X118948000Y-25972000D01*
X118128000Y-30062000D02*
X118128000Y-30287000D01*
X118761000Y-29429000D02*
X118128000Y-30062000D01*
X118761000Y-28515000D02*
X118761000Y-29429000D01*
X117658000Y-27412000D02*
X118761000Y-28515000D01*
X117508000Y-27412000D02*
X117658000Y-27412000D01*
X115255000Y-21199000D02*
X116388000Y-22332000D01*
X112033798Y-21199000D02*
X115255000Y-21199000D01*
X105566798Y-27666000D02*
X112033798Y-21199000D01*
X98120000Y-29190000D02*
X99644000Y-27666000D01*
X99644000Y-27666000D02*
X105566798Y-27666000D01*
X87960000Y-23602000D02*
X88145254Y-23602000D01*
X97059340Y-29190000D02*
X98120000Y-29190000D01*
X88145254Y-23602000D02*
X93733254Y-29190000D01*
X93733254Y-29190000D02*
X97059340Y-29190000D01*
D43*
G04 #@! TO.N,Net-(D1-Pad2)*
X49860000Y-66415000D02*
X47320000Y-66415000D01*
G04 #@! TO.N,Net-(D2-Pad2)*
X49860000Y-71495000D02*
X47320000Y-71495000D01*
G04 #@! TO.N,Net-(D3-Pad2)*
X49860000Y-76575000D02*
X47320000Y-76575000D01*
G04 #@! TO.N,/SW2*
X48465000Y-86340000D02*
X47320000Y-86340000D01*
X49860000Y-87735000D02*
X48465000Y-86340000D01*
X49860000Y-88390000D02*
X49860000Y-87735000D01*
X40563599Y-78313599D02*
X39700000Y-77450000D01*
X41051399Y-78801399D02*
X40563599Y-78313599D01*
X43591399Y-78801399D02*
X41051399Y-78801399D01*
X44780000Y-79990000D02*
X43591399Y-78801399D01*
X46050000Y-86340000D02*
X44780000Y-85070000D01*
X44780000Y-85070000D02*
X44780000Y-79990000D01*
X47320000Y-86340000D02*
X46050000Y-86340000D01*
G04 #@! TO.N,/SW1*
X46050000Y-78720000D02*
X42240000Y-74910000D01*
X46050000Y-81260000D02*
X46050000Y-78720000D01*
X47320000Y-82530000D02*
X46050000Y-81260000D01*
X52400000Y-88390000D02*
X52400000Y-86920000D01*
X52400000Y-86920000D02*
X51729979Y-86249979D01*
X51039979Y-86249979D02*
X47819072Y-83029072D01*
X47819072Y-83029072D02*
X47320000Y-82530000D01*
X51729979Y-86249979D02*
X51039979Y-86249979D01*
G04 #@! TO.N,/LED2*
X40563599Y-74046401D02*
X39700000Y-74910000D01*
X40888601Y-73721399D02*
X40563599Y-74046401D01*
X42810529Y-73721399D02*
X40888601Y-73721399D01*
X43510000Y-74420870D02*
X42810529Y-73721399D01*
X43510000Y-74515000D02*
X43510000Y-74420870D01*
X47320000Y-78325000D02*
X43510000Y-74515000D01*
G04 #@! TO.N,/LED1*
X43115000Y-73245000D02*
X42240000Y-72370000D01*
X47320000Y-73245000D02*
X43115000Y-73245000D01*
G04 #@! TO.N,/LED0*
X47320000Y-68165000D02*
X45655000Y-68165000D01*
X39129471Y-66101399D02*
X38430000Y-66800870D01*
X45655000Y-68165000D02*
X43591399Y-66101399D01*
X43591399Y-66101399D02*
X39129471Y-66101399D01*
X38430000Y-71100000D02*
X39700000Y-72370000D01*
X38430000Y-66800870D02*
X38430000Y-71100000D01*
G04 #@! TO.N,/CANTX*
X122321001Y-87681001D02*
X120980000Y-86340000D01*
X122321001Y-96381681D02*
X122321001Y-87681001D01*
X121623681Y-97079001D02*
X122321001Y-96381681D01*
X100016319Y-97079001D02*
X121623681Y-97079001D01*
X94357318Y-91420000D02*
X100016319Y-97079001D01*
X85421410Y-91420000D02*
X94357318Y-91420000D01*
X42240000Y-69830000D02*
X54940000Y-69830000D01*
X56210000Y-71100000D02*
X56210000Y-96500000D01*
X120980000Y-86340000D02*
X115900000Y-86340000D01*
X54940000Y-69830000D02*
X56210000Y-71100000D01*
X78433590Y-98405000D02*
X78435000Y-98406410D01*
X58115000Y-98405000D02*
X78433590Y-98405000D01*
X78435000Y-98406410D02*
X85421410Y-91420000D01*
X56210000Y-96500000D02*
X58115000Y-98405000D01*
G04 #@! TO.N,/CANRX*
X121450500Y-82469990D02*
X116985010Y-82469990D01*
X122885000Y-83904490D02*
X121450500Y-82469990D01*
X46849500Y-70644990D02*
X53775980Y-70644990D01*
X57507307Y-99067307D02*
X78410513Y-99067307D01*
X116985010Y-82469990D02*
X116925000Y-82530000D01*
X42240000Y-67290000D02*
X41051399Y-68478601D01*
X41750870Y-71100000D02*
X46394490Y-71100000D01*
X99784011Y-97529011D02*
X121810081Y-97529011D01*
X41051399Y-70400529D02*
X41750870Y-71100000D01*
X41051399Y-68478601D02*
X41051399Y-70400529D01*
X53775980Y-70644990D02*
X54484990Y-71354000D01*
X116925000Y-82530000D02*
X115900000Y-82530000D01*
X78410513Y-99067307D02*
X83517820Y-93960000D01*
X54484990Y-96044990D02*
X57507307Y-99067307D01*
X54484990Y-71354000D02*
X54484990Y-96044990D01*
X83517820Y-93960000D02*
X96215000Y-93960000D01*
X46394490Y-71100000D02*
X46849500Y-70644990D01*
X96215000Y-93960000D02*
X99784011Y-97529011D01*
X121810081Y-97529011D02*
X122885000Y-96454092D01*
X122885000Y-96454092D02*
X122885000Y-83904490D01*
G04 #@! TO.N,/GPSRX*
X110185000Y-93325000D02*
X110820000Y-93325000D01*
X110820000Y-91420000D02*
X110820000Y-93325000D01*
X110820000Y-93325000D02*
X110820000Y-95738000D01*
X57480000Y-65385000D02*
X56845000Y-64750000D01*
X100660000Y-93960000D02*
X100023590Y-93960000D01*
X57480000Y-96500000D02*
X57480000Y-65385000D01*
X100023590Y-93960000D02*
X94943590Y-88880000D01*
X94943590Y-88880000D02*
X87325000Y-88880000D01*
X87325000Y-88880000D02*
X78435000Y-97770000D01*
X78435000Y-97770000D02*
X58750000Y-97770000D01*
X56845000Y-64750000D02*
X42240000Y-64750000D01*
X58750000Y-97770000D02*
X57480000Y-96500000D01*
G04 #@! TO.N,/GPSTX*
X40563599Y-63886401D02*
X39700000Y-64750000D01*
X59329001Y-97079001D02*
X58750000Y-96500000D01*
X40888601Y-63561399D02*
X40563599Y-63886401D01*
X58750000Y-96500000D02*
X58750000Y-64750000D01*
X58750000Y-64750000D02*
X57561399Y-63561399D01*
X57561399Y-63561399D02*
X40888601Y-63561399D01*
X78435000Y-97079001D02*
X84785000Y-90729001D01*
X78435000Y-97079001D02*
X59329001Y-97079001D01*
X84785000Y-90729001D02*
X84785000Y-88245000D01*
X86608601Y-86421399D02*
X93121399Y-86421399D01*
X84785000Y-88245000D02*
X86608601Y-86421399D01*
X93121399Y-86421399D02*
X99390000Y-92690000D01*
X99390000Y-92690000D02*
X100660000Y-92690000D01*
X106375000Y-92690000D02*
X108280000Y-92690000D01*
X108280000Y-91420000D02*
X108280000Y-92690000D01*
X108280000Y-92690000D02*
X108280000Y-95738000D01*
G04 #@! TO.N,/I2Ccom*
X64846000Y-50780000D02*
X64846000Y-48240000D01*
X64846000Y-50780000D02*
X66116000Y-50780000D01*
X66751000Y-50145000D02*
X68496000Y-50145000D01*
X66116000Y-50780000D02*
X66751000Y-50145000D01*
X66751000Y-50145000D02*
X66751000Y-51415000D01*
X66751000Y-56816002D02*
X66751000Y-53955000D01*
X61357002Y-62210000D02*
X66751000Y-56816002D01*
X42240000Y-62210000D02*
X61357002Y-62210000D01*
G04 #@! TO.N,/I2Cclk*
X68021000Y-51415000D02*
X64846000Y-54590000D01*
X68496000Y-51415000D02*
X68021000Y-51415000D01*
X64846000Y-54590000D02*
X64846000Y-57130000D01*
X64096001Y-57879999D02*
X64846000Y-57130000D01*
X60954601Y-61021399D02*
X64096001Y-57879999D01*
X40888601Y-61021399D02*
X60954601Y-61021399D01*
X39700000Y-62210000D02*
X40888601Y-61021399D01*
G04 #@! TO.N,/UART_TX*
X47010000Y-54590000D02*
X46990000Y-54610000D01*
X52400000Y-54590000D02*
X47010000Y-54590000D01*
X40563599Y-55453599D02*
X39700000Y-54590000D01*
X40888601Y-55778601D02*
X40563599Y-55453599D01*
X45821399Y-55778601D02*
X40888601Y-55778601D01*
X46990000Y-54610000D02*
X45821399Y-55778601D01*
G04 #@! TO.N,/UART_RX*
X46140001Y-52919999D02*
X46990000Y-52070000D01*
X45740000Y-53320000D02*
X46140001Y-52919999D01*
X40970000Y-53320000D02*
X45740000Y-53320000D01*
X39700000Y-52050000D02*
X40970000Y-53320000D01*
X47010000Y-52050000D02*
X46990000Y-52070000D01*
X52400000Y-52050000D02*
X47010000Y-52050000D01*
G04 #@! TO.N,/CANHigh*
X105740000Y-85070000D02*
X110500000Y-85070000D01*
X95580000Y-85070000D02*
X105740000Y-85070000D01*
X103370001Y-32939999D02*
X104120000Y-32190000D01*
X103044999Y-33265001D02*
X103370001Y-32939999D01*
X99195001Y-33265001D02*
X103044999Y-33265001D01*
X98120000Y-32190000D02*
X99195001Y-33265001D01*
X110975000Y-85070000D02*
X112752990Y-83292010D01*
X110500000Y-85070000D02*
X110975000Y-85070000D01*
X112752990Y-83292010D02*
X113106000Y-83292010D01*
X108797004Y-32190000D02*
X109259002Y-32651998D01*
X104120000Y-32190000D02*
X108797004Y-32190000D01*
X109259002Y-32651998D02*
X109259002Y-32709002D01*
X114376000Y-37826000D02*
X114376000Y-45134315D01*
X114376000Y-45134315D02*
X114376000Y-45700000D01*
X109259002Y-32709002D02*
X114376000Y-37826000D01*
X96596000Y-30714000D02*
X98072000Y-32190000D01*
X93802000Y-30714000D02*
X96596000Y-30714000D01*
X85166000Y-25634000D02*
X88722000Y-25634000D01*
X88722000Y-25634000D02*
X93802000Y-30714000D01*
X83134000Y-23602000D02*
X85166000Y-25634000D01*
X82880000Y-23602000D02*
X83134000Y-23602000D01*
X98072000Y-32190000D02*
X98120000Y-32190000D01*
X116625000Y-79461315D02*
X116408000Y-79678315D01*
X114388794Y-50005609D02*
X113360000Y-51034403D01*
X113360000Y-60178000D02*
X116625000Y-63443000D01*
X113360000Y-51034403D02*
X113360000Y-60178000D01*
X116625000Y-63443000D02*
X116625000Y-79461315D01*
X116408000Y-79678315D02*
X116408000Y-80244000D01*
G04 #@! TO.N,/CANLow*
X108280000Y-83800000D02*
X110500000Y-83800000D01*
X107010000Y-82530000D02*
X108280000Y-83800000D01*
X107010000Y-82530000D02*
X101535000Y-82530000D01*
X101120000Y-32190000D02*
X104120000Y-29190000D01*
X112117473Y-82657527D02*
X112333040Y-82657527D01*
X110975000Y-83800000D02*
X112117473Y-82657527D01*
X110500000Y-83800000D02*
X110975000Y-83800000D01*
X104989000Y-29190000D02*
X104120000Y-29190000D01*
X107264000Y-31465000D02*
X104989000Y-29190000D01*
X108933999Y-33399977D02*
X108534000Y-32999978D01*
X113360000Y-45700000D02*
X113360000Y-37825978D01*
X113360000Y-37825978D02*
X108933999Y-33399977D01*
X85420000Y-23602000D02*
X87001989Y-25183989D01*
X96783412Y-30265001D02*
X103044999Y-30265001D01*
X93988400Y-30263989D02*
X96782400Y-30263989D01*
X96782400Y-30263989D02*
X96783412Y-30265001D01*
X88908400Y-25183989D02*
X93988400Y-30263989D01*
X87001989Y-25183989D02*
X88908400Y-25183989D01*
X103370001Y-29939999D02*
X104120000Y-29190000D01*
X103044999Y-30265001D02*
X103370001Y-29939999D01*
X116154000Y-79111227D02*
X116154000Y-63734000D01*
X116154000Y-63734000D02*
X112909989Y-60489989D01*
X112909989Y-60489989D02*
X112909989Y-50459094D01*
X112963541Y-50405542D02*
X113363540Y-50005543D01*
X115575951Y-79689276D02*
X116154000Y-79111227D01*
X112909989Y-50459094D02*
X112963541Y-50405542D01*
G04 #@! TO.N,Net-(JP1-Pad2)*
X99785000Y-82530000D02*
X95580000Y-82530000D01*
G04 #@! TO.N,Net-(R9-Pad1)*
X106627000Y-41890000D02*
X105847000Y-42670000D01*
X107942000Y-41890000D02*
X106627000Y-41890000D01*
G04 #@! TO.N,/He Protec/UVLO*
X112428000Y-24872000D02*
X116748000Y-24872000D01*
X116778000Y-29674550D02*
X116778000Y-30287000D01*
X116582999Y-29479549D02*
X116778000Y-29674550D01*
X116582999Y-25737001D02*
X116582999Y-29479549D01*
X116748000Y-25572000D02*
X116582999Y-25737001D01*
X116748000Y-24872000D02*
X116748000Y-25572000D01*
G04 #@! TO.N,/He Protec/OVLO*
X115308000Y-27412000D02*
X112428000Y-27412000D01*
X117228000Y-30287000D02*
X117228000Y-29401548D01*
X117228000Y-29401548D02*
X117403000Y-29226548D01*
X115138000Y-27582000D02*
X115308000Y-27412000D01*
X115138000Y-29317000D02*
X115138000Y-27582000D01*
G04 #@! TO.N,/He Protec/CLMODE*
X112593000Y-30287000D02*
X112344000Y-30038000D01*
X115878000Y-30287000D02*
X112593000Y-30287000D01*
G04 #@! TO.N,/He Protec/SETI*
X114822000Y-34438000D02*
X114122000Y-34438000D01*
X115577000Y-34438000D02*
X114822000Y-34438000D01*
X116328000Y-33687000D02*
X115577000Y-34438000D01*
X116328000Y-33087000D02*
X116328000Y-33687000D01*
G04 #@! TO.N,+12V*
X117678000Y-33687000D02*
X117753000Y-33762000D01*
X117678000Y-33087000D02*
X117678000Y-33687000D01*
X118128000Y-33312000D02*
X118128000Y-33087000D01*
X117753000Y-33762000D02*
X117753000Y-33687000D01*
X117753000Y-33687000D02*
X117932000Y-33508000D01*
X117932000Y-33508000D02*
X118128000Y-33312000D01*
D45*
X117737999Y-42736001D02*
X116488000Y-43986000D01*
X118192001Y-42281999D02*
X117737999Y-42736001D01*
X118192001Y-39168079D02*
X118192001Y-42281999D01*
X117383999Y-38360077D02*
X118192001Y-39168079D01*
X117383999Y-34056001D02*
X117383999Y-38360077D01*
X117753000Y-33687000D02*
X117383999Y-34056001D01*
D43*
X78352399Y-95693601D02*
X69164000Y-95693601D01*
X86436000Y-84198459D02*
X85674000Y-84960459D01*
X86436000Y-81768000D02*
X86436000Y-84198459D01*
X85674000Y-84960459D02*
X85674000Y-86083181D01*
X85674000Y-86083181D02*
X83884981Y-87872200D01*
X83884981Y-87872200D02*
X83884980Y-90161020D01*
X83884980Y-90161020D02*
X78352399Y-95693601D01*
X117350000Y-64570000D02*
X117350000Y-64750000D01*
X116488000Y-44002000D02*
X119710000Y-47224000D01*
X116488000Y-43986000D02*
X116488000Y-44002000D01*
X119710000Y-49510000D02*
X122250000Y-52050000D01*
X119710000Y-47224000D02*
X119710000Y-49510000D01*
X122250000Y-52050000D02*
X122250000Y-59670000D01*
X122250000Y-59670000D02*
X117350000Y-64570000D01*
X93605685Y-81006000D02*
X93040000Y-81006000D01*
X111836000Y-81006000D02*
X93605685Y-81006000D01*
X115392000Y-66528000D02*
X115392000Y-77450000D01*
X115392000Y-77450000D02*
X111836000Y-81006000D01*
G04 #@! TD*
D46*
G04 #@! TO.N,Net-(C12-Pad2)*
G36*
X103581000Y-47424461D02*
X103581000Y-49510000D01*
X103590667Y-49558601D01*
X103618197Y-49599803D01*
X104089000Y-50070606D01*
X104089000Y-51288000D01*
X104098667Y-51336601D01*
X104126197Y-51377803D01*
X104165275Y-51416881D01*
X104296191Y-51612809D01*
X104492119Y-51743725D01*
X104634197Y-51885803D01*
X104675399Y-51913333D01*
X104724000Y-51923000D01*
X110259394Y-51923000D01*
X110439000Y-52102606D01*
X110439000Y-55504262D01*
X110312000Y-55479000D01*
X104089000Y-55479000D01*
X104089000Y-52050000D01*
X104079333Y-52001399D01*
X104051803Y-51960197D01*
X103289803Y-51198197D01*
X103248601Y-51170667D01*
X103200000Y-51161000D01*
X102819000Y-51161000D01*
X102819000Y-50324606D01*
X103035803Y-50107803D01*
X103063333Y-50066601D01*
X103073000Y-50018000D01*
X103073000Y-47497000D01*
X103151874Y-47497000D01*
X103454000Y-47371856D01*
X103581000Y-47424461D01*
X103581000Y-47424461D01*
G37*
X103581000Y-47424461D02*
X103581000Y-49510000D01*
X103590667Y-49558601D01*
X103618197Y-49599803D01*
X104089000Y-50070606D01*
X104089000Y-51288000D01*
X104098667Y-51336601D01*
X104126197Y-51377803D01*
X104165275Y-51416881D01*
X104296191Y-51612809D01*
X104492119Y-51743725D01*
X104634197Y-51885803D01*
X104675399Y-51913333D01*
X104724000Y-51923000D01*
X110259394Y-51923000D01*
X110439000Y-52102606D01*
X110439000Y-55504262D01*
X110312000Y-55479000D01*
X104089000Y-55479000D01*
X104089000Y-52050000D01*
X104079333Y-52001399D01*
X104051803Y-51960197D01*
X103289803Y-51198197D01*
X103248601Y-51170667D01*
X103200000Y-51161000D01*
X102819000Y-51161000D01*
X102819000Y-50324606D01*
X103035803Y-50107803D01*
X103063333Y-50066601D01*
X103073000Y-50018000D01*
X103073000Y-47497000D01*
X103151874Y-47497000D01*
X103454000Y-47371856D01*
X103581000Y-47424461D01*
G04 #@! TO.N,/12V to 5V Converter/12V_IN*
G36*
X117551000Y-47276606D02*
X117551000Y-48695394D01*
X116863394Y-49383000D01*
X115952606Y-49383000D01*
X115481803Y-48912197D01*
X115440601Y-48884667D01*
X115392000Y-48875000D01*
X111836000Y-48875000D01*
X111787399Y-48884667D01*
X111746197Y-48912197D01*
X111275394Y-49383000D01*
X106046606Y-49383000D01*
X105613000Y-48949394D01*
X105613000Y-47290711D01*
X105806711Y-47097000D01*
X115392000Y-47097000D01*
X115440601Y-47087333D01*
X115481803Y-47059803D01*
X115952606Y-46589000D01*
X116863394Y-46589000D01*
X117551000Y-47276606D01*
X117551000Y-47276606D01*
G37*
X117551000Y-47276606D02*
X117551000Y-48695394D01*
X116863394Y-49383000D01*
X115952606Y-49383000D01*
X115481803Y-48912197D01*
X115440601Y-48884667D01*
X115392000Y-48875000D01*
X111836000Y-48875000D01*
X111787399Y-48884667D01*
X111746197Y-48912197D01*
X111275394Y-49383000D01*
X106046606Y-49383000D01*
X105613000Y-48949394D01*
X105613000Y-47290711D01*
X105806711Y-47097000D01*
X115392000Y-47097000D01*
X115440601Y-47087333D01*
X115481803Y-47059803D01*
X115952606Y-46589000D01*
X116863394Y-46589000D01*
X117551000Y-47276606D01*
G04 #@! TO.N,+5V*
G36*
X101078197Y-56203803D02*
X101119399Y-56231333D01*
X101168000Y-56241000D01*
X110185000Y-56241000D01*
X110185000Y-60051000D01*
X101474606Y-60051000D01*
X96723000Y-55299394D01*
X96723000Y-54463000D01*
X99337394Y-54463000D01*
X101078197Y-56203803D01*
X101078197Y-56203803D01*
G37*
X101078197Y-56203803D02*
X101119399Y-56231333D01*
X101168000Y-56241000D01*
X110185000Y-56241000D01*
X110185000Y-60051000D01*
X101474606Y-60051000D01*
X96723000Y-55299394D01*
X96723000Y-54463000D01*
X99337394Y-54463000D01*
X101078197Y-56203803D01*
G04 #@! TO.N,GND*
G36*
X110962288Y-46335000D02*
X105486000Y-46335000D01*
X105242996Y-46383336D01*
X105036987Y-46520987D01*
X104943566Y-46660801D01*
X104877000Y-46647560D01*
X104277000Y-46647560D01*
X104037579Y-46695183D01*
X103951004Y-46637336D01*
X103708000Y-46589000D01*
X102946000Y-46589000D01*
X102702996Y-46637336D01*
X102496987Y-46774987D01*
X102359336Y-46980996D01*
X102311000Y-47224000D01*
X102311000Y-49754974D01*
X102242987Y-49822987D01*
X102105336Y-50028996D01*
X102057000Y-50272000D01*
X102057000Y-51288000D01*
X102105336Y-51531004D01*
X102242987Y-51737013D01*
X102448996Y-51874664D01*
X102692000Y-51923000D01*
X102936974Y-51923000D01*
X103327000Y-52313026D01*
X103327000Y-55479000D01*
X101431026Y-55479000D01*
X100025000Y-54072974D01*
X100025000Y-49764000D01*
X100015333Y-49715399D01*
X99987803Y-49674197D01*
X99936195Y-49622589D01*
X99930157Y-49592235D01*
X99789809Y-49382191D01*
X99579765Y-49241843D01*
X99549411Y-49235805D01*
X99225803Y-48912197D01*
X99184601Y-48884667D01*
X99136000Y-48875000D01*
X98426606Y-48875000D01*
X98247000Y-48695394D01*
X98247000Y-45244606D01*
X99442606Y-44049000D01*
X99558610Y-44049000D01*
X99777000Y-44092440D01*
X100527000Y-44092440D01*
X100745390Y-44049000D01*
X101518610Y-44049000D01*
X101737000Y-44092440D01*
X102337000Y-44092440D01*
X102555390Y-44049000D01*
X102788610Y-44049000D01*
X103007000Y-44092440D01*
X103607000Y-44092440D01*
X103825390Y-44049000D01*
X104058610Y-44049000D01*
X104277000Y-44092440D01*
X104877000Y-44092440D01*
X105095390Y-44049000D01*
X105328610Y-44049000D01*
X105547000Y-44092440D01*
X106147000Y-44092440D01*
X106394765Y-44043157D01*
X106604809Y-43902809D01*
X106745157Y-43692765D01*
X106767086Y-43582520D01*
X107316606Y-43033000D01*
X110962287Y-43033000D01*
X110962288Y-46335000D01*
X110962288Y-46335000D01*
G37*
X110962288Y-46335000D02*
X105486000Y-46335000D01*
X105242996Y-46383336D01*
X105036987Y-46520987D01*
X104943566Y-46660801D01*
X104877000Y-46647560D01*
X104277000Y-46647560D01*
X104037579Y-46695183D01*
X103951004Y-46637336D01*
X103708000Y-46589000D01*
X102946000Y-46589000D01*
X102702996Y-46637336D01*
X102496987Y-46774987D01*
X102359336Y-46980996D01*
X102311000Y-47224000D01*
X102311000Y-49754974D01*
X102242987Y-49822987D01*
X102105336Y-50028996D01*
X102057000Y-50272000D01*
X102057000Y-51288000D01*
X102105336Y-51531004D01*
X102242987Y-51737013D01*
X102448996Y-51874664D01*
X102692000Y-51923000D01*
X102936974Y-51923000D01*
X103327000Y-52313026D01*
X103327000Y-55479000D01*
X101431026Y-55479000D01*
X100025000Y-54072974D01*
X100025000Y-49764000D01*
X100015333Y-49715399D01*
X99987803Y-49674197D01*
X99936195Y-49622589D01*
X99930157Y-49592235D01*
X99789809Y-49382191D01*
X99579765Y-49241843D01*
X99549411Y-49235805D01*
X99225803Y-48912197D01*
X99184601Y-48884667D01*
X99136000Y-48875000D01*
X98426606Y-48875000D01*
X98247000Y-48695394D01*
X98247000Y-45244606D01*
X99442606Y-44049000D01*
X99558610Y-44049000D01*
X99777000Y-44092440D01*
X100527000Y-44092440D01*
X100745390Y-44049000D01*
X101518610Y-44049000D01*
X101737000Y-44092440D01*
X102337000Y-44092440D01*
X102555390Y-44049000D01*
X102788610Y-44049000D01*
X103007000Y-44092440D01*
X103607000Y-44092440D01*
X103825390Y-44049000D01*
X104058610Y-44049000D01*
X104277000Y-44092440D01*
X104877000Y-44092440D01*
X105095390Y-44049000D01*
X105328610Y-44049000D01*
X105547000Y-44092440D01*
X106147000Y-44092440D01*
X106394765Y-44043157D01*
X106604809Y-43902809D01*
X106745157Y-43692765D01*
X106767086Y-43582520D01*
X107316606Y-43033000D01*
X110962287Y-43033000D01*
X110962288Y-46335000D01*
G04 #@! TD*
M02*
